<svg version="1.1" xmlns="http://www.w3.org/2000/svg" xmlns:xlink="http://www.w3.org/1999/xlink" x="0px" y="0px"
	 viewBox="0 0 285.9 580" style="enable-background:new 0 0 285.9 580;" xml:space="preserve" width="286px" height="580px">
<style type="text/css">
	.st0{clip-path:url(#SVGID_2_);}
	.st1{fill:#BA992A;}
	.st2{font-family:'NexaLight';}
	.st3{font-size:85.6133px;}
	.st4{clip-path:url(#SVGID_2_);fill:#C1A260;}
</style>
<g>
	<defs>
		<path id="SVGID_1_" d="M0,290c0,160.2,127.4,290,284.5,290s284.5-129.8,284.5-290S441.6,0,284.5,0S0,129.8,0,290"/>
	</defs>
	<clipPath id="SVGID_2_">
		<use xlink:href="#SVGID_1_"  style="overflow:visible;"/>
	</clipPath>
	<g class="st0">
		<text transform="matrix(0.969 0.247 -0.247 0.969 176.0994 642.8419)" class="st1 st2 st3">À</text>
	</g>
	<g class="st0">
		<text transform="matrix(0.9932 0.1163 -0.1163 0.9932 238.9267 657.2673)" class="st1 st2" style="font-size:85.6134px;"> </text>
	</g>
	<g class="st0">
		<text transform="matrix(1 -8.309233e-03 8.309233e-03 1 267.1602 661.2587)" class="st1 st2" style="font-size:85.613px;">R</text>
	</g>
	<g class="st0">
		<text transform="matrix(0.9838 -0.1792 0.1792 0.9838 329.3403 660.0609)" class="st1 st2" style="font-size:85.6135px;">E</text>
	</g>
	<g class="st0">
		<text transform="matrix(0.9406 -0.3396 0.3396 0.9406 387.3327 648.8536)" class="st1 st2" style="font-size:85.6138px;">F</text>
	</g>
	<g class="st0">
		<text transform="matrix(0.8666 -0.4991 0.4991 0.8666 441.0739 629.2375)" class="st1 st2" style="font-size:85.6136px;">A</text>
	</g>
	<g class="st0">
		<text transform="matrix(0.7987 -0.6018 0.6018 0.7987 495.8174 595.8878)" class="st1 st2" style="font-size:85.6132px;">I</text>
	</g>
	<g class="st0">
		<text transform="matrix(0.7229 -0.691 0.691 0.7229 514.3323 582.9805)" class="st1 st2" style="font-size:85.6135px;">R</text>
	</g>
	<g class="st0">
		<text transform="matrix(0.5942 -0.8043 0.8043 0.5942 558.791 539.5239)" class="st1 st2" style="font-size:85.6134px;">E</text>
	</g>
	<path class="st4" d="M282.5,15.2C120.2,15.4,6.5,148.5,7.6,291.1c1.2,153.6,123.2,274.7,278.8,274.6
		c148.3-0.1,271.3-124.7,271.2-274.8C559.1,144.5,441.7,15.1,282.5,15.2 M48.2,407.2c-27-50.6-34.3-105.6-23.3-162.4
		c1.2-6.4,2.1-12.8,3.5-19.1c1.3-5.8,3.1-11.4,4.6-17.2c-20.9,59-19.8,117.9,1.9,176.3c-2.2-3.1-5.5-5.9-6.6-9.3
		c-30.6-101.3-12-192.3,60.3-270.2C145.6,43.7,218.2,17.4,301.4,22c50.3,2.8,96.1,20.3,137.1,50c5,3.6,8.7,9.1,13,13.7
		c12.2,12.6,24.4,25.2,36.6,37.7c2.2,3.6,3.1,5.6,1.9,7c-3.1-3.2-11.7-9.3-14.8-12.6c-45.9-50.1-102.5-77.9-170.3-84.2
		c-130.3-12-250.3,76.8-276.3,207.6C18,294.8,24.4,347,46.6,397.1c1.6,3.6,2.4,7.6,3.5,11.4C49.5,408.1,49,408.8,48.2,407.2
		 M323,334.6c22.6,20.6,30.5,46.3,28.7,76.3c-1,17.1-1.7,34.8,1.8,51.2c2.6,11.9,11.2,23.2,19.3,33c10.9,13.1,9.8,20.9-6.6,26.9
		c-27.1,10-55.1,15-85.3,14.4c-29.1,0.9-58.1-5.3-86.4-15.5c-14.4-5.2-25.4-14.1-26.9-30.2c-1.6-17.2,2.5-33.1,18.1-42.9
		c13.8-8.7,28.3-16.3,42.7-23.9c31.6-16.7,48.6-43.7,55.5-78c1.8-8.8,2.4-18.1,13.3-21.4C308.7,321,315.6,327.8,323,334.6
		 M311.1,300.6c9.6,20.4,35.6,28.8,40.1,53C344.2,337.5,315.5,328.9,311.1,300.6 M387.6,492.7c-23.4-4.7-35.3-45.6-23.3-67.6
		C364,451.9,362.8,476.3,387.6,492.7 M178.6,435.2c13.2-7.4,26.5-14.7,39.7-22.1c24.1-13.5,42-32,49.3-59.5c0.5-1.8,1.6-3.4,2.5-5.1
		c-1.5,22.8-10.4,42.2-29.4,54.7C221.4,416,200.2,427.7,178.6,435.2C179.2,436.3,178,434.1,178.6,435.2 M282.2,317.4
		c-15.2-0.1-27.3-12.5-26.8-27.6c0.4-15.4,12.4-27.3,27.4-27.2c14.6,0.1,27.6,12.8,27.9,27.3C310.9,305.4,298.3,317.6,282.2,317.4
		 M140,287.9c-11.4-8.3-24.4-14.8-37.2-20.8c-14-6.6-28.7-4.9-43.3-0.6c-14.6,4.4-21.9-1.2-19.5-16.3c8.4-53.5,33-98.9,71.4-136.8
		c4.4-4.3,8.9-8.5,13.5-12.6c11.6-10.2,24.3-17.4,40.1-10.5c17.7,7.8,29.2,21,30.2,41.1c0.5,10.6,0.1,21.3,0.1,37.2
		c-4.8,38.9,10.7,71.3,42.8,98.7c13.5,11.5,10.4,26.8-6.4,33.1C199,312.8,168.6,308.7,140,287.9 M228.3,308.5
		c-27.4,11.6-54,10.6-79.5-4.4c-12.3-7.2-23.9-15.7-36.2-22.9c-14.4-8.5-30.1-11.7-46.9-9.4c12.8-6.5,25.6-5.4,38,0.5
		c9.5,4.6,19,9.6,27.8,15.4C161,307.1,191.7,320.6,228.3,308.5 M175.9,76.9c11.9,14.4,31.6,24.1,31.6,45.3
		C196.5,106.3,185.9,91.2,175.9,76.9 M207.8,166.5c-2.4,44.5,15.1,77.4,55.3,99.6c-4.1-0.8-8.6-0.8-12.3-2.5
		C219.4,248.9,197.8,201.5,207.8,166.5 M349.9,158.7c-32.9,18-54,44.8-61.8,81.8C285.4,206.9,313.7,169.5,349.9,158.7 M280.4,241.1
		c-2.5,16.8-17.8,21.9-31.1,11.3c-26.1-21.1-38-48.4-36.1-81.9c0.6-10.2,0.9-20.5,1.6-30.7c1.3-21.9-6.1-40-22.4-54.7
		c-11.4-10.3-9.7-21.7,5-25.6c28.3-7.4,47.5-14.4,85.2-16.2c48.1,1.1,59.9,9.8,88.7,17c13.6,3.4,23.7,12.3,25.8,26.7
		c2.5,17-0.8,33.2-15.4,44.2c-9.4,7.1-19.8,13.1-30.5,18.1C311.5,167.8,286.8,197,280.4,241.1 M385.8,59.5
		c27.2,11.4,26,51.4,8.6,68.5C405,102.4,408.5,79,385.8,59.5 M75.3,436.8c21,18.4,35.5,44.2,61.6,57.2
		C107.6,484.7,92.3,459.9,75.3,436.8 M124.5,479.2c-47.7-39.5-75.9-90.5-86.1-151.2c-4.6-27,13.6-46.6,44.8-47.4
		c8,0.8,10.6,2.4,16.6,5.6c13.3,7.1,26.3,14.9,39,23c32.2,20.3,65.8,22.1,100.9,8.8c16.7-6.3,29.6,4.4,26.6,22
		c-5.6,32.4-22.6,56.4-53,70.5c-10.4,4.8-20.5,10.1-30.4,15.8c-17.2,9.9-27.9,24.5-32.1,44.2C147.3,487,137.7,490.1,124.5,479.2
		 M494.3,455.1c-61,75.8-140.1,107.8-236.3,99.6c-33.3-2.8-46.2-6.9-78.7-20c-3.3-1.3-14.1-5-16.9-7.5l-6.1-5.9
		c-1.3-1.4-2.7-3.2-3.4-5c20,7.7,39.4,17.7,60,22.9c144.1,36.5,238.5-52.7,235.5-50.3c-2.9,2.3,9.6-8.3,15.9-14.2
		c14.3-13.6,20-17.6,32.8-31.2c1.3-1.6,2.3-0.7,2.7,0.9C499,448.4,496.6,452.2,494.3,455.1 M525.4,330.6
		c-10.7,64.1-42.1,116.4-93.5,155.9c-20.3,15.6-58.5,3.3-59-24.7l-1-45.2c-1.7-16.2-1.8-32.8-5.7-48.4
		c-5.6-22.6-21.8-38.7-38.2-54.4c-4.6-4.4-8.5-12.1-8.5-18.2c0-8.7,7.2-13,16-16c31.3-10.6,60.1-8.1,87,12.2
		c9.4,7.1,20,12.7,30.3,18.4c16.9,9.4,34.5,11.3,53,4.7C519.7,309.9,527.8,316.3,525.4,330.6 M469.4,306c-8.4-2.9-16.7-6.8-24-11.9
		c-32.8-22.9-67.1-39.2-108.8-26.9c23.8-9.6,47.6-11.4,70.9-0.1c13.5,6.6,26.2,14.9,39.1,22.7c34.3,20.8,50,20.1,80.8-3.5
		C515.3,304.6,490,313.3,469.4,306 M476.5,298.3c-13.3-4.2-25.8-12-37.8-19.6c-21.8-13.8-44.1-25-71.4-25.5
		c-15.2,1-30.1,6.7-44.8,11.1c-13.7,4-26.2-5.6-23.7-19.8c5.4-31.8,19.3-57.7,50.2-72.2c13.6-6.4,26.7-14.1,39.5-22
		c14.2-8.8,22.5-22,26.1-38.4c4.2-18.8,13.4-21.7,28.2-8.7c46.6,41,74.7,92.3,84.5,153.5C531.5,282.7,503,306.7,476.5,298.3
		 M540,259.5c12.6,28.1,4.4,56.1-1.5,84.1C538.2,315.6,547.7,287.6,540,259.5"/>
	<path class="st4" d="M282.6,268.2c-12.1,0.1-23.2,11.1-23,22.7c0.2,12.1,10.7,21.8,23.4,21.6c12.4-0.1,22.2-10.4,22-22.9
		C304.9,277.9,294.6,268,282.6,268.2 M294.5,302.7c-6.7,5.9-14,8.1-20.8-0.4c2.4,0.2,4.8,0.5,7.2,0.6c8.5,0.2,15.4-3.9,14.4-12.2
		c-0.5-4.5-7.4-11.2-12-11.8c-8.3-1.1-14.4,4.3-14,14c0.1,1.6,0.6,3.2,0.9,4.8c-7.7-7.4-4.9-14.6,1.2-20.7
		c6.6-6.6,16.5-5.7,22.8,1.3C300.2,284.6,300.8,297.2,294.5,302.7"/>
</g>
</svg>
