<svg version="1.1" id="Calque_1" xmlns="http://www.w3.org/2000/svg" xmlns:xlink="http://www.w3.org/1999/xlink" x="0px" y="0px"
	 viewBox="0 0 330 552.3" style="enable-background:new 0 0 330 552.3;" xml:space="preserve" width="330px" height="552px">
<style type="text/css">
	.st0{clip-path:url(#SVGID_2_);fill:#C0CDDC;}
</style>
<g>
	<defs>
		<rect id="SVGID_1_" width="571" height="552.5"/>
	</defs>
	<clipPath id="SVGID_2_">
		<use xlink:href="#SVGID_1_"  style="overflow:visible;"/>
	</clipPath>
	<path class="st0" d="M391.3,456.6c16,2.6,52.4,11.2,58.9,11.6c6.5,0.3,5.4,19.4-8.3,13.4c-13.7-6-48.6-22.3-49.5-22.9
		C391.5,458,388.5,456.1,391.3,456.6"/>
	<path class="st0" d="M248.6,455.5c-21,10.9-70.9,32-78.9,37.3c-7.9,5.3-23-18-1.8-22.9c21.1-4.8,76.1-15.8,77.7-15.9
		C247.2,453.9,252.4,453.6,248.6,455.5"/>
	<path class="st0" d="M145.9,83c-11.7-21.4-3.7-48.3,17.7-59.9c21.4-11.7,48.3-3.7,59.9,17.7c11.7,21.4,3.7,48.3-17.7,59.9
		C184.4,112.3,157.5,104.4,145.9,83 M549.2,439.2c0,0-177.5,0-182.7,0c-5.2,0-8.3-4.8-0.8-8c5.4-2.3,10.8-4.9,16-7.7
		c77.8-42.4,115-137.3,91.8-191.8c-0.6-1.4-1.9-1-2,0.5c-1,18.2-15.1,32.7-23.6,39.4c-1.3,1-0.8,2.6,0.5,2.5
		c7-0.3,16.4-3.8,20.1-5.1c2.5-0.9,2.2,1.4,2.1,2.1c-2.9,57.9-44.4,94.3-101.2,125.6c-11.5-21.2-35-67-63-121.7l57.5-30.5l-5.2-9.6
		l-56.6,31.7c-25.2-49.4-53-105.5-77.3-157.9c21.8-18.6,28.4-50.5,14.2-76.6c-16.3-30-54-41-83.9-24.7c-30,16.3-41,54-24.7,83.9
		c14.2,26.1,44.7,37.9,72.1,29.7c30.8,48.9,62.9,102.7,90.8,150.7l-56.6,31.7l3.7,6.7l57.5-30.5c30.9,53.2,56.6,97.9,68.2,119
		c-57.1,30.8-110.2,45.9-160.4,17c-0.7-0.4-2.7-1.4-0.7-2.9c3.1-2.4,11.1-8.4,15.2-14.1c0.7-1-0.3-2.3-1.9-1.8
		c-10.2,3.4-30.1,7.5-45.9-1.6c-1.3-0.8-2.4,0.1-1.5,1.4c10.2,15,26.5,27.3,46.6,35.9c5.9,2.5,3.7,6.6-4.7,6.6H12.3
		c-31.3,0,4.2,25.2,28.3,21c24.1-4.2,179.3-19.5,212.1-14.2c32.8,5.2-12,30.1-27.7,37.8c-18,8.8-15.7,19.7-7.7,24.9
		c10.1,6.5,20.4,2.1,24.9-4.9c13.6-21.3,21.2-36.7,49.4-44.6c33.4-9.3,0,31.5,0,65c0,16.4,18.5,29.1,36.8,28.3
		c19.2-0.8,43.5-13.6,34.7-32.3c-6.3-13.3-38.9-57.9-24.7-68.4c3.9-2.9,14.3,5.7,18.4,10c13.1,13.9,19,26.5,25.1,34.1
		c4.9,6.1,19.1,12.7,24.7,8.3c10.5-8.3-4-21.3-9.4-24c-37.8-18.9-38.7-34.2-20.9-34.2c0,0,161.4,15.3,183.5,15.3
		C581.7,461.2,567.9,439.2,549.2,439.2"/>
</g>
</svg>
