<svg id="Calque_1" xmlns="http://www.w3.org/2000/svg" viewBox="0 0 400 91"><style>.st0{fill:#fff}</style><path class="st0" d="M2.95 28.29c0 6.26 4.6 10.86 9.39 10.86 4.24 0 7-2.76 8.47-6.81h.92c-1.47 4.6-4.6 7.73-9.39 7.73C7 40.07 2.03 35.1 2.03 28.29c0-6.82 4.97-11.79 10.3-11.79 4.79 0 7.92 3.13 9.21 7.73h-.92c-1.29-4.05-4.05-6.81-8.29-6.81-4.78.01-9.38 4.61-9.38 10.87M44.73 38.96v.92h-13.8V16.69h13.43v.92H31.85v9.75h11.59v.92H31.85v10.68zM69.4 16.69v23.19h-.74l-13.8-21.35v21.35h-.92V16.69h.73l13.81 21.35V16.69zM93.51 17.61h-7.36v22.27h-.92V17.61h-7.36v-.92h15.64zM102.9 28.65h6.96c3.35 0 5.74-2.39 5.74-5.52s-2.39-5.52-5.74-5.52h-6.96v11.04zm14.18 11.23h-1.11l-6.07-10.31h-6.99v10.31h-.92v-23.2h7.88c3.9 0 6.67 2.76 6.67 6.44 0 3.5-2.39 5.89-5.71 6.26l6.25 10.5zM139.9 38.96v.92h-13.81V16.69h13.44v.92h-12.52v9.75h11.6v.92h-11.6v10.68zM165.3 38.96c5.89 0 10.49-4.6 10.49-10.68 0-6.07-4.6-10.68-10.49-10.68h-3.87v21.36h3.87zm0 .92h-4.79v-23.2h4.79c6.44 0 11.41 4.97 11.41 11.6s-4.97 11.6-11.41 11.6M185.81 16.69c.48 0 .85.37.85 1.03 0 2.1-2.03 3.76-2.03 3.76l-.19-.18s1.29-1.29 1.36-2.95a.82.82 0 0 1-.81-.81c.01-.48.38-.85.82-.85M204.88 9.51h1.47l-3.13 4.42h-.55l2.21-4.42zm5.15 29.45v.92h-13.81v-23.2h13.44v.92h-12.52v9.76h11.6v.92h-11.6v10.68h12.89zM224.02 38.96c5.89 0 10.49-4.6 10.49-10.68 0-6.07-4.6-10.68-10.49-10.68h-3.87v21.36h3.87zm0 .92h-4.79v-23.2h4.79c6.44 0 11.41 4.97 11.41 11.6s-4.97 11.6-11.41 11.6M244.64 31.05V16.69h.92v14.36c0 5.15 2.95 8.1 7.18 8.1 4.24 0 7.18-2.95 7.18-8.1V16.69h.92v14.36c0 5.71-3.31 9.02-8.1 9.02-4.79 0-8.1-3.32-8.1-9.02M270.96 28.29c0 6.26 4.6 10.86 9.39 10.86 4.23 0 7-2.76 8.47-6.81h.92c-1.47 4.6-4.6 7.73-9.39 7.73-5.34 0-10.31-4.97-10.31-11.78s4.97-11.78 10.31-11.78c4.78 0 7.92 3.13 9.2 7.73h-.92c-1.29-4.05-4.05-6.81-8.28-6.81-4.79 0-9.39 4.6-9.39 10.86M300.05 32.52h11.05l-5.52-14.36-5.53 14.36zm5.15-15.83h.74l8.84 23.2h-.92l-2.39-6.44h-11.78l-2.39 6.44h-.92l8.82-23.2zM335.21 17.61h-7.37v22.27h-.92V17.61h-7.36v-.92h15.65zM343.67 16.69h.92v23.2h-.92zM364.29 17.42c-4.79 0-9.39 4.6-9.39 10.86s4.6 10.86 9.39 10.86c4.78 0 9.39-4.6 9.39-10.86 0-6.25-4.61-10.86-9.39-10.86m0 22.65c-5.34 0-10.31-4.97-10.31-11.78s4.97-11.78 10.31-11.78c5.34 0 10.31 4.97 10.31 11.78s-4.97 11.78-10.31 11.78M399.45 16.69v23.19h-.74l-13.8-21.35v21.35h-.92V16.69h.73l13.81 21.35V16.69zM2.61 69.57h3.22l-1.61-4.22-1.61 4.22zm1.84-7.36h-.77l-1.3-1.84h1.15l.92 1.84zm1.76 8.43H2.22l-.92 2.38H0l3.68-9.66h1.07l3.68 9.66h-1.3l-.92-2.38zM22.49 71.94v1.08h-5.83v-9.66h1.23v8.58zM25.25 69.57h3.22l-1.61-4.22-1.61 4.22zm3.6 1.07h-3.99l-.92 2.38h-1.3l3.68-9.66h1.07l3.68 9.66h-1.3l-.92-2.38zM39.13 63.9h4.28c1.66 0 3.04-1.38 3.04-3.18 0-1.8-1.38-3.18-3.04-3.18h-4.28v6.36zm3.32 1.94h-3.31v7.18h-2.21v-17.4h6.49c2.9 0 5.25 2.35 5.25 5.11 0 4-3.84 4.97-3.84 4.97l4.25 7.32h-2.49l-4.14-7.18zM58.6 50.23h2.07l-2.35 3.31h-1.38l1.66-3.31zm4.97 20.85v1.93H52.25v-17.4H63.3v1.93h-8.84v5.52h8.15v1.93h-8.15v6.08h9.11zM71.85 55.48c3.04 0 5.38 2.35 5.38 5.25h-2.21c0-1.93-1.38-3.31-3.18-3.31-2.07 0-3.45 1.38-3.45 2.76 0 4.28 9.25 2.07 9.25 8.29 0 2.49-2.21 4.69-5.8 4.69s-5.8-2.21-5.8-5.25h2.21c0 2.07 1.24 3.31 3.59 3.31 2.35 0 3.59-1.24 3.59-2.76 0-4.28-9.25-2.07-9.25-8.29.01-2.34 2.36-4.69 5.67-4.69M80.82 55.62h2.21v17.4h-2.21zM92.14 55.48c3.04 0 5.39 2.35 5.39 5.25h-2.21c0-1.93-1.38-3.31-3.18-3.31-2.07 0-3.45 1.38-3.45 2.76 0 4.28 9.25 2.07 9.25 8.29 0 2.49-2.21 4.69-5.8 4.69s-5.8-2.21-5.8-5.25h2.21c0 2.07 1.24 3.31 3.59 3.31 2.35 0 3.59-1.24 3.59-2.76 0-4.28-9.25-2.07-9.25-8.29 0-2.34 2.35-4.69 5.66-4.69M111.75 57.55h-5.25v15.47h-2.21V57.55h-5.24v-1.93h12.7zM115.75 66.8h5.8l-2.9-7.6-2.9 7.6zm6.49 1.94h-7.18l-1.66 4.28h-2.35l6.63-17.4h1.93l6.63 17.4h-2.35l-1.65-4.28zM141.29 55.62v17.4h-1.93l-8.7-13.12v13.12h-2.21v-17.4h1.94l8.7 13.12V55.62zM146.68 64.32c0 4.01 2.9 6.9 5.94 6.9 2.76 0 4.56-1.79 5.11-4h2.35c-.97 3.31-3.59 5.94-7.46 5.94-4.28 0-8.15-3.87-8.15-8.84s3.87-8.84 8.15-8.84c3.73 0 6.36 2.62 7.32 5.94h-2.35c-.55-2.21-2.35-4.01-4.97-4.01-3.04 0-5.94 2.9-5.94 6.91M174.43 71.08v1.94h-11.32v-17.4h11.04v1.93h-8.84v5.52h8.15v1.94h-8.15v6.07zM191.52 71.93v1.09h-6.39V63.2h6.23v1.09h-4.98v3.12h4.59v1.09h-4.59v3.43zM199.69 64.29h-2.96v8.73h-1.24v-8.73h-2.96V63.2h7.16zM208.02 69.57h3.22l-1.61-4.22-1.61 4.22zm1.84-7.36h-.77l-1.3-1.84h1.15l.92 1.84zm1.77 8.43h-3.99l-.92 2.38h-1.3l3.68-9.66h1.08l3.68 9.66h-1.3l-.93-2.38z"/><g><path class="st0" d="M226.22 71.94v1.08h-5.83v-9.66h1.23v8.58zM228.98 69.57h3.22l-1.61-4.22-1.61 4.22zm3.61 1.07h-3.99l-.92 2.38h-1.3l3.68-9.66h1.08l3.68 9.66h-1.3l-.93-2.38z"/></g><g><path class="st0" d="M243.3 64.32c0 4.01 2.9 6.9 5.94 6.9 2.76 0 4.56-1.79 5.11-4h2.35c-.97 3.31-3.59 5.94-7.46 5.94-4.28 0-8.15-3.87-8.15-8.84s3.87-8.84 8.15-8.84c3.73 0 6.35 2.62 7.32 5.94h-2.35c-.55-2.21-2.35-4.01-4.97-4.01-3.04 0-5.94 2.9-5.94 6.91M259.73 55.62h2.21v17.4h-2.21zM277.27 57.55h-5.25v15.47h-2.21V57.55h-5.25v-1.93h12.71zM286.24 71.22c3.04 0 5.94-2.9 5.94-6.91 0-4-2.9-6.9-5.94-6.9-3.04 0-5.94 2.9-5.94 6.9 0 4.01 2.9 6.91 5.94 6.91m0 1.94c-4.28 0-8.15-3.87-8.15-8.84s3.87-8.84 8.15-8.84 8.15 3.87 8.15 8.84-3.87 8.84-8.15 8.84M295.07 55.62h2.35l4.28 8.28 4.28-8.28h2.35l-5.52 10.63v6.77h-2.21v-6.77zM322.14 71.08v1.94h-11.33v-17.4h11.05v1.93h-8.84v5.52h8.15v1.94h-8.15v6.07zM338.57 55.62v17.4h-1.94l-8.7-13.12v13.12h-2.21v-17.4h1.94l8.7 13.12V55.62zM355.82 55.62v17.4h-1.93l-8.7-13.12v13.12h-2.21v-17.4h1.93l8.71 13.12V55.62zM371.56 71.08v1.94h-11.32v-17.4h11.05v1.93h-8.84v5.52h8.15v1.94h-8.15v6.07zM386.06 57.55h-5.25v15.47h-2.21V57.55h-5.25v-1.93h12.71zM395.03 50.23h2.07l-2.35 3.31h-1.38l1.66-3.31zM400 71.08v1.93h-11.32v-17.4h11.05v1.93h-8.84v5.52h8.15v1.93h-8.15v6.08H400z"/></g><path d="M0 90.51h399.65M0 0h399.65" fill="#003a60" stroke="#fff" stroke-width=".5" stroke-miterlimit="10"/></svg>