<svg id="Calque_1" data-name="Calque 1" xmlns="http://www.w3.org/2000/svg" viewBox="0 0 257.52 59.5"><defs><style>.cls-1{fill:#fff;}.cls-2{fill:none;stroke:#fff;stroke-miterlimit:10;stroke-width:0.5px;}</style></defs><path class="cls-1" d="M8,26.37c-3.48,0-6.72-3.24-6.72-7.68S4.56,11,8,11s6.72,3.24,6.72,7.68S11.52,26.37,8,26.37ZM8,11.61c-3.12,0-6.12,3-6.12,7.08s3,7.08,6.12,7.08,6.12-3,6.12-7.08S11.16,11.61,8,11.61Z"/><path class="cls-1" d="M25.44,11.13a4.44,4.44,0,1,1,0,8.88h-4v6.24h-.6V11.13Zm0,8.28a3.84,3.84,0,1,0,0-7.68h-4v7.68Z"/><path class="cls-1" d="M44.4,25.65v.6H36V11.13h.6V25.65Z"/><path class="cls-1" d="M58.68,25.65v.6h-9V11.13h8.76v.6H50.28v6.36h7.56v.6H50.28v7Z"/><path class="cls-1" d="M65.28,26.25h-.6V11.13h.6Z"/><path class="cls-1" d="M75.36,26.25H72.24V11.13h3.12a7.35,7.35,0,0,1,7.44,7.56A7.35,7.35,0,0,1,75.36,26.25Zm0-.6a6.79,6.79,0,0,0,6.84-7,6.79,6.79,0,0,0-6.84-7H72.84V25.65Z"/><path class="cls-1" d="M89.52,26.25h-.6V11.13h.6Z"/><path class="cls-1" d="M106.56,11.13V26.25h-.48l-9-13.92V26.25h-.6V11.13H97l9,13.92V11.13Z"/><path class="cls-1" d="M119.88,19.17h5.64v7.08H125l-.12-3.84s-1.56,4-5.52,4c-3.48,0-6.72-3.24-6.72-7.68S115.92,11,119.4,11a5.94,5.94,0,0,1,5.76,4.44h-.6a5.44,5.44,0,0,0-5.16-3.84c-3.12,0-6.12,3-6.12,7.08s3,7.08,6.12,7.08a5.86,5.86,0,0,0,5.52-6h-5Z"/><path class="cls-1" d="M136,11a4.44,4.44,0,0,1,4.44,4h-.6A3.89,3.89,0,0,0,136,11.61c-2.4,0-3.84,1.44-3.84,3.12,0,4.44,8.52,1.92,8.52,7.44,0,2.4-1.8,4.2-4.8,4.2a4.56,4.56,0,0,1-4.8-4.2h.6a4,4,0,0,0,4.2,3.6c2.64,0,4.2-1.56,4.2-3.6,0-4.92-8.52-2.4-8.52-7.44C131.52,12.69,133.2,11,136,11Z"/><path class="cls-1" d="M146.52,18.69c0,4.08,3,7.08,6.12,7.08,2.76,0,4.56-1.8,5.52-4.44h.6c-1,3-3,5-6.12,5-3.48,0-6.72-3.24-6.72-7.68S149.16,11,152.64,11c3.12,0,5.16,2,6,5H158c-.84-2.64-2.64-4.44-5.4-4.44C149.52,11.61,146.52,14.61,146.52,18.69Z"/><path class="cls-1" d="M173.76,25.65v.6h-9V11.13h8.76v.6h-8.16v6.36h7.56v.6h-7.56v7Z"/><path class="cls-1" d="M189.84,11.13V26.25h-.48l-9-13.92V26.25h-.6V11.13h.48l9,13.92V11.13Z"/><path class="cls-1" d="M205.56,11.73h-4.8V26.25h-.6V11.73h-4.8v-.6h10.2Z"/><path class="cls-1" d="M220.92,26.25h-.72l-4-6.72h-4.56v6.72h-.6V11.13h5.14a4.14,4.14,0,0,1,4.34,4.2,4,4,0,0,1-3.72,4.08Zm-9.24-7.32h4.54a3.6,3.6,0,1,0,0-7.2h-4.54Z"/><path class="cls-1" d="M226.68,20.49V11.13h.6v9.36c0,3.36,1.92,5.28,4.68,5.28s4.68-1.92,4.68-5.28V11.13h.6v9.36c0,3.72-2.16,5.88-5.28,5.88S226.68,24.21,226.68,20.49Z"/><path class="cls-1" d="M256.8,11.13h.72V26.25h-.6v-14l-5.88,14h-.48l-5.88-14v14h-.6V11.13h.72l6,14.28Z"/><path class="cls-1" d="M3.2,47.85H2.4L.1,41.55H1L2.8,46.7l1.85-5.15H5.5Z"/><path class="cls-1" d="M8.93,47.9a3.21,3.21,0,0,1,0-6.4,3.21,3.21,0,0,1,0,6.4Zm0-.7a2.53,2.53,0,0,0,0-5,2.53,2.53,0,0,0,0,5Z"/><path class="cls-1" d="M15.76,47.9a3.21,3.21,0,0,1,0-6.4,3.21,3.21,0,0,1,0,6.4Zm0-.7a2.53,2.53,0,0,0,0-5,2.53,2.53,0,0,0,0,5Z"/><path class="cls-1" d="M22.09,45.25h-1.2v2.6h-.8v-6.3h2.35A1.85,1.85,0,0,1,23,45.2l1.54,2.65h-.9Zm-1.2-.7h1.55a1.15,1.15,0,0,0,0-2.3H20.89Z"/><path class="cls-1" d="M34.47,39.66l-2.34,8.19h-1L27.63,36.51h1.53l2.52,8.19L34,36.51h.9l2.34,8.19,2.52-8.19h1.53L37.8,47.85h-1Z"/><path class="cls-1" d="M50.73,46.59v1.26H43.34V36.51h7.21v1.26H44.78v3.6H50.1v1.26H44.78v4Z"/><path class="cls-1" d="M60.86,46.59v1.26H53.48V36.51h7.2v1.26H54.92v3.6h5.31v1.26H54.92v4Z"/><path class="cls-1" d="M67.21,43.17H65.05v4.68H63.61V36.51h4.23a3.34,3.34,0,0,1,.92,6.57l2.77,4.77H69.91Zm-2.16-1.26h2.79a2.07,2.07,0,0,0,0-4.14H65.05Z"/><path class="cls-1" d="M77.08,36.42a3.44,3.44,0,0,1,3.51,3.42H79.15a2.18,2.18,0,0,0-4.32-.36c0,2.79,6,1.35,6,5.4,0,1.62-1.44,3.06-3.78,3.06S73.3,46.5,73.3,44.52h1.44a2,2,0,0,0,2.34,2.16c1.53,0,2.34-.81,2.34-1.8,0-2.79-6-1.35-6-5.4A3.45,3.45,0,0,1,77.08,36.42Z"/><path class="cls-1" d="M90.27,37.77H86.85V47.85H85.41V37.77H82V36.51h8.28Z"/><path class="cls-1" d="M97.53,45.06H92.84l-1.08,2.79H90.23l4.33-11.34h1.26l4.32,11.34H98.61ZM93.29,43.8h3.79l-1.89-4.95Z"/><path class="cls-1" d="M110.36,36.51V47.85H109.1l-5.67-8.55v8.55H102V36.51h1.26l5.67,8.55V36.51Z"/><path class="cls-1" d="M116.8,47.85h-3.15V36.51h3.15a5.68,5.68,0,0,1,0,11.34Zm0-1.26a4.44,4.44,0,0,0,0-8.82h-1.71v8.82Z"/><path class="cls-1" d="M130.61,47.15v.7h-4.09v-6.3h4v.7h-3.19v2h2.94V45h-2.94v2.2Z"/><path class="cls-1" d="M136.79,41.55v6.3h-.7l-3.15-4.75v4.75h-.79v-6.3h.69L136,46.3V41.55Z"/><path class="cls-1" d="M149.57,44.61a3.45,3.45,0,0,1-3.6,3.24h-4.32V36.51h4.23a3.08,3.08,0,0,1,3.24,3.06,2.53,2.53,0,0,1-1.26,2.25A3,3,0,0,1,149.57,44.61Zm-6.48-3.33h2.79a1.76,1.76,0,1,0,0-3.51h-2.79ZM146,46.59a2,2,0,1,0,0-4.05h-2.88v4.05Z"/><path class="cls-1" d="M152,43.89V36.51h1.44v7.38a2.7,2.7,0,1,0,5.4,0V36.51h1.44v7.38a4.14,4.14,0,0,1-8.28,0Z"/><path class="cls-1" d="M167,43.17h-2.16v4.68h-1.44V36.51h4.23a3.34,3.34,0,0,1,.92,6.57l2.78,4.77h-1.63Zm-2.16-1.26h2.79a2.07,2.07,0,0,0,0-4.14h-2.79Z"/><path class="cls-1" d="M174.48,42.18a4.25,4.25,0,0,0,3.87,4.5,3.52,3.52,0,0,0,3.42-3.24h-3.33V42.18h4.77v5.67h-1.08l-.36-1.35a4.81,4.81,0,0,1-3.42,1.44,5.78,5.78,0,0,1,0-11.52,4.84,4.84,0,0,1,4.77,3.69h-1.53a3.15,3.15,0,0,0-3.24-2.43A4.25,4.25,0,0,0,174.48,42.18Z"/><path class="cls-1" d="M193.7,46.59v1.26h-7.38V36.51h7.2v1.26h-5.76v3.6h5.31v1.26h-5.31v4Z"/><path class="cls-1" d="M200.06,43.17H197.9v4.68h-1.45V36.51h4.24a3.34,3.34,0,0,1,.91,6.57l2.78,4.77h-1.62Zm-2.16-1.26h2.79a2.07,2.07,0,0,0,0-4.14H197.9Z"/><path class="cls-1" d="M209.92,36.42a3.44,3.44,0,0,1,3.51,3.42H212a2.18,2.18,0,0,0-4.32-.36c0,2.79,6,1.35,6,5.4,0,1.62-1.44,3.06-3.78,3.06s-3.78-1.44-3.78-3.42h1.44a2,2,0,0,0,2.34,2.16c1.53,0,2.34-.81,2.34-1.8,0-2.79-6-1.35-6-5.4A3.45,3.45,0,0,1,209.92,36.42Z"/><path class="cls-1" d="M216.81,42.18a4.25,4.25,0,0,0,3.87,4.5A3.34,3.34,0,0,0,224,44.07h1.53a5,5,0,0,1-4.87,3.87,5.78,5.78,0,0,1,0-11.52,5,5,0,0,1,4.78,3.87h-1.53a3.3,3.3,0,0,0-3.25-2.61A4.25,4.25,0,0,0,216.81,42.18Z"/><path class="cls-1" d="M236.31,36.51V47.85h-1.44V42.72h-5.49v5.13h-1.44V36.51h1.44v5h5.49v-5Z"/><path class="cls-1" d="M245.45,45.06h-4.68l-1.08,2.79h-1.53l4.32-11.34h1.26l4.32,11.34h-1.53Zm-4.23-1.26H245l-1.89-4.95Z"/><path class="cls-1" d="M253.79,36.51a3.51,3.51,0,1,1,0,7h-2.43v4.32h-1.45V36.51Zm0,5.76a2.25,2.25,0,0,0,0-4.5h-2.43v4.5Z"/><line class="cls-2" y1="0.25" x2="257.52" y2="0.25"/><line class="cls-2" y1="59.25" x2="257.52" y2="59.25"/></svg>