<svg id="Calque_1" data-name="Calque 1" xmlns="http://www.w3.org/2000/svg" viewBox="0 0 253.98 85.04"><defs><style>.cls-1{fill:#fff;}.cls-2{fill:none;stroke:#fff;stroke-miterlimit:10;stroke-width:0.5px;}</style></defs><path class="cls-1" d="M70.15,11.13h9.24v.36L70.63,25.65h8.76v.6h-9.6v-.36l8.76-14.16h-8.4Z"/><path class="cls-1" d="M94.15,25.65v.6h-9V11.13h8.76v.6H85.75v6.36h7.56v.6H85.75v7Z"/><path class="cls-1" d="M110.23,11.13V26.25h-.48l-9-13.92V26.25h-.6V11.13h.48l9,13.92V11.13Z"/><path class="cls-1" d="M126,11.73h-4.8V26.25h-.6V11.73h-4.8v-.6H126Z"/><path class="cls-1" d="M141.31,26.25h-.72l-4-6.72h-4.56v6.72h-.6V11.13h5.14a4.14,4.14,0,0,1,4.34,4.2,4,4,0,0,1-3.72,4.08Zm-9.24-7.32h4.54a3.6,3.6,0,1,0,0-7.2h-4.54Z"/><path class="cls-1" d="M147.07,20.49V11.13h.6v9.36c0,3.36,1.92,5.28,4.68,5.28S157,23.85,157,20.49V11.13h.6v9.36c0,3.72-2.16,5.88-5.28,5.88S147.07,24.21,147.07,20.49Z"/><path class="cls-1" d="M177.19,11.13h.72V26.25h-.6v-14l-5.88,14H171l-5.88-14v14h-.6V11.13h.72l6,14.28Z"/><path class="cls-1" d="M1.6,42.25v2.1H4.1v.7H1.6v2.8H.8v-6.3H4.65v.7Z"/><path class="cls-1" d="M5.86,45.65v-4.1h.8v4.1a1.43,1.43,0,0,0,1.5,1.55,1.43,1.43,0,0,0,1.5-1.55v-4.1h.8v4.1a2.19,2.19,0,0,1-2.3,2.25A2.19,2.19,0,0,1,5.86,45.65ZM7,40.25a.45.45,0,1,1,.45.45A.45.45,0,0,1,7,40.25Zm1.5,0a.45.45,0,1,1,.45.45A.45.45,0,0,1,8.46,40.25Z"/><path class="cls-1" d="M14.12,45.25h-1.2v2.6h-.8v-6.3h2.35A1.85,1.85,0,0,1,15,45.2l1.54,2.65h-.9Zm-1.2-.7h1.55a1.15,1.15,0,0,0,0-2.3H12.92Z"/><path class="cls-1" d="M26.36,39.66,24,47.85H23L19.52,36.51h1.53l2.52,8.19,2.34-8.19h.9l2.34,8.19,2.52-8.19H33.2L29.69,47.85h-1Z"/><path class="cls-1" d="M36.55,47.85H35.11V36.51h1.44Z"/><path class="cls-1" d="M42.87,47.85H39.72V36.51h3.15a5.68,5.68,0,0,1,0,11.34Zm0-1.26a4.44,4.44,0,0,0,0-8.82H41.16v8.82Z"/><path class="cls-1" d="M58.1,46.59v1.26H50.71V36.51h7.21v1.26H52.16v3.6h5.31v1.26H52.16v4Z"/><path class="cls-1" d="M64.32,43.17H62.16v4.68H60.72V36.51H65a3.34,3.34,0,0,1,.92,6.57l2.77,4.77H67Zm-2.16-1.26H65a2.07,2.07,0,0,0,0-4.14H62.16Z"/><path class="cls-1" d="M74.06,36.42a3.44,3.44,0,0,1,3.51,3.42H76.13a2.18,2.18,0,0,0-4.32-.36c0,2.79,6,1.35,6,5.4,0,1.62-1.44,3.06-3.78,3.06s-3.78-1.44-3.78-3.42h1.44a2,2,0,0,0,2.34,2.16c1.53,0,2.34-.81,2.34-1.8,0-2.79-6-1.35-6-5.4A3.45,3.45,0,0,1,74.06,36.42Z"/><path class="cls-1" d="M87.13,37.77H83.71V47.85H82.27V37.77H78.85V36.51h8.28Z"/><path class="cls-1" d="M94.26,45.06H89.58l-1.09,2.79H87l4.32-11.34h1.26l4.32,11.34H95.34ZM90,43.8h3.78l-1.89-4.95Z"/><path class="cls-1" d="M107,36.51V47.85h-1.26L100,39.3v8.55H98.59V36.51h1.26l5.68,8.55V36.51Z"/><path class="cls-1" d="M113.28,47.85h-3.15V36.51h3.15a5.68,5.68,0,0,1,0,11.34Zm0-1.26a4.44,4.44,0,0,0,0-8.82h-1.71v8.82Z"/><path class="cls-1" d="M122.7,45.65v-4.1h.8v4.1a1.5,1.5,0,1,0,3,0v-4.1h.8v4.1a2.3,2.3,0,0,1-4.6,0Z"/><path class="cls-1" d="M133.61,41.55v6.3h-.7l-3.15-4.75v4.75H129v-6.3h.7l3.15,4.75V41.55Z"/><path class="cls-1" d="M137.12,47.85h-1.75v-6.3h1.75a3.15,3.15,0,0,1,0,6.3Zm0-.7a2.46,2.46,0,0,0,0-4.9h-1v4.9Z"/><path class="cls-1" d="M152.35,44.61a3.45,3.45,0,0,1-3.6,3.24h-4.32V36.51h4.23a3.08,3.08,0,0,1,3.24,3.06,2.53,2.53,0,0,1-1.26,2.25A3,3,0,0,1,152.35,44.61Zm-6.48-3.33h2.79a1.76,1.76,0,1,0,0-3.51h-2.79Zm2.88,5.31a2,2,0,1,0,0-4.05h-2.88v4.05Z"/><path class="cls-1" d="M154.62,43.89V36.51h1.44v7.38a2.7,2.7,0,1,0,5.4,0V36.51h1.44v7.38a4.14,4.14,0,0,1-8.28,0Zm2-9.72a.81.81,0,1,1,.81.81A.81.81,0,0,1,156.6,34.17Zm2.7,0a.81.81,0,1,1,.81.81A.81.81,0,0,1,159.3,34.17Z"/><path class="cls-1" d="M169.49,43.17h-2.17v4.68h-1.44V36.51h4.24a3.34,3.34,0,0,1,.91,6.57l2.78,4.77h-1.62Zm-2.17-1.26h2.8a2.07,2.07,0,0,0,0-4.14h-2.8Z"/><path class="cls-1" d="M176.88,42.18a4.25,4.25,0,0,0,3.87,4.5,3.51,3.51,0,0,0,3.42-3.24h-3.33V42.18h4.78v5.67h-1.08l-.37-1.35a4.81,4.81,0,0,1-3.42,1.44,5.78,5.78,0,0,1,0-11.52,4.84,4.84,0,0,1,4.78,3.69H184a3.14,3.14,0,0,0-3.24-2.43A4.25,4.25,0,0,0,176.88,42.18Z"/><path class="cls-1" d="M196,46.59v1.26H188.6V36.51h7.2v1.26H190v3.6h5.31v1.26H190v4Z"/><path class="cls-1" d="M202.21,43.17h-2.16v4.68h-1.44V36.51h4.23a3.34,3.34,0,0,1,.92,6.57l2.77,4.77h-1.62Zm-2.16-1.26h2.79a2.07,2.07,0,0,0,0-4.14h-2.79Z"/><path class="cls-1" d="M215.73,46.59v1.26h-6.84V36.51h1.44V46.59Z"/><path class="cls-1" d="M219.07,47.85h-1.44V36.51h1.44Z"/><path class="cls-1" d="M222.87,42.18a4.25,4.25,0,0,0,3.87,4.5,3.33,3.33,0,0,0,3.33-2.61h1.54a5,5,0,0,1-4.87,3.87,5.78,5.78,0,0,1,0-11.52,5,5,0,0,1,4.77,3.87H230a3.3,3.3,0,0,0-3.24-2.61A4.25,4.25,0,0,0,222.87,42.18Z"/><path class="cls-1" d="M242.24,36.51V47.85H240.8V42.72h-5.49v5.13h-1.44V36.51h1.44v5h5.49v-5Z"/><path class="cls-1" d="M252.79,46.59v1.26h-7.38V36.51h7.2v1.26h-5.76v3.6h5.31v1.26h-5.31v4Z"/><path class="cls-1" d="M26.53,76.65h-.48L20.41,61.53H21l5.29,14.16,5.28-14.16h.6Z"/><path class="cls-1" d="M46.69,76.05v.6h-9V61.53h8.77v.6H38.28v6.36h7.57v.6H38.28v7Z"/><path class="cls-1" d="M62.53,76.65h-.72l-4-6.72H53.28v6.72h-.6V61.53h5.14a4.14,4.14,0,0,1,4.35,4.2,4,4,0,0,1-3.72,4.08Zm-9.25-7.32h4.54a3.6,3.6,0,1,0,0-7.2H53.28Z"/><path class="cls-1" d="M72.73,61.53h.47L79,76.65h-.6l-1.56-4.2H69.12l-1.55,4.2H67ZM69.36,71.85h7.21L73,62.49Z"/><path class="cls-1" d="M94.57,61.53V76.65h-.48l-9-13.92V76.65h-.59V61.53H85l9,13.92V61.53Z"/><path class="cls-1" d="M110.28,62.13h-4.79V76.65h-.61V62.13h-4.8v-.6h10.2Z"/><path class="cls-1" d="M123.49,61.53l4,13.92,4-13.92h.6l-4.33,15.12h-.48l-4-13.8-4,13.8h-.48l-4.32-15.12h.6l4,13.92,4-13.92Z"/><path class="cls-1" d="M143.28,76.77c-3.48,0-6.72-3.24-6.72-7.68s3.24-7.68,6.72-7.68S150,64.65,150,69.09,146.76,76.77,143.28,76.77Zm0-14.76c-3.12,0-6.12,3-6.12,7.08s3,7.08,6.12,7.08,6.13-3,6.13-7.08S146.41,62,143.28,62Z"/><path class="cls-1" d="M166,76.65h-.72l-4-6.72h-4.56v6.72h-.6V61.53h5.14a4.14,4.14,0,0,1,4.34,4.2,4,4,0,0,1-3.72,4.08Zm-9.24-7.32h4.54a3.6,3.6,0,1,0,0-7.2h-4.54Z"/><path class="cls-1" d="M180.36,62.13h-4.8V76.65H175V62.13h-4.8v-.6h10.2Z"/><path class="cls-1" d="M185.76,70.89V61.53h.6v9.36c0,3.36,1.92,5.28,4.68,5.28s4.68-1.92,4.68-5.28V61.53h.6v9.36c0,3.72-2.16,5.88-5.28,5.88S185.76,74.61,185.76,70.89Z"/><path class="cls-1" d="M213.24,61.53V76.65h-.48l-9-13.92V76.65h-.6V61.53h.48l9,13.92V61.53Z"/><path class="cls-1" d="M226.56,69.57h5.64v7.08h-.48l-.12-3.84s-1.56,4-5.52,4c-3.48,0-6.72-3.24-6.72-7.68s3.24-7.68,6.72-7.68a5.94,5.94,0,0,1,5.76,4.44h-.6A5.44,5.44,0,0,0,226.08,62C223,62,220,65,220,69.09s3,7.08,6.12,7.08a5.86,5.86,0,0,0,5.52-6h-5Z"/><line class="cls-2" y1="0.25" x2="253.98" y2="0.25"/><line class="cls-2" y1="84.79" x2="253.98" y2="84.79"/></svg>