<?xml version="1.0" encoding="utf-8"?>
<!-- Generator: Adobe Illustrator 22.1.0, SVG Export Plug-In . SVG Version: 6.00 Build 0)  -->
<svg version="1.1" id="Calque_1" xmlns="http://www.w3.org/2000/svg" xmlns:xlink="http://www.w3.org/1999/xlink" x="0px" y="0px"
	 viewBox="0 0 700.4 119.4" style="enable-background:new 0 0 700.4 119.4;" xml:space="preserve">
<style type="text/css">
	.st0{clip-path:url(#SVGID_2_);fill-rule:evenodd;clip-rule:evenodd;fill:#E1001A;}
	.st1{clip-path:url(#SVGID_2_);fill-rule:evenodd;clip-rule:evenodd;fill:#1A171B;}
	.st2{clip-path:url(#SVGID_2_);fill-rule:evenodd;clip-rule:evenodd;fill:#FFFFFF;}
	.st3{fill:#003A62;}
	.st4{fill:#E1001A;}
	.st5{fill:#678BAA;}
</style>
<g>
	<g>
		<defs>
			<rect id="SVGID_1_" x="293.8" width="406.6" height="65.6"/>
		</defs>
		<clipPath id="SVGID_2_">
			<use xlink:href="#SVGID_1_"  style="overflow:visible;"/>
		</clipPath>
		<path class="st0" d="M683.3,56.6c0.8,0,3.1,0.1,3.5,0.4h-0.7c0,0.2-0.1,0.4-0.1,0.6c-3.3,0-6.3-0.8-9.7-0.8c0,0.1-0.1,0.3-0.1,0.4
			h0.7c0.5,0.3,1.4,0,2.1,0.2c0.8,0.2,1.8,0,2.7,0.2c1.1,0.3,2.6,0.3,3.9,0.3v0.1h-0.2c-0.2,0.1-0.6,0.2-0.8,0.2v0.3
			c-1.3,0-2.8-0.1-4-0.4h-1c-0.9-0.2-2.2-0.3-3.2-0.4c-0.6-0.1-2.9-0.2-3.2,0c0.8,0,2.6,0,3,0.3c-2.8,0-6.1,0.2-8.7-0.4h-1.3
			c-0.8-0.2-2.1-0.1-2.9-0.3h-3c-1.3,0-3.3,0.1-4.5-0.2c-1-0.2-2.4,0.1-3.3-0.1c-4.9-0.1-9.7-0.2-14.6-0.3c-1-0.2-2.4-0.1-3.5-0.1
			h-6.6h-5c-1,0.2-2.6,0.2-3.7,0.2h-1.5c-1,0.2-2.4,0-3.4,0.2c-0.4,0.1-1.2,0-1.7,0.1c-2.5,0.6-5.7,0-8.2,0.6c-1,0-2.1,0.1-3.1,0.1
			c-0.9,0.2-2.1,0-3,0.2c-2.5,0.6-5.7,0.1-8.2,0.7c-0.9,0-1.7,0.1-2.6,0.1c-2.2,0.5-4.8,0.2-7,0.7h-1.1c-1.6,0.4-3.5,0.2-5.1,0.6h-1
			c-0.8,0.2-1.9,0.1-2.8,0.3c-1.2,0.3-2.7,0.4-4,0.5v-0.2c0.3-0.2,0.4-0.3,0.5-0.6c-1-0.1-2.9,0.3-4.2,0c-0.6-0.1-1.4-0.3-2-0.4
			c-0.1-0.2-0.2-0.3-0.2-0.7h0.2c0.5-0.4,1.9-0.4,2.7-0.4l-0.1-0.2h0.5c0.6-0.4,1.7-0.1,2.4-0.3c1.7-0.3,3.4-0.5,5.1-0.8v-0.1
			c-1.6,0-3.2,0-4.5,0.3h-0.9c-1.2,0.3-3.1,0.4-4.5,0.2c-0.1-0.2-0.1-0.2-0.1-0.4c0.3-0.2,0.5-0.3,0.6-0.6h0.1v-0.1h-0.2
			c-0.4-0.3-1.4,0-1.8,0.1h-0.8c-1,0.3-2.6,0.6-3.7,0.4v-0.3c0.4-0.1,0.4-0.3,0.7-0.4v-0.1c-1.3,0-2.8,0.1-4,0.4h-0.8
			c-0.8,0.2-2,0.3-2.8,0.5c-1.5,0.2-3,0.4-4.5,0.6c-1.1,0.3-2.5,0.6-3.8,0.6c-0.2-0.2-0.2-0.1-0.3-0.5h0.2c0.6-0.4,1.4-0.3,2.2-0.5
			c1.5-0.4,3.4-0.5,4.9-0.9c0.4,0,0.8-0.1,1.3-0.1c3.5-0.9,7.5-0.8,11.1-1.7c1-0.2,2.1-0.2,3-0.4h0.8c1-0.2,2.2-0.3,3.2-0.5h0.8
			c1.3-0.3,3-0.3,4.4-0.6h0.9c2.8-0.7,6.1-0.3,9-1c0.8-0.2,1.6,0,2.3-0.2h1.1c0.7-0.2,1.7-0.1,2.4-0.3c1.3-0.1,2.6-0.1,4-0.2
			c2.3-0.5,5.2-0.1,7.5-0.6c0.5-0.1,1.3,0,1.7-0.1c1.3,0,2.6-0.1,3.9-0.1c2.1-0.5,4.9,0.1,7-0.4h2.9c1-0.2,2.4,0.2,3.5-0.1
			c1.4-0.3,3.4,0.2,4.8-0.1c0.8-0.2,2-0.1,2.9-0.1h5.6h6.3c1,0,2.3-0.1,3.1,0.1c1.5,0.3,3.5-0.2,4.9,0.1h1.7c1.4,0,3.6-0.1,4.8,0.2
			h2.5c0.6,0.1,1.6-0.1,2.3,0.1c1.8,0.4,4.1,0,5.8,0.4c2.2,0.1,4.3,0.2,6.5,0.3c0.8,0.2,2,0.1,2.8,0.3h1.3c0.8,0.2,1.8,0,2.6,0.2
			c3,0.7,6.9,0.3,9.9,1h1c2,0.5,4.7,0.2,6.5,1v0.1c-0.8,0.1-2.3,0.1-3.1,0.3c-0.5,0.1-1.1-0.1-1.5,0.1c0.4,0,1.5,0.2,1.8,0.4h-0.1
			c-0.8,0.6-2.6,0.3-3.8,0.6c-0.6,0.1-1.4-0.2-1.8,0.1c0.7,0,1.7,0,1.9,0.4h-0.1c-0.6,0.6-2.1,0.3-3.3,0.3v0.2
			C683.3,56.4,683.3,56.4,683.3,56.6"/>
		<path class="st1" d="M684.8,4.6h-0.4c-0.4,0.3-1,0.4-1.4,0.7c-0.5,0.6-0.7,3.5-1,4.5c-0.9,3-1.3,6.5-2.2,9.5
			c-0.4,1.4-0.3,3.4-1.1,4.3c0,1,0.2,1.1,0.8,1.4c0.2-0.2,0.5-0.2,0.7-0.4c0.6-0.4,0.9-1,1.6-1.3c1.2-6,2.4-12,3.5-18.1
			C685.1,5,684.9,4.8,684.8,4.6"/>
		<path class="st1" d="M493.6,38.3c-0.6,0.1-1.4,0.8-2,0.4c-0.2,0-0.3,0-0.4-0.1c-0.3-0.3-0.4-1.7-0.2-2.3c0.1-0.3,0.3-0.8,0.4-1
			c0-0.3,0.1-0.7,0.1-1c0.3-0.6,0.9-1.4,1.1-2c-0.1-0.4-0.1-0.8-0.2-1.2c-0.3-0.1-0.6-0.1-0.7-0.3c-1.3,0.4-2.6,3.9-3.1,5.3
			c-0.2,0.5-0.1,1-0.3,1.4c0,1.4-1.1,1.2-1.8,1.9c-0.3,0-0.5,0-0.6-0.1c-0.3-0.1-0.3-0.2-0.5-0.3c0-1.7,0-3.4,0-5.1
			c-0.2-0.2-0.4-0.4-0.6-0.6c-0.1-0.1,0,0-0.2-0.1c-0.5,0.5-1,0.9-1.6,1.4c-0.3,0.5-0.2,1-0.5,1.4c-0.4,0.6-1.2,1-1.6,1.6h-0.1
			c0.7-2.6,2-5.1,3.1-7.3c0.4-0.7,0.6-1.5,1-2.2c0.7-1.1,1.5-2.3,2.1-3.5c0.6-1.3,0.8-2.6,1.4-3.8c0.5-1.2,1.1-2.6,1.5-3.8
			c0.3-0.8,0.1-1.7,0.3-2.5c0.2-0.6,0.3-1.3,0.3-2.1c-0.2-0.1-0.3-0.3-0.4-0.5c-2.2,0-2.5,3.2-3.1,4.8c-1.1,2.7-2.1,5.5-3.2,8.1
			c-0.2,0.6-0.3,1.3-0.5,1.9c-0.6,1.4-1.4,2.9-2.2,4.1c-0.2,0.3-0.1,0.5-0.3,0.8c-0.3,0.5-0.8,1-1.1,1.5l-0.6,0.5
			c-0.2,0.3-0.3,0.6-0.5,0.8c-0.2,0.2-0.4,0.3-0.6,0.5c-0.2,0.3,0,0.7,0.2,0.9c0.1,0.1,0.4,0,0.6,0.2h0.2c-0.6,1.3-1.5,3.7-1.6,5.6
			c0.4,0,0.8,0.1,1.1,0.1c1.1-0.3,3.4-2.3,4-3.1c0.4,0.2,0.2,0.8,0.3,1.2c0.2,0.7,0.6,1.2,0.8,1.8c0.8,0.2,2,0.5,2.9,0.2
			c0.4-0.1,0.6-0.6,0.9-0.8c0.4-0.3,0.8-0.4,1-0.8c0.6,0.2,0.7,0.9,1.1,1.2c0.2,0.1,0.3,0.1,0.4,0.2c1.7,0,3.8-1,4.2-2.4
			c0.1-0.1,0,0,0.1-0.2C494,38.7,493.8,38.5,493.6,38.3"/>
		<path class="st1" d="M471.6,13.6c-0.4,0.4-1.1,0.5-1.6,0.8c-0.3,0.2-0.5,0.6-0.7,0.9c-0.5,0.6-1.2,1-1.7,1.6
			c-0.6,0.8-1,1.6-1.6,2.4c-0.2,0.3-0.5,0.5-0.7,0.8c-0.5,0.7-0.8,1.4-1.3,2c-0.3,0.4-0.9,0.9-1.1,1.4c-0.5,0.9-0.6,2.1-1,3.1
			c-0.9,2.1-1.8,4.2-2.6,6.6c-0.4,1.1-0.7,4-0.3,5.3c0.1,0.4,0.5,0.9,0.6,1.3c0.1,0.4,0,0.8,0.2,1.1c0.4,0.6,2.1,1.7,2.8,1.9
			c0.8-0.1,1.6-0.1,2.4-0.2c0.8-0.2,1.3-0.7,1.9-1.1c-0.1-0.4-0.3-0.7-0.4-1c-0.9,0-2.5,0.2-3-0.2c-1.1-0.3-1.6-2-1.9-3.1v-0.7
			c-0.1-0.3-0.3-1.5-0.1-2c0.1-0.1,0.4-0.4,0.4-0.6v-0.8c0.3-0.7,1.6-1.9,2.1-2.5c1.3-1.8,2.7-3.6,3.9-5.4c0.5-0.7,0.7-1.6,1.1-2.3
			c0.7-1.1,1.6-2.2,2.2-3.4c0.1-0.3,0.1-0.7,0.2-1c0.3-0.8,0.7-1.7,0.9-2.4c0.1-0.4,0-0.8,0.2-1.1c0-0.4,0-0.8-0.1-1.1
			C472.1,13.7,472,13.6,471.6,13.6 M466.9,23c-0.9,1.6-2.2,3-3.1,4.5h-0.1c0.1-0.3,0.2-0.6,0.3-0.9c0.4-0.7,1.1-1.3,1.6-2
			c0.3-0.5,0.3-1,0.6-1.5c0.4-0.6,1-1.1,1.4-1.8C467.7,21.5,467.1,22.7,466.9,23"/>
		<path class="st1" d="M586.5,21c0.5-0.6,2-3.4,1.7-4.6c-0.2-0.6-0.5-1.1-0.8-1.5h-0.9c-0.5,0.2-1,0.5-1.5,0.7
			c-0.1,0.4-0.4,0.9-0.2,1.5c0.1,0.3,0.4,0.9,0.2,1.4c-0.2,0.6-0.7,1.1-0.9,1.6c-0.1,0.3-0.4,1.1-0.1,1.4
			C584.3,22.6,586.1,21.5,586.5,21"/>
		<path class="st1" d="M614,23.3c-0.5,0.1-1.2,0-1.6,0.3h-0.5c0.4-1.6,1.3-3.7,0.8-5.7c-0.3-1.3,0.1-2.4-1.4-2.6
			c-0.7,0.4-1.5,0.9-2.2,1.3c-0.2,0.6-0.4,1.2-0.6,1.8c-0.5,1.2-1,2.6-1.6,3.8c-0.3,0.7-0.3,1.6-0.8,2.2c-0.2,0.5-0.6,0.3-1,0.6
			c-0.5,0.3-0.8,1-1,1.6c0.2,0.2,0.3,0.4,0.4,0.7h0.9c-0.1,0.2-0.4,0.5-0.4,0.6c-0.1,1.4-0.2,2.8-0.3,4.1c-0.1,0.3-0.4,0.7-0.5,1
			c-0.2,0.5,0.5,1.6,0.6,2c0.1,0.4,0.1,0.7,0.2,1.1c0.5,1,2.3,1.8,3.8,1.2c0.6-0.4,1.3-0.8,1.9-1.2c-0.1-0.3-0.1-0.6-0.3-0.8v-0.2
			c-0.6,0-1.7,0.2-2.1,0c-1-0.3-0.7-1.6-1.3-2.4c0.1-0.9,0.7-1.1,1.1-1.7c0.6-0.9,2.3-3.8,2.4-4.9c1.6-0.4,3.3-1,4.8-1.4h0.6
			c0.5-0.1,1.2-0.3,1.7-0.6c0.2-0.2,0.4-0.5,0.6-0.7c-0.1-0.5-0.3-0.6-0.5-0.9C616.5,22.7,615.2,23,614,23.3 M608.2,27.6v0.2h-0.1
			c0.1-0.2,0.1-0.5,0.2-0.7C608.4,27.2,608.3,27.4,608.2,27.6 M609.8,23.6c-0.1,0.1-0.2,0.2-0.3,0.3h-0.2c0.1-1.3,0.8-2.3,1-3.4
			C610.7,21.1,610,23.4,609.8,23.6"/>
		<path class="st1" d="M441.3,31.4c0.1-1.3,0.8-2.2,1.3-3.2c0.7-1.7,0.9-3.7,1.5-5.4c0.3-0.9,0.5-3.1-0.1-3.6c0-1.2,0-1.1-0.6-1.6
			c-1.6,0.1-2.2,1.7-2.8,2.8c-1.2,2.3-1.9,5.2-2.9,7.7c-0.3,0.9-0.4,2.3-0.9,2.9v0.2c-2.1-1.2-3.8,0.6-4.8,1.8
			c-0.3,0.2-0.6,0.5-0.8,0.7c-0.3,0.3-0.4,0.7-0.6,1c-0.1,0.1-0.2,0.1-0.3,0.2c-0.7,1-1.3,2.2-1.8,3.3c0,0.2-0.1,0.4-0.1,0.6
			c-0.2,0.5-0.9,1.9-0.7,2.7c0.1,0.3,0.1,0.9,0.3,1.2c0.1,0.2,0.3,0.2,0.4,0.5c0.3,0.1,0.6,0.2,0.9,0.3c0.4-0.4,0.9-0.3,1.4-0.6
			c0.3-0.3,0.6-0.6,0.8-0.9c0.9-0.6,2-1.4,2.6-2.3c0.3,0.3,0.1,0.8,0.2,1.3c0.2,0.9,0.7,1.9,1.6,2.2v0.1c0.9,0,1.5-0.5,1.9-1
			c0.4-0.6-0.7-1.5-0.8-1.9c-0.1-0.2,0-0.4-0.1-0.5v-2.5c0.3-0.6,1.1-1,1.5-1.5c0.7-1,1.3-2,2-3c0.3-0.4,0.7-0.8,0.8-1.4H441.3z
			 M431.4,39.1c-0.4,0.3-0.9,0.5-1.3,0.8H430c0-1.7,0.7-2.6,1.5-3.6c0.2-0.2,0.4-0.3,0.6-0.5c0.2-0.3,0.2-0.6,0.4-0.9
			c0.4-0.3,0.8-0.7,1.3-1c0.3,0,0.6,0.1,0.7,0.2h0.2C434.4,36.1,432.8,38.1,431.4,39.1 M439.1,31.2c-0.3,0.4-0.4,0.9-0.7,1.2v0.1
			h-0.1c0.3-1.3,0.9-2.7,1.5-3.9c0.7-1.7,1-3.5,1.7-5.3c0.2-0.5,0.5-1,0.6-1.5c0.2,0.3-0.1,2.5-0.2,2.9
			C441.1,27.1,440.3,29.3,439.1,31.2"/>
		<path class="st1" d="M477.8,19.8c-0.2-0.6-0.6-1-0.8-1.5h-0.7c-0.6,0.2-1.1,0.5-1.7,0.7c-0.1,0.4-0.4,0.9-0.2,1.5
			c0.1,0.3,0.4,1,0.2,1.5c-0.2,0.5-1.6,2.2-1,2.9c0.2,0.5,0.9,0.7,1.4,0.3c1.4-0.1,2.4-2.8,2.8-4C477.8,20.9,477.9,20.2,477.8,19.8"
			/>
		<path class="st1" d="M511.1,31.4c0.3-0.6,0.9-1.4,0.9-2.1c1.6-0.1,3.3-0.9,4.6-1.3h0.6c1-0.3,1.9-0.6,2.4-1.4
			c0.1-0.2-0.3-0.7-0.5-0.8c-0.1-0.1-0.9,0-1.3,0.1c-1.2,0.4-3.1,0.8-4.5,0.9c0.1-1.3,0.5-2.5,0.8-3.7c0.4-1.7-0.4-3.2-0.5-4.3
			c-0.3,0-0.5-0.1-0.6-0.2c-0.5,0-2.3,1-2.5,1.3c-0.2,0.5-0.3,1.1-0.5,1.6c-0.7,1.6-1.3,3.4-2,4.9c-0.2,0.5-0.2,1-0.5,1.4
			c-0.2,0.3-0.7,0.3-1,0.5c-0.5,0.3-0.6,0.9-0.9,1.3c0,0.5,0.2,0.7,0.4,0.9c0.1,0,0.5,0,0.8,0c-0.1,0.5-0.3,0.7-0.4,1.1
			c-0.1,1.3-0.2,2.6-0.3,3.8c-0.1,0.4-0.6,0.8-0.5,1.3c0.1,0.5,0.5,1.3,0.7,1.8c0.1,0.3,0.1,0.7,0.2,1c0.5,0.8,2.4,1.7,3.9,1
			c0.6-0.3,1.1-0.8,1.7-1.1c-0.1-0.3-0.1-0.7-0.2-1c-0.7,0-1.6,0-2.2,0.1c-0.6-0.9-1-1.7-1.3-2.9C509.6,34.6,510.2,32.9,511.1,31.4
			 M511.6,23.6c0.4,0.5-0.2,2.7-0.4,2.9c-0.1,0.3-0.2,0.3-0.4,0.5h-0.2C510.9,25.9,511.2,24.8,511.6,23.6 M509.6,30.2h0.2
			c-0.1,0.3-0.3,0.4-0.3,0.8h-0.1C509.4,30.7,509.5,30.5,509.6,30.2"/>
		<path class="st1" d="M665.8,28.4c-1.5-0.1-1.2,0.3-2.1,0.8c-0.3,0.2-0.7,0.1-0.9,0.3c-0.3-0.4-0.2-0.9-0.3-1.4
			c-0.2-0.8-0.5-1.7-0.7-2.4c-0.1-0.4,0.1-0.8-0.1-1v-1h0.1c0.1,0.3,0.2,0.6,0.3,0.8l0.1,1.3c0,0,0.5,0.2,0.6,0.3
			c0.7-0.1,0.9-0.5,1.6-0.6c0.5-2-0.4-4.8-2-5.4c-0.4,0.4-1.3,0.3-1.8,0.6c-1.8,0.6-1.7,5.5-1.1,7.5c0.2,0.5,0,1.3,0.3,1.7v0.5
			c-1.9,0.4-2.4,0.5-3.2,2c-0.2,0.4-0.5,0.6-0.5,1.1c-0.3-0.2-0.4-0.4-0.6-0.4c-0.8,0-0.9,0.5-1.4,0.8c-0.3,0.2-0.6,0.3-0.9,0.4
			c-0.6-1.4-0.1-3.3,0.3-4.5c0.2-0.6,0.2-1.3,0.5-1.7c0-0.4,0-0.5-0.2-0.7c-0.2-0.2-0.6-0.3-0.8-0.3c-0.4,0.4-0.9,0.8-1.4,1.1h-0.2
			c-0.1,0.3-0.2,0.6-0.3,0.9c-0.4,0.9-1,1.9-1.6,2.7c-0.7,0.9-2,1.3-2.8,2h-0.2c0-1.7,0.7-2.7,1.1-4v-0.6c0.1-0.4,0.7-1.8,0.9-2
			c0-0.8-0.2-0.8-0.5-1.2c-2.3,0.2-2.8,3.8-3.5,5.7c-0.2,0.5-0.1,1.1-0.4,1.5c-0.5,0.3-1,0.6-1.6,0.9c0.1,0.6,0.5,0.9,0.6,1.5
			c0.3,0,0.6-0.1,0.8-0.1c0.2,0.1,0.5,0.5,0.8,0.6c1.6,0.5,4.2-1.5,4.7-2.2h0.2c0.2,0.4,0.1,1.1,0.3,1.6c0.3,0.7,1.1,0.8,1.6,1.2
			c1.5,0,3.8-1.3,4.4-2.2c0.4,0.2,0.1,0.3,0.3,0.6c0,1.3,2.3,1.9,3.5,1.4c0.3-0.1,0.9-0.5,1-0.7c0.1-0.1,0.1-0.4,0.2-0.5
			c0.4-0.3,1-0.2,1.4-0.7c0.3-0.5,0.2-1.4,0.5-1.8v-0.9c0.1-0.3,0.6-0.4,0.8-0.6c0.5-0.4,1.1-0.7,1.7-1.1c0.2-0.2,0.4-0.4,0.6-0.6
			c0-0.4,0-0.6-0.2-0.8V28.4z M659.9,33.8c-0.9,0-1.4-0.2-1.8-0.6h-0.1c0.4-0.3,1.2-0.2,1.7-0.5h0.2V33.8z"/>
		<path class="st1" d="M531.3,25.5c1.4,0,1.4-0.5,2-1.1c0-2.5-1-1.8-1.7-3.3h-1.3c-0.2,0.5-0.6,1.1-0.9,1.5
			C529.5,24.1,530.9,24.3,531.3,25.5"/>
		<path class="st1" d="M603.9,30.3c-1.8,0-1.2,0.5-2.2,0.9c-0.4,0.2-0.5,0-0.7,0.2c-0.4-0.2-0.3-0.9-0.4-1.4
			c-0.2-0.8-0.5-1.7-0.7-2.4c-0.1-0.4,0.1-0.8-0.1-1.1v-0.9h0.1c0.1,0.3,0.2,0.6,0.3,0.8c0,0.4,0.1,0.8,0.1,1.2v0.1
			c0.6,0.7,1.8-0.1,2.3-0.4c0.2-1.2-0.3-3.5-0.8-4.3c-0.2-0.4-0.7-0.6-0.9-0.9h-0.5c-0.4,0.3-1.1,0.2-1.5,0.5
			c-2,0.6-1.8,5.4-1.3,7.5c0.2,0.5,0,1.3,0.3,1.7c0,0.3,0,0.4-0.1,0.5c-0.6,0.4-1.7,0.3-2.3,0.7c-0.4,0.2-1.2,1.7-1.4,2.1
			c0.1,0.8,0.1,1.7,0.2,2.5c1.3,0.6,2.6,1.4,4.2,0.4c0.2-0.3,0.5-0.6,0.7-0.9c0.5-0.3,1.1-0.3,1.4-0.8c0.4-0.6,0.2-2.2,0.5-2.7
			c0.4-0.7,1.5-1,2.2-1.4c0.3-0.2,0.5-0.6,0.8-0.8c0-0.3-0.1-0.6-0.2-0.8V30.3z M598.1,35.8c-0.3,0-0.4,0.1-0.5,0
			c-0.7,0-0.7-0.3-1.3-0.5c0.3-0.5,1.2-0.3,1.7-0.6h0.1V35.8z"/>
		<path class="st1" d="M496.6,23.5c-0.4-0.6-1.1-0.4-1.4-1.4H494c-0.2,0.5-0.6,1.2-0.9,1.5c0,1.4,1.4,2.1,2,3c1-0.1,1.2-0.5,1.8-0.9
			C496.9,25,497,24.1,496.6,23.5"/>
		<path class="st1" d="M371.2,36.3c0.2-0.3,0.5-0.7,0.6-1c0-0.2,0.1-0.5,0.1-0.7c0.1-0.3,0.4-0.4,0.4-0.8c1.6-0.4,3.3-1,4.8-1.4
			c0.6-0.2,1,0,1.5-0.2c0.3-0.1,0.7-0.3,0.9-0.5c0.2-0.2,0.3-0.4,0.5-0.6c-0.1-0.4-0.4-0.5-0.5-0.9c-1.9,0.3-3.9,0.7-5.8,1
			c0.3-2,1.4-4.3,0.6-6.8c-0.1-0.4-0.1-0.7-0.3-1c-0.2-0.3-0.5-0.3-0.7-0.5c-0.2,0.1-2.2,1.1-2.3,1.2c-0.2,0.6-0.4,1.2-0.6,1.8
			c-0.5,1.1-0.8,2.4-1.4,3.6c-0.3,0.8-0.9,1.8-1,2.7c-0.7,0.3-1.4,0.6-1.8,1.1c-0.2,0.2-0.1,0.5-0.3,0.7c0.1,0.5,0.2,0.6,0.4,0.9
			h0.8c-0.1,0.5-0.3,0.8-0.4,1.2c-0.2,0.7,0,1.6-0.2,2.2c-0.2,0.7,0.1,1.4-0.3,1.9c-0.3,0.9-1.5,1-2.4,1.4c-1,0.4-3.5,2.3-5.1,1.6
			c-0.4-0.2-0.7-0.9-1-1.1c-0.3-0.2-0.6,0.1-0.8-0.2c-0.2-0.3,0.1-0.8-0.1-1.2c-0.1-0.1-0.2-0.1-0.3-0.2c-0.4-0.9,0.5-2.3,0.7-2.7
			c0.1-0.3,0-0.6,0.2-0.8h0.2c0.3-0.2,0.6-0.5,0.8-0.8c0.4-0.6,0.5-1.9,1.1-2.2h0.4c0.1-0.2,0.3-0.3,0.4-0.5
			c0.4-0.2,1.1-0.2,1.8-0.2c0,0.2,0,0.3,0.1,0.4c-0.2,1-1.7,1.4-2.5,1.8c-0.2,0.1-0.2,0.4-0.4,0.5c0,1.5,1.6,1,2.4,0.5
			c1.2-0.7,2.6-1.7,3-3.2c0-0.3-0.1-0.6-0.1-0.9c-0.6-0.6-0.9-1.4-1.9-1.7c-1.1-0.3-1.8,0.6-2.4,0.8c-0.4,0.1-0.8,0.2-1.1,0.3
			c-1,0.6-2.2,2.4-2.9,3.3c-0.3,0.4-0.8,0.5-1.3,0.8c-0.4,0.3-0.9,0.9-1.1,1.3c-0.4,0.6-0.4,1.6-0.7,2.1v1.3c-0.3,0.1-0.7,0.2-1,0.3
			c-0.5,0.2-2.5,1.6-3.1,1.1h-0.2c-0.1-1.5,0-2.1,0.5-3.2c0.2-0.4,0.2-0.8,0.4-1.1c0.1-0.1,0.3,0,0.4-0.1c0.2-0.1,0.5-0.7,0.5-0.9
			c0.7-1.9-0.5-4-2-4.4c-1.6-0.5-3.4,0.9-4,1.5c-0.3,0.3-0.6,0.5-0.9,0.8c-0.4,0.5-0.4,1-0.7,1.6c-0.1,0.2-0.5,0.5-0.6,0.7
			c-0.5,1-0.9,2-1.4,3c-0.1,0.5-0.1,1-0.2,1.5c-0.3,1.1-0.5,2.8,0,3.8c0.2,0.4,0.6,0.5,0.8,0.8c1.6-0.1,2.3-0.9,3.1-1.7
			c0.2-0.2,0.5-0.4,0.7-0.6c0.3-0.4,0.4-0.8,0.8-1.1v-0.1h0.1c0.1,0.3,0.1,0.6,0.2,0.9c0.2,0.3,0.4,0.7,0.6,1c0.6,0,1.3-0.1,1.9-0.1
			c1.2-0.3,3.6-1.6,4.2-2.4c0.6,0.6,0.6,1.9,1.4,2.4c0.6,0.4,3.8,1.5,5.1,1.2c1.1-0.3,2.1-0.9,3-1.3c1.3-0.5,2.7-0.7,3.4-1.7
			c0.4,0.2,0.5,1.4,0.9,1.8c0.7,0.6,2.1,1.1,3.3,0.6c0.6-0.2,1.2-0.8,1.8-1.1c-0.1-0.4-0.1-0.7-0.2-1.1c-0.4,0-0.8,0-1,0.1
			c-2.3,0.1-1.4-1.1-2.3-2.2c0-1.3,0.7-1.4,1.3-2.2C370.5,37.8,370.7,37,371.2,36.3 M371.9,28.1c0.4,0.5-0.2,2.7-0.4,2.9
			c-0.1,0.3-0.3,0.3-0.5,0.5h-0.1C371.2,30.4,371.5,29.2,371.9,28.1 M347.3,37.8c-0.2,0.5-0.3,1-0.5,1.5c-0.5,1-1.2,1.9-1.9,2.7
			c-0.4,0.6-1.3,1-1.6,1.7c-0.2,0-0.3,0-0.4,0.1h-0.2c0-3.2,1-5.6,2.3-7.6c0.2-0.3,0.2-0.6,0.4-0.9c0.5-0.3,1-0.5,1.6-0.8
			c0.2,0,0.3,0,0.4,0.1c0.6,0.2,0.7,0.7,1,1.1C348.4,36.7,347.7,37.1,347.3,37.8 M369.7,35.5c0.1-0.3,0.1-0.6,0.2-0.9h0.2
			c-0.1,0.3-0.2,0.6-0.3,0.9H369.7z"/>
		<path class="st1" d="M640.9,27.3c-0.1-0.5-0.5-1.1-0.6-1.6c0-0.3-0.1-0.7-0.1-1c-0.2-0.5-0.8-0.9-1-1.5h-0.9
			c-0.2,0.2-0.6,0.2-0.8,0.4c-0.3,0.2-0.8,0.9-0.9,1.3c0,0.4-0.1,0.7-0.1,1.1l-0.3,0.2c-0.5,0.7-1,1.3-1.5,2
			c-0.3,0.4-0.3,0.8-0.5,1.3c-0.4,0.9-0.9,2-1.4,2.9c-0.4,1-0.5,3.5,0.1,4v0.2c0.1,0,0.3-0.1,0.4-0.1c0.2,0.3,0.3,0.5,0.5,0.8
			c1.6,0,2.9-0.4,3.9-1c0.7-0.4,1.2-1.2,2.2-1.2c0.4-0.8,0.9-1.6,1.1-2.5c0.3-1.2,0.3-3.1,0-4.2V27.3z M637.8,34
			c-0.4,0.2-0.9,0.6-1.3,0.7c-0.3,0.1-0.5,0-0.7,0.1c-0.3,0-0.5,0-0.7-0.1c0.1-1.3,0.2-2.6,0.6-3.6c0.1-0.2,0.4-0.4,0.5-0.6
			c0.3-0.4,0.3-0.8,0.5-1.2c0.4-0.6,1-1.3,1.3-2c0.4,0.5,0.1,1.4,0.3,2.1C638.7,31,638,32.7,637.8,34"/>
		<path class="st1" d="M634.2,25.4c0.2-0.2,0.1-0.4,0.3-0.6c0-0.4-0.1-0.5-0.2-0.8c-0.3-0.1-0.5-0.1-0.9-0.1c-0.3,0.4-0.8,0.6-1.1,1
			c-0.5,0.7-0.9,1.3-1.5,2c-0.1,0.1-0.3,0.2-0.4,0.3c-0.3,0.5-0.5,1-0.8,1.5c-0.3,0.3-0.6,0.5-0.9,0.8c-0.2,0.2-0.1,0.4-0.2,0.7
			c-0.3,0.7-1.2,2.3-1.8,2.7v0.2h-0.1c0-1.4,0.3-5.5-0.2-6.4c-0.1-0.2-0.4-0.3-0.5-0.5c-0.8,0-1,0-1.4,0.6c-0.7,1.2-0.1,1.9-0.4,3.3
			c-0.3,1.3-0.4,4.5-0.1,5.9c0.1,0.4-0.1,0.7-0.1,0.9c0.1,0.5,0.4,0.9,0.6,1.2c1.5,0,2.5-2.1,3.1-3.1c0.4-0.6,1-1.3,1.4-2
			c0.3-0.6,0.4-1.3,0.7-1.8c0.2-0.2,0.4-0.2,0.6-0.4c0.3-0.2,0.6-0.8,0.8-1.1c0.6-0.9,0.9-1.9,1.6-2.7
			C633,26.4,633.8,25.9,634.2,25.4"/>
		<path class="st1" d="M581.7,33.7c-1.1,0-1.1,0.5-1.8,0.8c-0.3,0.1-0.6,0.1-0.9,0.2c-1,0.4-1.9,1-3,1.4c-0.5,0.2-1.4,0.8-2.3,0.5
			c-0.7-0.2-1-1-1.4-1.2c-0.2-0.1-0.6-0.1-0.7-0.1c-0.2-0.6-0.7-2-0.5-2.7c0.1-0.5,0.5-1,0.7-1.4c0-0.2,0.1-0.5,0.1-0.7
			c0.2-0.4,1-0.7,1.3-1.1c0.4-0.6,0.4-1.8,1-2.1h0.5c0.1-0.1,0.1-0.3,0.2-0.4c0.4-0.3,1.1-0.3,1.9-0.3c0,0.2,0,0.2,0.1,0.3
			c-0.1,1.2-1.5,1.4-2.4,1.9c-0.3,0.2-0.7,0.7-0.4,1.1c0.4,0.9,2,0.1,2.5-0.2c1.1-0.7,3.6-2.4,2.6-4.3c-0.4-0.7-1.2-0.9-1.8-1.4
			c-1.4,0-1.5,0.4-2.3,0.8c-0.5,0.2-1,0.1-1.4,0.4c-0.7,0.5-1.6,1.7-2.1,2.4c-0.8,1-2.1,1.6-2.8,2.5c-0.6,0.9-1.4,3.2-0.9,4.7
			c0.1,0.3,0.2,0.8,0.4,1.1c0.1,0.1,0.4,0.3,0.4,0.4c0.1,0.3,0.1,0.6,0.2,0.9c0.3,0.5,1,0.6,1.6,0.8c1,0.4,2.4,1.2,4.1,0.8
			c1.1-0.3,2.1-0.9,3-1.3c0.4-0.2,0.8-0.1,1.3-0.3c0.6-0.3,1.1-0.8,1.7-1.1c0.6-0.4,1.4-0.7,1.8-1.2c0.1-0.1,0,0,0.1-0.2
			c-0.2-0.2-0.4-0.7-0.5-0.9C581.7,33.8,581.8,33.8,581.7,33.7"/>
		<path class="st1" d="M592.4,25c-0.3,0-0.6-0.1-0.9-0.1c-0.5,0.4-1.3,0.6-1.8,1c-0.8,0.6-2.5,2.7-2.9,3.6c-0.2,0.4,0,0.8-0.2,1.3
			c-0.2,0.6-0.5,1.2-0.7,1.9c-0.6,2.1,0,4.7,1.3,5.4c0.2,0.2,0.4,0.1,0.7,0.2c0.3,0.1,1,0.4,1.6,0.2c1.1-0.3,2.1-1.1,3.3-1.4
			c-0.1-0.4,0.1-0.9-0.2-1.2c-0.8-1.1-2.2,0.4-3.2-0.4c-0.5-0.3-0.7-0.9-0.9-1.4c1.1-0.5,3.5-2.2,4.1-3.2c0.1-0.3,0.1-0.7,0.2-1
			c0.2-0.3,0.6-0.5,0.7-0.9c0-0.9-0.1-1.7-0.1-2.6C593.1,25.8,592.7,25.4,592.4,25 M590.8,29.9c-0.6,0.4-1.4,0.6-1.8,1.1h-0.2
			c0.2-0.5,0.4-1,0.6-1.5c0.4-0.5,0.9-0.7,1-1.5c0.2,0,0.3-0.1,0.5-0.1c0.1,0.5,0.1,1,0.2,1.5C591,29.5,590.9,29.8,590.8,29.9"/>
		<path class="st1" d="M505.2,33.5c-0.2-0.2-0.4-0.2-0.6-0.1c-0.8,0-0.8,0.4-1.3,0.7c-0.4,0.1-0.8,0.3-1.1,0.4
			c-0.3-0.7-0.2-1.4-0.4-2.1c-0.1-0.4-0.4-1-0.5-1.4c-0.2-0.6,0.1-1.5-0.2-1.9v-0.5h0.1c0.2,0.7,0.4,1.2,0.4,2.1
			c0.2,0.1,0.5,0.2,0.7,0.4c0.7-0.1,1-0.5,1.6-0.7c0.3-1.3-0.4-4-1.1-4.8c-0.2-0.2-0.6-0.4-0.9-0.5c-0.4,0.4-1.3,0.3-1.8,0.6
			c-1.9,1.2-1.7,5.4-1,7.8c0.2,0.6,0,1.4,0.3,1.8c-0.8,0.3-1.7,0.5-2.5,0.8c-0.5,0.3-0.6,1.1-0.9,1.6c-0.2,0.3-0.7,1.2-0.2,1.8v1.1
			c0.1,0.1,0.3,0.1,0.4,0.2c1,0.7,2.5,1.1,3.8,0.3c0.3-0.2,0.4-0.7,0.7-0.9c0.2-0.1,0.5-0.1,0.7-0.2c0.4-0.2,0.8-0.9,0.9-1.3
			c0.2-0.7,0-1.6,0.3-2.1c0.4-0.6,1.5-0.9,2.1-1.3c0.4-0.2,0.6-0.7,0.9-0.9C505.5,34.1,505.4,33.7,505.2,33.5 M499.4,38.9
			c-0.9,0-1.3-0.2-1.7-0.6h-0.1v-0.1c0.5-0.1,1.3-0.2,1.7-0.4h0.1V38.9z"/>
		<path class="st1" d="M548.2,26.2c-0.4,0.3-1,0.4-1.5,0.7c-1.1,0.7-2.7,2.6-3.3,3.8c-0.1,0.4-0.1,0.8-0.2,1.2
			c-0.1,0.5-0.5,1.1-0.6,1.5c-0.1,0.3,0,0.8-0.2,1v2.8c-0.1,0.2-0.6,0.2-0.8,0.3c-1.2,0.5-2,0.7-3.7,0.6c-0.2-0.2-0.5-0.4-0.7-0.6
			c0.1-2.1,0.9-3.9,1-6c-0.7-0.6-1.3-1.5-1.6-2.4c-0.3-1,0.3-1.6-0.3-2.2c-0.1-0.1-0.3-0.1-0.4-0.2c-1.1,0-1.2,1-1.9,1.4v2
			c-0.6,2.4-2.1,3.9-3.4,5.7c-0.3,0.5-1.5,2-2.1,1.7h-0.8c-0.3-1.5-0.2-2.3,0.2-3.5v-0.7c0.3-0.7,1-1.5,1.3-2.2
			c0.2-0.5-0.2-0.8-0.2-1.2c-0.2-0.1-0.5-0.2-0.6-0.3c-1.2,0.1-1.5,1.4-1.9,2.3c-0.7,1.5-2.5,4.5-1.5,7c0.2,0.6,0.9,0.9,1.3,1.4
			c1.2,0,2.4-0.3,3.1-0.8c0.2-0.1,0.4-0.5,0.6-0.6h0.4c0.3-0.1,0.8-0.3,1-0.5c0.7-0.4,1.4-1.8,1.9-2.5c0.6-0.9,1.6-1.6,1.9-2.8h0.2
			c0.1,0.1,0,0,0.1,0.1c-0.1,0.4-0.3,0.4-0.4,0.7v0.8c-0.2,0.8-0.5,1.7-0.7,2.5c-0.1,0.5-0.1,1.7,0.1,2c0.5,0.9,1.6,1.3,2.2,2
			c2.7-0.1,4.8-1,6.6-2c0.2,0,1.7,1.2,3,0.7c1-0.3,1.9-1.1,3-1.3c0.1-2.3-1.3-1.6-3.2-1.5c-0.1-0.1-0.3-0.2-0.4-0.3
			c0-0.4,0.2-0.6,0-0.8c-0.1-0.4-0.2-0.4-0.6-0.4v-0.1c0.9-0.3,3.4-2.2,3.9-2.9c0.3-0.4,0.2-1,0.4-1.4c0.1-0.2,0.5-0.3,0.6-0.6
			c0.3-0.8-0.1-3.2-0.4-3.5C549.3,26.5,548.8,26.3,548.2,26.2 M545.5,32.4h-0.1c0.2-1.2,1.2-2.4,1.9-3.2h0.2
			c0.1,0.3,0.1,0.9,0.3,1.1C547.7,31.6,546.1,31.6,545.5,32.4"/>
		<path class="st1" d="M522.7,29.2v-0.8c-0.2-0.5-0.9-1.1-1.1-1.6H521c-0.1,0.1-0.2,0.1-0.4,0.1c-0.5,0.5-1.3,0.8-1.6,1.5
			c0,0.4-0.1,0.8-0.1,1.2c-0.1,0.1-0.2,0.1-0.3,0.2c-0.4,0.6-0.9,1.2-1.4,1.8c-0.2,0.3-0.2,0.5-0.3,0.8c-0.6,1.2-1.2,2.6-1.8,3.8
			c-0.4,0.8-0.4,3.2,0.1,3.7c0.2,0.4,0.1,0.1,0.5,0.3c0.2,0.1,0.5,0.6,0.6,0.8c1.6,0,2.9-0.6,4-1.2c0.6-0.4,1-1.1,2-1.1
			c0.4-0.8,0.9-1.7,1.1-2.7c0.3-1,0.2-4.4-0.1-5.3C523.2,30.2,522.9,29.7,522.7,29.2 M520.2,37.6c-0.3,0.7-1.4,1-2.6,0.9
			c0-1.4,0.2-2.7,0.6-3.7c0.2-0.4,0.6-0.8,0.8-1.2c0.4-0.8,0.7-1.7,1.4-2.3c0.1-0.2,0-0.1,0.1-0.2C521.1,32.3,521.1,36.6,520.2,37.6
			"/>
		<path class="st1" d="M317.9,33.4c-1.8,0.2-4.5,3.3-5.1,4.7c-0.1,0.4-0.1,0.9-0.2,1.3c-0.1,0.3-0.4,0.8-0.5,1.1
			c-0.1,0.3,0,0.7-0.2,0.9v2.4c-0.4-0.1-0.9-0.1-1.4-0.2c-2.3-0.6-4-0.3-5.9,0.5c-0.4,0.1-0.7,0.1-0.9,0.3h-0.1
			c0.1-1.5,0.9-2.7,1.5-3.8c0.2-0.5,0.2-0.8,0.4-1.3c0.1-0.2,0.3-0.5,0.4-0.7c0.3-0.7,0.2-1.3,0.4-2c0.2-0.6,0.5-1.3,0.7-1.9
			c0.1-0.7,0.1-1.3,0.2-2c0.2-0.5,0.4-1.4,0.6-2c0.2-0.7,0.1-1.5,0.4-2c-0.1-0.5-0.5-0.7-0.8-0.9c-0.2,0.2-0.5,0.2-0.6,0.4
			c-1,1.2-0.8,3.8-1.4,5.4c-1,3.1-2,6.3-3.2,9.2c-0.3,0.6-0.2,1.2-0.5,1.7c-0.1,0.1-0.3,0.3-0.4,0.5c-0.2,0.5-0.1,1-0.4,1.4
			c0.1,0.8,0.6,0.8,1,1.2c1.5-0.1,3-0.9,4.3-1.2c0.2-0.1,0.5,0.1,0.6,0.1h1.4c0.6,0.2,1.2,0.8,2,0.3c0.9-0.1,1.3-0.9,1.9-1.3
			c0.1-0.2,0-0.1,0.1-0.2c0.2,0.9,1.9,2.3,3.5,1.8c0.1,0,0.3-0.3,0.4-0.3c1-0.4,1.8-0.7,2.7-1.1c0-3-1.9-0.7-3.2-1.5
			c-0.6-0.2-0.6-0.8-1-1.2c0.2-0.7,1.4-1.1,2-1.5c0.5-0.4,1.7-1.4,2-1.9c0.1-0.4,0.2-0.8,0.3-1.2c0.1-0.2,0.5-0.4,0.6-0.7
			c0.3-0.8-0.1-3.1-0.4-3.4C318.7,33.7,318.3,33.8,317.9,33.4 M316.9,38.4c-0.5,0.5-1.4,0.6-1.9,1.2h-0.2c0.3-1.3,1.1-2.3,1.9-3.1
			h0.2c0.1,0.5,0.2,0.9,0.3,1.4C317.1,38,317,38.3,316.9,38.4"/>
		<path class="st1" d="M416.9,36.2c-1.6,0-1.7,0.8-3,1.1c-0.3-0.8-0.3-1.7-0.5-2.5c-0.1-0.3-0.3-0.7-0.4-1c-0.2-0.6,0.1-1.4-0.2-1.8
			v-0.5h0.1c0.2,0.4,0.3,1.8,0.5,2c0.7,0.9,1.6,0,2.3-0.4c0.1-1.7-0.6-4.9-2.3-5.1c-0.5,0.3-1.3,0.3-1.8,0.6c-2,1.4-1.5,7.2-0.6,9.6
			c-2,0.7-2.3,0.3-3.3,2.1c-0.3,0.5-0.5,0.7-0.4,1.3c-0.5,0.1-0.9,0.4-1.4,0.6c-1,0.4-2.1,0.4-3.2,0.3c-0.2-0.2-0.5-0.4-0.7-0.6
			c0-1.4,0.4-2.8,0.7-4c0.2-0.5,0-1.2,0.3-1.6c-0.1-0.8-1.2-1.6-1.6-2.6c-0.2-0.7,0.2-1.7-0.2-2.1c-0.2-0.4-0.3-0.2-0.6-0.4
			c-0.7,0.1-1.6,1-1.8,1.6c-0.2,0.3,0.1,1,0,1.6c-0.1,0.5-0.2,1.2-0.4,1.6c-0.7,1.3-1.6,2.2-2.4,3.3c-0.3,0.4-0.4,0.8-0.6,1.1
			c-0.4,0.3-0.8,0.7-1.1,1c-0.1,0.3,0,0.8-0.1,1c-0.3,0-0.4,0-0.5-0.1c0-0.2-0.2-0.3-0.2-0.4c0-0.5,0.1-1,0.1-1.5
			c0-0.8,0.7-3.5,1-3.9c0-0.3,0-0.7-0.1-0.9c-0.2-0.2-0.6-0.3-0.9-0.3c-0.5,0.4-1,0.8-1.6,1.2c-0.3,0.5-0.4,1-0.6,1.5
			c0,0.1-0.3,0.3-0.3,0.4c0,0.2-0.1,0.4-0.1,0.6c-0.3,0.5-1,1-1.4,1.4v0.2c-0.6,0.5-1.7,0.9-2.3,1.4H387c0-1.9,0.7-2.8,1.1-4.2V37
			c0.1-0.2,0.4-0.6,0.5-0.8c0.2-0.4,0.2-0.9,0.4-1.2c-0.1-0.6-0.3-0.6-0.5-0.9c-2.5,0-3,4.2-3.8,6.1c-0.1,0.3-0.1,0.7-0.2,1
			c-0.1,0.2-1.4,0.9-1.7,1c0.1,0.5,0.4,1.1,0.7,1.4c0.3,0.2,0.5-0.2,0.8,0c0.2,0.1,0.5,0.5,0.8,0.6c0.5,0.2,1.2-0.1,1.5-0.2
			c1.4-0.5,2.5-1.2,3.3-2.1c0.3,0.4,0.1,1.3,0.4,1.8c0.4,0.6,1,0.7,1.6,1.1c1.7,0,3.3-1.4,4.3-2.2h0.2c0.1-0.2,0.1-0.7,0.2-0.9
			c0.1-0.1,0.2-0.1,0.3-0.2c0.3-0.4,0.5-0.9,0.8-1.3c0.6-0.9,1.6-1.7,1.9-2.8h0.2v0.1h0.1c-0.1,0.2-0.1,0.4-0.2,0.5h-0.2
			c0,0.5-0.1,0.9-0.1,1.4c-0.3,1.1-1.2,3.1-0.4,4.3c0.5,0.8,1.5,1.1,2.1,1.8c2,0,3.4-0.6,4.8-1.2c0.5-0.2,1.1-0.2,1.5-0.6
			c1.2,0.4,2.3,1.2,3.8,0.3c0.4-0.2,0.6-0.9,0.8-1l0.6-0.1c0.4-0.2,0.8-0.7,0.9-1.1c0.2-0.5,0-1.7,0.3-2.2c0.4-0.7,1.4-1,2.1-1.4
			c0.4-0.3,0.7-0.7,1-0.9c-0.1-0.3-0.1-0.6-0.2-0.9C416.8,36.2,417,36.3,416.9,36.2 M411,41.6c-0.4,0.1-0.7,0.1-1-0.1
			c-0.1-0.1,0,0-0.1-0.2c0.2-0.1,0.3-0.4,0.4-0.5c0.2-0.2,0.4-0.2,0.7-0.2V41.6z"/>
		<path class="st1" d="M447.4,29.6c-0.4-0.1-0.6-0.2-1-0.2c-0.4,0.4-1,0.5-1.5,0.8c-1,0.7-2.7,2.8-3.2,3.9c-0.1,0.4-0.1,0.9-0.2,1.3
			c-0.9,2.2-1.6,5.7,0.6,7.2c0.4,0.3,1.3,0.8,2.3,0.5c1.1-0.5,2.2-0.9,3.2-1.4c0-0.5,0-1-0.2-1.2c-0.6-1.1-2.2,0.4-3.2-0.4
			c-0.4-0.3-0.5-0.8-0.8-1.1c0.1-0.7,1.9-1.5,2.5-1.9c0.5-0.4,1.3-1.2,1.6-1.8c0-0.2,0.1-0.5,0.1-0.7c0.1-0.3,0.6-0.5,0.7-0.9
			c0.3-0.8-0.1-3-0.3-3.4C447.8,30,447.6,29.8,447.4,29.6 M445.9,34.3c-0.5,0.5-1.5,0.7-2,1.2h-0.1c0.2-1.3,1.2-2.4,2-3.2
			c0.3,0.3,0.3,1.1,0.4,1.5C446,34,446,34.2,445.9,34.3"/>
		<path class="st1" d="M679.5,29.9c-0.3-0.1-0.5-0.1-0.8-0.1c-0.4,0.4-1.1,0.7-1.5,1.1c-0.2,0.3-0.2,0.6-0.4,0.9
			c-0.2,0.1-0.3,0.3-0.5,0.4c-0.3,0.5-0.1,1.1-0.1,1.7c0.2,0.2,0.3,0.4,0.5,0.6c1.5-0.3,1.9-1.4,3-2c0.1-0.6,0.6-1.6,0.1-2.1
			C679.8,30.1,679.7,30.1,679.5,29.9"/>
		<path class="st1" d="M329.9,38.9c-1.7,0-1.7,0.8-3,1.1c-0.3-0.8-0.3-1.7-0.5-2.5c-0.1-0.3-0.3-0.7-0.4-1c-0.2-0.6,0.1-1.5-0.2-1.9
			v-0.4h0.1c0,0.2,0.5,1.9,0.5,2c0.2,0.2,0.4,0.3,0.7,0.4c0.1,0.2,1.2-0.5,1.5-0.6c0.4-1.6-0.5-5.1-2.2-5.3
			c-0.4,0.4-1.3,0.3-1.8,0.6c-2,1.4-1.5,7.2-0.6,9.6c-2,0.7-2.3,0.3-3.3,2.1c-0.1,0.2-0.5,0.6-0.5,0.8c0,0.7,0.2,1.6,0.2,2.4
			c1.3,0.6,2.7,1.5,4.3,0.4c0.3-0.2,0.3-0.6,0.5-0.8c0.4-0.3,1.1-0.3,1.5-0.8c0.1-0.4,0.3-0.8,0.4-1.2c0.1-0.5-0.1-1.1,0.1-1.5
			c0.4-0.6,1.3-0.9,2-1.3c0.4-0.3,0.7-0.7,1.1-1c-0.1-0.3-0.1-0.6-0.2-0.9C329.8,38.9,329.9,39,329.9,38.9 M324,44.3
			c-0.1,0.1,0,0-0.1,0.1c-0.7,0-1.2-0.2-1.5-0.6c-0.2-0.1-0.1,0-0.2-0.1c0.5-0.2,1.2-0.4,1.8-0.4V44.3z"/>
		<path class="st1" d="M381.9,31.7c-0.3-0.1-0.7-0.2-1-0.3c-0.4,0.4-1.2,0.6-1.7,0.9c-1.1,0.8-1.8,2-2.6,3.1
			c-0.1,0.2-0.4,0.4-0.5,0.6c-0.1,0.5-0.1,0.9-0.2,1.4c-0.1,0.3-0.4,0.7-0.5,1c-0.4,1.1-0.5,4.1,0,5.1c0.2,0.4,0.6,0.7,1,1
			c0.5,0.3,1.5,0.8,2.5,0.5c1-0.5,2.1-0.9,3.1-1.4c0-0.5,0-0.9-0.2-1.1c-0.1-0.3-0.3-0.3-0.5-0.5c-0.8,0.1-2,0.5-2.6,0.1
			c-0.5-0.2-0.8-0.9-1-1.4c1.1-0.6,3.5-2.2,4.1-3.2c0.1-0.3,0.1-0.7,0.2-1c0.2-0.3,0.6-0.5,0.7-0.9c0.2-0.5,0-2.3-0.1-2.7
			C382.4,32.5,382.1,32.1,381.9,31.7 M380.5,35.9c-0.3,1-1.6,1.2-2.3,1.8h-0.1c0.5-1.3,1.1-2.3,2-3.2h0.2
			C380.3,34.9,380.6,35.6,380.5,35.9"/>
		<path class="st1" d="M553.6,33.3c-0.1-0.1-0.3-0.1-0.5-0.1c-0.3,0.2-0.7,0.2-1,0.4c-0.4,0.3-0.6,0.8-1,1c0.6,1.1,1.8,4.4,0.9,6.3
			c-0.1,0.1-1.1,1.1-1.3,1.2c0,0.6,0.3,0.6,0.5,1c0.6-0.1,0.9-0.5,1.4-0.7c1.8-1.1,2.3-1.6,2.9-3.9C556,36.5,554.7,33.7,553.6,33.3"
			/>
		<path class="st2" d="M684.8,55.1h-0.5C684.4,55.3,684.6,55.3,684.8,55.1"/>
	</g>
	<g>
		<rect x="213" y="99.2" class="st3" width="478" height="1.5"/>
	</g>
	<g id="dessous_7_">
		<g>
			<path class="st3" d="M18.5,9.7h-6.2v21.6H8V9.7H1.8V5.8h16.6V9.7z"/>
			<path class="st3" d="M27.9,9.7v6.9h8.7v3.9h-8.7v6.9h10.7v3.9h-15V5.8h15v3.9H27.9z"/>
			<path class="st3" d="M58.2,22.1c1.7,1.4,2.6,3.5,2.6,5.8v3.3h-4.3v-3.1c0-2.2-1.1-4.1-4.4-4.1h-4.1v7.2h-4.3V5.8h8.4
				c5.3,0,8.6,3.4,8.6,7.8v2.8C60.9,18.7,59.9,20.7,58.2,22.1z M52.2,20.2c3.3,0,4.4-1.9,4.4-4.1v-2.3c0-2.2-1.1-4.1-4.4-4.1h-4.1
				v10.5H52.2z"/>
			<path class="st3" d="M80.5,22.1c1.7,1.4,2.6,3.5,2.6,5.8v3.3h-4.3v-3.1c0-2.2-1.1-4.1-4.4-4.1h-4.1v7.2h-4.3V5.8h8.4
				c5.3,0,8.6,3.4,8.6,7.8v2.8C83.1,18.7,82.2,20.7,80.5,22.1z M74.5,20.2c3.3,0,4.4-1.9,4.4-4.1v-2.3c0-2.2-1.1-4.1-4.4-4.1h-4.1
				v10.5H74.5z"/>
			<path class="st3" d="M92.7,31.3h-4.3V5.8h4.3V31.3z"/>
			<path class="st3" d="M114.5,9.7h-6.2v21.6h-4.3V9.7h-6.2V5.8h16.6V9.7z"/>
			<path class="st3" d="M135.5,13v11.1c0,4.4-3.2,7.7-8.5,7.7c-5.3,0-8.5-3.3-8.5-7.7V13c0-4.4,3.2-7.7,8.5-7.7
				C132.4,5.3,135.5,8.6,135.5,13z M122.8,13.3v10.4c0,2.2,1,4.1,4.2,4.1c3.3,0,4.2-1.9,4.2-4.1V13.3c0-2.2-0.9-4.1-4.2-4.1
				C123.8,9.2,122.8,11.1,122.8,13.3z"/>
			<path class="st3" d="M145.1,31.3h-4.3V5.8h4.3V31.3z"/>
			<path class="st3" d="M164.8,22.1c1.7,1.4,2.6,3.5,2.6,5.8v3.3h-4.3v-3.1c0-2.2-1.1-4.1-4.4-4.1h-4.1v7.2h-4.3V5.8h8.4
				c5.3,0,8.6,3.4,8.6,7.8v2.8C167.4,18.7,166.5,20.7,164.8,22.1z M158.8,20.2c3.3,0,4.4-1.9,4.4-4.1v-2.3c0-2.2-1.1-4.1-4.4-4.1
				h-4.1v10.5H158.8z"/>
			<path class="st3" d="M177,9.7v6.9h8.7v3.9H177v6.9h10.7v3.9h-15V5.8h15v3.9H177z"/>
			<path class="st3" d="M204.9,14.9v-1.5c0-2.2-1-4.1-4.2-4.1c-3.1,0-4.2,1.7-4.2,3.9c0,2.8,4,3,7.6,4.4c3.1,1,5.1,3.3,5.1,6.4
				c0,4.4-3.2,7.8-8.5,7.8s-8.5-3.4-8.5-7.8v-1.3l4.3-0.3v1.3c0,2.2,1,4.1,4.2,4.1c3.1,0,4.2-1.7,4.2-3.9c0-2.8-4.5-3.2-7.6-4.4
				c-3.7-1.4-5.1-3.3-5.1-6.4c0-4.4,3.2-7.8,8.5-7.8s8.5,3.4,8.5,7.8v1.3L204.9,14.9z"/>
		</g>
		<g>
			<path class="st3" d="M37.5,81.3h-9V63.5l-4.7,17.8h-8.1l-4.7-17.8v17.8h-9V48.1h10.9l6.7,21.5h0.3l6.7-21.5h10.9V81.3z"/>
			<path class="st3" d="M52.4,56.4v4.2H62v8.3h-9.6V73h12v8.3h-21V48.1h21v8.3H52.4z M57.1,44.6h-6.5l4.5-7.3h8.2L57.1,44.6z"/>
			<path class="st3" d="M105.8,81.3h-9V63.5l-4.7,17.8H84l-4.7-17.8v17.8h-9V48.1h10.9l6.7,21.5h0.3l6.7-21.5h10.9V81.3z"/>
			<path class="st3" d="M136.6,58.1v13.2c0,6-5.6,10.7-12.4,10.7c-6.9,0-12.4-4.7-12.4-10.7V58.1c0-6,5.5-10.7,12.4-10.7
				C131,47.4,136.6,52.1,136.6,58.1z M120.7,58.9v11.8c0,1.5,0.9,3.1,3.4,3.1c2.6,0,3.4-1.7,3.4-3.1V58.9c0-1.5-0.8-3.1-3.4-3.1
				C121.6,55.7,120.7,57.4,120.7,58.9z"/>
			<path class="st3" d="M151.5,81.3h-9V48.1h9V81.3z"/>
			<path class="st3" d="M182.2,63.1c0,2.6-1,4.9-2.7,6.8c1.7,1.9,2.7,4.2,2.7,6.8v4.7h-9v-4.2c0-1.5-0.9-3.1-3.4-3.1h-3.4v7.4h-9
				V48.1h12.4c6.9,0,12.5,4.9,12.5,10.9V63.1z M169.8,65.7c2.6,0,3.4-1.7,3.4-3.1v-3c0-1.5-0.9-3.1-3.4-3.1h-3.4v9.3H169.8z"/>
			<path class="st3" d="M197.1,56.4v4.2h9.6v8.3h-9.6V73h12v8.3h-21V48.1h21v8.3H197.1z"/>
		</g>
		<polygon class="st4" points="31.9,89.3 19.7,110.5 7.5,89.3 		"/>
		<polygon class="st3" points="19.7,118.3 9.5,100.7 1.9,100.7 1.9,99.1 10.5,99.1 19.7,115.1 28.9,99.1 182.2,99.1 182.2,100.7 
			29.8,100.7 		"/>
		<g>
			<path class="st5" d="M192,39.1v2.3c0,1-0.8,1.8-2,1.8h-1.9v-5.9h1.9C191.2,37.3,192,38.1,192,39.1z M191,39.2
				c0-0.5-0.3-0.9-1-0.9h-0.9v4.1h0.9c0.7,0,1-0.4,1-0.9V39.2z"/>
			<path class="st5" d="M194.1,38.2v1.6h2v0.9h-2v1.6h2.5v0.9h-3.4v-5.9h3.4v0.9H194.1z"/>
			<path class="st5" d="M203.6,42.3v0.9h-3.4v-5.9h1v5H203.6z"/>
			<path class="st5" d="M207.6,41.9h-1.8l-0.3,1.2h-1l1.6-5.9h1.1l1.6,5.9h-1L207.6,41.9z M207.4,41l-0.6-2.6h0l-0.6,2.6H207.4z"/>
		</g>
		<g>
			<path class="st5" d="M191.3,101.6h-1.8l-0.3,1.2h-1l1.6-5.9h1.1l1.6,5.9h-1L191.3,101.6z M191.1,100.7l-0.6-2.6h0l-0.6,2.6H191.1
				z"/>
			<path class="st5" d="M196.4,99.1v-0.3c0-0.5-0.2-0.9-1-0.9c-0.7,0-1,0.4-1,0.9c0,0.6,0.9,0.7,1.7,1c0.7,0.2,1.2,0.8,1.2,1.5
				c0,1-0.7,1.8-1.9,1.8s-2-0.8-2-1.8v-0.3l1-0.1v0.3c0,0.5,0.2,0.9,1,0.9c0.7,0,1-0.4,1-0.9c0-0.6-1-0.7-1.7-1
				c-0.8-0.3-1.2-0.8-1.2-1.5c0-1,0.7-1.8,1.9-1.8c1.2,0,1.9,0.8,1.9,1.8V99L196.4,99.1z"/>
			<path class="st5" d="M200.7,97c1.1,0,1.8,0.8,1.8,1.7c0,0.5-0.2,0.9-0.6,1.2c0.5,0.3,0.7,0.7,0.7,1.3c0,0.9-0.7,1.7-1.8,1.7h-2.2
				V97H200.7z M199.7,99.5h1.1c0.6,0,0.9-0.4,0.9-0.8c0-0.4-0.3-0.8-0.9-0.8h-1.1V99.5z M200.9,101.9c0.6,0,0.9-0.4,0.9-0.8
				c0-0.4-0.3-0.8-0.9-0.8h-1.2v1.6H200.9z"/>
			<path class="st5" d="M207.2,101.9v0.9h-3.4V97h1v5H207.2z"/>
		</g>
		<path class="st5" d="M57.1,44.6h-6.5l4.5-7.3h8.2L57.1,44.6z"/>
	</g>
</g>
</svg>
