<?xml version="1.0" encoding="utf-8"?>
<!-- Generator: Adobe Illustrator 22.1.0, SVG Export Plug-In . SVG Version: 6.00 Build 0)  -->
<svg version="1.1" id="Calque_1" xmlns="http://www.w3.org/2000/svg" xmlns:xlink="http://www.w3.org/1999/xlink" x="0px" y="0px"
	 viewBox="0 0 1200 204" style="enable-background:new 0 0 1200 204;" xml:space="preserve">
<style type="text/css">
	.st0{clip-path:url(#SVGID_2_);}
	.st1{clip-path:url(#SVGID_4_);fill-rule:evenodd;clip-rule:evenodd;fill:#E2001A;}
	.st2{clip-path:url(#SVGID_4_);fill-rule:evenodd;clip-rule:evenodd;}
	.st3{clip-path:url(#SVGID_4_);fill-rule:evenodd;clip-rule:evenodd;fill:#FFFFFF;}
	.st4{fill:#003B5D;}
	.st5{fill:#BFCED5;}
	.st6{fill:#DD0029;}
	.st7{clip-path:url(#SVGID_8_);}
	.st8{clip-path:url(#SVGID_10_);fill-rule:evenodd;clip-rule:evenodd;fill:#E2001A;}
	.st9{clip-path:url(#SVGID_10_);fill-rule:evenodd;clip-rule:evenodd;}
	.st10{clip-path:url(#SVGID_10_);fill-rule:evenodd;clip-rule:evenodd;fill:#FFFFFF;}
	.st11{clip-path:url(#SVGID_14_);}
	.st12{clip-path:url(#SVGID_16_);fill-rule:evenodd;clip-rule:evenodd;fill:#E2001A;}
	.st13{clip-path:url(#SVGID_16_);fill-rule:evenodd;clip-rule:evenodd;}
	.st14{clip-path:url(#SVGID_16_);fill-rule:evenodd;clip-rule:evenodd;fill:#FFFFFF;}
</style>
<g>
	<g>
		<g>
			<defs>
				<rect id="SVGID_13_" x="590.9" y="39.6" width="619.6" height="103.3"/>
			</defs>
			<clipPath id="SVGID_2_">
				<use xlink:href="#SVGID_13_"  style="overflow:visible;"/>
			</clipPath>
			<g class="st0">
				<defs>
					<rect id="SVGID_15_" x="590.9" y="39.6" width="619.6" height="103.3"/>
				</defs>
				<clipPath id="SVGID_4_">
					<use xlink:href="#SVGID_15_"  style="overflow:visible;"/>
				</clipPath>
				<path class="st1" d="M1184.5,128.8c1.1,0,4.8,0.2,5.4,0.6h-1.1c-0.1,0.3-0.1,0.6-0.2,1c-5.1,0-9.6-1.2-14.8-1.3
					c-0.1,0.2-0.1,0.4-0.2,0.6h1.1c0.8,0.5,2.1,0.1,3.2,0.3c1.2,0.3,2.8,0,4.1,0.3c1.7,0.4,3.9,0.5,5.9,0.5v0.2h-0.3
					c-0.2,0.2-0.9,0.3-1.3,0.3v0.5c-1.9,0-4.3-0.2-6-0.6h-1.6c-1.4-0.3-3.4-0.4-4.9-0.6c-0.9-0.1-4.4-0.3-4.9,0c1.2,0,4,0,4.6,0.5
					c-4.3,0-9.3,0.3-13.2-0.6h-1.9c-1.3-0.3-3.1-0.2-4.5-0.5h-4.6c-1.9,0-5,0.1-6.8-0.3c-1.6-0.4-3.7,0.2-5.1-0.2
					c-7.4-0.2-14.8-0.3-22.3-0.5c-1.5-0.3-3.7-0.2-5.4-0.2h-10h-7.6c-1.5,0.4-4,0.3-5.6,0.3h-2.2c-1.5,0.4-3.7-0.1-5.2,0.3
					c-0.6,0.1-1.8,0-2.5,0.2c-3.8,0.9-8.7,0-12.6,1c-1.6,0.1-3.2,0.1-4.8,0.2c-1.4,0.3-3.1,0-4.6,0.3c-3.9,0.9-8.7,0.2-12.6,1.1
					c-1.3,0.1-2.6,0.1-4,0.2c-3.3,0.8-7.4,0.3-10.7,1.1h-1.7c-2.4,0.6-5.4,0.4-7.8,1h-1.6c-1.3,0.3-2.9,0.1-4.3,0.5
					c-1.8,0.4-4.1,0.7-6,0.8v-0.3c0.4-0.2,0.6-0.5,0.8-1c-1.6-0.2-4.5,0.5-6.4,0c-1-0.2-2.2-0.4-3-0.6c-0.2-0.4-0.3-0.5-0.3-1.1h0.3
					c0.8-0.6,2.9-0.6,4.1-0.6l-0.2-0.3h0.8c0.9-0.6,2.5-0.2,3.7-0.5c2.6-0.4,5.2-0.8,7.8-1.3v-0.2c-2.5,0-4.8,0-6.8,0.5h-1.4
					c-1.9,0.5-4.7,0.7-6.8,0.3c-0.1-0.2-0.1-0.3-0.2-0.6c0.4-0.2,0.8-0.4,1-1h0.2v-0.2h-0.3c-0.6-0.5-2.1,0-2.7,0.2h-1.3
					c-1.6,0.4-4,0.9-5.6,0.6v-0.5c0.6-0.2,0.6-0.5,1.1-0.6v-0.2c-2,0-4.3,0.2-6,0.6h-1.3c-1.3,0.3-3,0.5-4.3,0.8
					c-2.3,0.3-4.6,0.6-6.8,1c-1.7,0.5-3.7,0.9-5.7,1c-0.2-0.4-0.4-0.2-0.5-0.8h0.3c0.9-0.7,2.1-0.5,3.3-0.8c2.3-0.6,5.1-0.8,7.5-1.4
					c0.6-0.1,1.3-0.1,1.9-0.2c5.3-1.4,11.4-1.3,16.9-2.7c1.5-0.4,3.2-0.3,4.6-0.6h1.3c1.5-0.4,3.4-0.4,4.9-0.8h1.3
					c2.1-0.5,4.6-0.4,6.7-1h1.4c4.3-1,9.3-0.5,13.7-1.6c1.1-0.3,2.5-0.1,3.5-0.3h1.7c1-0.3,2.6-0.2,3.7-0.5c2-0.1,4-0.2,6-0.3
					c3.5-0.8,7.9-0.1,11.4-1c0.8-0.2,2,0,2.5-0.2c2-0.1,3.9-0.1,5.9-0.2c3.2-0.8,7.4,0.1,10.7-0.6h4.5c1.5-0.4,3.7,0.2,5.4-0.2
					c2.1-0.5,5.1,0.4,7.3-0.2c1.2-0.3,3-0.2,4.5-0.2h8.6h9.5c1.5,0,3.5-0.1,4.8,0.2c2.2,0.5,5.4-0.3,7.5,0.2h2.5
					c2.1,0,5.5-0.1,7.3,0.3h3.8c0.9,0.2,2.4-0.1,3.5,0.2c2.7,0.7,6.2,0,8.9,0.6c3.3,0.2,6.6,0.3,9.9,0.5c1.2,0.3,3,0.2,4.3,0.5h1.9
					c1.2,0.3,2.7,0,4,0.3c4.6,1.1,10.5,0.5,15.1,1.6h1.6c3.1,0.8,7.2,0.4,9.9,1.6v0.2c-1.2,0.1-3.5,0.2-4.8,0.5
					c-0.7,0.2-1.7-0.2-2.2,0.2c0.6,0.1,2.2,0.3,2.7,0.6h-0.2c-1.2,1-3.9,0.5-5.7,1c-0.8,0.2-2.1-0.3-2.7,0.2c1,0,2.5,0,2.9,0.6h-0.2
					c-1,1-3.2,0.5-5.1,0.5v0.3C1184.5,128.4,1184.6,128.5,1184.5,128.8"/>
				<path class="st2" d="M1186.8,46.8h-0.6c-0.6,0.5-1.5,0.6-2.1,1.1c-0.8,0.9-1.1,5.5-1.6,7.2c-1.4,4.8-1.9,10.2-3.3,14.9
					c-0.6,2.2-0.5,5.3-1.7,6.8c-0.1,1.6,0.3,1.8,1.3,2.2c0.3-0.3,0.7-0.4,1.1-0.6c0.8-0.6,1.4-1.6,2.4-2.1c1.8-9.5,3.6-19,5.4-28.5
					C1187.3,47.5,1187,47.2,1186.8,46.8"/>
				<path class="st2" d="M895.5,99.9c-0.9,0.1-2.2,1.2-3,0.6c-0.4,0-0.4,0-0.6-0.2c-0.4-0.5-0.6-2.7-0.3-3.7
					c0.1-0.5,0.5-1.2,0.6-1.6c0.1-0.5,0.1-1.1,0.2-1.6c0.4-1,1.4-2.1,1.7-3.2c-0.1-0.6-0.2-1.3-0.3-1.9c-0.4-0.1-0.8-0.2-1.1-0.5
					c-2,0.6-4,6.2-4.8,8.4c-0.2,0.7-0.1,1.6-0.5,2.2c0,2.3-1.6,1.9-2.7,3c-0.4,0-0.7,0-1-0.2c-0.4-0.1-0.5-0.3-0.8-0.5
					c-0.1-2.6,0-5.4,0-8.1c-0.3-0.3-0.5-0.7-1-1c-0.2-0.1,0-0.1-0.3-0.2c-0.8,0.7-1.6,1.5-2.4,2.2c-0.4,0.7-0.3,1.6-0.8,2.2
					c-0.6,0.9-1.8,1.6-2.4,2.5H876c1-4.1,3-8,4.8-11.4c0.6-1.2,0.9-2.4,1.6-3.5c1.1-1.7,2.3-3.7,3.2-5.6c0.9-2,1.2-4,2.1-6
					c0.8-1.9,1.6-4,2.2-6c0.4-1.3,0.1-2.6,0.5-4c0.3-1,0.5-2.1,0.5-3.3c-0.2-0.2-0.5-0.5-0.6-0.8c-3.3,0-3.8,5.1-4.8,7.6
					c-1.6,4.2-3.2,8.7-4.9,12.7c-0.3,1-0.5,2-0.8,3c-0.9,2.2-2.1,4.5-3.3,6.5c-0.3,0.4-0.2,0.9-0.5,1.3c-0.5,0.8-1.2,1.6-1.7,2.4
					c-0.3,0.3-0.6,0.5-1,0.8c-0.3,0.4-0.5,0.9-0.8,1.3c-0.3,0.3-0.6,0.5-1,0.8c-0.3,0.5,0,1.1,0.3,1.4c0.2,0.1,0.6,0,1,0.3h0.3
					c-1,2.1-2.4,5.9-2.4,8.7c0.6,0.1,1.2,0.1,1.7,0.2c1.6-0.5,5.2-3.6,6-4.9c0.6,0.3,0.3,1.2,0.5,1.9c0.3,1,0.9,1.9,1.3,2.9
					c1.2,0.3,3,0.8,4.5,0.3c0.6-0.2,0.9-0.9,1.4-1.3c0.6-0.4,1.2-0.7,1.6-1.3c0.9,0.3,1,1.4,1.7,1.9c0.3,0.2,0.4,0.1,0.6,0.3
					c2.6,0,5.8-1.6,6.4-3.8c0.1-0.2,0.1,0,0.2-0.3C896.1,100.6,895.7,100.3,895.5,99.9"/>
				<path class="st2" d="M862,60.9c-0.7,0.6-1.7,0.8-2.4,1.3c-0.5,0.3-0.7,0.9-1.1,1.4c-0.7,0.9-1.9,1.6-2.5,2.5
					c-0.9,1.2-1.5,2.5-2.4,3.8c-0.3,0.4-0.8,0.9-1.1,1.3c-0.7,1-1.2,2.1-1.9,3.2c-0.5,0.7-1.3,1.5-1.7,2.2c-0.8,1.5-0.9,3.3-1.6,4.9
					c-1.4,3.3-2.8,6.7-4,10.3c-0.6,1.7-1.1,6.3-0.5,8.4c0.2,0.7,0.8,1.5,1,2.1c0.2,0.6,0,1.2,0.3,1.7c0.6,0.9,3.2,2.7,4.3,3
					c1.2-0.1,2.4-0.2,3.7-0.3c1.2-0.4,1.9-1.1,2.9-1.7c-0.1-0.6-0.4-1.1-0.6-1.6c-1.3,0-3.9,0.3-4.6-0.3c-1.6-0.5-2.4-3.2-2.9-4.9
					v-1.1c-0.1-0.5-0.5-2.4-0.2-3.2c0.1-0.2,0.5-0.6,0.6-1v-1.3c0.4-1.1,2.5-3,3.2-4c2-2.8,4.1-5.6,5.9-8.6c0.7-1.2,1-2.5,1.7-3.7
					c1.1-1.7,2.5-3.4,3.3-5.4c0.1-0.5,0.2-1.1,0.3-1.6c0.4-1.2,1-2.6,1.4-3.8c0.2-0.6,0-1.3,0.3-1.7c0-0.6,0-1.3-0.2-1.7
					C862.7,61.2,862.5,61,862,60.9 M854.8,75.9c-1.4,2.5-3.3,4.8-4.8,7.2h-0.2c0.2-0.5,0.3-1,0.5-1.4c0.6-1.1,1.7-2.1,2.4-3.2
					c0.5-0.8,0.5-1.6,1-2.4c0.6-1,1.6-1.8,2.1-2.9C856,73.4,855.1,75.4,854.8,75.9"/>
				<path class="st2" d="M1037,72.7c0.7-1,3-5.4,2.5-7.3c-0.2-0.9-0.8-1.7-1.3-2.4h-1.4c-0.7,0.4-1.5,0.7-2.2,1.1
					c-0.1,0.6-0.5,1.4-0.3,2.4c0.1,0.5,0.5,1.4,0.3,2.2c-0.3,0.9-1.1,1.7-1.4,2.5c-0.2,0.5-0.5,1.7-0.2,2.2
					C1033.6,75.2,1036.4,73.5,1037,72.7"/>
				<path class="st2" d="M1079,76.4c-0.8,0.2-1.8,0-2.4,0.5h-0.8c0.6-2.5,2-5.8,1.3-8.9c-0.5-2.1,0.1-3.7-2.1-4.1
					c-1.1,0.7-2.2,1.4-3.3,2.1c-0.3,1-0.6,1.9-1,2.9c-0.8,1.9-1.6,4.1-2.4,6c-0.5,1.2-0.5,2.6-1.3,3.5c-0.3,0.7-1,0.5-1.6,1
					c-0.8,0.5-1.2,1.6-1.6,2.5c0.3,0.3,0.5,0.7,0.6,1.1h1.4c-0.2,0.4-0.6,0.8-0.6,1c-0.2,2.2-0.3,4.3-0.5,6.5
					c-0.2,0.6-0.7,1.1-0.8,1.6c-0.2,0.8,0.8,2.6,1,3.2c0.1,0.6,0.2,1.2,0.3,1.7c0.8,1.6,3.4,2.8,5.7,1.9c1-0.6,1.9-1.3,2.9-1.9
					c-0.1-0.4-0.2-1-0.5-1.3v-0.3c-1,0-2.7,0.4-3.2,0c-1.6-0.5-1.1-2.6-1.9-3.8c0.1-1.4,1.1-1.8,1.7-2.7c0.9-1.3,3.5-6,3.7-7.8
					c2.5-0.6,5.1-1.5,7.3-2.2h1c0.8-0.2,1.9-0.5,2.5-1c0.3-0.4,0.6-0.7,1-1.1c-0.1-0.7-0.5-0.9-0.8-1.4
					C1082.7,75.3,1080.7,75.9,1079,76.4 M1070.1,83v0.3h-0.2c0.1-0.4,0.2-0.7,0.3-1.1C1070.4,82.5,1070.3,82.8,1070.1,83
					 M1072.4,76.8c-0.2,0.2-0.3,0.3-0.5,0.5h-0.3c0.2-2,1.2-3.6,1.6-5.4C1073.9,72.8,1072.8,76.4,1072.4,76.8"/>
				<path class="st2" d="M815.7,89.1c0.2-2,1.3-3.4,1.9-5.1c1-2.7,1.4-5.8,2.2-8.6c0.4-1.4,0.7-4.8-0.2-5.7c0.1-1.9,0-1.7-1-2.5
					c-2.5,0.1-3.4,2.7-4.3,4.5c-1.9,3.6-3,8.2-4.5,12.1c-0.5,1.3-0.6,3.6-1.4,4.6v0.3c-3.1-1.8-5.8,0.9-7.3,2.9
					c-0.4,0.4-0.8,0.7-1.3,1.1c-0.4,0.5-0.6,1.1-1,1.6c-0.2,0.1-0.3,0.2-0.5,0.3c-1.1,1.5-2,3.5-2.7,5.2c-0.1,0.3-0.1,0.6-0.2,1
					c-0.3,0.8-1.4,3-1.1,4.3c0.1,0.5,0.2,1.4,0.5,1.9c0.2,0.3,0.5,0.3,0.6,0.8c0.5,0.2,1,0.3,1.4,0.5c0.6-0.6,1.4-0.5,2.1-1
					c0.4-0.5,0.8-1,1.3-1.4c1.4-1,3.1-2.2,4-3.7c0.4,0.5,0.1,1.3,0.3,2.1c0.4,1.4,1,3.1,2.4,3.5v0.2c1.4,0,2.3-0.8,2.9-1.6
					c0.6-0.9-1-2.3-1.3-3c-0.1-0.4,0-0.6-0.2-0.8v-4c0.4-0.9,1.7-1.6,2.2-2.4c1.1-1.6,2-3.1,3-4.8c0.4-0.7,1-1.3,1.3-2.2H815.7z
					 M800.6,101.2c-0.6,0.5-1.4,0.7-1.9,1.3h-0.2c0.1-2.7,1.1-4.1,2.2-5.7c0.3-0.3,0.6-0.5,1-0.8c0.3-0.5,0.3-1,0.6-1.4
					c0.6-0.5,1.3-1.1,1.9-1.6c0.4,0,0.9,0.1,1.1,0.3h0.3C805.3,96.5,802.8,99.6,800.6,101.2 M812.4,88.8c-0.4,0.7-0.6,1.4-1.1,1.9
					v0.2h-0.2c0.5-2.1,1.4-4.3,2.2-6.2c1.1-2.7,1.6-5.6,2.5-8.4c0.3-0.8,0.8-1.5,1-2.4c0.3,0.5-0.1,3.9-0.3,4.6
					C815.4,82.3,814.2,85.8,812.4,88.8"/>
				<path class="st2" d="M871.3,70.8c-0.2-1-0.9-1.6-1.3-2.4H869c-0.8,0.4-1.7,0.7-2.5,1.1c-0.1,0.6-0.5,1.5-0.3,2.4
					c0.1,0.5,0.6,1.6,0.3,2.4c-0.3,0.8-2.5,3.4-1.6,4.6c0.2,0.8,1.4,1.1,2.1,0.5c2.2-0.2,3.6-4.5,4.3-6.4
					C871.4,72.6,871.5,71.5,871.3,70.8"/>
				<path class="st2" d="M922.1,89.1c0.5-0.9,1.3-2.2,1.4-3.3c2.4-0.2,5-1.4,7-2.1h1c1.6-0.4,3-0.9,3.7-2.2c0.2-0.3-0.4-1-0.8-1.3
					c-0.1-0.1-1.4,0-1.9,0.2c-1.9,0.6-4.7,1.2-6.8,1.4c0.1-2.1,0.8-3.9,1.3-5.9c0.6-2.6-0.6-5-0.8-6.8c-0.4,0-0.7-0.1-1-0.3
					c-0.7,0.1-3.6,1.6-3.8,2.1c-0.3,0.8-0.5,1.7-0.8,2.5c-1.1,2.5-2,5.3-3,7.8c-0.3,0.8-0.3,1.6-0.8,2.2c-0.4,0.5-1.1,0.4-1.6,0.8
					c-0.7,0.5-0.9,1.4-1.4,2.1c0,0.7,0.2,1.1,0.6,1.4c0.1,0.1,0.7,0,1.3,0c-0.1,0.7-0.5,1.1-0.6,1.7c-0.2,2-0.3,4-0.5,6
					c-0.2,0.6-1,1.3-0.8,2.1c0.2,0.8,0.8,2,1.1,2.9c0.1,0.5,0.2,1.1,0.3,1.6c0.8,1.3,3.7,2.7,5.9,1.6c0.9-0.4,1.7-1.2,2.5-1.7
					c-0.1-0.5-0.2-1.1-0.3-1.6c-1.1,0-2.4,0-3.3,0.2c-0.9-1.3-1.6-2.6-1.9-4.6C919.9,94.1,920.8,91.5,922.1,89.1 M922.9,76.8
					c0.6,0.9-0.3,4.2-0.6,4.6c-0.2,0.5-0.3,0.5-0.6,0.8h-0.3C921.8,80.4,922.3,78.6,922.9,76.8 M919.8,87.2h0.3
					c-0.2,0.4-0.4,0.7-0.5,1.3h-0.2C919.6,87.9,919.7,87.7,919.8,87.2"/>
				<path class="st2" d="M1157.8,84.3c-2.3-0.1-1.8,0.4-3.2,1.3c-0.5,0.3-1.1,0.1-1.4,0.5c-0.4-0.6-0.2-1.4-0.5-2.2
					c-0.3-1.2-0.8-2.7-1.1-3.8c-0.2-0.6,0.1-1.2-0.2-1.6v-1.6h0.2c0.1,0.4,0.4,0.9,0.5,1.3l0.2,2.1c0.1,0.1,0.8,0.3,1,0.5
					c1.1-0.1,1.4-0.7,2.4-1c0.8-3.1-0.6-7.5-3-8.6c-0.7,0.6-2,0.4-2.7,1c-2.8,1-2.6,8.6-1.7,11.8c0.2,0.9,0,2.1,0.5,2.7v0.8
					c-3,0.6-3.7,0.8-4.9,3.2c-0.3,0.6-0.7,0.9-0.8,1.7c-0.4-0.3-0.7-0.6-1-0.6c-1.2,0.1-1.3,0.8-2.1,1.3c-0.4,0.3-0.9,0.4-1.4,0.6
					c-1-2.1-0.1-5.2,0.5-7.2c0.3-0.9,0.3-2,0.8-2.7c0-0.6,0-0.8-0.3-1.1c-0.3-0.2-0.8-0.4-1.3-0.5c-0.6,0.6-1.4,1.2-2.1,1.7h-0.3
					c-0.2,0.5-0.3,1-0.5,1.4c-0.6,1.5-1.5,3.1-2.4,4.3c-1.1,1.5-3.1,2-4.3,3.2h-0.3c0.1-2.7,1.1-4.3,1.7-6.4v-1
					c0.2-0.6,1.1-2.8,1.4-3.2c0-1.2-0.3-1.2-0.8-1.9c-3.6,0.3-4.3,6-5.4,8.9c-0.3,0.8-0.2,1.8-0.6,2.4c-0.8,0.5-1.6,1-2.4,1.4
					c0.2,1,0.7,1.5,1,2.4c0.4-0.1,0.8-0.1,1.3-0.2c0.3,0.1,0.7,0.8,1.3,1c2.5,0.7,6.4-2.3,7.2-3.5h0.3c0.3,0.7,0.1,1.8,0.5,2.5
					c0.5,1,1.6,1.3,2.4,1.9c2.3,0,5.8-2.1,6.7-3.5c0.6,0.3,0.1,0.4,0.5,1c0,2.1,3.6,3,5.4,2.2c0.4-0.2,1.3-0.7,1.6-1.1
					c0.2-0.2,0.1-0.6,0.3-0.8c0.6-0.5,1.6-0.4,2.1-1.1c0.5-0.7,0.3-2.2,0.8-2.9v-1.4c0.2-0.4,0.9-0.7,1.3-1c0.8-0.6,1.7-1.1,2.5-1.7
					c0.4-0.3,0.5-0.7,1-1c0-0.6,0-1-0.3-1.3V84.3z M1148.9,92.9c-1.4,0-2.1-0.3-2.7-1h-0.2c0.6-0.5,1.9-0.3,2.5-0.8h0.3V92.9z"/>
				<path class="st2" d="M952.9,79.7c2.1,0,2.1-0.8,3-1.7c0-4-1.5-2.8-2.5-5.2h-1.9c-0.4,0.8-0.8,1.8-1.4,2.4
					C950.1,77.6,952.3,77.9,952.9,79.7"/>
				<path class="st2" d="M1063.5,87.3c-2.7,0-1.9,0.8-3.3,1.4c-0.5,0.2-0.8,0-1.1,0.3c-0.7-0.4-0.4-1.4-0.6-2.2
					c-0.3-1.2-0.8-2.7-1.1-3.8c-0.2-0.6,0.1-1.3-0.2-1.7v-1.4h0.2c0.1,0.4,0.4,0.9,0.5,1.3c0.1,0.6,0.1,1.3,0.2,1.9v0.2
					c0.9,1.1,2.8-0.2,3.5-0.6c0.3-1.8-0.5-5.6-1.3-6.8c-0.3-0.6-1-0.9-1.4-1.4h-0.8c-0.6,0.5-1.7,0.3-2.2,0.8
					c-3,0.9-2.8,8.5-1.9,11.8c0.2,0.9,0,2.1,0.5,2.7c0,0.4,0,0.6-0.2,0.8c-0.9,0.7-2.6,0.5-3.5,1.1c-0.6,0.4-1.8,2.6-2.1,3.3
					c0.1,1.3,0.2,2.6,0.3,4c2,0.9,3.9,2.3,6.4,0.6c0.4-0.5,0.7-1,1.1-1.4c0.8-0.5,1.6-0.5,2.1-1.3c0.6-1,0.3-3.5,0.8-4.3
					c0.6-1,2.3-1.5,3.3-2.2c0.5-0.3,0.8-0.9,1.3-1.3c0-0.5-0.1-1-0.3-1.3V87.3z M1054.6,95.9c-0.5,0-0.6,0.1-0.8,0
					c-1.1-0.1-1.1-0.5-1.9-0.8c0.4-0.8,1.9-0.5,2.5-1h0.2V95.9z"/>
				<path class="st2" d="M900,76.7c-0.7-1-1.7-0.6-2.1-2.2H896c-0.2,0.8-0.9,1.9-1.4,2.4c0,2.2,2.1,3.3,3,4.8
					c1.6-0.1,1.8-0.8,2.7-1.4C900.4,79,900.6,77.6,900,76.7"/>
				<path class="st2" d="M708.9,96.7c0.3-0.5,0.8-1.1,1-1.6c0.1-0.4,0.1-0.7,0.2-1.1c0.2-0.4,0.5-0.6,0.6-1.3
					c2.5-0.6,5.1-1.5,7.3-2.2c0.9-0.3,1.5,0,2.2-0.3c0.4-0.2,1.1-0.5,1.4-0.8c0.3-0.3,0.4-0.7,0.8-1c-0.2-0.6-0.6-0.8-0.8-1.4
					c-3,0.5-5.9,1.1-8.9,1.6c0.4-3.2,2.1-6.8,1-10.7c-0.2-0.7-0.1-1.2-0.5-1.6c-0.2-0.5-0.7-0.5-1.1-0.8c-0.3,0.1-3.3,1.7-3.5,1.9
					c-0.3,1-0.6,1.9-1,2.9c-0.8,1.8-1.3,3.8-2.1,5.7c-0.5,1.3-1.4,2.8-1.6,4.3c-1,0.4-2.1,0.9-2.7,1.7c-0.2,0.4-0.2,0.8-0.5,1.1
					c0.1,0.7,0.4,0.9,0.6,1.4h1.3c-0.1,0.7-0.5,1.2-0.6,1.9c-0.3,1.1-0.1,2.5-0.3,3.5c-0.3,1.2,0.1,2.2-0.5,3
					c-0.5,1.5-2.3,1.6-3.7,2.2c-1.5,0.7-5.4,3.6-7.8,2.5c-0.7-0.3-1.1-1.5-1.6-1.7c-0.5-0.3-0.9,0.1-1.3-0.3
					c-0.3-0.5,0.1-1.3-0.2-1.9c-0.2-0.1-0.3-0.2-0.5-0.3c-0.6-1.5,0.8-3.6,1.1-4.3c0.2-0.4,0-1,0.3-1.3h0.3c0.4-0.3,1-0.8,1.3-1.3
					c0.6-1,0.8-2.9,1.7-3.5h0.6c0.2-0.3,0.4-0.5,0.6-0.8c0.6-0.4,1.7-0.3,2.7-0.3c0,0.4,0,0.4,0.2,0.6c-0.3,1.6-2.6,2.1-3.8,2.9
					c-0.3,0.2-0.3,0.6-0.6,0.8c0,2.4,2.5,1.5,3.7,0.8c1.8-1.1,4-2.8,4.6-5.1c-0.1-0.5-0.1-1-0.2-1.4c-1-1-1.3-2.3-2.9-2.7
					c-1.7-0.5-2.8,0.9-3.7,1.3c-0.6,0.2-1.2,0.3-1.7,0.5c-1.5,0.9-3.4,3.8-4.5,5.2c-0.5,0.6-1.2,0.8-1.9,1.3
					c-0.6,0.4-1.4,1.4-1.7,2.1c-0.5,0.9-0.5,2.5-1.1,3.3v2.1c-0.5,0.2-1.1,0.3-1.6,0.5c-0.8,0.3-3.8,2.5-4.8,1.7h-0.3
					c-0.1-2.4,0-3.3,0.8-5.1c0.3-0.6,0.2-1.3,0.6-1.7c0.2-0.2,0.4,0,0.6-0.2c0.3-0.2,0.7-1.1,0.8-1.4c1.1-3-0.8-6.3-3-7
					c-2.4-0.7-5.1,1.4-6,2.4c-0.5,0.4-1,0.8-1.4,1.3c-0.6,0.8-0.6,1.6-1.1,2.5c-0.2,0.4-0.7,0.8-1,1.1c-0.7,1.6-1.4,3.2-2.1,4.8
					c-0.1,0.8-0.2,1.6-0.3,2.4c-0.5,1.7-0.7,4.4,0,6c0.3,0.6,0.9,0.8,1.3,1.3c2.5-0.1,3.5-1.4,4.8-2.7c0.4-0.3,0.7-0.6,1.1-1
					c0.5-0.6,0.6-1.3,1.3-1.7v-0.2h0.2c0.1,0.5,0.2,1,0.3,1.4c0.3,0.5,0.6,1.1,1,1.6c1-0.1,1.9-0.1,2.9-0.2c1.8-0.5,5.4-2.4,6.4-3.8
					c0.9,1,1,3.1,2.1,3.8c0.9,0.6,5.8,2.4,7.8,1.9c1.7-0.5,3.1-1.4,4.6-2.1c1.9-0.8,4.1-1.1,5.2-2.7c0.6,0.3,0.8,2.3,1.4,2.9
					c1,1,3.3,1.7,5.1,1c0.9-0.4,1.8-1.3,2.7-1.7c-0.1-0.6-0.2-1.2-0.3-1.7c-0.5,0-1.3-0.1-1.6,0.2c-3.5,0.1-2.2-1.7-3.5-3.5
					c0-2.1,1.1-2.3,1.9-3.5C707.9,99.1,708.2,97.9,708.9,96.7 M710,83.8c0.6,0.9-0.3,4.2-0.6,4.6c-0.2,0.5-0.5,0.5-0.8,0.8h-0.2
					C708.9,87.4,709.5,85.6,710,83.8 M672.5,99.1c-0.3,0.8-0.5,1.6-0.8,2.4c-0.7,1.6-1.9,3-2.9,4.3c-0.7,0.9-2,1.5-2.4,2.7
					c-0.4,0-0.4,0-0.6,0.2h-0.3c0-5,1.5-8.8,3.5-11.9c0.3-0.5,0.3-1,0.6-1.4c0.8-0.4,1.6-0.8,2.4-1.3c0.4,0,0.4,0,0.6,0.2
					c0.9,0.3,1,1.1,1.6,1.7C674.1,97.5,673.1,98.1,672.5,99.1 M706.6,95.4c0.1-0.5,0.2-1,0.3-1.4h0.3c-0.2,0.5-0.3,1-0.5,1.4H706.6z
					"/>
				<path class="st2" d="M1120,82.6c-0.2-0.8-0.7-1.8-1-2.5c-0.1-0.5-0.1-1.1-0.2-1.6c-0.3-0.9-1.3-1.4-1.6-2.4h-1.4
					c-0.4,0.3-0.9,0.4-1.3,0.6c-0.5,0.4-1.2,1.5-1.4,2.1c-0.1,0.6-0.1,1.2-0.2,1.7c-0.2,0.1-0.3,0.2-0.5,0.3
					c-0.7,1.1-1.6,2.1-2.2,3.2c-0.4,0.7-0.5,1.3-0.8,2.1c-0.6,1.4-1.4,3.2-2.1,4.6c-0.6,1.5-0.8,5.4,0.2,6.4v0.3
					c0.2-0.1,0.4-0.1,0.6-0.2c0.3,0.4,0.5,0.8,0.8,1.3c2.4,0,4.4-0.7,5.9-1.6c1-0.6,1.8-1.9,3.3-1.9c0.6-1.2,1.3-2.5,1.7-4
					c0.5-1.8,0.4-4.9,0-6.7V82.6z M1115.2,93.2c-0.6,0.3-1.3,0.9-1.9,1.1c-0.4,0.2-0.8,0-1.1,0.2c-0.5,0-0.8-0.1-1.1-0.2
					c0.2-2,0.3-4.1,1-5.7c0.1-0.3,0.6-0.7,0.8-1c0.4-0.6,0.4-1.3,0.8-1.9c0.6-1,1.6-2,1.9-3.2c0.6,0.8,0.2,2.1,0.5,3.3
					C1116.6,88.5,1115.5,91.1,1115.2,93.2"/>
				<path class="st2" d="M1109.6,79.5c0.2-0.3,0.2-0.7,0.5-1c0-0.7-0.1-0.9-0.3-1.3c-0.4-0.1-0.8-0.2-1.4-0.2
					c-0.4,0.7-1.3,1-1.7,1.6c-0.8,1.1-1.4,2.1-2.2,3.2c-0.2,0.2-0.4,0.3-0.6,0.5c-0.5,0.8-0.7,1.6-1.3,2.4c-0.5,0.4-1,0.8-1.4,1.3
					c-0.2,0.4-0.1,0.7-0.3,1.1c-0.5,1.1-1.8,3.7-2.7,4.3v0.3h-0.2c0-2.2,0.4-8.7-0.3-10c-0.2-0.3-0.6-0.5-0.8-0.8
					c-1.2-0.1-1.5,0-2.1,1c-1,1.8-0.1,3.1-0.6,5.2c-0.5,2.1-0.6,7-0.2,9.2c0.1,0.6-0.2,1.1-0.2,1.4c0.1,0.7,0.6,1.4,1,1.9
					c2.4,0,3.8-3.4,4.8-4.9c0.6-1,1.6-2.1,2.1-3.2c0.4-1,0.5-2,1.1-2.9c0.2-0.4,0.6-0.4,1-0.6c0.4-0.3,1-1.3,1.3-1.7
					c0.9-1.4,1.4-2.9,2.4-4.3C1107.9,81.2,1109.1,80.4,1109.6,79.5"/>
				<path class="st2" d="M1029.7,92.7c-1.7,0.1-1.7,0.8-2.7,1.3c-0.5,0.1-1,0.2-1.4,0.3c-1.5,0.7-2.9,1.5-4.6,2.2
					c-0.8,0.3-2.1,1.2-3.5,0.8c-1.1-0.3-1.5-1.6-2.1-1.9c-0.3-0.1-0.9-0.1-1.1-0.2c-0.2-1-1.1-3.1-0.8-4.3c0.2-0.7,0.8-1.6,1.1-2.2
					c0.1-0.4,0.1-0.7,0.2-1.1c0.3-0.7,1.5-1.1,1.9-1.7c0.6-0.9,0.7-2.8,1.6-3.3h0.8c0.1-0.1,0.2-0.5,0.3-0.6
					c0.7-0.5,1.7-0.5,2.9-0.5c0.1,0.3,0,0.3,0.2,0.5c-0.2,1.9-2.4,2.1-3.7,3c-0.4,0.3-1,1.1-0.6,1.7c0.5,1.4,3.1,0.1,3.8-0.3
					c1.6-1,5.5-3.8,4-6.8c-0.6-1.1-1.8-1.5-2.7-2.2c-2.1,0-2.3,0.6-3.5,1.3c-0.7,0.4-1.5,0.2-2.1,0.6c-1.1,0.7-2.4,2.7-3.2,3.8
					c-1.2,1.6-3.3,2.5-4.3,4c-1,1.3-2.2,5-1.4,7.5c0.1,0.4,0.4,1.3,0.6,1.7c0.1,0.2,0.6,0.5,0.6,0.6c0.1,0.5,0.2,1,0.3,1.4
					c0.5,0.7,1.5,0.9,2.4,1.3c1.5,0.6,3.7,1.9,6.2,1.3c1.7-0.4,3.1-1.4,4.6-2.1c0.7-0.3,1.2-0.2,1.9-0.5c1-0.4,1.8-1.2,2.5-1.7
					c0.9-0.6,2.1-1,2.7-1.9c0.1-0.2,0.1,0,0.2-0.3c-0.3-0.3-0.6-1-0.8-1.4C1029.7,92.8,1029.9,92.9,1029.7,92.7"/>
				<path class="st2" d="M1046.1,78.9c-0.5-0.1-1-0.1-1.4-0.2c-0.7,0.6-1.9,1-2.7,1.6c-1.3,0.9-3.8,4.2-4.5,5.7
					c-0.3,0.7-0.1,1.3-0.3,2.1c-0.3,0.9-0.8,2-1.1,3c-0.9,3.3,0.1,7.3,1.9,8.6c0.4,0.2,0.7,0.1,1.1,0.3c0.5,0.2,1.5,0.6,2.4,0.3
					c1.7-0.5,3.3-1.8,5.1-2.2c-0.2-0.6,0.1-1.4-0.3-1.9c-1.3-1.7-3.4,0.6-4.9-0.6c-0.8-0.5-1.1-1.4-1.4-2.2c1.7-0.8,5.4-3.5,6.2-5.1
					c0.1-0.5,0.2-1.1,0.3-1.6c0.2-0.5,0.9-0.9,1.1-1.4c-0.1-1.4-0.1-2.8-0.2-4.1C1047.1,80.3,1046.5,79.6,1046.1,78.9 M1043.5,86.7
					c-0.9,0.6-2.1,0.9-2.7,1.7h-0.3c0.3-0.8,0.6-1.6,1-2.4c0.6-0.8,1.3-1.1,1.6-2.4c0.3-0.1,0.5-0.1,0.8-0.2
					c0.1,0.8,0.2,1.6,0.3,2.4C1043.9,86.1,1043.8,86.5,1043.5,86.7"/>
				<path class="st2" d="M913.2,92.4c-0.3-0.3-0.7-0.4-1-0.2c-1.3,0.1-1.2,0.6-1.9,1.1c-0.6,0.2-1.2,0.4-1.7,0.6
					c-0.4-1-0.3-2.2-0.6-3.3c-0.2-0.7-0.6-1.6-0.8-2.2c-0.3-0.9,0.2-2.3-0.3-3v-0.8h0.2c0.3,1.1,0.7,1.9,0.6,3.3
					c0.4,0.2,0.8,0.4,1.1,0.6c1-0.1,1.6-0.7,2.4-1.1c0.5-2.1-0.6-6.2-1.7-7.6c-0.3-0.4-1-0.6-1.4-0.8c-0.7,0.6-2,0.4-2.7,1
					c-3,1.9-2.6,8.5-1.6,12.2c0.2,0.9,0,2.2,0.5,2.9c-1.3,0.4-2.5,0.8-3.8,1.3c-0.8,0.5-0.9,1.7-1.4,2.5c-0.3,0.5-1,1.9-0.3,2.9v1.7
					c0.1,0.2,0.4,0.2,0.6,0.3c1.5,1.1,3.9,1.7,5.7,0.5c0.5-0.3,0.7-1.1,1.1-1.4c0.4-0.1,0.7-0.2,1.1-0.3c0.6-0.4,1.2-1.4,1.4-2.1
					c0.4-1-0.1-2.5,0.5-3.3c0.7-1,2.2-1.4,3.2-2.1c0.5-0.4,0.9-1.1,1.4-1.4C913.5,93.3,913.4,92.7,913.2,92.4 M904.3,100.8
					c-1.3,0-2-0.3-2.5-1h-0.2v-0.2c0.7-0.1,2-0.2,2.5-0.6h0.2V100.8z"/>
				<path class="st2" d="M978.7,80.8c-0.6,0.5-1.5,0.7-2.2,1.1c-1.7,1.1-4.1,4.1-5.1,6c-0.1,0.6-0.2,1.3-0.3,1.9
					c-0.2,0.7-0.7,1.7-1,2.4c-0.2,0.5,0,1.2-0.3,1.6v4.5c-0.2,0.3-0.9,0.3-1.3,0.5c-1.8,0.8-3.1,1.1-5.6,1c-0.4-0.3-0.7-0.6-1.1-1
					c0.1-3.4,1.4-6.2,1.6-9.4c-1-0.9-2-2.3-2.4-3.8c-0.5-1.6,0.5-2.5-0.5-3.5c-0.1-0.1-0.5-0.2-0.6-0.3c-1.6,0.1-1.9,1.5-2.9,2.2
					v3.2c-1,3.8-3.2,6.1-5.2,8.9c-0.5,0.7-2.3,3.1-3.2,2.7h-1.3c-0.5-2.3-0.3-3.6,0.3-5.6v-1.1c0.4-1.2,1.5-2.3,1.9-3.5
					c0.2-0.7-0.2-1.3-0.3-1.9c-0.3-0.1-0.7-0.2-1-0.5c-1.8,0.2-2.2,2.2-2.9,3.7c-1.1,2.4-3.8,7.2-2.2,11c0.3,0.9,1.4,1.5,1.9,2.2
					c1.8,0,3.7-0.5,4.8-1.3c0.3-0.2,0.6-0.8,1-1h0.6c0.4-0.2,1.2-0.5,1.6-0.8c1-0.7,2.1-2.9,2.9-4c1-1.4,2.4-2.6,2.9-4.5h0.3
					c0.1,0.2,0,0,0.2,0.2c-0.1,0.7-0.5,0.7-0.6,1.1v1.3c-0.3,1.2-0.8,2.7-1.1,4c-0.2,0.8-0.1,2.6,0.2,3.2c0.7,1.4,2.4,2,3.3,3.2
					c4.1-0.1,7.3-1.6,10-3.2c0.3,0,2.6,1.8,4.6,1.1c1.5-0.5,2.9-1.7,4.6-2.1c0.1-3.6-1.9-2.5-4.9-2.4c-0.2-0.2-0.4-0.3-0.6-0.5
					c0.1-0.6,0.3-0.9,0-1.3c-0.2-0.6-0.2-0.6-1-0.6v-0.2c1.4-0.4,5.1-3.5,5.9-4.6c0.4-0.6,0.2-1.5,0.6-2.2c0.2-0.3,0.8-0.5,1-1
					c0.5-1.3-0.2-5.1-0.6-5.6C980.3,81.3,979.5,81,978.7,80.8 M974.5,90.7h-0.2c0.2-1.9,1.9-3.8,2.9-5.1h0.3
					c0.1,0.5,0.2,1.4,0.5,1.7C977.9,89.3,975.5,89.4,974.5,90.7"/>
				<path class="st2" d="M939.9,85.6v-1.3c-0.3-0.8-1.3-1.7-1.7-2.5h-1c-0.2,0.1-0.3,0.1-0.6,0.2c-0.8,0.8-1.9,1.3-2.4,2.4
					c-0.1,0.6-0.1,1.3-0.2,1.9c-0.2,0.1-0.3,0.2-0.5,0.3c-0.7,1-1.4,1.9-2.1,2.9c-0.3,0.4-0.2,0.8-0.5,1.3c-1,1.8-1.9,4.1-2.7,6
					c-0.5,1.3-0.7,5.1,0.2,5.9c0.3,0.7,0.2,0.1,0.8,0.5c0.3,0.2,0.7,1,1,1.3c2.5-0.1,4.4-0.9,6-1.9c0.9-0.6,1.6-1.7,3-1.7
					c0.6-1.3,1.3-2.7,1.7-4.3c0.4-1.6,0.3-6.9-0.2-8.4C940.6,87.2,940.1,86.3,939.9,85.6 M936,98.8c-0.5,1.2-2.2,1.5-4,1.4
					c0-2.2,0.3-4.3,1-5.9c0.3-0.6,0.9-1.3,1.3-1.9c0.7-1.2,1.1-2.7,2.1-3.7c0.1-0.3,0-0.1,0.2-0.3C937.3,90.6,937.3,97.3,936,98.8"
					/>
				<path class="st2" d="M627.6,92.3c-2.8,0.3-6.9,5.2-7.8,7.5c-0.1,0.7-0.2,1.4-0.3,2.1c-0.2,0.5-0.6,1.2-0.8,1.7
					c-0.2,0.5,0,1-0.3,1.4v3.8c-0.6-0.2-1.3-0.1-2.1-0.3c-3.6-0.9-6.1-0.4-9.1,0.8c-0.5,0.2-1,0.1-1.4,0.5h-0.2
					c0.2-2.3,1.4-4.2,2.2-6c0.3-0.7,0.3-1.3,0.6-2.1c0.1-0.3,0.5-0.8,0.6-1.1c0.4-1.1,0.3-2.1,0.6-3.2c0.3-0.9,0.8-2,1.1-3
					c0.1-1.1,0.2-2.1,0.3-3.2c0.3-0.8,0.7-2.2,1-3.2c0.3-1.1,0.1-2.4,0.6-3.2c-0.1-0.8-0.7-1.1-1.3-1.4c-0.3,0.3-0.7,0.4-1,0.6
					c-1.5,1.9-1.2,6-2.1,8.6c-1.5,4.9-3,9.9-4.9,14.5c-0.4,0.9-0.3,1.8-0.8,2.7c-0.1,0.2-0.5,0.5-0.6,0.8c-0.3,0.8-0.2,1.6-0.6,2.2
					c0.2,1.2,0.9,1.2,1.6,1.9c2.3-0.2,4.5-1.4,6.5-1.9c0.4-0.1,0.8,0.1,1,0.2h2.1c0.9,0.2,1.9,1.3,3,0.5c1.3-0.1,1.9-1.5,2.9-2.1
					c0.1-0.3,0-0.1,0.2-0.3c0.4,1.5,2.9,3.7,5.4,2.9c0.1,0,0.5-0.4,0.6-0.5c1.4-0.6,2.8-1.1,4.1-1.7c0.1-4.8-2.9-1.1-4.9-2.4
					c-1-0.3-1-1.3-1.6-1.9c0.2-1.1,2.2-1.8,3-2.4c0.8-0.6,2.5-2.2,3-3c0.2-0.6,0.3-1.3,0.5-1.9c0.2-0.4,0.8-0.6,1-1.1
					c0.4-1.3-0.2-4.9-0.6-5.4C628.9,92.6,628.3,92.8,627.6,92.3 M626.2,100.1c-0.8,0.8-2.2,1-2.9,1.9H623c0.4-2,1.7-3.6,2.9-4.9h0.3
					c0.2,0.7,0.3,1.5,0.5,2.2C626.5,99.5,626.4,99.9,626.2,100.1"/>
				<path class="st2" d="M778.5,96.6c-2.4,0-2.7,1.3-4.6,1.7c-0.5-1.2-0.4-2.6-0.8-4c-0.1-0.5-0.5-1.2-0.6-1.6
					c-0.3-0.9,0.1-2.2-0.3-2.9v-0.8h0.2c0.2,0.6,0.5,2.8,0.8,3.2c1.1,1.5,2.4,0.1,3.5-0.6c0.2-2.7-0.9-7.8-3.5-8.1
					c-0.7,0.6-2,0.4-2.7,1c-3,2.2-2.3,11.3-1,15.1c-3.1,1.1-3.6,0.4-5.1,3.3c-0.4,0.8-0.7,1-0.6,2.1c-0.8,0.2-1.4,0.7-2.1,1
					c-1.5,0.6-3.2,0.6-4.9,0.5c-0.4-0.3-0.7-0.6-1.1-1c0-2.3,0.6-4.4,1.1-6.4c0.2-0.9,0-1.9,0.5-2.5c-0.2-1.2-1.9-2.6-2.4-4.1
					c-0.3-1.1,0.3-2.6-0.3-3.3c-0.2-0.6-0.5-0.3-1-0.6c-1.1,0.1-2.4,1.6-2.7,2.5c-0.3,0.5,0.2,1.6,0,2.5c-0.2,0.8-0.3,1.9-0.6,2.5
					c-1,2-2.5,3.5-3.7,5.2c-0.4,0.6-0.5,1.2-1,1.7c-0.6,0.5-1.2,1.1-1.7,1.6c-0.2,0.4-0.1,1.3-0.2,1.6c-0.4,0-0.5-0.1-0.8-0.2
					c-0.1-0.3-0.3-0.5-0.3-0.6c0.1-0.8,0.1-1.6,0.2-2.4c0-1.3,1-5.5,1.6-6.2c0-0.5,0.1-1.2-0.2-1.4c-0.3-0.3-0.9-0.4-1.4-0.5
					c-0.8,0.6-1.6,1.3-2.4,1.9c-0.5,0.7-0.6,1.5-1,2.4c-0.1,0.2-0.4,0.5-0.5,0.6c-0.1,0.3-0.1,0.6-0.2,1c-0.5,0.8-1.5,1.5-2.1,2.2
					v0.3c-0.8,0.8-2.7,1.4-3.5,2.2H733c0-3.1,1.1-4.4,1.7-6.7v-1.1c0.1-0.4,0.6-0.9,0.8-1.3c0.3-0.6,0.2-1.4,0.6-1.9
					c-0.1-0.9-0.4-0.9-0.8-1.4c-3.7,0.1-4.6,6.6-5.7,9.5c-0.1,0.5-0.2,1.1-0.3,1.6c-0.2,0.4-2.1,1.4-2.5,1.6
					c0.2,0.7,0.6,1.8,1.1,2.2c0.5,0.3,0.7-0.2,1.3,0c0.3,0.1,0.7,0.8,1.3,1c0.8,0.2,1.8-0.2,2.2-0.3c2.1-0.8,3.8-1.8,5.1-3.3
					c0.5,0.7,0.2,2.1,0.6,2.9c0.6,0.9,1.6,1.1,2.4,1.7c2.6,0,5.1-2.2,6.5-3.5h0.3c0.2-0.2,0.1-1.1,0.3-1.4c0.2-0.1,0.3-0.2,0.5-0.3
					c0.5-0.7,0.8-1.4,1.3-2.1c1-1.3,2.4-2.6,2.9-4.5h0.3v0.2h0.2c-0.1,0.3-0.1,0.6-0.3,0.8h-0.3c-0.1,0.7-0.1,1.5-0.2,2.2
					c-0.5,1.7-1.8,5-0.6,6.8c0.8,1.2,2.3,1.7,3.2,2.9c3.1,0,5.2-1,7.3-1.9c0.8-0.3,1.7-0.3,2.2-1c1.9,0.6,3.4,1.9,5.7,0.5
					c0.6-0.4,1-1.4,1.3-1.6l1-0.2c0.6-0.3,1.2-1.1,1.4-1.7c0.4-0.9,0-2.7,0.5-3.5c0.6-1,2.2-1.5,3.2-2.2c0.6-0.4,1-1,1.6-1.4
					c-0.1-0.5-0.2-1-0.3-1.4C778.5,96.6,778.6,96.7,778.5,96.6 M769.6,105.1c-0.6,0.1-1.1,0.2-1.6-0.2c-0.1-0.2-0.1,0-0.2-0.3
					c0.3-0.2,0.4-0.6,0.6-0.8c0.3-0.2,0.6-0.3,1.1-0.3V105.1z"/>
				<path class="st2" d="M825.1,86.2c-0.6-0.1-0.8-0.3-1.6-0.3c-0.6,0.6-1.5,0.8-2.2,1.3c-1.6,1.1-4.2,4.4-4.9,6.2
					c-0.1,0.7-0.2,1.4-0.3,2.1c-1.3,3.5-2.5,9,1,11.3c0.7,0.5,2,1.2,3.5,0.8c1.6-0.7,3.3-1.5,4.9-2.2c0-0.8,0.1-1.5-0.3-1.9
					c-0.9-1.7-3.4,0.6-4.9-0.6c-0.7-0.4-0.7-1.2-1.3-1.7c0.2-1.1,2.9-2.4,3.8-3c0.8-0.6,2-1.9,2.4-2.9c0.1-0.4,0.1-0.7,0.2-1.1
					c0.2-0.5,0.9-0.9,1.1-1.4c0.4-1.2-0.2-4.7-0.5-5.4C825.6,86.9,825.4,86.5,825.1,86.2 M822.7,93.7c-0.8,0.8-2.2,1.1-3,1.9h-0.2
					c0.3-2.1,1.9-3.8,3-5.1c0.4,0.5,0.5,1.7,0.6,2.4C823,93.1,822.9,93.5,822.7,93.7"/>
				<path class="st2" d="M1178.8,86.7c-0.4-0.1-0.7-0.2-1.3-0.2c-0.6,0.6-1.7,1-2.2,1.7c-0.3,0.5-0.3,1-0.6,1.4
					c-0.3,0.2-0.5,0.4-0.8,0.6c-0.4,0.8-0.2,1.8-0.2,2.7c0.3,0.3,0.5,0.6,0.8,1c2.2-0.5,3-2.2,4.6-3.2c0.2-0.9,0.9-2.5,0.2-3.3
					C1179.1,87.1,1179,87,1178.8,86.7"/>
				<path class="st2" d="M645.9,100.8c-2.5,0-2.5,1.3-4.6,1.7c-0.5-1.2-0.4-2.6-0.8-4c-0.1-0.5-0.5-1.2-0.6-1.6
					c-0.3-0.9,0.2-2.3-0.3-3v-0.6h0.2c0.1,0.3,0.7,3,0.8,3.2c0.3,0.4,0.6,0.5,1.1,0.6c0.2,0.2,1.8-0.7,2.2-1
					c0.5-2.6-0.8-8.1-3.3-8.4c-0.7,0.6-2,0.4-2.7,1c-3,2.2-2.3,11.3-1,15.1c-3.1,1.1-3.6,0.4-5.1,3.3c-0.1,0.3-0.8,1-0.8,1.3
					c0,1.1,0.3,2.5,0.3,3.8c1.9,1,4.1,2.3,6.5,0.6c0.4-0.3,0.4-0.9,0.8-1.3c0.6-0.5,1.7-0.4,2.2-1.3c0.2-0.6,0.4-1.3,0.6-1.9
					c0.2-0.8-0.2-1.8,0.2-2.4c0.6-1,2-1.4,3-2.1c0.6-0.4,1.1-1.2,1.7-1.6c-0.1-0.5-0.2-1-0.3-1.4C645.9,100.9,646.1,101,645.9,100.8
					 M637,109.4c-0.2,0.1,0,0-0.2,0.2c-1.1,0-1.8-0.3-2.2-1c-0.3-0.1-0.1,0-0.3-0.2c0.8-0.3,1.8-0.6,2.7-0.6V109.4z"/>
				<path class="st2" d="M725.2,89.6c-0.5-0.2-1.1-0.3-1.6-0.5c-0.7,0.7-1.8,0.9-2.5,1.4c-1.7,1.2-2.8,3.1-4,4.9
					c-0.2,0.3-0.7,0.7-0.8,1c-0.1,0.7-0.2,1.5-0.3,2.2c-0.2,0.4-0.6,1.1-0.8,1.6c-0.6,1.7-0.8,6.5,0,8.1c0.3,0.7,1,1.2,1.6,1.6
					c0.7,0.5,2.2,1.3,3.8,0.8c1.6-0.7,3.2-1.5,4.8-2.2c0-0.8,0-1.4-0.3-1.7c-0.2-0.4-0.5-0.4-0.8-0.8c-1.2,0.1-3,0.9-4,0.2
					c-0.8-0.3-1.3-1.5-1.6-2.2c1.6-0.9,5.4-3.5,6.2-5.1c0.1-0.5,0.2-1.1,0.3-1.6c0.2-0.5,0.9-0.9,1.1-1.4c0.3-0.7,0-3.7-0.2-4.3
					C726,90.8,725.5,90.2,725.2,89.6 M723,96.1c-0.4,1.5-2.5,1.8-3.5,2.9h-0.2c0.8-2,1.8-3.5,3-5.1h0.3
					C722.8,94.6,723.2,95.8,723,96.1"/>
				<path class="st2" d="M986.9,92.1c-0.2-0.2-0.4-0.2-0.8-0.2c-0.4,0.3-1.1,0.3-1.6,0.6c-0.6,0.4-0.9,1.2-1.6,1.6
					c0.8,1.8,2.8,7,1.4,9.9c-0.1,0.2-1.6,1.7-1.9,1.9c0,1,0.4,1,0.8,1.6c0.9-0.1,1.4-0.7,2.1-1.1c2.8-1.7,3.5-2.6,4.5-6.2
					C990.6,97.2,988.6,92.6,986.9,92.1"/>
				<path class="st3" d="M1186.8,126.4h-0.8C1186.2,126.6,1186.5,126.6,1186.8,126.4"/>
			</g>
			<g class="st0">
				<defs>
					<rect id="SVGID_17_" x="590.9" y="39.6" width="619.6" height="103.3"/>
				</defs>
				<clipPath id="SVGID_6_">
					<use xlink:href="#SVGID_17_"  style="overflow:visible;"/>
				</clipPath>
			</g>
		</g>
	</g>
	<g>
		<g>
			<g>
				<rect y="26.6" class="st4" width="22.1" height="110.6"/>
				<polygon class="st4" points="57,26.6 44.2,26.6 44.2,137.3 66.4,137.3 66.4,42.8 				"/>
				<rect x="22.1" y="26.6" class="st5" width="22.1" height="110.6"/>
				<polygon class="st5" points="66.4,42.8 66.4,137.3 88.5,137.3 88.5,81.2 				"/>
				<polygon class="st4" points="88.5,81.2 88.5,137.3 110.6,137.3 110.6,119.5 				"/>
			</g>
			<g>
				<polygon class="st4" points="60.4,0 51,0 60.4,16.2 				"/>
				<polygon class="st5" points="82.5,54.5 82.5,0 60.4,0 60.4,16.2 				"/>
				<polygon class="st4" points="104.6,92.8 104.6,0 82.5,0 82.5,54.5 				"/>
			</g>
		</g>
		<g id="dessous_2_">
			<g>
				<path class="st4" d="M153,32.7h-9v31.6h-6.2V32.7h-9V27H153V32.7z"/>
				<path class="st4" d="M166.7,32.7v10h12.7v5.8h-12.7v10h15.6v5.7h-21.9V27h21.9v5.7H166.7z"/>
				<path class="st4" d="M211,50.9c2.5,2.1,3.9,5.1,3.9,8.5v4.8h-6.2v-4.5c0-3.2-1.6-6-6.4-6h-5.9v10.5H190V27h12.2
					c7.7,0,12.6,5,12.6,11.4v4C214.8,45.8,213.5,48.8,211,50.9z M202.2,48c4.8,0,6.4-2.8,6.4-6v-3.4c0-3.2-1.6-6-6.4-6h-5.9V48
					H202.2z"/>
				<path class="st4" d="M243.5,50.9c2.5,2.1,3.9,5.1,3.9,8.5v4.8h-6.2v-4.5c0-3.2-1.6-6-6.4-6h-5.9v10.5h-6.3V27h12.2
					c7.7,0,12.6,5,12.6,11.4v4C247.4,45.8,246,48.8,243.5,50.9z M234.8,48c4.8,0,6.4-2.8,6.4-6v-3.4c0-3.2-1.6-6-6.4-6h-5.9V48
					H234.8z"/>
				<path class="st4" d="M261.4,64.2h-6.3V27h6.3V64.2z"/>
				<path class="st4" d="M293.1,32.7h-9v31.6h-6.2V32.7h-9V27h24.2V32.7z"/>
				<path class="st4" d="M323.8,37.5v16.2c0,6.4-4.7,11.2-12.4,11.2c-7.8,0-12.4-4.8-12.4-11.2V37.5c0-6.4,4.6-11.2,12.4-11.2
					C319.2,26.3,323.8,31.1,323.8,37.5z M305.3,38v15.2c0,3.2,1.4,6,6.2,6c4.8,0,6.2-2.8,6.2-6V38c0-3.2-1.4-6-6.2-6
					C306.8,32,305.3,34.8,305.3,38z"/>
				<path class="st4" d="M337.9,64.2h-6.3V27h6.3V64.2z"/>
				<path class="st4" d="M366.5,50.9c2.5,2.1,3.9,5.1,3.9,8.5v4.8h-6.2v-4.5c0-3.2-1.6-6-6.4-6h-5.9v10.5h-6.3V27h12.2
					c7.7,0,12.6,5,12.6,11.4v4C370.4,45.8,369,48.8,366.5,50.9z M357.8,48c4.8,0,6.4-2.8,6.4-6v-3.4c0-3.2-1.6-6-6.4-6h-5.9V48
					H357.8z"/>
				<path class="st4" d="M384.4,32.7v10h12.7v5.8h-12.7v10H400v5.7h-21.9V27H400v5.7H384.4z"/>
				<path class="st4" d="M425.1,40.3v-2.2c0-3.2-1.4-6-6.2-6c-4.6,0-6.1,2.5-6.1,5.7c0,4.1,5.9,4.4,11,6.4c4.5,1.5,7.5,4.8,7.5,9.3
					c0,6.4-4.6,11.4-12.4,11.4s-12.4-5-12.4-11.4v-1.9l6.3-0.5v1.9c0,3.2,1.4,6,6.2,6c4.6,0,6.1-2.5,6.1-5.7c0-4.1-6.6-4.7-11-6.4
					c-5.4-2-7.4-4.8-7.5-9.3c0-6.4,4.6-11.4,12.4-11.4s12.4,5,12.4,11.4v1.9L425.1,40.3z"/>
			</g>
			<g>
				<path class="st4" d="M180.7,137.3h-13.2v-26l-6.9,26h-11.8l-6.9-26v26h-13.2V88.8h15.9l9.8,31.4h0.4l9.8-31.4h15.9V137.3z"/>
				<path class="st4" d="M202.5,100.9v6.1h14.1v12.1h-14.1v6.1H220v12.1h-30.7V88.8H220v12.1H202.5z"/>
				<path class="st4" d="M280.5,137.3h-13.2v-26l-6.9,26h-11.8l-6.9-26v26h-13.2V88.8h15.9l9.8,31.4h0.4l9.8-31.4h15.9V137.3z"/>
				<path class="st4" d="M325.4,103.4v19.3c0,8.8-8.1,15.6-18.1,15.6c-10.1,0-18.1-6.8-18.1-15.6v-19.3c0-8.8,8-15.6,18.1-15.6
					C317.2,87.8,325.4,94.6,325.4,103.4z M302.2,104.4v17.2c0,2.1,1.3,4.6,5,4.6c3.8,0,5-2.4,5-4.6v-17.2c0-2.1-1.2-4.6-5-4.6
					C303.5,99.9,302.2,102.3,302.2,104.4z"/>
				<path class="st4" d="M347.1,137.3h-13.2V88.8h13.2V137.3z"/>
				<path class="st4" d="M392,110.6c0,3.7-1.5,7.2-3.9,9.9c2.5,2.7,3.9,6.2,3.9,9.9v6.9h-13.2v-6.2c0-2.1-1.2-4.6-5-4.6h-5v10.7
					h-13.2V88.8h18.1c10,0,18.2,7.2,18.2,16V110.6z M373.8,114.4c3.8,0,5-2.4,5-4.6v-4.4c0-2.1-1.2-4.6-5-4.6h-5v13.5H373.8z"/>
				<path class="st4" d="M413.7,100.9v6.1h14.1v12.1h-14.1v6.1h17.5v12.1h-30.7V88.8h30.7v12.1H413.7z"/>
			</g>
			<polygon class="st6" points="172.6,148.9 154.8,179.8 137,148.9 			"/>
			<polygon class="st4" points="154.8,200.7 134.7,165.9 0,165.9 0,162.8 136.5,162.8 154.8,194.5 173.1,162.8 392,162.8 392,165.9 
				174.9,165.9 			"/>
			<g>
				<path class="st5" d="M406.2,75.6V79c0,1.5-1.1,2.6-2.9,2.6h-2.8V73h2.8C405.1,73,406.2,74.2,406.2,75.6z M404.8,75.7
					c0-0.7-0.4-1.4-1.5-1.4H402v5.9h1.4c1.1,0,1.5-0.6,1.5-1.4V75.7z"/>
				<path class="st5" d="M409.4,74.3v2.3h2.9V78h-2.9v2.3h3.6v1.3h-5V73h5v1.3H409.4z"/>
				<path class="st5" d="M423.1,80.3v1.3h-4.9V73h1.4v7.2H423.1z"/>
				<path class="st5" d="M429.1,79.8h-2.6l-0.5,1.8h-1.4l2.4-8.5h1.7l2.4,8.5h-1.4L429.1,79.8z M428.7,78.5l-0.9-3.8h-0.1l-0.9,3.8
					H428.7z"/>
			</g>
			<g>
				<path class="st5" d="M405.2,166.8h-2.6l-0.5,1.8h-1.4l2.4-8.5h1.7l2.4,8.5h-1.4L405.2,166.8z M404.9,165.5l-0.9-3.8h-0.1
					l-0.9,3.8H404.9z"/>
				<path class="st5" d="M412.7,163.2v-0.5c0-0.7-0.3-1.4-1.4-1.4c-1,0-1.4,0.6-1.4,1.3c0,0.9,1.3,1,2.5,1.5c1,0.3,1.7,1.1,1.7,2.1
					c0,1.5-1.1,2.6-2.8,2.6s-2.9-1.1-2.9-2.6v-0.4l1.4-0.1v0.4c0,0.7,0.3,1.4,1.4,1.4c1,0,1.4-0.6,1.4-1.3c0-0.9-1.5-1.1-2.5-1.5
					c-1.2-0.5-1.7-1.1-1.7-2.1c0-1.5,1.1-2.6,2.8-2.6s2.8,1.1,2.8,2.6v0.4L412.7,163.2z"/>
				<path class="st5" d="M419,160.1c1.6,0,2.6,1.1,2.6,2.5c0,0.7-0.3,1.4-0.9,1.7c0.7,0.4,1.1,1.1,1.1,1.9c0,1.4-1,2.5-2.6,2.5H416
					v-8.5H419z M417.4,163.7h1.6c0.9,0,1.3-0.5,1.3-1.2c0-0.6-0.4-1.1-1.3-1.1h-1.6V163.7z M419.2,167.3c0.9,0,1.3-0.5,1.3-1.2
					c0-0.6-0.4-1.1-1.3-1.1h-1.8v2.3H419.2z"/>
				<path class="st5" d="M428.4,167.3v1.3h-4.9v-8.5h1.4v7.2H428.4z"/>
			</g>
			<path class="st5" d="M210.3,83.6h-10.4l6.3-10.7h10.3L210.3,83.6z"/>
		</g>
	</g>
	<rect x="437" y="162.9" class="st4" width="763" height="2.9"/>
</g>
</svg>
