<svg xmlns="http://www.w3.org/2000/svg" xmlns:xlink="http://www.w3.org/1999/xlink" viewBox="0 0 1200 158"><style>.st0{clip-path:url(#SVGID_2_)}.st2{clip-path:url(#SVGID_4_);fill-rule:evenodd;clip-rule:evenodd}.st4{fill:#003a60}.st5{fill:#bfced5}</style><defs><path id="SVGID_7_" d="M588.7 31.3h489.1v81.5H588.7z"/></defs><clipPath id="SVGID_2_"><use xlink:href="#SVGID_7_" overflow="visible"/></clipPath><g class="st0"><defs><path id="SVGID_9_" d="M588.7 31.3h489.1v81.5H588.7z"/></defs><clipPath id="SVGID_4_"><use xlink:href="#SVGID_9_" overflow="visible"/></clipPath><path d="M1057.3 101.7c.9 0 3.8.1 4.3.5h-.9c0 .3-.1.5-.1.8-4 0-7.5-1-11.7-1 0 .2-.1.3-.1.5h.9c.6.4 1.7.1 2.5.3 1 .2 2.2 0 3.3.3 1.4.3 3.1.4 4.6.4v.1h-.3c-.2.1-.7.2-1 .3v.4c-1.5 0-3.4-.2-4.8-.5h-1.3c-1.1-.3-2.7-.3-3.9-.5-.7-.1-3.5-.3-3.9 0 .9 0 3.2 0 3.6.4-3.4 0-7.3.2-10.4-.5h-1.5c-1-.2-2.5-.1-3.5-.4h-3.6c-1.5 0-3.9.1-5.4-.3-1.2-.3-2.9.1-4-.1-5.9-.1-11.7-.3-17.6-.4-1.1-.3-2.9-.1-4.3-.1h-13.9c-1.2.3-3.2.2-4.4.3h-1.8c-1.2.3-2.9 0-4.1.3-.5.1-1.4 0-2 .1-3 .7-6.9 0-9.9.8-1.3 0-2.5.1-3.8.1-1.1.3-2.5 0-3.6.3-3 .7-6.9.2-9.9.9-1 0-2.1.1-3.1.1-2.6.6-5.8.3-8.4.9h-1.4c-1.9.5-4.3.3-6.1.8h-1.3c-1 .2-2.3.1-3.4.4-1.4.3-3.2.5-4.8.6v-.3c.3-.2.5-.4.6-.8-1.3-.1-3.5.4-5 0-.8-.2-1.7-.3-2.4-.5-.1-.3-.2-.4-.3-.9h.3c.6-.5 2.3-.5 3.3-.5l-.1-.3h.6c.7-.5 2-.1 2.9-.4 2-.3 4.1-.7 6.1-1v-.1c-1.9 0-3.8 0-5.4.4h-1.1c-1.5.4-3.7.6-5.4.3-.1-.2-.1-.2-.1-.5.3-.2.6-.3.8-.8h.1v-.1h-.3c-.5-.4-1.7 0-2.1.1h-1c-1.3.3-3.1.7-4.4.5v-.4c.4-.1.4-.4.9-.5v-.1c-1.6 0-3.4.2-4.8.5h-1c-1 .3-2.4.4-3.4.6-1.8.3-3.6.5-5.4.8-1.4.4-3 .7-4.5.8-.2-.3-.3-.2-.4-.6h.3c.7-.5 1.6-.4 2.6-.6 1.8-.5 4.1-.6 5.9-1.1.5 0 1-.1 1.5-.1 4.2-1.1 9-1.1 13.3-2.1 1.2-.3 2.5-.2 3.6-.5h1c1.2-.3 2.7-.3 3.9-.6h1c1.6-.4 3.6-.4 5.3-.8h1.1c3.4-.8 7.4-.4 10.8-1.3.9-.2 2-.1 2.8-.3h1.4c.8-.2 2.1-.2 2.9-.4l4.8-.3c2.8-.7 6.2-.1 9-.8.6-.1 1.5 0 2-.1 1.5 0 3.1-.1 4.6-.1 2.5-.6 5.9.1 8.4-.5h3.5c1.2-.3 2.9.2 4.3-.1 1.6-.4 4 .3 5.8-.1.9-.2 2.4-.1 3.5-.1h14.3c1.2 0 2.8-.1 3.8.1 1.8.4 4.2-.3 5.9.1h2c1.7 0 4.3-.1 5.8.3h3c.7.2 1.9-.1 2.8.1 2.2.5 4.9 0 7 .5 2.6.1 5.2.3 7.8.4 1 .2 2.4.1 3.4.4h1.5c.9.2 2.1 0 3.1.3 3.7.9 8.3.4 11.9 1.3h1.3c2.5.6 5.7.3 7.8 1.3v.1c-1 .1-2.8.1-3.8.4-.6.1-1.4-.2-1.8.1.5 0 1.8.2 2.1.5h-.1c-1 .8-3.1.4-4.5.8-.7.2-1.7-.2-2.1.1.8 0 2 0 2.3.5h-.1c-.8.8-2.5.4-4 .4v.3c-.2-.5-.2-.4-.2-.1" clip-path="url(#SVGID_4_)" fill-rule="evenodd" clip-rule="evenodd" fill="#e2001a"/><path class="st2" d="M1059 36.9h-.5c-.5.4-1.2.5-1.6.9-.6.7-.9 4.4-1.3 5.6-1.1 3.8-1.5 8-2.6 11.8-.5 1.7-.4 4.2-1.4 5.4-.1 1.2.2 1.4 1 1.8.2-.3.6-.3.9-.5.7-.5 1.1-1.3 1.9-1.6 1.4-7.5 2.8-15 4.3-22.5-.3-.3-.5-.6-.7-.9M829.1 78.9c-.7.1-1.7 1-2.4.5-.3 0-.4 0-.5-.1-.3-.4-.4-2.1-.3-2.9.1-.4.4-1 .5-1.3 0-.4.1-.8.1-1.3.3-.8 1.1-1.7 1.4-2.5l-.3-1.5c-.4-.1-.7-.2-.9-.4-1.6.5-3.2 4.9-3.8 6.7-.2.6-.1 1.3-.4 1.8 0 1.8-1.3 1.5-2.1 2.4-.3 0-.6 0-.8-.1-.3-.1-.4-.2-.6-.4v-6.4c-.3-.2-.4-.5-.8-.8-.1-.1 0 0-.3-.1-.6.6-1.3 1.2-1.9 1.8-.3.6-.3 1.2-.6 1.8-.5.7-1.4 1.2-1.9 2h-.1c.8-3.2 2.4-6.4 3.8-9 .5-.9.7-1.9 1.3-2.8.8-1.4 1.8-2.9 2.5-4.4.7-1.6 1-3.2 1.6-4.8.6-1.5 1.3-3.2 1.8-4.8.3-1 .1-2.1.4-3.1.2-.8.4-1.6.4-2.6-.2-.2-.4-.4-.5-.6-2.6 0-3 4-3.8 6-1.3 3.3-2.5 6.9-3.9 10l-.6 2.4c-.7 1.8-1.7 3.6-2.6 5.1-.2.3-.2.7-.4 1-.4.6-.9 1.3-1.4 1.9-.3.2-.5.4-.8.6-.2.3-.4.7-.6 1-.3.2-.5.4-.8.6-.3.4 0 .9.3 1.1.1.1.5 0 .8.3h.3c-.8 1.6-1.9 4.7-1.9 6.9.5 0 .9.1 1.4.1 1.3-.4 4.1-2.8 4.8-3.9.5.3.2 1 .4 1.5.2.8.7 1.5 1 2.3.9.2 2.4.7 3.5.3.5-.2.7-.7 1.1-1 .4-.3 1-.5 1.3-1 .7.2.8 1.1 1.4 1.5.2.1.3.1.5.3 2.1 0 4.6-1.3 5-3 .1-.1 0 0 .1-.3-.2-.3-.5-.5-.7-.8M802.6 48.1c-.5.5-1.3.6-1.9 1-.4.3-.6.7-.9 1.1-.5.7-1.5 1.3-2 2-.7 1-1.2 2-1.9 3-.2.3-.6.7-.9 1-.6.8-.9 1.7-1.5 2.5-.4.6-1.1 1.1-1.4 1.8-.6 1.2-.7 2.6-1.3 3.9-1.1 2.6-2.2 5.3-3.1 8.2-.4 1.3-.9 5-.4 6.7.2.5.6 1.2.8 1.6.2.5 0 1 .3 1.4.4.7 2.5 2.1 3.4 2.4 1-.1 1.9-.2 2.9-.3 1-.3 1.5-.9 2.3-1.4-.1-.5-.3-.8-.5-1.3-1 0-3 .3-3.6-.3-1.3-.4-1.9-2.5-2.3-3.9v-.9c-.1-.4-.4-1.9-.1-2.5.1-.2.4-.5.5-.8v-1c.3-.9 1.9-2.3 2.5-3.1 1.6-2.2 3.2-4.5 4.6-6.8.6-.9.8-2 1.4-2.9.9-1.4 2-2.7 2.6-4.3.1-.4.2-.8.3-1.3.3-.9.8-2.1 1.1-3 .2-.4 0-1 .3-1.4 0-.5 0-1-.1-1.4-.5.2-.6.1-1.1 0M797 59.9c-1.1 2-2.6 3.8-3.8 5.6h-.1c.1-.4.3-.8.4-1.1.5-.8 1.4-1.7 1.9-2.5.4-.6.4-1.3.8-1.9.5-.8 1.2-1.4 1.6-2.3.1.3-.6 1.8-.8 2.2M940.8 57.4c.6-.8 2.4-4.3 2-5.8-.2-.7-.6-1.3-1-1.9h-1.1l-1.8.9c-.1.5-.4 1.1-.3 1.9.1.4.4 1.1.3 1.8-.2.7-.8 1.3-1.1 2-.2.4-.4 1.3-.1 1.8.4 1.3 2.6-.1 3.1-.7M973.9 60.3c-.7.2-1.4 0-1.9.4h-.6c.4-2 1.6-4.6 1-7-.4-1.7.1-2.9-1.6-3.3-.9.5-1.8 1.1-2.6 1.6-.3.8-.5 1.5-.8 2.3-.6 1.5-1.3 3.3-1.9 4.8-.4.9-.4 2-1 2.8-.2.6-.8.4-1.3.8-.6.4-.9 1.3-1.3 2 .2.2.4.5.5.9h1.1c-.1.3-.4.6-.5.8-.1 1.7-.3 3.4-.4 5.1-.1.4-.5.9-.6 1.3-.2.6.6 2 .8 2.5.1.5.2.9.3 1.4.6 1.2 2.7 2.2 4.5 1.5.8-.5 1.5-1 2.3-1.5-.1-.3-.2-.8-.4-1v-.3c-.8 0-2.1.3-2.5 0-1.2-.4-.8-2-1.5-3 .1-1.1.9-1.4 1.4-2.1.7-1.1 2.8-4.7 2.9-6.1 1.9-.4 4-1.2 5.8-1.8h.8c.7-.2 1.5-.4 2-.8.3-.3.5-.6.8-.9-.1-.6-.4-.7-.6-1.1-1.7-.1-3.3.3-4.7.7m-7 5.3v.3h-.1l.3-.9c0 .1 0 .3-.2.6m1.9-4.9c-.1.2-.2.2-.4.4h-.3c.1-1.6 1-2.8 1.3-4.3.5.7-.3 3.5-.6 3.9M766.1 70.3c.1-1.6 1-2.7 1.5-4 .8-2.1 1.1-4.6 1.8-6.8.3-1.1.6-3.8-.1-4.5 0-1.5 0-1.3-.8-2-2 .1-2.6 2.1-3.4 3.5-1.5 2.8-2.3 6.5-3.5 9.5-.4 1.1-.5 2.8-1.1 3.6v.3c-2.5-1.4-4.6.7-5.8 2.3-.3.3-.7.6-1 .9-.3.4-.5.8-.8 1.3-.1.1-.3.2-.4.3-.8 1.2-1.5 2.7-2.1 4.1 0 .3-.1.5-.1.8-.3.6-1.1 2.4-.9 3.4.1.4.2 1.1.4 1.5.1.3.4.2.5.6.4.1.8.3 1.1.4.4-.4 1.1-.4 1.6-.8.3-.4.7-.8 1-1.1 1.1-.8 2.4-1.8 3.1-2.9.3.4.1 1 .3 1.6.3 1.1.8 2.4 1.9 2.8v.1c1.1 0 1.8-.6 2.3-1.3.5-.7-.8-1.8-1-2.4-.1-.3 0-.5-.1-.6v-3.1c.3-.7 1.3-1.3 1.8-1.9.9-1.2 1.6-2.4 2.4-3.8.3-.5.8-1 1-1.8h.4zm-11.9 9.6c-.5.4-1.1.6-1.5 1h-.1c0-2.1.9-3.3 1.8-4.5.3-.2.5-.4.8-.6.2-.4.3-.8.5-1.1.5-.4 1-.8 1.5-1.3.3 0 .7.1.9.3h.3c-.5 2.5-2.5 4.9-4.2 6.2m9.3-9.8c-.3.5-.4 1.1-.9 1.5v.1h-.1c.4-1.7 1.1-3.4 1.8-4.9.9-2.1 1.2-4.4 2-6.7.2-.6.6-1.2.8-1.9.3.4-.1 3.1-.3 3.6-.9 3.1-1.9 5.9-3.3 8.3M810 55.9c-.2-.8-.7-1.3-1-1.9h-.9c-.7.3-1.3.6-2 .9-.1.5-.4 1.2-.3 1.9.1.4.5 1.2.3 1.9s-1.9 2.7-1.3 3.6c.2.6 1.1.9 1.6.4 1.7-.1 2.8-3.5 3.4-5 .2-.4.4-1.3.2-1.8M850.1 70.3c.4-.7 1-1.7 1.1-2.6 1.9-.2 3.9-1.1 5.5-1.6h.8c1.3-.3 2.3-.7 2.9-1.8.1-.2-.3-.8-.6-1-.1-.1-1.1 0-1.5.1-1.5.5-3.7 1-5.4 1.1.1-1.6.6-3.1 1-4.6.5-2.1-.4-3.9-.6-5.4-.4 0-.6-.1-.8-.3-.6 0-2.8 1.3-3 1.6-.2.7-.4 1.3-.6 2-.8 2-1.6 4.2-2.4 6.1-.3.6-.2 1.3-.6 1.8-.3.4-.9.4-1.3.6-.6.4-.7 1.1-1.1 1.6 0 .6.2.8.5 1.1.1.1.6 0 1 0-.1.6-.4.9-.5 1.4-.1 1.6-.3 3.2-.4 4.8-.1.5-.8 1-.6 1.6.1.6.7 1.6.9 2.3.1.4.2.8.3 1.3.6 1 2.9 2.1 4.6 1.3.7-.3 1.3-1 2-1.4-.1-.4-.2-.8-.3-1.3-.9 0-1.9 0-2.6.1-.7-1.1-1.2-2.1-1.5-3.6 1.4-1.3 2.1-3.3 3.2-5.2m.6-9.6c.5.7-.2 3.3-.5 3.6-.1.4-.3.4-.5.6h-.3c.5-1.4.9-2.8 1.3-4.2m-2.4 8.1h.3c-.2.3-.3.5-.4 1h-.1c0-.4.1-.6.2-1M1036.2 66.6c-1.8-.1-1.4.3-2.5 1-.4.2-.8.1-1.1.4-.3-.4-.2-1.1-.4-1.8-.3-1-.6-2.1-.9-3-.1-.4.1-1-.1-1.3v-1.3h.1c.1.4.3.7.4 1l.1 1.6c0 .1.6.2.8.4.8-.1 1.1-.6 1.9-.8.6-2.5-.5-5.9-2.4-6.8-.5.4-1.6.3-2.1.8-2.2.8-2 6.8-1.4 9.3.2.7 0 1.6.4 2.1v.6c-2.3.4-2.9.6-3.9 2.5-.2.4-.5.7-.6 1.4-.3-.2-.5-.5-.8-.5-1 .1-1.1.6-1.6 1-.3.2-.7.3-1.1.5-.8-1.7-.1-4.1.4-5.6.2-.7.2-1.6.6-2.1 0-.5 0-.7-.3-.9-.2-.2-.7-.3-1-.4-.5.5-1.1 1-1.6 1.4h-.3c-.1.4-.3.8-.4 1.1-.5 1.1-1.2 2.4-1.9 3.4-.9 1.2-2.5 1.6-3.4 2.5h-.3c.1-2.1.9-3.4 1.4-5v-.8c.1-.5.9-2.2 1.1-2.5 0-1-.3-1-.6-1.5-2.8.2-3.4 4.7-4.3 7-.2.6-.1 1.4-.5 1.9-.6.4-1.3.8-1.9 1.1.1.8.6 1.1.8 1.9.3 0 .7-.1 1-.1.2.1.6.6 1 .8 2 .6 5.1-1.8 5.6-2.8h.3c.2.6.1 1.4.4 2 .4.8 1.3 1 1.9 1.5 1.8 0 4.6-1.7 5.3-2.8.5.3.1.3.4.8 0 1.6 2.8 2.4 4.3 1.8.3-.1 1-.6 1.3-.9.1-.2.1-.5.3-.6.5-.4 1.2-.3 1.6-.9.4-.6.3-1.7.6-2.3v-1.1c.1-.3.7-.5 1-.8.6-.5 1.4-.9 2-1.4.3-.2.4-.6.8-.8 0-.5 0-.8-.3-1zm-7.1 6.7c-1.1 0-1.6-.2-2.1-.8h-.1c.5-.4 1.5-.3 2-.6h.3v1.4zM874.4 62.9c1.6 0 1.6-.6 2.4-1.4 0-3.1-1.2-2.2-2-4.1h-1.5c-.3.6-.7 1.4-1.1 1.9 0 1.9 1.7 2.2 2.2 3.6"/><path class="st2" d="M961.8 68.9c-2.1 0-1.5.6-2.6 1.1-.4.2-.6 0-.9.3-.5-.3-.3-1.1-.5-1.8-.3-1-.6-2.1-.9-3-.1-.5.1-1.1-.1-1.4V63h.1c.1.4.3.7.4 1 0 .5.1 1 .1 1.5v.1c.7.9 2.2-.2 2.8-.5.3-1.5-.4-4.4-1-5.4-.3-.5-.8-.7-1.1-1.1h-.6c-.4.4-1.3.3-1.8.6-2.3.7-2.2 6.7-1.5 9.3.2.7 0 1.6.4 2.1 0 .3 0 .5-.1.6-.7.5-2 .4-2.8.9-.5.3-1.4 2.1-1.6 2.6.1 1 .2 2.1.3 3.1 1.5.7 3.1 1.8 5 .5.3-.4.6-.8.9-1.1.6-.4 1.3-.4 1.6-1 .5-.8.2-2.8.6-3.4.5-.8 1.8-1.2 2.6-1.8.4-.3.6-.7 1-1 0-.4-.1-.8-.3-1v-.1zm-7.1 6.8c-.4 0-.5.1-.6 0-.9 0-.9-.4-1.5-.6.3-.6 1.5-.4 2-.8h.1v1.4zM832.6 60.5c-.5-.8-1.3-.5-1.6-1.8h-1.5c-.2.6-.7 1.5-1.1 1.9 0 1.8 1.6 2.6 2.4 3.8 1.2-.1 1.4-.6 2.1-1.1.1-1 .2-2.1-.3-2.8M681.8 76.3c.2-.4.6-.9.8-1.3 0-.3.1-.6.1-.9.2-.3.4-.4.5-1 2-.4 4-1.2 5.8-1.8.7-.2 1.2 0 1.8-.3.3-.1.8-.4 1.1-.6.3-.2.3-.6.6-.8-.2-.5-.5-.6-.6-1.1-2.3.4-4.7.8-7 1.3.3-2.5 1.6-5.4.8-8.4-.2-.5-.1-.9-.4-1.3-.2-.4-.6-.4-.9-.6-.3.1-2.6 1.4-2.8 1.5-.3.8-.5 1.5-.8 2.3-.6 1.4-1 3-1.6 4.5-.4 1-1.1 2.2-1.3 3.4-.8.3-1.7.7-2.1 1.4-.2.3-.2.6-.4.9.1.6.3.7.5 1.1h1c-.1.6-.4 1-.5 1.5-.2.9-.1 2-.3 2.8-.2.9.1 1.8-.4 2.4-.4 1.2-1.8 1.3-2.9 1.8-1.2.5-4.2 2.8-6.1 2-.5-.2-.9-1.2-1.3-1.4-.4-.2-.7.1-1-.3-.3-.4.1-1-.1-1.5-.1-.1-.3-.2-.4-.3-.5-1.2.6-2.8.9-3.4.1-.3 0-.8.3-1h.3c.3-.3.8-.7 1-1 .5-.8.6-2.3 1.4-2.8h.5c.2-.2.3-.4.5-.6.5-.3 1.3-.3 2.1-.3 0 .3 0 .4.1.5-.2 1.2-2.1 1.7-3 2.3-.2.1-.3.5-.5.6 0 1.9 1.9 1.2 2.9.6 1.4-.9 3.2-2.2 3.6-4 0-.4-.1-.8-.1-1.1-.8-.8-1.1-1.8-2.3-2.1-1.4-.4-2.2.7-2.9 1-.5.1-.9.3-1.4.4-1.2.7-2.7 3-3.5 4.1-.4.5-1 .6-1.5 1-.5.3-1.1 1.1-1.4 1.6-.4.7-.4 2-.9 2.6v1.6c-.4.1-.8.3-1.3.4-.6.3-3 2-3.8 1.4h-.3c-.1-1.9 0-2.6.6-4 .2-.5.2-1 .5-1.4.1-.2.3 0 .5-.1s.5-.9.6-1.1c.9-2.3-.6-5-2.4-5.5-1.9-.6-4.1 1.1-4.8 1.9-.4.3-.8.7-1.1 1-.4.6-.5 1.3-.9 2-.2.3-.6.6-.8.9-.5 1.3-1.1 2.5-1.6 3.8-.1.6-.2 1.3-.3 1.9-.4 1.4-.6 3.4 0 4.8.2.5.7.6 1 1 1.9-.1 2.8-1.1 3.8-2.1.3-.3.6-.5.9-.8.4-.5.5-1 1-1.4v-.1h.1c.1.4.2.8.3 1.1.3.4.5.8.8 1.3.8 0 1.5-.1 2.3-.1 1.4-.4 4.3-1.9 5-3 .7.8.8 2.4 1.6 3 .7.5 4.6 1.9 6.1 1.5 1.4-.4 2.5-1.1 3.6-1.6 1.5-.6 3.2-.9 4.1-2.1.5.3.7 1.8 1.1 2.3.8.8 2.6 1.3 4 .8.7-.3 1.4-1 2.1-1.4-.1-.5-.2-.9-.3-1.4-.4 0-1-.1-1.3.1-2.8.1-1.7-1.4-2.8-2.8 0-1.6.9-1.8 1.5-2.8 1.2-.9 1.5-1.8 2-2.8m.9-10.1c.5.7-.2 3.3-.5 3.6-.2.4-.4.4-.6.6h-.1c.3-1.4.7-2.8 1.2-4.2m-29.7 12c-.2.6-.4 1.3-.6 1.9-.6 1.3-1.5 2.3-2.3 3.4-.5.7-1.6 1.2-1.9 2.1-.3 0-.4 0-.5.1h-.3c0-4 1.2-6.9 2.8-9.4.2-.4.2-.8.5-1.1.6-.3 1.3-.7 1.9-1 .3 0 .4 0 .5.1.7.2.8.9 1.3 1.4-.1 1.2-.9 1.7-1.4 2.5m27-2.9c.1-.4.2-.8.3-1.1h.3c-.1.4-.3.8-.4 1.1h-.2zM1006.3 65.2c-.2-.6-.6-1.4-.8-2 0-.4-.1-.8-.1-1.3-.2-.7-1-1.1-1.3-1.9h-1.1c-.3.2-.7.3-1 .5-.4.3-.9 1.2-1.1 1.6 0 .5-.1.9-.1 1.4-.1.1-.3.2-.4.3-.6.8-1.2 1.7-1.8 2.5-.3.5-.4 1-.6 1.6-.5 1.1-1.1 2.5-1.6 3.6-.5 1.2-.6 4.3.1 5v.3c.2 0 .3-.1.5-.1.2.3.4.7.6 1 1.9 0 3.5-.5 4.6-1.3.8-.5 1.4-1.5 2.6-1.5.5-1 1.1-2 1.4-3.1.4-1.4.3-3.9 0-5.3v-1.3zm-3.8 8.4c-.5.2-1 .7-1.5.9-.3.1-.7 0-.9.1-.4 0-.6 0-.9-.1.1-1.6.3-3.3.8-4.5.1-.3.5-.5.6-.8.3-.5.3-1 .6-1.5.5-.8 1.3-1.6 1.5-2.5.5.6.1 1.7.4 2.6.5 2-.3 4.1-.6 5.8M998.1 62.8c.2-.3.2-.5.4-.8 0-.5-.1-.7-.3-1-.3-.1-.6-.1-1.1-.1-.3.5-1 .8-1.4 1.3-.6.8-1.1 1.7-1.8 2.5-.2.1-.3.3-.5.4-.4.6-.6 1.3-1 1.9-.4.3-.8.7-1.1 1-.2.3-.1.5-.3.9-.4.8-1.4 2.9-2.1 3.4v.3h-.1c0-1.7.3-6.9-.3-7.9-.1-.2-.5-.4-.6-.6-1-.1-1.2 0-1.6.8-.8 1.4-.1 2.4-.5 4.1-.4 1.6-.5 5.5-.1 7.3.1.5-.2.8-.1 1.1.1.6.5 1.1.8 1.5 1.9 0 3-2.7 3.8-3.9.5-.8 1.2-1.6 1.6-2.5.3-.8.4-1.6.9-2.3.2-.3.5-.3.8-.5.4-.3.8-1 1-1.4.7-1.1 1.1-2.3 1.9-3.4.4-.8 1.3-1.4 1.7-2.1M935 73.2c-1.3 0-1.4.6-2.1 1-.4.1-.8.2-1.1.3-1.2.5-2.3 1.2-3.6 1.8-.6.3-1.6 1-2.8.6-.9-.3-1.2-1.3-1.6-1.5-.2-.1-.7-.1-.9-.1-.2-.8-.9-2.4-.6-3.4.2-.6.7-1.2.9-1.8 0-.3.1-.6.1-.9.3-.5 1.2-.8 1.5-1.4.4-.7.5-2.2 1.3-2.6h.6c.1-.1.1-.4.3-.5.5-.4 1.3-.4 2.3-.4 0 .3 0 .2.1.4-.2 1.5-1.9 1.7-2.9 2.4-.3.2-.8.9-.5 1.4.4 1.1 2.5.1 3-.3 1.3-.8 4.4-3 3.1-5.4-.4-.9-1.4-1.2-2.1-1.8-1.6 0-1.8.5-2.8 1-.6.3-1.2.2-1.6.5-.8.6-1.9 2.2-2.5 3-.9 1.2-2.6 2-3.4 3.1-.8 1.1-1.7 4-1.1 5.9.1.3.3 1 .5 1.4l.5.5c.1.4.2.8.3 1.1.4.6 1.2.7 1.9 1 1.2.5 2.9 1.5 4.9 1 1.4-.4 2.5-1.1 3.6-1.6.5-.2 1-.2 1.5-.4.8-.3 1.4-.9 2-1.4.7-.5 1.7-.8 2.1-1.5.1-.1 0 0 .1-.3-.2-.2-.5-.8-.6-1.1-.4.1-.2.1-.4 0M947.9 62.3c-.4 0-.8-.1-1.1-.1-.6.5-1.5.8-2.1 1.3-1 .7-3 3.3-3.5 4.5-.2.5 0 1-.3 1.6-.2.7-.7 1.5-.9 2.4-.7 2.6 0 5.8 1.5 6.8.3.2.5.1.9.3.4.1 1.2.4 1.9.3 1.4-.4 2.6-1.4 4-1.8-.2-.5.1-1.1-.3-1.5-1-1.3-2.6.5-3.9-.5-.6-.4-.8-1.1-1.1-1.8 1.3-.6 4.2-2.8 4.9-4 .1-.4.2-.8.3-1.3.2-.4.7-.7.9-1.1 0-1.1-.1-2.2-.1-3.3-.3-.7-.7-1.3-1.1-1.8m-2 6.1c-.7.5-1.6.7-2.1 1.4h-.3c.3-.6.5-1.3.8-1.9.4-.6 1-.9 1.3-1.9.2 0 .4-.1.6-.1.1.6.2 1.3.3 1.9-.2.2-.4.5-.6.6M843 73c-.2-.2-.5-.3-.8-.1-1 .1-.9.5-1.5.9-.5.2-.9.3-1.4.5-.3-.8-.2-1.7-.5-2.6-.2-.5-.5-1.3-.6-1.8-.2-.7.1-1.8-.3-2.4v-.6h.1c.2.8.5 1.5.5 2.6.3.1.7.3.9.5.8-.1 1.3-.6 1.9-.9.4-1.6-.5-4.9-1.4-6-.2-.3-.8-.5-1.1-.6-.5.5-1.6.3-2.1.8-2.3 1.5-2 6.7-1.3 9.7.2.7 0 1.7.4 2.3-1 .3-2 .7-3 1-.6.4-.7 1.3-1.1 2-.2.4-.8 1.5-.3 2.3V82c.1.2.3.1.5.3 1.2.8 3.1 1.4 4.5.4.4-.3.5-.9.9-1.1l.9-.3c.4-.3.9-1.1 1.1-1.6.3-.8-.1-2 .4-2.6.5-.8 1.8-1.1 2.5-1.6.4-.3.7-.8 1.1-1.1 0-.8-.1-1.2-.3-1.4m-7 6.6c-1 0-1.5-.2-2-.8h-.1v-.1c.6-.1 1.6-.2 2-.5h.1v1.4zM894.7 63.8c-.5.4-1.2.5-1.8.9-1.4.9-3.3 3.3-4 4.8l-.3 1.5c-.2.6-.6 1.3-.8 1.9-.1.4 0 .9-.3 1.3v3.5c-.1.3-.7.2-1 .4-1.4.6-2.5.8-4.4.8-.3-.3-.6-.5-.9-.8.1-2.7 1.1-4.9 1.3-7.4-.8-.7-1.6-1.9-1.9-3-.4-1.3.4-2-.4-2.8-.1-.1-.4-.2-.5-.3-1.3.1-1.5 1.2-2.3 1.8v2.5c-.8 3-2.5 4.8-4.1 7-.4.6-1.8 2.4-2.5 2.1h-1c-.4-1.8-.2-2.9.3-4.4v-.9c.3-.9 1.2-1.8 1.5-2.8.2-.6-.2-1-.3-1.5-.3-.1-.6-.2-.8-.4-1.5.1-1.8 1.7-2.3 2.9-.8 1.9-3 5.7-1.8 8.7.3.7 1.1 1.2 1.5 1.8 1.4 0 2.9-.4 3.8-1 .2-.2.5-.6.8-.8h.5c.3-.1.9-.4 1.3-.6.8-.6 1.6-2.3 2.3-3.1.8-1.1 1.9-2.1 2.3-3.5h.3l.1.1c-.1.5-.4.5-.5.9v1c-.3 1-.6 2.1-.9 3.1-.2.6-.1 2.1.1 2.5.5 1.1 1.9 1.6 2.6 2.5 3.2-.1 5.8-1.3 7.9-2.5.3 0 2 1.4 3.6.9 1.2-.4 2.3-1.3 3.6-1.6.1-2.9-1.5-1.9-3.9-1.9-.1-.2-.3-.3-.5-.4 0-.4.2-.7 0-1-.1-.4-.2-.5-.8-.5v-.1c1.1-.3 4.1-2.8 4.6-3.6.3-.5.2-1.2.5-1.8.2-.3.6-.4.8-.8.4-1-.2-4-.5-4.4.2-.6-.5-.9-1.2-1m-3.2 7.8h-.1c.2-1.5 1.5-3 2.3-4h.3c.1.4.2 1.1.4 1.4-.3 1.5-2.2 1.6-2.9 2.6M864.1 67.6v-1c-.3-.6-1-1.3-1.4-2h-.7c-.1.1-.2.1-.5.1-.6.6-1.5 1-1.9 1.9 0 .5-.1 1-.1 1.5-.1.1-.3.2-.4.3-.5.8-1.1 1.5-1.6 2.3-.2.3-.2.7-.4 1-.8 1.4-1.5 3.2-2.1 4.8-.4 1-.5 4 .1 4.6.2.5.2.1.6.4.2.1.6.8.8 1 1.9 0 3.5-.7 4.8-1.5.7-.5 1.3-1.3 2.4-1.4.5-1 1-2.1 1.4-3.4.3-1.3.2-5.5-.1-6.7-.3-.6-.7-1.4-.9-1.9m-3 10.4c-.4.9-1.7 1.2-3.1 1.1 0-1.8.2-3.4.8-4.6.2-.5.7-1 1-1.5.5-1 .9-2.2 1.6-2.9.1-.2 0-.1.1-.3.6 1.7.6 7-.4 8.2M617.6 72.8c-2.2.2-5.4 4.1-6.1 5.9-.1.5-.2 1.1-.3 1.6-.1.4-.5 1-.6 1.4-.1.4 0 .8-.3 1.1v3c-.5-.2-1-.1-1.6-.3-2.8-.7-4.9-.3-7.2.6-.4.2-.8.1-1.1.4h-.1c.1-1.8 1.1-3.3 1.8-4.8.3-.6.2-1 .5-1.6.1-.2.4-.7.5-.9.3-.9.2-1.6.5-2.5.3-.7.6-1.6.9-2.4.1-.8.2-1.7.3-2.5.2-.7.5-1.7.8-2.5.2-.8.1-1.9.5-2.5-.1-.6-.6-.9-1-1.1-.2.2-.6.3-.8.5-1.2 1.5-1 4.7-1.6 6.8-1.2 3.9-2.4 7.8-3.9 11.4-.3.7-.3 1.4-.6 2.1-.1.2-.4.4-.5.6-.2.6-.1 1.3-.5 1.8.1 1 .7 1 1.3 1.5 1.8-.1 3.6-1.1 5.1-1.5.3-.1.6.1.8.1h1.6c.7.2 1.5 1 2.4.4 1-.1 1.5-1.2 2.3-1.6.1-.2 0-.1.1-.3.3 1.2 2.3 2.9 4.3 2.3.1 0 .4-.3.5-.4 1.1-.5 2.2-.9 3.3-1.4 0-3.8-2.3-.8-3.9-1.9-.8-.2-.8-1-1.3-1.5.2-.9 1.7-1.4 2.4-1.9.6-.5 2-1.7 2.4-2.4.1-.5.3-1 .4-1.5.2-.3.6-.5.8-.9.3-1-.2-3.9-.5-4.3-.5-.5-1-.4-1.6-.8m-1.1 6.2c-.6.6-1.7.8-2.3 1.5h-.2c.3-1.6 1.4-2.8 2.3-3.9h.3c.1.6.3 1.2.4 1.8-.3.1-.4.5-.5.6M736.7 76.2c-1.9 0-2.1 1-3.6 1.4-.4-1-.3-2.1-.6-3.1-.1-.4-.4-.9-.5-1.3-.2-.7.1-1.7-.3-2.3v-.6h.1c.2.5.4 2.2.6 2.5.8 1.2 1.9 0 2.8-.5.1-2.1-.7-6.1-2.8-6.4-.5.4-1.6.3-2.1.8-2.4 1.7-1.8 9-.8 11.9-2.4.9-2.8.3-4 2.6-.3.6-.6.8-.5 1.6-.6.2-1.1.5-1.6.8-1.2.5-2.5.5-3.9.4-.3-.3-.6-.5-.9-.8 0-1.8.5-3.5.9-5 .2-.7 0-1.5.4-2-.2-1-1.5-2-1.9-3.3-.3-.9.3-2.1-.3-2.6-.2-.5-.4-.2-.8-.5-.9.1-1.9 1.3-2.1 2-.3.4.2 1.3 0 2-.2.6-.2 1.5-.5 2-.8 1.6-2 2.8-2.9 4.1-.3.5-.4.9-.8 1.4-.5.4-.9.8-1.4 1.3-.1.3-.1 1-.1 1.3-.3 0-.4-.1-.6-.1-.1-.2-.2-.4-.3-.5 0-.6.1-1.3.1-1.9 0-1 .8-4.4 1.3-4.9 0-.4 0-.9-.1-1.1-.2-.2-.7-.3-1.1-.4-.6.5-1.3 1-1.9 1.5-.4.6-.5 1.2-.8 1.9-.1.1-.3.4-.4.5 0 .3-.1.5-.1.8-.4.7-1.2 1.2-1.6 1.8v.3c-.7.7-2.1 1.1-2.8 1.8h-.1c0-2.4.9-3.5 1.4-5.3v-.9c.1-.3.5-.7.6-1 .3-.5.2-1.1.5-1.5-.1-.7-.3-.7-.6-1.1-3 0-3.6 5.2-4.5 7.5-.1.4-.2.8-.3 1.3-.2.3-1.6 1.1-2 1.3.1.6.5 1.4.9 1.8.4.2.6-.2 1 0 .2.1.6.6 1 .8.6.2 1.4-.1 1.8-.3 1.7-.6 3-1.5 4-2.6.4.6.1 1.7.5 2.3.4.7 1.3.8 1.9 1.4 2.1 0 4-1.7 5.1-2.8h.3c.1-.2.1-.9.3-1.1.1-.1.3-.2.4-.3.4-.6.6-1.1 1-1.6.8-1.1 1.9-2.1 2.3-3.5h.3v.1h.1c-.1.3-.1.5-.3.6h-.3c0 .6-.1 1.2-.1 1.8-.4 1.4-1.4 3.9-.5 5.4.6 1 1.8 1.4 2.5 2.3 2.4 0 4.1-.8 5.8-1.5.6-.3 1.4-.3 1.8-.8 1.5.4 2.7 1.5 4.5.4.4-.3.8-1.1 1-1.3l.8-.1c.4-.2.9-.9 1.1-1.4.3-.7 0-2.1.4-2.8.5-.8 1.7-1.2 2.5-1.8.4-.3.8-.8 1.3-1.1-.1-.4-.2-.8-.3-1.1-.2-.5 0-.3-.2-.5m-7 6.8c-.4.1-.9.2-1.3-.1-.1-.1 0 0-.1-.3.2-.2.3-.4.5-.6.2-.2.5-.2.9-.3V83zM773.5 68.1c-.5-.1-.7-.2-1.3-.3-.5.5-1.2.6-1.8 1-1.2.9-3.3 3.4-3.9 4.9-.1.5-.2 1.1-.3 1.6-1 2.8-1.9 7.1.8 8.9.5.4 1.6 1 2.8.6l3.9-1.8c0-.6 0-1.2-.3-1.5-.7-1.3-2.6.5-3.9-.5-.5-.3-.6-1-1-1.4.2-.9 2.3-1.9 3-2.4.6-.5 1.6-1.5 1.9-2.3 0-.3.1-.6.1-.9.2-.4.7-.7.9-1.1.3-1-.1-3.7-.4-4.3-.1 0-.3-.3-.5-.5m-1.9 5.9c-.7.6-1.8.8-2.4 1.5h-.1c.2-1.6 1.5-3 2.4-4 .3.4.4 1.4.5 1.9-.2.1-.2.4-.4.6M1052.7 68.4c-.3-.1-.6-.1-1-.1-.5.5-1.4.8-1.8 1.4-.3.4-.3.8-.5 1.1-.2.2-.4.3-.6.5-.4.6-.2 1.4-.1 2.1.2.3.4.5.6.8 1.7-.4 2.3-1.7 3.6-2.5.2-.7.7-2 .1-2.6 0-.4-.1-.4-.3-.7M632.1 79.6c-2 0-2 1-3.6 1.4-.4-1-.3-2.1-.6-3.1-.1-.4-.4-.9-.5-1.3-.2-.7.1-1.8-.3-2.4v-.5h.1c.1.2.6 2.4.6 2.5.2.3.5.4.9.5.2.2 1.4-.6 1.8-.8.4-2-.6-6.4-2.6-6.7-.5.4-1.6.3-2.1.8-2.4 1.7-1.8 9-.8 11.9-2.4.9-2.8.3-4 2.6-.1.2-.6.8-.6 1 0 .9.2 1.9.3 3 1.5.8 3.2 1.8 5.1.5.3-.2.3-.7.6-1 .4-.4 1.3-.3 1.8-1 .2-.5.3-1 .5-1.5.2-.6-.2-1.4.1-1.9.5-.8 1.6-1.1 2.4-1.6.5-.3.9-.9 1.4-1.3-.1-.4-.2-.8-.3-1.1-.2 0-.1.1-.2 0m-7 6.8l-.1.1c-.9 0-1.4-.2-1.8-.8-.2-.1-.1 0-.3-.1.6-.2 1.4-.4 2.1-.5v1.3z"/><path class="st2" d="M694.7 70.7c-.4-.1-.8-.3-1.3-.4-.5.5-1.4.7-2 1.1-1.4 1-2.2 2.5-3.1 3.9-.1.2-.5.5-.6.8l-.3 1.8c-.1.3-.5.9-.6 1.3-.5 1.3-.6 5.2 0 6.4.3.5.8.9 1.3 1.3s1.8 1 3 .6c1.3-.6 2.5-1.2 3.8-1.8 0-.6 0-1.1-.3-1.4-.2-.4-.4-.3-.6-.6-.9.1-2.4.7-3.1.1-.6-.2-1-1.2-1.3-1.8 1.3-.7 4.3-2.8 4.9-4 .1-.4.2-.8.3-1.3.2-.4.7-.7.9-1.1.2-.6 0-2.9-.1-3.4-.3-.5-.7-1-.9-1.5m-1.8 5.1c-.4 1.2-2 1.5-2.8 2.3h-.1c.7-1.6 1.4-2.8 2.4-4h.3c0 .6.4 1.5.2 1.7M901.3 72.7c-.2-.1-.3-.1-.6-.1-.3.3-.9.3-1.3.5-.5.3-.7.9-1.3 1.3.7 1.4 2.2 5.5 1.1 7.8-.1.2-1.3 1.3-1.5 1.5 0 .8.3.8.6 1.3.7-.1 1.1-.6 1.6-.9 2.2-1.4 2.8-2 3.5-4.9.7-2.5-.8-6.1-2.1-6.5"/><path d="M1059 99.8h-.6c.2.2.4.2.6 0" clip-path="url(#SVGID_4_)" fill-rule="evenodd" clip-rule="evenodd" fill="#fff"/></g><g class="st0"><defs><path id="SVGID_11_" d="M588.7 31.3h489.1v81.5H588.7z"/></defs><clipPath id="SVGID_6_"><use xlink:href="#SVGID_11_" overflow="visible"/></clipPath></g><g><path class="st4" d="M122.2 21h17.5v87.3h-17.5zM167.2 21h-10.1v87.4h17.5V33.8z"/><path class="st5" d="M139.6 21h17.5v87.3h-17.5zM174.6 33.8v74.6H192V64.1z"/><path class="st4" d="M192 64.1v44.3h17.5V94.3z"/><g><path class="st4" d="M169.8 0h-7.3l7.3 12.8z"/><path class="st5" d="M187.3 43V0h-17.5v12.8z"/><path class="st4" d="M204.8 73.3V0h-17.5v43z"/></g><g id="dessous_1_"><path class="st4" d="M242.9 25.8h-7.1v24.9h-4.9V25.8h-7.1v-4.5h19.1v4.5zM253.8 25.8v7.9h10v4.5h-10v7.9h12.3v4.5h-17.3V21.3h17.3v4.5h-12.3zM288.7 40.2c2 1.6 3 4 3 6.7v3.8h-4.9v-3.6c0-2.5-1.3-4.7-5-4.7h-4.7v8.3h-4.9V21.3h9.6c6.1 0 9.9 3.9 9.9 9v3.2c.1 2.6-1 5-3 6.7zm-6.9-2.3c3.8 0 5-2.2 5-4.7v-2.7c0-2.5-1.3-4.7-5-4.7h-4.7v12.1h4.7zM314.4 40.2c2 1.6 3 4 3 6.7v3.8h-4.9v-3.6c0-2.5-1.3-4.7-5-4.7h-4.7v8.3h-4.9V21.3h9.6c6.1 0 9.9 3.9 9.9 9v3.2c.1 2.6-1 5-3 6.7zm-6.9-2.3c3.8 0 5-2.2 5-4.7v-2.7c0-2.5-1.3-4.7-5-4.7h-4.7v12.1h4.7zM328.5 50.7h-4.9V21.3h4.9v29.4zM353.6 25.8h-7.1v24.9h-4.9V25.8h-7.1v-4.5h19.1v4.5zM377.8 29.6v12.8c0 5.1-3.7 8.9-9.8 8.9-6.1 0-9.8-3.8-9.8-8.9V29.6c0-5.1 3.7-8.9 9.8-8.9 6.2 0 9.8 3.8 9.8 8.9zm-14.6.4v12c0 2.5 1.1 4.7 4.9 4.7 3.8 0 4.9-2.2 4.9-4.7V30c0-2.5-1.1-4.7-4.9-4.7-3.8-.1-4.9 2.2-4.9 4.7zM388.9 50.7H384V21.3h4.9v29.4zM411.5 40.2c2 1.6 3 4 3 6.7v3.8h-4.9v-3.6c0-2.5-1.3-4.7-5-4.7h-4.7v8.3H395V21.3h9.6c6.1 0 9.9 3.9 9.9 9v3.2c.1 2.6-1 5-3 6.7zm-6.9-2.3c3.8 0 5-2.2 5-4.7v-2.7c0-2.5-1.3-4.7-5-4.7h-4.7v12.1h4.7zM425.6 25.8v7.9h10v4.5h-10v7.9h12.3v4.5h-17.3V21.3h17.3v4.5h-12.3zM457.8 31.8v-1.7c0-2.5-1.1-4.7-4.9-4.7-3.6 0-4.8 2-4.8 4.5 0 3.3 4.6 3.5 8.7 5.1 3.6 1.2 5.9 3.8 5.9 7.3 0 5.1-3.6 9-9.8 9s-9.8-3.9-9.8-9v-1.5l4.9-.4v1.5c0 2.5 1.1 4.7 4.9 4.7 3.6 0 4.8-2 4.8-4.5 0-3.3-5.2-3.7-8.7-5.1-4.2-1.6-5.9-3.8-5.9-7.3 0-5.1 3.7-9 9.8-9s9.8 3.9 9.8 9v1.5l-4.9.6z"/><g><path class="st4" d="M264.9 108.4h-10.4V87.8l-5.5 20.5h-9.3l-5.5-20.5v20.5h-10.4V70.1h12.6l7.8 24.8h.3l7.8-24.8h12.6v38.3zM282 79.7v4.8h11.1V94H282v4.8h13.8v9.6h-24.2V70.1h24.2v9.6H282zM343.6 108.4h-10.4V87.8l-5.5 20.5h-9.3L313 87.8v20.5h-10.4V70.1h12.6l7.8 24.8h.3l7.8-24.8h12.6v38.3zM379 81.6v15.2c0 6.9-6.4 12.3-14.3 12.3-8 0-14.3-5.4-14.3-12.3V81.6c0-6.9 6.3-12.3 14.3-12.3 7.9 0 14.3 5.4 14.3 12.3zm-18.2.8V96c0 1.7 1 3.6 3.9 3.6 3 0 3.9-1.9 3.9-3.6V82.4c0-1.7-.9-3.6-3.9-3.6-2.9 0-3.9 2-3.9 3.6zM396.2 108.4h-10.4V70.1h10.4v38.3zM431.6 87.3c0 3-1.2 5.7-3.1 7.8 1.9 2.2 3.1 4.9 3.1 7.8v5.4h-10.4v-4.9c0-1.7-1-3.6-4-3.6h-3.9v8.5H403V70.1h14.3c7.9 0 14.3 5.7 14.3 12.6v4.6zm-14.4 3c3 0 4-1.9 4-3.6v-3.4c0-1.7-1-3.6-4-3.6h-3.9v10.7h3.9zM448.8 79.7v4.8h11.1V94h-11.1v4.8h13.8v9.6h-24.2V70.1h24.2v9.6h-13.8z"/></g><path fill="#dd0029" d="M258.4 117.6l-14 24.3-14.1-24.3z"/><path class="st4" d="M244.4 158.5L228.5 131H0v-2.5h229.9l14.5 25 14.4-25h172.8v2.5H260.2z"/><g><path class="st5" d="M442.9 59.7v2.6c0 1.2-.9 2.1-2.3 2.1h-2.2v-6.7h2.2c1.4-.1 2.3.8 2.3 2zm-1.2.1c0-.6-.3-1.1-1.2-1.1h-1.1v4.7h1.1c.9 0 1.2-.5 1.2-1.1v-2.5zM445.3 58.7v1.8h2.3v1h-2.3v1.8h2.8v1h-4v-6.7h4v1h-2.8zM456.2 63.4v1h-3.9v-6.7h1.1v5.7h2.8zM460.9 63h-2.1l-.4 1.4h-1.1l1.9-6.7h1.3l1.9 6.7h-1.1l-.4-1.4zm-.3-1.1l-.7-3-.7 3h1.4z"/></g><g><path class="st5" d="M442.1 131.7H440l-.4 1.4h-1.1l1.9-6.8h1.3l1.9 6.8h-1.1l-.4-1.4zm-.3-1l-.7-3-.7 3h1.4zM448 128.8v-.4c0-.6-.3-1.1-1.1-1.1s-1.1.4-1.1 1c0 .7 1.1.8 2 1.2.8.3 1.4.9 1.4 1.7 0 1.2-.8 2.1-2.2 2.1s-2.3-.9-2.3-2.1v-.3l1.1-.1v.3c0 .6.3 1.1 1.1 1.1s1.1-.4 1.1-1c0-.7-1.2-.8-2-1.2-1-.4-1.3-.9-1.4-1.7 0-1.2.8-2.1 2.2-2.1 1.4 0 2.2.9 2.2 2.1v.3l-1 .2zM453 126.4c1.3 0 2 .9 2 1.9 0 .6-.2 1.1-.7 1.4.6.3.9.9.9 1.5 0 1.1-.8 1.9-2 1.9h-2.5v-6.8h2.3zm-1.3 2.8h1.2c.7 0 1-.4 1-.9s-.3-.9-1-.9h-1.2v1.8zm1.4 2.9c.7 0 1-.4 1-.9s-.3-.9-1-.9h-1.4v1.8h1.4zM460.4 132.1v1h-3.9v-6.8h1.1v5.7h2.8z"/></g><path class="st5" d="M288.2 66H280l4.9-8.4h8.1l-4.8 8.4z"/></g></g><path class="st4" d="M467.1 128.6H1200v2.3H467.1z"/></svg>