<?xml version="1.0" encoding="utf-8"?>
<!-- Generator: Adobe Illustrator 22.1.0, SVG Export Plug-In . SVG Version: 6.00 Build 0)  -->
<svg version="1.1" id="Calque_1" xmlns="http://www.w3.org/2000/svg" xmlns:xlink="http://www.w3.org/1999/xlink" x="0px" y="0px"
	 viewBox="0 0 1200 158" style="enable-background:new 0 0 1200 158;" xml:space="preserve">
<style type="text/css">
	.st0{clip-path:url(#SVGID_2_);}
	.st1{clip-path:url(#SVGID_4_);fill-rule:evenodd;clip-rule:evenodd;fill:#E2001A;}
	.st2{clip-path:url(#SVGID_4_);fill-rule:evenodd;clip-rule:evenodd;}
	.st3{clip-path:url(#SVGID_4_);fill-rule:evenodd;clip-rule:evenodd;fill:#FFFFFF;}
	.st4{fill:#003B5D;}
	.st5{fill:#BFCED5;}
	.st6{fill:#DD0029;}
	.st7{clip-path:url(#SVGID_8_);}
	.st8{clip-path:url(#SVGID_10_);fill-rule:evenodd;clip-rule:evenodd;fill:#E2001A;}
	.st9{clip-path:url(#SVGID_10_);fill-rule:evenodd;clip-rule:evenodd;}
	.st10{clip-path:url(#SVGID_10_);fill-rule:evenodd;clip-rule:evenodd;fill:#FFFFFF;}
	.st11{clip-path:url(#SVGID_14_);}
	.st12{clip-path:url(#SVGID_16_);fill-rule:evenodd;clip-rule:evenodd;fill:#E2001A;}
	.st13{clip-path:url(#SVGID_16_);fill-rule:evenodd;clip-rule:evenodd;}
	.st14{clip-path:url(#SVGID_16_);fill-rule:evenodd;clip-rule:evenodd;fill:#FFFFFF;}
</style>
<g>
	<g>
		<defs>
			<rect id="SVGID_7_" x="588.7" y="31.3" width="489.1" height="81.5"/>
		</defs>
		<clipPath id="SVGID_2_">
			<use xlink:href="#SVGID_7_"  style="overflow:visible;"/>
		</clipPath>
		<g class="st0">
			<defs>
				<rect id="SVGID_9_" x="588.7" y="31.3" width="489.1" height="81.5"/>
			</defs>
			<clipPath id="SVGID_4_">
				<use xlink:href="#SVGID_9_"  style="overflow:visible;"/>
			</clipPath>
			<path class="st1" d="M1057.3,101.7c0.9,0,3.8,0.1,4.3,0.5h-0.9c0,0.3-0.1,0.5-0.1,0.8c-4,0-7.5-1-11.7-1c0,0.2-0.1,0.3-0.1,0.5
				h0.9c0.6,0.4,1.7,0.1,2.5,0.3c1,0.2,2.2,0,3.3,0.3c1.4,0.3,3.1,0.4,4.6,0.4v0.1h-0.3c-0.2,0.1-0.7,0.2-1,0.3v0.4
				c-1.5,0-3.4-0.2-4.8-0.5h-1.3c-1.1-0.3-2.7-0.3-3.9-0.5c-0.7-0.1-3.5-0.3-3.9,0c0.9,0,3.2,0,3.6,0.4c-3.4,0-7.3,0.2-10.4-0.5
				h-1.5c-1-0.2-2.5-0.1-3.5-0.4h-3.6c-1.5,0-3.9,0.1-5.4-0.3c-1.2-0.3-2.9,0.1-4-0.1c-5.9-0.1-11.7-0.3-17.6-0.4
				c-1.1-0.3-2.9-0.1-4.3-0.1h-7.9h-6c-1.2,0.3-3.2,0.2-4.4,0.3h-1.8c-1.2,0.3-2.9,0-4.1,0.3c-0.5,0.1-1.4,0-2,0.1
				c-3,0.7-6.9,0-9.9,0.8c-1.3,0-2.5,0.1-3.8,0.1c-1.1,0.3-2.5,0-3.6,0.3c-3,0.7-6.9,0.2-9.9,0.9c-1,0-2.1,0.1-3.1,0.1
				c-2.6,0.6-5.8,0.3-8.4,0.9h-1.4c-1.9,0.5-4.3,0.3-6.1,0.8h-1.3c-1,0.2-2.3,0.1-3.4,0.4c-1.4,0.3-3.2,0.5-4.8,0.6v-0.3
				c0.3-0.2,0.5-0.4,0.6-0.8c-1.3-0.1-3.5,0.4-5,0c-0.8-0.2-1.7-0.3-2.4-0.5c-0.1-0.3-0.2-0.4-0.3-0.9h0.3c0.6-0.5,2.3-0.5,3.3-0.5
				l-0.1-0.3h0.6c0.7-0.5,2-0.1,2.9-0.4c2-0.3,4.1-0.7,6.1-1v-0.1c-1.9,0-3.8,0-5.4,0.4h-1.1c-1.5,0.4-3.7,0.6-5.4,0.3
				c-0.1-0.2-0.1-0.2-0.1-0.5c0.3-0.2,0.6-0.3,0.8-0.8h0.1v-0.1h-0.3c-0.5-0.4-1.7,0-2.1,0.1h-1c-1.3,0.3-3.1,0.7-4.4,0.5v-0.4
				c0.4-0.1,0.4-0.4,0.9-0.5v-0.1c-1.6,0-3.4,0.2-4.8,0.5h-1c-1,0.3-2.4,0.4-3.4,0.6c-1.8,0.3-3.6,0.5-5.4,0.8
				c-1.4,0.4-3,0.7-4.5,0.8c-0.2-0.3-0.3-0.2-0.4-0.6h0.3c0.7-0.5,1.6-0.4,2.6-0.6c1.8-0.5,4.1-0.6,5.9-1.1c0.5,0,1-0.1,1.5-0.1
				c4.2-1.1,9-1.1,13.3-2.1c1.2-0.3,2.5-0.2,3.6-0.5h1c1.2-0.3,2.7-0.3,3.9-0.6h1c1.6-0.4,3.6-0.4,5.3-0.8h1.1
				c3.4-0.8,7.4-0.4,10.8-1.3c0.9-0.2,2-0.1,2.8-0.3h1.4c0.8-0.2,2.1-0.2,2.9-0.4c1.6-0.1,3.2-0.2,4.8-0.3c2.8-0.7,6.2-0.1,9-0.8
				c0.6-0.1,1.5,0,2-0.1c1.5,0,3.1-0.1,4.6-0.1c2.5-0.6,5.9,0.1,8.4-0.5h3.5c1.2-0.3,2.9,0.2,4.3-0.1c1.6-0.4,4,0.3,5.8-0.1
				c0.9-0.2,2.4-0.1,3.5-0.1h6.8h7.5c1.2,0,2.8-0.1,3.8,0.1c1.8,0.4,4.2-0.3,5.9,0.1h2c1.7,0,4.3-0.1,5.8,0.3h3
				c0.7,0.2,1.9-0.1,2.8,0.1c2.2,0.5,4.9,0,7,0.5c2.6,0.1,5.2,0.3,7.8,0.4c1,0.2,2.4,0.1,3.4,0.4h1.5c0.9,0.2,2.1,0,3.1,0.3
				c3.7,0.9,8.3,0.4,11.9,1.3h1.3c2.5,0.6,5.7,0.3,7.8,1.3v0.1c-1,0.1-2.8,0.1-3.8,0.4c-0.6,0.1-1.4-0.2-1.8,0.1
				c0.5,0,1.8,0.2,2.1,0.5h-0.1c-1,0.8-3.1,0.4-4.5,0.8c-0.7,0.2-1.7-0.2-2.1,0.1c0.8,0,2,0,2.3,0.5h-0.1c-0.8,0.8-2.5,0.4-4,0.4
				v0.3C1057.3,101.3,1057.3,101.4,1057.3,101.7"/>
			<path class="st2" d="M1059,36.9h-0.5c-0.5,0.4-1.2,0.5-1.6,0.9c-0.6,0.7-0.9,4.4-1.3,5.6c-1.1,3.8-1.5,8-2.6,11.8
				c-0.5,1.7-0.4,4.2-1.4,5.4c-0.1,1.2,0.2,1.4,1,1.8c0.2-0.3,0.6-0.3,0.9-0.5c0.7-0.5,1.1-1.3,1.9-1.6c1.4-7.5,2.8-15,4.3-22.5
				C1059.4,37.5,1059.2,37.2,1059,36.9"/>
			<path class="st2" d="M829.1,78.9c-0.7,0.1-1.7,1-2.4,0.5c-0.3,0-0.4,0-0.5-0.1c-0.3-0.4-0.4-2.1-0.3-2.9c0.1-0.4,0.4-1,0.5-1.3
				c0-0.4,0.1-0.8,0.1-1.3c0.3-0.8,1.1-1.7,1.4-2.5c-0.1-0.5-0.2-1-0.3-1.5c-0.4-0.1-0.7-0.2-0.9-0.4c-1.6,0.5-3.2,4.9-3.8,6.7
				c-0.2,0.6-0.1,1.3-0.4,1.8c0,1.8-1.3,1.5-2.1,2.4c-0.3,0-0.6,0-0.8-0.1c-0.3-0.1-0.4-0.2-0.6-0.4c0-2.1,0-4.3,0-6.4
				c-0.3-0.2-0.4-0.5-0.8-0.8c-0.1-0.1,0,0-0.3-0.1c-0.6,0.6-1.3,1.2-1.9,1.8c-0.3,0.6-0.3,1.2-0.6,1.8c-0.5,0.7-1.4,1.2-1.9,2h-0.1
				c0.8-3.2,2.4-6.4,3.8-9c0.5-0.9,0.7-1.9,1.3-2.8c0.8-1.4,1.8-2.9,2.5-4.4c0.7-1.6,1-3.2,1.6-4.8c0.6-1.5,1.3-3.2,1.8-4.8
				c0.3-1,0.1-2.1,0.4-3.1c0.2-0.8,0.4-1.6,0.4-2.6c-0.2-0.2-0.4-0.4-0.5-0.6c-2.6,0-3,4-3.8,6c-1.3,3.3-2.5,6.9-3.9,10
				c-0.2,0.8-0.4,1.6-0.6,2.4c-0.7,1.8-1.7,3.6-2.6,5.1c-0.2,0.3-0.2,0.7-0.4,1c-0.4,0.6-0.9,1.3-1.4,1.9c-0.3,0.2-0.5,0.4-0.8,0.6
				c-0.2,0.3-0.4,0.7-0.6,1c-0.3,0.2-0.5,0.4-0.8,0.6c-0.3,0.4,0,0.9,0.3,1.1c0.1,0.1,0.5,0,0.8,0.3h0.3c-0.8,1.6-1.9,4.7-1.9,6.9
				c0.5,0,0.9,0.1,1.4,0.1c1.3-0.4,4.1-2.8,4.8-3.9c0.5,0.3,0.2,1,0.4,1.5c0.2,0.8,0.7,1.5,1,2.3c0.9,0.2,2.4,0.7,3.5,0.3
				c0.5-0.2,0.7-0.7,1.1-1c0.4-0.3,1-0.5,1.3-1c0.7,0.2,0.8,1.1,1.4,1.5c0.2,0.1,0.3,0.1,0.5,0.3c2.1,0,4.6-1.3,5-3
				c0.1-0.1,0,0,0.1-0.3C829.6,79.4,829.3,79.2,829.1,78.9"/>
			<path class="st2" d="M802.6,48.1c-0.5,0.5-1.3,0.6-1.9,1c-0.4,0.3-0.6,0.7-0.9,1.1c-0.5,0.7-1.5,1.3-2,2c-0.7,1-1.2,2-1.9,3
				c-0.2,0.3-0.6,0.7-0.9,1c-0.6,0.8-0.9,1.7-1.5,2.5c-0.4,0.6-1.1,1.1-1.4,1.8c-0.6,1.2-0.7,2.6-1.3,3.9c-1.1,2.6-2.2,5.3-3.1,8.2
				c-0.4,1.3-0.9,5-0.4,6.7c0.2,0.5,0.6,1.2,0.8,1.6c0.2,0.5,0,1,0.3,1.4c0.4,0.7,2.5,2.1,3.4,2.4c1-0.1,1.9-0.2,2.9-0.3
				c1-0.3,1.5-0.9,2.3-1.4c-0.1-0.5-0.3-0.8-0.5-1.3c-1,0-3,0.3-3.6-0.3c-1.3-0.4-1.9-2.5-2.3-3.9v-0.9c-0.1-0.4-0.4-1.9-0.1-2.5
				c0.1-0.2,0.4-0.5,0.5-0.8v-1c0.3-0.9,1.9-2.3,2.5-3.1c1.6-2.2,3.2-4.5,4.6-6.8c0.6-0.9,0.8-2,1.4-2.9c0.9-1.4,2-2.7,2.6-4.3
				c0.1-0.4,0.2-0.8,0.3-1.3c0.3-0.9,0.8-2.1,1.1-3c0.2-0.4,0-1,0.3-1.4c0-0.5,0-1-0.1-1.4C803.2,48.3,803.1,48.2,802.6,48.1
				 M797,59.9c-1.1,2-2.6,3.8-3.8,5.6h-0.1c0.1-0.4,0.3-0.8,0.4-1.1c0.5-0.8,1.4-1.7,1.9-2.5c0.4-0.6,0.4-1.3,0.8-1.9
				c0.5-0.8,1.2-1.4,1.6-2.3C797.9,58,797.2,59.5,797,59.9"/>
			<path class="st2" d="M940.8,57.4c0.6-0.8,2.4-4.3,2-5.8c-0.2-0.7-0.6-1.3-1-1.9h-1.1c-0.6,0.3-1.2,0.6-1.8,0.9
				c-0.1,0.5-0.4,1.1-0.3,1.9c0.1,0.4,0.4,1.1,0.3,1.8c-0.2,0.7-0.8,1.3-1.1,2c-0.2,0.4-0.4,1.3-0.1,1.8
				C938.1,59.4,940.3,58,940.8,57.4"/>
			<path class="st2" d="M973.9,60.3c-0.7,0.2-1.4,0-1.9,0.4h-0.6c0.4-2,1.6-4.6,1-7c-0.4-1.7,0.1-2.9-1.6-3.3
				c-0.9,0.5-1.8,1.1-2.6,1.6c-0.3,0.8-0.5,1.5-0.8,2.3c-0.6,1.5-1.3,3.3-1.9,4.8c-0.4,0.9-0.4,2-1,2.8c-0.2,0.6-0.8,0.4-1.3,0.8
				c-0.6,0.4-0.9,1.3-1.3,2c0.2,0.2,0.4,0.5,0.5,0.9h1.1c-0.1,0.3-0.4,0.6-0.5,0.8c-0.1,1.7-0.3,3.4-0.4,5.1
				c-0.1,0.4-0.5,0.9-0.6,1.3c-0.2,0.6,0.6,2,0.8,2.5c0.1,0.5,0.2,0.9,0.3,1.4c0.6,1.2,2.7,2.2,4.5,1.5c0.8-0.5,1.5-1,2.3-1.5
				c-0.1-0.3-0.2-0.8-0.4-1v-0.3c-0.8,0-2.1,0.3-2.5,0c-1.2-0.4-0.8-2-1.5-3c0.1-1.1,0.9-1.4,1.4-2.1c0.7-1.1,2.8-4.7,2.9-6.1
				c1.9-0.4,4-1.2,5.8-1.8h0.8c0.7-0.2,1.5-0.4,2-0.8c0.3-0.3,0.5-0.6,0.8-0.9c-0.1-0.6-0.4-0.7-0.6-1.1
				C976.9,59.5,975.3,59.9,973.9,60.3 M966.9,65.6v0.3h-0.1c0.1-0.3,0.2-0.6,0.3-0.9C967.1,65.1,967.1,65.3,966.9,65.6 M968.8,60.7
				c-0.1,0.2-0.2,0.2-0.4,0.4h-0.3c0.1-1.6,1-2.8,1.3-4.3C969.9,57.5,969.1,60.3,968.8,60.7"/>
			<path class="st2" d="M766.1,70.3c0.1-1.6,1-2.7,1.5-4c0.8-2.1,1.1-4.6,1.8-6.8c0.3-1.1,0.6-3.8-0.1-4.5c0-1.5,0-1.3-0.8-2
				c-2,0.1-2.6,2.1-3.4,3.5c-1.5,2.8-2.3,6.5-3.5,9.5c-0.4,1.1-0.5,2.8-1.1,3.6v0.3c-2.5-1.4-4.6,0.7-5.8,2.3
				c-0.3,0.3-0.7,0.6-1,0.9c-0.3,0.4-0.5,0.8-0.8,1.3c-0.1,0.1-0.3,0.2-0.4,0.3c-0.8,1.2-1.5,2.7-2.1,4.1c0,0.3-0.1,0.5-0.1,0.8
				c-0.3,0.6-1.1,2.4-0.9,3.4c0.1,0.4,0.2,1.1,0.4,1.5c0.1,0.3,0.4,0.2,0.5,0.6c0.4,0.1,0.8,0.3,1.1,0.4c0.4-0.4,1.1-0.4,1.6-0.8
				c0.3-0.4,0.7-0.8,1-1.1c1.1-0.8,2.4-1.8,3.1-2.9c0.3,0.4,0.1,1,0.3,1.6c0.3,1.1,0.8,2.4,1.9,2.8v0.1c1.1,0,1.8-0.6,2.3-1.3
				c0.5-0.7-0.8-1.8-1-2.4c-0.1-0.3,0-0.5-0.1-0.6v-3.1c0.3-0.7,1.3-1.3,1.8-1.9c0.9-1.2,1.6-2.4,2.4-3.8c0.3-0.5,0.8-1,1-1.8H766.1
				z M754.2,79.9c-0.5,0.4-1.1,0.6-1.5,1h-0.1c0-2.1,0.9-3.3,1.8-4.5c0.3-0.2,0.5-0.4,0.8-0.6c0.2-0.4,0.3-0.8,0.5-1.1
				c0.5-0.4,1-0.8,1.5-1.3c0.3,0,0.7,0.1,0.9,0.3h0.3C757.9,76.2,755.9,78.6,754.2,79.9 M763.5,70.1c-0.3,0.5-0.4,1.1-0.9,1.5v0.1
				h-0.1c0.4-1.7,1.1-3.4,1.8-4.9c0.9-2.1,1.2-4.4,2-6.7c0.2-0.6,0.6-1.2,0.8-1.9c0.3,0.4-0.1,3.1-0.3,3.6
				C765.9,64.9,764.9,67.7,763.5,70.1"/>
			<path class="st2" d="M810,55.9c-0.2-0.8-0.7-1.3-1-1.9h-0.9c-0.7,0.3-1.3,0.6-2,0.9c-0.1,0.5-0.4,1.2-0.3,1.9
				c0.1,0.4,0.5,1.2,0.3,1.9c-0.2,0.7-1.9,2.7-1.3,3.6c0.2,0.6,1.1,0.9,1.6,0.4c1.7-0.1,2.8-3.5,3.4-5C810,57.3,810.2,56.4,810,55.9
				"/>
			<path class="st2" d="M850.1,70.3c0.4-0.7,1-1.7,1.1-2.6c1.9-0.2,3.9-1.1,5.5-1.6h0.8c1.3-0.3,2.3-0.7,2.9-1.8
				c0.1-0.2-0.3-0.8-0.6-1c-0.1-0.1-1.1,0-1.5,0.1c-1.5,0.5-3.7,1-5.4,1.1c0.1-1.6,0.6-3.1,1-4.6c0.5-2.1-0.4-3.9-0.6-5.4
				c-0.4,0-0.6-0.1-0.8-0.3c-0.6,0-2.8,1.3-3,1.6c-0.2,0.7-0.4,1.3-0.6,2c-0.8,2-1.6,4.2-2.4,6.1c-0.3,0.6-0.2,1.3-0.6,1.8
				c-0.3,0.4-0.9,0.4-1.3,0.6c-0.6,0.4-0.7,1.1-1.1,1.6c0,0.6,0.2,0.8,0.5,1.1c0.1,0.1,0.6,0,1,0c-0.1,0.6-0.4,0.9-0.5,1.4
				c-0.1,1.6-0.3,3.2-0.4,4.8c-0.1,0.5-0.8,1-0.6,1.6c0.1,0.6,0.7,1.6,0.9,2.3c0.1,0.4,0.2,0.8,0.3,1.3c0.6,1,2.9,2.1,4.6,1.3
				c0.7-0.3,1.3-1,2-1.4c-0.1-0.4-0.2-0.8-0.3-1.3c-0.9,0-1.9,0-2.6,0.1c-0.7-1.1-1.2-2.1-1.5-3.6C848.3,74.2,849,72.2,850.1,70.3
				 M850.7,60.7c0.5,0.7-0.2,3.3-0.5,3.6c-0.1,0.4-0.3,0.4-0.5,0.6h-0.3C849.9,63.5,850.3,62.1,850.7,60.7 M848.3,68.8h0.3
				c-0.2,0.3-0.3,0.5-0.4,1h-0.1C848.1,69.4,848.2,69.2,848.3,68.8"/>
			<path class="st2" d="M1036.2,66.6c-1.8-0.1-1.4,0.3-2.5,1c-0.4,0.2-0.8,0.1-1.1,0.4c-0.3-0.4-0.2-1.1-0.4-1.8
				c-0.3-1-0.6-2.1-0.9-3c-0.1-0.4,0.1-1-0.1-1.3v-1.3h0.1c0.1,0.4,0.3,0.7,0.4,1l0.1,1.6c0,0.1,0.6,0.2,0.8,0.4
				c0.8-0.1,1.1-0.6,1.9-0.8c0.6-2.5-0.5-5.9-2.4-6.8c-0.5,0.4-1.6,0.3-2.1,0.8c-2.2,0.8-2,6.8-1.4,9.3c0.2,0.7,0,1.6,0.4,2.1v0.6
				c-2.3,0.4-2.9,0.6-3.9,2.5c-0.2,0.4-0.5,0.7-0.6,1.4c-0.3-0.2-0.5-0.5-0.8-0.5c-1,0.1-1.1,0.6-1.6,1c-0.3,0.2-0.7,0.3-1.1,0.5
				c-0.8-1.7-0.1-4.1,0.4-5.6c0.2-0.7,0.2-1.6,0.6-2.1c0-0.5,0-0.7-0.3-0.9c-0.2-0.2-0.7-0.3-1-0.4c-0.5,0.5-1.1,1-1.6,1.4h-0.3
				c-0.1,0.4-0.3,0.8-0.4,1.1c-0.5,1.1-1.2,2.4-1.9,3.4c-0.9,1.2-2.5,1.6-3.4,2.5h-0.3c0.1-2.1,0.9-3.4,1.4-5v-0.8
				c0.1-0.5,0.9-2.2,1.1-2.5c0-1-0.3-1-0.6-1.5c-2.8,0.2-3.4,4.7-4.3,7c-0.2,0.6-0.1,1.4-0.5,1.9c-0.6,0.4-1.3,0.8-1.9,1.1
				c0.1,0.8,0.6,1.1,0.8,1.9c0.3,0,0.7-0.1,1-0.1c0.2,0.1,0.6,0.6,1,0.8c2,0.6,5.1-1.8,5.6-2.8h0.3c0.2,0.6,0.1,1.4,0.4,2
				c0.4,0.8,1.3,1,1.9,1.5c1.8,0,4.6-1.7,5.3-2.8c0.5,0.3,0.1,0.3,0.4,0.8c0,1.6,2.8,2.4,4.3,1.8c0.3-0.1,1-0.6,1.3-0.9
				c0.1-0.2,0.1-0.5,0.3-0.6c0.5-0.4,1.2-0.3,1.6-0.9c0.4-0.6,0.3-1.7,0.6-2.3v-1.1c0.1-0.3,0.7-0.5,1-0.8c0.6-0.5,1.4-0.9,2-1.4
				c0.3-0.2,0.4-0.6,0.8-0.8c0-0.5,0-0.8-0.3-1V66.6z M1029.1,73.3c-1.1,0-1.6-0.2-2.1-0.8h-0.1c0.5-0.4,1.5-0.3,2-0.6h0.3V73.3z"/>
			<path class="st2" d="M874.4,62.9c1.6,0,1.6-0.6,2.4-1.4c0-3.1-1.2-2.2-2-4.1h-1.5c-0.3,0.6-0.7,1.4-1.1,1.9
				C872.2,61.2,873.9,61.5,874.4,62.9"/>
			<path class="st2" d="M961.8,68.9c-2.1,0-1.5,0.6-2.6,1.1c-0.4,0.2-0.6,0-0.9,0.3c-0.5-0.3-0.3-1.1-0.5-1.8c-0.3-1-0.6-2.1-0.9-3
				c-0.1-0.5,0.1-1.1-0.1-1.4V63h0.1c0.1,0.4,0.3,0.7,0.4,1c0,0.5,0.1,1,0.1,1.5v0.1c0.7,0.9,2.2-0.2,2.8-0.5c0.3-1.5-0.4-4.4-1-5.4
				c-0.3-0.5-0.8-0.7-1.1-1.1h-0.6c-0.4,0.4-1.3,0.3-1.8,0.6c-2.3,0.7-2.2,6.7-1.5,9.3c0.2,0.7,0,1.6,0.4,2.1c0,0.3,0,0.5-0.1,0.6
				c-0.7,0.5-2,0.4-2.8,0.9c-0.5,0.3-1.4,2.1-1.6,2.6c0.1,1,0.2,2.1,0.3,3.1c1.5,0.7,3.1,1.8,5,0.5c0.3-0.4,0.6-0.8,0.9-1.1
				c0.6-0.4,1.3-0.4,1.6-1c0.5-0.8,0.2-2.8,0.6-3.4c0.5-0.8,1.8-1.2,2.6-1.8c0.4-0.3,0.6-0.7,1-1c0-0.4-0.1-0.8-0.3-1V68.9z
				 M954.7,75.7c-0.4,0-0.5,0.1-0.6,0c-0.9,0-0.9-0.4-1.5-0.6c0.3-0.6,1.5-0.4,2-0.8h0.1V75.7z"/>
			<path class="st2" d="M832.6,60.5c-0.5-0.8-1.3-0.5-1.6-1.8h-1.5c-0.2,0.6-0.7,1.5-1.1,1.9c0,1.8,1.6,2.6,2.4,3.8
				c1.2-0.1,1.4-0.6,2.1-1.1C833,62.3,833.1,61.2,832.6,60.5"/>
			<path class="st2" d="M681.8,76.3c0.2-0.4,0.6-0.9,0.8-1.3c0-0.3,0.1-0.6,0.1-0.9c0.2-0.3,0.4-0.4,0.5-1c2-0.4,4-1.2,5.8-1.8
				c0.7-0.2,1.2,0,1.8-0.3c0.3-0.1,0.8-0.4,1.1-0.6c0.3-0.2,0.3-0.6,0.6-0.8c-0.2-0.5-0.5-0.6-0.6-1.1c-2.3,0.4-4.7,0.8-7,1.3
				c0.3-2.5,1.6-5.4,0.8-8.4c-0.2-0.5-0.1-0.9-0.4-1.3c-0.2-0.4-0.6-0.4-0.9-0.6c-0.3,0.1-2.6,1.4-2.8,1.5c-0.3,0.8-0.5,1.5-0.8,2.3
				c-0.6,1.4-1,3-1.6,4.5c-0.4,1-1.1,2.2-1.3,3.4c-0.8,0.3-1.7,0.7-2.1,1.4c-0.2,0.3-0.2,0.6-0.4,0.9c0.1,0.6,0.3,0.7,0.5,1.1h1
				c-0.1,0.6-0.4,1-0.5,1.5c-0.2,0.9-0.1,2-0.3,2.8c-0.2,0.9,0.1,1.8-0.4,2.4c-0.4,1.2-1.8,1.3-2.9,1.8c-1.2,0.5-4.2,2.8-6.1,2
				c-0.5-0.2-0.9-1.2-1.3-1.4c-0.4-0.2-0.7,0.1-1-0.3c-0.3-0.4,0.1-1-0.1-1.5c-0.1-0.1-0.3-0.2-0.4-0.3c-0.5-1.2,0.6-2.8,0.9-3.4
				c0.1-0.3,0-0.8,0.3-1h0.3c0.3-0.3,0.8-0.7,1-1c0.5-0.8,0.6-2.3,1.4-2.8h0.5c0.2-0.2,0.3-0.4,0.5-0.6c0.5-0.3,1.3-0.3,2.1-0.3
				c0,0.3,0,0.4,0.1,0.5c-0.2,1.2-2.1,1.7-3,2.3c-0.2,0.1-0.3,0.5-0.5,0.6c0,1.9,1.9,1.2,2.9,0.6c1.4-0.9,3.2-2.2,3.6-4
				c0-0.4-0.1-0.8-0.1-1.1c-0.8-0.8-1.1-1.8-2.3-2.1c-1.4-0.4-2.2,0.7-2.9,1c-0.5,0.1-0.9,0.3-1.4,0.4c-1.2,0.7-2.7,3-3.5,4.1
				c-0.4,0.5-1,0.6-1.5,1c-0.5,0.3-1.1,1.1-1.4,1.6c-0.4,0.7-0.4,2-0.9,2.6v1.6c-0.4,0.1-0.8,0.3-1.3,0.4c-0.6,0.3-3,2-3.8,1.4h-0.3
				c-0.1-1.9,0-2.6,0.6-4c0.2-0.5,0.2-1,0.5-1.4c0.1-0.2,0.3,0,0.5-0.1c0.2-0.1,0.5-0.9,0.6-1.1c0.9-2.3-0.6-5-2.4-5.5
				c-1.9-0.6-4.1,1.1-4.8,1.9c-0.4,0.3-0.8,0.7-1.1,1c-0.4,0.6-0.5,1.3-0.9,2c-0.2,0.3-0.6,0.6-0.8,0.9c-0.5,1.3-1.1,2.5-1.6,3.8
				c-0.1,0.6-0.2,1.3-0.3,1.9c-0.4,1.4-0.6,3.4,0,4.8c0.2,0.5,0.7,0.6,1,1c1.9-0.1,2.8-1.1,3.8-2.1c0.3-0.3,0.6-0.5,0.9-0.8
				c0.4-0.5,0.5-1,1-1.4v-0.1h0.1c0.1,0.4,0.2,0.8,0.3,1.1c0.3,0.4,0.5,0.8,0.8,1.3c0.8,0,1.5-0.1,2.3-0.1c1.4-0.4,4.3-1.9,5-3
				c0.7,0.8,0.8,2.4,1.6,3c0.7,0.5,4.6,1.9,6.1,1.5c1.4-0.4,2.5-1.1,3.6-1.6c1.5-0.6,3.2-0.9,4.1-2.1c0.5,0.3,0.7,1.8,1.1,2.3
				c0.8,0.8,2.6,1.3,4,0.8c0.7-0.3,1.4-1,2.1-1.4c-0.1-0.5-0.2-0.9-0.3-1.4c-0.4,0-1-0.1-1.3,0.1c-2.8,0.1-1.7-1.4-2.8-2.8
				c0-1.6,0.9-1.8,1.5-2.8C681,78.2,681.3,77.3,681.8,76.3 M682.7,66.2c0.5,0.7-0.2,3.3-0.5,3.6c-0.2,0.4-0.4,0.4-0.6,0.6h-0.1
				C681.8,69,682.2,67.6,682.7,66.2 M653,78.2c-0.2,0.6-0.4,1.3-0.6,1.9c-0.6,1.3-1.5,2.3-2.3,3.4c-0.5,0.7-1.6,1.2-1.9,2.1
				c-0.3,0-0.4,0-0.5,0.1h-0.3c0-4,1.2-6.9,2.8-9.4c0.2-0.4,0.2-0.8,0.5-1.1c0.6-0.3,1.3-0.7,1.9-1c0.3,0,0.4,0,0.5,0.1
				c0.7,0.2,0.8,0.9,1.3,1.4C654.3,76.9,653.5,77.4,653,78.2 M680,75.3c0.1-0.4,0.2-0.8,0.3-1.1h0.3c-0.1,0.4-0.3,0.8-0.4,1.1H680z"
				/>
			<path class="st2" d="M1006.3,65.2c-0.2-0.6-0.6-1.4-0.8-2c0-0.4-0.1-0.8-0.1-1.3c-0.2-0.7-1-1.1-1.3-1.9h-1.1
				c-0.3,0.2-0.7,0.3-1,0.5c-0.4,0.3-0.9,1.2-1.1,1.6c0,0.5-0.1,0.9-0.1,1.4c-0.1,0.1-0.3,0.2-0.4,0.3c-0.6,0.8-1.2,1.7-1.8,2.5
				c-0.3,0.5-0.4,1-0.6,1.6c-0.5,1.1-1.1,2.5-1.6,3.6c-0.5,1.2-0.6,4.3,0.1,5v0.3c0.2,0,0.3-0.1,0.5-0.1c0.2,0.3,0.4,0.7,0.6,1
				c1.9,0,3.5-0.5,4.6-1.3c0.8-0.5,1.4-1.5,2.6-1.5c0.5-1,1.1-2,1.4-3.1c0.4-1.4,0.3-3.9,0-5.3V65.2z M1002.5,73.6
				c-0.5,0.2-1,0.7-1.5,0.9c-0.3,0.1-0.7,0-0.9,0.1c-0.4,0-0.6,0-0.9-0.1c0.1-1.6,0.3-3.3,0.8-4.5c0.1-0.3,0.5-0.5,0.6-0.8
				c0.3-0.5,0.3-1,0.6-1.5c0.5-0.8,1.3-1.6,1.5-2.5c0.5,0.6,0.1,1.7,0.4,2.6C1003.6,69.8,1002.8,71.9,1002.5,73.6"/>
			<path class="st2" d="M998.1,62.8c0.2-0.3,0.2-0.5,0.4-0.8c0-0.5-0.1-0.7-0.3-1c-0.3-0.1-0.6-0.1-1.1-0.1c-0.3,0.5-1,0.8-1.4,1.3
				c-0.6,0.8-1.1,1.7-1.8,2.5c-0.2,0.1-0.3,0.3-0.5,0.4c-0.4,0.6-0.6,1.3-1,1.9c-0.4,0.3-0.8,0.7-1.1,1c-0.2,0.3-0.1,0.5-0.3,0.9
				c-0.4,0.8-1.4,2.9-2.1,3.4v0.3h-0.1c0-1.7,0.3-6.9-0.3-7.9c-0.1-0.2-0.5-0.4-0.6-0.6c-1-0.1-1.2,0-1.6,0.8
				c-0.8,1.4-0.1,2.4-0.5,4.1c-0.4,1.6-0.5,5.5-0.1,7.3c0.1,0.5-0.2,0.8-0.1,1.1c0.1,0.6,0.5,1.1,0.8,1.5c1.9,0,3-2.7,3.8-3.9
				c0.5-0.8,1.2-1.6,1.6-2.5c0.3-0.8,0.4-1.6,0.9-2.3c0.2-0.3,0.5-0.3,0.8-0.5c0.4-0.3,0.8-1,1-1.4c0.7-1.1,1.1-2.3,1.9-3.4
				C996.8,64.1,997.7,63.5,998.1,62.8"/>
			<path class="st2" d="M935,73.2c-1.3,0-1.4,0.6-2.1,1c-0.4,0.1-0.8,0.2-1.1,0.3c-1.2,0.5-2.3,1.2-3.6,1.8c-0.6,0.3-1.6,1-2.8,0.6
				c-0.9-0.3-1.2-1.3-1.6-1.5c-0.2-0.1-0.7-0.1-0.9-0.1c-0.2-0.8-0.9-2.4-0.6-3.4c0.2-0.6,0.7-1.2,0.9-1.8c0-0.3,0.1-0.6,0.1-0.9
				c0.3-0.5,1.2-0.8,1.5-1.4c0.4-0.7,0.5-2.2,1.3-2.6h0.6c0.1-0.1,0.1-0.4,0.3-0.5c0.5-0.4,1.3-0.4,2.3-0.4c0,0.3,0,0.2,0.1,0.4
				c-0.2,1.5-1.9,1.7-2.9,2.4c-0.3,0.2-0.8,0.9-0.5,1.4c0.4,1.1,2.5,0.1,3-0.3c1.3-0.8,4.4-3,3.1-5.4c-0.4-0.9-1.4-1.2-2.1-1.8
				c-1.6,0-1.8,0.5-2.8,1c-0.6,0.3-1.2,0.2-1.6,0.5c-0.8,0.6-1.9,2.2-2.5,3c-0.9,1.2-2.6,2-3.4,3.1c-0.8,1.1-1.7,4-1.1,5.9
				c0.1,0.3,0.3,1,0.5,1.4c0.1,0.1,0.4,0.4,0.5,0.5c0.1,0.4,0.2,0.8,0.3,1.1c0.4,0.6,1.2,0.7,1.9,1c1.2,0.5,2.9,1.5,4.9,1
				c1.4-0.4,2.5-1.1,3.6-1.6c0.5-0.2,1-0.2,1.5-0.4c0.8-0.3,1.4-0.9,2-1.4c0.7-0.5,1.7-0.8,2.1-1.5c0.1-0.1,0,0,0.1-0.3
				c-0.2-0.2-0.5-0.8-0.6-1.1C935,73.3,935.2,73.3,935,73.2"/>
			<path class="st2" d="M947.9,62.3c-0.4,0-0.8-0.1-1.1-0.1c-0.6,0.5-1.5,0.8-2.1,1.3c-1,0.7-3,3.3-3.5,4.5c-0.2,0.5,0,1-0.3,1.6
				c-0.2,0.7-0.7,1.5-0.9,2.4c-0.7,2.6,0,5.8,1.5,6.8c0.3,0.2,0.5,0.1,0.9,0.3c0.4,0.1,1.2,0.4,1.9,0.3c1.4-0.4,2.6-1.4,4-1.8
				c-0.2-0.5,0.1-1.1-0.3-1.5c-1-1.3-2.6,0.5-3.9-0.5c-0.6-0.4-0.8-1.1-1.1-1.8c1.3-0.6,4.2-2.8,4.9-4c0.1-0.4,0.2-0.8,0.3-1.3
				c0.2-0.4,0.7-0.7,0.9-1.1c0-1.1-0.1-2.2-0.1-3.3C948.7,63.4,948.3,62.8,947.9,62.3 M945.9,68.4c-0.7,0.5-1.6,0.7-2.1,1.4h-0.3
				c0.3-0.6,0.5-1.3,0.8-1.9c0.4-0.6,1-0.9,1.3-1.9c0.2,0,0.4-0.1,0.6-0.1c0.1,0.6,0.2,1.3,0.3,1.9C946.3,68,946.1,68.3,945.9,68.4"
				/>
			<path class="st2" d="M843,73c-0.2-0.2-0.5-0.3-0.8-0.1c-1,0.1-0.9,0.5-1.5,0.9c-0.5,0.2-0.9,0.3-1.4,0.5
				c-0.3-0.8-0.2-1.7-0.5-2.6c-0.2-0.5-0.5-1.3-0.6-1.8c-0.2-0.7,0.1-1.8-0.3-2.4v-0.6h0.1c0.2,0.8,0.5,1.5,0.5,2.6
				c0.3,0.1,0.7,0.3,0.9,0.5c0.8-0.1,1.3-0.6,1.9-0.9c0.4-1.6-0.5-4.9-1.4-6c-0.2-0.3-0.8-0.5-1.1-0.6c-0.5,0.5-1.6,0.3-2.1,0.8
				c-2.3,1.5-2,6.7-1.3,9.7c0.2,0.7,0,1.7,0.4,2.3c-1,0.3-2,0.7-3,1c-0.6,0.4-0.7,1.3-1.1,2c-0.2,0.4-0.8,1.5-0.3,2.3v1.4
				c0.1,0.2,0.3,0.1,0.5,0.3c1.2,0.8,3.1,1.4,4.5,0.4c0.4-0.3,0.5-0.9,0.9-1.1c0.3-0.1,0.6-0.2,0.9-0.3c0.4-0.3,0.9-1.1,1.1-1.6
				c0.3-0.8-0.1-2,0.4-2.6c0.5-0.8,1.8-1.1,2.5-1.6c0.4-0.3,0.7-0.8,1.1-1.1C843.3,73.6,843.2,73.2,843,73 M836,79.6
				c-1,0-1.5-0.2-2-0.8h-0.1v-0.1c0.6-0.1,1.6-0.2,2-0.5h0.1V79.6z"/>
			<path class="st2" d="M894.7,63.8c-0.5,0.4-1.2,0.5-1.8,0.9c-1.4,0.9-3.3,3.3-4,4.8c-0.1,0.5-0.2,1-0.3,1.5
				c-0.2,0.6-0.6,1.3-0.8,1.9c-0.1,0.4,0,0.9-0.3,1.3v3.5c-0.1,0.3-0.7,0.2-1,0.4c-1.4,0.6-2.5,0.8-4.4,0.8
				c-0.3-0.3-0.6-0.5-0.9-0.8c0.1-2.7,1.1-4.9,1.3-7.4c-0.8-0.7-1.6-1.9-1.9-3c-0.4-1.3,0.4-2-0.4-2.8c-0.1-0.1-0.4-0.2-0.5-0.3
				c-1.3,0.1-1.5,1.2-2.3,1.8v2.5c-0.8,3-2.5,4.8-4.1,7c-0.4,0.6-1.8,2.4-2.5,2.1h-1c-0.4-1.8-0.2-2.9,0.3-4.4v-0.9
				c0.3-0.9,1.2-1.8,1.5-2.8c0.2-0.6-0.2-1-0.3-1.5c-0.3-0.1-0.6-0.2-0.8-0.4c-1.5,0.1-1.8,1.7-2.3,2.9c-0.8,1.9-3,5.7-1.8,8.7
				c0.3,0.7,1.1,1.2,1.5,1.8c1.4,0,2.9-0.4,3.8-1c0.2-0.2,0.5-0.6,0.8-0.8h0.5c0.3-0.1,0.9-0.4,1.3-0.6c0.8-0.6,1.6-2.3,2.3-3.1
				c0.8-1.1,1.9-2.1,2.3-3.5h0.3c0.1,0.1,0,0,0.1,0.1c-0.1,0.5-0.4,0.5-0.5,0.9v1c-0.3,1-0.6,2.1-0.9,3.1c-0.2,0.6-0.1,2.1,0.1,2.5
				c0.5,1.1,1.9,1.6,2.6,2.5c3.2-0.1,5.8-1.3,7.9-2.5c0.3,0,2,1.4,3.6,0.9c1.2-0.4,2.3-1.3,3.6-1.6c0.1-2.9-1.5-1.9-3.9-1.9
				c-0.1-0.2-0.3-0.3-0.5-0.4c0-0.4,0.2-0.7,0-1c-0.1-0.4-0.2-0.5-0.8-0.5v-0.1c1.1-0.3,4.1-2.8,4.6-3.6c0.3-0.5,0.2-1.2,0.5-1.8
				c0.2-0.3,0.6-0.4,0.8-0.8c0.4-1-0.2-4-0.5-4.4C896.1,64.2,895.4,63.9,894.7,63.8 M891.5,71.6h-0.1c0.2-1.5,1.5-3,2.3-4h0.3
				c0.1,0.4,0.2,1.1,0.4,1.4C894.1,70.5,892.2,70.6,891.5,71.6"/>
			<path class="st2" d="M864.1,67.6v-1c-0.3-0.6-1-1.3-1.4-2H862c-0.1,0.1-0.2,0.1-0.5,0.1c-0.6,0.6-1.5,1-1.9,1.9
				c0,0.5-0.1,1-0.1,1.5c-0.1,0.1-0.3,0.2-0.4,0.3c-0.5,0.8-1.1,1.5-1.6,2.3c-0.2,0.3-0.2,0.7-0.4,1c-0.8,1.4-1.5,3.2-2.1,4.8
				c-0.4,1-0.5,4,0.1,4.6c0.2,0.5,0.2,0.1,0.6,0.4c0.2,0.1,0.6,0.8,0.8,1c1.9,0,3.5-0.7,4.8-1.5c0.7-0.5,1.3-1.3,2.4-1.4
				c0.5-1,1-2.1,1.4-3.4c0.3-1.3,0.2-5.5-0.1-6.7C864.7,68.9,864.3,68.1,864.1,67.6 M861.1,78c-0.4,0.9-1.7,1.2-3.1,1.1
				c0-1.8,0.2-3.4,0.8-4.6c0.2-0.5,0.7-1,1-1.5c0.5-1,0.9-2.2,1.6-2.9c0.1-0.2,0-0.1,0.1-0.3C862.1,71.5,862.1,76.8,861.1,78"/>
			<path class="st2" d="M617.6,72.8c-2.2,0.2-5.4,4.1-6.1,5.9c-0.1,0.5-0.2,1.1-0.3,1.6c-0.1,0.4-0.5,1-0.6,1.4
				c-0.1,0.4,0,0.8-0.3,1.1v3c-0.5-0.2-1-0.1-1.6-0.3c-2.8-0.7-4.9-0.3-7.2,0.6c-0.4,0.2-0.8,0.1-1.1,0.4h-0.1
				c0.1-1.8,1.1-3.3,1.8-4.8c0.3-0.6,0.2-1,0.5-1.6c0.1-0.2,0.4-0.7,0.5-0.9c0.3-0.9,0.2-1.6,0.5-2.5c0.3-0.7,0.6-1.6,0.9-2.4
				c0.1-0.8,0.2-1.7,0.3-2.5c0.2-0.7,0.5-1.7,0.8-2.5c0.2-0.8,0.1-1.9,0.5-2.5c-0.1-0.6-0.6-0.9-1-1.1c-0.2,0.2-0.6,0.3-0.8,0.5
				c-1.2,1.5-1,4.7-1.6,6.8c-1.2,3.9-2.4,7.8-3.9,11.4c-0.3,0.7-0.3,1.4-0.6,2.1c-0.1,0.2-0.4,0.4-0.5,0.6c-0.2,0.6-0.1,1.3-0.5,1.8
				c0.1,1,0.7,1,1.3,1.5c1.8-0.1,3.6-1.1,5.1-1.5c0.3-0.1,0.6,0.1,0.8,0.1h1.6c0.7,0.2,1.5,1,2.4,0.4c1-0.1,1.5-1.2,2.3-1.6
				c0.1-0.2,0-0.1,0.1-0.3c0.3,1.2,2.3,2.9,4.3,2.3c0.1,0,0.4-0.3,0.5-0.4c1.1-0.5,2.2-0.9,3.3-1.4c0-3.8-2.3-0.8-3.9-1.9
				c-0.8-0.2-0.8-1-1.3-1.5c0.2-0.9,1.7-1.4,2.4-1.9c0.6-0.5,2-1.7,2.4-2.4c0.1-0.5,0.3-1,0.4-1.5c0.2-0.3,0.6-0.5,0.8-0.9
				c0.3-1-0.2-3.9-0.5-4.3C618.7,73.1,618.2,73.2,617.6,72.8 M616.5,79c-0.6,0.6-1.7,0.8-2.3,1.5H614c0.3-1.6,1.4-2.8,2.3-3.9h0.3
				c0.1,0.6,0.3,1.2,0.4,1.8C616.7,78.5,616.6,78.9,616.5,79"/>
			<path class="st2" d="M736.7,76.2c-1.9,0-2.1,1-3.6,1.4c-0.4-1-0.3-2.1-0.6-3.1c-0.1-0.4-0.4-0.9-0.5-1.3
				c-0.2-0.7,0.1-1.7-0.3-2.3v-0.6h0.1c0.2,0.5,0.4,2.2,0.6,2.5c0.8,1.2,1.9,0,2.8-0.5c0.1-2.1-0.7-6.1-2.8-6.4
				c-0.5,0.4-1.6,0.3-2.1,0.8c-2.4,1.7-1.8,9-0.8,11.9c-2.4,0.9-2.8,0.3-4,2.6c-0.3,0.6-0.6,0.8-0.5,1.6c-0.6,0.2-1.1,0.5-1.6,0.8
				c-1.2,0.5-2.5,0.5-3.9,0.4c-0.3-0.3-0.6-0.5-0.9-0.8c0-1.8,0.5-3.5,0.9-5c0.2-0.7,0-1.5,0.4-2c-0.2-1-1.5-2-1.9-3.3
				c-0.3-0.9,0.3-2.1-0.3-2.6c-0.2-0.5-0.4-0.2-0.8-0.5c-0.9,0.1-1.9,1.3-2.1,2c-0.3,0.4,0.2,1.3,0,2c-0.2,0.6-0.2,1.5-0.5,2
				c-0.8,1.6-2,2.8-2.9,4.1c-0.3,0.5-0.4,0.9-0.8,1.4c-0.5,0.4-0.9,0.8-1.4,1.3c-0.1,0.3-0.1,1-0.1,1.3c-0.3,0-0.4-0.1-0.6-0.1
				c-0.1-0.2-0.2-0.4-0.3-0.5c0-0.6,0.1-1.3,0.1-1.9c0-1,0.8-4.4,1.3-4.9c0-0.4,0-0.9-0.1-1.1c-0.2-0.2-0.7-0.3-1.1-0.4
				c-0.6,0.5-1.3,1-1.9,1.5c-0.4,0.6-0.5,1.2-0.8,1.9c-0.1,0.1-0.3,0.4-0.4,0.5c0,0.3-0.1,0.5-0.1,0.8c-0.4,0.7-1.2,1.2-1.6,1.8v0.3
				c-0.7,0.7-2.1,1.1-2.8,1.8h-0.1c0-2.4,0.9-3.5,1.4-5.3v-0.9c0.1-0.3,0.5-0.7,0.6-1c0.3-0.5,0.2-1.1,0.5-1.5
				c-0.1-0.7-0.3-0.7-0.6-1.1c-3,0-3.6,5.2-4.5,7.5c-0.1,0.4-0.2,0.8-0.3,1.3c-0.2,0.3-1.6,1.1-2,1.3c0.1,0.6,0.5,1.4,0.9,1.8
				c0.4,0.2,0.6-0.2,1,0c0.2,0.1,0.6,0.6,1,0.8c0.6,0.2,1.4-0.1,1.8-0.3c1.7-0.6,3-1.5,4-2.6c0.4,0.6,0.1,1.7,0.5,2.3
				c0.4,0.7,1.3,0.8,1.9,1.4c2.1,0,4-1.7,5.1-2.8h0.3c0.1-0.2,0.1-0.9,0.3-1.1c0.1-0.1,0.3-0.2,0.4-0.3c0.4-0.6,0.6-1.1,1-1.6
				c0.8-1.1,1.9-2.1,2.3-3.5h0.3v0.1h0.1c-0.1,0.3-0.1,0.5-0.3,0.6h-0.3c0,0.6-0.1,1.2-0.1,1.8c-0.4,1.4-1.4,3.9-0.5,5.4
				c0.6,1,1.8,1.4,2.5,2.3c2.4,0,4.1-0.8,5.8-1.5c0.6-0.3,1.4-0.3,1.8-0.8c1.5,0.4,2.7,1.5,4.5,0.4c0.4-0.3,0.8-1.1,1-1.3l0.8-0.1
				c0.4-0.2,0.9-0.9,1.1-1.4c0.3-0.7,0-2.1,0.4-2.8c0.5-0.8,1.7-1.2,2.5-1.8c0.4-0.3,0.8-0.8,1.3-1.1c-0.1-0.4-0.2-0.8-0.3-1.1
				C736.7,76.2,736.9,76.4,736.7,76.2 M729.7,83c-0.4,0.1-0.9,0.2-1.3-0.1c-0.1-0.1,0,0-0.1-0.3c0.2-0.2,0.3-0.4,0.5-0.6
				c0.2-0.2,0.5-0.2,0.9-0.3V83z"/>
			<path class="st2" d="M773.5,68.1c-0.5-0.1-0.7-0.2-1.3-0.3c-0.5,0.5-1.2,0.6-1.8,1c-1.2,0.9-3.3,3.4-3.9,4.9
				c-0.1,0.5-0.2,1.1-0.3,1.6c-1,2.8-1.9,7.1,0.8,8.9c0.5,0.4,1.6,1,2.8,0.6c1.3-0.6,2.6-1.2,3.9-1.8c0-0.6,0-1.2-0.3-1.5
				c-0.7-1.3-2.6,0.5-3.9-0.5c-0.5-0.3-0.6-1-1-1.4c0.2-0.9,2.3-1.9,3-2.4c0.6-0.5,1.6-1.5,1.9-2.3c0-0.3,0.1-0.6,0.1-0.9
				c0.2-0.4,0.7-0.7,0.9-1.1c0.3-1-0.1-3.7-0.4-4.3C773.9,68.6,773.7,68.3,773.5,68.1 M771.6,74c-0.7,0.6-1.8,0.8-2.4,1.5h-0.1
				c0.2-1.6,1.5-3,2.4-4c0.3,0.4,0.4,1.4,0.5,1.9C771.8,73.5,771.8,73.8,771.6,74"/>
			<path class="st2" d="M1052.7,68.4c-0.3-0.1-0.6-0.1-1-0.1c-0.5,0.5-1.4,0.8-1.8,1.4c-0.3,0.4-0.3,0.8-0.5,1.1
				c-0.2,0.2-0.4,0.3-0.6,0.5c-0.4,0.6-0.2,1.4-0.1,2.1c0.2,0.3,0.4,0.5,0.6,0.8c1.7-0.4,2.3-1.7,3.6-2.5c0.2-0.7,0.7-2,0.1-2.6
				C1053,68.7,1052.9,68.7,1052.7,68.4"/>
			<path class="st2" d="M632.1,79.6c-2,0-2,1-3.6,1.4c-0.4-1-0.3-2.1-0.6-3.1c-0.1-0.4-0.4-0.9-0.5-1.3c-0.2-0.7,0.1-1.8-0.3-2.4
				v-0.5h0.1c0.1,0.2,0.6,2.4,0.6,2.5c0.2,0.3,0.5,0.4,0.9,0.5c0.2,0.2,1.4-0.6,1.8-0.8c0.4-2-0.6-6.4-2.6-6.7
				c-0.5,0.4-1.6,0.3-2.1,0.8c-2.4,1.7-1.8,9-0.8,11.9c-2.4,0.9-2.8,0.3-4,2.6c-0.1,0.2-0.6,0.8-0.6,1c0,0.9,0.2,1.9,0.3,3
				c1.5,0.8,3.2,1.8,5.1,0.5c0.3-0.2,0.3-0.7,0.6-1c0.4-0.4,1.3-0.3,1.8-1c0.2-0.5,0.3-1,0.5-1.5c0.2-0.6-0.2-1.4,0.1-1.9
				c0.5-0.8,1.6-1.1,2.4-1.6c0.5-0.3,0.9-0.9,1.4-1.3c-0.1-0.4-0.2-0.8-0.3-1.1C632.1,79.6,632.2,79.7,632.1,79.6 M625.1,86.4
				c-0.1,0.1,0,0-0.1,0.1c-0.9,0-1.4-0.2-1.8-0.8c-0.2-0.1-0.1,0-0.3-0.1c0.6-0.2,1.4-0.4,2.1-0.5V86.4z"/>
			<path class="st2" d="M694.7,70.7c-0.4-0.1-0.8-0.3-1.3-0.4c-0.5,0.5-1.4,0.7-2,1.1c-1.4,1-2.2,2.5-3.1,3.9
				c-0.1,0.2-0.5,0.5-0.6,0.8c-0.1,0.6-0.2,1.2-0.3,1.8c-0.1,0.3-0.5,0.9-0.6,1.3c-0.5,1.3-0.6,5.2,0,6.4c0.3,0.5,0.8,0.9,1.3,1.3
				c0.5,0.4,1.8,1,3,0.6c1.3-0.6,2.5-1.2,3.8-1.8c0-0.6,0-1.1-0.3-1.4c-0.2-0.4-0.4-0.3-0.6-0.6c-0.9,0.1-2.4,0.7-3.1,0.1
				c-0.6-0.2-1-1.2-1.3-1.8c1.3-0.7,4.3-2.8,4.9-4c0.1-0.4,0.2-0.8,0.3-1.3c0.2-0.4,0.7-0.7,0.9-1.1c0.2-0.6,0-2.9-0.1-3.4
				C695.3,71.7,694.9,71.2,694.7,70.7 M692.9,75.8c-0.4,1.2-2,1.5-2.8,2.3h-0.1c0.7-1.6,1.4-2.8,2.4-4h0.3
				C692.7,74.7,693.1,75.6,692.9,75.8"/>
			<path class="st2" d="M901.3,72.7c-0.2-0.1-0.3-0.1-0.6-0.1c-0.3,0.3-0.9,0.3-1.3,0.5c-0.5,0.3-0.7,0.9-1.3,1.3
				c0.7,1.4,2.2,5.5,1.1,7.8c-0.1,0.2-1.3,1.3-1.5,1.5c0,0.8,0.3,0.8,0.6,1.3c0.7-0.1,1.1-0.6,1.6-0.9c2.2-1.4,2.8-2,3.5-4.9
				C904.1,76.7,902.6,73.1,901.3,72.7"/>
			<path class="st3" d="M1059,99.8h-0.6C1058.6,100,1058.8,100,1059,99.8"/>
		</g>
		<g class="st0">
			<defs>
				<rect id="SVGID_11_" x="588.7" y="31.3" width="489.1" height="81.5"/>
			</defs>
			<clipPath id="SVGID_6_">
				<use xlink:href="#SVGID_11_"  style="overflow:visible;"/>
			</clipPath>
		</g>
	</g>
</g>
<g>
	<g>
		<g>
			<rect x="122.2" y="21" class="st4" width="17.5" height="87.3"/>
			<polygon class="st4" points="167.2,21 157.1,21 157.1,108.4 174.6,108.4 174.6,33.8 			"/>
			<rect x="139.6" y="21" class="st5" width="17.5" height="87.3"/>
			<polygon class="st5" points="174.6,33.8 174.6,108.4 192,108.4 192,64.1 			"/>
			<polygon class="st4" points="192,64.1 192,108.4 209.5,108.4 209.5,94.3 			"/>
		</g>
		<g>
			<polygon class="st4" points="169.8,0 162.5,0 169.8,12.8 			"/>
			<polygon class="st5" points="187.3,43 187.3,0 169.8,0 169.8,12.8 			"/>
			<polygon class="st4" points="204.8,73.3 204.8,0 187.3,0 187.3,43 			"/>
		</g>
	</g>
	<g id="dessous_1_">
		<g>
			<path class="st4" d="M242.9,25.8h-7.1v24.9h-4.9V25.8h-7.1v-4.5h19.1V25.8z"/>
			<path class="st4" d="M253.8,25.8v7.9h10v4.5h-10v7.9h12.3v4.5h-17.3V21.3h17.3v4.5H253.8z"/>
			<path class="st4" d="M288.7,40.2c2,1.6,3,4,3,6.7v3.8h-4.9v-3.6c0-2.5-1.3-4.7-5-4.7h-4.7v8.3h-4.9V21.3h9.6c6.1,0,9.9,3.9,9.9,9
				v3.2C291.8,36.1,290.7,38.5,288.7,40.2z M281.8,37.9c3.8,0,5-2.2,5-4.7v-2.7c0-2.5-1.3-4.7-5-4.7h-4.7v12.1H281.8z"/>
			<path class="st4" d="M314.4,40.2c2,1.6,3,4,3,6.7v3.8h-4.9v-3.6c0-2.5-1.3-4.7-5-4.7h-4.7v8.3h-4.9V21.3h9.6c6.1,0,9.9,3.9,9.9,9
				v3.2C317.5,36.1,316.4,38.5,314.4,40.2z M307.5,37.9c3.8,0,5-2.2,5-4.7v-2.7c0-2.5-1.3-4.7-5-4.7h-4.7v12.1H307.5z"/>
			<path class="st4" d="M328.5,50.7h-4.9V21.3h4.9V50.7z"/>
			<path class="st4" d="M353.6,25.8h-7.1v24.9h-4.9V25.8h-7.1v-4.5h19.1V25.8z"/>
			<path class="st4" d="M377.8,29.6v12.8c0,5.1-3.7,8.9-9.8,8.9c-6.1,0-9.8-3.8-9.8-8.9V29.6c0-5.1,3.7-8.9,9.8-8.9
				C374.2,20.7,377.8,24.5,377.8,29.6z M363.2,30v12c0,2.5,1.1,4.7,4.9,4.7c3.8,0,4.9-2.2,4.9-4.7V30c0-2.5-1.1-4.7-4.9-4.7
				C364.3,25.2,363.2,27.5,363.2,30z"/>
			<path class="st4" d="M388.9,50.7H384V21.3h4.9V50.7z"/>
			<path class="st4" d="M411.5,40.2c2,1.6,3,4,3,6.7v3.8h-4.9v-3.6c0-2.5-1.3-4.7-5-4.7h-4.7v8.3H395V21.3h9.6c6.1,0,9.9,3.9,9.9,9
				v3.2C414.6,36.1,413.5,38.5,411.5,40.2z M404.6,37.9c3.8,0,5-2.2,5-4.7v-2.7c0-2.5-1.3-4.7-5-4.7h-4.7v12.1H404.6z"/>
			<path class="st4" d="M425.6,25.8v7.9h10v4.5h-10v7.9h12.3v4.5h-17.3V21.3h17.3v4.5H425.6z"/>
			<path class="st4" d="M457.8,31.8v-1.7c0-2.5-1.1-4.7-4.9-4.7c-3.6,0-4.8,2-4.8,4.5c0,3.3,4.6,3.5,8.7,5.1
				c3.6,1.2,5.9,3.8,5.9,7.3c0,5.1-3.6,9-9.8,9s-9.8-3.9-9.8-9v-1.5l4.9-0.4v1.5c0,2.5,1.1,4.7,4.9,4.7c3.6,0,4.8-2,4.8-4.5
				c0-3.3-5.2-3.7-8.7-5.1c-4.2-1.6-5.9-3.8-5.9-7.3c0-5.1,3.7-9,9.8-9s9.8,3.9,9.8,9v1.5L457.8,31.8z"/>
		</g>
		<g>
			<path class="st4" d="M264.9,108.4h-10.4V87.8l-5.5,20.5h-9.3l-5.5-20.5v20.5h-10.4V70.1h12.6l7.8,24.8h0.3l7.8-24.8h12.6V108.4z"
				/>
			<path class="st4" d="M282,79.7v4.8h11.1V94H282v4.8h13.8v9.6h-24.2V70.1h24.2v9.6H282z"/>
			<path class="st4" d="M343.6,108.4h-10.4V87.8l-5.5,20.5h-9.3L313,87.8v20.5h-10.4V70.1h12.6l7.8,24.8h0.3l7.8-24.8h12.6V108.4z"
				/>
			<path class="st4" d="M379,81.6v15.2c0,6.9-6.4,12.3-14.3,12.3c-8,0-14.3-5.4-14.3-12.3V81.6c0-6.9,6.3-12.3,14.3-12.3
				C372.6,69.3,379,74.7,379,81.6z M360.8,82.4V96c0,1.7,1,3.6,3.9,3.6c3,0,3.9-1.9,3.9-3.6V82.4c0-1.7-0.9-3.6-3.9-3.6
				C361.8,78.8,360.8,80.8,360.8,82.4z"/>
			<path class="st4" d="M396.2,108.4h-10.4V70.1h10.4V108.4z"/>
			<path class="st4" d="M431.6,87.3c0,3-1.2,5.7-3.1,7.8c1.9,2.2,3.1,4.9,3.1,7.8v5.4h-10.4v-4.9c0-1.7-1-3.6-4-3.6h-3.9v8.5H403
				V70.1h14.3c7.9,0,14.3,5.7,14.3,12.6V87.3z M417.2,90.3c3,0,4-1.9,4-3.6v-3.4c0-1.7-1-3.6-4-3.6h-3.9v10.7H417.2z"/>
			<path class="st4" d="M448.8,79.7v4.8h11.1V94h-11.1v4.8h13.8v9.6h-24.2V70.1h24.2v9.6H448.8z"/>
		</g>
		<polygon class="st6" points="258.4,117.6 244.4,141.9 230.3,117.6 		"/>
		<polygon class="st4" points="244.4,158.5 228.5,131 0,131 0,128.5 229.9,128.5 244.4,153.5 258.8,128.5 431.6,128.5 431.6,131 
			260.2,131 		"/>
		<g>
			<path class="st5" d="M442.9,59.7v2.6c0,1.2-0.9,2.1-2.3,2.1h-2.2v-6.7h2.2C442,57.6,442.9,58.5,442.9,59.7z M441.7,59.8
				c0-0.6-0.3-1.1-1.2-1.1h-1.1v4.7h1.1c0.9,0,1.2-0.5,1.2-1.1V59.8z"/>
			<path class="st5" d="M445.3,58.7v1.8h2.3v1h-2.3v1.8h2.8v1h-4v-6.7h4v1H445.3z"/>
			<path class="st5" d="M456.2,63.4v1h-3.9v-6.7h1.1v5.7H456.2z"/>
			<path class="st5" d="M460.9,63h-2.1l-0.4,1.4h-1.1l1.9-6.7h1.3l1.9,6.7h-1.1L460.9,63z M460.6,61.9l-0.7-3h0l-0.7,3H460.6z"/>
		</g>
		<g>
			<path class="st5" d="M442.1,131.7H440l-0.4,1.4h-1.1l1.9-6.8h1.3l1.9,6.8h-1.1L442.1,131.7z M441.8,130.7l-0.7-3h0l-0.7,3H441.8z
				"/>
			<path class="st5" d="M448,128.8v-0.4c0-0.6-0.3-1.1-1.1-1.1c-0.8,0-1.1,0.4-1.1,1c0,0.7,1.1,0.8,2,1.2c0.8,0.3,1.4,0.9,1.4,1.7
				c0,1.2-0.8,2.1-2.2,2.1s-2.3-0.9-2.3-2.1v-0.3l1.1-0.1v0.3c0,0.6,0.3,1.1,1.1,1.1c0.8,0,1.1-0.4,1.1-1c0-0.7-1.2-0.8-2-1.2
				c-1-0.4-1.3-0.9-1.4-1.7c0-1.2,0.8-2.1,2.2-2.1c1.4,0,2.2,0.9,2.2,2.1v0.3L448,128.8z"/>
			<path class="st5" d="M453,126.4c1.3,0,2,0.9,2,1.9c0,0.6-0.2,1.1-0.7,1.4c0.6,0.3,0.9,0.9,0.9,1.5c0,1.1-0.8,1.9-2,1.9h-2.5v-6.8
				H453z M451.7,129.2h1.2c0.7,0,1-0.4,1-0.9c0-0.5-0.3-0.9-1-0.9h-1.2V129.2z M453.1,132.1c0.7,0,1-0.4,1-0.9c0-0.5-0.3-0.9-1-0.9
				h-1.4v1.8H453.1z"/>
			<path class="st5" d="M460.4,132.1v1h-3.9v-6.8h1.1v5.7H460.4z"/>
		</g>
		<path class="st5" d="M288.2,66H280l4.9-8.4h8.1L288.2,66z"/>
	</g>
</g>
<rect x="467.1" y="128.6" class="st4" width="732.9" height="2.3"/>
</svg>
