<?xml version="1.0" encoding="utf-8"?>
<!-- Generator: Adobe Illustrator 22.1.0, SVG Export Plug-In . SVG Version: 6.00 Build 0)  -->
<svg version="1.1" id="Calque_1" xmlns="http://www.w3.org/2000/svg" xmlns:xlink="http://www.w3.org/1999/xlink" x="0px" y="0px"
	 viewBox="0 0 430 204.2" style="enable-background:new 0 0 430 204.2;" xml:space="preserve">
<style type="text/css">
	.st0{clip-path:url(#SVGID_2_);}
	.st1{clip-path:url(#SVGID_4_);fill-rule:evenodd;clip-rule:evenodd;fill:#E2001A;}
	.st2{clip-path:url(#SVGID_4_);fill-rule:evenodd;clip-rule:evenodd;}
	.st3{clip-path:url(#SVGID_4_);fill-rule:evenodd;clip-rule:evenodd;fill:#FFFFFF;}
	.st4{fill:#003B5D;}
	.st5{fill:#BFCED5;}
	.st6{fill:#DD0029;}
	.st7{clip-path:url(#SVGID_8_);}
	.st8{clip-path:url(#SVGID_10_);fill-rule:evenodd;clip-rule:evenodd;fill:#E2001A;}
	.st9{clip-path:url(#SVGID_10_);fill-rule:evenodd;clip-rule:evenodd;}
	.st10{clip-path:url(#SVGID_10_);fill-rule:evenodd;clip-rule:evenodd;fill:#FFFFFF;}
	.st11{clip-path:url(#SVGID_14_);}
	.st12{clip-path:url(#SVGID_16_);fill-rule:evenodd;clip-rule:evenodd;fill:#E2001A;}
	.st13{clip-path:url(#SVGID_16_);fill-rule:evenodd;clip-rule:evenodd;}
	.st14{clip-path:url(#SVGID_16_);fill-rule:evenodd;clip-rule:evenodd;fill:#FFFFFF;}
</style>
<g>
	<g>
		<defs>
			<rect id="SVGID_1_" x="0" y="135.8" width="430" height="71.7"/>
		</defs>
		<clipPath id="SVGID_2_">
			<use xlink:href="#SVGID_1_"  style="overflow:visible;"/>
		</clipPath>
		<g class="st0">
			<defs>
				<rect id="SVGID_3_" x="0" y="135.8" width="430" height="71.7"/>
			</defs>
			<clipPath id="SVGID_4_">
				<use xlink:href="#SVGID_3_"  style="overflow:visible;"/>
			</clipPath>
			<path class="st1" d="M411.9,197.8c0.8,0,3.3,0.1,3.8,0.4h-0.8c0,0.2-0.1,0.4-0.1,0.7c-3.5,0-6.6-0.8-10.3-0.9
				c0,0.1-0.1,0.3-0.1,0.4h0.8c0.5,0.4,1.5,0,2.2,0.2c0.8,0.2,1.9,0,2.9,0.2c1.2,0.3,2.7,0.3,4.1,0.3v0.1h-0.2
				c-0.2,0.1-0.7,0.2-0.9,0.2v0.3c-1.4,0-3-0.2-4.2-0.4H408c-1-0.2-2.4-0.3-3.4-0.4c-0.6-0.1-3.1-0.2-3.4,0c0.8,0,2.8,0,3.2,0.3
				c-3,0-6.5,0.2-9.2-0.4h-1.3c-0.9-0.2-2.2-0.1-3.1-0.3h-3.2c-1.3,0-3.5,0.1-4.7-0.2c-1.1-0.3-2.6,0.1-3.5-0.1
				c-5.1-0.1-10.3-0.2-15.4-0.3c-1-0.2-2.6-0.1-3.8-0.1h-6.9h-5.3c-1,0.2-2.8,0.2-3.9,0.2h-1.5c-1.1,0.3-2.5,0-3.6,0.2
				c-0.4,0.1-1.2,0-1.8,0.1c-2.7,0.6-6.1,0-8.7,0.7c-1.1,0-2.2,0.1-3.3,0.1c-0.9,0.2-2.2,0-3.2,0.2c-2.7,0.6-6.1,0.1-8.7,0.8
				c-0.9,0-1.8,0.1-2.8,0.1c-2.3,0.6-5.1,0.2-7.4,0.8h-1.2c-1.7,0.4-3.8,0.3-5.4,0.7h-1.1c-0.9,0.2-2,0.1-3,0.3
				c-1.2,0.3-2.8,0.5-4.2,0.6v-0.2c0.3-0.2,0.4-0.4,0.6-0.7c-1.1-0.1-3.1,0.3-4.4,0c-0.7-0.2-1.5-0.3-2.1-0.4
				c-0.1-0.3-0.2-0.4-0.2-0.8h0.2c0.5-0.4,2-0.4,2.9-0.4l-0.1-0.2h0.6c0.6-0.4,1.7-0.1,2.5-0.3c1.8-0.3,3.6-0.6,5.4-0.9v-0.1
				c-1.7,0-3.4,0-4.7,0.3h-1c-1.3,0.3-3.3,0.5-4.7,0.2c-0.1-0.2-0.1-0.2-0.1-0.4c0.3-0.2,0.5-0.3,0.7-0.7h0.1v-0.1h-0.2
				c-0.4-0.3-1.5,0-1.9,0.1h-0.9c-1.1,0.3-2.7,0.6-3.9,0.4V198c0.4-0.1,0.4-0.3,0.8-0.4v-0.1c-1.4,0-3,0.1-4.2,0.4h-0.9
				c-0.9,0.2-2.1,0.3-3,0.6c-1.6,0.2-3.2,0.4-4.7,0.7c-1.2,0.3-2.6,0.6-4,0.7c-0.2-0.3-0.2-0.2-0.3-0.6h0.2c0.6-0.5,1.4-0.3,2.3-0.6
				c1.6-0.4,3.6-0.6,5.2-1c0.4,0,0.9-0.1,1.3-0.1c3.7-1,7.9-0.9,11.7-1.9c1.1-0.3,2.2-0.2,3.2-0.4h0.9c1-0.3,2.4-0.3,3.4-0.6h0.9
				c1.4-0.4,3.2-0.3,4.6-0.7h1c3-0.7,6.5-0.4,9.5-1.1c0.8-0.2,1.7,0,2.4-0.2h1.2c0.7-0.2,1.8-0.2,2.5-0.3c1.4-0.1,2.8-0.1,4.2-0.2
				c2.5-0.6,5.5-0.1,7.9-0.7c0.5-0.1,1.4,0,1.8-0.1c1.4,0,2.7-0.1,4.1-0.1c2.2-0.5,5.2,0.1,7.4-0.4h3.1c1-0.2,2.6,0.2,3.8-0.1
				c1.4-0.3,3.6,0.2,5.1-0.1c0.8-0.2,2.1-0.1,3.1-0.1h6h6.6c1.1,0,2.4-0.1,3.3,0.1c1.5,0.4,3.7-0.2,5.2,0.1h1.8
				c1.5,0,3.8-0.1,5.1,0.2h2.6c0.6,0.1,1.7-0.1,2.4,0.1c1.9,0.5,4.3,0,6.2,0.4c2.3,0.1,4.6,0.2,6.8,0.3c0.9,0.2,2.1,0.1,3,0.3h1.3
				c0.8,0.2,1.9,0,2.8,0.2c3.2,0.8,7.3,0.3,10.5,1.1h1.1c2.2,0.5,5,0.3,6.8,1.1v0.1c-0.9,0.1-2.4,0.1-3.3,0.3
				c-0.5,0.1-1.2-0.1-1.5,0.1c0.4,0,1.6,0.2,1.9,0.4h-0.1c-0.9,0.7-2.7,0.4-4,0.7c-0.6,0.1-1.5-0.2-1.9,0.1c0.7,0,1.8,0,2,0.4h-0.1
				c-0.7,0.7-2.2,0.4-3.5,0.3v0.2C411.9,197.4,411.9,197.5,411.9,197.8"/>
			<path class="st2" d="M413.5,140.8H413c-0.4,0.3-1.1,0.4-1.4,0.8c-0.6,0.7-0.8,3.8-1.1,5c-0.9,3.3-1.3,7.1-2.3,10.4
				c-0.4,1.5-0.4,3.7-1.2,4.7c0,1.1,0.2,1.3,0.9,1.5c0.2-0.2,0.5-0.3,0.8-0.4c0.6-0.4,1-1.1,1.7-1.4c1.3-6.6,2.5-13.2,3.8-19.7
				C413.8,141.3,413.7,141.1,413.5,140.8"/>
			<path class="st2" d="M211.4,177.7c-0.6,0.1-1.5,0.9-2.1,0.4c-0.3,0-0.3,0-0.4-0.1c-0.3-0.3-0.4-1.9-0.2-2.5
				c0.1-0.3,0.4-0.8,0.4-1.1c0-0.4,0.1-0.7,0.1-1.1c0.3-0.7,1-1.5,1.2-2.2c-0.1-0.4-0.1-0.9-0.2-1.3c-0.3-0.1-0.6-0.1-0.8-0.3
				c-1.4,0.4-2.8,4.3-3.3,5.8c-0.2,0.5-0.1,1.1-0.3,1.5c0,1.6-1.1,1.4-1.9,2.1c-0.3,0-0.5,0-0.7-0.1c-0.3-0.1-0.3-0.2-0.6-0.3
				c0-1.8,0-3.8,0-5.6c-0.2-0.2-0.4-0.5-0.7-0.7c-0.1-0.1,0,0-0.2-0.1c-0.6,0.5-1.1,1-1.7,1.5c-0.3,0.5-0.2,1.1-0.6,1.5
				c-0.4,0.6-1.2,1.1-1.7,1.8h-0.1c0.7-2.8,2.1-5.6,3.3-7.9c0.4-0.8,0.6-1.7,1.1-2.4c0.7-1.2,1.6-2.5,2.2-3.9
				c0.6-1.4,0.8-2.8,1.4-4.2c0.5-1.3,1.1-2.8,1.5-4.2c0.3-0.9,0.1-1.8,0.3-2.8c0.2-0.7,0.4-1.4,0.3-2.3c-0.2-0.1-0.3-0.4-0.4-0.6
				c-2.3,0-2.6,3.5-3.3,5.3c-1.1,2.9-2.2,6.1-3.4,8.8c-0.2,0.7-0.4,1.4-0.6,2.1c-0.6,1.5-1.5,3.2-2.3,4.5c-0.2,0.3-0.2,0.6-0.3,0.9
				c-0.3,0.6-0.8,1.1-1.2,1.7c-0.2,0.2-0.4,0.4-0.7,0.6c-0.2,0.3-0.3,0.6-0.6,0.9c-0.2,0.2-0.4,0.4-0.7,0.6c-0.2,0.4,0,0.8,0.2,1
				c0.1,0.1,0.4,0,0.7,0.2h0.2c-0.7,1.4-1.6,4.1-1.7,6.1c0.4,0,0.8,0.1,1.2,0.1c1.1-0.3,3.6-2.5,4.2-3.4c0.4,0.2,0.2,0.8,0.3,1.3
				c0.2,0.7,0.6,1.3,0.9,2c0.8,0.2,2.1,0.6,3.1,0.2c0.4-0.2,0.7-0.6,1-0.9c0.4-0.3,0.8-0.5,1.1-0.9c0.6,0.2,0.7,1,1.2,1.3
				c0.2,0.1,0.3,0.1,0.4,0.2c1.8,0,4-1.1,4.4-2.6c0.1-0.1,0,0,0.1-0.2C211.8,178.2,211.5,177.9,211.4,177.7"/>
			<path class="st2" d="M188.1,150.6c-0.5,0.4-1.2,0.5-1.7,0.9c-0.3,0.2-0.5,0.7-0.8,1c-0.5,0.6-1.3,1.1-1.8,1.8
				c-0.6,0.9-1.1,1.8-1.7,2.6c-0.2,0.3-0.6,0.6-0.8,0.9c-0.5,0.7-0.8,1.5-1.3,2.2c-0.3,0.5-0.9,1-1.2,1.5c-0.5,1-0.6,2.3-1.1,3.4
				c-1,2.3-1.9,4.6-2.8,7.2c-0.4,1.2-0.8,4.4-0.3,5.8c0.1,0.5,0.5,1,0.7,1.4c0.2,0.4,0,0.9,0.2,1.2c0.4,0.6,2.2,1.8,3,2.1
				c0.8-0.1,1.7-0.1,2.5-0.2c0.8-0.2,1.4-0.8,2-1.2c-0.1-0.4-0.3-0.7-0.4-1.1c-0.9,0-2.7,0.2-3.2-0.2c-1.1-0.4-1.7-2.2-2-3.4v-0.8
				c-0.1-0.4-0.3-1.7-0.1-2.2c0.1-0.2,0.4-0.4,0.4-0.7v-0.9c0.3-0.8,1.7-2.1,2.2-2.8c1.4-1.9,2.8-3.9,4.1-6c0.5-0.8,0.7-1.7,1.2-2.5
				c0.8-1.2,1.7-2.4,2.3-3.8c0.1-0.4,0.1-0.7,0.2-1.1c0.3-0.8,0.7-1.8,1-2.6c0.1-0.4,0-0.9,0.2-1.2c0-0.4,0-0.9-0.1-1.2
				C188.6,150.8,188.5,150.7,188.1,150.6 M183.1,161c-0.9,1.7-2.3,3.3-3.3,5h-0.1c0.1-0.3,0.2-0.7,0.3-1c0.5-0.7,1.2-1.5,1.7-2.2
				c0.3-0.5,0.3-1.1,0.7-1.7c0.4-0.7,1.1-1.3,1.4-2C183.9,159.3,183.3,160.7,183.1,161"/>
			<path class="st2" d="M309.5,158.8c0.5-0.7,2.1-3.8,1.8-5.1c-0.2-0.6-0.6-1.2-0.9-1.7h-1c-0.5,0.3-1,0.5-1.5,0.8
				c-0.1,0.4-0.4,1-0.2,1.7c0.1,0.4,0.4,1,0.2,1.5c-0.2,0.6-0.7,1.2-1,1.8c-0.2,0.4-0.4,1.2-0.1,1.5
				C307.2,160.5,309.1,159.4,309.5,158.8"/>
			<path class="st2" d="M338.7,161.4c-0.6,0.2-1.2,0-1.7,0.3h-0.6c0.4-1.8,1.4-4,0.9-6.2c-0.3-1.5,0.1-2.6-1.4-2.9
				c-0.8,0.5-1.5,1-2.3,1.4c-0.2,0.7-0.4,1.3-0.7,2c-0.6,1.3-1.1,2.9-1.7,4.2c-0.3,0.8-0.4,1.8-0.9,2.4c-0.2,0.5-0.7,0.4-1.1,0.7
				c-0.5,0.4-0.8,1.1-1.1,1.8c0.2,0.2,0.4,0.5,0.4,0.8h1c-0.1,0.2-0.4,0.5-0.4,0.7c-0.1,1.5-0.2,3-0.3,4.5c-0.1,0.4-0.5,0.8-0.6,1.1
				c-0.2,0.5,0.5,1.8,0.7,2.2c0.1,0.4,0.1,0.8,0.2,1.2c0.6,1.1,2.4,1.9,4,1.3c0.7-0.4,1.3-0.9,2-1.3c-0.1-0.3-0.2-0.7-0.3-0.9v-0.2
				c-0.7,0-1.8,0.3-2.2,0c-1.1-0.4-0.7-1.8-1.3-2.6c0.1-1,0.8-1.3,1.2-1.9c0.7-0.9,2.5-4.2,2.5-5.4c1.7-0.4,3.5-1.1,5.1-1.5h0.7
				c0.6-0.2,1.3-0.3,1.8-0.7c0.2-0.3,0.4-0.5,0.7-0.8c-0.1-0.5-0.3-0.6-0.6-1C341.3,160.6,339.9,161,338.7,161.4 M332.5,166v0.2
				h-0.1c0.1-0.3,0.1-0.5,0.2-0.8C332.7,165.6,332.7,165.8,332.5,166 M334.1,161.7c-0.1,0.2-0.2,0.2-0.3,0.3h-0.2
				c0.1-1.4,0.8-2.5,1.1-3.8C335.2,158.9,334.4,161.4,334.1,161.7"/>
			<path class="st2" d="M156,170.2c0.1-1.4,0.9-2.4,1.3-3.5c0.7-1.9,1-4,1.5-6c0.3-1,0.5-3.4-0.1-4c0-1.3,0-1.2-0.7-1.8
				c-1.7,0.1-2.3,1.9-3,3.1c-1.3,2.5-2.1,5.7-3.1,8.4c-0.4,0.9-0.4,2.5-1,3.2v0.2c-2.2-1.3-4.1,0.6-5.1,2c-0.3,0.3-0.6,0.5-0.9,0.8
				c-0.3,0.4-0.4,0.7-0.7,1.1c-0.1,0.1-0.2,0.1-0.3,0.2c-0.7,1.1-1.4,2.4-1.9,3.6c0,0.2-0.1,0.4-0.1,0.7c-0.2,0.6-1,2.1-0.8,3
				c0.1,0.3,0.1,1,0.3,1.3c0.1,0.2,0.3,0.2,0.4,0.6c0.3,0.1,0.7,0.2,1,0.3c0.4-0.4,1-0.3,1.4-0.7c0.3-0.3,0.6-0.7,0.9-1
				c0.9-0.7,2.1-1.5,2.8-2.5c0.3,0.4,0.1,0.9,0.2,1.4c0.3,1,0.7,2.1,1.7,2.4v0.1c1,0,1.6-0.6,2-1.1c0.4-0.6-0.7-1.6-0.9-2.1
				c-0.1-0.2,0-0.4-0.1-0.6v-2.8c0.3-0.6,1.1-1.1,1.5-1.7c0.8-1.1,1.4-2.1,2.1-3.3c0.3-0.5,0.7-0.9,0.9-1.5H156z M145.5,178.6
				c-0.4,0.3-1,0.5-1.3,0.9h-0.1c0-1.8,0.8-2.9,1.5-4c0.2-0.2,0.4-0.4,0.7-0.6c0.2-0.3,0.2-0.7,0.4-1c0.4-0.4,0.9-0.7,1.3-1.1
				c0.3,0,0.6,0.1,0.8,0.2h0.2C148.7,175.3,147,177.5,145.5,178.6 M153.7,170c-0.3,0.5-0.4,1-0.8,1.3v0.1h-0.1c0.3-1.5,1-3,1.5-4.3
				c0.8-1.9,1.1-3.9,1.8-5.8c0.2-0.5,0.5-1.1,0.7-1.7c0.2,0.3-0.1,2.7-0.2,3.2C155.8,165.4,154.9,167.9,153.7,170"/>
			<path class="st2" d="M194.6,157.5c-0.2-0.7-0.6-1.1-0.9-1.7h-0.8c-0.6,0.3-1.2,0.5-1.8,0.8c-0.1,0.5-0.4,1-0.2,1.7
				c0.1,0.4,0.4,1.1,0.2,1.7c-0.2,0.6-1.7,2.4-1.1,3.2c0.2,0.6,1,0.8,1.4,0.3c1.5-0.1,2.5-3.1,3-4.4
				C194.6,158.7,194.7,158,194.6,157.5"/>
			<path class="st2" d="M229.8,170.2c0.3-0.6,0.9-1.5,1-2.3c1.7-0.1,3.4-1,4.9-1.4h0.7c1.1-0.3,2.1-0.6,2.5-1.5
				c0.1-0.2-0.3-0.7-0.6-0.9c-0.1-0.1-1,0-1.3,0.1c-1.3,0.4-3.3,0.9-4.7,1c0.1-1.4,0.6-2.7,0.9-4.1c0.4-1.8-0.4-3.5-0.6-4.7
				c-0.3,0-0.5-0.1-0.7-0.2c-0.5,0-2.5,1.1-2.6,1.4c-0.2,0.6-0.4,1.2-0.6,1.8c-0.7,1.7-1.4,3.7-2.1,5.4c-0.2,0.5-0.2,1.1-0.6,1.5
				c-0.3,0.3-0.8,0.3-1.1,0.6c-0.5,0.3-0.6,1-1,1.4c0,0.5,0.2,0.7,0.4,1c0.1,0,0.5,0,0.9,0c-0.1,0.5-0.3,0.8-0.4,1.2
				c-0.1,1.4-0.2,2.8-0.3,4.2c-0.1,0.4-0.7,0.9-0.6,1.4c0.1,0.6,0.6,1.4,0.8,2c0.1,0.4,0.1,0.7,0.2,1.1c0.6,0.9,2.6,1.9,4.1,1.1
				c0.6-0.3,1.2-0.9,1.8-1.2c-0.1-0.4-0.1-0.7-0.2-1.1c-0.8,0-1.7,0-2.3,0.1c-0.6-0.9-1.1-1.8-1.3-3.2
				C228.3,173.6,228.9,171.8,229.8,170.2 M230.3,161.7c0.4,0.6-0.2,2.9-0.4,3.2c-0.1,0.4-0.2,0.3-0.4,0.6h-0.2
				C229.6,164.2,230,162.9,230.3,161.7 M228.2,168.9h0.2c-0.1,0.3-0.3,0.5-0.3,0.9H228C228.1,169.3,228.2,169.2,228.2,168.9"/>
			<path class="st2" d="M393.4,166.9c-1.6-0.1-1.2,0.3-2.2,0.9c-0.3,0.2-0.7,0.1-1,0.3c-0.3-0.4-0.2-1-0.3-1.5
				c-0.2-0.8-0.6-1.8-0.8-2.6c-0.1-0.4,0.1-0.8-0.1-1.1v-1.1h0.1c0.1,0.3,0.3,0.6,0.3,0.9l0.1,1.4c0,0.1,0.5,0.2,0.7,0.3
				c0.7-0.1,1-0.5,1.7-0.7c0.5-2.2-0.4-5.2-2.1-6c-0.5,0.4-1.4,0.3-1.9,0.7c-1.9,0.7-1.8,6-1.2,8.2c0.2,0.6,0,1.4,0.3,1.9v0.6
				c-2.1,0.4-2.6,0.6-3.4,2.2c-0.2,0.4-0.5,0.7-0.6,1.2c-0.3-0.2-0.5-0.4-0.7-0.4c-0.9,0.1-0.9,0.5-1.4,0.9c-0.3,0.2-0.7,0.3-1,0.4
				c-0.7-1.5-0.1-3.6,0.3-5c0.2-0.6,0.2-1.4,0.6-1.9c0-0.4,0-0.6-0.2-0.8c-0.2-0.2-0.6-0.3-0.9-0.3c-0.4,0.4-1,0.8-1.4,1.2h-0.2
				c-0.1,0.3-0.2,0.7-0.3,1c-0.4,1-1,2.1-1.7,3c-0.8,1-2.2,1.4-3,2.2h-0.2c0-1.9,0.8-3,1.2-4.4v-0.7c0.1-0.4,0.8-1.9,1-2.2
				c0-0.9-0.2-0.9-0.6-1.3c-2.5,0.2-3,4.2-3.8,6.2c-0.2,0.5-0.1,1.2-0.4,1.7c-0.6,0.3-1.1,0.7-1.7,1c0.1,0.7,0.5,1,0.7,1.7
				c0.3,0,0.6-0.1,0.9-0.1c0.2,0.1,0.5,0.6,0.9,0.7c1.7,0.5,4.5-1.6,5-2.4h0.2c0.2,0.5,0.1,1.2,0.3,1.8c0.3,0.7,1.1,0.9,1.7,1.3
				c1.6,0,4-1.5,4.6-2.4c0.4,0.2,0.1,0.3,0.3,0.7c0,1.4,2.5,2.1,3.8,1.5c0.3-0.1,0.9-0.5,1.1-0.8c0.1-0.1,0.1-0.4,0.2-0.6
				c0.4-0.4,1.1-0.2,1.4-0.8c0.3-0.5,0.2-1.5,0.6-2v-1c0.1-0.3,0.6-0.5,0.9-0.7c0.6-0.4,1.2-0.8,1.8-1.2c0.2-0.2,0.4-0.5,0.7-0.7
				c0-0.4,0-0.7-0.2-0.9V166.9z M387.2,172.8c-1,0-1.4-0.2-1.9-0.7h-0.1c0.4-0.4,1.3-0.2,1.8-0.6h0.2V172.8z"/>
			<path class="st2" d="M251.2,163.7c1.4,0,1.4-0.5,2.1-1.2c0-2.8-1.1-2-1.8-3.6h-1.3c-0.3,0.5-0.6,1.3-1,1.7
				C249.2,162.2,250.8,162.4,251.2,163.7"/>
			<path class="st2" d="M328,169c-1.9,0-1.3,0.5-2.3,1c-0.4,0.2-0.5,0-0.8,0.2c-0.5-0.3-0.3-1-0.4-1.5c-0.2-0.8-0.6-1.8-0.8-2.6
				c-0.1-0.4,0.1-0.9-0.1-1.2v-1h0.1c0.1,0.3,0.3,0.6,0.3,0.9c0,0.4,0.1,0.9,0.1,1.3v0.1c0.6,0.8,1.9-0.1,2.4-0.4
				c0.2-1.3-0.4-3.9-0.9-4.7c-0.2-0.4-0.7-0.6-1-1h-0.6c-0.4,0.3-1.2,0.2-1.5,0.6c-2.1,0.7-1.9,5.9-1.3,8.2c0.2,0.6,0,1.4,0.3,1.9
				c0,0.3,0,0.4-0.1,0.6c-0.6,0.5-1.8,0.3-2.4,0.8c-0.4,0.3-1.3,1.8-1.4,2.3c0.1,0.9,0.1,1.8,0.2,2.8c1.4,0.6,2.7,1.6,4.4,0.4
				c0.3-0.3,0.5-0.7,0.8-1c0.5-0.3,1.1-0.3,1.4-0.9c0.4-0.7,0.2-2.4,0.6-3c0.5-0.7,1.6-1,2.3-1.5c0.3-0.2,0.5-0.6,0.9-0.9
				c0-0.4-0.1-0.7-0.2-0.9V169z M321.8,174.9c-0.3,0-0.4,0.1-0.6,0c-0.8,0-0.8-0.4-1.3-0.6c0.3-0.5,1.3-0.3,1.8-0.7h0.1V174.9z"/>
			<path class="st2" d="M214.4,161.6c-0.5-0.7-1.2-0.4-1.4-1.5h-1.3c-0.2,0.5-0.6,1.3-1,1.7c0,1.6,1.5,2.3,2.1,3.3
				c1.1-0.1,1.3-0.5,1.9-1C214.8,163.2,214.9,162.2,214.4,161.6"/>
			<path class="st2" d="M81.8,175.5c0.2-0.3,0.5-0.8,0.7-1.1c0-0.3,0.1-0.5,0.1-0.8c0.2-0.3,0.4-0.4,0.4-0.9
				c1.7-0.4,3.5-1.1,5.1-1.5c0.6-0.2,1,0,1.5-0.2c0.3-0.1,0.7-0.4,1-0.6c0.2-0.2,0.3-0.5,0.6-0.7c-0.1-0.4-0.4-0.6-0.6-1
				c-2.1,0.4-4.1,0.7-6.2,1.1c0.3-2.2,1.4-4.7,0.7-7.4c-0.1-0.5-0.1-0.8-0.3-1.1c-0.2-0.4-0.5-0.3-0.8-0.6c-0.2,0.1-2.3,1.2-2.4,1.3
				c-0.2,0.7-0.4,1.3-0.7,2c-0.5,1.2-0.9,2.6-1.4,4c-0.4,0.9-1,1.9-1.1,3c-0.7,0.3-1.5,0.6-1.9,1.2c-0.2,0.2-0.2,0.6-0.3,0.8
				c0.1,0.5,0.2,0.7,0.4,1h0.9c-0.1,0.5-0.3,0.8-0.4,1.3c-0.2,0.8-0.1,1.7-0.2,2.4c-0.2,0.8,0.1,1.6-0.3,2.1c-0.3,1-1.6,1.1-2.5,1.5
				c-1.1,0.5-3.7,2.5-5.4,1.8c-0.5-0.2-0.8-1-1.1-1.2c-0.4-0.2-0.7,0.1-0.9-0.2c-0.2-0.3,0.1-0.9-0.1-1.3c-0.1-0.1-0.2-0.1-0.3-0.2
				c-0.4-1,0.6-2.5,0.8-3c0.1-0.3,0-0.7,0.2-0.9h0.2c0.3-0.2,0.7-0.6,0.9-0.9c0.4-0.7,0.5-2,1.2-2.4h0.4c0.1-0.2,0.3-0.4,0.4-0.6
				c0.4-0.3,1.2-0.2,1.9-0.2c0,0.3,0,0.3,0.1,0.4c-0.2,1.1-1.8,1.5-2.6,2c-0.2,0.1-0.2,0.4-0.4,0.6c0,1.7,1.7,1.1,2.5,0.6
				c1.3-0.8,2.8-1.9,3.2-3.5c0-0.3-0.1-0.7-0.1-1c-0.7-0.7-0.9-1.6-2-1.9c-1.2-0.4-1.9,0.6-2.5,0.9c-0.4,0.1-0.8,0.2-1.2,0.3
				c-1,0.6-2.3,2.6-3.1,3.6c-0.3,0.4-0.9,0.6-1.3,0.9c-0.4,0.3-0.9,1-1.2,1.4c-0.4,0.6-0.4,1.8-0.8,2.3v1.4
				c-0.4,0.1-0.7,0.2-1.1,0.3c-0.5,0.2-2.6,1.8-3.3,1.2h-0.2c-0.1-1.7,0-2.3,0.6-3.5c0.2-0.4,0.2-0.9,0.4-1.2c0.1-0.1,0.3,0,0.4-0.1
				c0.2-0.1,0.5-0.8,0.6-1c0.8-2.1-0.5-4.4-2.1-4.9c-1.7-0.5-3.6,1-4.2,1.7c-0.3,0.3-0.7,0.6-1,0.9c-0.4,0.5-0.4,1.1-0.8,1.8
				c-0.1,0.3-0.5,0.5-0.7,0.8c-0.5,1.1-1,2.2-1.4,3.3c-0.1,0.6-0.1,1.1-0.2,1.7c-0.3,1.2-0.5,3,0,4.2c0.2,0.4,0.6,0.5,0.9,0.9
				c1.7-0.1,2.4-1,3.3-1.9c0.3-0.2,0.5-0.4,0.8-0.7c0.3-0.4,0.4-0.9,0.9-1.2v-0.1h0.1c0.1,0.3,0.1,0.7,0.2,1
				c0.2,0.4,0.4,0.7,0.7,1.1c0.7,0,1.3-0.1,2-0.1c1.2-0.4,3.8-1.7,4.4-2.6c0.6,0.7,0.7,2.1,1.4,2.6c0.7,0.4,4.1,1.7,5.4,1.3
				c1.2-0.3,2.2-1,3.2-1.4c1.3-0.6,2.8-0.8,3.6-1.9c0.4,0.2,0.6,1.6,1,2c0.7,0.7,2.3,1.2,3.5,0.7c0.6-0.3,1.2-0.9,1.9-1.2
				c-0.1-0.4-0.1-0.8-0.2-1.2c-0.4,0-0.9,0-1.1,0.1c-2.4,0.1-1.5-1.2-2.4-2.4c0-1.4,0.8-1.6,1.3-2.4
				C81.1,177.1,81.4,176.3,81.8,175.5 M82.6,166.5c0.4,0.6-0.2,2.9-0.4,3.2c-0.1,0.4-0.3,0.3-0.6,0.6h-0.1
				C81.9,169,82.2,167.8,82.6,166.5 M56.6,177.1c-0.2,0.6-0.4,1.1-0.6,1.7c-0.5,1.1-1.3,2.1-2,3c-0.5,0.6-1.4,1.1-1.7,1.9
				c-0.3,0-0.3,0-0.4,0.1h-0.2c0-3.5,1.1-6.1,2.4-8.3c0.2-0.3,0.2-0.7,0.4-1c0.6-0.3,1.1-0.6,1.7-0.9c0.3,0,0.3,0,0.4,0.1
				c0.6,0.2,0.7,0.8,1.1,1.2C57.7,176,57,176.4,56.6,177.1 M80.3,174.6c0.1-0.3,0.1-0.7,0.2-1h0.2c-0.1,0.3-0.2,0.7-0.3,1H80.3z"/>
			<path class="st2" d="M367.1,165.7c-0.1-0.6-0.5-1.2-0.7-1.8c0-0.4-0.1-0.7-0.1-1.1c-0.2-0.6-0.9-1-1.1-1.7h-1
				c-0.2,0.2-0.6,0.2-0.9,0.4c-0.3,0.3-0.8,1-1,1.4c0,0.4-0.1,0.8-0.1,1.2c-0.1,0.1-0.2,0.1-0.3,0.2c-0.5,0.7-1.1,1.5-1.5,2.2
				c-0.3,0.5-0.3,0.9-0.6,1.4c-0.4,1-1,2.2-1.4,3.2c-0.4,1-0.6,3.8,0.1,4.4v0.2c0.1,0,0.3-0.1,0.4-0.1c0.2,0.3,0.4,0.6,0.6,0.9
				c1.6,0,3-0.5,4.1-1.1c0.7-0.4,1.3-1.3,2.3-1.3c0.4-0.9,0.9-1.7,1.2-2.8c0.4-1.3,0.3-3.4,0-4.6V165.7z M363.8,173
				c-0.4,0.2-0.9,0.6-1.3,0.8c-0.3,0.1-0.6,0-0.8,0.1c-0.3,0-0.6,0-0.8-0.1c0.1-1.4,0.2-2.9,0.7-4c0.1-0.2,0.4-0.5,0.6-0.7
				c0.3-0.4,0.3-0.9,0.6-1.3c0.4-0.7,1.1-1.4,1.3-2.2c0.4,0.6,0.1,1.5,0.3,2.3C364.8,169.7,364,171.6,363.8,173"/>
			<path class="st2" d="M360,163.6c0.2-0.2,0.1-0.5,0.3-0.7c0-0.5-0.1-0.6-0.2-0.9c-0.3-0.1-0.6-0.1-1-0.1c-0.3,0.5-0.9,0.7-1.2,1.1
				c-0.5,0.7-1,1.5-1.5,2.2c-0.1,0.1-0.3,0.2-0.4,0.3c-0.4,0.5-0.5,1.1-0.9,1.7c-0.3,0.3-0.7,0.6-1,0.9c-0.2,0.3-0.1,0.5-0.2,0.8
				c-0.3,0.7-1.3,2.6-1.9,3v0.2h-0.1c0-1.5,0.3-6.1-0.2-7c-0.1-0.2-0.4-0.3-0.6-0.6c-0.9-0.1-1,0-1.4,0.7c-0.7,1.3-0.1,2.1-0.4,3.6
				c-0.3,1.4-0.4,4.9-0.1,6.4c0.1,0.4-0.2,0.7-0.1,1c0.1,0.5,0.4,1,0.7,1.3c1.6,0,2.6-2.3,3.3-3.4c0.4-0.7,1.1-1.4,1.4-2.2
				c0.3-0.7,0.4-1.4,0.8-2c0.2-0.3,0.4-0.3,0.7-0.4c0.3-0.2,0.7-0.9,0.9-1.2c0.6-1,1-2,1.7-3C358.7,164.7,359.6,164.1,360,163.6"/>
			<path class="st2" d="M304.5,172.7c-1.2,0-1.2,0.5-1.9,0.9c-0.3,0.1-0.7,0.1-1,0.2c-1.1,0.5-2,1-3.2,1.5c-0.5,0.2-1.4,0.8-2.4,0.6
				c-0.8-0.2-1.1-1.1-1.4-1.3c-0.2-0.1-0.6-0.1-0.8-0.1c-0.2-0.7-0.8-2.1-0.6-3c0.1-0.5,0.6-1.1,0.8-1.5c0-0.3,0.1-0.5,0.1-0.8
				c0.2-0.5,1-0.7,1.3-1.2c0.4-0.6,0.5-2,1.1-2.3h0.6c0.1-0.1,0.1-0.4,0.2-0.4c0.5-0.3,1.2-0.3,2-0.3c0,0.2,0,0.2,0.1,0.3
				c-0.1,1.3-1.6,1.5-2.5,2.1c-0.3,0.2-0.7,0.8-0.4,1.2c0.4,1,2.2,0.1,2.6-0.2c1.1-0.7,3.8-2.6,2.8-4.7c-0.4-0.8-1.2-1-1.9-1.5
				c-1.4,0-1.6,0.4-2.4,0.9c-0.5,0.3-1,0.2-1.4,0.4c-0.7,0.5-1.6,1.9-2.2,2.6c-0.8,1.1-2.3,1.8-3,2.8c-0.7,0.9-1.5,3.5-1,5.2
				c0.1,0.3,0.3,0.9,0.4,1.2c0.1,0.1,0.4,0.3,0.4,0.4c0.1,0.3,0.1,0.7,0.2,1c0.3,0.5,1,0.6,1.7,0.9c1,0.4,2.6,1.3,4.3,0.9
				c1.2-0.3,2.2-1,3.2-1.4c0.5-0.2,0.9-0.1,1.3-0.3c0.7-0.3,1.2-0.8,1.8-1.2c0.6-0.4,1.5-0.7,1.9-1.3c0.1-0.1,0,0,0.1-0.2
				c-0.2-0.2-0.4-0.7-0.6-1C304.5,172.8,304.6,172.8,304.5,172.7"/>
			<path class="st2" d="M315.8,163.1c-0.3,0-0.7-0.1-1-0.1c-0.5,0.4-1.3,0.7-1.9,1.1c-0.9,0.6-2.6,2.9-3.1,4c-0.2,0.5,0,0.9-0.2,1.4
				c-0.2,0.6-0.6,1.4-0.8,2.1c-0.6,2.3,0,5.1,1.3,6c0.3,0.2,0.5,0.1,0.8,0.2c0.3,0.1,1.1,0.4,1.7,0.2c1.2-0.3,2.3-1.2,3.5-1.5
				c-0.1-0.4,0.1-0.9-0.2-1.3c-0.9-1.2-2.3,0.4-3.4-0.4c-0.5-0.3-0.7-1-1-1.5c1.2-0.6,3.7-2.4,4.3-3.5c0.1-0.4,0.1-0.7,0.2-1.1
				c0.2-0.4,0.6-0.6,0.8-1c0-1-0.1-1.9-0.1-2.9C316.5,164,316.1,163.6,315.8,163.1 M314.1,168.5c-0.6,0.4-1.4,0.6-1.9,1.2H312
				c0.2-0.6,0.4-1.1,0.7-1.7c0.4-0.6,0.9-0.8,1.1-1.7c0.2,0,0.4-0.1,0.6-0.1c0.1,0.6,0.1,1.1,0.2,1.7
				C314.3,168.1,314.2,168.4,314.1,168.5"/>
			<path class="st2" d="M223.6,172.5c-0.2-0.2-0.5-0.3-0.7-0.1c-0.9,0.1-0.8,0.4-1.3,0.8c-0.4,0.1-0.8,0.3-1.2,0.4
				c-0.3-0.7-0.2-1.5-0.4-2.3c-0.1-0.5-0.4-1.1-0.6-1.5c-0.2-0.7,0.1-1.6-0.2-2.1v-0.6h0.1c0.2,0.7,0.5,1.3,0.4,2.3
				c0.3,0.1,0.6,0.2,0.8,0.4c0.7-0.1,1.1-0.5,1.7-0.8c0.3-1.4-0.4-4.3-1.2-5.3c-0.2-0.2-0.7-0.4-1-0.6c-0.5,0.4-1.4,0.3-1.9,0.7
				c-2,1.3-1.8,5.9-1.1,8.5c0.2,0.6,0,1.5,0.3,2c-0.9,0.3-1.8,0.6-2.6,0.9c-0.6,0.4-0.6,1.2-1,1.8c-0.2,0.4-0.7,1.3-0.2,2v1.2
				c0.1,0.2,0.3,0.1,0.4,0.2c1.1,0.7,2.7,1.2,4,0.3c0.3-0.2,0.5-0.8,0.8-1c0.3-0.1,0.5-0.1,0.8-0.2c0.4-0.3,0.8-1,1-1.4
				c0.3-0.7,0-1.8,0.3-2.3c0.5-0.7,1.5-1,2.2-1.4c0.4-0.3,0.6-0.7,1-1C223.9,173.1,223.8,172.7,223.6,172.5 M217.4,178.3
				c-0.9,0-1.4-0.2-1.8-0.7h-0.1v-0.1c0.5-0.1,1.4-0.2,1.8-0.4h0.1V178.3z"/>
			<path class="st2" d="M269.1,164.4c-0.4,0.4-1.1,0.5-1.5,0.8c-1.2,0.8-2.9,2.9-3.5,4.2c-0.1,0.4-0.1,0.9-0.2,1.3
				c-0.2,0.5-0.5,1.2-0.7,1.7c-0.1,0.4,0,0.8-0.2,1.1v3.1c-0.1,0.2-0.6,0.2-0.9,0.3c-1.3,0.6-2.2,0.7-3.9,0.7
				c-0.3-0.2-0.5-0.4-0.8-0.7c0.1-2.3,1-4.3,1.1-6.5c-0.7-0.6-1.4-1.6-1.7-2.6c-0.3-1.1,0.3-1.7-0.3-2.4c-0.1-0.1-0.3-0.1-0.4-0.2
				c-1.1,0.1-1.3,1.1-2,1.5v2.2c-0.7,2.7-2.2,4.3-3.6,6.2c-0.4,0.5-1.6,2.1-2.2,1.9h-0.9c-0.4-1.6-0.2-2.5,0.2-3.9v-0.8
				c0.3-0.8,1.1-1.6,1.3-2.4c0.2-0.5-0.2-0.9-0.2-1.3c-0.2-0.1-0.5-0.2-0.7-0.3c-1.3,0.1-1.5,1.5-2,2.5c-0.7,1.7-2.6,5-1.5,7.6
				c0.2,0.6,1,1,1.3,1.5c1.3,0,2.5-0.4,3.3-0.9c0.2-0.1,0.4-0.5,0.7-0.7h0.4c0.3-0.1,0.8-0.4,1.1-0.6c0.7-0.5,1.4-2,2-2.8
				c0.7-0.9,1.7-1.8,2-3.1h0.2c0.1,0.1,0,0,0.1,0.1c-0.1,0.5-0.3,0.5-0.4,0.8v0.9c-0.2,0.9-0.5,1.9-0.8,2.8
				c-0.1,0.5-0.1,1.8,0.1,2.2c0.5,0.9,1.7,1.4,2.3,2.2c2.8-0.1,5.1-1.1,7-2.2c0.2,0,1.8,1.3,3.2,0.8c1-0.4,2-1.2,3.2-1.4
				c0.1-2.5-1.3-1.7-3.4-1.7c-0.1-0.1-0.3-0.2-0.4-0.3c0-0.4,0.2-0.6,0-0.9c-0.1-0.4-0.2-0.4-0.7-0.4v-0.1c0.9-0.3,3.6-2.4,4.1-3.2
				c0.3-0.4,0.2-1.1,0.4-1.5c0.1-0.2,0.6-0.4,0.7-0.7c0.3-0.9-0.1-3.5-0.4-3.9C270.2,164.8,269.7,164.5,269.1,164.4 M266.2,171.3
				h-0.1c0.2-1.3,1.3-2.6,2-3.5h0.2c0.1,0.3,0.1,1,0.3,1.2C268.5,170.3,266.8,170.4,266.2,171.3"/>
			<path class="st2" d="M242.1,167.7v-0.9c-0.2-0.5-0.9-1.2-1.2-1.8h-0.7c-0.1,0.1-0.2,0.1-0.4,0.1c-0.5,0.5-1.3,0.9-1.7,1.7
				c0,0.4-0.1,0.9-0.1,1.3c-0.1,0.1-0.2,0.1-0.3,0.2c-0.5,0.7-1,1.3-1.4,2c-0.2,0.3-0.2,0.6-0.3,0.9c-0.7,1.3-1.3,2.8-1.9,4.2
				c-0.4,0.9-0.5,3.5,0.1,4.1c0.2,0.5,0.2,0.1,0.6,0.3c0.2,0.1,0.5,0.7,0.7,0.9c1.7,0,3.1-0.6,4.2-1.3c0.7-0.4,1.1-1.2,2.1-1.2
				c0.4-0.9,0.9-1.9,1.2-3c0.3-1.1,0.2-4.8-0.1-5.8C242.7,168.9,242.3,168.3,242.1,167.7 M239.5,176.9c-0.3,0.8-1.5,1-2.8,1
				c0-1.5,0.2-3,0.7-4.1c0.2-0.4,0.7-0.9,0.9-1.3c0.5-0.9,0.8-1.9,1.4-2.5c0.1-0.2,0-0.1,0.1-0.2
				C240.4,171.2,240.4,175.9,239.5,176.9"/>
			<path class="st2" d="M25.5,172.4c-1.9,0.2-4.8,3.6-5.4,5.2c-0.1,0.5-0.1,1-0.2,1.4c-0.1,0.3-0.4,0.9-0.6,1.2
				c-0.1,0.4,0,0.7-0.2,1v2.6c-0.4-0.2-0.9-0.1-1.4-0.2c-2.5-0.6-4.3-0.3-6.3,0.6c-0.4,0.2-0.7,0.1-1,0.3h-0.1
				c0.1-1.6,1-2.9,1.5-4.2c0.2-0.5,0.2-0.9,0.4-1.4c0.1-0.2,0.4-0.6,0.4-0.8c0.3-0.8,0.2-1.4,0.4-2.2c0.2-0.6,0.6-1.4,0.8-2.1
				c0.1-0.7,0.1-1.5,0.2-2.2c0.2-0.6,0.5-1.5,0.7-2.2c0.2-0.7,0.1-1.6,0.4-2.2c-0.1-0.5-0.5-0.8-0.9-1c-0.2,0.2-0.5,0.2-0.7,0.4
				c-1,1.3-0.9,4.1-1.4,6c-1.1,3.4-2.1,6.9-3.4,10c-0.3,0.6-0.2,1.3-0.6,1.9c-0.1,0.2-0.4,0.3-0.4,0.6c-0.2,0.6-0.1,1.1-0.4,1.5
				c0.1,0.8,0.6,0.9,1.1,1.3c1.6-0.1,3.1-0.9,4.5-1.3c0.3-0.1,0.6,0.1,0.7,0.1h1.4c0.6,0.2,1.3,0.9,2.1,0.3c0.9-0.1,1.3-1,2-1.4
				c0.1-0.2,0-0.1,0.1-0.2c0.3,1,2,2.6,3.8,2c0.1,0,0.3-0.3,0.4-0.3c1-0.4,1.9-0.8,2.9-1.2c0-3.3-2-0.7-3.4-1.7
				c-0.7-0.2-0.7-0.9-1.1-1.3c0.2-0.8,1.5-1.2,2.1-1.7c0.6-0.4,1.7-1.5,2.1-2.1c0.1-0.4,0.2-0.9,0.3-1.3c0.1-0.3,0.6-0.5,0.7-0.8
				c0.3-0.9-0.1-3.4-0.4-3.8C26.4,172.6,25.9,172.7,25.5,172.4 M24.5,177.8c-0.6,0.6-1.5,0.7-2,1.3h-0.2c0.3-1.4,1.2-2.5,2-3.4h0.2
				c0.1,0.5,0.2,1,0.3,1.5C24.6,177.4,24.6,177.7,24.5,177.8"/>
			<path class="st2" d="M130.2,175.4c-1.7,0-1.8,0.9-3.2,1.2c-0.3-0.9-0.3-1.8-0.6-2.8c-0.1-0.3-0.4-0.8-0.4-1.1
				c-0.2-0.6,0.1-1.5-0.2-2v-0.6h0.1c0.2,0.4,0.4,1.9,0.6,2.2c0.7,1,1.7,0,2.4-0.4c0.1-1.9-0.6-5.4-2.4-5.6
				c-0.5,0.4-1.4,0.3-1.9,0.7c-2.1,1.5-1.6,7.9-0.7,10.5c-2.1,0.8-2.5,0.3-3.5,2.3c-0.3,0.6-0.5,0.7-0.4,1.4c-0.5,0.1-1,0.5-1.4,0.7
				c-1,0.4-2.2,0.4-3.4,0.3c-0.3-0.2-0.5-0.4-0.8-0.7c0-1.6,0.4-3.1,0.8-4.4c0.2-0.6,0-1.3,0.3-1.8c-0.2-0.8-1.3-1.8-1.7-2.9
				c-0.2-0.8,0.2-1.8-0.2-2.3c-0.2-0.4-0.3-0.2-0.7-0.4c-0.8,0.1-1.7,1.1-1.9,1.8c-0.2,0.4,0.2,1.1,0,1.8c-0.1,0.5-0.2,1.3-0.4,1.8
				c-0.7,1.4-1.7,2.4-2.5,3.6c-0.3,0.4-0.4,0.8-0.7,1.2c-0.4,0.4-0.8,0.7-1.2,1.1c-0.1,0.3,0,0.9-0.1,1.1c-0.3,0-0.4,0-0.6-0.1
				c-0.1-0.2-0.2-0.3-0.2-0.4c0-0.6,0.1-1.1,0.1-1.7c0-0.9,0.7-3.8,1.1-4.3c0-0.4,0-0.8-0.1-1c-0.2-0.2-0.6-0.3-1-0.3
				c-0.6,0.4-1.1,0.9-1.7,1.3c-0.3,0.5-0.4,1.1-0.7,1.7c0,0.1-0.3,0.3-0.3,0.4c0,0.2-0.1,0.4-0.1,0.7c-0.3,0.6-1,1-1.4,1.5v0.2
				c-0.6,0.6-1.8,1-2.4,1.5h-0.1c0-2.1,0.8-3.1,1.2-4.6v-0.8c0.1-0.3,0.4-0.7,0.6-0.9c0.2-0.4,0.2-1,0.4-1.3c-0.1-0.6-0.3-0.6-0.6-1
				c-2.6,0-3.2,4.6-4,6.6c-0.1,0.4-0.1,0.7-0.2,1.1c-0.1,0.3-1.4,0.9-1.8,1.1c0.1,0.5,0.4,1.2,0.8,1.5c0.3,0.2,0.5-0.2,0.9,0
				c0.2,0.1,0.5,0.5,0.9,0.7c0.6,0.2,1.2-0.1,1.5-0.2c1.5-0.5,2.6-1.3,3.5-2.3c0.4,0.5,0.1,1.5,0.4,2c0.4,0.6,1.1,0.7,1.7,1.2
				c1.8,0,3.5-1.5,4.5-2.4h0.2c0.1-0.2,0.1-0.8,0.2-1c0.1-0.1,0.2-0.1,0.3-0.2c0.3-0.5,0.5-1,0.9-1.4c0.7-0.9,1.7-1.8,2-3.1h0.2v0.1
				h0.1c-0.1,0.2-0.1,0.4-0.2,0.6h-0.2c0,0.5-0.1,1-0.1,1.5c-0.4,1.2-1.3,3.4-0.4,4.7c0.5,0.9,1.6,1.2,2.2,2c2.1,0,3.6-0.7,5.1-1.3
				c0.6-0.2,1.2-0.2,1.5-0.7c1.3,0.4,2.4,1.3,4,0.3c0.4-0.2,0.7-1,0.9-1.1l0.7-0.1c0.4-0.2,0.8-0.8,1-1.2c0.3-0.6,0-1.8,0.3-2.4
				c0.4-0.7,1.5-1.1,2.2-1.5c0.4-0.3,0.7-0.7,1.1-1c-0.1-0.3-0.1-0.7-0.2-1C130.2,175.4,130.3,175.5,130.2,175.4 M124,181.3
				c-0.4,0.1-0.8,0.1-1.1-0.1c-0.1-0.1,0,0-0.1-0.2c0.2-0.2,0.3-0.4,0.4-0.6c0.2-0.2,0.4-0.2,0.8-0.2V181.3z"/>
			<path class="st2" d="M162.5,168.2c-0.4-0.1-0.6-0.2-1.1-0.2c-0.4,0.4-1.1,0.5-1.5,0.9c-1.1,0.8-2.9,3-3.4,4.3
				c-0.1,0.5-0.1,1-0.2,1.4c-0.9,2.4-1.7,6.2,0.7,7.8c0.5,0.3,1.4,0.8,2.4,0.6c1.1-0.5,2.3-1,3.4-1.5c0-0.6,0-1.1-0.2-1.3
				c-0.6-1.2-2.3,0.4-3.4-0.4c-0.5-0.3-0.5-0.8-0.9-1.2c0.2-0.8,2-1.6,2.6-2.1c0.6-0.4,1.4-1.3,1.7-2c0-0.3,0.1-0.5,0.1-0.8
				c0.1-0.4,0.6-0.6,0.8-1c0.3-0.9-0.1-3.3-0.3-3.8C162.9,168.6,162.7,168.4,162.5,168.2 M160.8,173.4c-0.6,0.6-1.5,0.7-2.1,1.3
				h-0.1c0.2-1.4,1.3-2.6,2.1-3.5c0.3,0.3,0.4,1.2,0.4,1.7C161,173,160.9,173.3,160.8,173.4"/>
			<path class="st2" d="M408,168.5c-0.3-0.1-0.5-0.1-0.9-0.1c-0.4,0.4-1.2,0.7-1.5,1.2c-0.2,0.3-0.2,0.7-0.4,1
				c-0.2,0.1-0.4,0.3-0.6,0.4c-0.3,0.6-0.1,1.3-0.1,1.9c0.2,0.2,0.4,0.4,0.6,0.7c1.5-0.3,2.1-1.5,3.2-2.2c0.1-0.6,0.6-1.8,0.1-2.3
				C408.2,168.8,408.1,168.8,408,168.5"/>
			<path class="st2" d="M38.2,178.3c-1.8,0-1.8,0.9-3.2,1.2c-0.3-0.9-0.3-1.8-0.6-2.8c-0.1-0.3-0.4-0.8-0.4-1.1
				c-0.2-0.6,0.1-1.6-0.2-2.1v-0.4h0.1c0,0.2,0.5,2.1,0.6,2.2c0.2,0.2,0.4,0.4,0.8,0.4c0.2,0.2,1.2-0.5,1.5-0.7
				c0.4-1.8-0.5-5.6-2.3-5.8c-0.5,0.4-1.4,0.3-1.9,0.7c-2.1,1.5-1.6,7.9-0.7,10.5c-2.1,0.8-2.5,0.3-3.5,2.3
				c-0.1,0.2-0.5,0.7-0.6,0.9c0,0.8,0.2,1.7,0.2,2.6c1.4,0.7,2.8,1.6,4.5,0.4c0.3-0.2,0.3-0.7,0.6-0.9c0.4-0.3,1.2-0.3,1.5-0.9
				c0.1-0.4,0.3-0.9,0.4-1.3c0.1-0.5-0.1-1.2,0.1-1.7c0.4-0.7,1.4-1,2.1-1.4c0.4-0.3,0.8-0.8,1.2-1.1c-0.1-0.3-0.1-0.7-0.2-1
				C38.1,178.4,38.2,178.5,38.2,178.3 M32,184.3c-0.1,0.1,0,0-0.1,0.1c-0.8,0-1.2-0.2-1.5-0.7c-0.2-0.1-0.1,0-0.2-0.1
				c0.5-0.2,1.2-0.4,1.9-0.4V184.3z"/>
			<path class="st2" d="M93.2,170.5c-0.4-0.1-0.7-0.2-1.1-0.3c-0.5,0.5-1.2,0.6-1.8,1c-1.2,0.9-1.9,2.2-2.8,3.4
				c-0.1,0.2-0.5,0.5-0.6,0.7c-0.1,0.5-0.1,1-0.2,1.5c-0.1,0.3-0.4,0.8-0.6,1.1c-0.4,1.2-0.6,4.5,0,5.6c0.2,0.5,0.7,0.8,1.1,1.1
				c0.5,0.3,1.6,0.9,2.6,0.6c1.1-0.5,2.2-1,3.3-1.5c0-0.5,0-1-0.2-1.2c-0.1-0.3-0.4-0.3-0.6-0.6c-0.8,0.1-2.1,0.6-2.8,0.1
				c-0.6-0.2-0.9-1-1.1-1.5c1.1-0.6,3.7-2.4,4.3-3.5c0.1-0.4,0.1-0.7,0.2-1.1c0.2-0.4,0.6-0.6,0.8-1c0.2-0.5,0-2.6-0.1-3
				C93.7,171.4,93.4,170.9,93.2,170.5 M91.7,175c-0.3,1.1-1.7,1.3-2.4,2h-0.1c0.6-1.4,1.2-2.5,2.1-3.5h0.2
				C91.5,174,91.8,174.8,91.7,175"/>
			<path class="st2" d="M274.8,172.3c-0.1-0.1-0.3-0.1-0.6-0.1c-0.3,0.2-0.8,0.2-1.1,0.4c-0.4,0.3-0.7,0.8-1.1,1.1
				c0.6,1.3,1.9,4.9,1,6.8c-0.1,0.2-1.1,1.2-1.3,1.3c0,0.7,0.3,0.7,0.6,1.1c0.7-0.1,1-0.5,1.4-0.8c2-1.2,2.4-1.8,3.1-4.3
				C277.3,175.8,276,172.6,274.8,172.3"/>
			<path class="st3" d="M413.5,196.1h-0.6C413.1,196.2,413.3,196.2,413.5,196.1"/>
		</g>
		<g class="st0">
			<defs>
				<rect id="SVGID_5_" x="0" y="135.8" width="430" height="71.7"/>
			</defs>
			<clipPath id="SVGID_6_">
				<use xlink:href="#SVGID_5_"  style="overflow:visible;"/>
			</clipPath>
		</g>
	</g>
</g>
<g>
	<g>
		<g>
			<rect x="73.3" y="17.3" class="st4" width="14.4" height="71.9"/>
			<polygon class="st4" points="110.3,17.3 102,17.3 102,89.2 116.4,89.2 116.4,27.8 			"/>
			<rect x="87.6" y="17.3" class="st5" width="14.4" height="71.9"/>
			<polygon class="st5" points="116.4,27.8 116.4,89.2 130.8,89.2 130.8,52.7 			"/>
			<polygon class="st4" points="130.8,52.7 130.8,89.2 145.2,89.2 145.2,77.7 			"/>
		</g>
		<g>
			<polygon class="st4" points="112.5,0 106.4,0 112.5,10.5 			"/>
			<polygon class="st5" points="126.9,35.4 126.9,0 112.5,0 112.5,10.5 			"/>
			<polygon class="st4" points="141.3,60.3 141.3,0 126.9,0 126.9,35.4 			"/>
		</g>
	</g>
	<g id="dessous_49_">
		<g>
			<path class="st4" d="M172.7,21.2h-5.8v20.5h-4V21.2h-5.8v-3.7h15.7V21.2z"/>
			<path class="st4" d="M181.6,21.2v6.5h8.3v3.7h-8.3V38h10.1v3.7h-14.2V17.5h14.2v3.7H181.6z"/>
			<path class="st4" d="M210.4,33.1c1.6,1.3,2.5,3.3,2.5,5.5v3.1h-4v-2.9c0-2.1-1-3.9-4.1-3.9h-3.9v6.8h-4.1V17.5h7.9
				c5,0,8.2,3.2,8.2,7.4v2.6C212.9,29.8,212,31.7,210.4,33.1z M204.7,31.2c3.1,0,4.1-1.8,4.1-3.9v-2.2c0-2.1-1-3.9-4.1-3.9h-3.9v10
				H204.7z"/>
			<path class="st4" d="M231.5,33.1c1.6,1.3,2.5,3.3,2.5,5.5v3.1h-4v-2.9c0-2.1-1-3.9-4.1-3.9H222v6.8h-4.1V17.5h7.9
				c5,0,8.2,3.2,8.2,7.4v2.6C234,29.8,233.1,31.7,231.5,33.1z M225.9,31.2c3.1,0,4.1-1.8,4.1-3.9v-2.2c0-2.1-1-3.9-4.1-3.9H222v10
				H225.9z"/>
			<path class="st4" d="M243.1,41.7h-4.1V17.5h4.1V41.7z"/>
			<path class="st4" d="M263.8,21.2h-5.8v20.5h-4V21.2H248v-3.7h15.7V21.2z"/>
			<path class="st4" d="M283.7,24.4v10.5c0,4.2-3,7.3-8,7.3c-5.1,0-8.1-3.1-8.1-7.3V24.4c0-4.2,3-7.3,8.1-7.3
				C280.7,17.1,283.7,20.2,283.7,24.4z M271.7,24.7v9.9c0,2.1,0.9,3.9,4,3.9c3.1,0,4-1.8,4-3.9v-9.9c0-2.1-0.9-3.9-4-3.9
				C272.6,20.8,271.7,22.6,271.7,24.7z"/>
			<path class="st4" d="M292.8,41.7h-4.1V17.5h4.1V41.7z"/>
			<path class="st4" d="M311.5,33.1c1.6,1.3,2.5,3.3,2.5,5.5v3.1h-4v-2.9c0-2.1-1-3.9-4.1-3.9h-3.9v6.8h-4.1V17.5h7.9
				c5,0,8.2,3.2,8.2,7.4v2.6C314,29.8,313.1,31.7,311.5,33.1z M305.8,31.2c3.1,0,4.1-1.8,4.1-3.9v-2.2c0-2.1-1-3.9-4.1-3.9h-3.9v10
				H305.8z"/>
			<path class="st4" d="M323.1,21.2v6.5h8.3v3.7h-8.3V38h10.1v3.7H319V17.5h14.2v3.7H323.1z"/>
			<path class="st4" d="M349.5,26.2v-1.4c0-2.1-0.9-3.9-4-3.9c-3,0-4,1.6-4,3.7c0,2.7,3.8,2.9,7.2,4.2c2.9,1,4.9,3.1,4.9,6
				c0,4.2-3,7.4-8,7.4s-8.1-3.2-8.1-7.4v-1.2l4.1-0.3v1.2c0,2.1,0.9,3.9,4,3.9c3,0,4-1.6,4-3.7c0-2.7-4.3-3-7.2-4.2
				c-3.5-1.3-4.8-3.1-4.9-6c0-4.2,3-7.4,8-7.4c5,0,8.1,3.2,8.1,7.4v1.2L349.5,26.2z"/>
		</g>
		<g>
			<path class="st4" d="M190.7,89.2h-8.5V72.3l-4.5,16.9H170l-4.5-16.9v16.9H157V57.7h10.3l6.4,20.4h0.3l6.4-20.4h10.3V89.2z"/>
			<path class="st4" d="M204.9,65.6v3.9h9.1v7.9h-9.1v3.9h11.4v7.9h-19.9V57.7h19.9v7.9H204.9z"/>
			<path class="st4" d="M255.6,89.2H247V72.3l-4.5,16.9h-7.6l-4.5-16.9v16.9h-8.5V57.7h10.3l6.4,20.4h0.3l6.4-20.4h10.3V89.2z"/>
			<path class="st4" d="M284.7,67.2v12.6c0,5.7-5.3,10.1-11.8,10.1c-6.6,0-11.8-4.4-11.8-10.1V67.2c0-5.7,5.2-10.1,11.8-10.1
				C279.4,57,284.7,61.5,284.7,67.2z M269.7,67.9V79c0,1.4,0.8,3,3.2,3c2.5,0,3.2-1.6,3.2-3V67.9c0-1.4-0.8-3-3.2-3
				C270.5,64.9,269.7,66.5,269.7,67.9z"/>
			<path class="st4" d="M298.8,89.2h-8.5V57.7h8.5V89.2z"/>
			<path class="st4" d="M328,71.9c0,2.4-1,4.7-2.6,6.4c1.6,1.8,2.6,4,2.6,6.4v4.5h-8.5v-4c0-1.4-0.8-3-3.3-3H313v7h-8.5V57.7h11.8
				c6.5,0,11.8,4.7,11.8,10.4V71.9z M316.2,74.4c2.5,0,3.3-1.6,3.3-3v-2.8c0-1.4-0.8-3-3.3-3H313v8.8H316.2z"/>
			<path class="st4" d="M342.1,65.6v3.9h9.1v7.9h-9.1v3.9h11.4v7.9h-19.9V57.7h19.9v7.9H342.1z"/>
		</g>
		<polygon class="st6" points="185.4,96.8 173.9,116.9 162.3,96.8 		"/>
		<polygon class="st4" points="173.9,130.4 160.8,107.8 73.3,107.8 73.3,105.8 162,105.8 173.9,126.4 185.8,105.8 328,105.8 
			328,107.8 186.9,107.8 		"/>
		<g>
			<path class="st5" d="M337.3,49.2v2.2c0,1-0.7,1.7-1.9,1.7h-1.8v-5.6h1.8C336.5,47.5,337.3,48.2,337.3,49.2z M336.3,49.2
				c0-0.5-0.2-0.9-0.9-0.9h-0.9v3.8h0.9c0.7,0,0.9-0.4,0.9-0.9V49.2z"/>
			<path class="st5" d="M339.3,48.3v1.5h1.9v0.9h-1.9v1.5h2.3V53h-3.3v-5.6h3.3v0.9H339.3z"/>
			<path class="st5" d="M348.2,52.2V53H345v-5.6h0.9v4.7H348.2z"/>
			<path class="st5" d="M352.1,51.8h-1.7l-0.3,1.2h-0.9l1.5-5.6h1.1l1.5,5.6h-0.9L352.1,51.8z M351.9,51l-0.6-2.5h0l-0.6,2.5H351.9z
				"/>
		</g>
		<g>
			<path class="st5" d="M336.6,108.4h-1.7l-0.3,1.2h-0.9l1.5-5.6h1.1l1.5,5.6h-0.9L336.6,108.4z M336.4,107.6l-0.6-2.5h0l-0.6,2.5
				H336.4z"/>
			<path class="st5" d="M341.5,106v-0.3c0-0.5-0.2-0.9-0.9-0.9c-0.7,0-0.9,0.4-0.9,0.8c0,0.6,0.9,0.7,1.6,1c0.7,0.2,1.1,0.7,1.1,1.4
				c0,1-0.7,1.7-1.8,1.7s-1.9-0.7-1.9-1.7v-0.3l0.9-0.1v0.3c0,0.5,0.2,0.9,0.9,0.9c0.7,0,0.9-0.4,0.9-0.8c0-0.6-1-0.7-1.6-1
				c-0.8-0.3-1.1-0.7-1.1-1.4c0-1,0.7-1.7,1.8-1.7s1.8,0.7,1.8,1.7v0.3L341.5,106z"/>
			<path class="st5" d="M345.6,104c1,0,1.7,0.7,1.7,1.6c0,0.5-0.2,0.9-0.6,1.1c0.5,0.2,0.7,0.7,0.7,1.2c0,0.9-0.6,1.6-1.7,1.6h-2.1
				V104H345.6z M344.6,106.4h1c0.6,0,0.8-0.3,0.8-0.8c0-0.4-0.2-0.7-0.8-0.7h-1V106.4z M345.7,108.7c0.6,0,0.8-0.3,0.8-0.8
				c0-0.4-0.2-0.7-0.8-0.7h-1.1v1.5H345.7z"/>
			<path class="st5" d="M351.7,108.7v0.9h-3.2V104h0.9v4.7H351.7z"/>
		</g>
		<path class="st5" d="M209.9,54.3h-6.8l4.1-6.9h6.7L209.9,54.3z"/>
	</g>
</g>
</svg>
