<svg xmlns="http://www.w3.org/2000/svg" xmlns:xlink="http://www.w3.org/1999/xlink" viewBox="0 0 1200 204"><style>.st0{clip-path:url(#SVGID_2_)}.st2{clip-path:url(#SVGID_4_);fill-rule:evenodd;clip-rule:evenodd}.st4{fill:#003a60}.st5{fill:#bfced5}</style><defs><path id="SVGID_13_" d="M590.9 39.6h619.6v103.3H590.9z"/></defs><clipPath id="SVGID_2_"><use xlink:href="#SVGID_13_" overflow="visible"/></clipPath><g class="st0"><defs><path id="SVGID_15_" d="M590.9 39.6h619.6v103.3H590.9z"/></defs><clipPath id="SVGID_4_"><use xlink:href="#SVGID_15_" overflow="visible"/></clipPath><path d="M1184.5 128.8c1.1 0 4.8.2 5.4.6h-1.1c-.1.3-.1.6-.2 1-5.1 0-9.6-1.2-14.8-1.3-.1.2-.1.4-.2.6h1.1c.8.5 2.1.1 3.2.3 1.2.3 2.8 0 4.1.3 1.7.4 3.9.5 5.9.5v.2h-.3c-.2.2-.9.3-1.3.3v.5c-1.9 0-4.3-.2-6-.6h-1.6c-1.4-.3-3.4-.4-4.9-.6-.9-.1-4.4-.3-4.9 0 1.2 0 4 0 4.6.5-4.3 0-9.3.3-13.2-.6h-1.9c-1.3-.3-3.1-.2-4.5-.5h-4.6c-1.9 0-5 .1-6.8-.3-1.6-.4-3.7.2-5.1-.2-7.4-.2-14.8-.3-22.3-.5-1.5-.3-3.7-.2-5.4-.2h-17.6c-1.5.4-4 .3-5.6.3h-2.2c-1.5.4-3.7-.1-5.2.3-.6.1-1.8 0-2.5.2-3.8.9-8.7 0-12.6 1-1.6.1-3.2.1-4.8.2-1.4.3-3.1 0-4.6.3-3.9.9-8.7.2-12.6 1.1-1.3.1-2.6.1-4 .2-3.3.8-7.4.3-10.7 1.1h-1.7c-2.4.6-5.4.4-7.8 1h-1.6c-1.3.3-2.9.1-4.3.5-1.8.4-4.1.7-6 .8v-.3c.4-.2.6-.5.8-1-1.6-.2-4.5.5-6.4 0-1-.2-2.2-.4-3-.6-.2-.4-.3-.5-.3-1.1h.3c.8-.6 2.9-.6 4.1-.6l-.2-.3h.8c.9-.6 2.5-.2 3.7-.5 2.6-.4 5.2-.8 7.8-1.3v-.2c-2.5 0-4.8 0-6.8.5h-1.4c-1.9.5-4.7.7-6.8.3-.1-.2-.1-.3-.2-.6.4-.2.8-.4 1-1h.2v-.2h-.3c-.6-.5-2.1 0-2.7.2h-1.3c-1.6.4-4 .9-5.6.6v-.5c.6-.2.6-.5 1.1-.6v-.2c-2 0-4.3.2-6 .6h-1.3c-1.3.3-3 .5-4.3.8-2.3.3-4.6.6-6.8 1-1.7.5-3.7.9-5.7 1-.2-.4-.4-.2-.5-.8h.3c.9-.7 2.1-.5 3.3-.8 2.3-.6 5.1-.8 7.5-1.4.6-.1 1.3-.1 1.9-.2 5.3-1.4 11.4-1.3 16.9-2.7 1.5-.4 3.2-.3 4.6-.6h1.3c1.5-.4 3.4-.4 4.9-.8h1.3c2.1-.5 4.6-.4 6.7-1h1.4c4.3-1 9.3-.5 13.7-1.6 1.1-.3 2.5-.1 3.5-.3h1.7c1-.3 2.6-.2 3.7-.5l6-.3c3.5-.8 7.9-.1 11.4-1 .8-.2 2 0 2.5-.2 2-.1 3.9-.1 5.9-.2 3.2-.8 7.4.1 10.7-.6h4.5c1.5-.4 3.7.2 5.4-.2 2.1-.5 5.1.4 7.3-.2 1.2-.3 3-.2 4.5-.2h18.1c1.5 0 3.5-.1 4.8.2 2.2.5 5.4-.3 7.5.2h2.5c2.1 0 5.5-.1 7.3.3h3.8c.9.2 2.4-.1 3.5.2 2.7.7 6.2 0 8.9.6 3.3.2 6.6.3 9.9.5 1.2.3 3 .2 4.3.5h1.9c1.2.3 2.7 0 4 .3 4.6 1.1 10.5.5 15.1 1.6h1.6c3.1.8 7.2.4 9.9 1.6v.2c-1.2.1-3.5.2-4.8.5-.7.2-1.7-.2-2.2.2.6.1 2.2.3 2.7.6h-.2c-1.2 1-3.9.5-5.7 1-.8.2-2.1-.3-2.7.2 1 0 2.5 0 2.9.6h-.2c-1 1-3.2.5-5.1.5v.3c-.3.1-.2.2-.3.5" clip-path="url(#SVGID_4_)" fill-rule="evenodd" clip-rule="evenodd" fill="#e2001a"/><path class="st2" d="M1186.8 46.8h-.6c-.6.5-1.5.6-2.1 1.1-.8.9-1.1 5.5-1.6 7.2-1.4 4.8-1.9 10.2-3.3 14.9-.6 2.2-.5 5.3-1.7 6.8-.1 1.6.3 1.8 1.3 2.2.3-.3.7-.4 1.1-.6.8-.6 1.4-1.6 2.4-2.1l5.4-28.5c-.4-.3-.7-.6-.9-1M895.5 99.9c-.9.1-2.2 1.2-3 .6-.4 0-.4 0-.6-.2-.4-.5-.6-2.7-.3-3.7.1-.5.5-1.2.6-1.6.1-.5.1-1.1.2-1.6.4-1 1.4-2.1 1.7-3.2-.1-.6-.2-1.3-.3-1.9-.4-.1-.8-.2-1.1-.5-2 .6-4 6.2-4.8 8.4-.2.7-.1 1.6-.5 2.2 0 2.3-1.6 1.9-2.7 3-.4 0-.7 0-1-.2-.4-.1-.5-.3-.8-.5-.1-2.6 0-5.4 0-8.1-.3-.3-.5-.7-1-1-.2-.1 0-.1-.3-.2-.8.7-1.6 1.5-2.4 2.2-.4.7-.3 1.6-.8 2.2-.6.9-1.8 1.6-2.4 2.5 1-4.1 3-8 4.8-11.4.6-1.2.9-2.4 1.6-3.5 1.1-1.7 2.3-3.7 3.2-5.6.9-2 1.2-4 2.1-6 .8-1.9 1.6-4 2.2-6 .4-1.3.1-2.6.5-4 .3-1 .5-2.1.5-3.3-.2-.2-.5-.5-.6-.8-3.3 0-3.8 5.1-4.8 7.6-1.6 4.2-3.2 8.7-4.9 12.7-.3 1-.5 2-.8 3-.9 2.2-2.1 4.5-3.3 6.5-.3.4-.2.9-.5 1.3-.5.8-1.2 1.6-1.7 2.4-.3.3-.6.5-1 .8-.3.4-.5.9-.8 1.3-.3.3-.6.5-1 .8-.3.5 0 1.1.3 1.4.2.1.6 0 1 .3h.3c-1 2.1-2.4 5.9-2.4 8.7.6.1 1.2.1 1.7.2 1.6-.5 5.2-3.6 6-4.9.6.3.3 1.2.5 1.9.3 1 .9 1.9 1.3 2.9 1.2.3 3 .8 4.5.3.6-.2.9-.9 1.4-1.3.6-.4 1.2-.7 1.6-1.3.9.3 1 1.4 1.7 1.9.3.2.4.1.6.3 2.6 0 5.8-1.6 6.4-3.8.1-.2.1 0 .2-.3-.5.2-.9-.1-1.1-.5M862 60.9c-.7.6-1.7.8-2.4 1.3-.5.3-.7.9-1.1 1.4-.7.9-1.9 1.6-2.5 2.5-.9 1.2-1.5 2.5-2.4 3.8-.3.4-.8.9-1.1 1.3-.7 1-1.2 2.1-1.9 3.2-.5.7-1.3 1.5-1.7 2.2-.8 1.5-.9 3.3-1.6 4.9-1.4 3.3-2.8 6.7-4 10.3-.6 1.7-1.1 6.3-.5 8.4.2.7.8 1.5 1 2.1.2.6 0 1.2.3 1.7.6.9 3.2 2.7 4.3 3 1.2-.1 2.4-.2 3.7-.3 1.2-.4 1.9-1.1 2.9-1.7-.1-.6-.4-1.1-.6-1.6-1.3 0-3.9.3-4.6-.3-1.6-.5-2.4-3.2-2.9-4.9v-1.1c-.1-.5-.5-2.4-.2-3.2.1-.2.5-.6.6-1v-1.3c.4-1.1 2.5-3 3.2-4 2-2.8 4.1-5.6 5.9-8.6.7-1.2 1-2.5 1.7-3.7 1.1-1.7 2.5-3.4 3.3-5.4.1-.5.2-1.1.3-1.6.4-1.2 1-2.6 1.4-3.8.2-.6 0-1.3.3-1.7 0-.6 0-1.3-.2-1.7-.5.1-.7-.1-1.2-.2m-7.2 15c-1.4 2.5-3.3 4.8-4.8 7.2h-.2c.2-.5.3-1 .5-1.4.6-1.1 1.7-2.1 2.4-3.2.5-.8.5-1.6 1-2.4.6-1 1.6-1.8 2.1-2.9.2.2-.7 2.2-1 2.7M1037 72.7c.7-1 3-5.4 2.5-7.3-.2-.9-.8-1.7-1.3-2.4h-1.4c-.7.4-1.5.7-2.2 1.1-.1.6-.5 1.4-.3 2.4.1.5.5 1.4.3 2.2-.3.9-1.1 1.7-1.4 2.5-.2.5-.5 1.7-.2 2.2.6 1.8 3.4.1 4-.7M1079 76.4c-.8.2-1.8 0-2.4.5h-.8c.6-2.5 2-5.8 1.3-8.9-.5-2.1.1-3.7-2.1-4.1l-3.3 2.1c-.3 1-.6 1.9-1 2.9-.8 1.9-1.6 4.1-2.4 6-.5 1.2-.5 2.6-1.3 3.5-.3.7-1 .5-1.6 1-.8.5-1.2 1.6-1.6 2.5.3.3.5.7.6 1.1h1.4c-.2.4-.6.8-.6 1-.2 2.2-.3 4.3-.5 6.5-.2.6-.7 1.1-.8 1.6-.2.8.8 2.6 1 3.2.1.6.2 1.2.3 1.7.8 1.6 3.4 2.8 5.7 1.9 1-.6 1.9-1.3 2.9-1.9-.1-.4-.2-1-.5-1.3v-.3c-1 0-2.7.4-3.2 0-1.6-.5-1.1-2.6-1.9-3.8.1-1.4 1.1-1.8 1.7-2.7.9-1.3 3.5-6 3.7-7.8 2.5-.6 5.1-1.5 7.3-2.2h1c.8-.2 1.9-.5 2.5-1 .3-.4.6-.7 1-1.1-.1-.7-.5-.9-.8-1.4-1.9-.1-3.9.5-5.6 1m-8.9 6.6v.3h-.2c.1-.4.2-.7.3-1.1.2.3.1.6-.1.8m2.3-6.2l-.5.5h-.3c.2-2 1.2-3.6 1.6-5.4.7.9-.4 4.5-.8 4.9M815.7 89.1c.2-2 1.3-3.4 1.9-5.1 1-2.7 1.4-5.8 2.2-8.6.4-1.4.7-4.8-.2-5.7.1-1.9 0-1.7-1-2.5-2.5.1-3.4 2.7-4.3 4.5-1.9 3.6-3 8.2-4.5 12.1-.5 1.3-.6 3.6-1.4 4.6v.3c-3.1-1.8-5.8.9-7.3 2.9-.4.4-.8.7-1.3 1.1-.4.5-.6 1.1-1 1.6-.2.1-.3.2-.5.3-1.1 1.5-2 3.5-2.7 5.2-.1.3-.1.6-.2 1-.3.8-1.4 3-1.1 4.3.1.5.2 1.4.5 1.9.2.3.5.3.6.8.5.2 1 .3 1.4.5.6-.6 1.4-.5 2.1-1 .4-.5.8-1 1.3-1.4 1.4-1 3.1-2.2 4-3.7.4.5.1 1.3.3 2.1.4 1.4 1 3.1 2.4 3.5v.2c1.4 0 2.3-.8 2.9-1.6.6-.9-1-2.3-1.3-3-.1-.4 0-.6-.2-.8v-4c.4-.9 1.7-1.6 2.2-2.4 1.1-1.6 2-3.1 3-4.8.4-.7 1-1.3 1.3-2.2h.9zm-15.1 12.1c-.6.5-1.4.7-1.9 1.3h-.2c.1-2.7 1.1-4.1 2.2-5.7.3-.3.6-.5 1-.8.3-.5.3-1 .6-1.4.6-.5 1.3-1.1 1.9-1.6.4 0 .9.1 1.1.3h.3c-.3 3.2-2.8 6.3-5 7.9m11.8-12.4c-.4.7-.6 1.4-1.1 1.9v.2h-.2c.5-2.1 1.4-4.3 2.2-6.2 1.1-2.7 1.6-5.6 2.5-8.4.3-.8.8-1.5 1-2.4.3.5-.1 3.9-.3 4.6-1.1 3.8-2.3 7.3-4.1 10.3M871.3 70.8c-.2-1-.9-1.6-1.3-2.4h-1c-.8.4-1.7.7-2.5 1.1-.1.6-.5 1.5-.3 2.4.1.5.6 1.6.3 2.4-.3.8-2.5 3.4-1.6 4.6.2.8 1.4 1.1 2.1.5 2.2-.2 3.6-4.5 4.3-6.4.1-.4.2-1.5 0-2.2M922.1 89.1c.5-.9 1.3-2.2 1.4-3.3 2.4-.2 5-1.4 7-2.1h1c1.6-.4 3-.9 3.7-2.2.2-.3-.4-1-.8-1.3-.1-.1-1.4 0-1.9.2-1.9.6-4.7 1.2-6.8 1.4.1-2.1.8-3.9 1.3-5.9.6-2.6-.6-5-.8-6.8-.4 0-.7-.1-1-.3-.7.1-3.6 1.6-3.8 2.1-.3.8-.5 1.7-.8 2.5-1.1 2.5-2 5.3-3 7.8-.3.8-.3 1.6-.8 2.2-.4.5-1.1.4-1.6.8-.7.5-.9 1.4-1.4 2.1 0 .7.2 1.1.6 1.4.1.1.7 0 1.3 0-.1.7-.5 1.1-.6 1.7-.2 2-.3 4-.5 6-.2.6-1 1.3-.8 2.1.2.8.8 2 1.1 2.9.1.5.2 1.1.3 1.6.8 1.3 3.7 2.7 5.9 1.6.9-.4 1.7-1.2 2.5-1.7-.1-.5-.2-1.1-.3-1.6-1.1 0-2.4 0-3.3.2-.9-1.3-1.6-2.6-1.9-4.6 1.8-1.8 2.7-4.4 4-6.8m.8-12.3c.6.9-.3 4.2-.6 4.6-.2.5-.3.5-.6.8h-.3c.4-1.8.9-3.6 1.5-5.4m-3.1 10.4h.3c-.2.4-.4.7-.5 1.3h-.2c.2-.6.3-.8.4-1.3M1157.8 84.3c-2.3-.1-1.8.4-3.2 1.3-.5.3-1.1.1-1.4.5-.4-.6-.2-1.4-.5-2.2-.3-1.2-.8-2.7-1.1-3.8-.2-.6.1-1.2-.2-1.6v-1.6h.2c.1.4.4.9.5 1.3l.2 2.1c.1.1.8.3 1 .5 1.1-.1 1.4-.7 2.4-1 .8-3.1-.6-7.5-3-8.6-.7.6-2 .4-2.7 1-2.8 1-2.6 8.6-1.7 11.8.2.9 0 2.1.5 2.7v.8c-3 .6-3.7.8-4.9 3.2-.3.6-.7.9-.8 1.7-.4-.3-.7-.6-1-.6-1.2.1-1.3.8-2.1 1.3-.4.3-.9.4-1.4.6-1-2.1-.1-5.2.5-7.2.3-.9.3-2 .8-2.7 0-.6 0-.8-.3-1.1-.3-.2-.8-.4-1.3-.5-.6.6-1.4 1.2-2.1 1.7h-.3c-.2.5-.3 1-.5 1.4-.6 1.5-1.5 3.1-2.4 4.3-1.1 1.5-3.1 2-4.3 3.2h-.3c.1-2.7 1.1-4.3 1.7-6.4v-1c.2-.6 1.1-2.8 1.4-3.2 0-1.2-.3-1.2-.8-1.9-3.6.3-4.3 6-5.4 8.9-.3.8-.2 1.8-.6 2.4-.8.5-1.6 1-2.4 1.4.2 1 .7 1.5 1 2.4.4-.1.8-.1 1.3-.2.3.1.7.8 1.3 1 2.5.7 6.4-2.3 7.2-3.5h.3c.3.7.1 1.8.5 2.5.5 1 1.6 1.3 2.4 1.9 2.3 0 5.8-2.1 6.7-3.5.6.3.1.4.5 1 0 2.1 3.6 3 5.4 2.2.4-.2 1.3-.7 1.6-1.1.2-.2.1-.6.3-.8.6-.5 1.6-.4 2.1-1.1.5-.7.3-2.2.8-2.9v-1.4c.2-.4.9-.7 1.3-1 .8-.6 1.7-1.1 2.5-1.7.4-.3.5-.7 1-1 0-.6 0-1-.3-1.3v-.2zm-8.9 8.6c-1.4 0-2.1-.3-2.7-1h-.2c.6-.5 1.9-.3 2.5-.8h.3v1.8zM952.9 79.7c2.1 0 2.1-.8 3-1.7 0-4-1.5-2.8-2.5-5.2h-1.9c-.4.8-.8 1.8-1.4 2.4 0 2.4 2.2 2.7 2.8 4.5"/><path class="st2" d="M1063.5 87.3c-2.7 0-1.9.8-3.3 1.4-.5.2-.8 0-1.1.3-.7-.4-.4-1.4-.6-2.2-.3-1.2-.8-2.7-1.1-3.8-.2-.6.1-1.3-.2-1.7v-1.4h.2c.1.4.4.9.5 1.3.1.6.1 1.3.2 1.9v.2c.9 1.1 2.8-.2 3.5-.6.3-1.8-.5-5.6-1.3-6.8-.3-.6-1-.9-1.4-1.4h-.8c-.6.5-1.7.3-2.2.8-3 .9-2.8 8.5-1.9 11.8.2.9 0 2.1.5 2.7 0 .4 0 .6-.2.8-.9.7-2.6.5-3.5 1.1-.6.4-1.8 2.6-2.1 3.3.1 1.3.2 2.6.3 4 2 .9 3.9 2.3 6.4.6.4-.5.7-1 1.1-1.4.8-.5 1.6-.5 2.1-1.3.6-1 .3-3.5.8-4.3.6-1 2.3-1.5 3.3-2.2.5-.3.8-.9 1.3-1.3 0-.5-.1-1-.3-1.3v-.5zm-8.9 8.6c-.5 0-.6.1-.8 0-1.1-.1-1.1-.5-1.9-.8.4-.8 1.9-.5 2.5-1h.2v1.8zM900 76.7c-.7-1-1.7-.6-2.1-2.2H896c-.2.8-.9 1.9-1.4 2.4 0 2.2 2.1 3.3 3 4.8 1.6-.1 1.8-.8 2.7-1.4.1-1.3.3-2.7-.3-3.6M708.9 96.7c.3-.5.8-1.1 1-1.6.1-.4.1-.7.2-1.1.2-.4.5-.6.6-1.3 2.5-.6 5.1-1.5 7.3-2.2.9-.3 1.5 0 2.2-.3.4-.2 1.1-.5 1.4-.8.3-.3.4-.7.8-1-.2-.6-.6-.8-.8-1.4-3 .5-5.9 1.1-8.9 1.6.4-3.2 2.1-6.8 1-10.7-.2-.7-.1-1.2-.5-1.6-.2-.5-.7-.5-1.1-.8-.3.1-3.3 1.7-3.5 1.9-.3 1-.6 1.9-1 2.9-.8 1.8-1.3 3.8-2.1 5.7-.5 1.3-1.4 2.8-1.6 4.3-1 .4-2.1.9-2.7 1.7-.2.4-.2.8-.5 1.1.1.7.4.9.6 1.4h1.3c-.1.7-.5 1.2-.6 1.9-.3 1.1-.1 2.5-.3 3.5-.3 1.2.1 2.2-.5 3-.5 1.5-2.3 1.6-3.7 2.2-1.5.7-5.4 3.6-7.8 2.5-.7-.3-1.1-1.5-1.6-1.7-.5-.3-.9.1-1.3-.3-.3-.5.1-1.3-.2-1.9-.2-.1-.3-.2-.5-.3-.6-1.5.8-3.6 1.1-4.3.2-.4 0-1 .3-1.3h.3c.4-.3 1-.8 1.3-1.3.6-1 .8-2.9 1.7-3.5h.6c.2-.3.4-.5.6-.8.6-.4 1.7-.3 2.7-.3 0 .4 0 .4.2.6-.3 1.6-2.6 2.1-3.8 2.9-.3.2-.3.6-.6.8 0 2.4 2.5 1.5 3.7.8 1.8-1.1 4-2.8 4.6-5.1-.1-.5-.1-1-.2-1.4-1-1-1.3-2.3-2.9-2.7-1.7-.5-2.8.9-3.7 1.3-.6.2-1.2.3-1.7.5-1.5.9-3.4 3.8-4.5 5.2-.5.6-1.2.8-1.9 1.3-.6.4-1.4 1.4-1.7 2.1-.5.9-.5 2.5-1.1 3.3v2.1c-.5.2-1.1.3-1.6.5-.8.3-3.8 2.5-4.8 1.7h-.3c-.1-2.4 0-3.3.8-5.1.3-.6.2-1.3.6-1.7.2-.2.4 0 .6-.2.3-.2.7-1.1.8-1.4 1.1-3-.8-6.3-3-7-2.4-.7-5.1 1.4-6 2.4-.5.4-1 .8-1.4 1.3-.6.8-.6 1.6-1.1 2.5-.2.4-.7.8-1 1.1l-2.1 4.8-.3 2.4c-.5 1.7-.7 4.4 0 6 .3.6.9.8 1.3 1.3 2.5-.1 3.5-1.4 4.8-2.7.4-.3.7-.6 1.1-1 .5-.6.6-1.3 1.3-1.7v-.2h.2c.1.5.2 1 .3 1.4.3.5.6 1.1 1 1.6 1-.1 1.9-.1 2.9-.2 1.8-.5 5.4-2.4 6.4-3.8.9 1 1 3.1 2.1 3.8.9.6 5.8 2.4 7.8 1.9 1.7-.5 3.1-1.4 4.6-2.1 1.9-.8 4.1-1.1 5.2-2.7.6.3.8 2.3 1.4 2.9 1 1 3.3 1.7 5.1 1 .9-.4 1.8-1.3 2.7-1.7-.1-.6-.2-1.2-.3-1.7-.5 0-1.3-.1-1.6.2-3.5.1-2.2-1.7-3.5-3.5 0-2.1 1.1-2.3 1.9-3.5.9-1.1 1.2-2.3 1.9-3.5m1.1-12.9c.6.9-.3 4.2-.6 4.6-.2.5-.5.5-.8.8h-.2c.5-1.8 1.1-3.6 1.6-5.4m-37.5 15.3c-.3.8-.5 1.6-.8 2.4-.7 1.6-1.9 3-2.9 4.3-.7.9-2 1.5-2.4 2.7-.4 0-.4 0-.6.2h-.3c0-5 1.5-8.8 3.5-11.9.3-.5.3-1 .6-1.4.8-.4 1.6-.8 2.4-1.3.4 0 .4 0 .6.2.9.3 1 1.1 1.6 1.7-.1 1.5-1.1 2.1-1.7 3.1m34.1-3.7c.1-.5.2-1 .3-1.4h.3c-.2.5-.3 1-.5 1.4h-.1zM1120 82.6c-.2-.8-.7-1.8-1-2.5-.1-.5-.1-1.1-.2-1.6-.3-.9-1.3-1.4-1.6-2.4h-1.4c-.4.3-.9.4-1.3.6-.5.4-1.2 1.5-1.4 2.1-.1.6-.1 1.2-.2 1.7-.2.1-.3.2-.5.3-.7 1.1-1.6 2.1-2.2 3.2-.4.7-.5 1.3-.8 2.1-.6 1.4-1.4 3.2-2.1 4.6-.6 1.5-.8 5.4.2 6.4v.3c.2-.1.4-.1.6-.2.3.4.5.8.8 1.3 2.4 0 4.4-.7 5.9-1.6 1-.6 1.8-1.9 3.3-1.9.6-1.2 1.3-2.5 1.7-4 .5-1.8.4-4.9 0-6.7v-1.7zm-4.8 10.6c-.6.3-1.3.9-1.9 1.1-.4.2-.8 0-1.1.2-.5 0-.8-.1-1.1-.2.2-2 .3-4.1 1-5.7.1-.3.6-.7.8-1 .4-.6.4-1.3.8-1.9.6-1 1.6-2 1.9-3.2.6.8.2 2.1.5 3.3.5 2.7-.6 5.3-.9 7.4M1109.6 79.5c.2-.3.2-.7.5-1 0-.7-.1-.9-.3-1.3-.4-.1-.8-.2-1.4-.2-.4.7-1.3 1-1.7 1.6-.8 1.1-1.4 2.1-2.2 3.2-.2.2-.4.3-.6.5-.5.8-.7 1.6-1.3 2.4-.5.4-1 .8-1.4 1.3-.2.4-.1.7-.3 1.1-.5 1.1-1.8 3.7-2.7 4.3v.3h-.2c0-2.2.4-8.7-.3-10-.2-.3-.6-.5-.8-.8-1.2-.1-1.5 0-2.1 1-1 1.8-.1 3.1-.6 5.2s-.6 7-.2 9.2c.1.6-.2 1.1-.2 1.4.1.7.6 1.4 1 1.9 2.4 0 3.8-3.4 4.8-4.9.6-1 1.6-2.1 2.1-3.2.4-1 .5-2 1.1-2.9.2-.4.6-.4 1-.6.4-.3 1-1.3 1.3-1.7.9-1.4 1.4-2.9 2.4-4.3.4-.8 1.6-1.6 2.1-2.5M1029.7 92.7c-1.7.1-1.7.8-2.7 1.3-.5.1-1 .2-1.4.3-1.5.7-2.9 1.5-4.6 2.2-.8.3-2.1 1.2-3.5.8-1.1-.3-1.5-1.6-2.1-1.9-.3-.1-.9-.1-1.1-.2-.2-1-1.1-3.1-.8-4.3.2-.7.8-1.6 1.1-2.2.1-.4.1-.7.2-1.1.3-.7 1.5-1.1 1.9-1.7.6-.9.7-2.8 1.6-3.3h.8c.1-.1.2-.5.3-.6.7-.5 1.7-.5 2.9-.5.1.3 0 .3.2.5-.2 1.9-2.4 2.1-3.7 3-.4.3-1 1.1-.6 1.7.5 1.4 3.1.1 3.8-.3 1.6-1 5.5-3.8 4-6.8-.6-1.1-1.8-1.5-2.7-2.2-2.1 0-2.3.6-3.5 1.3-.7.4-1.5.2-2.1.6-1.1.7-2.4 2.7-3.2 3.8-1.2 1.6-3.3 2.5-4.3 4-1 1.3-2.2 5-1.4 7.5.1.4.4 1.3.6 1.7.1.2.6.5.6.6.1.5.2 1 .3 1.4.5.7 1.5.9 2.4 1.3 1.5.6 3.7 1.9 6.2 1.3 1.7-.4 3.1-1.4 4.6-2.1.7-.3 1.2-.2 1.9-.5 1-.4 1.8-1.2 2.5-1.7.9-.6 2.1-1 2.7-1.9.1-.2.1 0 .2-.3-.3-.3-.6-1-.8-1.4-.3-.2-.1-.1-.3-.3M1046.1 78.9c-.5-.1-1-.1-1.4-.2-.7.6-1.9 1-2.7 1.6-1.3.9-3.8 4.2-4.5 5.7-.3.7-.1 1.3-.3 2.1-.3.9-.8 2-1.1 3-.9 3.3.1 7.3 1.9 8.6.4.2.7.1 1.1.3.5.2 1.5.6 2.4.3 1.7-.5 3.3-1.8 5.1-2.2-.2-.6.1-1.4-.3-1.9-1.3-1.7-3.4.6-4.9-.6-.8-.5-1.1-1.4-1.4-2.2 1.7-.8 5.4-3.5 6.2-5.1.1-.5.2-1.1.3-1.6.2-.5.9-.9 1.1-1.4-.1-1.4-.1-2.8-.2-4.1-.3-.9-.9-1.6-1.3-2.3m-2.6 7.8c-.9.6-2.1.9-2.7 1.7h-.3c.3-.8.6-1.6 1-2.4.6-.8 1.3-1.1 1.6-2.4.3-.1.5-.1.8-.2l.3 2.4c-.3.3-.4.7-.7.9M913.2 92.4c-.3-.3-.7-.4-1-.2-1.3.1-1.2.6-1.9 1.1-.6.2-1.2.4-1.7.6-.4-1-.3-2.2-.6-3.3-.2-.7-.6-1.6-.8-2.2-.3-.9.2-2.3-.3-3v-.8h.2c.3 1.1.7 1.9.6 3.3.4.2.8.4 1.1.6 1-.1 1.6-.7 2.4-1.1.5-2.1-.6-6.2-1.7-7.6-.3-.4-1-.6-1.4-.8-.7.6-2 .4-2.7 1-3 1.9-2.6 8.5-1.6 12.2.2.9 0 2.2.5 2.9-1.3.4-2.5.8-3.8 1.3-.8.5-.9 1.7-1.4 2.5-.3.5-1 1.9-.3 2.9v1.7c.1.2.4.2.6.3 1.5 1.1 3.9 1.7 5.7.5.5-.3.7-1.1 1.1-1.4.4-.1.7-.2 1.1-.3.6-.4 1.2-1.4 1.4-2.1.4-1-.1-2.5.5-3.3.7-1 2.2-1.4 3.2-2.1.5-.4.9-1.1 1.4-1.4-.3-.4-.4-1-.6-1.3m-8.9 8.4c-1.3 0-2-.3-2.5-1h-.2v-.2c.7-.1 2-.2 2.5-.6h.2v1.8zM978.7 80.8c-.6.5-1.5.7-2.2 1.1-1.7 1.1-4.1 4.1-5.1 6-.1.6-.2 1.3-.3 1.9-.2.7-.7 1.7-1 2.4-.2.5 0 1.2-.3 1.6v4.5c-.2.3-.9.3-1.3.5-1.8.8-3.1 1.1-5.6 1-.4-.3-.7-.6-1.1-1 .1-3.4 1.4-6.2 1.6-9.4-1-.9-2-2.3-2.4-3.8-.5-1.6.5-2.5-.5-3.5-.1-.1-.5-.2-.6-.3-1.6.1-1.9 1.5-2.9 2.2v3.2c-1 3.8-3.2 6.1-5.2 8.9-.5.7-2.3 3.1-3.2 2.7h-1.3c-.5-2.3-.3-3.6.3-5.6v-1.1c.4-1.2 1.5-2.3 1.9-3.5.2-.7-.2-1.3-.3-1.9-.3-.1-.7-.2-1-.5-1.8.2-2.2 2.2-2.9 3.7-1.1 2.4-3.8 7.2-2.2 11 .3.9 1.4 1.5 1.9 2.2 1.8 0 3.7-.5 4.8-1.3.3-.2.6-.8 1-1h.6c.4-.2 1.2-.5 1.6-.8 1-.7 2.1-2.9 2.9-4 1-1.4 2.4-2.6 2.9-4.5h.3c.1.2 0 0 .2.2-.1.7-.5.7-.6 1.1v1.3c-.3 1.2-.8 2.7-1.1 4-.2.8-.1 2.6.2 3.2.7 1.4 2.4 2 3.3 3.2 4.1-.1 7.3-1.6 10-3.2.3 0 2.6 1.8 4.6 1.1 1.5-.5 2.9-1.7 4.6-2.1.1-3.6-1.9-2.5-4.9-2.4-.2-.2-.4-.3-.6-.5.1-.6.3-.9 0-1.3-.2-.6-.2-.6-1-.6v-.2c1.4-.4 5.1-3.5 5.9-4.6.4-.6.2-1.5.6-2.2.2-.3.8-.5 1-1 .5-1.3-.2-5.1-.6-5.6-.4-.6-1.2-.9-2-1.1m-4.2 9.9h-.2c.2-1.9 1.9-3.8 2.9-5.1h.3c.1.5.2 1.4.5 1.7-.1 2-2.5 2.1-3.5 3.4M939.9 85.6v-1.3c-.3-.8-1.3-1.7-1.7-2.5h-1c-.2.1-.3.1-.6.2-.8.8-1.9 1.3-2.4 2.4-.1.6-.1 1.3-.2 1.9-.2.1-.3.2-.5.3-.7 1-1.4 1.9-2.1 2.9-.3.4-.2.8-.5 1.3-1 1.8-1.9 4.1-2.7 6-.5 1.3-.7 5.1.2 5.9.3.7.2.1.8.5.3.2.7 1 1 1.3 2.5-.1 4.4-.9 6-1.9.9-.6 1.6-1.7 3-1.7.6-1.3 1.3-2.7 1.7-4.3.4-1.6.3-6.9-.2-8.4-.1-1-.6-1.9-.8-2.6M936 98.8c-.5 1.2-2.2 1.5-4 1.4 0-2.2.3-4.3 1-5.9.3-.6.9-1.3 1.3-1.9.7-1.2 1.1-2.7 2.1-3.7.1-.3 0-.1.2-.3.7 2.2.7 8.9-.6 10.4M627.6 92.3c-2.8.3-6.9 5.2-7.8 7.5l-.3 2.1c-.2.5-.6 1.2-.8 1.7-.2.5 0 1-.3 1.4v3.8c-.6-.2-1.3-.1-2.1-.3-3.6-.9-6.1-.4-9.1.8-.5.2-1 .1-1.4.5h-.2c.2-2.3 1.4-4.2 2.2-6 .3-.7.3-1.3.6-2.1.1-.3.5-.8.6-1.1.4-1.1.3-2.1.6-3.2.3-.9.8-2 1.1-3 .1-1.1.2-2.1.3-3.2.3-.8.7-2.2 1-3.2.3-1.1.1-2.4.6-3.2-.1-.8-.7-1.1-1.3-1.4-.3.3-.7.4-1 .6-1.5 1.9-1.2 6-2.1 8.6-1.5 4.9-3 9.9-4.9 14.5-.4.9-.3 1.8-.8 2.7-.1.2-.5.5-.6.8-.3.8-.2 1.6-.6 2.2.2 1.2.9 1.2 1.6 1.9 2.3-.2 4.5-1.4 6.5-1.9.4-.1.8.1 1 .2h2.1c.9.2 1.9 1.3 3 .5 1.3-.1 1.9-1.5 2.9-2.1.1-.3 0-.1.2-.3.4 1.5 2.9 3.7 5.4 2.9.1 0 .5-.4.6-.5 1.4-.6 2.8-1.1 4.1-1.7.1-4.8-2.9-1.1-4.9-2.4-1-.3-1-1.3-1.6-1.9.2-1.1 2.2-1.8 3-2.4.8-.6 2.5-2.2 3-3 .2-.6.3-1.3.5-1.9.2-.4.8-.6 1-1.1.4-1.3-.2-4.9-.6-5.4-.2-1.1-.8-.9-1.5-1.4m-1.4 7.8c-.8.8-2.2 1-2.9 1.9h-.3c.4-2 1.7-3.6 2.9-4.9h.3c.2.7.3 1.5.5 2.2-.2.2-.3.6-.5.8M778.5 96.6c-2.4 0-2.7 1.3-4.6 1.7-.5-1.2-.4-2.6-.8-4-.1-.5-.5-1.2-.6-1.6-.3-.9.1-2.2-.3-2.9V89h.2c.2.6.5 2.8.8 3.2 1.1 1.5 2.4.1 3.5-.6.2-2.7-.9-7.8-3.5-8.1-.7.6-2 .4-2.7 1-3 2.2-2.3 11.3-1 15.1-3.1 1.1-3.6.4-5.1 3.3-.4.8-.7 1-.6 2.1-.8.2-1.4.7-2.1 1-1.5.6-3.2.6-4.9.5-.4-.3-.7-.6-1.1-1 0-2.3.6-4.4 1.1-6.4.2-.9 0-1.9.5-2.5-.2-1.2-1.9-2.6-2.4-4.1-.3-1.1.3-2.6-.3-3.3-.2-.6-.5-.3-1-.6-1.1.1-2.4 1.6-2.7 2.5-.3.5.2 1.6 0 2.5-.2.8-.3 1.9-.6 2.5-1 2-2.5 3.5-3.7 5.2-.4.6-.5 1.2-1 1.7-.6.5-1.2 1.1-1.7 1.6-.2.4-.1 1.3-.2 1.6-.4 0-.5-.1-.8-.2-.1-.3-.3-.5-.3-.6.1-.8.1-1.6.2-2.4 0-1.3 1-5.5 1.6-6.2 0-.5.1-1.2-.2-1.4-.3-.3-.9-.4-1.4-.5-.8.6-1.6 1.3-2.4 1.9-.5.7-.6 1.5-1 2.4-.1.2-.4.5-.5.6-.1.3-.1.6-.2 1-.5.8-1.5 1.5-2.1 2.2v.3c-.8.8-2.7 1.4-3.5 2.2h-.1c0-3.1 1.1-4.4 1.7-6.7v-1.1c.1-.4.6-.9.8-1.3.3-.6.2-1.4.6-1.9-.1-.9-.4-.9-.8-1.4-3.7.1-4.6 6.6-5.7 9.5-.1.5-.2 1.1-.3 1.6-.2.4-2.1 1.4-2.5 1.6.2.7.6 1.8 1.1 2.2.5.3.7-.2 1.3 0 .3.1.7.8 1.3 1 .8.2 1.8-.2 2.2-.3 2.1-.8 3.8-1.8 5.1-3.3.5.7.2 2.1.6 2.9.6.9 1.6 1.1 2.4 1.7 2.6 0 5.1-2.2 6.5-3.5h.3c.2-.2.1-1.1.3-1.4.2-.1.3-.2.5-.3.5-.7.8-1.4 1.3-2.1 1-1.3 2.4-2.6 2.9-4.5h.3v.2h.2c-.1.3-.1.6-.3.8h-.3c-.1.7-.1 1.5-.2 2.2-.5 1.7-1.8 5-.6 6.8.8 1.2 2.3 1.7 3.2 2.9 3.1 0 5.2-1 7.3-1.9.8-.3 1.7-.3 2.2-1 1.9.6 3.4 1.9 5.7.5.6-.4 1-1.4 1.3-1.6l1-.2c.6-.3 1.2-1.1 1.4-1.7.4-.9 0-2.7.5-3.5.6-1 2.2-1.5 3.2-2.2.6-.4 1-1 1.6-1.4-.1-.5-.2-1-.3-1.4-.3-.1-.2 0-.3-.1m-8.9 8.5c-.6.1-1.1.2-1.6-.2-.1-.2-.1 0-.2-.3.3-.2.4-.6.6-.8.3-.2.6-.3 1.1-.3v1.6zM825.1 86.2c-.6-.1-.8-.3-1.6-.3-.6.6-1.5.8-2.2 1.3-1.6 1.1-4.2 4.4-4.9 6.2l-.3 2.1c-1.3 3.5-2.5 9 1 11.3.7.5 2 1.2 3.5.8 1.6-.7 3.3-1.5 4.9-2.2 0-.8.1-1.5-.3-1.9-.9-1.7-3.4.6-4.9-.6-.7-.4-.7-1.2-1.3-1.7.2-1.1 2.9-2.4 3.8-3 .8-.6 2-1.9 2.4-2.9.1-.4.1-.7.2-1.1.2-.5.9-.9 1.1-1.4.4-1.2-.2-4.7-.5-5.4-.4-.5-.6-.9-.9-1.2m-2.4 7.5c-.8.8-2.2 1.1-3 1.9h-.2c.3-2.1 1.9-3.8 3-5.1.4.5.5 1.7.6 2.4-.1.2-.2.6-.4.8M1178.8 86.7c-.4-.1-.7-.2-1.3-.2-.6.6-1.7 1-2.2 1.7-.3.5-.3 1-.6 1.4-.3.2-.5.4-.8.6-.4.8-.2 1.8-.2 2.7.3.3.5.6.8 1 2.2-.5 3-2.2 4.6-3.2.2-.9.9-2.5.2-3.3-.2-.3-.3-.4-.5-.7M645.9 100.8c-2.5 0-2.5 1.3-4.6 1.7-.5-1.2-.4-2.6-.8-4-.1-.5-.5-1.2-.6-1.6-.3-.9.2-2.3-.3-3v-.6h.2c.1.3.7 3 .8 3.2.3.4.6.5 1.1.6.2.2 1.8-.7 2.2-1 .5-2.6-.8-8.1-3.3-8.4-.7.6-2 .4-2.7 1-3 2.2-2.3 11.3-1 15.1-3.1 1.1-3.6.4-5.1 3.3-.1.3-.8 1-.8 1.3 0 1.1.3 2.5.3 3.8 1.9 1 4.1 2.3 6.5.6.4-.3.4-.9.8-1.3.6-.5 1.7-.4 2.2-1.3.2-.6.4-1.3.6-1.9.2-.8-.2-1.8.2-2.4.6-1 2-1.4 3-2.1.6-.4 1.1-1.2 1.7-1.6-.1-.5-.2-1-.3-1.4-.1.1.1.2-.1 0m-8.9 8.6c-.2.1 0 0-.2.2-1.1 0-1.8-.3-2.2-1-.3-.1-.1 0-.3-.2.8-.3 1.8-.6 2.7-.6v1.6z"/><path class="st2" d="M725.2 89.6c-.5-.2-1.1-.3-1.6-.5-.7.7-1.8.9-2.5 1.4-1.7 1.2-2.8 3.1-4 4.9-.2.3-.7.7-.8 1-.1.7-.2 1.5-.3 2.2-.2.4-.6 1.1-.8 1.6-.6 1.7-.8 6.5 0 8.1.3.7 1 1.2 1.6 1.6.7.5 2.2 1.3 3.8.8 1.6-.7 3.2-1.5 4.8-2.2 0-.8 0-1.4-.3-1.7-.2-.4-.5-.4-.8-.8-1.2.1-3 .9-4 .2-.8-.3-1.3-1.5-1.6-2.2 1.6-.9 5.4-3.5 6.2-5.1.1-.5.2-1.1.3-1.6.2-.5.9-.9 1.1-1.4.3-.7 0-3.7-.2-4.3-.1-.8-.6-1.4-.9-2m-2.2 6.5c-.4 1.5-2.5 1.8-3.5 2.9h-.2c.8-2 1.8-3.5 3-5.1h.3c.2.7.6 1.9.4 2.2M986.9 92.1c-.2-.2-.4-.2-.8-.2-.4.3-1.1.3-1.6.6-.6.4-.9 1.2-1.6 1.6.8 1.8 2.8 7 1.4 9.9-.1.2-1.6 1.7-1.9 1.9 0 1 .4 1 .8 1.6.9-.1 1.4-.7 2.1-1.1 2.8-1.7 3.5-2.6 4.5-6.2.8-3-1.2-7.6-2.9-8.1"/><path d="M1186.8 126.4h-.8c.2.2.5.2.8 0" clip-path="url(#SVGID_4_)" fill-rule="evenodd" clip-rule="evenodd" fill="#fff"/></g><g class="st0"><defs><path id="SVGID_17_" d="M590.9 39.6h619.6v103.3H590.9z"/></defs><clipPath id="SVGID_6_"><use xlink:href="#SVGID_17_" overflow="visible"/></clipPath></g><g><path class="st4" d="M0 26.6h22.1v110.6H0zM57 26.6H44.2v110.7h22.2V42.8z"/><path class="st5" d="M22.1 26.6h22.1v110.6H22.1zM66.4 42.8v94.5h22.1V81.2z"/><path class="st4" d="M88.5 81.2v56.1h22.1v-17.8z"/><g><path class="st4" d="M60.4 0H51l9.4 16.2z"/><path class="st5" d="M82.5 54.5V0H60.4v16.2z"/><path class="st4" d="M104.6 92.8V0H82.5v54.5z"/></g><g id="dessous_2_"><path class="st4" d="M153 32.7h-9v31.6h-6.2V32.7h-9V27H153v5.7zM166.7 32.7v10h12.7v5.8h-12.7v10h15.6v5.7h-21.9V27h21.9v5.7h-15.6zM211 50.9c2.5 2.1 3.9 5.1 3.9 8.5v4.8h-6.2v-4.5c0-3.2-1.6-6-6.4-6h-5.9v10.5H190V27h12.2c7.7 0 12.6 5 12.6 11.4v4c0 3.4-1.3 6.4-3.8 8.5zm-8.8-2.9c4.8 0 6.4-2.8 6.4-6v-3.4c0-3.2-1.6-6-6.4-6h-5.9V48h5.9zM243.5 50.9c2.5 2.1 3.9 5.1 3.9 8.5v4.8h-6.2v-4.5c0-3.2-1.6-6-6.4-6h-5.9v10.5h-6.3V27h12.2c7.7 0 12.6 5 12.6 11.4v4c0 3.4-1.4 6.4-3.9 8.5zm-8.7-2.9c4.8 0 6.4-2.8 6.4-6v-3.4c0-3.2-1.6-6-6.4-6h-5.9V48h5.9zM261.4 64.2h-6.3V27h6.3v37.2zM293.1 32.7h-9v31.6h-6.2V32.7h-9V27h24.2v5.7zM323.8 37.5v16.2c0 6.4-4.7 11.2-12.4 11.2-7.8 0-12.4-4.8-12.4-11.2V37.5c0-6.4 4.6-11.2 12.4-11.2 7.8 0 12.4 4.8 12.4 11.2zm-18.5.5v15.2c0 3.2 1.4 6 6.2 6 4.8 0 6.2-2.8 6.2-6V38c0-3.2-1.4-6-6.2-6-4.7 0-6.2 2.8-6.2 6zM337.9 64.2h-6.3V27h6.3v37.2zM366.5 50.9c2.5 2.1 3.9 5.1 3.9 8.5v4.8h-6.2v-4.5c0-3.2-1.6-6-6.4-6h-5.9v10.5h-6.3V27h12.2c7.7 0 12.6 5 12.6 11.4v4c0 3.4-1.4 6.4-3.9 8.5zm-8.7-2.9c4.8 0 6.4-2.8 6.4-6v-3.4c0-3.2-1.6-6-6.4-6h-5.9V48h5.9zM384.4 32.7v10h12.7v5.8h-12.7v10H400v5.7h-21.9V27H400v5.7h-15.6zM425.1 40.3v-2.2c0-3.2-1.4-6-6.2-6-4.6 0-6.1 2.5-6.1 5.7 0 4.1 5.9 4.4 11 6.4 4.5 1.5 7.5 4.8 7.5 9.3 0 6.4-4.6 11.4-12.4 11.4s-12.4-5-12.4-11.4v-1.9l6.3-.5V53c0 3.2 1.4 6 6.2 6 4.6 0 6.1-2.5 6.1-5.7 0-4.1-6.6-4.7-11-6.4-5.4-2-7.4-4.8-7.5-9.3 0-6.4 4.6-11.4 12.4-11.4s12.4 5 12.4 11.4v1.9l-6.3.8z"/><g><path class="st4" d="M180.7 137.3h-13.2v-26l-6.9 26h-11.8l-6.9-26v26h-13.2V88.8h15.9l9.8 31.4h.4l9.8-31.4h15.9v48.5zM202.5 100.9v6.1h14.1v12.1h-14.1v6.1H220v12.1h-30.7V88.8H220v12.1h-17.5zM280.5 137.3h-13.2v-26l-6.9 26h-11.8l-6.9-26v26h-13.2V88.8h15.9l9.8 31.4h.4l9.8-31.4h15.9v48.5zM325.4 103.4v19.3c0 8.8-8.1 15.6-18.1 15.6-10.1 0-18.1-6.8-18.1-15.6v-19.3c0-8.8 8-15.6 18.1-15.6 9.9 0 18.1 6.8 18.1 15.6zm-23.2 1v17.2c0 2.1 1.3 4.6 5 4.6 3.8 0 5-2.4 5-4.6v-17.2c0-2.1-1.2-4.6-5-4.6-3.7.1-5 2.5-5 4.6zM347.1 137.3h-13.2V88.8h13.2v48.5zM392 110.6c0 3.7-1.5 7.2-3.9 9.9 2.5 2.7 3.9 6.2 3.9 9.9v6.9h-13.2v-6.2c0-2.1-1.2-4.6-5-4.6h-5v10.7h-13.2V88.8h18.1c10 0 18.2 7.2 18.2 16v5.8zm-18.2 3.8c3.8 0 5-2.4 5-4.6v-4.4c0-2.1-1.2-4.6-5-4.6h-5v13.5h5zM413.7 100.9v6.1h14.1v12.1h-14.1v6.1h17.5v12.1h-30.7V88.8h30.7v12.1h-17.5z"/></g><path fill="#dd0029" d="M172.6 148.9l-17.8 30.9-17.8-30.9z"/><path class="st4" d="M154.8 200.7l-20.1-34.8H0v-3.1h136.5l18.3 31.7 18.3-31.7H392v3.1H174.9z"/><g><path class="st5" d="M406.2 75.6V79c0 1.5-1.1 2.6-2.9 2.6h-2.8V73h2.8c1.8 0 2.9 1.2 2.9 2.6zm-1.4.1c0-.7-.4-1.4-1.5-1.4H402v5.9h1.4c1.1 0 1.5-.6 1.5-1.4v-3.1zM409.4 74.3v2.3h2.9V78h-2.9v2.3h3.6v1.3h-5V73h5v1.3h-3.6zM423.1 80.3v1.3h-4.9V73h1.4v7.2h3.5zM429.1 79.8h-2.6l-.5 1.8h-1.4l2.4-8.5h1.7l2.4 8.5h-1.4l-.6-1.8zm-.4-1.3l-.9-3.8h-.1l-.9 3.8h1.9z"/></g><g><path class="st5" d="M405.2 166.8h-2.6l-.5 1.8h-1.4l2.4-8.5h1.7l2.4 8.5h-1.4l-.6-1.8zm-.3-1.3l-.9-3.8h-.1l-.9 3.8h1.9zM412.7 163.2v-.5c0-.7-.3-1.4-1.4-1.4-1 0-1.4.6-1.4 1.3 0 .9 1.3 1 2.5 1.5 1 .3 1.7 1.1 1.7 2.1 0 1.5-1.1 2.6-2.8 2.6s-2.9-1.1-2.9-2.6v-.4l1.4-.1v.4c0 .7.3 1.4 1.4 1.4 1 0 1.4-.6 1.4-1.3 0-.9-1.5-1.1-2.5-1.5-1.2-.5-1.7-1.1-1.7-2.1 0-1.5 1.1-2.6 2.8-2.6s2.8 1.1 2.8 2.6v.4l-1.3.2zM419 160.1c1.6 0 2.6 1.1 2.6 2.5 0 .7-.3 1.4-.9 1.7.7.4 1.1 1.1 1.1 1.9 0 1.4-1 2.5-2.6 2.5H416v-8.5h3zm-1.6 3.6h1.6c.9 0 1.3-.5 1.3-1.2 0-.6-.4-1.1-1.3-1.1h-1.6v2.3zm1.8 3.6c.9 0 1.3-.5 1.3-1.2 0-.6-.4-1.1-1.3-1.1h-1.8v2.3h1.8zM428.4 167.3v1.3h-4.9v-8.5h1.4v7.2h3.5z"/></g><path class="st5" d="M210.3 83.6h-10.4l6.3-10.7h10.3l-6.2 10.7z"/></g></g><path class="st4" d="M437 162.9h763v2.9H437z"/></svg>