<svg xmlns="http://www.w3.org/2000/svg" xmlns:xlink="http://www.w3.org/1999/xlink" viewBox="0 0 430 204.2"><style>.st0{clip-path:url(#SVGID_2_)}.st2{clip-path:url(#SVGID_4_);fill-rule:evenodd;clip-rule:evenodd}.st4{fill:#003a60}.st5{fill:#bfced5}</style><defs><path id="SVGID_1_" d="M0 135.8h430v71.7H0z"/></defs><clipPath id="SVGID_2_"><use xlink:href="#SVGID_1_" overflow="visible"/></clipPath><g class="st0"><defs><path id="SVGID_3_" d="M0 135.8h430v71.7H0z"/></defs><clipPath id="SVGID_4_"><use xlink:href="#SVGID_3_" overflow="visible"/></clipPath><path d="M411.9 197.8c.8 0 3.3.1 3.8.4h-.8c0 .2-.1.4-.1.7-3.5 0-6.6-.8-10.3-.9 0 .1-.1.3-.1.4h.8c.5.4 1.5 0 2.2.2.8.2 1.9 0 2.9.2 1.2.3 2.7.3 4.1.3v.1h-.2c-.2.1-.7.2-.9.2v.3c-1.4 0-3-.2-4.2-.4H408c-1-.2-2.4-.3-3.4-.4-.6-.1-3.1-.2-3.4 0 .8 0 2.8 0 3.2.3-3 0-6.5.2-9.2-.4h-1.3c-.9-.2-2.2-.1-3.1-.3h-3.2c-1.3 0-3.5.1-4.7-.2-1.1-.3-2.6.1-3.5-.1l-15.4-.3c-1-.2-2.6-.1-3.8-.1H348c-1 .2-2.8.2-3.9.2h-1.5c-1.1.3-2.5 0-3.6.2-.4.1-1.2 0-1.8.1-2.7.6-6.1 0-8.7.7-1.1 0-2.2.1-3.3.1-.9.2-2.2 0-3.2.2-2.7.6-6.1.1-8.7.8-.9 0-1.8.1-2.8.1-2.3.6-5.1.2-7.4.8h-1.2c-1.7.4-3.8.3-5.4.7h-1.1c-.9.2-2 .1-3 .3-1.2.3-2.8.5-4.2.6v-.2c.3-.2.4-.4.6-.7-1.1-.1-3.1.3-4.4 0-.7-.2-1.5-.3-2.1-.4-.1-.3-.2-.4-.2-.8h.2c.5-.4 2-.4 2.9-.4l-.1-.2h.6c.6-.4 1.7-.1 2.5-.3l5.4-.9v-.1c-1.7 0-3.4 0-4.7.3h-1c-1.3.3-3.3.5-4.7.2-.1-.2-.1-.2-.1-.4.3-.2.5-.3.7-.7h.1v-.1h-.2c-.4-.3-1.5 0-1.9.1h-.9c-1.1.3-2.7.6-3.9.4v-.4c.4-.1.4-.3.8-.4v-.1c-1.4 0-3 .1-4.2.4h-.9c-.9.2-2.1.3-3 .6-1.6.2-3.2.4-4.7.7-1.2.3-2.6.6-4 .7-.2-.3-.2-.2-.3-.6h.2c.6-.5 1.4-.3 2.3-.6 1.6-.4 3.6-.6 5.2-1 .4 0 .9-.1 1.3-.1 3.7-1 7.9-.9 11.7-1.9 1.1-.3 2.2-.2 3.2-.4h.9c1-.3 2.4-.3 3.4-.6h.9c1.4-.4 3.2-.3 4.6-.7h1c3-.7 6.5-.4 9.5-1.1.8-.2 1.7 0 2.4-.2h1.2c.7-.2 1.8-.2 2.5-.3 1.4-.1 2.8-.1 4.2-.2 2.5-.6 5.5-.1 7.9-.7.5-.1 1.4 0 1.8-.1 1.4 0 2.7-.1 4.1-.1 2.2-.5 5.2.1 7.4-.4h3.1c1-.2 2.6.2 3.8-.1 1.4-.3 3.6.2 5.1-.1.8-.2 2.1-.1 3.1-.1h12.6c1.1 0 2.4-.1 3.3.1 1.5.4 3.7-.2 5.2.1h1.8c1.5 0 3.8-.1 5.1.2h2.6c.6.1 1.7-.1 2.4.1 1.9.5 4.3 0 6.2.4 2.3.1 4.6.2 6.8.3.9.2 2.1.1 3 .3h1.3c.8.2 1.9 0 2.8.2 3.2.8 7.3.3 10.5 1.1h1.1c2.2.5 5 .3 6.8 1.1v.1c-.9.1-2.4.1-3.3.3-.5.1-1.2-.1-1.5.1.4 0 1.6.2 1.9.4h-.1c-.9.7-2.7.4-4 .7-.6.1-1.5-.2-1.9.1.7 0 1.8 0 2 .4h-.1c-.7.7-2.2.4-3.5.3v.2c-.6.3-.6.4-.6.7" clip-path="url(#SVGID_4_)" fill-rule="evenodd" clip-rule="evenodd" fill="#e2001a"/><path class="st2" d="M413.5 140.8h-.5c-.4.3-1.1.4-1.4.8-.6.7-.8 3.8-1.1 5-.9 3.3-1.3 7.1-2.3 10.4-.4 1.5-.4 3.7-1.2 4.7 0 1.1.2 1.3.9 1.5.2-.2.5-.3.8-.4.6-.4 1-1.1 1.7-1.4 1.3-6.6 2.5-13.2 3.8-19.7-.4-.4-.5-.6-.7-.9M211.4 177.7c-.6.1-1.5.9-2.1.4-.3 0-.3 0-.4-.1-.3-.3-.4-1.9-.2-2.5.1-.3.4-.8.4-1.1 0-.4.1-.7.1-1.1.3-.7 1-1.5 1.2-2.2-.1-.4-.1-.9-.2-1.3-.3-.1-.6-.1-.8-.3-1.4.4-2.8 4.3-3.3 5.8-.2.5-.1 1.1-.3 1.5 0 1.6-1.1 1.4-1.9 2.1-.3 0-.5 0-.7-.1-.3-.1-.3-.2-.6-.3v-5.6c-.2-.2-.4-.5-.7-.7-.1-.1 0 0-.2-.1-.6.5-1.1 1-1.7 1.5-.3.5-.2 1.1-.6 1.5-.4.6-1.2 1.1-1.7 1.8h-.1c.7-2.8 2.1-5.6 3.3-7.9.4-.8.6-1.7 1.1-2.4.7-1.2 1.6-2.5 2.2-3.9.6-1.4.8-2.8 1.4-4.2.5-1.3 1.1-2.8 1.5-4.2.3-.9.1-1.8.3-2.8.2-.7.4-1.4.3-2.3-.2-.1-.3-.4-.4-.6-2.3 0-2.6 3.5-3.3 5.3-1.1 2.9-2.2 6.1-3.4 8.8l-.6 2.1c-.6 1.5-1.5 3.2-2.3 4.5-.2.3-.2.6-.3.9-.3.6-.8 1.1-1.2 1.7-.2.2-.4.4-.7.6-.2.3-.3.6-.6.9-.2.2-.4.4-.7.6-.2.4 0 .8.2 1 .1.1.4 0 .7.2h.2c-.7 1.4-1.6 4.1-1.7 6.1.4 0 .8.1 1.2.1 1.1-.3 3.6-2.5 4.2-3.4.4.2.2.8.3 1.3.2.7.6 1.3.9 2 .8.2 2.1.6 3.1.2.4-.2.7-.6 1-.9.4-.3.8-.5 1.1-.9.6.2.7 1 1.2 1.3.2.1.3.1.4.2 1.8 0 4-1.1 4.4-2.6.1-.1 0 0 .1-.2.3-.2 0-.5-.1-.7M188.1 150.6c-.5.4-1.2.5-1.7.9-.3.2-.5.7-.8 1-.5.6-1.3 1.1-1.8 1.8-.6.9-1.1 1.8-1.7 2.6-.2.3-.6.6-.8.9-.5.7-.8 1.5-1.3 2.2-.3.5-.9 1-1.2 1.5-.5 1-.6 2.3-1.1 3.4-1 2.3-1.9 4.6-2.8 7.2-.4 1.2-.8 4.4-.3 5.8.1.5.5 1 .7 1.4.2.4 0 .9.2 1.2.4.6 2.2 1.8 3 2.1.8-.1 1.7-.1 2.5-.2.8-.2 1.4-.8 2-1.2-.1-.4-.3-.7-.4-1.1-.9 0-2.7.2-3.2-.2-1.1-.4-1.7-2.2-2-3.4v-.8c-.1-.4-.3-1.7-.1-2.2.1-.2.4-.4.4-.7v-.9c.3-.8 1.7-2.1 2.2-2.8 1.4-1.9 2.8-3.9 4.1-6 .5-.8.7-1.7 1.2-2.5.8-1.2 1.7-2.4 2.3-3.8.1-.4.1-.7.2-1.1.3-.8.7-1.8 1-2.6.1-.4 0-.9.2-1.2 0-.4 0-.9-.1-1.2-.2.1-.3 0-.7-.1m-5 10.4c-.9 1.7-2.3 3.3-3.3 5h-.1c.1-.3.2-.7.3-1 .5-.7 1.2-1.5 1.7-2.2.3-.5.3-1.1.7-1.7.4-.7 1.1-1.3 1.4-2 .1.2-.5 1.6-.7 1.9M309.5 158.8c.5-.7 2.1-3.8 1.8-5.1-.2-.6-.6-1.2-.9-1.7h-1c-.5.3-1 .5-1.5.8-.1.4-.4 1-.2 1.7.1.4.4 1 .2 1.5-.2.6-.7 1.2-1 1.8-.2.4-.4 1.2-.1 1.5.4 1.2 2.3.1 2.7-.5M338.7 161.4c-.6.2-1.2 0-1.7.3h-.6c.4-1.8 1.4-4 .9-6.2-.3-1.5.1-2.6-1.4-2.9-.8.5-1.5 1-2.3 1.4-.2.7-.4 1.3-.7 2-.6 1.3-1.1 2.9-1.7 4.2-.3.8-.4 1.8-.9 2.4-.2.5-.7.4-1.1.7-.5.4-.8 1.1-1.1 1.8.2.2.4.5.4.8h1c-.1.2-.4.5-.4.7l-.3 4.5c-.1.4-.5.8-.6 1.1-.2.5.5 1.8.7 2.2.1.4.1.8.2 1.2.6 1.1 2.4 1.9 4 1.3.7-.4 1.3-.9 2-1.3-.1-.3-.2-.7-.3-.9v-.2c-.7 0-1.8.3-2.2 0-1.1-.4-.7-1.8-1.3-2.6.1-1 .8-1.3 1.2-1.9.7-.9 2.5-4.2 2.5-5.4 1.7-.4 3.5-1.1 5.1-1.5h.7c.6-.2 1.3-.3 1.8-.7.2-.3.4-.5.7-.8-.1-.5-.3-.6-.6-1-1.4 0-2.8.4-4 .8m-6.2 4.6v.2h-.1c.1-.3.1-.5.2-.8.1.2.1.4-.1.6m1.6-4.3c-.1.2-.2.2-.3.3h-.2c.1-1.4.8-2.5 1.1-3.8.5.7-.3 3.2-.6 3.5M156 170.2c.1-1.4.9-2.4 1.3-3.5.7-1.9 1-4 1.5-6 .3-1 .5-3.4-.1-4 0-1.3 0-1.2-.7-1.8-1.7.1-2.3 1.9-3 3.1-1.3 2.5-2.1 5.7-3.1 8.4-.4.9-.4 2.5-1 3.2v.2c-2.2-1.3-4.1.6-5.1 2-.3.3-.6.5-.9.8-.3.4-.4.7-.7 1.1-.1.1-.2.1-.3.2-.7 1.1-1.4 2.4-1.9 3.6 0 .2-.1.4-.1.7-.2.6-1 2.1-.8 3 .1.3.1 1 .3 1.3.1.2.3.2.4.6.3.1.7.2 1 .3.4-.4 1-.3 1.4-.7.3-.3.6-.7.9-1 .9-.7 2.1-1.5 2.8-2.5.3.4.1.9.2 1.4.3 1 .7 2.1 1.7 2.4v.1c1 0 1.6-.6 2-1.1.4-.6-.7-1.6-.9-2.1-.1-.2 0-.4-.1-.6v-2.8c.3-.6 1.1-1.1 1.5-1.7.8-1.1 1.4-2.1 2.1-3.3.3-.5.7-.9.9-1.5h.7zm-10.5 8.4c-.4.3-1 .5-1.3.9h-.1c0-1.8.8-2.9 1.5-4 .2-.2.4-.4.7-.6.2-.3.2-.7.4-1 .4-.4.9-.7 1.3-1.1.3 0 .6.1.8.2h.2c-.3 2.3-2 4.5-3.5 5.6m8.2-8.6c-.3.5-.4 1-.8 1.3v.1h-.1c.3-1.5 1-3 1.5-4.3.8-1.9 1.1-3.9 1.8-5.8.2-.5.5-1.1.7-1.7.2.3-.1 2.7-.2 3.2-.8 2.6-1.7 5.1-2.9 7.2M194.6 157.5c-.2-.7-.6-1.1-.9-1.7h-.8c-.6.3-1.2.5-1.8.8-.1.5-.4 1-.2 1.7.1.4.4 1.1.2 1.7-.2.6-1.7 2.4-1.1 3.2.2.6 1 .8 1.4.3 1.5-.1 2.5-3.1 3-4.4.2-.4.3-1.1.2-1.6M229.8 170.2c.3-.6.9-1.5 1-2.3 1.7-.1 3.4-1 4.9-1.4h.7c1.1-.3 2.1-.6 2.5-1.5.1-.2-.3-.7-.6-.9-.1-.1-1 0-1.3.1-1.3.4-3.3.9-4.7 1 .1-1.4.6-2.7.9-4.1.4-1.8-.4-3.5-.6-4.7-.3 0-.5-.1-.7-.2-.5 0-2.5 1.1-2.6 1.4l-.6 1.8c-.7 1.7-1.4 3.7-2.1 5.4-.2.5-.2 1.1-.6 1.5-.3.3-.8.3-1.1.6-.5.3-.6 1-1 1.4 0 .5.2.7.4 1h.9c-.1.5-.3.8-.4 1.2l-.3 4.2c-.1.4-.7.9-.6 1.4.1.6.6 1.4.8 2 .1.4.1.7.2 1.1.6.9 2.6 1.9 4.1 1.1.6-.3 1.2-.9 1.8-1.2-.1-.4-.1-.7-.2-1.1-.8 0-1.7 0-2.3.1-.6-.9-1.1-1.8-1.3-3.2 1.3-1.3 1.9-3.1 2.8-4.7m.5-8.5c.4.6-.2 2.9-.4 3.2-.1.4-.2.3-.4.6h-.2c.3-1.3.7-2.6 1-3.8m-2.1 7.2h.2c-.1.3-.3.5-.3.9h-.1c.1-.5.2-.6.2-.9M393.4 166.9c-1.6-.1-1.2.3-2.2.9-.3.2-.7.1-1 .3-.3-.4-.2-1-.3-1.5-.2-.8-.6-1.8-.8-2.6-.1-.4.1-.8-.1-1.1v-1.1h.1c.1.3.3.6.3.9l.1 1.4c0 .1.5.2.7.3.7-.1 1-.5 1.7-.7.5-2.2-.4-5.2-2.1-6-.5.4-1.4.3-1.9.7-1.9.7-1.8 6-1.2 8.2.2.6 0 1.4.3 1.9v.6c-2.1.4-2.6.6-3.4 2.2-.2.4-.5.7-.6 1.2-.3-.2-.5-.4-.7-.4-.9.1-.9.5-1.4.9-.3.2-.7.3-1 .4-.7-1.5-.1-3.6.3-5 .2-.6.2-1.4.6-1.9 0-.4 0-.6-.2-.8-.2-.2-.6-.3-.9-.3-.4.4-1 .8-1.4 1.2h-.2c-.1.3-.2.7-.3 1-.4 1-1 2.1-1.7 3-.8 1-2.2 1.4-3 2.2h-.2c0-1.9.8-3 1.2-4.4v-.7c.1-.4.8-1.9 1-2.2 0-.9-.2-.9-.6-1.3-2.5.2-3 4.2-3.8 6.2-.2.5-.1 1.2-.4 1.7-.6.3-1.1.7-1.7 1 .1.7.5 1 .7 1.7.3 0 .6-.1.9-.1.2.1.5.6.9.7 1.7.5 4.5-1.6 5-2.4h.2c.2.5.1 1.2.3 1.8.3.7 1.1.9 1.7 1.3 1.6 0 4-1.5 4.6-2.4.4.2.1.3.3.7 0 1.4 2.5 2.1 3.8 1.5.3-.1.9-.5 1.1-.8.1-.1.1-.4.2-.6.4-.4 1.1-.2 1.4-.8.3-.5.2-1.5.6-2v-1c.1-.3.6-.5.9-.7l1.8-1.2c.2-.2.4-.5.7-.7 0-.4 0-.7-.2-.9v-.3zm-6.2 5.9c-1 0-1.4-.2-1.9-.7h-.1c.4-.4 1.3-.2 1.8-.6h.2v1.3zM251.2 163.7c1.4 0 1.4-.5 2.1-1.2 0-2.8-1.1-2-1.8-3.6h-1.3c-.3.5-.6 1.3-1 1.7 0 1.6 1.6 1.8 2 3.1"/><path class="st2" d="M328 169c-1.9 0-1.3.5-2.3 1-.4.2-.5 0-.8.2-.5-.3-.3-1-.4-1.5-.2-.8-.6-1.8-.8-2.6-.1-.4.1-.9-.1-1.2v-1h.1c.1.3.3.6.3.9 0 .4.1.9.1 1.3v.1c.6.8 1.9-.1 2.4-.4.2-1.3-.4-3.9-.9-4.7-.2-.4-.7-.6-1-1h-.6c-.4.3-1.2.2-1.5.6-2.1.7-1.9 5.9-1.3 8.2.2.6 0 1.4.3 1.9 0 .3 0 .4-.1.6-.6.5-1.8.3-2.4.8-.4.3-1.3 1.8-1.4 2.3.1.9.1 1.8.2 2.8 1.4.6 2.7 1.6 4.4.4.3-.3.5-.7.8-1 .5-.3 1.1-.3 1.4-.9.4-.7.2-2.4.6-3 .5-.7 1.6-1 2.3-1.5.3-.2.5-.6.9-.9 0-.4-.1-.7-.2-.9v-.5zm-6.2 5.9c-.3 0-.4.1-.6 0-.8 0-.8-.4-1.3-.6.3-.5 1.3-.3 1.8-.7h.1v1.3zM214.4 161.6c-.5-.7-1.2-.4-1.4-1.5h-1.3c-.2.5-.6 1.3-1 1.7 0 1.6 1.5 2.3 2.1 3.3 1.1-.1 1.3-.5 1.9-1 .1-.9.2-1.9-.3-2.5M81.8 175.5c.2-.3.5-.8.7-1.1 0-.3.1-.5.1-.8.2-.3.4-.4.4-.9 1.7-.4 3.5-1.1 5.1-1.5.6-.2 1 0 1.5-.2.3-.1.7-.4 1-.6.2-.2.3-.5.6-.7-.1-.4-.4-.6-.6-1-2.1.4-4.1.7-6.2 1.1.3-2.2 1.4-4.7.7-7.4-.1-.5-.1-.8-.3-1.1-.2-.4-.5-.3-.8-.6-.2.1-2.3 1.2-2.4 1.3-.2.7-.4 1.3-.7 2-.5 1.2-.9 2.6-1.4 4-.4.9-1 1.9-1.1 3-.7.3-1.5.6-1.9 1.2-.2.2-.2.6-.3.8.1.5.2.7.4 1h.9c-.1.5-.3.8-.4 1.3-.2.8-.1 1.7-.2 2.4-.2.8.1 1.6-.3 2.1-.3 1-1.6 1.1-2.5 1.5-1.1.5-3.7 2.5-5.4 1.8-.5-.2-.8-1-1.1-1.2-.4-.2-.7.1-.9-.2-.2-.3.1-.9-.1-1.3-.1-.1-.2-.1-.3-.2-.4-1 .6-2.5.8-3 .1-.3 0-.7.2-.9h.2c.3-.2.7-.6.9-.9.4-.7.5-2 1.2-2.4h.4c.1-.2.3-.4.4-.6.4-.3 1.2-.2 1.9-.2 0 .3 0 .3.1.4-.2 1.1-1.8 1.5-2.6 2-.2.1-.2.4-.4.6 0 1.7 1.7 1.1 2.5.6 1.3-.8 2.8-1.9 3.2-3.5 0-.3-.1-.7-.1-1-.7-.7-.9-1.6-2-1.9-1.2-.4-1.9.6-2.5.9l-1.2.3c-1 .6-2.3 2.6-3.1 3.6-.3.4-.9.6-1.3.9-.4.3-.9 1-1.2 1.4-.4.6-.4 1.8-.8 2.3v1.4c-.4.1-.7.2-1.1.3-.5.2-2.6 1.8-3.3 1.2h-.2c-.1-1.7 0-2.3.6-3.5.2-.4.2-.9.4-1.2.1-.1.3 0 .4-.1.2-.1.5-.8.6-1 .8-2.1-.5-4.4-2.1-4.9-1.7-.5-3.6 1-4.2 1.7-.3.3-.7.6-1 .9-.4.5-.4 1.1-.8 1.8-.1.3-.5.5-.7.8-.5 1.1-1 2.2-1.4 3.3-.1.6-.1 1.1-.2 1.7-.3 1.2-.5 3 0 4.2.2.4.6.5.9.9 1.7-.1 2.4-1 3.3-1.9.3-.2.5-.4.8-.7.3-.4.4-.9.9-1.2v-.1h.1c.1.3.1.7.2 1 .2.4.4.7.7 1.1.7 0 1.3-.1 2-.1 1.2-.4 3.8-1.7 4.4-2.6.6.7.7 2.1 1.4 2.6.7.4 4.1 1.7 5.4 1.3 1.2-.3 2.2-1 3.2-1.4 1.3-.6 2.8-.8 3.6-1.9.4.2.6 1.6 1 2 .7.7 2.3 1.2 3.5.7.6-.3 1.2-.9 1.9-1.2-.1-.4-.1-.8-.2-1.2-.4 0-.9 0-1.1.1-2.4.1-1.5-1.2-2.4-2.4 0-1.4.8-1.6 1.3-2.4.3-.9.6-1.7 1-2.5m.8-9c.4.6-.2 2.9-.4 3.2-.1.4-.3.3-.6.6h-.1c.4-1.3.7-2.5 1.1-3.8m-26 10.6c-.2.6-.4 1.1-.6 1.7-.5 1.1-1.3 2.1-2 3-.5.6-1.4 1.1-1.7 1.9-.3 0-.3 0-.4.1h-.2c0-3.5 1.1-6.1 2.4-8.3.2-.3.2-.7.4-1 .6-.3 1.1-.6 1.7-.9.3 0 .3 0 .4.1.6.2.7.8 1.1 1.2 0 1.1-.7 1.5-1.1 2.2m23.7-2.5c.1-.3.1-.7.2-1h.2c-.1.3-.2.7-.3 1h-.1zM367.1 165.7c-.1-.6-.5-1.2-.7-1.8 0-.4-.1-.7-.1-1.1-.2-.6-.9-1-1.1-1.7h-1c-.2.2-.6.2-.9.4-.3.3-.8 1-1 1.4 0 .4-.1.8-.1 1.2-.1.1-.2.1-.3.2-.5.7-1.1 1.5-1.5 2.2-.3.5-.3.9-.6 1.4-.4 1-1 2.2-1.4 3.2-.4 1-.6 3.8.1 4.4v.2c.1 0 .3-.1.4-.1l.6.9c1.6 0 3-.5 4.1-1.1.7-.4 1.3-1.3 2.3-1.3.4-.9.9-1.7 1.2-2.8.4-1.3.3-3.4 0-4.6v-1zm-3.3 7.3c-.4.2-.9.6-1.3.8-.3.1-.6 0-.8.1-.3 0-.6 0-.8-.1.1-1.4.2-2.9.7-4 .1-.2.4-.5.6-.7.3-.4.3-.9.6-1.3.4-.7 1.1-1.4 1.3-2.2.4.6.1 1.5.3 2.3.4 1.8-.4 3.7-.6 5.1M360 163.6c.2-.2.1-.5.3-.7 0-.5-.1-.6-.2-.9-.3-.1-.6-.1-1-.1-.3.5-.9.7-1.2 1.1-.5.7-1 1.5-1.5 2.2-.1.1-.3.2-.4.3-.4.5-.5 1.1-.9 1.7-.3.3-.7.6-1 .9-.2.3-.1.5-.2.8-.3.7-1.3 2.6-1.9 3v.2h-.1c0-1.5.3-6.1-.2-7-.1-.2-.4-.3-.6-.6-.9-.1-1 0-1.4.7-.7 1.3-.1 2.1-.4 3.6-.3 1.4-.4 4.9-.1 6.4.1.4-.2.7-.1 1 .1.5.4 1 .7 1.3 1.6 0 2.6-2.3 3.3-3.4.4-.7 1.1-1.4 1.4-2.2.3-.7.4-1.4.8-2 .2-.3.4-.3.7-.4.3-.2.7-.9.9-1.2.6-1 1-2 1.7-3 .1-.6 1-1.2 1.4-1.7M304.5 172.7c-1.2 0-1.2.5-1.9.9-.3.1-.7.1-1 .2-1.1.5-2 1-3.2 1.5-.5.2-1.4.8-2.4.6-.8-.2-1.1-1.1-1.4-1.3-.2-.1-.6-.1-.8-.1-.2-.7-.8-2.1-.6-3 .1-.5.6-1.1.8-1.5 0-.3.1-.5.1-.8.2-.5 1-.7 1.3-1.2.4-.6.5-2 1.1-2.3h.6c.1-.1.1-.4.2-.4.5-.3 1.2-.3 2-.3 0 .2 0 .2.1.3-.1 1.3-1.6 1.5-2.5 2.1-.3.2-.7.8-.4 1.2.4 1 2.2.1 2.6-.2 1.1-.7 3.8-2.6 2.8-4.7-.4-.8-1.2-1-1.9-1.5-1.4 0-1.6.4-2.4.9-.5.3-1 .2-1.4.4-.7.5-1.6 1.9-2.2 2.6-.8 1.1-2.3 1.8-3 2.8-.7.9-1.5 3.5-1 5.2l.4 1.2c.1.1.4.3.4.4.1.3.1.7.2 1 .3.5 1 .6 1.7.9 1 .4 2.6 1.3 4.3.9 1.2-.3 2.2-1 3.2-1.4.5-.2.9-.1 1.3-.3.7-.3 1.2-.8 1.8-1.2.6-.4 1.5-.7 1.9-1.3.1-.1 0 0 .1-.2-.2-.2-.4-.7-.6-1-.2-.3-.1-.3-.2-.4M315.8 163.1c-.3 0-.7-.1-1-.1-.5.4-1.3.7-1.9 1.1-.9.6-2.6 2.9-3.1 4-.2.5 0 .9-.2 1.4-.2.6-.6 1.4-.8 2.1-.6 2.3 0 5.1 1.3 6 .3.2.5.1.8.2.3.1 1.1.4 1.7.2 1.2-.3 2.3-1.2 3.5-1.5-.1-.4.1-.9-.2-1.3-.9-1.2-2.3.4-3.4-.4-.5-.3-.7-1-1-1.5 1.2-.6 3.7-2.4 4.3-3.5.1-.4.1-.7.2-1.1.2-.4.6-.6.8-1 0-1-.1-1.9-.1-2.9-.2-.8-.6-1.2-.9-1.7m-1.7 5.4c-.6.4-1.4.6-1.9 1.2h-.2c.2-.6.4-1.1.7-1.7.4-.6.9-.8 1.1-1.7.2 0 .4-.1.6-.1.1.6.1 1.1.2 1.7-.3.2-.4.5-.5.6M223.6 172.5c-.2-.2-.5-.3-.7-.1-.9.1-.8.4-1.3.8-.4.1-.8.3-1.2.4-.3-.7-.2-1.5-.4-2.3-.1-.5-.4-1.1-.6-1.5-.2-.7.1-1.6-.2-2.1v-.6h.1c.2.7.5 1.3.4 2.3.3.1.6.2.8.4.7-.1 1.1-.5 1.7-.8.3-1.4-.4-4.3-1.2-5.3-.2-.2-.7-.4-1-.6-.5.4-1.4.3-1.9.7-2 1.3-1.8 5.9-1.1 8.5.2.6 0 1.5.3 2-.9.3-1.8.6-2.6.9-.6.4-.6 1.2-1 1.8-.2.4-.7 1.3-.2 2v1.2c.1.2.3.1.4.2 1.1.7 2.7 1.2 4 .3.3-.2.5-.8.8-1 .3-.1.5-.1.8-.2.4-.3.8-1 1-1.4.3-.7 0-1.8.3-2.3.5-.7 1.5-1 2.2-1.4.4-.3.6-.7 1-1-.1-.3-.2-.7-.4-.9m-6.2 5.8c-.9 0-1.4-.2-1.8-.7h-.1v-.1c.5-.1 1.4-.2 1.8-.4h.1v1.2zM269.1 164.4c-.4.4-1.1.5-1.5.8-1.2.8-2.9 2.9-3.5 4.2-.1.4-.1.9-.2 1.3-.2.5-.5 1.2-.7 1.7-.1.4 0 .8-.2 1.1v3.1c-.1.2-.6.2-.9.3-1.3.6-2.2.7-3.9.7-.3-.2-.5-.4-.8-.7.1-2.3 1-4.3 1.1-6.5-.7-.6-1.4-1.6-1.7-2.6-.3-1.1.3-1.7-.3-2.4-.1-.1-.3-.1-.4-.2-1.1.1-1.3 1.1-2 1.5v2.2c-.7 2.7-2.2 4.3-3.6 6.2-.4.5-1.6 2.1-2.2 1.9h-.9c-.4-1.6-.2-2.5.2-3.9v-.8c.3-.8 1.1-1.6 1.3-2.4.2-.5-.2-.9-.2-1.3-.2-.1-.5-.2-.7-.3-1.3.1-1.5 1.5-2 2.5-.7 1.7-2.6 5-1.5 7.6.2.6 1 1 1.3 1.5 1.3 0 2.5-.4 3.3-.9.2-.1.4-.5.7-.7h.4c.3-.1.8-.4 1.1-.6.7-.5 1.4-2 2-2.8.7-.9 1.7-1.8 2-3.1h.2l.1.1c-.1.5-.3.5-.4.8v.9c-.2.9-.5 1.9-.8 2.8-.1.5-.1 1.8.1 2.2.5.9 1.7 1.4 2.3 2.2 2.8-.1 5.1-1.1 7-2.2.2 0 1.8 1.3 3.2.8 1-.4 2-1.2 3.2-1.4.1-2.5-1.3-1.7-3.4-1.7-.1-.1-.3-.2-.4-.3 0-.4.2-.6 0-.9-.1-.4-.2-.4-.7-.4v-.1c.9-.3 3.6-2.4 4.1-3.2.3-.4.2-1.1.4-1.5.1-.2.6-.4.7-.7.3-.9-.1-3.5-.4-3.9-.3-.5-.8-.8-1.4-.9m-2.9 6.9h-.1c.2-1.3 1.3-2.6 2-3.5h.2c.1.3.1 1 .3 1.2-.1 1.3-1.8 1.4-2.4 2.3M242.1 167.7v-.9c-.2-.5-.9-1.2-1.2-1.8h-.7c-.1.1-.2.1-.4.1-.5.5-1.3.9-1.7 1.7 0 .4-.1.9-.1 1.3-.1.1-.2.1-.3.2-.5.7-1 1.3-1.4 2-.2.3-.2.6-.3.9-.7 1.3-1.3 2.8-1.9 4.2-.4.9-.5 3.5.1 4.1.2.5.2.1.6.3.2.1.5.7.7.9 1.7 0 3.1-.6 4.2-1.3.7-.4 1.1-1.2 2.1-1.2.4-.9.9-1.9 1.2-3 .3-1.1.2-4.8-.1-5.8-.2-.5-.6-1.1-.8-1.7m-2.6 9.2c-.3.8-1.5 1-2.8 1 0-1.5.2-3 .7-4.1.2-.4.7-.9.9-1.3.5-.9.8-1.9 1.4-2.5.1-.2 0-.1.1-.2.6 1.4.6 6.1-.3 7.1M25.5 172.4c-1.9.2-4.8 3.6-5.4 5.2-.1.5-.1 1-.2 1.4-.1.3-.4.9-.6 1.2-.1.4 0 .7-.2 1v2.6c-.4-.2-.9-.1-1.4-.2-2.5-.6-4.3-.3-6.3.6-.4.2-.7.1-1 .3h-.1c.1-1.6 1-2.9 1.5-4.2.2-.5.2-.9.4-1.4.1-.2.4-.6.4-.8.3-.8.2-1.4.4-2.2.2-.6.6-1.4.8-2.1.1-.7.1-1.5.2-2.2.2-.6.5-1.5.7-2.2.2-.7.1-1.6.4-2.2-.1-.5-.5-.8-.9-1-.2.2-.5.2-.7.4-1 1.3-.9 4.1-1.4 6-1.1 3.4-2.1 6.9-3.4 10-.3.6-.2 1.3-.6 1.9-.1.2-.4.3-.4.6-.2.6-.1 1.1-.4 1.5.1.8.6.9 1.1 1.3 1.6-.1 3.1-.9 4.5-1.3.3-.1.6.1.7.1H15c.6.2 1.3.9 2.1.3.9-.1 1.3-1 2-1.4.1-.2 0-.1.1-.2.3 1 2 2.6 3.8 2 .1 0 .3-.3.4-.3 1-.4 1.9-.8 2.9-1.2 0-3.3-2-.7-3.4-1.7-.7-.2-.7-.9-1.1-1.3.2-.8 1.5-1.2 2.1-1.7.6-.4 1.7-1.5 2.1-2.1.1-.4.2-.9.3-1.3.1-.3.6-.5.7-.8.3-.9-.1-3.4-.4-3.8-.2-.6-.7-.5-1.1-.8m-1 5.4c-.6.6-1.5.7-2 1.3h-.2c.3-1.4 1.2-2.5 2-3.4h.2l.3 1.5c-.2.2-.2.5-.3.6M130.2 175.4c-1.7 0-1.8.9-3.2 1.2-.3-.9-.3-1.8-.6-2.8-.1-.3-.4-.8-.4-1.1-.2-.6.1-1.5-.2-2v-.6h.1c.2.4.4 1.9.6 2.2.7 1 1.7 0 2.4-.4.1-1.9-.6-5.4-2.4-5.6-.5.4-1.4.3-1.9.7-2.1 1.5-1.6 7.9-.7 10.5-2.1.8-2.5.3-3.5 2.3-.3.6-.5.7-.4 1.4-.5.1-1 .5-1.4.7-1 .4-2.2.4-3.4.3-.3-.2-.5-.4-.8-.7 0-1.6.4-3.1.8-4.4.2-.6 0-1.3.3-1.8-.2-.8-1.3-1.8-1.7-2.9-.2-.8.2-1.8-.2-2.3-.2-.4-.3-.2-.7-.4-.8.1-1.7 1.1-1.9 1.8-.2.4.2 1.1 0 1.8-.1.5-.2 1.3-.4 1.8-.7 1.4-1.7 2.4-2.5 3.6-.3.4-.4.8-.7 1.2-.4.4-.8.7-1.2 1.1-.1.3 0 .9-.1 1.1-.3 0-.4 0-.6-.1-.1-.2-.2-.3-.2-.4 0-.6.1-1.1.1-1.7 0-.9.7-3.8 1.1-4.3 0-.4 0-.8-.1-1-.2-.2-.6-.3-1-.3-.6.4-1.1.9-1.7 1.3-.3.5-.4 1.1-.7 1.7 0 .1-.3.3-.3.4 0 .2-.1.4-.1.7-.3.6-1 1-1.4 1.5v.2c-.6.6-1.8 1-2.4 1.5h-.1c0-2.1.8-3.1 1.2-4.6v-.8c.1-.3.4-.7.6-.9.2-.4.2-1 .4-1.3-.1-.6-.3-.6-.6-1-2.6 0-3.2 4.6-4 6.6-.1.4-.1.7-.2 1.1-.1.3-1.4.9-1.8 1.1.1.5.4 1.2.8 1.5.3.2.5-.2.9 0 .2.1.5.5.9.7.6.2 1.2-.1 1.5-.2 1.5-.5 2.6-1.3 3.5-2.3.4.5.1 1.5.4 2 .4.6 1.1.7 1.7 1.2 1.8 0 3.5-1.5 4.5-2.4h.2c.1-.2.1-.8.2-1 .1-.1.2-.1.3-.2.3-.5.5-1 .9-1.4.7-.9 1.7-1.8 2-3.1h.2v.1h.1c-.1.2-.1.4-.2.6h-.2c0 .5-.1 1-.1 1.5-.4 1.2-1.3 3.4-.4 4.7.5.9 1.6 1.2 2.2 2 2.1 0 3.6-.7 5.1-1.3.6-.2 1.2-.2 1.5-.7 1.3.4 2.4 1.3 4 .3.4-.2.7-1 .9-1.1l.7-.1c.4-.2.8-.8 1-1.2.3-.6 0-1.8.3-2.4.4-.7 1.5-1.1 2.2-1.5.4-.3.7-.7 1.1-1-.1-.3-.1-.7-.2-1l-.1-.1m-6.2 5.9c-.4.1-.8.1-1.1-.1-.1-.1 0 0-.1-.2.2-.2.3-.4.4-.6.2-.2.4-.2.8-.2v1.1zM162.5 168.2c-.4-.1-.6-.2-1.1-.2-.4.4-1.1.5-1.5.9-1.1.8-2.9 3-3.4 4.3-.1.5-.1 1-.2 1.4-.9 2.4-1.7 6.2.7 7.8.5.3 1.4.8 2.4.6 1.1-.5 2.3-1 3.4-1.5 0-.6 0-1.1-.2-1.3-.6-1.2-2.3.4-3.4-.4-.5-.3-.5-.8-.9-1.2.2-.8 2-1.6 2.6-2.1.6-.4 1.4-1.3 1.7-2 0-.3.1-.5.1-.8.1-.4.6-.6.8-1 .3-.9-.1-3.3-.3-3.8l-.7-.7m-1.7 5.2c-.6.6-1.5.7-2.1 1.3h-.1c.2-1.4 1.3-2.6 2.1-3.5.3.3.4 1.2.4 1.7-.1.1-.2.4-.3.5M408 168.5c-.3-.1-.5-.1-.9-.1-.4.4-1.2.7-1.5 1.2-.2.3-.2.7-.4 1-.2.1-.4.3-.6.4-.3.6-.1 1.3-.1 1.9.2.2.4.4.6.7 1.5-.3 2.1-1.5 3.2-2.2.1-.6.6-1.8.1-2.3-.2-.3-.3-.3-.4-.6M38.2 178.3c-1.8 0-1.8.9-3.2 1.2-.3-.9-.3-1.8-.6-2.8-.1-.3-.4-.8-.4-1.1-.2-.6.1-1.6-.2-2.1v-.4h.1c0 .2.5 2.1.6 2.2.2.2.4.4.8.4.2.2 1.2-.5 1.5-.7.4-1.8-.5-5.6-2.3-5.8-.5.4-1.4.3-1.9.7-2.1 1.5-1.6 7.9-.7 10.5-2.1.8-2.5.3-3.5 2.3-.1.2-.5.7-.6.9 0 .8.2 1.7.2 2.6 1.4.7 2.8 1.6 4.5.4.3-.2.3-.7.6-.9.4-.3 1.2-.3 1.5-.9.1-.4.3-.9.4-1.3.1-.5-.1-1.2.1-1.7.4-.7 1.4-1 2.1-1.4.4-.3.8-.8 1.2-1.1-.1-.3-.1-.7-.2-1-.1.1 0 .2 0 0m-6.2 6l-.1.1c-.8 0-1.2-.2-1.5-.7-.2-.1-.1 0-.2-.1.5-.2 1.2-.4 1.9-.4v1.1z"/><path class="st2" d="M93.2 170.5c-.4-.1-.7-.2-1.1-.3-.5.5-1.2.6-1.8 1-1.2.9-1.9 2.2-2.8 3.4-.1.2-.5.5-.6.7-.1.5-.1 1-.2 1.5-.1.3-.4.8-.6 1.1-.4 1.2-.6 4.5 0 5.6.2.5.7.8 1.1 1.1.5.3 1.6.9 2.6.6l3.3-1.5c0-.5 0-1-.2-1.2-.1-.3-.4-.3-.6-.6-.8.1-2.1.6-2.8.1-.6-.2-.9-1-1.1-1.5 1.1-.6 3.7-2.4 4.3-3.5.1-.4.1-.7.2-1.1.2-.4.6-.6.8-1 .2-.5 0-2.6-.1-3 .1-.5-.2-1-.4-1.4m-1.5 4.5c-.3 1.1-1.7 1.3-2.4 2h-.1c.6-1.4 1.2-2.5 2.1-3.5h.2c0 .5.3 1.3.2 1.5M274.8 172.3c-.1-.1-.3-.1-.6-.1-.3.2-.8.2-1.1.4-.4.3-.7.8-1.1 1.1.6 1.3 1.9 4.9 1 6.8-.1.2-1.1 1.2-1.3 1.3 0 .7.3.7.6 1.1.7-.1 1-.5 1.4-.8 2-1.2 2.4-1.8 3.1-4.3.5-2-.8-5.2-2-5.5"/><path d="M413.5 196.1h-.6c.2.1.4.1.6 0" clip-path="url(#SVGID_4_)" fill-rule="evenodd" clip-rule="evenodd" fill="#fff"/></g><g class="st0"><defs><path id="SVGID_5_" d="M0 135.8h430v71.7H0z"/></defs><clipPath id="SVGID_6_"><use xlink:href="#SVGID_5_" overflow="visible"/></clipPath></g><g><path class="st4" d="M73.3 17.3h14.4v71.9H73.3zM110.3 17.3H102v71.9h14.4V27.8z"/><path class="st5" d="M87.6 17.3H102v71.9H87.6zM116.4 27.8v61.4h14.4V52.7z"/><path class="st4" d="M130.8 52.7v36.5h14.4V77.7z"/><g><path class="st4" d="M112.5 0h-6.1l6.1 10.5z"/><path class="st5" d="M126.9 35.4V0h-14.4v10.5z"/><path class="st4" d="M141.3 60.3V0h-14.4v35.4z"/></g><g id="dessous_49_"><path class="st4" d="M172.7 21.2h-5.8v20.5h-4V21.2h-5.8v-3.7h15.7v3.7zM181.6 21.2v6.5h8.3v3.7h-8.3V38h10.1v3.7h-14.2V17.5h14.2v3.7h-10.1zM210.4 33.1c1.6 1.3 2.5 3.3 2.5 5.5v3.1h-4v-2.9c0-2.1-1-3.9-4.1-3.9h-3.9v6.8h-4.1V17.5h7.9c5 0 8.2 3.2 8.2 7.4v2.6c0 2.3-.9 4.2-2.5 5.6zm-5.7-1.9c3.1 0 4.1-1.8 4.1-3.9v-2.2c0-2.1-1-3.9-4.1-3.9h-3.9v10h3.9zM231.5 33.1c1.6 1.3 2.5 3.3 2.5 5.5v3.1h-4v-2.9c0-2.1-1-3.9-4.1-3.9H222v6.8h-4.1V17.5h7.9c5 0 8.2 3.2 8.2 7.4v2.6c0 2.3-.9 4.2-2.5 5.6zm-5.6-1.9c3.1 0 4.1-1.8 4.1-3.9v-2.2c0-2.1-1-3.9-4.1-3.9H222v10h3.9zM243.1 41.7H239V17.5h4.1v24.2zM263.8 21.2H258v20.5h-4V21.2h-6v-3.7h15.7v3.7zM283.7 24.4v10.5c0 4.2-3 7.3-8 7.3-5.1 0-8.1-3.1-8.1-7.3V24.4c0-4.2 3-7.3 8.1-7.3 5 0 8 3.1 8 7.3zm-12 .3v9.9c0 2.1.9 3.9 4 3.9s4-1.8 4-3.9v-9.9c0-2.1-.9-3.9-4-3.9s-4 1.8-4 3.9zM292.8 41.7h-4.1V17.5h4.1v24.2zM311.5 33.1c1.6 1.3 2.5 3.3 2.5 5.5v3.1h-4v-2.9c0-2.1-1-3.9-4.1-3.9H302v6.8h-4.1V17.5h7.9c5 0 8.2 3.2 8.2 7.4v2.6c0 2.3-.9 4.2-2.5 5.6zm-5.7-1.9c3.1 0 4.1-1.8 4.1-3.9v-2.2c0-2.1-1-3.9-4.1-3.9h-3.9v10h3.9zM323.1 21.2v6.5h8.3v3.7h-8.3V38h10.1v3.7H319V17.5h14.2v3.7h-10.1zM349.5 26.2v-1.4c0-2.1-.9-3.9-4-3.9-3 0-4 1.6-4 3.7 0 2.7 3.8 2.9 7.2 4.2 2.9 1 4.9 3.1 4.9 6 0 4.2-3 7.4-8 7.4s-8.1-3.2-8.1-7.4v-1.2l4.1-.3v1.2c0 2.1.9 3.9 4 3.9 3 0 4-1.6 4-3.7 0-2.7-4.3-3-7.2-4.2-3.5-1.3-4.8-3.1-4.9-6 0-4.2 3-7.4 8-7.4s8.1 3.2 8.1 7.4v1.2l-4.1.5z"/><g><path class="st4" d="M190.7 89.2h-8.5V72.3l-4.5 16.9H170l-4.5-16.9v16.9H157V57.7h10.3l6.4 20.4h.3l6.4-20.4h10.3v31.5zM204.9 65.6v3.9h9.1v7.9h-9.1v3.9h11.4v7.9h-19.9V57.7h19.9v7.9h-11.4zM255.6 89.2H247V72.3l-4.5 16.9h-7.6l-4.5-16.9v16.9h-8.5V57.7h10.3l6.4 20.4h.3l6.4-20.4h10.3v31.5zM284.7 67.2v12.6c0 5.7-5.3 10.1-11.8 10.1-6.6 0-11.8-4.4-11.8-10.1V67.2c0-5.7 5.2-10.1 11.8-10.1 6.5-.1 11.8 4.4 11.8 10.1zm-15 .7V79c0 1.4.8 3 3.2 3 2.5 0 3.2-1.6 3.2-3V67.9c0-1.4-.8-3-3.2-3-2.4 0-3.2 1.6-3.2 3zM298.8 89.2h-8.5V57.7h8.5v31.5zM328 71.9c0 2.4-1 4.7-2.6 6.4 1.6 1.8 2.6 4 2.6 6.4v4.5h-8.5v-4c0-1.4-.8-3-3.3-3H313v7h-8.5V57.7h11.8c6.5 0 11.8 4.7 11.8 10.4v3.8zm-11.8 2.5c2.5 0 3.3-1.6 3.3-3v-2.8c0-1.4-.8-3-3.3-3H313v8.8h3.2zM342.1 65.6v3.9h9.1v7.9h-9.1v3.9h11.4v7.9h-19.9V57.7h19.9v7.9h-11.4z"/></g><path fill="#dd0029" d="M185.4 96.8l-11.5 20.1-11.6-20.1z"/><path class="st4" d="M173.9 130.4l-13.1-22.6H73.3v-2H162l11.9 20.6 11.9-20.6H328v2H186.9z"/><g><path class="st5" d="M337.3 49.2v2.2c0 1-.7 1.7-1.9 1.7h-1.8v-5.6h1.8c1.1 0 1.9.7 1.9 1.7zm-1 0c0-.5-.2-.9-.9-.9h-.9v3.8h.9c.7 0 .9-.4.9-.9v-2zM339.3 48.3v1.5h1.9v.9h-1.9v1.5h2.3v.8h-3.3v-5.6h3.3v.9h-2.3zM348.2 52.2v.8H345v-5.6h.9v4.7h2.3zM352.1 51.8h-1.7l-.3 1.2h-.9l1.5-5.6h1.1l1.5 5.6h-.9l-.3-1.2zm-.2-.8l-.6-2.5-.6 2.5h1.2z"/></g><g><path class="st5" d="M336.6 108.4h-1.7l-.3 1.2h-.9l1.5-5.6h1.1l1.5 5.6h-.9l-.3-1.2zm-.2-.8l-.6-2.5-.6 2.5h1.2zM341.5 106v-.3c0-.5-.2-.9-.9-.9s-.9.4-.9.8c0 .6.9.7 1.6 1 .7.2 1.1.7 1.1 1.4 0 1-.7 1.7-1.8 1.7s-1.9-.7-1.9-1.7v-.3l.9-.1v.3c0 .5.2.9.9.9s.9-.4.9-.8c0-.6-1-.7-1.6-1-.8-.3-1.1-.7-1.1-1.4 0-1 .7-1.7 1.8-1.7s1.8.7 1.8 1.7v.3l-.8.1zM345.6 104c1 0 1.7.7 1.7 1.6 0 .5-.2.9-.6 1.1.5.2.7.7.7 1.2 0 .9-.6 1.6-1.7 1.6h-2.1V104h2zm-1 2.4h1c.6 0 .8-.3.8-.8 0-.4-.2-.7-.8-.7h-1v1.5zm1.1 2.3c.6 0 .8-.3.8-.8 0-.4-.2-.7-.8-.7h-1.1v1.5h1.1zM351.7 108.7v.9h-3.2V104h.9v4.7h2.3z"/></g><path class="st5" d="M209.9 54.3h-6.8l4.1-6.9h6.7l-4 6.9z"/></g></g></svg>