<svg id="Calque_1" xmlns="http://www.w3.org/2000/svg" viewBox="0 0 35 35" width="50" height="50"><style>.st1{fill:#fff;fill-rule:evenodd;clip-rule:evenodd}</style><path d="M2.98 27.61h1.27v.28h-.94v.48h.83v.26h-.83v.82h-.33v-1.84zm3.03 0h1.33v.28h-1v.48h.93v.26h-.94v.54h1.02v.28H6.01v-1.84zm.66-.55h.35l-.37.37h-.22l.24-.37zm2.46.55h.77c.57 0 .81.41.81.92s-.25.92-.81.92h-.77v-1.84zm.32 1.58h.32c.51 0 .61-.29.61-.66 0-.37-.11-.66-.61-.66h-.32v1.32zm3.04-1.58h1.33v.28h-1v.48h.93v.26h-.93v.54h1.02v.28H12.5v-1.84zm.66-.55h.35l-.37.37h-.21l.23-.37zm2.46.55h.88c.4 0 .61.19.61.5 0 .35-.25.44-.3.46v.01c.11.02.27.1.27.39 0 .21.03.41.1.49h-.35c-.05-.08-.05-.18-.05-.27 0-.34-.07-.49-.37-.49h-.47v.76h-.32v-1.85zm.33.84h.53c.2 0 .31-.1.31-.29 0-.23-.15-.28-.32-.28h-.52v.57zm3.48-.84h.34l.71 1.84h-.35l-.17-.49h-.74l-.17.49h-.33l.71-1.84zm-.11 1.11h.56l-.28-.79h-.01l-.27.79zm2.42-1.11h1.49v.28h-.59v1.56h-.32v-1.56h-.58v-.28zm3.2 0h.32v1.84h-.32v-1.84zm3.88.92c0 .53-.33.97-.88.97s-.88-.44-.88-.97.33-.97.88-.97c.55.01.88.45.88.97zm-1.44 0c0 .35.17.7.56.7.4 0 .56-.35.56-.7s-.17-.7-.56-.7-.56.35-.56.7zm3.22-.92h.34l.84 1.36h.01v-1.36h.31v1.84h-.34l-.84-1.35h-.01v1.35h-.31v-1.84zM2.8 31.68h.27l.28 1.17.31-1.17h.28l.3 1.17.29-1.17h.27l-.42 1.54h-.27l-.31-1.18-.31 1.17H3.2l-.4-1.53zm2.84 0h.29l.59 1.54h-.29l-.14-.41h-.62l-.14.41h-.28l.59-1.54zm-.1.92h.47l-.23-.66h-.01l-.23.66zm1.42-.92h.27v1.3h.78v.23H6.96v-1.53zm1.53 0h.27v1.3h.78v.23H8.49v-1.53zm2.92.76c0 .44-.28.8-.74.8-.46 0-.74-.37-.74-.8 0-.44.28-.8.74-.8.47 0 .74.37.74.8zm-1.2 0c0 .29.14.58.47.58s.47-.29.47-.58-.14-.58-.47-.58-.47.29-.47.58zm1.74-.76h.28l.7 1.13v-1.13h.26v1.54h-.28l-.7-1.13h-.01v1.13h-.26v-1.54zm1.86 0h.27v1.54h-.27v-1.54zm.9 0h1.11v.23h-.84v.4h.77v.22h-.77v.45h.85v.23h-1.12v-1.53zm1.59.58h.63v.27h-.63v-.27zm1.2-.58h.75c.28 0 .46.12.46.38 0 .15-.08.27-.22.33.19.04.29.19.29.4 0 .24-.17.43-.57.43h-.71v-1.54zm.27.64h.44c.13 0 .23-.08.23-.21 0-.15-.08-.21-.23-.21h-.44v.42zm0 .67h.48c.16 0 .26-.09.26-.24s-.09-.24-.26-.24h-.48v.48zm1.54-1.31h.73c.34 0 .51.15.51.41 0 .29-.2.37-.25.39.09.01.23.08.23.32 0 .18.03.34.08.4h-.29c-.04-.07-.04-.15-.04-.23 0-.28-.06-.41-.31-.41h-.4v.63h-.27v-1.51zm.27.7h.44c.17 0 .26-.08.26-.25 0-.2-.13-.23-.27-.23h-.44v.48zm1.53-.7h.27v.89c0 .21.01.44.36.44s.36-.24.36-.44v-.89h.27v.98c0 .39-.25.59-.63.59s-.63-.2-.63-.59v-.98zm1.73 0h.32l.35.54.36-.54h.3l-.51.74.54.8h-.33l-.38-.59-.39.59h-.3l.54-.8-.5-.74zm1.83 0h1.11v.23h-.84v.4h.77v.22h-.77v.45h.85v.23h-1.12v-1.53zm1.65 0h.27v1.3h.78v.23h-1.05v-1.53zm1.53 0h.27v1.3h.78v.23h-1.05v-1.53zm1.54 0h1.11v.23h-.84v.4h.77v.22h-.77v.45h.85v.23h-1.12v-1.53zm1.83 1.02c0 .24.17.33.39.33.24 0 .32-.12.32-.23 0-.12-.06-.17-.13-.19-.11-.04-.25-.07-.46-.13-.26-.07-.34-.23-.34-.39 0-.31.28-.45.56-.45.32 0 .59.17.59.49h-.27c-.01-.2-.15-.27-.33-.27-.12 0-.28.05-.28.2 0 .11.07.17.18.2.02.01.36.09.44.12.2.06.3.23.3.39 0 .34-.31.48-.61.48-.35 0-.63-.17-.64-.55h.28z" fill="#fff"/><path class="st1" d="M7.49 2.29c.06-.31 1.27-1.17 3.18.28 1.04.85 1.3 2.79.14 4.43-.83 1.25-3.44 4.35-1.96 8.19.66 1.71 3.07 7.07 2.31 7.49-.64.3-5.53-6.31-5.97-9.88-.5-5.61 5.11-9.03 2.91-10.01-.3-.12-.67-.22-.61-.5"/><path class="st1" d="M21.79 3.42c-6.72.3-8.01 9.09-7.91 12.03 0 .5.12 1.6-.46.86-.32-.51-1.35-1.92-1.65-2.31-.26-.34-.96-.32-.81.41.05.25.82 3.21 1.78 4.36.47.64 2.51 1.81 3.26-1.11.64-2.23.23-11.45 7.67-12.11.58 0 .73-.74.48-1.21-.19-.36-1.09-.98-2.36-.92"/><path class="st1" d="M20.12 21.97c.73.34 1.62.54 2.7.54 1.54.04 6.16-.72 7-4.73.13-.62.79-4.71-4.17-6.26-.24-.08-.3-.26-.08-.49.56-.57 2.56-3.44-.39-5.04-.29-.12-.66-.07-.65.4.07 3.17-2.3 4.37-4.54 4.34-.27.26-.05 1.76 1.75 1.8.86.07 2.32-.06 3.44 1.64 1.92 3.43-2.03 6.08-4.72 4.55-.1-.06-.24-.16-.34-.24v3.49"/></svg>