<svg id="Calque_1" xmlns="http://www.w3.org/2000/svg" viewBox="0 0 303.07 69.17"><style>.st0{fill:#fff}</style><path class="st0" d="M73.66 12.62h6.61c3.99 0 6.61 2.12 6.61 5.6v.05c0 3.81-3.18 5.78-6.94 5.78h-4.29v6.23h-1.99V12.62zm6.35 9.61c2.92 0 4.84-1.56 4.84-3.88v-.05c0-2.52-1.89-3.83-4.74-3.83h-4.46v7.77h4.36zm15.27-9.73h1.87l8.05 17.78h-2.14l-2.07-4.67h-9.61l-2.09 4.67h-2.04l8.03-17.78zm4.91 11.3l-4.01-8.98-4.03 8.98h8.04zm8.48-11.18h7.59c2.17 0 3.91.66 5.02 1.77.86.86 1.36 2.09 1.36 3.48v.05c0 2.93-2.02 4.64-4.79 5.14l5.42 7.21h-2.45l-5.12-6.86h-5.04v6.86h-1.99V12.62zm7.42 9.01c2.65 0 4.54-1.36 4.54-3.63v-.05c0-2.17-1.66-3.48-4.51-3.48h-5.45v7.16h5.42zm10.82-9.01h1.99v15.81h9.94v1.84h-11.93V12.62zm15.61 0h12.76v1.82h-10.77v6.03h9.63v1.82h-9.63v6.18h10.9v1.82h-12.89V12.62zm16.9 0h2.02l6.43 9.63 6.43-9.63h2.02v17.65h-1.99v-14.3l-6.43 9.46h-.1L161.36 16v14.27h-1.94V12.62zm21.9 0h12.76v1.82h-10.77v6.03h9.63v1.82h-9.63v6.18h10.9v1.82h-12.89V12.62zm16.9 0h1.87l11.12 14.15V12.62h1.94v17.65h-1.59l-11.4-14.48v14.48h-1.94V12.62zm24.59 1.84h-5.93v-1.84h13.87v1.84h-5.93v15.81h-2.02V14.46zm-162 24.48h6.13c5.55 0 9.38 3.81 9.38 8.78v.05c0 4.97-3.83 8.83-9.38 8.83h-6.13V38.94zm1.99 1.85v13.97h4.14c4.46 0 7.31-3.03 7.31-6.94v-.05c0-3.91-2.85-6.99-7.31-6.99H62.8zm17.73-1.85h12.76v1.82H82.52v6.03h9.63v1.82h-9.63v6.18h10.9v1.82H80.53V38.94zm23.11 0h2.17l5.04 14.7 4.84-14.75h1.64l4.84 14.75 5.04-14.7h2.09L123 56.72h-1.69l-4.84-14.32-4.87 14.32h-1.66l-6.3-17.78zm33.54-.12h1.87l8.05 17.78h-2.14l-2.07-4.67h-9.61l-2.09 4.67h-2.04l8.03-17.78zm4.92 11.3l-4.01-8.98-4.03 8.98h8.04zm8.48-11.18h1.99v15.81h9.94v1.84h-11.93V38.94zm15.61 0h1.99v15.81h9.94v1.84h-11.93V38.94zm13.82 8.88v-.05c0-4.87 3.66-9.13 9.03-9.13 5.37 0 8.98 4.21 8.98 9.08v.05c0 4.87-3.66 9.13-9.03 9.13-5.37 0-8.98-4.21-8.98-9.08zm15.94 0v-.05c0-4.01-2.93-7.29-6.96-7.29-4.04 0-6.91 3.23-6.91 7.24v.05c0 4.01 2.92 7.29 6.96 7.29s6.91-3.23 6.91-7.24zm6.28-8.88h1.87l11.12 14.15V38.94h1.94V56.6h-1.59l-11.4-14.48V56.6h-1.94V38.94zm20.11 0h1.99V56.6h-1.99V38.94zm7.16 0h12.76v1.82h-10.77v6.03h9.63v1.82h-9.63v6.18h10.9v1.82H229.5V38.94zM0 23.12v32.93l47.39-36.64V1.71z"/><path class="st0" d="M10.14 31.86v37.31L59.73 17.2V0zm292.93-8.74v32.93l-47.39-36.64V1.71z"/><path class="st0" d="M292.93 31.86v37.31L243.34 17.2V0z"/></svg>