<svg xmlns="http://www.w3.org/2000/svg" xmlns:xlink="http://www.w3.org/1999/xlink" width="150" height="150"><style>.st0{fill:#fff}.st1{fill:none;stroke:#fff;stroke-width:3.84;stroke-miterlimit:10}.st4,.st5{clip-path:url(#SVGID_2_);fill:#003b62}.st5{fill:none;stroke:#fff;stroke-width:3.84;stroke-miterlimit:10}</style><path class="st0" d="M0 0h150v150H0z"/><path class="st0" d="M14.2 14.2h60.7v121.6H14.2z"/><path class="st1" d="M14.2 14.2h60.7v121.6H14.2z"/><path fill="#003b62" d="M74.9 14.2h60.9v121.6H74.9z"/><path class="st1" d="M74.9 14.2h60.9v121.6H74.9z"/><defs><path id="SVGID_1_" d="M0 0h150v150H0z"/></defs><clipPath id="SVGID_2_"><use xlink:href="#SVGID_1_" overflow="visible"/></clipPath><path d="M63.3 96.8H38.1c-2.9 0-5.3-2.4-5.3-5.3v-8.4c0-2.9 2.4-5.3 5.3-5.3h25.2c2.9 0 5.3 2.4 5.3 5.3v8.4c-.1 2.9-2.4 5.3-5.3 5.3" clip-path="url(#SVGID_2_)" fill="#fff"/><path class="st4" d="M135.8 44.5L122.5 26c-1.8-2.4-5.1-3-7.6-1.3-2.4 1.8-3 5.1-1.3 7.6l9 12.5c3.1 4.4 0 10.5-5.4 10.5h-16.4c-1.5 0-2.7 1.2-2.7 2.7v35.6c0 1 .5 1.8 1.3 2.3l-14.1 6.9c-1.9.9-2.6 3.2-1.7 5 .7 1.3 2 2.1 3.4 2.1.6 0 1.1-.1 1.7-.4l22.6-11.1c2.8-1.4 6-2.1 9.1-2.1h15.4V44.5z"/><path class="st5" d="M135.8 44.5L122.5 26c-1.8-2.4-5.1-3-7.6-1.3-2.4 1.8-3 5.1-1.3 7.6l9 12.5c3.1 4.4 0 10.5-5.4 10.5h-16.4c-1.5 0-2.7 1.2-2.7 2.7v35.6c0 1 .5 1.8 1.3 2.3l-14.1 6.9c-1.9.9-2.6 3.2-1.7 5 .7 1.3 2 2.1 3.4 2.1.6 0 1.1-.1 1.7-.4l22.6-11.1c2.8-1.4 6-2.1 9.1-2.1h15.4V44.5z"/><path class="st4" d="M44.5 44.6h60.8v60.8H44.5z"/><path class="st5" d="M44.5 44.6h60.8v60.8H44.5z"/><path class="st4" d="M33.2 74.6h29.3c3.5 0 6.3 2.8 6.3 6.3 0 3.2-2.4 5.9-5.6 6.3-4.5.5-11.4 1.4-18.9 2.3-5.5.7-14.5 10.9-30.1 11.8V63.5l12.7-9.2c3.6-2.6 8.5-2.4 11.9.4l5.6 4.7v15.4"/><path class="st5" d="M33.2 74.6h29.3c3.5 0 6.3 2.8 6.3 6.3 0 3.2-2.4 5.9-5.6 6.3-4.5.5-11.4 1.4-18.9 2.3-5.5.7-14.5 10.9-30.1 11.8V63.5l12.7-9.2c3.6-2.6 8.5-2.4 11.9.4l5.6 4.7v15.4"/></svg>