<svg id="Calque_1" xmlns="http://www.w3.org/2000/svg" viewBox="0 0 50 50"><style>.st0{fill:#fff}.st1{fill:#003b62}</style><path class="st0" d="M34.01 5c.46.95 1.23 1.73 2.19 2.19v35.63c-.95.46-1.73 1.23-2.19 2.19h-.43a4.645 4.645 0 0 0-8.38 0h-.43a4.645 4.645 0 0 0-8.38 0h-.43a4.699 4.699 0 0 0-2.19-2.19V7.19c.95-.46 1.73-1.23 2.19-2.19h.43c.75 1.56 2.34 2.64 4.19 2.64S24.04 6.56 24.79 5h.43c.75 1.56 2.34 2.64 4.19 2.64S32.84 6.56 33.59 5h.42m1.55-2h-3.52c0 1.46-1.18 2.64-2.64 2.64-1.46 0-2.64-1.18-2.64-2.64h-3.52c0 1.46-1.18 2.64-2.64 2.64-1.46 0-2.64-1.18-2.64-2.64h-3.52c0 1.46-1.18 2.64-2.64 2.64v38.72c1.46 0 2.64 1.18 2.64 2.64h3.52c0-1.46 1.18-2.64 2.64-2.64 1.46 0 2.64 1.18 2.64 2.64h3.52c0-1.46 1.18-2.64 2.64-2.64 1.46 0 2.64 1.18 2.64 2.64h3.52c0-1.46 1.18-2.64 2.64-2.64V5.64c-1.46 0-2.64-1.18-2.64-2.64z"/><path class="st0" d="M31.47 14.15V9.16h.95v3.76l.59-.4.47.71-1.31.91h-.7zm-5.18-1.7c0-.67.48-1.27.48-1.27.44-.67 1.39-2.02 1.39-2.02h.99l-1.07 1.58c1.03-.12 1.86.71 1.86 1.7s-.75 1.74-1.82 1.74c-1.08.01-1.83-.74-1.83-1.73zm1.82.91c.47 0 .87-.4.87-.91s-.4-.91-.87-.91c-.48 0-.87.4-.87.91s.39.91.87.91zm-6.73-.91c0-.67.48-1.27.48-1.27.44-.67 1.39-2.02 1.39-2.02h.99l-1.07 1.58c1.03-.12 1.86.71 1.86 1.7s-.75 1.74-1.82 1.74c-1.08.01-1.83-.74-1.83-1.73zm1.82.91c.47 0 .87-.4.87-.91s-.4-.91-.87-.91c-.48 0-.87.4-.87.91s.39.91.87.91zm-3.05-.6c-.04.75-.71 1.43-1.7 1.43s-1.66-.67-1.66-1.39c0-.71.63-1.03.63-1.03s-.75-.32-.75-1.23c0-.71.71-1.43 1.74-1.43 1.11 0 1.74.63 1.78 1.46h-.95c-.04-.28-.36-.59-.79-.59-.48 0-.79.32-.79.67 0 .36.28.63.79.63h.44v.79h-.4c-.51 0-.75.24-.75.59 0 .36.28.63.71.63s.71-.28.75-.55h.95zm-1.62 23.09v4.99h-.95v-3.76l-.59.4-.47-.71 1.31-.91h.7zm5.18 1.7c0 .67-.47 1.27-.47 1.27-.44.67-1.39 2.02-1.39 2.02h-.99l1.07-1.58c-1.03.12-1.86-.71-1.86-1.7s.75-1.74 1.82-1.74 1.82.74 1.82 1.73zm-1.82-.91c-.48 0-.87.4-.87.91s.4.91.87.91.87-.4.87-.91-.39-.91-.87-.91zm6.73.91c0 .67-.47 1.27-.47 1.27-.44.67-1.39 2.02-1.39 2.02h-.99l1.07-1.58c-1.03.12-1.86-.71-1.86-1.7s.75-1.74 1.82-1.74 1.82.74 1.82 1.73zm-1.82-.91c-.48 0-.87.4-.87.91s.4.91.87.91.87-.4.87-.91-.39-.91-.87-.91zm3.05.6c.04-.75.71-1.42 1.7-1.42s1.66.67 1.66 1.39-.63 1.03-.63 1.03.75.32.75 1.23c0 .71-.71 1.43-1.74 1.43-1.11 0-1.74-.63-1.78-1.47h.95c.04.28.36.59.79.59.48 0 .79-.32.79-.67s-.28-.63-.79-.63h-.44v-.79h.4c.51 0 .75-.24.75-.59s-.28-.63-.71-.63-.71.28-.75.55h-.95zM-25.1 46a3.654 3.654 0 0 0-3.5-2.64c-1.66 0-3.07 1.12-3.5 2.64h-1.8c-.44-1.52-1.84-2.64-3.5-2.64s-3.06 1.12-3.5 2.64h-1.8c-.34-1.2-1.3-2.16-2.5-2.5v-37c1.2-.34 2.16-1.3 2.5-2.5h1.8c.44 1.52 1.84 2.64 3.5 2.64s3.06-1.12 3.5-2.64h1.8a3.654 3.654 0 0 0 3.5 2.64c1.66 0 3.06-1.12 3.5-2.64h1.8c.34 1.2 1.3 2.16 2.5 2.5v37c-1.21.34-2.16 1.3-2.5 2.5h-1.8z"/><path class="st1" d="M-23.99 5c.46.95 1.23 1.73 2.19 2.19v35.63c-.95.46-1.73 1.23-2.19 2.19h-.43a4.645 4.645 0 0 0-4.19-2.64c-1.84 0-3.44 1.08-4.19 2.64h-.43a4.645 4.645 0 0 0-8.38 0h-.43a4.699 4.699 0 0 0-2.19-2.19V7.19c.95-.46 1.73-1.23 2.19-2.19h.43a4.645 4.645 0 0 0 8.38 0h.43a4.645 4.645 0 0 0 4.19 2.64c1.84 0 3.44-1.08 4.19-2.64h.43m1.55-2h-3.52c0 1.46-1.18 2.64-2.64 2.64-1.46 0-2.64-1.18-2.64-2.64h-3.52c0 1.46-1.18 2.64-2.64 2.64-1.46 0-2.64-1.18-2.64-2.64h-3.52c0 1.46-1.18 2.64-2.64 2.64v38.72c1.46 0 2.64 1.18 2.64 2.64h3.52c0-1.46 1.18-2.64 2.64-2.64 1.46 0 2.64 1.18 2.64 2.64h3.52c0-1.46 1.18-2.64 2.64-2.64 1.46 0 2.64 1.18 2.64 2.64h3.52c0-1.46 1.18-2.64 2.64-2.64V5.64c-1.46 0-2.64-1.18-2.64-2.64z"/><path class="st1" d="M-26.53 14.15V9.16h.95v3.76l.59-.4.47.71-1.31.91h-.7zm-5.18-1.7c0-.67.48-1.27.48-1.27.44-.67 1.39-2.02 1.39-2.02h.99l-1.07 1.58c1.03-.12 1.86.71 1.86 1.7s-.75 1.74-1.82 1.74c-1.08.01-1.83-.74-1.83-1.73zm1.82.91c.47 0 .87-.4.87-.91s-.4-.91-.87-.91c-.48 0-.87.4-.87.91s.39.91.87.91zm-6.73-.91c0-.67.48-1.27.48-1.27.44-.67 1.39-2.02 1.39-2.02h.99l-1.07 1.58c1.03-.12 1.86.71 1.86 1.7s-.75 1.74-1.82 1.74c-1.08.01-1.83-.74-1.83-1.73zm1.82.91c.48 0 .87-.4.87-.91s-.4-.91-.87-.91-.87.4-.87.91.39.91.87.91zm-3.05-.6c-.04.75-.71 1.43-1.7 1.43s-1.66-.67-1.66-1.39c0-.71.63-1.03.63-1.03s-.75-.32-.75-1.23c0-.71.71-1.43 1.74-1.43 1.11 0 1.74.63 1.78 1.46h-.95c-.04-.28-.36-.59-.79-.59-.48 0-.79.32-.79.67 0 .36.28.63.79.63h.44v.79h-.4c-.51 0-.75.24-.75.59 0 .36.28.63.71.63s.71-.28.75-.55h.95zM-39.47 35.85v4.99h-.95v-3.76l-.59.4-.48-.71 1.31-.91h.71zm5.18 1.7c0 .67-.48 1.27-.48 1.27-.44.67-1.39 2.02-1.39 2.02h-.99l1.07-1.58c-1.03.12-1.86-.71-1.86-1.7s.75-1.74 1.82-1.74c1.08-.01 1.83.74 1.83 1.73zm-1.82-.91c-.48 0-.87.4-.87.91s.4.91.87.91.87-.4.87-.91-.39-.91-.87-.91zm6.73.91c0 .67-.47 1.27-.47 1.27-.44.67-1.39 2.02-1.39 2.02h-.99l1.07-1.58c-1.03.12-1.86-.71-1.86-1.7s.75-1.74 1.82-1.74 1.82.74 1.82 1.73zm-1.82-.91c-.48 0-.87.4-.87.91s.4.91.87.91.87-.4.87-.91-.39-.91-.87-.91zm3.05.6c.04-.75.71-1.42 1.7-1.42s1.66.67 1.66 1.39-.63 1.03-.63 1.03.75.32.75 1.23c0 .71-.71 1.43-1.74 1.43-1.11 0-1.74-.63-1.78-1.47h.95c.04.28.36.59.79.59.48 0 .79-.32.79-.67s-.28-.63-.79-.63h-.44v-.79h.4c.51 0 .75-.24.75-.59s-.28-.63-.71-.63-.71.28-.75.55h-.95z"/><text transform="rotate(180 -35.674 4.58)" class="st1" font-family="TTCommons-DemiBold" font-size="7.92">1993</text><text transform="translate(-88.652 40.84)" class="st1" font-family="TTCommons-DemiBold" font-size="7.92">1993</text></svg>