<svg xmlns="http://www.w3.org/2000/svg" viewBox="0 0 32 38"><path d="M26.6 5.4C20.7-.5 11.2-.5 5.4 5.4c-5.9 5.9-5.9 15.4 0 21.2L16 37.2l10.6-10.6c5.9-5.9 5.9-15.3 0-21.2zM15.9 19.6c-2 0-3.6-1.6-3.6-3.6s1.6-3.6 3.6-3.6 3.6 1.6 3.6 3.6c-.1 2-1.7 3.6-3.6 3.6z" fill="red"/><path d="M26.6 5.4C20.7-.5 11.2-.5 5.4 5.4c-5.9 5.9-5.9 15.4 0 21.2h0L16 37.2l10.6-10.6h0c5.9-5.9 5.9-15.3 0-21.2zM15.9 19.6c-2 0-3.6-1.6-3.6-3.6s1.6-3.6 3.6-3.6 3.6 1.6 3.6 3.6c-.1 2-1.7 3.6-3.6 3.6z" fill="none" stroke="#003a62" stroke-miterlimit="10"/></svg>