<svg xmlns="http://www.w3.org/2000/svg" width="42.56" height="42.53"><style>.st3{fill:#fff;stroke:#003b62;stroke-width:2;stroke-miterlimit:10}</style><g id="zones_pictogramme_1_" stroke="#003b62" stroke-width="2" stroke-miterlimit="10"><path id="zone_gauche_1_" fill="#003b62" d="M1 1h20.23v40.53H1z"/><path id="zone_droite_1_" fill="none" d="M21.23 1h20.3v40.53h-20.3z"/></g><path d="M17.37 28.52H8.98c-.97 0-1.75-.79-1.75-1.75v-2.79c0-.97.79-1.75 1.75-1.75h8.39c.97 0 1.75.79 1.75 1.75v2.79c0 .97-.78 1.75-1.75 1.75z" fill="#fff"/><path class="st3" d="M41.56 11.11l-4.43-6.2c-.58-.81-1.72-1-2.53-.42-.81.58-1 1.72-.42 2.53l2.99 4.17c1.05 1.46 0 3.5-1.8 3.5H29.9c-.5 0-.91.41-.91.91v11.88c0 .32.17.6.42.76l-4.69 2.31c-.62.3-.88 1.05-.57 1.67.22.44.66.7 1.12.7.19 0 .37-.04.55-.13l7.53-3.7c.95-.47 1.99-.71 3.04-.71h5.14l.03-17.27z"/><path id="objet_à_transmettre_1_" class="st3" d="M11.1 11.13h20.26v20.26H11.1z"/><path id="main_gauche_1_" class="st3" d="M7.34 21.13h9.76c1.16 0 2.1.94 2.1 2.1 0 1.06-.79 1.96-1.85 2.09-1.51.18-3.79.46-6.3.77-1.84.22-4.84 3.64-10.05 3.93V17.41l4.22-3.07a3.23 3.23 0 0 1 3.97.13l1.88 1.57v5.13"/></svg>