<svg version="1.1" id="Calque_1" xmlns="http://www.w3.org/2000/svg" x="0" y="0" viewBox="0 0 50 50" xml:space="preserve"><style></style><path d="M25 7.5c9.6 0 17.5 7.8 17.5 17.5 0 9.6-7.8 17.5-17.5 17.5-3.4 0-6.8-1-9.6-2.9l-.6-.4-.7.2-4.4 1.4 1.4-4.2.2-.7-.5-.6c-2.2-3-3.3-6.5-3.3-10.2 0-9.7 7.9-17.6 17.5-17.6m6.2 29.7c.6 0 1-.1 1.4-.2 1.9-.4 4.2-1.8 4.8-3.7.3-1 .8-2.9.2-3.9-.3-.6-.9-.8-1.4-1.1-.1 0-.2-.1-.3-.1-.3-.2-3.2-1.6-3.9-1.9-.3-.1-.7-.2-1-.2-.8 0-1.6.4-2.1 1.1l-.2.3c-.3.5-.7.9-.9 1.3-.7-.3-2.1-.8-3.8-2.4-1.2-1-2-2.3-2.6-3.1l.3-.3.4-.4.1-.1c.3-.3.5-.6.8-1.1.4-.7.3-1.5-.1-2.3-.1-.2-.7-1.7-1.1-2.6-.2-.5-.4-1.1-.6-1.4-.6-1.5-1.5-1.8-2.5-1.9H18c-1.2 0-2.3.4-3 1.1-.6.6-2.3 2.4-2.3 5.6 0 2.7 1.6 5.3 2.5 6.6l.1.1c2.9 4.1 6.4 7.2 10 8.7 2.6 1.3 4.5 1.9 5.9 1.9M25 6C14.5 6 6 14.5 6 25c0 4.2 1.3 8 3.6 11.1l-2.4 7.1 7.3-2.3c3 2 6.6 3.1 10.5 3.1 10.5 0 19-8.5 19-19S35.5 6 25 6m6.2 29.6c-1 0-2.5-.3-5.6-1.6-5.6-2.3-9.2-8-9.5-8.4-.3-.4-2.3-3-2.3-5.7s1.4-4.1 1.9-4.6 1.2-.7 1.9-.7h.6c.6 0 .8.1 1.2.9.5 1.1 1.6 3.8 1.7 4.1.1.3.3.7.1 1-.2.4-.3.5-.6.9-.3.3-.5.6-.8.9-.3.3-.5.6-.2 1.2.3.5 1.4 2.4 3.1 3.8 2.1 1.9 3.8 2.5 4.5 2.7.2.1.4.1.5.1.3 0 .6-.1.8-.3.4-.5 1-1.2 1.5-2 .3-.4.6-.5.9-.5.2 0 .3 0 .5.1.5.2 3.2 1.5 3.8 1.8.6.3.9.4 1.1.6.1.2.1 1.3-.3 2.6-.5 1.3-2.3 2.4-3.7 2.7-.3.4-.6.4-1.1.4" fill="#004264"/></svg>