<?xml version="1.0" encoding="utf-8"?>
<!-- Generator: Adobe Illustrator 24.1.2, SVG Export Plug-In . SVG Version: 6.00 Build 0)  -->
<svg version="1.1" id="Calque_1" xmlns="http://www.w3.org/2000/svg" xmlns:xlink="http://www.w3.org/1999/xlink" x="0px" y="0px"
	 viewBox="0 0 50 50" style="enable-background:new 0 0 50 50;" xml:space="preserve">
<style type="text/css">
	.st0{fill:#FFFFFF;}
</style>
<path class="st0" d="M40,33.4c-0.6-0.6-1.3-0.9-2.1-0.9c-0.8,0-1.5,0.3-2.1,0.9l-0.9,0.9L32,31.4c-0.1-0.1-0.3-0.2-0.4-0.3
	c-0.8-3.4-3.2-6.3-6.4-7.7v-4.5c0-1.7-1-3.1-2.4-3.8c1.5-0.7,2.5-2.2,2.5-4c0-2.5-2-4.5-4.5-4.5c-2.5,0-4.5,2-4.5,4.5
	c0,1.8,1,3.3,2.5,4c-1.4,0.7-2.4,2.2-2.4,3.8v4.5c-3.9,1.7-6.6,5.6-6.6,10.1c0,6.1,4.9,11,11,11c4.3,0,7.9-2.4,9.8-6l2.1,2.1
	c0.3,0.3,0.7,0.6,1.1,0.7c0,0.1,0,0.1,0,0.2c0,1.7,1.3,3,3,3c1.7,0,3-1.3,3-3c0-1-0.5-1.9-1.3-2.5l1.4-1.4
	C41.1,36.4,41.1,34.5,40,33.4 M18.4,11c0-1.4,1.1-2.5,2.5-2.5c1.4,0,2.5,1.1,2.5,2.5c0,1.4-1.1,2.5-2.5,2.5
	C19.5,13.5,18.4,12.4,18.4,11 M18.5,18.9c0-1.3,1.1-2.4,2.4-2.4c1.3,0,2.4,1.1,2.4,2.4v3.9c-0.8-0.2-1.6-0.3-2.4-0.3
	c-0.8,0-1.6,0.1-2.4,0.3V18.9z M29.7,34.8c-0.1,0.8-0.3,1.5-0.6,2.2c-1.4,3.2-4.6,5.5-8.3,5.5c-5,0-9-4-9-9c0-3.4,1.9-6.3,4.6-7.9
	c0.6-0.3,1.3-0.6,2-0.8c0.8-0.2,1.5-0.3,2.4-0.3c0.8,0,1.6,0.1,2.4,0.3c0.7,0.2,1.4,0.5,2,0.8c1.9,1.1,3.4,2.8,4.1,4.9
	c0.2,0.6,0.4,1.3,0.5,2c0,0.3,0.1,0.7,0.1,1C29.9,33.9,29.8,34.4,29.7,34.8 M36.9,42.5c-0.5,0-1-0.5-1-1c0-0.1,0-0.1,0-0.2
	c0.1-0.5,0.5-0.8,1-0.8c0.1,0,0.1,0,0.2,0c0.4,0.1,0.8,0.5,0.8,1C37.9,42,37.4,42.5,36.9,42.5 M38.6,36.2l-1.5,1.5l-0.9,0.9
	c-0.1,0-0.2,0.1-0.3,0.1c-0.5,0.2-0.9,0.4-1.3,0.8c-0.2,0-0.3-0.1-0.5-0.3l-1.6-1.6l-1.1-1.1c0.2-0.5,0.3-1.1,0.3-1.7
	c0-0.2,0.1-0.5,0.1-0.7l0,0v0l0.6,0.6l1,1l0.9,0.9l0.5,0.5l0.5-0.5l0.9-0.9l0.9-0.9c0.1-0.1,0.2-0.1,0.3-0.2
	c0.2-0.1,0.4-0.1,0.5-0.1c0.1,0,0.3,0,0.4,0.1c0.1,0,0.2,0.1,0.3,0.2c0.1,0.1,0.1,0.2,0.2,0.2c0.1,0.2,0.1,0.4,0.1,0.5
	c0,0.1,0,0.3-0.1,0.5C38.7,36,38.6,36.1,38.6,36.2"/>
</svg>
