<svg version="1.1" id="Calque_1" xmlns="http://www.w3.org/2000/svg" x="0" y="0" viewBox="0 0 50 50" xml:space="preserve"><style>.st2{fill:none;stroke:#fff;stroke-width:2;stroke-miterlimit:10}</style><path class="st2" d="M25 6v5M30.9 6.9l-1 2.9M36.2 9.6l-1.8 2.5M40.4 13.8l-2.5 1.8M43.1 19.1l-2.9 1M43.1 30.9l-2.9-1M40.4 36.2l-2.5-1.8M36.2 40.4l-1.8-2.5M30.9 43.1l-1-2.9M19.1 43.1l1-2.9M13.8 40.4l1.8-2.5M9.6 36.2l2.5-1.8M6.9 30.9l2.9-1M6.9 19.1l2.9 1M9.6 13.8l2.5 1.8M13.8 9.6l1.8 2.5M19.1 6.9l1 2.9M44 25h-5M25 44v-5M6 25h5M18 25h7l13.3-4.3"/></svg>