<svg version="1.1" id="Calque_1" xmlns="http://www.w3.org/2000/svg" x="0" y="0" viewBox="0 0 50 50" xml:space="preserve"><style>.st1{fill:#004264}.st2,.st4{fill:none;stroke:#004264;stroke-width:2.2942;stroke-miterlimit:10}.st4{stroke:#fff}</style><path class="st1" d="M-133 8c3.3 0 6 2.7 6 6 0 3.7-3.1 9-6 9s-6-5.3-6-9c0-3.3 2.7-6 6-6m0-2c-4.4 0-8 3.6-8 8s3.6 11 8 11 8-6.6 8-11-3.6-8-8-8zM-127.1 29.3c3.2 0 5.8 2.6 5.8 5.8v19.6h-23.4V35.1c0-3.2 2.6-5.8 5.8-5.8h11.8m0-2.3h-11.7c-4.5 0-8.1 3.6-8.1 8.1V57h28V35.1c-.1-4.5-3.7-8.1-8.2-8.1zM-114-50.7c3.1 0 5.7 2.6 5.7 5.7 0 2.4-1.4 5.7-3.2 7.4-.8.8-1.1 2-.6 3.1.4 1.1 1.5 1.8 2.6 1.8h1.4c3.2 0 5.8 2.6 5.8 5.8v19.6h-23.4v-19.6c0-3.2 2.6-5.8 5.8-5.8h1.4c1.2 0 2.2-.7 2.6-1.8.4-1.1.2-2.3-.6-3.1-1.8-1.8-3.2-5-3.2-7.4 0-3.1 2.6-5.7 5.7-5.7m0-2.3c-4.4 0-8 3.6-8 8 0 2.9 1.6 6.8 3.9 9.1.3.3.1.9-.4.9h-1.4c-4.5 0-8.1 3.6-8.1 8.1V-5h28v-21.9c0-4.5-3.6-8.1-8.1-8.1h-1.4c-.5 0-.7-.6-.4-.9 2.4-2.3 3.9-6.2 3.9-9.1 0-4.4-3.6-8-8-8z"/><path class="st2" d="M-120-23v18M-108-23v18"/><path class="st1" d="M-38 8.3c3.1 0 5.7 2.6 5.7 5.7 0 2.4-1.4 5.7-3.2 7.4-.8.8-1.1 2-.6 3.1.4 1.1 1.5 1.8 2.6 1.8h1.4c3.2 0 5.8 2.6 5.8 5.8v9.6h-23.4v-9.6c0-3.2 2.6-5.8 5.8-5.8h1.4c1.2 0 2.2-.7 2.6-1.8.4-1.1.2-2.3-.6-3.1-1.8-1.8-3.2-5-3.2-7.4 0-3.1 2.6-5.7 5.7-5.7m0-2.3c-4.4 0-8 3.6-8 8 0 2.9 1.6 6.8 3.9 9.1.3.3.1.9-.4.9h-1.4c-4.5 0-8.1 3.6-8.1 8.1V44h28V32.1c0-4.5-3.6-8.1-8.1-8.1h-1.4c-.5 0-.7-.6-.4-.9 2.4-2.3 3.9-6.2 3.9-9.1 0-4.4-3.6-8-8-8z"/><path class="st2" d="M-44 36v8"/><g><path class="st2" d="M-32 36v8"/></g><g><path d="M25 8.3c3.1 0 5.7 2.6 5.7 5.7 0 2.4-1.4 5.7-3.2 7.4-.8.8-1.1 2-.6 3.1.4 1.1 1.5 1.8 2.6 1.8h1.4c3.2 0 5.8 2.6 5.8 5.8v9.6H13.3v-9.6c0-3.2 2.6-5.8 5.8-5.8h1.4c1.2 0 2.2-.7 2.6-1.8.4-1.1.2-2.3-.6-3.1-1.8-1.8-3.2-5-3.2-7.4 0-3.1 2.6-5.7 5.7-5.7M25 6c-4.4 0-8 3.6-8 8 0 2.9 1.6 6.8 3.9 9.1.3.3.1.9-.4.9h-1.4c-4.5 0-8.1 3.6-8.1 8.1V44h28V32.1c0-4.5-3.6-8.1-8.1-8.1h-1.4c-.5 0-.7-.6-.4-.9 2.4-2.3 3.9-6.2 3.9-9.1 0-4.4-3.6-8-8-8z" fill="#fff"/><path class="st4" d="M19 36v8"/><g><path class="st4" d="M31 36v8"/></g></g></svg>