<svg version="1.1" id="Calque_1" xmlns="http://www.w3.org/2000/svg" x="0" y="0" viewBox="0 0 27 33.2" xml:space="preserve" width="33.2" height="27"><style>.st0{fill:#849fbc}.st1{fill:#003a60}.st2{fill:#e20413}</style><path class="st0" d="M17.6 0h5.6v.6h-5.6z"/><path class="st1" d="M3.8 0h5.6v.6H3.8z"/><path class="st2" d="M16.5.6l-2.8 5.6h.7L17.1.6z"/><path class="st0" d="M26.4 7.3l-2.8 5.6h.7L27 7.3z"/><path class="st1" d="M23.1 14.1l-2.8 5.6h.7l2.7-5.6z"/><path class="st0" d="M19.8 20.9L17 26.5h.7l2.7-5.6z"/><path class="st1" d="M16.5 27.6l-2.8 5.6h.7l2.7-5.6zM26.4 6.2L23.6.6h.7L27 6.2z"/><path class="st2" d="M9.9.6l2.7 5.6h.7L10.5.6z"/><path class="st1" d="M0 7.3l2.7 5.6h.7L.6 7.3z"/><path class="st0" d="M3.3 14.1l2.8 5.6h.6L4 14.1z"/><path class="st1" d="M6.6 20.9l2.7 5.6h.7l-2.8-5.6z"/><path class="st0" d="M9.9 27.6l2.7 5.6h.7l-2.8-5.6zM3.4.6L.6 6.2H0L2.7.6z"/></svg>