<svg version="1.1" id="Calque_1" xmlns="http://www.w3.org/2000/svg" x="0" y="0" viewBox="0 0 50 50" xml:space="preserve"><style>.st1{fill:#003b62}</style><path class="st1" d="M12.6 40.2h-1.8V6H26v1.9H12.6z"/><path fill="#fff" d="M26.9 9.8H14.6V43h23.7V21.2z"/><path class="st1" d="M39.3 44H13.6V8.9h13.7l12 12V44zm-23.8-1.9h21.8V21.6L26.5 10.8h-11v31.3z"/><path class="st1" d="M38.3 22.1H26V9.8l1.6-.7L39 20.5l-.7 1.6zm-10.4-1.8H36l-8.2-8.2v8.2zM31.1 40.3l-7-7 5.5-5.5 7 7-5.5 5.5zm-4.4-7l4.3 4.3 2.8-2.8-4.3-4.3-2.8 2.8z"/><path transform="rotate(-45.001 26.425 30.225)" class="st1" d="M25.5 26.6h1.9v7.3h-1.9z"/><path class="st1" d="M23.3 32.6l-7-7 5.5-5.5 7 7-5.5 5.5zm-4.3-7l4.3 4.3 2.8-2.8-4.3-4.3-2.8 2.8z"/></svg>