<svg version="1.1" id="Calque_1" xmlns="http://www.w3.org/2000/svg" x="0" y="0" viewBox="0 0 50 50" xml:space="preserve"><style>.st0{fill:#003b62}</style><path class="st0" d="M11.7 44.7v-7.5C7.4 33.8 5 28.9 5 23.7 5 14 13.5 6 24 6s19 8 19 17.7-8.5 17.7-19 17.7c-1.7 0-3.4-.2-5.1-.6l-7.2 3.9zM24 7.9C14.6 7.9 6.9 15 6.9 23.7c0 4.8 2.3 9.2 6.3 12.3l.4.3v5.2l5.1-2.8.4.1c1.6.4 3.3.7 4.9.7 9.4 0 17.1-7.1 17.1-15.8C41.1 15 33.4 7.9 24 7.9z"/><path class="st0" d="M15.2 21.8v-.5c0-.4-.2-.9-1-.9-.7 0-1 .3-1 .8 0 .9 1.8.6 3.2 1.3.8.4 1.4 1.4 1.4 2.4 0 1.7-1.6 3.2-3.6 3.2s-3.6-1.4-3.6-3.2v-.3l2.6-.2v.3c0 .4.2.9 1 .9.7 0 1-.3 1-.8 0-.9-2.1-.7-3.2-1.3-1.2-.6-1.4-1.4-1.4-2.4 0-1.7 1.6-3.2 3.6-3.2s3.6 1.4 3.6 3.2v.3l-2.6.4zM29.1 27.8h-2.6v-5.1l-1.4 5.1h-2.3l-1.4-5.1v5.1h-2.6v-9.6H22l1.9 6.2h.1l1.9-6.2H29v9.6zM34.8 21.8v-.5c0-.4-.2-.9-1-.9-.7 0-1 .3-1 .8 0 .9 1.8.6 3.2 1.3.8.4 1.4 1.4 1.4 2.4 0 1.7-1.6 3.2-3.6 3.2s-3.6-1.4-3.6-3.2v-.3l2.6-.2v.3c0 .4.2.9 1 .9.7 0 1-.3 1-.8 0-.9-2.1-.7-3.2-1.3-1.2-.6-1.4-1.4-1.4-2.4 0-1.7 1.6-3.2 3.6-3.2s3.6 1.4 3.6 3.2v.3l-2.6.4z"/></svg>