<svg id="Calque_1" xmlns="http://www.w3.org/2000/svg" viewBox="0 0 50 50"><style>.st0{fill:#003b62}.st1{fill:#fff}</style><text transform="translate(-117.808 26.47)" class="st0" font-family="ProjectSans-Heavy" font-size="9.731">contact</text><text transform="translate(-113.149 44.794)"><tspan x="0" y="0" class="st0" font-family="ProjectSans-Heavy" font-size="9.731">con </tspan><tspan x="-2.3" y="9" class="st0" font-family="ProjectSans-Heavy" font-size="9.731">tact</tspan></text><path class="st0" d="M-74.4 6h1.6v35.4h-1.6zM-71.3 6h3.7v12.9h-3.7zM-71.3 28.5h3.7v12.9h-3.7zM-149 24.7c0 1-.9 1.7-2 1.7s-2-.7-2-1.7v-2.1c0-1 .9-1.7 2-1.7s2 .7 2 1.7v.2l-1.4.1v-.2c0-.2-.1-.5-.5-.5s-.5.3-.5.5v1.9c0 .2.1.5.5.5s.5-.3.5-.5v-.2l1.4.1v.2zM-144.5 22.6v2.1c0 1-.9 1.7-2 1.7s-2-.7-2-1.7v-2.1c0-1 .9-1.7 2-1.7s2 .8 2 1.7zm-2.5.1v1.9c0 .2.1.5.5.5s.5-.3.5-.5v-1.9c0-.2-.1-.5-.5-.5s-.5.3-.5.5zM-139.6 21v5.3h-1.4l-1.3-2.5v2.5h-1.4V21h1.4l1.3 2.5V21h1.4zM-135.4 22.4h-1.1v4h-1.4v-4h-1.1V21h3.6v1.4zM-132.8 25.6h-1.2l-.2.8h-1.4l1.4-5.3h1.6l1.4 5.3h-1.4l-.2-.8zm-.3-1.4l-.3-1.5-.3 1.5h.6zM-127 24.7c0 1-.9 1.7-2 1.7s-2-.7-2-1.7v-2.1c0-1 .9-1.7 2-1.7s2 .7 2 1.7v.2l-1.4.1v-.2c0-.2-.1-.5-.5-.5s-.5.3-.5.5v1.9c0 .2.1.5.5.5s.5-.3.5-.5v-.2l1.4.1v.2zM-123 22.4h-1.1v4h-1.4v-4h-1.1V21h3.6v1.4z"/><g><path class="st1" d="M19.7 38.7c1.7.5 3.4.8 5.3.8 1.7 0 3.3-.2 4.9-.7l.4-.1 5.1 2.8v-5.2l.4-.3c4-3 6.3-7.5 6.3-12.3C42.1 15 34.4 7.9 25 7.9 15.6 7.9 7.9 15 7.9 23.7c0 5.1 2.6 9.6 6.7 12.5v2.3C9.4 35.3 6 29.9 6 23.7 6 14 14.5 6 25 6s19 8 19 17.7c0 5.2-2.4 10.1-6.7 13.5v7.5l-7.2-4c-1.6.4-3.3.6-5.1.6-2.7 0-5.2-.5-7.5-1.4l2.2-1.2z"/><path class="st1" d="M32.5 39.9c-2.3.9-4.9 1.4-7.5 1.4-1.7 0-3.4-.2-5.1-.6l-7.2 4v-7.5C8.4 33.8 6 28.9 6 23.7 6 14 14.5 6 25 6s19 8 19 17.7c0 6.2-3.4 11.6-8.6 14.8v-2.3c4.1-2.9 6.7-7.4 6.7-12.5C42.1 15 34.4 7.9 25 7.9 15.6 7.9 7.9 15 7.9 23.7c0 4.8 2.3 9.2 6.3 12.3l.4.3v5.2l5.1-2.8.4.1c1.6.4 3.3.7 4.9.7 1.8 0 3.6-.3 5.3-.8l2.2 1.2z"/></g><g><path class="st0" d="M-42.3 38.7c1.7.5 3.4.8 5.3.8 1.7 0 3.3-.2 4.9-.7l.4-.1 5.1 2.8v-5.2l.4-.3c4-3 6.3-7.5 6.3-12.3 0-8.7-7.7-15.8-17.1-15.8-9.4 0-17.1 7.1-17.1 15.8 0 5.1 2.6 9.6 6.7 12.5v2.3c-5.2-3.2-8.6-8.6-8.6-14.8C-56 14-47.5 6-37 6s19 7.9 19 17.7c0 5.2-2.4 10.1-6.7 13.5v7.5l-7.2-4c-1.6.4-3.3.6-5.1.6-2.7 0-5.2-.5-7.5-1.4l2.2-1.2z"/><path class="st0" d="M-29.5 39.9c-2.3.9-4.9 1.4-7.5 1.4-1.7 0-3.4-.2-5.1-.6l-7.2 4v-7.5c-4.3-3.4-6.7-8.3-6.7-13.5C-56 14-47.5 6-37 6s19 7.9 19 17.7c0 6.2-3.4 11.6-8.6 14.8v-2.3c4.1-2.9 6.7-7.4 6.7-12.5 0-8.7-7.7-15.8-17.1-15.8-9.4 0-17.1 7.1-17.1 15.8 0 4.8 2.3 9.2 6.3 12.3l.4.3v5.2l5.1-2.8.4.1c1.6.4 3.3.7 4.9.7 1.8 0 3.6-.3 5.3-.8l2.2 1.2z"/></g><g><path class="st0" d="M-42 20c0 1.4-1.3 2.5-2.9 2.5-1.6 0-2.9-1.1-2.9-2.5v-3.1c0-1.4 1.3-2.5 2.9-2.5 1.6 0 2.9 1.1 2.9 2.5v.3l-2.1.2v-.3c0-.3-.2-.7-.8-.7-.6 0-.8.4-.8.7v2.8c0 .3.2.7.8.7.6 0 .8-.4.8-.7v-.3l2.1.2v.2zM-35.2 16.9V20c0 1.4-1.3 2.5-2.9 2.5-1.6 0-2.9-1.1-2.9-2.5v-3.1c0-1.4 1.3-2.5 2.9-2.5 1.5 0 2.9 1.1 2.9 2.5zm-3.8.2v2.8c0 .3.2.7.8.7.6 0 .8-.4.8-.7v-2.8c0-.3-.2-.7-.8-.7-.6-.1-.8.3-.8.7zM-28.1 14.5v7.9h-2.1l-2-3.8v3.8h-2.1v-7.9h2.1l2 3.8v-3.8h2.1zM-43.5 26.9h-1.6v5.9h-2.1v-5.9h-1.6v-2h5.4v2zM-39.6 31.7h-1.8l-.2 1.2h-2.1l2.1-7.9h2.4l2.1 7.9h-2.1l-.4-1.2zm-.4-2l-.5-2.3h-.1l-.5 2.3h1.1zM-31.1 30.4c0 1.4-1.3 2.5-2.9 2.5-1.6 0-2.9-1.1-2.9-2.5v-3.1c0-1.4 1.3-2.5 2.9-2.5 1.6 0 2.9 1.1 2.9 2.5v.3l-2.1.2v-.3c0-.3-.2-.7-.8-.7-.6 0-.8.4-.8.7v2.8c0 .3.2.7.8.7.6 0 .8-.4.8-.7V30l2.1.2v.2zM-25.1 26.9h-1.6v5.9h-2.1v-5.9h-1.6v-2h5.4v2z"/></g><g><path class="st1" d="M20 20c0 1.4-1.3 2.5-2.9 2.5-1.6 0-2.9-1.1-2.9-2.5v-3.1c0-1.4 1.3-2.5 2.9-2.5 1.6 0 2.9 1.1 2.9 2.5v.3l-2.1.2v-.3c0-.3-.2-.7-.8-.7-.6 0-.8.4-.8.7v2.8c0 .3.2.7.8.7.6 0 .8-.4.8-.7v-.3l2.1.2v.2zM26.8 16.9V20c0 1.4-1.3 2.5-2.9 2.5-1.6 0-2.9-1.1-2.9-2.5v-3.1c0-1.4 1.3-2.5 2.9-2.5 1.5 0 2.9 1.1 2.9 2.5zm-3.8.2v2.8c0 .3.2.7.8.7.6 0 .8-.4.8-.7v-2.8c0-.3-.2-.7-.8-.7-.6-.1-.8.3-.8.7zM33.9 14.5v7.9h-2.1l-2-3.8v3.8h-2.1v-7.9h2.1l2 3.8v-3.8h2.1zM18.5 26.9h-1.6v5.9h-2.1v-5.9h-1.6v-2h5.4v2zM22.4 31.7h-1.8l-.2 1.2h-2.1l2.1-7.9h2.4l2.1 7.9h-2.1l-.4-1.2zm-.4-2l-.5-2.3h-.1l-.4 2.3h1zM30.9 30.4c0 1.4-1.3 2.5-2.9 2.5-1.6 0-2.9-1.1-2.9-2.5v-3.1c0-1.4 1.3-2.5 2.9-2.5 1.6 0 2.9 1.1 2.9 2.5v.3l-2.1.2v-.3c0-.3-.2-.7-.8-.7-.6 0-.8.4-.8.7v2.8c0 .3.2.7.8.7.6 0 .8-.4.8-.7V30l2.1.2v.2zM36.9 26.9h-1.6v5.9h-2.1v-5.9h-1.6v-2H37v2z"/></g></svg>