<svg version="1.1" id="Calque_1" xmlns="http://www.w3.org/2000/svg" x="0" y="0" viewBox="0 0 50 50" xml:space="preserve"><style></style><path d="M32.1 11.5c1.7 0 3.3.7 4.5 1.9l.6.6.5-.1-5.4 3.2 6.5-.8-.7.5V18.5c0 9.9-7.5 20.1-20.1 20.1-2 0-3.9-.3-5.8-.8 2.3-.6 4.4-1.6 6.3-3l3.3-2.6-4-.2c-1.8 0-3.5-.9-4.6-2.2.5 0 .9-.1 1.3-.2l6-1.6-6.1-1.2c-2.1-.4-3.8-1.9-4.5-3.8.5.1 1 .2 1.5.2l5 .1-4.2-2.8c-1.7-1.1-2.7-3-2.7-5.1 0-.4 0-.7.1-1 4 4 9.4 6.3 15 6.6l1.9.1-.3-2.1c-.1-.4-.1-.9-.1-1.4-.1-3.4 2.6-6.1 6-6.1m0-1.5c-4.2 0-7.6 3.4-7.6 7.6 0 .6.1 1.2.2 1.7-6.3-.3-11.8-3.3-15.6-7.9-.7 1.1-1 2.4-1 3.8 0 2.6 1.4 4.9 3.4 6.3-1.2 0-2.4-.4-3.4-.9v.1c0 3.7 2.6 6.7 6.1 7.4-.6.2-1.3.2-2 .2-.5 0-1 0-1.4-.1 1 3 3.8 5.2 7.1 5.3-2.6 2-5.8 3.2-9.4 3.2-.6 0-1.2 0-1.8-.1C10.1 38.8 14 40 18.3 40c13.9 0 21.5-11.5 21.5-21.5v-1c1.5-1.1 2.8-2.4 3.8-3.9-1.4.6-2.8 1-4.4 1.2 1.6-.9 2.8-2.4 3.3-4.2-1.5.9-3.1 1.5-4.8 1.8-1.5-1.5-3.4-2.4-5.6-2.4" fill="#003b62"/></svg>