<svg xmlns="http://www.w3.org/2000/svg" xmlns:xlink="http://www.w3.org/1999/xlink" width="86" height="56"><style>.st0{clip-path:url(#SVGID_2_);fill:#fff}</style><defs><path id="SVGID_1_" d="M-7-22H93V78H-7z"/></defs><clipPath id="SVGID_2_"><use xlink:href="#SVGID_1_" overflow="visible"/></clipPath><path class="st0" d="M80.5 2.5c1.7 0 3 1.3 3 3v45c0 1.7-1.3 3-3 3h-75c-1.7 0-3-1.3-3-3v-45c0-1.7 1.3-3 3-3h75m0-2h-75c-2.8 0-5 2.2-5 5v45c0 2.8 2.2 5 5 5h75c2.8 0 5-2.2 5-5v-45c0-2.8-2.2-5-5-5"/><path clip-path="url(#SVGID_2_)" fill="none" stroke="#fff" stroke-width="2" stroke-miterlimit="10" d="M38 1v54"/><path class="st0" d="M11.2 38.3c-.9 0-1.7-.8-1.7-1.7 0-.9.7-1.7 1.7-1.7.9 0 1.7.7 1.7 1.7s-.8 1.7-1.7 1.7m0-2.6c-.6 0-1 .5-1 1 0 .6.5 1 1 1 .6 0 1-.5 1-1 0-.6-.5-1-1-1"/><path class="st0" d="M12.9 36.7c0 .3-.1.6-.2.8h18.7v6.7H9.8v-6.6c-.2-.3-.3-.6-.3-.9h-.7v5.1l-1.1-5.1H7V45h.7v-4.7L8.8 45h23.4v-8.3H12.9z"/></svg>