<svg version="1.1" id="Calque_1" xmlns="http://www.w3.org/2000/svg" xmlns:xlink="http://www.w3.org/1999/xlink" x="0" y="0" viewBox="0 0 74.4 76.4" xml:space="preserve"><style>.st0{fill:#003b62}</style><path id="fond" class="st0" d="M6.9 7.3h29.7v59.5H6.9z"/><path id="contour_2" class="st0" d="M37.6 67.8H5.9V6.3h31.7v61.5zm-29.7-2h27.7V8.3H7.9v57.5z"/><path id="contour" class="st0" d="M67.4 67.8H35.6V6.3h31.8v61.5zm-29.8-2h27.8V8.3H37.6v57.5z"/><defs><path id="SVGID_1_" d="M0 .4h72.2v73.4H0z"/></defs><clipPath id="SVGID_2_"><use xlink:href="#SVGID_1_" overflow="visible"/></clipPath><path d="M32.3 47.7H17.4c-.7 0-1.3-.6-1.3-1.3v-6.7c0-.7.6-1.3 1.3-1.3h14.9c.7 0 1.3.6 1.3 1.3v6.7c-.1.8-.6 1.3-1.3 1.3" clip-path="url(#SVGID_2_)" fill="#fff"/><defs><path id="SVGID_3_" d="M0 .4h72.2v73.4H0z"/></defs><clipPath id="SVGID_4_"><use xlink:href="#SVGID_3_" overflow="visible"/></clipPath><path d="M66.5 22.2L60 13.1c-.9-1.2-2.5-1.5-3.7-.6s-1.5 2.5-.6 3.7l4.4 6.1c1.5 2.1 0 5.1-2.6 5.1h-8c-.7 0-1.3.6-1.3 1.3v17.4c0 .5.2.9.6 1.1l-6.9 3.4c-.9.4-1.3 1.5-.8 2.5.3.6 1 1 1.6 1 .3 0 .5-.1.8-.2l11.1-5.4c1.4-.7 2.9-1 4.5-1h7.5l-.1-25.3z" clip-path="url(#SVGID_4_)" fill="#fff"/><defs><path id="SVGID_5_" d="M0 .4h72.2v73.4H0z"/></defs><clipPath id="SVGID_6_"><use xlink:href="#SVGID_5_" overflow="visible"/></clipPath><path d="M42.7 55.1c-1 0-2-.6-2.5-1.6-.4-.7-.4-1.6-.2-2.3.3-.7.8-1.3 1.4-1.6l5.8-2.9c-.1-.2-.1-.5-.1-.7V28.7c0-1.2 1.1-2.3 2.3-2.3h8c.8 0 1.6-.4 1.9-1.2.4-.8.3-1.6-.2-2.3l-4.4-6.1c-.6-.8-.8-1.8-.7-2.7.2-.9.7-1.8 1.5-2.4 1.6-1.2 3.9-.9 5.1.8l6.7 9.4.1 26.6h-8.5c-1.5 0-2.8.3-4.1.9l-11.4 5.5c0 .1-.3.2-.7.2zm6.8-26.7c-.1 0-.3.2-.3.3V46.3l1.8.9-8.7 4.3c-.2.1-.3.2-.4.4-.1.2-.1.5.1.7.1.3.5.4.7.4.1 0 .1 0 .3-.1h.1l11-5.4c1.5-.7 3.1-1.1 4.9-1.1h6.5l-.1-24-6.3-8.8c-.6-.8-1.6-.9-2.3-.4-.4.3-.6.7-.7 1.1-.1.4 0 .8.3 1.2l4.4 6.1c.9 1.3 1 3 .3 4.4-.7 1.4-2.1 2.3-3.7 2.3h-7.9z" clip-path="url(#SVGID_6_)" fill="#003b62"/><g><defs><path id="SVGID_7_" d="M0 .4h72.2v73.4H0z"/></defs><clipPath id="SVGID_8_"><use xlink:href="#SVGID_7_" overflow="visible"/></clipPath><path clip-path="url(#SVGID_8_)" fill="#fff" d="M21.8 22.2h29.8V52H21.8z"/></g><g><defs><path id="SVGID_9_" d="M0 .4h72.2v73.4H0z"/></defs><clipPath id="SVGID_10_"><use xlink:href="#SVGID_9_" overflow="visible"/></clipPath><path d="M52.6 53H20.8V21.2h31.8V53zm-29.8-2h27.8V23.2H22.8V51z" clip-path="url(#SVGID_10_)" fill="#003b62"/></g><g><defs><path id="SVGID_11_" d="M0 .4h72.2v73.4H0z"/></defs><clipPath id="SVGID_12_"><use xlink:href="#SVGID_11_" overflow="visible"/></clipPath><path d="M16.2 36.9h14.3c1.7 0 3.1 1.4 3.1 3.1 0 1.6-1.2 2.9-2.7 3.1-2.2.3-5.6.7-9.3 1.1-2.7.3-7.1 5.3-14.8 5.8V31.5L13 27c1.8-1.3 4.2-1.2 5.8.2l2.8 2.3V37" clip-path="url(#SVGID_12_)" fill="#fff"/></g><g><defs><path id="SVGID_13_" d="M0 .4h72.2v73.4H0z"/></defs><clipPath id="SVGID_14_"><use xlink:href="#SVGID_13_" overflow="visible"/></clipPath><path d="M5.8 51.1V31l6.6-4.8c2.2-1.6 5.1-1.5 7 .3l3.1 2.6V36h7.9c2.3 0 4.1 1.8 4.1 4.1 0 2.1-1.5 3.8-3.6 4.1-2.1.3-5.4.7-9.3 1.1-.8.1-1.9.8-3.3 1.6-2.6 1.5-6.3 3.8-11.4 4.1l-1.1.1zm2-19.1v16.9c4.1-.5 7.3-2.4 9.6-3.8 1.6-1 2.9-1.7 4.1-1.9 3.9-.4 7.2-.8 9.3-1.1 1-.1 1.8-1 1.8-2.1s-1-2.1-2.1-2.1H16.2v-2h4.4V30l-2.4-2c-1.3-1.1-3.2-1.2-4.6-.2L7.8 32z" clip-path="url(#SVGID_14_)" fill="#003b62"/></g></svg>