<svg version="1.1" id="Calque_1" xmlns="http://www.w3.org/2000/svg" x="0" y="0" viewBox="0 0 50 50" xml:space="preserve"><style></style><path d="M29.6 7.6h4.2v4.3h-2.6c-3.8 0-4.2 2.4-4.2 4.2v5.1h6.5v4.7H27v16.5h-5V26h-5.7v-4.7H22v-5.8c0-4.9 2.9-7.9 7.6-7.9m0-1.5c-5.5 0-9.1 3.7-9.1 9.3v4.3h-4.9c-.4 0-.8.3-.8.8v6.2c0 .4.3.8.8.8h4.9v15.7c0 .4.3.8.8.8h6.5c.4 0 .8-.3.8-.8V27.5h5.8c.4 0 .8-.3.8-.8v-6.2c0-.2-.1-.4-.2-.5-.1-.1-.3-.2-.5-.2h-5.8v-3.6c0-1.8.4-2.6 2.7-2.6h3.3c.4 0 .8-.3.8-.8V6.9c0-.4-.3-.8-.8-.8h-5.1z" fill="#003b62"/></svg>