<svg xmlns="http://www.w3.org/2000/svg" viewBox="0 0 279.16 378.21" height="50"><style>.st2,.st3{fill:#fff}.st3{fill-rule:evenodd;clip-rule:evenodd}</style><g id="Layer_1"><path class="st2" d="M131.15 200.11c0 4.66 3.78 8.44 8.44 8.44 4.65 0 8.43-3.78 8.43-8.44V8.44c0-4.66-3.78-8.44-8.43-8.44-4.66 0-8.44 3.78-8.44 8.44v191.67zM166.65 200.11c0 4.66 3.78 8.44 8.44 8.44s8.44-3.78 8.44-8.44v-34.62c0-4.66-3.78-8.44-8.44-8.44s-8.44 3.78-8.44 8.44v34.62zM202.15 200.11c0 4.66 3.78 8.44 8.44 8.44s8.44-3.78 8.44-8.44v-5.92c0-4.66-3.78-8.44-8.44-8.44s-8.44 3.78-8.44 8.44v5.92zM95.64 200.11c0 4.66 3.78 8.44 8.44 8.44s8.44-3.78 8.44-8.44v-34.62c0-4.66-3.78-8.44-8.44-8.44s-8.44 3.78-8.44 8.44v34.62zM60.14 200.11c0 4.66 3.78 8.44 8.43 8.44 4.66 0 8.44-3.78 8.44-8.44v-5.92c0-4.66-3.78-8.44-8.44-8.44s-8.43 3.78-8.43 8.44v5.92z"/><g><path class="st3" d="M51.92 353.78H6.11c-3.3 0-6.11-2.81-6.11-6.11V259.7c0-4.03 3.06-6.1 6.11-6.1s6.11 2.08 6.11 6.1v81.86h39.7c4.03 0 6.11 3.05 6.11 6.11 0 3.06-2.07 6.11-6.11 6.11M75.14 353.78c-3.06 0-6.11-2.08-6.11-6.11v-60.48c0-4.03 3.05-6.11 6.11-6.11 3.06 0 6.11 2.08 6.11 6.11v60.48c-.01 4.03-3.05 6.11-6.11 6.11m0-80.64c-3.06 0-6.11-2.08-6.11-6.11v-7.33c0-4.03 3.05-6.1 6.11-6.1 3.06 0 6.11 2.08 6.11 6.1v7.33c-.01 4.04-3.05 6.11-6.11 6.11zM130.48 273.27c-.97 0-1.95-.36-3.06-1.22l-13.3-10.64c-1.47-1.1-1.97-2.44-1.97-3.66 0-2.69 2.33-5.13 5.01-5.13.85 0 1.96.37 3.06 1.23l13.32 10.62c1.34 1.1 1.96 2.44 1.96 3.67 0 2.56-2.45 5.13-5.02 5.13M200.97 306.13c0-7.82-6.23-14.05-14.05-14.05-7.83 0-14.05 6.23-14.05 14.05v20.16c0 7.82 6.22 14.05 14.05 14.05 7.82 0 14.05-6.23 14.05-14.05v-20.16zm-14.05 72.08c-7.45 0-17.47-3.3-21.87-10.02-.86-1.22-1.22-2.32-1.22-3.55 0-3.3 3.18-6.11 6.36-6.11 1.83 0 3.54.86 4.88 2.81 0 0 .12.12.36.37 2.93 3.06 7.33 4.28 11.49 4.28 7.82 0 14.05-6.23 14.05-14.06v-3.42c-4.03 2.57-8.91 4.03-14.05 4.03-14.54 0-26.27-11.73-26.27-26.27v-20.16c0-14.53 11.72-26.27 26.27-26.27 14.54 0 26.26 11.74 26.26 26.27v45.82c0 14.56-11.72 26.28-26.26 26.28zM266.95 306.13c0-7.82-6.24-14.05-14.06-14.05s-14.05 6.23-14.05 14.05v2.45h28.11v-2.45zm6.11 14.66h-34.21v7.94c0 7.33 7.09 14.05 15.27 14.05 4.64 0 8.68-1.34 11.85-4.64 1.34-1.95 3.05-2.81 4.88-2.81 3.18 0 6.36 2.81 6.36 6.11 0 1.22-.38 2.32-1.23 3.54 0 0-.47.86-1.58 1.96-5.13 5.5-12.83 8.07-20.28 8.07-14.05 0-27.49-11.37-27.49-26.27v-22.61c0-14.53 11.73-26.27 26.27-26.27s26.27 11.74 26.27 26.27v8.55c-.01 3.3-2.81 6.11-6.11 6.11zM136.23 306.13c0-7.82-6.25-14.05-14.06-14.05a13.98 13.98 0 0 0-14.05 14.05v2.45h28.11v-2.45zm6.1 14.66h-34.21v7.94c0 7.33 7.09 14.05 15.27 14.05 4.64 0 8.68-1.34 11.85-4.64 1.34-1.95 3.05-2.81 4.88-2.81 3.18 0 6.36 2.81 6.36 6.11 0 1.22-.38 2.32-1.23 3.54 0 0-.48.86-1.58 1.96-5.13 5.5-12.83 8.06-20.28 8.06-14.05 0-27.49-11.37-27.49-26.27v-22.61c0-14.53 11.73-26.27 26.26-26.27 14.54 0 26.26 11.73 26.26 26.27v8.55c.02 3.31-2.78 6.12-6.09 6.12z"/></g></g></svg>