<svg xmlns="http://www.w3.org/2000/svg" viewBox="0 0 35 35" width="50" height="50"><path d="M13.23 4.68l.03.02c.03.02.06.01.08-.02.2-.25.53-.34.71-.24.36.2.27.58.12.78.01.01.03.02.04.04.29-.13.68-.11.97.02.36.16.58.38.76.64.04.05.11.03.11-.04 0-.57-.28-1.2-.91-1.53-.63-.32-1.46-.34-1.94.22-.01.05 0 .09.03.11m-.83.83c.16-.09.33-.15.5-.21.04-.01.05-.05.03-.09a.754.754 0 0 1-.08-.24c0-.04-.04-.06-.07-.06-.08.01-.17.03-.26.05-.23.06-.45.19-.52.32s-.12.31-.16.47c-.02.06.05.1.1.07.14-.11.29-.21.46-.31zm.07 4.06c-.7-.06-1.08-.28-1.32-.55-.03-.04-.01-.09.03-.1.36-.08.98-.33 1.27-.55.14-.11.27-.23.39-.36.04-.04 0-.11-.06-.1-.28.03-.61-.07-.74-.33-.02-.04-.07-.05-.1-.02-.22.22-.67.44-1.18.58-.07.02-.22.09-.28.13-.78.61-1.34 1.8-1.38 2.57l-.01.02c-.19.35-.43 1-.21 2 .29 1.28.98 1.86 1.71 2.4.31.23.65.4 1.02.55.06.02.11-.05.07-.1-.6-.75-.97-1.45-.97-2.08 0-.93.81-1.37 1.45-1.43.02 0 .03-.01.04-.02.1-.13.25-.25.36-.32.03-.02.03-.05.02-.08-.35-.61-.42-1.38-.06-2.13.02-.03-.01-.07-.05-.08zm4.04-8.12c-.35.03-.73.19-1.03.5-.04.04-.1.02-.11-.03-.03-.17-.01-.39-.02-.54 0-.05-.05-.07-.09-.05-.35.21-.7.49-.96 1-.02.05-.1.04-.11-.01-.04-.15-.03-.32-.04-.45 0-.05-.07-.08-.11-.04-.28.26-.53.66-.66 1.05-.02.05-.09.06-.12.01-.05-.11-.07-.24-.11-.34-.01-.04-.07-.05-.1-.02-.61.51-.88 1.38-.77 2.1.01.03.04.06.07.05.16-.02.35-.1.55-.08.02 0 .04-.01.06-.02.63-.88 1.78-.95 2.56-.44.01.01.03.01.04.01.65-.09 1.07-.42 1.23-.86.18-.5.08-1.3-.23-1.8 0-.03-.02-.04-.05-.04zm-2.63 3.83c-.03-.02-.03-.07 0-.09.03-.03.05-.07.07-.11.07-.15.02-.32-.1-.37-.12-.05-.27.03-.34.18-.02.03-.03.07-.04.11 0 .04-.04.06-.08.05-.03-.01-.07 0-.09.04-.03.04-.03.12.03.21.04.06.1.13.17.18.06.05.12.09.17.15.03.03.07.02.09-.01.05-.07.11-.14.18-.19.03-.02.03-.06.01-.09-.03-.02-.05-.04-.07-.06zm-.43 1.08c0-.05-.07-.08-.11-.04-.17.17-.37.26-.6.37-.26.13-.45.29-.45.55 0 .17.14.32.37.32.23 0 .42-.09.59-.34.18-.27.22-.55.2-.86zm-2.02.62c0 .2.13.28.27.28.2 0 .29-.13.42-.41.09-.19.2-.33.35-.44.05-.04.02-.12-.04-.11-.37.02-.67.15-.86.35-.09.09-.14.22-.14.33zm.89-1.14c-.05.03-.04.1.01.12.18.04.4.05.55.04.1-.01.29-.06.41-.09.04-.01.06-.05.04-.09-.02-.05-.05-.09-.08-.14-.04-.06-.08-.11-.12-.16-.02-.02-.05-.03-.07-.02-.17.07-.34.14-.5.22-.07.03-.16.07-.24.12zm13.78 4.61c-.5-.38-1.12-.66-2.05-.84-.04-.01-.06-.06-.04-.1.17-.24.31-.5.39-.79.01-.04-.02-.08-.07-.08-.76.12-1.72.42-2.38.79-.57.32-1.03.99-1.13 1.88-.01.05.05.09.09.06.55-.32 1.16-.55 1.78-.68l.02-.01c.29-.2.56-.41.8-.63.01-.01.02-.02.04-.02.96-.03 1.77.22 2.48.52.07.03.12-.06.07-.1zm-11.54-.41c-.31.33-.88.84-1.1 1.26-.02.05.02.1.07.09.38-.09.86-.06 1.23.05.05.01.1-.04.07-.08-.17-.36-.14-.84-.17-1.27 0-.07-.07-.09-.1-.05zm-1.71 1.3c.02.05.09.05.11 0 .26-.6.69-1.01 1.1-1.42.29-.29.51-.55.69-.86.03-.05.1-.04.11.01.11.35.18.71.17 1.09 0 .32-.01.57.03.77.01.07.11.07.12 0 .1-.7.43-1.26.61-1.73.28-.72.36-1.22.36-1.66 0-1.33-.76-2.02-1.47-2.02-.49 0-.73.33-.8.74-.06.35-.07.8-.36 1.38-.2.42-.6.98-1.41 1.36-.05.03-.04.11.01.12.46.09.86.06 1.21 0 .06-.01.1.07.05.11-.44.37-.6.8-.66 1.27-.03.27.03.59.13.84zm13.46 12.58c-.03.06-.13.04-.12-.03.11-.91.56-1.82 1.05-2.65.74-1.23 1.18-2.6 1.26-3.92.16-2.48-1.78-4.96-3.98-5.43-.07-.01-.07-.12.01-.12 1.2-.1 2.57.24 3.47.9 1.01.73 1.99 2.39 1.99 4.47 0 2.01-.59 3.2-1.05 4.4-.5 1.31-.83 2.69-.81 4.01 0 .07-.09.09-.12.03-.51-1.09-.44-2.26-.35-3.06.01-.05-.05-.09-.09-.06-.5.31-.93.72-1.26 1.46zm1.8-6.55c.07-1.12-.3-2.23-.88-3.14-.52-.81-1.57-1.76-2.83-1.98-.07-.01-.1.08-.04.11.57.31 1.04.78 1.34 1.3.03.05-.02.11-.08.09-.29-.12-.59-.19-.89-.23-.07-.01-.1.08-.04.11 1.13.67 1.69 1.88 1.69 3.01 0 1.73-1.23 2.48-1.88 2.68-.37.11-.77.13-1.16.07-.06-.01-.1.07-.05.11.59.41 1.55.44 2.3.14.48-.2.92-.57 1.18-.97.03-.05.11-.03.11.03.04.45-.02.89-.12 1.24-.02.06.06.1.1.06.57-.52 1.17-1.43 1.25-2.63zm-1.88 2.35c-.91.55-1.81.55-2.49.36-.02-.01-.04 0-.06.02-.36.37-.82.77-1.55.91-.06.01-.07.1-.01.12.37.12.71.09 1-.03.05-.02.1.04.08.09-.24.49-.63.79-.99 1.02-.05.04-.03.12.04.11.55-.05 1.06-.32 1.42-.59.04-.03.11 0 .1.06-.17 1.04-.18 1.93-.04 2.69.01.07.12.07.12-.01.08-1.24.57-2.04 1.07-2.61.03-.04.1-.02.11.03.08.37.22.67.36.92.03.05.11.04.12-.03.12-1.35.5-2.31.82-2.99.01-.04-.05-.1-.1-.07zm-4.59.91c-.57-.67-.73-1.32-.78-1.98 0-.05.05-.09.1-.06.34.24.75.41 1.18.43.06 0 .09-.07.04-.11-.9-.79-1.64-1.81-2.23-3.17-.48-1.11-1.07-2.07-2.13-2.86a6.09 6.09 0 0 0-1.87-.96c-.06-.02-.11.06-.06.11 1.26 1.03 1.17 2.4.78 3.16-.03.05.02.11.07.09.28-.1.49-.24.63-.37.03-.03.09-.01.1.03.38 1.2.3 2.34.08 2.99-.02.05.04.1.09.07a2.82 2.82 0 0 0 1.27-1.53c.02-.06.1-.06.12 0 .51 1.4.34 2.63-.16 3.69-.03.06.04.11.09.08.19-.13.41-.29.59-.46.04-.04.11-.01.1.05-.06 1.02.24 1.83.68 2.52.03.05.12.03.11-.04-.03-.83.06-1.63.16-2.24.01-.06.09-.07.12-.02.22.41.53.59.85.67.07.02.11-.04.07-.09zm-2.53 1.63c.1-.37-.01-.71 0-1.04 0-.2.07-.43.15-.65.02-.06-.04-.1-.09-.07-.33.22-.71.42-1.08.57-.06.02-.11-.05-.07-.09.34-.43.66-.99.82-1.56.01-.04-.02-.08-.06-.08-.76 0-1.89-.09-2.78-.46h-.03c-.4.05-1.03.1-1.68 0-.05-.01-.09.04-.07.08.33.74.95 1.33 1.93 1.94.45.28.98.66 1.11 1.22.01.04.05.06.08.05.2-.07.29-.02.38.14.08.15.18.3.28.3.09 0 .12-.02.25-.05.08-.01.16-.01.22.02.1.05.17.06.23.05.22-.04.35-.15.41-.37zm-4.16-1.76c-.4-.34-.93-.85-1.21-1.68-.01-.02-.02-.04-.05-.04-.41-.08-.82-.2-1.21-.38-.04-.02-.09.01-.09.06.02.2.12.44.14.67.02.19-.06.2-.14.22-.1.02.03.33.55.65.02.01.03.04.03.07-.05.21-.08.61.29.84.23.15.55.14.99-.09.22-.12.41-.18.67-.22.05-.01.07-.07.03-.1zm.4-2.07c-.2-.16-.38-.36-.49-.5l-.03-.02c-.86-.32-1.59-.74-2.38-1.37l-.02-.01c-.68-.2-1.35-.5-2.19-1.14-.05-.04-.12.01-.1.07.7 1.99 2.65 3.13 5.16 3.08.07 0 .1-.07.05-.11zm2.95-.34c.2 0 .45 0 .64-.01.03 0 .06-.03.06-.06 0-.15-.02-.38-.06-.58-.01-.05-.08-.07-.11-.02-.14.19-.32.39-.56.57-.05.03-.03.1.03.1zm-3.98-.8c1.03.48 1.94.66 2.81.75.03 0 .06-.01.06-.04.03-.09.06-.19.09-.28-.01-.03-.02-.04-.03-.07-.99-.54-1.84-.58-2.18-.52-.18.03-.44.06-.73.05-.05-.01-.08.08-.02.11zm1.8-.44c.48.09.84.23 1.18.39.04.02.08-.01.09-.05.02-.14.02-.27.02-.42 0-.03-.03-.06-.06-.06-.22-.01-.66-.05-.97-.13-.02 0-.03.01-.05.01-.07.05-.15.1-.23.15-.05.03-.04.1.02.11zm2.81 1.6c-.7.04-1.86.04-3.05-.23-.07-.01-.1.07-.05.11.86.56 2.11.65 3.06.61.03 0 .05-.02.06-.05.02-.1.04-.25.04-.38 0-.03-.03-.06-.06-.06zm-2.14-2.12c.19.02.39.03.56.02.03 0 .06-.03.06-.06-.01-.22-.04-.42-.08-.64-.01-.06-.08-.07-.11-.02-.13.22-.28.42-.46.6-.04.03-.02.09.03.1zm-2.27.54c1.03 0 1.77-.46 2.26-1.1.04-.05-.01-.11-.06-.1-.21.04-.51.08-.77.07-.06 0-.08-.07-.04-.11.41-.34.71-.91.71-1.54 0-1.34-1.3-2.44-2.59-2.44-.87 0-1.36.53-1.63.9-.01.02-.03.02-.05.02-.73-.02-1.3.4-1.3 1.06-.01.94 1.37 3.24 3.47 3.24zm10.74-8.69c1.13 0 2.19.29 2.94 1.08.59.63.86 1.58.82 2.33 0 .07.09.09.12.03.54-1.34.19-2.56-.44-3.42-.89-1.22-2.43-1.85-4.11-1.85-2.52 0-4.36 1.38-5.28 2.6-.81 1.08-1.16 2.49-1.02 3.83 0 .02.01.03.02.04.14.12.28.24.41.37.04.04.1.02.1-.03.46-3.03 3.24-4.98 6.44-4.98zm-1.96-2.1c.97-.17 1.77-.17 2.59 0h.03c.66-.27 1.48-.66 2.15-1.29.05-.05 0-.13-.06-.1-.53.21-1.11.37-1.87.33-.06 0-.08-.07-.04-.11a4.45 4.45 0 0 0 1.61-2.43c.02-.06-.06-.1-.11-.06-1.47 1.68-3 2.79-4.35 3.55-.05.03-.02.12.05.11zm-2.83 4.47c-.52.58-.86 1.28-1.06 1.96-.02.06.07.11.11.05.25-.32.54-.61.87-.85.02-.01.02-.03.02-.05-.01-.32.04-.69.16-1.05.03-.07-.05-.11-.1-.06zm4.51-1.02c.13-.28.23-.61.26-.89 0-.04-.03-.07-.06-.07-.12 0-.25.01-.37.02-.03 0-.05.02-.06.05-.06.25-.15.5-.28.73-.02.04 0 .08.04.09.13.03.26.07.39.11.04 0 .07-.02.08-.04zm-.86.79c-.14-.01-.27-.01-.41 0-.01 0-.03.01-.04.02-.04.04-.09.08-.15.13-.04.04-.02.11.04.11.12-.01.26-.01.36-.01.01 0 .02 0 .03-.01.07-.04.13-.08.19-.12.06-.04.04-.11-.02-.12zm.99 1.13c.22 0 .47.01.74.04.07.01.1-.09.03-.12-.68-.28-1.41-.42-2.15-.41-1.02.02-2.05.36-2.92.94-.65.44-1.23 1.07-1.6 1.75-.01.02-.01.05.01.07.05.07.1.13.16.2l.05.07c.02.03.07.03.1.01.66-.71 1.45-1.31 2.32-1.74 1.02-.53 2.15-.81 3.26-.81zm-.42 1.69c.06.01.09-.07.05-.11-.43-.39-.97-.67-1.73-.67-1.07 0-2.3.86-3.31 1.99-.02.02-.02.05-.01.07.04.08.09.16.13.24.02.04.07.04.1.01a5.724 5.724 0 0 1 3.9-1.6c.3.01.59.03.87.07zm-.13 5.68c-.02.05.03.11.08.08.73-.33 1.33-1.09 1.33-2.3 0-1.43-1.13-3-2.78-3-1.49 0-2.66 1-3.11 1.46-.02.02-.02.05-.01.07.09.18.19.4.27.58.02.03.06.04.09.03a.89.89 0 0 1 1.03.1c.48.47.32 1.04.12 1.39-.03.04.01.1.06.09.44-.06.98-.35 1.25-.94.02-.05.1-.05.11 0 .17.48.29.98.09 1.56-.01.04.01.08.05.08.59.02 1.05-.2 1.4-.65.03-.04.1-.03.11.02.1.48.09 1.06-.09 1.43zm-3.17-2.66c-.14-.22-.55-.41-.88-.17-.02.02-.03.05-.02.07.09.19.2.41.3.57.02.04.08.04.1.01.15-.2.31-.31.47-.39.04-.01.05-.06.03-.09zm-8.81 4.09c-.08-.31-.39-.4-.48-.69-.01-.03-.03-.04-.05-.05-.32-.03-.63-.08-.98-.17-.62-.16-1.16-.35-1.7-.65-.27-.15-.57-.2-.87-.23-.24-.03-.52-.01-.68-.03-.17-.02-.27.06-.39.12s-1.25.7-1.85.74c-.27.02-.53.29-.54.53-.01.24.12.6.36.6-.06-.12-.17-.29-.15-.32.04-.08 1.36-.65 1.74-.95.02-.01.04-.02.06-.01.01 0 .02.01.03.01.03.01.05.04.04.08-.1.29-.56.81-.65 1.14-.08.31 0 .59.2.7.05.02.1-.01.09-.07-.02-.07-.04-.13-.02-.19.06-.15.22-.21.26-.35.12-.41.09-.93.46-1.2.01-.01.03-.01.05-.01.14.02.27.03.4.03.24 0 .46-.08.57-.1.03-.01.06.01.07.04.14.39.06.82.18 1.22.06.2.17.37.33.5.03.02.03.05.03.08-.01.07.09.09.12.03.25-.52-.13-1.2-.22-1.83-.01-.04.03-.07.06-.07.35.02.77.16.96.42.09.12.11.32.15.5.03.12.01.22 0 .33-.01.06.08.09.11.04.13-.21.13-.49.13-.73 0-.06.09-.06.12-.06.27.02.53.09.78.18.46.17.84.31 1.17.64.04.04.1.02.11-.04.01-.05.01-.12 0-.18zm5.18 4.62c-.14 0-.31 0-.43-.02-.03 0-.05.01-.06.03-.03.05-.05.11-.08.16-.02.04.01.09.06.09.18-.01.38-.06.54-.15.05-.03.03-.11-.03-.11zm-.98 1.17c.13.27.76.61.86.86 0 .01.01.02.02.03.23.15.31.43.19.65-.03.06-.12.03-.12-.03 0-.14-.02-.29-.14-.3-.12-.01-.27.03-.42-.01-.17-.05-.3-.21-.37-.37-.01-.03-.03-.04-.06-.04-.42.03-.84-.08-1.27-.01-.02 0-.04.02-.05.03-.21.4-.48.91-1.01.87-.03 0-.05.01-.06.04-.05.13-.03.25-.01.38.01.05-.03.08-.08.07a.367.367 0 0 1-.2-.14c-.06-.09-.06-.15-.06-.24.02-.42.33-.67.62-.94.03-.03.02-.08-.01-.1-.17-.09-.27-.03-.49-.06-.08-.01-.2.03-.29.02-.03-.01-.06 0-.07.03a.35.35 0 0 1-.4.18c-.09-.02-.13.05-.15.09-.04.09-.01.19.01.29.01.05-.05.09-.09.07-.06-.03-.11-.05-.15-.13-.05-.09-.11-.26-.14-.33-.01-.02 0-.04.01-.05.04-.07.15-.24.21-.29.23-.22.5-.29.83-.29.5 0 1.05-.06 1.55-.09.08 0 .55-.69.7-.96.42-.65.75-1.22 1.03-1.93.07-.17.11-.43.09-.68 0-.03.02-.06.05-.07.25-.02.28.31.45.4.15.08.39-.06.59-.01.05.01.06.07.02.11-.72.64-1.45 1.47-1.66 2.36 0 .16-.04.37.07.59zm-6.55 7.53H9.15c-.01 0-.01 0-.01-.01l-.85-3.34c0-.01-.02-.01-.03 0l-.83 3.34c0 .01-.01.01-.01.01H6.33c-.01 0-.01 0-.01-.01L5 28.61c0-.01 0-.02.01-.02h1.1c.01 0 .01 0 .01.01l.79 3.31c0 .01.02.01.03 0l.79-3.31c0-.01.01-.01.01-.01h1.03c.01 0 .01 0 .01.01l.82 3.32c0 .01.02.01.03 0l.76-3.32c0-.01.01-.01.01-.01h1.1c.01 0 .02.01.01.02l-1.29 4.95c.02.01.01.01.01.01zm4.45 0h-.98s-.01 0-.01-.01c-.07-.08-.1-.19-.11-.33 0-.01-.01-.02-.02-.01-.31.3-.7.44-1.17.44-.38 0-.68-.11-.9-.33-.2-.21-.3-.45-.3-.71 0-.33.09-.59.28-.77.18-.18.47-.3.85-.36l.4-.07c.14-.02.24-.04.29-.05l.15-.03c.05-.01.09-.02.1-.03.01-.01.04-.02.08-.05.11-.06.17-.16.17-.3 0-.26-.19-.38-.58-.38-.16 0-.29.02-.39.05-.1.03-.17.08-.22.15-.05.07-.08.17-.1.29 0 .01-.01.01-.01.01h-.93c-.01 0-.02-.01-.01-.02.03-.4.18-.7.45-.9.27-.21.67-.31 1.19-.31.53 0 .92.09 1.18.27.26.18.39.45.39.83V33c0 .23.07.41.2.54.02.02.01.03 0 .03zm-1.16-1.48v-.24c0-.01-.01-.02-.02-.01-.09.04-.22.08-.4.11l-.34.06c-.21.04-.36.09-.44.17-.09.08-.13.19-.13.33s.05.25.15.33c.1.08.23.12.4.12.25 0 .45-.08.58-.23.13-.15.2-.36.2-.64zm2.32-3.48v4.95c0 .01-.01.01-.01.01h-.97c-.01 0-.01-.01-.01-.01v-4.95c0-.01.01-.01.01-.01h.97s.01 0 .01.01zm1.29 0v4.95c0 .01-.01.01-.01.01h-.97c-.01 0-.01-.01-.01-.01v-4.95c0-.01.01-.01.01-.01h.97s.01 0 .01.01zm2.09 1.26c.59 0 1.06.17 1.39.51.34.34.51.81.51 1.42 0 .58-.17 1.03-.52 1.37-.35.34-.81.51-1.38.51-.58 0-1.04-.17-1.38-.51-.34-.34-.51-.8-.51-1.39 0-.59.17-1.05.51-1.39.34-.35.8-.52 1.38-.52zm.01.73a.91.91 0 0 0-.37.08c-.11.06-.21.14-.29.24-.08.1-.14.23-.18.38-.04.15-.07.31-.07.48 0 .23.04.44.12.62.08.18.18.32.32.42a.808.808 0 0 0 .84.06c.11-.06.21-.14.29-.24.08-.1.14-.23.18-.37.05-.14.07-.3.07-.47 0-.36-.08-.65-.25-.87a.797.797 0 0 0-.66-.33zm2.14-.66h.97c.01 0 .01.01.01.01v.42c0 .01.02.02.03.01.13-.18.28-.31.45-.39.18-.08.4-.12.67-.12.41 0 .73.11.95.32.23.21.34.52.34.91v2.46c0 .01-.01.01-.01.01h-.97c-.01 0-.01-.01-.01-.01V31.3c0-.44-.21-.66-.64-.66-.24 0-.44.07-.58.2-.15.13-.22.3-.22.52v2.2c0 .01-.01.01-.01.01h-.97c-.01 0-.01-.01-.01-.01v-3.6c-.02-.01-.01-.02 0-.02zm4.7-1.33v.82c0 .01-.01.01-.01.01h-.97c-.01 0-.01-.01-.01-.01v-.82c0-.01.01-.01.01-.01h.97c.01 0 .01 0 .01.01zm0 1.35v3.6c0 .01-.01.01-.01.01h-.97c-.01 0-.01-.01-.01-.01v-3.6c0-.01.01-.01.01-.01h.97c.01-.01.01 0 .01.01zm3.78 2.06h-2.57c-.01 0-.02.01-.01.02.04.59.33.89.88.89.2 0 .37-.05.52-.15.14-.09.23-.2.27-.31 0-.01.01-.01.01-.01h.84c.01 0 .02.01.01.02-.25.8-.82 1.19-1.7 1.19-.53 0-.96-.17-1.31-.51-.35-.34-.52-.79-.52-1.34 0-.59.18-1.06.54-1.42.36-.36.8-.54 1.33-.54.5 0 .91.19 1.24.57.33.38.5.84.5 1.4 0 .05 0 .11-.01.17 0 .01-.01.02-.02.02zm-1.76-1.4c-.17 0-.31.04-.44.11s-.22.17-.28.28a.88.88 0 0 0-.1.36c0 .01.01.02.01.02h1.59c.01 0 .02-.01.01-.02a.941.941 0 0 0-.25-.53c-.13-.15-.31-.22-.54-.22z" fill="#fff"/></svg>