<?xml version="1.0" encoding="utf-8"?>
<!-- Generator: Adobe Illustrator 22.1.0, SVG Export Plug-In . SVG Version: 6.00 Build 0)  -->
<svg version="1.1" id="Calque_1" xmlns="http://www.w3.org/2000/svg" xmlns:xlink="http://www.w3.org/1999/xlink" x="0px" y="0px"
	 viewBox="0 0 600 258" style="enable-background:new 0 0 600 258;" xml:space="preserve">
<style type="text/css">
	.st0{clip-path:url(#SVGID_2_);fill:#E1001A;}
	.st1{clip-path:url(#SVGID_2_);fill:#003A62;}
</style>
<g>
	<defs>
		<rect id="SVGID_1_" width="440" height="258.1"/>
	</defs>
	<clipPath id="SVGID_2_">
		<use xlink:href="#SVGID_1_"  style="overflow:visible;"/>
	</clipPath>
	<path class="st0" d="M437,224.5c-1.2,1.8-2.9,5.6-4.1,5.6c-0.4,0-0.9-0.7-0.9-1c0-0.1,0.1-0.1,0.1-0.2c0.6-1.8,1.7-6.3,3.4-6.3
		C436,222.7,436.5,223.8,437,224.5 M423.7,240.7c0.3,3.6,0.6,8.9,6.6,8.9c3,0,7.8-2.5,7.8-5.7c0-0.8-0.5-1.2-1.3-1.2
		c-1.6,0-3,0.9-4.5,0.9c-2.6,0-2.3-2.2-2.3-3.7c0-4,4-5.1,5.9-8.1c1.5-2.5,4.2-6.3,4.2-9.1c0-2.8-2.2-4.5-4.8-4.5
		C427.6,218.3,423.8,232.6,423.7,240.7 M416.2,210.8c0.5,0.4,2,2,2.4,2c2,0,3.4-4.5,3.4-4.1c0-1.2-1.1-1.8-2.6-1.8
		C417.6,206.9,416.3,208,416.2,210.8 M409,244.5c0.2,0,0.2,0.2,0.2,0.2v0.5c0,1.2,1.2,2.5,1.9,3.5c1.1-0.5,2.8-1.4,3.2-2.9
		c1.7-6.8,3.4-13.8,5-20.6v-0.4c0-1.7-1.3-3.2-3.1-3.2c-5.2,0-4.4,8-5.1,12C410.4,237.3,409.8,240.8,409,244.5 M394.7,243.1
		c0.2,0,0.3,0.1,0.5,0.1c0,0.6-0.1,1.3-0.1,2c0,1,0.7,4.5,2.7,4.5c0.7,0,1.9-0.6,2.6-1.2c3.2-2.3,3.2-6.3,4.5-9.7
		c0-0.3-1.1-1.3-1.4-1.3c-0.2,0.1-0.5,0.1-0.6,0.1c-0.9,0-1.1-0.4-1.1-1c0-0.3,0.1-0.6,0.2-1c1.2-5.4,2.1-19,3.3-24.3
		c0.8-3.5,7-6.5,10.7-9.1c0.5-0.3,0.6-1,1-1.5c-0.5-0.1-1-0.2-1.5-0.2c-2.4,0-5.3,2.3-7,2.3c-1,0-1.4-0.5-1.4-1.9
		c0-1.6,0.4-4.3,0.4-5.9c0-1.2-0.2-2.6-1.7-2.6c-3.7,0-4.8,3.8-4.8,6.9c0,0.8,0.1,1.6,0.1,2.3c0,3.8-1.4,5.5-5.5,6.2
		c-1.6,0.4-4.1,0.6-4.1,2.2c0.2,0.9,1.1,1.6,1.9,1.6c1.2,0,2.4-0.5,3.4-0.5c1.4,0,2.1,0.7,2.1,2.1c0,1.1-0.4,2-0.5,3
		C397,222.4,395.9,236.9,394.7,243.1 M382.3,229.2c-2.3,3.7-5.5,10.1-8,10.1c-0.9,0-1.3-1.4-1.3-1.8c0-2.2,3.5-6.9,5.5-9.7
		c0.4-0.4,1.1-0.5,1.8-0.5C381.3,227.3,381.4,227.7,382.3,229.2 M382.3,222.4c-1.9,0.9-4.2,1.5-5.8,2.7c-4.4,3.3-7.6,9.1-7.6,14.7
		c0,2.4,1.5,4.4,3.8,4.4c2.7,0,5.3-2.3,5.8-2.3c1.3,0-0.1,2.3,2.1,4.9c0.7,0.9,1.3,1.5,2,1.5c1.9,0,2.3-3.2,2.6-6
		c0.5-4.5,1.2-9.1,1.9-13.7c0.1-0.5,0.2-1,0.2-1.4C387.3,224.4,385.7,222.8,382.3,222.4 M372.1,217.6c-0.9-1.3-0.9-3-2.5-3
		c-3.4,0-5.9,5-8.1,7.8c-0.8,0.9-1.7,1.8-2.7,2.7c-0.5-2.5-1.4-6-3.5-6c-5,0-4.8,11.2-5.3,14.9c-0.5,4.2-1.2,8.4-1.6,12.7
		c0,1,1,2.2,1.6,3.2c1.7-1,3-1.2,4.1-4.1c1.7-4.1,2.9-8.4,4.8-12.4c1.8-3.6,6.6-12,7.9-12c0.9,0,1.6,2.3,2.7,2.3
		C371,223.8,371.4,220.5,372.1,217.6 M344.4,226.4v-0.7c0-2.1-0.7-3.1-2.4-3.1c-1.2,0-2.9,0.4-4.2,1.6c-4.6,3.4-6.3,7.8-6.3,12.7
		c0,2.6,0.5,8.7,5.6,8.7c2.9,0,8.2-2.7,8.2-5.2c0-0.9-0.5-0.9-1-0.9c-1.4,0-3.4,1.9-5,1.9c-1.4,0-2.7-0.9-2.7-2.4
		c0-3.8,0.7-7.5,3-10.7c0.5-0.5,0.9-0.9,1.3-0.9c0.7,0,1.2,1,2.3,2.6C343.8,228.7,344.4,227.9,344.4,226.4 M312,237.7
		c0,6.5,2.3,10.3,5.7,10.3c5.3,0,9.8-9.7,9.8-17.3c0-3-0.2-7-2.4-9.1c-0.9,0.9-1.3,0.9-1.3,2.1c0,1.8,0.8,3.5,0.8,5.2
		c0,4.3-1.7,9.3-3.6,13.5c-0.3,0.9-1.8,1.3-2.8,2c-0.5-1.1-1.4-2.4-1.4-3.5c0-4.7,1.8-10.8,4.9-14.5c0.2-0.2,0.4-0.8,0.4-1.2
		c0-1.3-1.3-2-2.3-2C315,223.1,312.3,234.1,312,237.7 M308.9,226.9c-0.2,0-0.4-0.1-0.5-0.1v-0.7c0-2.1-1.5-3.8-2.2-3.8
		c-3.3,0-4.5,2.7-6.5,5.2c-0.8,0.9-1.8,1.4-2.7,2.5c-0.2-2-0.9-5.6-1.9-5.6c-2.2,0-4.5,3.4-6.8,5.2c-0.5,0.5-1.5,0.5-2.3,0.9
		c-0.1-0.8-0.3-1.6-0.3-2.3c0-1.4,0.5-2.7,0.5-3.9c0-1.6-0.5-3.4-2.3-3.4c-1.7,0-3.4,0.6-3.8,2.7c-1.2,6.3-2.4,12.5-3.4,18.7v0.5
		c0,2.3,1.2,3.7,2.1,3.7c1.2,0,3-2.2,3.7-4.5c1.7-5.8,5.6-11.2,10.6-14.4c0.2,0.6,0.5,1.2,0.5,2c0,2.4-1.1,4.9-1.1,7.3
		c0,0.7,0.5,1.4,0.8,2.1c0.8-0.3,1.9-0.5,2.3-1.2c2.7-3.6,4.9-7.6,7.8-10.8c0.3-0.3,1-0.3,1.5-0.5c0.1,0.5,0.2,1,0.2,1.5l-1.7,7.7
		c-0.8,3.4-1.7,6.8-2.4,10.3c0,0.6,0.7,1.4,1,2.2c0.6-0.5,1.6-1,1.8-1.7C306.4,240.7,307.3,233.4,308.9,226.9 M267.6,209.5
		c6.6-2.7,14.5-5,19-9.3c0.2-0.2,0.4-0.9,0.4-1.4c0-1.1-0.9-1.5-1.9-1.5c-0.2,0-0.5,0-0.6,0.1c-6,2.3-11.8,4.7-17.8,7.1
		c-1,0.4-2.2,0.9-2.2,2C264.5,208.1,266.1,208.4,267.6,209.5 M270.8,224.5c-1.2,1.8-2.9,5.6-4.1,5.6c-0.4,0-0.9-0.7-0.9-1
		c0-0.1,0.1-0.1,0.1-0.2c0.6-1.8,1.7-6.3,3.4-6.3C269.8,222.7,270.2,223.8,270.8,224.5 M257.4,240.7c0.3,3.6,0.6,8.9,6.6,8.9
		c3,0,7.8-2.5,7.8-5.7c0-0.8-0.5-1.2-1.3-1.2c-1.6,0-3,0.9-4.5,0.9c-2.6,0-2.3-2.2-2.3-3.7c0-4,4-5.1,5.9-8.1
		c1.5-2.5,4.2-6.3,4.2-9.1c0-2.8-2.2-4.5-4.8-4.5C261.3,218.3,257.6,232.6,257.4,240.7 M233.4,237.1c1-3.9,2.9-13.6,4.4-13.6
		c1.1,0,3.8,2.3,3.8,3.8c0,1.6-4.1,10.9-4.8,11.3c-0.6,0.5-1.6,0.9-2.2,0.9C234.1,239.5,233.8,238.2,233.4,237.1 M230.7,237
		c0,0.4-0.2,1-0.2,1.8c0,1.6,1.5,5.4,3.7,5.4c1.1,0,2.1-0.9,3-1.7c0.7-0.6,1.7-0.8,2.5-1.2c0.2,0.9,0.3,1.7,0.3,2.7
		c-0.2,1.6-0.4,3.4-0.4,5c0,2.5,0.8,3.9,2.1,3.9c4.5,0,5.7-11.8,7.3-18.4c1.6-6.1,3.5-12.1,4.9-18.3c1.5-6.4,1.7-8.8,3.2-15.3
		c0.1-0.5,0.2-1.2,0.2-1.7c0-1-0.6-2-2.8-2c-1.2,0-2,0.5-2.6,2c-3.2,8.8-5.5,14.8-8,21.6c-0.2,0.6-0.8,1.2-1.3,1.7
		c-1.4-1.6-2.7-3.5-4.4-3.5c-5,0-7.7,9.9-7.7,17V237z"/>
	<path class="st1" d="M209.1,229.2c-2.3,3.7-5.5,10.1-8,10.1c-0.9,0-1.3-1.4-1.3-1.8c0-2.2,3.5-6.9,5.5-9.7c0.4-0.4,1.1-0.5,1.8-0.5
		C208.1,227.3,208.2,227.7,209.1,229.2 M209.1,222.4c-1.9,0.9-4.2,1.5-5.8,2.7c-4.4,3.3-7.6,9.1-7.6,14.7c0,2.4,1.5,4.4,3.8,4.4
		c2.7,0,5.3-2.3,5.8-2.3c1.3,0-0.1,2.3,2.1,4.9c0.7,0.9,1.3,1.5,2,1.5c1.9,0,2.3-3.2,2.6-6c0.5-4.5,1.2-9.1,1.9-13.7
		c0.1-0.5,0.2-1,0.2-1.4C214.1,224.4,212.5,222.8,209.1,222.4 M181.2,243.1c0.4,2.7,0.9,5.3,3,5.3c3.7,0,7.1-6.8,7.1-10.2
		c0-0.5-1.2-1.5-1.3-1.4c-0.5,0.2-0.9,0.2-1.2,0.2c-0.7,0-0.9-0.4-0.9-1c0-0.5,0.2-1,0.2-1.5c2-12.3,4.5-24.2,6.8-36.5
		c0-2.2-0.5-4.1-2.5-4.4c-2.9,0-3.4,6.2-4.1,9.2C185.7,216.1,182.6,229.5,181.2,243.1 M162.6,224.5c-1.2,1.8-2.9,5.6-4.1,5.6
		c-0.4,0-0.9-0.7-0.9-1c0-0.1,0.1-0.1,0.1-0.2c0.6-1.8,1.7-6.3,3.4-6.3C161.6,222.7,162,223.8,162.6,224.5 M149.2,240.7
		c0.3,3.6,0.6,8.9,6.6,8.9c3,0,7.8-2.5,7.8-5.7c0-0.8-0.5-1.2-1.3-1.2c-1.6,0-3,0.9-4.5,0.9c-2.6,0-2.3-2.2-2.3-3.7
		c0-4,4-5.1,5.9-8.1c1.5-2.5,4.2-6.3,4.2-9.1c0-2.8-2.2-4.5-4.8-4.5C153.1,218.3,149.4,232.6,149.2,240.7 M125.2,237.1
		c1-3.9,2.9-13.6,4.4-13.6c1.1,0,3.8,2.3,3.8,3.8c0,1.6-4.1,10.9-4.8,11.3c-0.6,0.5-1.6,0.9-2.2,0.9
		C125.9,239.5,125.6,238.2,125.2,237.1 M122.5,237c0,0.4-0.2,1-0.2,1.8c0,1.6,1.5,5.4,3.7,5.4c1.1,0,2.1-0.9,3-1.7
		c0.7-0.6,1.7-0.8,2.5-1.2c0.2,0.9,0.3,1.7,0.3,2.7c-0.2,1.6-0.4,3.4-0.4,5c0,2.5,0.8,3.9,2.1,3.9c4.5,0,5.7-11.8,7.3-18.4
		c1.6-6.1,3.5-12.1,4.9-18.3c1.5-6.4,1.7-8.8,3.2-15.3c0.1-0.5,0.2-1.2,0.2-1.7c0-1-0.6-2-2.8-2c-1.2,0-2,0.5-2.6,2
		c-3.2,8.8-5.5,14.8-8,21.6c-0.2,0.6-0.8,1.2-1.2,1.7c-1.4-1.6-2.7-3.5-4.4-3.5c-5,0-7.7,9.9-7.7,17V237z M94.5,243.1
		c0.4,2.7,0.9,5.3,3,5.3c3.7,0,7.1-6.8,7.1-10.2c0-0.5-1.2-1.5-1.3-1.4c-0.5,0.2-0.9,0.2-1.2,0.2c-0.7,0-0.9-0.4-0.9-1
		c0-0.5,0.2-1,0.2-1.5c2-12.3,4.5-24.2,6.8-36.5c0-2.2-0.5-4.1-2.5-4.4c-2.9,0-3.4,6.2-4.1,9.2C99,216.1,95.9,229.5,94.5,243.1
		 M87,210.8c0.5,0.4,2,2,2.4,2c2,0,3.4-4.5,3.4-4.1c0-1.2-1.1-1.8-2.6-1.8C88.4,206.9,87.1,208,87,210.8 M79.8,244.5
		c0.2,0,0.2,0.2,0.2,0.2v0.5c0,1.2,1.2,2.5,1.9,3.5c1.1-0.5,2.8-1.4,3.2-2.9c1.7-6.8,3.4-13.8,5-20.6v-0.4c0-1.7-1.3-3.2-3.1-3.2
		c-5.2,0-4.4,8-5.1,12C81.2,237.3,80.5,240.8,79.8,244.5 M64.5,214.5c-0.4,0-0.8-0.2-1.1-0.2c-0.5,0-1.6,0.9-2,1.2
		c2.3,2.3,5.5,1.6,5.5,3.7c0,0.5-0.1,1.1-0.3,1.9c-2.7,15-4.2,22.9-6.3,33.4c-0.1,0.2-0.1,0.5-0.1,0.7c0,1.4,0.6,3,2.8,3
		c1.2,0,4.1-3.6,4.5-4.8c1.7-7.1,0.9-7.1,2.3-14.3c1.3-6.4,2.3-12.9,3.4-19.5c0.4-1.6,1-2.7,2.8-3.3c3.9-1.4,7.1-3.8,9.5-7.2
		c0.7-1,0.9-2.5,1.3-3.9c-2.7,2.3-6.2,4.7-9.3,7c-0.5,0.2-1,0.4-1.6,0.4c-0.7,0-1.4-0.3-1.4-1.2c0-3.1,2.6-11.5,3.8-11.5
		c0.9,0,1.2,2.9,2.7,2.9c1.9-0.4,3-2.3,3-4.7c0-3.3-1.7-6.1-4.1-6.1c-8.2,0-10.3,12.8-12,19.9c-0.4,1.7-1.2,2.6-2.7,2.6
		C65.1,214.5,64.8,214.5,64.5,214.5 M23,240.2c0.4,1.3,0.3,2.7,0.6,3.9c0.5,1.9,1.7,2.8,3,2.8c2.3,0,3.5-3,7-4.6
		c0.9,2.4,1.7,8.1,4.1,8.1c1.3,0,3.4-1.4,3.4-2.7c0-1-0.9-2.6-0.9-4.5c0-0.5,0-1,0.2-1.6c1.2-5.5,2.5-11.1,3.8-16.6
		c0.1-0.4,0.2-0.7,0.2-1c0-1.3-1.1-2.8-2.9-2.8c-1,0-1.6,0.9-2.1,2c-3,5.3-6,10.9-9.1,16.2c-0.4,0.8-1.3,1.2-2,1.8
		c-0.3-1-0.9-2-0.9-2.8c0.6-4.8,1.4-9.8,2.2-14.7c0-0.5,0.2-1.2,0.2-1.7c0-0.5-0.4-1.3-1.9-1.3c-1.2,0-1.9,0.9-2.1,2.2
		C24.8,228.6,23.9,234.5,23,240.2 M14.1,229.2c-2.3,3.7-5.5,10.1-8,10.1c-0.9,0-1.3-1.4-1.3-1.8c0-2.2,3.5-6.9,5.5-9.7
		c0.4-0.4,1.1-0.5,1.8-0.5C13.1,227.3,13.2,227.7,14.1,229.2 M14.1,222.4c-1.9,0.9-4.2,1.5-5.8,2.7c-4.4,3.3-7.6,9.1-7.6,14.7
		c0,2.4,1.5,4.4,3.8,4.4c2.7,0,5.3-2.3,5.8-2.3c1.3,0-0.1,2.3,2.1,4.9c0.7,0.9,1.3,1.5,2,1.5c1.9,0,2.3-3.2,2.6-6
		c0.5-4.5,1.2-9.1,1.9-13.7c0.1-0.5,0.2-1,0.2-1.4C19.1,224.4,17.5,222.8,14.1,222.4"/>
	<path class="st0" d="M407.7,130.7c-1.2,1.8-2.9,5.6-4.1,5.6c-0.4,0-0.9-0.7-0.9-1c0-0.1,0.1-0.1,0.1-0.2c0.6-1.8,1.7-6.3,3.4-6.3
		C406.6,128.9,407.1,130,407.7,130.7 M394.3,147c0.3,3.6,0.6,8.9,6.6,8.9c3,0,7.8-2.5,7.8-5.7c0-0.8-0.5-1.2-1.3-1.2
		c-1.6,0-3,0.9-4.5,0.9c-2.6,0-2.3-2.2-2.3-3.7c0-4,4-5.1,5.9-8.1c1.5-2.5,4.2-6.3,4.2-9.1c0-2.8-2.2-4.5-4.8-4.5
		C398.2,124.5,394.5,138.8,394.3,147 M369.7,146.4c0.4,1.3,0.3,2.7,0.6,3.9c0.5,1.9,1.7,2.8,3,2.8c2.3,0,3.5-3,7-4.6
		c0.9,2.4,1.7,8.1,4.1,8.1c1.3,0,3.4-1.4,3.4-2.7c0-1-0.9-2.6-0.9-4.5c0-0.5,0-1,0.2-1.6c1.2-5.5,2.5-11.1,3.8-16.6
		c0.1-0.4,0.2-0.7,0.2-1c0-1.3-1.1-2.8-2.9-2.8c-1,0-1.6,0.9-2.1,2c-3,5.3-6,10.9-9.1,16.2c-0.4,0.8-1.3,1.2-2,1.8
		c-0.3-1-0.9-2-0.9-2.8c0.6-4.8,1.4-9.8,2.2-14.7c0-0.5,0.2-1.2,0.2-1.7c0-0.5-0.4-1.3-1.9-1.3c-1.2,0-1.9,0.9-2.1,2.2
		C371.5,134.8,370.5,140.7,369.7,146.4 M351.7,141.4c-0.3-0.5-0.9-0.6-0.9-1.4c0-3.9,5.1-10.7,7.7-10.7c1.2,0,1.2,1.1,1.2,1.9
		c0,0.3-0.1,0.5-0.2,0.7C357.3,134.9,354.7,139.5,351.7,141.4 M349.5,173.9c0.2,0,0.3,0,0.5,0.2c0,0.1-0.1,0.4-0.1,0.5
		c0,1.1,1.4,3.4,2,3.4c2.3,0,3.8-2.8,5.2-4.4c3.5-3.7,7.5-6.4,12.8-6.8c0.6,0,1.3-0.8,2-1.2c-1.1-1-1.6-2.2-3.5-2.2
		c-0.3,0-0.5,0-0.9,0.1c-3.4,1-7.1,2.3-10.5,3c-0.2-0.7-0.5-1.5-0.5-2.2c0-0.2,0-0.4,0.1-0.5c1.5-6.8,3-10.6,4.7-17.4
		c1.4-6.1,3-12.1,4.6-18.2c0.1-0.3,0.1-0.5,0.1-0.9c0-1.2-0.7-2-2-2c-3.3,0-8.7,1.6-10.9,3.9c-3.7,3.6-5.7,9.5-5.7,14.1
		c0,1.2,0.6,3,2.7,3c1.6,0,3.2-2.7,3.7-2.7c0.9-0.5,1.5-0.9,2.3-1.2c0.1,0.6,0.3,1.4,0.3,2v0.4C354.2,154.9,351.5,164.4,349.5,173.9
		 M341.6,117c0.5,0.4,2,2,2.4,2c2,0,3.4-4.5,3.4-4.1c0-1.2-1.1-1.8-2.6-1.8C343,113.1,341.7,114.2,341.6,117 M334.4,150.7
		c0.2,0,0.2,0.2,0.2,0.2v0.5c0,1.2,1.2,2.5,1.9,3.5c1.1-0.5,2.8-1.4,3.2-2.9c1.7-6.8,3.4-13.8,5-20.6V131c0-1.7-1.3-3.2-3.1-3.2
		c-5.2,0-4.4,8-5.1,12C335.8,143.5,335.2,147,334.4,150.7 M311.9,143.4c1-3.9,2.9-13.6,4.4-13.6c1.1,0,3.8,2.3,3.8,3.8
		c0,1.6-4.1,10.9-4.8,11.3c-0.6,0.5-1.6,0.9-2.2,0.9C312.6,145.7,312.3,144.5,311.9,143.4 M309.2,143.2c0,0.4-0.2,1-0.2,1.8
		c0,1.6,1.5,5.4,3.7,5.4c1.1,0,2.1-0.9,3-1.7c0.7-0.6,1.7-0.8,2.5-1.2c0.2,0.9,0.3,1.7,0.3,2.7c-0.2,1.6-0.4,3.4-0.4,5
		c0,2.5,0.8,3.9,2.1,3.9c4.5,0,5.7-11.8,7.3-18.4c1.6-6.1,3.5-12.1,4.9-18.3c1.5-6.4,1.7-8.8,3.2-15.3c0.1-0.5,0.2-1.2,0.2-1.7
		c0-1-0.6-2-2.8-2c-1.2,0-2,0.5-2.6,2c-3.2,8.8-5.5,14.8-8,21.6c-0.2,0.6-0.8,1.2-1.2,1.7c-1.4-1.6-2.7-3.5-4.4-3.5
		c-5,0-7.7,9.9-7.7,17V143.2z M284.5,146.4c0.4,1.3,0.3,2.7,0.6,3.9c0.5,1.9,1.7,2.8,3,2.8c2.3,0,3.5-3,7-4.6
		c0.9,2.4,1.7,8.1,4.1,8.1c1.3,0,3.4-1.4,3.4-2.7c0-1-0.9-2.6-0.9-4.5c0-0.5,0-1,0.2-1.6c1.2-5.5,2.5-11.1,3.8-16.6
		c0.1-0.4,0.2-0.7,0.2-1c0-1.3-1.1-2.8-2.9-2.8c-1,0-1.6,0.9-2.1,2c-3,5.3-6,10.9-9.1,16.2c-0.4,0.8-1.3,1.2-2,1.8
		c-0.3-1-0.9-2-0.9-2.8c0.6-4.8,1.4-9.8,2.2-14.7c0-0.5,0.2-1.2,0.2-1.7c0-0.5-0.4-1.3-1.9-1.3c-1.3,0-1.9,0.9-2.1,2.2
		C286.3,134.8,285.3,140.7,284.5,146.4 M269.1,149.3c0.4,2.7,0.9,5.3,3,5.3c3.7,0,7.1-6.8,7.1-10.2c0-0.5-1.2-1.5-1.3-1.4
		c-0.5,0.2-0.9,0.2-1.2,0.2c-0.7,0-0.9-0.4-0.9-1c0-0.5,0.2-1,0.2-1.5c2-12.3,4.5-24.2,6.8-36.5c0-2.2-0.5-4.1-2.5-4.4
		c-2.9,0-3.4,6.2-4.1,9.2C273.6,122.3,270.5,135.8,269.1,149.3"/>
	<path class="st1" d="M240.7,149.3c0.2,0,0.3,0.1,0.5,0.1c0,0.6-0.1,1.3-0.1,2c0,1,0.7,4.5,2.7,4.5c0.7,0,1.9-0.6,2.6-1.2
		c3.2-2.3,3.2-6.3,4.5-9.7c0-0.3-1.1-1.3-1.4-1.3c-0.2,0.1-0.5,0.1-0.6,0.1c-0.9,0-1.1-0.4-1.1-1c0-0.3,0.1-0.6,0.2-1
		c1.2-5.4,2.1-19,3.3-24.3c0.8-3.5,7-6.5,10.7-9.1c0.5-0.3,0.6-1,1-1.5c-0.5-0.1-1-0.2-1.5-0.2c-2.4,0-5.3,2.3-7,2.3
		c-1,0-1.4-0.5-1.4-1.9c0-1.6,0.4-4.3,0.4-5.9c0-1.2-0.2-2.6-1.7-2.6c-3.7,0-4.8,3.8-4.8,6.9c0,0.8,0.1,1.6,0.1,2.3
		c0,3.8-1.4,5.5-5.5,6.2c-1.6,0.4-4.1,0.6-4.1,2.2c0.2,0.9,1.1,1.6,1.9,1.6c1.2,0,2.4-0.5,3.4-0.5c1.4,0,2.1,0.7,2.1,2.1
		c0,1.1-0.4,2-0.5,3C243,128.6,241.9,143.1,240.7,149.3 M231.2,130.7c-1.2,1.8-2.9,5.6-4.1,5.6c-0.4,0-0.9-0.7-0.9-1
		c0-0.1,0.1-0.1,0.1-0.2c0.6-1.8,1.7-6.3,3.4-6.3C230.2,128.9,230.6,130,231.2,130.7 M217.8,147c0.3,3.6,0.6,8.9,6.6,8.9
		c3,0,7.8-2.5,7.8-5.7c0-0.8-0.5-1.2-1.3-1.2c-1.6,0-3,0.9-4.5,0.9c-2.6,0-2.3-2.2-2.3-3.7c0-4,4-5.1,5.9-8.1
		c1.5-2.5,4.2-6.3,4.2-9.1c0-2.8-2.2-4.5-4.8-4.5C221.7,124.5,218,138.8,217.8,147 M199.2,130.7c-1.2,1.8-2.9,5.6-4.1,5.6
		c-0.4,0-0.9-0.7-0.9-1c0-0.1,0.1-0.1,0.1-0.2c0.6-1.8,1.7-6.3,3.4-6.3C198.2,128.9,198.7,130,199.2,130.7 M185.9,147
		c0.3,3.6,0.6,8.9,6.6,8.9c3,0,7.8-2.5,7.8-5.7c0-0.8-0.5-1.2-1.3-1.2c-1.6,0-3,0.9-4.5,0.9c-2.6,0-2.3-2.2-2.3-3.7
		c0-4,4-5.1,5.9-8.1c1.5-2.5,4.2-6.3,4.2-9.1c0-2.8-2.2-4.5-4.8-4.5C189.8,124.5,186,138.8,185.9,147 M167.3,130.8v12.3
		c0,3.1,0.1,11.2,3.3,11.2c1.6,0,3.8-3.3,4.6-5.1c0.8-1.6,1-3.6,1.8-5.3c2.3-5.2,4.8-10.3,7.2-15.4c0.1-0.2,0.2-0.5,0.2-0.7
		s-0.1-0.5-0.1-0.8c0-0.2,0-0.3,0.1-0.5c-1.3,0.5-2.5,1-2.8,2c-2.4,3.5-4.5,8-7.3,10.5c-0.9-1.2-1.2-1.4-1.2-3.1
		c0-1.6,0.1-3.3,0.2-4.9c0-2.1-0.3-3.4-3.1-3.4C167.9,127.6,167.4,129,167.3,130.8 M159.8,117c0.5,0.4,2,2,2.4,2
		c2,0,3.4-4.5,3.4-4.1c0-1.2-1.1-1.8-2.6-1.8C161.2,113.1,159.9,114.2,159.8,117 M152.6,150.7c0.2,0,0.2,0.2,0.2,0.2v0.5
		c0,1.2,1.2,2.5,1.9,3.5c1.1-0.5,2.8-1.4,3.2-2.9c1.7-6.8,3.4-13.8,5-20.6V131c0-1.7-1.3-3.2-3.1-3.2c-5.2,0-4.4,8-5.1,12
		C154,143.5,153.4,147,152.6,150.7 M138.3,149.3c0.2,0,0.3,0.1,0.5,0.1c0,0.6-0.1,1.3-0.1,2c0,1,0.7,4.5,2.7,4.5
		c0.7,0,1.9-0.6,2.6-1.2c3.2-2.3,3.2-6.3,4.5-9.7c0-0.3-1.1-1.3-1.4-1.3c-0.2,0.1-0.5,0.1-0.6,0.1c-0.9,0-1.1-0.4-1.1-1
		c0-0.3,0.1-0.6,0.2-1c1.2-5.4,2.1-19,3.3-24.3c0.8-3.5,7-6.5,10.7-9.1c0.5-0.3,0.6-1,1-1.5c-0.5-0.1-1-0.2-1.5-0.2
		c-2.4,0-5.3,2.3-7,2.3c-1,0-1.4-0.5-1.4-1.9c0-1.6,0.4-4.3,0.4-5.9c0-1.2-0.2-2.6-1.7-2.6c-3.7,0-4.8,3.8-4.8,6.9
		c0,0.8,0.1,1.6,0.1,2.3c0,3.8-1.4,5.5-5.5,6.2c-1.6,0.4-4.1,0.6-4.1,2.2c0.2,0.9,1.1,1.6,1.9,1.6c1.2,0,2.4-0.5,3.4-0.5
		c1.4,0,2.1,0.7,2.1,2.1c0,1.1-0.4,2-0.5,3C140.5,128.6,139.5,143.1,138.3,149.3 M130,132.7V132c0-2.1-0.7-3.1-2.4-3.1
		c-1.2,0-2.9,0.4-4.2,1.6c-4.6,3.4-6.3,7.8-6.3,12.7c0,2.6,0.5,8.8,5.6,8.8c2.9,0,8.2-2.7,8.2-5.2c0-0.9-0.5-0.9-1-0.9
		c-1.4,0-3.4,1.9-5,1.9c-1.4,0-2.7-0.9-2.7-2.4c0-3.8,0.7-7.5,3-10.7c0.5-0.5,0.9-0.9,1.3-0.9c0.7,0,1.2,1,2.3,2.6
		C129.5,134.9,130,134.1,130,132.7 M108.2,135.5c-2.3,3.7-5.5,10.1-8,10.1c-0.9,0-1.3-1.4-1.3-1.8c0-2.2,3.5-6.9,5.5-9.7
		c0.4-0.4,1.1-0.5,1.8-0.5C107.2,133.5,107.3,134,108.2,135.5 M108.2,128.7c-1.9,0.9-4.2,1.5-5.8,2.7c-4.4,3.3-7.6,9.1-7.6,14.7
		c0,2.4,1.5,4.4,3.8,4.4c2.7,0,5.3-2.3,5.8-2.3c1.3,0-0.1,2.3,2.1,4.9c0.7,0.9,1.3,1.5,2,1.5c1.9,0,2.3-3.2,2.6-6
		c0.5-4.5,1.2-9.1,1.9-13.7c0.1-0.5,0.2-1,0.2-1.4C113.2,130.6,111.6,129.1,108.2,128.7 M98,123.8c-0.9-1.3-0.9-3-2.5-3
		c-3.4,0-5.9,5-8.1,7.8c-0.8,0.9-1.7,1.8-2.7,2.7c-0.5-2.5-1.4-6-3.5-6c-5,0-4.8,11.2-5.3,14.9c-0.5,4.2-1.2,8.4-1.6,12.7
		c0,1,1,2.2,1.6,3.2c1.7-1,3-1.2,4.1-4.1c1.7-4.1,2.9-8.4,4.8-12.4c1.8-3.6,6.6-12,7.9-12c0.9,0,1.6,2.3,2.7,2.3
		C96.9,130.1,97.3,126.7,98,123.8 M69,130.7c-1.2,1.8-2.9,5.6-4.1,5.6c-0.4,0-0.9-0.7-0.9-1c0-0.1,0.1-0.1,0.1-0.2
		c0.6-1.8,1.7-6.3,3.4-6.3C68,128.9,68.4,130,69,130.7 M55.6,147c0.3,3.6,0.6,8.9,6.6,8.9c3,0,7.8-2.5,7.8-5.7
		c0-0.8-0.5-1.2-1.3-1.2c-1.6,0-3,0.9-4.5,0.9c-2.6,0-2.3-2.2-2.3-3.7c0-4,4-5.1,5.9-8.1c1.5-2.5,4.2-6.3,4.2-9.1
		c0-2.8-2.2-4.5-4.8-4.5C59.5,124.5,55.8,138.8,55.6,147 M39.8,149.3c0.2,0,0.3,0.1,0.5,0.1c0,0.6-0.1,1.3-0.1,2
		c0,1,0.7,4.5,2.7,4.5c0.7,0,1.9-0.6,2.6-1.2c3.2-2.3,3.2-6.3,4.5-9.7c0-0.3-1.1-1.3-1.4-1.3c-0.2,0.1-0.5,0.1-0.6,0.1
		c-0.9,0-1.1-0.4-1.1-1c0-0.3,0.1-0.6,0.2-1c1.2-5.4,2.1-19,3.3-24.3c0.8-3.5,7-6.5,10.7-9.1c0.5-0.3,0.6-1,1-1.5
		c-0.5-0.1-1-0.2-1.5-0.2c-2.4,0-5.3,2.3-7,2.3c-1,0-1.4-0.5-1.4-1.9c0-1.6,0.4-4.3,0.4-5.9c0-1.2-0.2-2.6-1.7-2.6
		c-3.7,0-4.8,3.8-4.8,6.9c0,0.8,0.1,1.6,0.1,2.3c0,3.8-1.4,5.5-5.5,6.2c-1.6,0.4-4.1,0.6-4.1,2.2c0.2,0.9,1.1,1.6,1.9,1.6
		c1.2,0,2.4-0.5,3.4-0.5c1.4,0,2.1,0.7,2.1,2.1c0,1.1-0.4,2-0.5,3C42,128.6,40.9,143.1,39.8,149.3 M29.3,134.1
		c0.2,0.2,0.3,0.3,0.5,0.3c-1.1,7-1.2,14.6-1.6,21.6c0,0.9,0.5,1.6,0.8,2.3c0.5-0.6,1-1.3,1.1-2c1-7.5,2-14.9,2.9-22.4
		c0.1-0.6,0.2-1.2,0.2-1.9c0-1.2-0.4-2.7-2-2.7c-1.7,0-4,1.7-5.1,3.1l-3,5.2c-0.3,0.5-1.2,1-1.7,1.4c-0.1-0.6-0.4-1.4-0.4-2
		c0-1.9,0.4-3.9,0.4-5.8c0-1.5-0.5-2.9-2.5-2.9c-1.6,0-2.7,0.9-2.9,2.7l-0.5,3.9c-0.3,4.2-0.9,8.7-0.9,12.9c0,1.5,0.5,3,2.3,3
		c3.8,0,7.1-8.5,9.6-13C27.4,136.6,28.3,135.4,29.3,134.1 M7.3,117c0.5,0.4,2,2,2.4,2c2,0,3.4-4.5,3.4-4.1c0-1.2-1.1-1.8-2.6-1.8
		C8.6,113.1,7.3,114.2,7.3,117 M0,150.7c0.2,0,0.2,0.2,0.2,0.2v0.5c0,1.2,1.2,2.5,1.9,3.5c1.1-0.5,2.8-1.4,3.2-2.9
		c1.7-6.8,3.4-13.8,5-20.6V131c0-1.7-1.3-3.2-3.1-3.2c-5.2,0-4.4,8-5.1,12C1.4,143.5,0.8,147,0,150.7"/>
	<path class="st1" d="M407.3,68.4c0.8,0.8,1.3,1.8,1.8,2c2.7,0,4.8-6.3,6-9.8c0.1-0.2,0.1-0.4,0.1-0.5c0-0.9-0.5-1.9-0.5-2.7
		c-1.1,0.3-2.9,0.5-3.4,1.2C409.9,61.5,408.8,64.9,407.3,68.4"/>
	<path class="st0" d="M402,37c-1.2,1.8-2.9,5.6-4.1,5.6c-0.4,0-0.9-0.7-0.9-1c0-0.1,0.1-0.1,0.1-0.2c0.6-1.8,1.7-6.3,3.4-6.3
		C401,35.2,401.5,36.3,402,37 M388.7,53.2c0.3,3.6,0.6,8.9,6.6,8.9c3,0,7.8-2.5,7.8-5.7c0-0.8-0.5-1.2-1.3-1.2c-1.6,0-3,0.9-4.5,0.9
		c-2.6,0-2.3-2.2-2.3-3.7c0-4,4-5.1,5.9-8.1c1.5-2.5,4.2-6.3,4.2-9.1c0-2.8-2.2-4.5-4.8-4.5C392.6,30.8,388.8,45.1,388.7,53.2
		 M391,30.1c-0.9-1.3-0.9-3-2.5-3c-3.4,0-5.9,5-8.1,7.8c-0.8,0.9-1.7,1.8-2.7,2.7c-0.5-2.5-1.4-6-3.5-6c-5,0-4.8,11.2-5.3,14.9
		c-0.5,4.2-1.2,8.4-1.6,12.7c0,1,1,2.2,1.6,3.2c1.7-1,3-1.3,4.1-4.1c1.7-4.1,2.9-8.4,4.8-12.4c1.8-3.6,6.6-12,7.9-12
		c0.9,0,1.6,2.3,2.7,2.3C389.9,36.3,390.3,33,391,30.1 M352.3,55.5c0.2,0,0.3,0.1,0.5,0.1c0,0.6-0.1,1.3-0.1,2c0,1,0.7,4.5,2.7,4.5
		c0.7,0,1.9-0.6,2.6-1.3c3.2-2.3,3.2-6.3,4.5-9.7c0-0.3-1.1-1.3-1.4-1.3c-0.2,0.1-0.5,0.1-0.6,0.1c-0.9,0-1.1-0.4-1.1-1
		c0-0.3,0.1-0.6,0.2-1c1.2-5.4,2.1-19,3.3-24.3c0.8-3.5,7-6.5,10.7-9.1c0.5-0.3,0.6-1,1-1.5c-0.5-0.1-1-0.2-1.5-0.2
		c-2.4,0-5.3,2.3-7,2.3c-1,0-1.4-0.5-1.4-1.9c0-1.6,0.4-4.3,0.4-5.9c0-1.2-0.2-2.6-1.7-2.6c-3.7,0-4.8,3.8-4.8,6.9
		c0,0.8,0.1,1.6,0.1,2.3c0,3.8-1.4,5.5-5.5,6.2c-1.6,0.4-4.1,0.6-4.1,2.2c0.2,0.9,1.1,1.6,1.9,1.6c1.2,0,2.4-0.5,3.4-0.5
		c1.4,0,2.1,0.7,2.1,2.1c0,1.1-0.4,2-0.5,3C354.5,34.8,353.4,49.4,352.3,55.5 M335,44.1c0.4,0,0.9-0.2,1.2-0.2c2.5,0,4.4,1,4.4,2.9
		c0,3-3.9,7.4-6.3,10.2c-0.9,1.1-4.3,4-5.4,4c-0.8,0-1,0-1-0.9c0-1.1,2.1-3.6,2.7-4.7c0.3-0.5,0.3-1.2,0.3-1.6h-0.9
		c-0.2,0-0.5,0-0.7,0.2c-3.4,2.1-8.6,6.7-8.6,10.5c0,1.8,1.4,3.3,3.7,3.3c3.8,0,6.9-2.1,9.8-4.5c4.8-3.9,11.4-10,11.4-16.6
		c0-3.7-2.7-6.1-7.2-6.1h-0.8c-1.5,0-2.8-0.4-4.3-0.7c0.4-1.7,1-5.3,2.2-5.3c0.8,0,1.8,2,2.6,2c1.4,0,2.3-3.7,2.3-5.9
		c0-2.5-0.9-3-2.1-3c-1,0-2,0.3-2.3,0.9c-2.7,3.7-5.4,7.7-7.7,11.6c-0.3,0.5-0.4,0.9-0.4,1.3C327.9,44,332.5,44,335,44.1 M321.7,37
		c-1.2,1.8-2.9,5.6-4.1,5.6c-0.4,0-0.9-0.7-0.9-1c0-0.1,0.1-0.1,0.1-0.2c0.6-1.8,1.7-6.3,3.4-6.3C320.7,35.2,321.2,36.3,321.7,37
		 M308.4,53.2c0.3,3.6,0.6,8.9,6.6,8.9c3,0,7.8-2.5,7.8-5.7c0-0.8-0.5-1.2-1.3-1.2c-1.6,0-3,0.9-4.5,0.9c-2.6,0-2.3-2.2-2.3-3.7
		c0-4,4-5.1,5.9-8.1c1.5-2.5,4.2-6.3,4.2-9.1c0-2.8-2.2-4.5-4.8-4.5C312.3,30.8,308.5,45.1,308.4,53.2 M284.3,49.6
		c1-3.9,2.9-13.6,4.4-13.6c1.1,0,3.8,2.3,3.8,3.8c0,1.6-4.1,10.9-4.8,11.3c-0.6,0.5-1.6,0.9-2.2,0.9C285,52,284.8,50.7,284.3,49.6
		 M281.6,49.5c0,0.4-0.2,1-0.2,1.8c0,1.6,1.5,5.4,3.7,5.4c1.1,0,2.1-0.9,3-1.7c0.7-0.6,1.7-0.8,2.5-1.2c0.2,0.9,0.3,1.7,0.3,2.7
		c-0.2,1.6-0.4,3.4-0.4,5c0,2.5,0.8,3.9,2.1,3.9c4.5,0,5.7-11.8,7.3-18.4c1.6-6.1,3.5-12.1,4.9-18.3c1.5-6.4,1.7-8.8,3.2-15.3
		c0.1-0.5,0.2-1.2,0.2-1.7c0-1-0.6-2-2.8-2c-1.2,0-2,0.5-2.6,2c-3.2,8.8-5.5,14.8-8,21.6c-0.2,0.6-0.8,1.2-1.2,1.7
		c-1.4-1.6-2.7-3.5-4.4-3.5c-5,0-7.7,9.9-7.7,17V49.5z M272.3,22c6.6-2.7,14.5-5,19-9.3c0.2-0.2,0.4-0.9,0.4-1.4
		c0-1.1-0.9-1.5-1.9-1.5c-0.2,0-0.5,0-0.6,0.1c-6,2.3-11.8,4.7-17.8,7.1c-1,0.4-2.2,0.9-2.2,2C269.1,20.5,270.8,20.9,272.3,22
		 M275.5,37c-1.2,1.8-2.9,5.6-4.1,5.6c-0.4,0-0.9-0.7-0.9-1c0-0.1,0.1-0.1,0.1-0.2c0.6-1.8,1.7-6.3,3.4-6.3
		C274.5,35.2,274.9,36.3,275.5,37 M262.1,53.2c0.3,3.6,0.6,8.9,6.6,8.9c3,0,7.8-2.5,7.8-5.7c0-0.8-0.5-1.2-1.3-1.2
		c-1.6,0-3,0.9-4.5,0.9c-2.6,0-2.3-2.2-2.3-3.7c0-4,4-5.1,5.9-8.1c1.5-2.5,4.2-6.3,4.2-9.1c0-2.8-2.2-4.5-4.8-4.5
		C266,30.8,262.3,45.1,262.1,53.2 M252.2,49.9c-1.6-1.9-3.2-3.5-3.2-4.9c0-0.1,0.1-0.2,0.1-0.3c1.3-2.8,3.5-9,5.5-9
		c0.5,0,1.5,0.8,1.5,1.6C255.6,41.8,254.1,45.9,252.2,49.9 M236.6,79.1c0.2,0,0.2,0.2,0.3,0.2c0,0.5-0.1,1.2-0.1,1.8
		c0,1.2,0.9,2.3,1.5,3.5c0.8-0.6,2-1.1,2.4-1.9c2.7-7.7,3.2-15.6,4.8-23.6c0.1-0.9,1.8-1.6,2.3-1.6c7.1,0,10-13.1,11.1-19.5
		c0.1-0.3,0.1-0.7,0.1-1c0-2-1.4-4.8-4.1-4.8c-2.3,0-4.5,3.8-5.3,3.8c-0.7,0-2.3-3.4-5-3.5c-3,0-2.2,5.9-2.6,9c-0.7,6-1.8,12-2.7,18
		L236.6,79.1z"/>
	<path class="st1" d="M221.2,37c-1.2,1.8-2.9,5.6-4.1,5.6c-0.4,0-0.9-0.7-0.9-1c0-0.1,0.1-0.1,0.1-0.2c0.6-1.8,1.7-6.3,3.4-6.3
		C220.2,35.2,220.6,36.3,221.2,37 M207.8,53.2c0.3,3.6,0.6,8.9,6.6,8.9c3,0,7.8-2.5,7.8-5.7c0-0.8-0.5-1.2-1.3-1.2
		c-1.6,0-3,0.9-4.5,0.9c-2.6,0-2.3-2.2-2.3-3.7c0-4,4-5.1,5.9-8.1c1.5-2.5,4.2-6.3,4.2-9.1c0-2.8-2.2-4.5-4.8-4.5
		C211.7,30.8,208,45.1,207.8,53.2 M183.8,49.6c1-3.9,2.9-13.6,4.4-13.6c1.1,0,3.8,2.3,3.8,3.8c0,1.6-4.1,10.9-4.8,11.3
		c-0.6,0.5-1.6,0.9-2.2,0.9C184.5,52,184.2,50.7,183.8,49.6 M181.1,49.5c0,0.4-0.2,1-0.2,1.8c0,1.6,1.5,5.4,3.7,5.4
		c1.1,0,2.1-0.9,3-1.7c0.7-0.6,1.7-0.8,2.5-1.2c0.2,0.9,0.3,1.7,0.3,2.7c-0.2,1.6-0.4,3.4-0.4,5c0,2.5,0.8,3.9,2.1,3.9
		c4.5,0,5.7-11.8,7.3-18.4c1.6-6.1,3.5-12.1,4.9-18.3c1.5-6.4,1.7-8.8,3.2-15.3c0.1-0.5,0.2-1.2,0.2-1.7c0-1-0.6-2-2.8-2
		c-1.2,0-2,0.5-2.6,2c-3.2,8.8-5.5,14.8-8,21.6c-0.2,0.6-0.8,1.2-1.2,1.7c-1.4-1.6-2.7-3.5-4.4-3.5c-5,0-7.7,9.9-7.7,17V49.5z
		 M172,41.7c-2.3,3.7-5.5,10.1-8,10.1c-0.9,0-1.3-1.4-1.3-1.8c0-2.2,3.5-6.9,5.5-9.7c0.4-0.4,1.1-0.5,1.8-0.5
		C171,39.8,171.1,40.2,172,41.7 M172,34.9c-1.9,0.9-4.2,1.5-5.8,2.7c-4.4,3.3-7.6,9.1-7.6,14.7c0,2.4,1.5,4.4,3.8,4.4
		c2.7,0,5.3-2.3,5.8-2.3c1.3,0-0.1,2.3,2.1,4.9c0.7,0.9,1.3,1.5,2,1.5c1.9,0,2.3-3.2,2.6-6c0.5-4.5,1.2-9.1,1.9-13.7
		c0.1-0.5,0.2-1,0.2-1.4C177,36.9,175.4,35.3,172,34.9 M144.1,55.5c0.4,2.7,0.9,5.3,3,5.3c3.7,0,7.1-6.8,7.1-10.2
		c0-0.5-1.2-1.5-1.3-1.4c-0.5,0.2-0.9,0.2-1.2,0.2c-0.7,0-0.9-0.4-0.9-1c0-0.5,0.2-1,0.2-1.5c2-12.3,4.5-24.2,6.8-36.5
		c0-2.2-0.5-4.1-2.5-4.4c-2.9,0-3.4,6.2-4.1,9.2C148.6,28.6,145.5,42,144.1,55.5 M135.2,41.7c-2.3,3.7-5.5,10.1-8,10.1
		c-0.9,0-1.3-1.4-1.3-1.8c0-2.2,3.5-6.9,5.5-9.7c0.4-0.4,1.1-0.5,1.8-0.5C134.1,39.8,134.2,40.2,135.2,41.7 M135.2,34.9
		c-1.9,0.9-4.2,1.5-5.8,2.7c-4.4,3.3-7.6,9.1-7.6,14.7c0,2.4,1.5,4.4,3.8,4.4c2.7,0,5.3-2.3,5.8-2.3c1.3,0-0.1,2.3,2.1,4.9
		c0.7,0.9,1.3,1.5,2,1.5c1.9,0,2.3-3.2,2.6-6c0.5-4.5,1.2-9.1,1.9-13.7c0.1-0.5,0.2-1,0.2-1.4C140.2,36.9,138.5,35.3,135.2,34.9
		 M118.6,38.8c0-0.8,0.1-1.6,0.1-2.3c0-2.7-1.2-4.5-3.4-4.5c-1.8,0-2.7,1.2-4.1,2.1c-0.8,0.5-1.7,1-2.5,1.6
		c-0.2-0.9-0.5-1.8-0.5-2.6c0-0.2,0-0.4,0.1-0.5c1.3-7.1,4-10.7,4.6-20.7c0-1.8-1.3-3.3-2.6-3.3c-4,0-6.2,4.5-6.2,8.7
		c0,1.6,0.5,2.7,0.5,3.9c0,0.5-0.1,0.9-0.2,1.4c-0.7,4.1-1.6,4.1-2.3,8.4c-0.9,5.6-2,11.3-2.7,17c-0.6,3.3-1.6,6.9-1.6,10.1
		c0,1.6,1.1,2.7,2.1,2.7c1.4,0,3.5-3.1,3.8-4.8c1.5-7.1,4.6-13.5,8.8-19.3c0.6-0.7,1.6-1,2.4-1.4c0.4,0.9,0.9,1.7,0.9,2.5
		c0,5.5-2.3,10.7-4.9,15.3c-0.7,1.3-4.7,1.3-4.6,2.9c0.1,1.5,0.8,2.9,1,4.4c1.6-0.6,3.8-1.2,4.7-2.6
		C116.2,52.2,118.5,45.9,118.6,38.8 M79.3,37c-1.2,1.8-2.9,5.6-4.1,5.6c-0.4,0-0.9-0.7-0.9-1c0-0.1,0.1-0.1,0.1-0.2
		c0.6-1.8,1.7-6.3,3.4-6.3C78.3,35.2,78.8,36.3,79.3,37 M65.9,53.2c0.3,3.6,0.6,8.9,6.6,8.9c3,0,7.8-2.5,7.8-5.7
		c0-0.8-0.5-1.2-1.3-1.2c-1.6,0-3,0.9-4.5,0.9c-2.6,0-2.3-2.2-2.3-3.7c0-4,4-5.1,5.9-8.1c1.5-2.5,4.2-6.3,4.2-9.1
		c0-2.8-2.2-4.5-4.8-4.5C69.8,30.8,66.1,45.1,65.9,53.2 M58.9,40.3c0.2,0.2,0.3,0.3,0.5,0.3c-1.1,7-1.2,14.6-1.6,21.6
		c0,0.9,0.5,1.6,0.8,2.3c0.5-0.6,1-1.3,1.1-2c1-7.5,2-14.9,2.9-22.4c0.1-0.6,0.2-1.2,0.2-1.9c0-1.3-0.4-2.7-2-2.7
		c-1.7,0-4,1.7-5.1,3.1l-3,5.2c-0.3,0.5-1.2,1-1.7,1.4c-0.1-0.6-0.4-1.4-0.4-2c0-1.9,0.4-3.9,0.4-5.8c0-1.5-0.5-2.9-2.5-2.9
		c-1.6,0-2.7,0.9-2.9,2.7l-0.5,3.9c-0.3,4.2-0.9,8.7-0.9,12.9c0,1.5,0.5,3,2.3,3c3.8,0,7.1-8.5,9.6-13C57,42.8,57.9,41.6,58.9,40.3
		 M2.3,46.3c0.6,4.5,0.5,15.1,8.6,15.1c2.1,0,4.1-1,5.4-3c3.5-5.5,6.6-11.2,10-16.8c0.5-0.8,1-1.3,1.6-2c0.2,0.8,0.9,1.6,0.9,2.3
		c0,4.6-1.3,9.1-1.3,13.4c0,3.1,2,7.5,4.8,7.5c3.4,0,5.9-5.7,5.9-7.4c0-2.4-2.6-4.5-2.6-7.2c0-3.4,0.7-6.6,1.2-10.2
		c1-7.7,2.6-15.3,3.4-23c0.1-0.5,0.1-0.9,0.1-1.3c0-2.3-0.9-3.3-2.7-3.3c-1.5,0-3.8,0.5-4.8,3c-3.6,8.7-6.9,17.7-10.8,26.5
		c-2.5,5.6-5.7,10.8-9.1,15.8c-0.6,0.9-1.4,1.4-2.3,1.3c-3.8,0-3.9-9.1-3.9-14.2c0-12.9,2.7-25.7,4.6-38.4c0-0.4,0.1-0.8,0.1-1.2
		c0-1-0.2-2-0.2-3.1L8,3.5C7.8,3.8,8,4.1,7.8,4.3C3.7,17.6,3.4,31.5,2.3,46.3"/>
</g>
</svg>
