<?xml version="1.0" encoding="utf-8"?>
<!-- Generator: Adobe Illustrator 22.1.0, SVG Export Plug-In . SVG Version: 6.00 Build 0)  -->
<svg version="1.1" id="Calque_1" xmlns="http://www.w3.org/2000/svg" xmlns:xlink="http://www.w3.org/1999/xlink" x="0px" y="0px"
	 viewBox="0 0 600 258" style="enable-background:new 0 0 600 258;" xml:space="preserve">
<style type="text/css">
	.st0{fill:#FFFFFF;}
	.st1{clip-path:url(#SVGID_2_);fill:#6789A9;}
	.st2{fill:#E1001A;}
	.st3{clip-path:url(#SVGID_4_);fill:#FFFFFF;}
	.st4{clip-path:url(#SVGID_4_);fill:#678BAA;}
	.st5{clip-path:url(#SVGID_4_);fill:#E1001A;}
	.st6{clip-path:url(#SVGID_4_);fill:#003A62;}
</style>
<g>
	<polygon class="st0" points="86.6,9.8 160.5,137.8 234.4,9.8 	"/>
	<g>
		<defs>
			<rect id="SVGID_1_" x="20" y="9.8" width="420" height="238.4"/>
		</defs>
		<clipPath id="SVGID_2_">
			<use xlink:href="#SVGID_1_"  style="overflow:visible;"/>
		</clipPath>
		<path class="st1" d="M440,204l-193.2-21.2l21.9,15.6c-4.6,0-9.7,0-15.3,0.1c-5.6,0-11.6,0.1-18,0.1c-6.4,0-13.2,0.1-20.4,0.1
			c-7.1,0-14.6,0.1-22.3,0.1c-7.3,0-14.9,0.1-22.6,0.1c-7.7,0-15.6,0.1-23.7,0.1c-8,0-16.2,0.1-24.5,0.1c-8.2,0-16.6,0.1-25,0.1
			c-1,0-2.1,0-3.2,0c-1.1,0-2.1,0-3.2,0c-1.1,0-2.1,0-3.2,0c-1.1,0-2.1,0-3.2,0c-0.3,0-0.5,0-0.8,0c-0.3,0-0.5,0-0.8,0
			c-0.3,0-0.5,0-0.8,0c-0.3,0-0.5,0-0.8,0l-1.6,0l-1.3,0l-1.3,0l-1.3,0l-1.3,0l-1.3,0c-1.7,0-3.4-0.1-5-0.1
			c-1.6-0.1-3.2-0.1-4.7-0.2c-1.5-0.1-3-0.2-4.4-0.3c-1.4-0.1-2.7-0.2-3.9-0.4c-1.2-0.1-2.4-0.3-3.4-0.5c-1-0.2-2-0.3-2.9-0.5
			c-0.9-0.2-1.6-0.4-2.3-0.6c-0.6-0.2-1.2-0.4-1.6-0.7c-0.4-0.2-0.7-0.5-0.9-0.7c-0.2-0.3-0.2-0.5-0.2-0.8c0.1-0.3,0.2-0.6,0.5-0.8
			c0.3-0.3,0.7-0.6,1.2-0.9c0.1,0,0.1-0.1,0.2-0.1c0.1,0,0.1-0.1,0.2-0.1c0.1,0,0.1-0.1,0.2-0.1c0.1,0,0.1-0.1,0.2-0.1
			c0.1,0,0.2-0.1,0.2-0.1c0.1,0,0.2-0.1,0.2-0.1c0.1,0,0.2-0.1,0.2-0.1c0.1,0,0.2-0.1,0.3-0.1l1.1-0.5c0.1,0,0.2-0.1,0.3-0.1
			c0.1,0,0.2-0.1,0.3-0.1c0.1,0,0.2-0.1,0.3-0.1c0.1,0,0.2-0.1,0.3-0.1c0,0,0,0,0.1,0c0,0,0.1,0,0.1,0s0.1,0,0.1,0c0,0,0.1,0,0.1,0
			l0.4-0.1l0.8-0.3l0.2-0.1l0.1,0c0,0,0,0,0,0s0,0,0,0c0,0,0,0,0,0c0,0,0,0,0,0l0.3-0.1l0.7-0.2c0,0,0,0,0.1,0c0,0,0,0,0.1,0
			c0,0,0,0,0.1,0c0,0,0,0,0.1,0c0.1,0,0.2-0.1,0.3-0.1c0.1,0,0.2-0.1,0.3-0.1c0.1,0,0.2-0.1,0.3-0.1c0.1,0,0.2-0.1,0.3-0.1
			c0.1,0,0.1,0,0.2-0.1c0.1,0,0.1,0,0.2-0.1c0.1,0,0.1,0,0.2-0.1c0.1,0,0.1,0,0.2-0.1l0.8-0.2c1.1-0.3,2.3-0.5,3.5-0.8
			c1.2-0.3,2.5-0.5,3.8-0.7c1.3-0.2,2.7-0.5,4.1-0.7c1.4-0.2,2.9-0.4,4.4-0.6c1.5-0.2,3.1-0.4,4.7-0.5c1.6-0.2,3.2-0.3,4.8-0.5
			c1.6-0.1,3.3-0.3,4.9-0.4c1.7-0.1,3.3-0.2,5-0.3c1.7-0.1,3.3-0.2,5-0.3c1.7-0.1,3.3-0.2,4.9-0.2c1.6-0.1,3.3-0.1,4.9-0.2
			c1.6-0.1,3.2-0.1,4.8-0.1c0.8,0,1.6,0,2.4-0.1c0.8,0,1.6,0,2.3,0c0.8,0,1.6,0,2.3,0c0.8,0,1.6,0,2.4,0c0.8,0,1.6,0,2.4,0
			c0.8,0,1.6,0,2.4,0c0.8,0,1.6,0,2.4,0c0.8,0,1.6,0,2.4,0c1.6,0,3.2,0,4.8-0.1c1.6,0,3.2-0.1,4.8-0.1c1.6,0,3.2-0.1,4.8-0.1
			c1.6,0,3.2-0.1,4.7-0.1c1.6,0,3.1-0.1,4.7-0.1c1.6,0,3.1-0.1,4.7-0.1c1.5,0,3.1-0.1,4.6-0.1c1.5,0,3.1-0.1,4.6-0.1
			c1.5,0,3-0.1,4.5-0.2c1.5-0.1,3-0.1,4.4-0.2c1.5-0.1,2.9-0.1,4.4-0.2c1.4-0.1,2.9-0.1,4.3-0.2c1.4-0.1,2.8-0.1,4.2-0.2
			c1.4-0.1,2.7-0.2,4.1-0.2c1.3-0.1,2.7-0.2,4-0.3c1.3-0.1,2.6-0.2,3.8-0.3c0.6-0.1,1.2-0.1,1.8-0.2c0.6-0.1,1.2-0.1,1.8-0.2
			c0.6-0.1,1.2-0.1,1.7-0.2c0.6-0.1,1.1-0.1,1.7-0.2c0.3,0,0.5-0.1,0.8-0.1c0.3,0,0.5-0.1,0.8-0.1c0.3,0,0.5-0.1,0.7-0.1
			c0.2,0,0.5-0.1,0.7-0.1c0.2,0,0.5-0.1,0.7-0.1c0.2,0,0.4-0.1,0.6-0.1c0.2,0,0.4-0.1,0.6-0.1c0.2,0,0.4-0.1,0.5-0.1
			c0.2,0,0.3-0.1,0.5-0.1c0.2,0,0.3-0.1,0.4-0.1c0.1,0,0.3-0.1,0.4-0.1c0.1,0,0.2-0.1,0.3-0.1c0,0,0,0,0.1,0c0,0,0,0,0.1,0
			c0,0,0,0,0.1,0c0,0,0,0,0.1,0c0,0,0,0,0.1,0c0,0,0,0,0.1,0c0,0,0,0,0.1,0c0,0,0,0,0.1,0c0,0,0,0,0,0c0,0,0,0,0,0c0,0,0,0,0,0
			c0,0,0,0,0,0c0,0,0,0,0,0c0,0,0,0,0,0c0,0,0,0,0,0c0,0,0,0,0,0l0.1-0.1l0,0l0,0l0,0c0,0,0-0.1,0.1-0.1c0,0,0-0.1,0.1-0.1
			c0,0,0-0.1,0.1-0.1c0,0,0-0.1,0.1-0.1c0,0,0-0.1,0-0.1c0,0,0-0.1,0-0.1c0,0,0-0.1,0-0.1c0,0,0-0.1,0-0.1c0-0.1,0-0.3,0-0.4
			c0-0.1,0-0.2,0-0.4c0-0.1-0.1-0.2-0.1-0.3c-0.1-0.1-0.1-0.2-0.2-0.3c-0.1-0.1-0.2-0.2-0.3-0.3c-0.1-0.1-0.2-0.2-0.4-0.3
			c-0.1-0.1-0.3-0.2-0.4-0.2c-0.2-0.1-0.3-0.1-0.5-0.2c0,0-0.1,0-0.1,0c0,0-0.1,0-0.1,0c0,0-0.1,0-0.1,0c0,0-0.1,0-0.1,0
			c-0.1,0-0.1,0-0.2,0c-0.1,0-0.1,0-0.2,0c-0.1,0-0.1,0-0.2,0c0,0-0.1,0-0.1,0c-0.1,0-0.1,0-0.2,0c-0.1,0-0.1,0-0.2,0
			c-0.1,0-0.1,0-0.2,0c-0.1,0-0.1,0-0.2,0c-0.1,0-0.1,0-0.2,0c-0.1,0-0.1,0-0.2,0c-0.1,0-0.1,0-0.2,0c-0.1,0-0.1,0-0.2,0
			c0,0-0.1,0-0.2,0c-0.1,0-0.1,0-0.2,0c-0.1,0-0.1,0-0.2,0c-0.1,0-0.1,0-0.2,0c-0.1,0-0.1,0-0.2,0c0,0-0.1,0-0.1,0c0,0-0.1,0-0.1,0
			c0,0-0.1,0-0.1,0c-0.1,0-0.2,0-0.3,0c-0.1,0-0.2,0-0.3,0c-0.1,0-0.2,0-0.2,0s-0.2,0-0.2,0c-0.1,0-0.3,0-0.4,0c-0.1,0-0.2,0-0.3,0
			c-0.1,0-0.1,0-0.2,0c0,0-0.1,0-0.1,0s0,0,0.1,0c0,0,0.1,0,0.2,0c0.1,0,0.2,0,0.3,0c0.1,0,0.2,0,0.4,0c0.1,0,0.1,0,0.2,0
			c0.1,0,0.1,0,0.2,0c0.1,0,0.2,0,0.2,0c0.1,0,0.2,0,0.3,0c0,0,0.1,0,0.1,0c0,0,0.1,0,0.1,0s0.1,0,0.1,0c0,0,0.1,0,0.1,0
			c0,0,0.1,0,0.1,0c0,0,0.1,0,0.1,0c0,0,0.1,0,0.1,0c0,0,0.1,0,0.1,0c0.4,0.1,0.8,0.2,1.1,0.3c0.3,0.1,0.7,0.2,0.9,0.4
			c0.3,0.1,0.5,0.3,0.7,0.5c0.2,0.2,0.3,0.3,0.3,0.5c0,0.1,0,0.2,0,0.3c0,0.1,0,0.2-0.1,0.3c0,0.1-0.1,0.2-0.2,0.4
			c-0.1,0.1-0.2,0.2-0.3,0.4c0,0,0,0-0.1,0.1c0,0,0,0-0.1,0.1c0,0,0,0-0.1,0.1c0,0,0,0-0.1,0.1c0,0,0,0,0,0c0,0,0,0,0,0c0,0,0,0,0,0
			c0,0,0,0,0,0c0,0-0.1,0.1-0.1,0.1c0,0-0.1,0.1-0.1,0.1c0,0-0.1,0.1-0.1,0.1c0,0-0.1,0.1-0.1,0.1c0,0,0,0-0.1,0c0,0,0,0-0.1,0.1
			c0,0-0.1,0-0.1,0.1c0,0-0.1,0-0.1,0l-0.2,0.1l-0.3,0.1c-0.1,0-0.2,0.1-0.3,0.1c-0.1,0-0.2,0.1-0.3,0.1c-0.1,0-0.3,0.1-0.4,0.1
			c-0.1,0-0.3,0.1-0.4,0.1c-0.2,0-0.3,0.1-0.5,0.1c-0.2,0-0.3,0.1-0.5,0.1c-0.2,0-0.4,0.1-0.6,0.1c-0.2,0-0.4,0.1-0.6,0.1
			c-0.2,0-0.4,0.1-0.6,0.1c-0.2,0-0.4,0.1-0.7,0.1c-0.2,0-0.5,0.1-0.7,0.1c-0.2,0-0.5,0.1-0.7,0.1c-0.5,0.1-1,0.1-1.5,0.1
			c-0.5,0-1,0.1-1.6,0.1c-0.5,0-1.1,0.1-1.6,0.1c-0.6,0-1.1,0.1-1.7,0.1c-1.2,0.1-2.3,0.2-3.5,0.2c-1.2,0.1-2.4,0.1-3.7,0.2
			c-1.3,0.1-2.5,0.1-3.8,0.2c-1.3,0.1-2.6,0.1-3.9,0.2c-1.3,0-2.7,0.1-4,0.1c-1.4,0-2.7,0.1-4.1,0.1c-1.4,0-2.8,0.1-4.2,0.1
			c-1.4,0-2.8,0.1-4.3,0.1c-1.4,0-2.9,0.1-4.3,0.1c-1.4,0-2.9,0.1-4.4,0.1c-1.5,0-2.9,0-4.4,0.1c-1.5,0-2.9,0-4.4,0.1
			c-1.5,0-3,0-4.5,0c-1.5,0-3,0-4.5,0c-1.5,0-3,0-4.5,0c-1.5,0-3,0-4.5,0c-0.8,0-1.5,0-2.3,0c-0.8,0-1.5,0-2.3,0c-0.8,0-1.5,0-2.3,0
			c-0.8,0-1.5,0-2.3,0c-0.8,0-1.5,0-2.3,0c-0.8,0-1.6,0-2.4,0c-0.8,0-1.6,0-2.4,0c-0.8,0-1.6,0-2.5,0c-1.7,0-3.3,0.1-5,0.1
			c-1.7,0-3.4,0.1-5.2,0.1c-1.8,0.1-3.6,0.1-5.4,0.2c-1.8,0.1-3.7,0.2-5.6,0.2c-1,0-1.9,0.1-2.9,0.2c-1,0.1-2,0.1-3,0.2
			c-1,0.1-2,0.1-3,0.2c-1,0.1-2,0.1-3.1,0.2c-1,0.1-2.1,0.2-3.2,0.3c-1.1,0.1-2.1,0.2-3.2,0.3c-1.1,0.1-2.2,0.2-3.3,0.3
			c-1.1,0.1-2.2,0.2-3.3,0.3c-1.1,0.1-2.2,0.3-3.3,0.4c-1.1,0.1-2.2,0.3-3.3,0.4c-1.1,0.1-2.2,0.3-3.3,0.5c-1.1,0.2-2.2,0.3-3.2,0.5
			c-1.1,0.2-2.1,0.3-3.1,0.5c-1,0.2-2,0.4-3,0.5c-1,0.2-2,0.4-2.9,0.6c-0.9,0.2-1.9,0.4-2.8,0.6l-1.3,0.3c-0.1,0-0.2,0-0.3,0.1
			c-0.1,0-0.2,0.1-0.3,0.1c-0.1,0-0.2,0-0.3,0.1c-0.1,0-0.2,0-0.3,0.1c-0.2,0-0.4,0.1-0.6,0.1c-0.2,0-0.4,0.1-0.6,0.2
			c-0.2,0.1-0.4,0.1-0.6,0.2c-0.2,0.1-0.4,0.1-0.6,0.2l-1.2,0.3l-0.6,0.2l-0.7,0.2l-1,0.3l-0.5,0.1c0,0,0,0-0.1,0c0,0,0,0-0.1,0
			c0,0,0,0-0.1,0c0,0,0,0-0.1,0s0,0-0.1,0c0,0,0,0-0.1,0c0,0,0,0-0.1,0c0,0,0,0-0.1,0l-2.3,0.7l-2,0.7c-0.2,0.1-0.3,0.1-0.5,0.2
			c-0.2,0.1-0.3,0.1-0.5,0.2c-0.2,0.1-0.3,0.1-0.5,0.2c-0.2,0.1-0.3,0.1-0.5,0.2c-0.2,0.1-0.3,0.1-0.4,0.2c-0.1,0.1-0.3,0.1-0.4,0.2
			c-0.1,0.1-0.3,0.1-0.4,0.2c-0.1,0.1-0.3,0.1-0.4,0.2c-0.5,0.2-1,0.5-1.5,0.7c-0.5,0.2-0.9,0.5-1.3,0.7c-0.4,0.2-0.8,0.5-1.1,0.7
			c-0.3,0.2-0.6,0.5-0.8,0.7c-0.2,0.2-0.4,0.5-0.6,0.7c-0.1,0.2-0.2,0.4-0.3,0.7c-0.1,0.2-0.1,0.4,0,0.6c0,0.2,0.1,0.4,0.3,0.6
			c0.3,0.4,0.7,0.8,1.3,1.2c0.6,0.4,1.4,0.7,2.3,1.1c0.9,0.3,2,0.7,3.2,1c1.2,0.3,2.6,0.6,4.1,0.8c1.5,0.3,3.1,0.5,4.9,0.7
			c1.7,0.2,3.6,0.4,5.5,0.6c2,0.2,4,0.3,6.2,0.5c2.2,0.1,4.4,0.2,6.7,0.3l1.8,0.1l1.8,0.1l1.8,0.1l1.9,0l1.9,0l1.6,0
			c0.3,0,0.5,0,0.8,0c0.3,0,0.5,0,0.8,0c0.3,0,0.5,0,0.8,0c0.3,0,0.5,0,0.8,0c1.1,0,2.2,0,3.3,0.1c1.1,0,2.2,0,3.3,0.1
			c1.1,0,2.2,0,3.3,0.1c1.1,0,2.2,0,3.3,0.1c8.8,0.1,17.6,0.3,26.4,0.4c8.8,0.1,17.6,0.3,26.2,0.4c8.7,0.1,17.3,0.3,25.7,0.4
			c8.5,0.1,16.8,0.3,24.8,0.4c8.6,0.1,16.9,0.3,24.8,0.4c8,0.1,15.7,0.2,22.9,0.4c7.3,0.1,14.2,0.2,20.5,0.3
			c6.4,0.1,12.3,0.2,17.6,0.3l-35.4,39.3L440,204z"/>
	</g>
	<polygon class="st2" points="227.1,14 160.5,129.4 93.9,14 	"/>
	<g>
		<defs>
			<rect id="SVGID_3_" x="20" y="9.8" width="420" height="238.4"/>
		</defs>
		<clipPath id="SVGID_4_">
			<use xlink:href="#SVGID_3_"  style="overflow:visible;"/>
		</clipPath>
		<path class="st3" d="M225,69.8l-0.1-0.2c-0.3-0.7-0.8-1.8-0.8-3.2l0.1-1.9c-1.4,1.2-3,2-4.9,2c-2.4,0-4.4-1.3-5.4-3.4
			c-5.2,3.5-11,7-17.7,9.2c-2.2,0.7-5.2,1.6-8.3,1.6c-8.8,0-13.5-5.9-13.5-11.4c0-1.8,0.5-3.7,1.4-5.6c2.7-5.8,6.4-11.3,11.6-17.3
			c0.8-0.9,1.7-1.7,2.5-2.4c-1.2-1.9-1.9-4.2-1.9-6.8c0-6.6,5.2-15.8,13.5-15.8c5.8,0,9.7,5.3,9.7,10.3c0,3.3-1.7,4.9-2.6,5.7
			c-0.1,0.1-0.2,0.2-0.3,0.3l-1,1.1l4,0.8l-2.5,5c0,0,0,0.1-0.1,0.2c-0.3,0.9-0.8,2.5-2.4,3.5c-0.9,0.7-2,1.2-2.9,1.6
			c-0.3,0.2-0.7,0.3-1,0.5c-4,2-6.7,5.7-8.6,8.6c-2.8,4.3-4.2,6.9-4.9,8.3h0.8c2.7-1,5.4-2,8-3.2c3.9-1.8,7.9-3.7,11.7-5.5
			c1.5-0.7,3-1.5,4.5-2.2c0-0.2,0.1-0.7,0.1-0.7l0.4-3.2c0.5-3.5,3.1-5.9,6.5-5.9c2.2,0,4,0.9,5.1,2.5c1.4-1,3.1-1.7,4.9-1.7
			c3.4,0,5.8,2.6,5.8,6.4c0,0.8-0.1,1.5-0.2,2c-0.8,6.7-1.6,12.4-2.3,18.1c-0.2,1.6-1.1,2.8-1.6,3.5l-4.7,6.3L225,69.8z M199.9,30.6
			c0.5,0.1,1.1,0.2,1.5,0.2c0.1,0,0.3,0,0.4,0l-0.4-0.7c-0.3-0.6-0.7-1.3-0.9-2.1C200.2,28.8,199.9,29.8,199.9,30.6"/>
		<path class="st3" d="M187.9,70.7c-6.7,0-10.4-4.2-10.4-8.2c0-1.3,0.4-2.8,1-4.2c2.6-5.6,6.1-10.8,11.1-16.6
			c0.7-0.8,1.5-1.5,2.3-2.1c0.7-0.6,2-1.7,2-2.1c0-0.1-0.1-0.4-0.4-0.8c-1.6-1.6-2.4-3.7-2.4-6.3c0-5.1,4-12.6,10.4-12.6
			c3.8,0,6.5,3.8,6.5,7.2c0,2-0.8,2.7-1.6,3.4c-0.2,0.1-0.3,0.3-0.5,0.5l-1,1.1l-0.7-1.3c-0.5-0.9-0.9-1.9-0.9-2.9
			c0-0.2,0-0.3,0-0.5c0-0.1,0-0.2,0-0.3c0-1.2-1.3-1.8-1.7-1.8c-3.2,0-4.9,5-4.9,7.6c0,2.6,1.4,2.8,4.3,3.2c0.7,0.1,1.5,0.2,2.2,0.3
			c0.4,0.1,0.7,0.2,1.1,0.4c0.3,0.1,0.6,0.3,0.9,0.3l1.4,0.3l-0.6,1.2c-0.1,0.2-0.2,0.4-0.3,0.7c-0.2,0.6-0.4,1.4-1.1,1.8
			c-0.8,0.6-1.7,1-2.5,1.4c-0.4,0.2-0.7,0.4-1.1,0.5c-4.6,2.4-7.6,6.4-9.8,9.6c-4,6.1-6,10.1-6,11.7c0,1.4,2.1,1.6,3.3,1.6
			c0.1,0,0.3-0.1,0.4-0.1h0.7l0.1,0.2l0.5-0.2c2.9-1.1,5.9-2.2,8.8-3.5c4-1.8,8-3.7,11.8-5.6c1.8-0.9,3.5-1.7,5.3-2.6
			c0.3-0.1,0.6-0.2,0.8-0.3c0.1-0.9,0.1-1.7,0.2-2.6l0.4-3.2c0.3-1.9,1.6-3.1,3.4-3.1c1.9,0,3.1,1.3,3.1,3.4c0,0.8-0.1,1.6-0.2,2.4
			c-0.1,0.6-0.1,1.1-0.1,1.7l2.2-3.8l0-0.1c0.9-1.1,3-2.9,4.9-2.9c1.6,0,2.6,1.2,2.6,3.3c0,0.6-0.1,1.1-0.1,1.6
			c-0.8,6.7-1.6,12.3-2.3,18c-0.1,0.8-0.6,1.5-1,2.1l-1.2,1.6l-0.7-1.9c0-0.1-0.1-0.3-0.2-0.5c-0.2-0.5-0.5-1.1-0.5-1.8
			c0-0.9,0.1-1.8,0.1-2.7c0.2-3.8,0.3-7.8,0.7-11.6c-0.1,0.1-0.1,0.2-0.2,0.3c-0.4,0.7-0.8,1.6-1.3,2.5c-2,4-4.3,8.5-7.3,8.5
			c-1.8,0-2.9-1.4-2.9-3.5c0-0.8,0-1.6,0.1-2.3c-6.5,4.5-13.3,9.2-21.2,11.7C193.2,70,190.6,70.7,187.9,70.7"/>
		<path class="st4" d="M230.8,45c-1.4,0-3.2,1.4-4.1,2.5l-2.5,4.2c-0.2,0.4-0.9,0.8-1.4,1.1c-0.1-0.5-0.3-1.1-0.3-1.6
			c0-1.5,0.3-3.1,0.3-4.7c0-1.2-0.4-2.3-2-2.3c-1.3,0-2.1,0.8-2.3,2.1l-0.4,3.1c-0.1,1.1-0.2,2.2-0.3,3.4c-0.5,0-0.9,0.1-1.3,0.3
			c-5.7,2.7-11.4,5.6-17.2,8.2c-3.4,1.5-6.9,2.8-10.3,4l-0.3-0.5c-0.1,0-0.3,0.1-0.4,0.1c-2.9,0-4.3-1-4.3-2.6c0-2.6,4-8.9,6.2-12.3
			c2.7-4.1,5.8-7.7,10.2-10c1.2-0.6,2.5-1.1,3.5-1.9c0.6-0.4,0.6-1.4,1-2.1c-0.6-0.1-1.3-0.5-2-0.7c-3.1-0.7-7.3,0.1-7.3-4.5
			c0-3.1,1.9-8.7,6-8.7c0.9,0,2.8,0.9,2.8,2.8c0,0.3-0.1,0.6-0.1,0.8c0,0.8,0.4,1.7,0.8,2.4c0.9-0.9,1.8-1.3,1.8-3.1
			c0-2.8-2.2-6.1-5.5-6.1c-5.4,0-9.3,6.7-9.3,11.6c0,2.1,0.6,4.1,2.1,5.5c0.5,0.5,0.8,1.1,0.8,1.5c0,1.4-2.9,3-4.5,4.9
			c-4.3,5-8.1,10.3-10.9,16.3c-0.6,1.3-0.9,2.6-0.9,3.8c0,3.8,3.5,7.2,9.3,7.2c2.4,0,4.8-0.6,7-1.4c8.6-2.7,15.6-7.9,22.8-12.9
			c-0.1,1.5-0.2,3-0.2,4.4c0,1.2,0.4,2.4,1.9,2.4c3.1,0,5.7-6.8,7.7-10.4c0.6-1.1,1.3-2,2.1-3.1c0.2,0.1,0.3,0.3,0.4,0.3
			c-0.9,5.7-1,11.7-1.3,17.4c0,0.7,0.4,1.3,0.6,1.9c0.4-0.5,0.8-1.1,0.9-1.6c0.8-6,1.6-12,2.3-18c0.1-0.5,0.1-1,0.1-1.5
			C232.4,46.2,232,45,230.8,45"/>
		<path class="st3" d="M261.4,81.9c0-0.1-0.1-0.1-0.1-0.2c-0.4-0.6-1-1.7-1-3.2v-0.4l0.1-0.4c0.1-0.4,0.2-0.7,0.2-1.1
			c-0.2,0.1-0.3,0.1-0.5,0.2c-0.1,0-0.2,0.1-0.3,0.1l-3.8,1.5c0,0-1.7-3.8-1.7-3.8c-0.3,0.6-0.5,1.3-0.7,2c-1,3.2-3.6,6.6-7,6.6
			c-3.3,0-5.9-3.2-5.9-7.2v-0.8l0.1-0.3c0.9-5.4,1.9-10.7,2.8-15.2c0.6-3.4,3.5-5.5,7.2-5.5c2.2,0,4.5,1.2,5.5,3.9
			c1-0.6,2.2-1.1,3.5-1.1c0.9,0,1.9,0.2,2.9,1c1.3-1.4,3.2-2.6,6-2.6c2.1,0,4.1,1.5,5.1,3.6h2.4l-1.3,5.3c-0.4,1.6-0.7,3.3-1.1,5.1
			c-0.8,3.8-1.6,7.6-3,11.1c-0.6,1.6-1.8,2.5-2.5,3c-0.1,0-0.1,0.1-0.2,0.1l-4.5,3.9L261.4,81.9z"/>
		<path class="st4" d="M266.7,78.9c-0.1,0.6-0.9,0.9-1.4,1.4c-0.3-0.6-0.8-1.3-0.8-1.8c0.6-2.8,1.3-5.6,1.9-8.3l1.4-6.2
			c0-0.4-0.1-0.8-0.2-1.2c-0.4,0.1-0.9,0.1-1.2,0.4c-2.3,2.6-4.1,5.8-6.3,8.7c-0.4,0.6-1.3,0.8-1.9,1c-0.3-0.6-0.6-1.1-0.6-1.7
			c0-1.9,0.9-4,0.9-5.9c0-0.6-0.3-1.1-0.4-1.6c-4,2.6-7.2,6.9-8.5,11.6c-0.6,1.8-1.9,3.6-3,3.6c-0.8,0-1.7-1.1-1.7-3v-0.4
			c0.8-5,1.8-9.9,2.8-15c0.3-1.6,1.6-2.1,3-2.1c1.4,0,1.8,1.4,1.8,2.8c0,1-0.4,2-0.4,3.1c0,0.6,0.2,1.2,0.3,1.8
			c0.7-0.3,1.4-0.3,1.9-0.8c1.8-1.4,3.7-4.1,5.5-4.1c0.8,0,1.4,3,1.5,4.5c0.7-0.9,1.5-1.3,2.1-2c1.6-1.9,2.6-4.1,5.2-4.1
			c0.6,0,1.8,1.3,1.8,3v0.6c0.1,0,0.2,0.1,0.4,0.1C269.4,68.4,268.7,74.3,266.7,78.9"/>
		<path class="st3" d="M283.7,84.5c-2.7,0-4.4-2-4.9-2.8c-0.2-0.3-0.4-0.6-0.6-0.8c-0.7,0.2-1.6,0.4-2.4,0.4c-4.2,0-7.3-3.3-7.3-7.7
			c0-5.7,3.1-11.6,7.8-15.2c1.2-0.9,2.6-1.5,3.8-1.9c0.5-0.2,1.1-0.4,1.5-0.6l1.1-0.6l1.3,0.1c5.7,0.7,7.8,4.6,7.8,8
			c0,0.5-0.1,1.1-0.2,1.8c-0.5,3.4-1,7-1.5,10.8C289.7,78.5,289,84.5,283.7,84.5"/>
		<path class="st4" d="M287.4,63.3c0,0.3-0.1,0.8-0.1,1.1c-0.6,3.6-1.1,7.4-1.5,11c-0.3,2.3-0.6,4.8-2.1,4.8c-0.6,0-1.1-0.4-1.6-1.2
			c-1.8-2.1-0.6-4-1.7-4c-0.4,0-2.5,1.9-4.6,1.9c-1.9,0-3.1-1.6-3.1-3.5c0-4.5,2.6-9.2,6.1-11.8c1.3-0.9,3.1-1.4,4.7-2.1
			C286.1,59.9,287.4,61.1,287.4,63.3 M281.7,63.5c-0.6,0-1.1,0.1-1.4,0.4c-1.6,2.3-4.5,6-4.5,7.8c0,0.3,0.3,1.4,1.1,1.4
			c2,0,4.7-5.2,6.5-8.1C282.6,63.8,282.6,63.5,281.7,63.5"/>
		<path class="st3" d="M287.5,83.7c-0.1-0.1-0.2-0.3-0.3-0.4c-0.6-0.9-1.5-2.3-1.5-4.1V79l0-0.2c0.2-2.6,0.6-5.2,0.9-7.7
			c0.1-0.9,0.3-1.9,0.4-2.8c0.1-0.4,0.1-1,0.1-1.7c0.4-4.9,1-14,8.3-14c1.5,0,2.7,0.5,3.8,1.4c1.8-2.4,4.1-5,7.7-5
			c2.4,0,4.2,1.3,5.3,3.9c0,0.1,0.1,0.2,0.2,0.3l1.1,1.6l-0.5,1.8c-0.1,0.4-0.2,0.8-0.3,1.2c-0.6,2.6-1.5,7-5.8,7
			c-0.6,0-1.1-0.1-1.6-0.3c-1,1.7-2.3,3.9-3.2,5.7c-0.8,1.7-1.5,3.5-2.2,5.4c-0.5,1.4-1,2.8-1.6,4.3c-1.3,3-2.9,4.1-4.6,5
			c-0.2,0.1-0.3,0.2-0.5,0.3l-3.8,2.2L287.5,83.7z"/>
		<path class="st4" d="M306.9,60.7c-0.9,0-1.4-1.9-2.2-1.9c-1.1,0-4.9,6.7-6.3,9.6c-1.6,3.2-2.5,6.7-3.9,10
			c-0.9,2.3-1.9,2.4-3.3,3.3c-0.4-0.8-1.3-1.8-1.3-2.6c0.3-3.5,0.8-6.8,1.3-10.2c0.4-3,0.3-12,4.3-12c1.7,0,2.5,2.8,2.8,4.8
			c0.8-0.7,1.5-1.4,2.1-2.1c1.8-2.3,3.8-6.3,6.5-6.3c1.3,0,1.3,1.3,2,2.4C308.4,58,308.1,60.7,306.9,60.7"/>
		<path class="st3" d="M311.6,82.5c-4.2,0-8.7-3-8.7-11.3c0-5.7,2.2-10.2,6.6-13.5c2.3-2,5-2.2,6-2.2c2.8,0,6.2,1.8,6.2,6.7v0.6
			c0,1.7-0.5,2.9-0.8,3.7c-0.1,0.2-0.2,0.4-0.2,0.6l-0.9,2.5c1.8,0.9,2.7,2.7,2.7,4.5C322.4,79.3,315.4,82.5,311.6,82.5"/>
		<path class="st4" d="M316.6,65.7c-0.9-1.3-1.3-2.1-1.9-2.1c-0.3,0-0.7,0.3-1.1,0.7c-1.9,2.6-2.5,5.5-2.5,8.6c0,1.3,1,1.9,2.1,1.9
			c1.3,0,2.9-1.5,4-1.5c0.4,0,0.8,0,0.8,0.8c0,2-4.3,4.1-6.6,4.1c-4.1,0-4.5-5-4.5-7c0-4,1.3-7.5,5-10.2c1.1-0.9,2.5-1.3,3.4-1.3
			c1.4,0,1.9,0.8,1.9,2.5v0.6C317.4,64,317,64.6,316.6,65.7"/>
		<path class="st3" d="M333.6,88.1c-3,0-6-2.2-6-7.1c0-1,0.1-2,0.2-3c0.1-0.5,0.2-1.1,0.2-1.6c-0.2,0.4-0.7,1.2-0.7,1.2
			c-0.8,1.2-2.6,2.7-4.8,2.7c-1.4,0-2.7-0.6-3.7-1.5c-1.9-1.9-1.8-4.7-1.7-6.9c0-0.3,0-0.6,0-0.9c0-1.4,0-3.3,0.4-5.3
			c0.9-5.4,2-10.8,3-16.1c0.8-3.9,1.6-8,2.3-12l0-0.2l0-0.2c0.1-0.2,0.1-0.8,0.2-1.3c0.2-1.8,0.8-7.4,6-7.4c3.3,0,6.5,3.4,6.5,6.9
			c0,0.7-0.1,1.3-0.2,1.7c-0.5,5.9-1.6,11.4-2.7,16.8c0.5-0.1,1-0.1,1.6-0.1c3.2,0,5.9,2.9,6.8,6l1.2,0l-0.8,4.9
			c-0.1,0.9-0.3,1.8-0.4,2.7c-0.3,2.2-0.7,4.4-1.1,6.7c2.1,1.3,2.3,3.3,2.3,4.3v1.4l-0.7,1.1c-0.2,0.3-0.4,0.7-0.7,1.1
			C339.3,84.6,337.2,88.1,333.6,88.1"/>
		<path class="st4" d="M335.7,74.5c-0.1,0.8-0.2,1.3-0.2,1.6c0,1.4,2.7,0.6,2.7,2.1v0.1c-1.2,1.8-3,5.5-4.5,5.5
			c-1.3,0-1.8-1.1-1.8-2.9c0-0.8,0.1-1.6,0.2-2.3c0.7-4.5,1.5-9,2-13.5c0-0.2,0.1-0.4,0.1-0.6c0-1-0.4-2-0.5-3.1
			c-0.9,0.9-2.1,1.6-2.6,2.6c-2.4,3.7-4.7,7.5-7.1,11.2c-0.3,0.4-0.8,0.8-1.3,0.8c-1.6,0-1.2-3.1-1.2-5.2c0-1.6,0.1-3.1,0.3-4.6
			c1.6-9.4,3.6-18.7,5.3-28c0.5-1.9,0.2-5.6,2.1-5.6c0.9,0,2.3,1.5,2.3,2.6c0,0.4-0.1,0.8-0.1,1.1c-0.8,8.5-2.7,16.5-4.2,24.6v0.3
			c0,0.7,0.1,1.3,0.2,1.8c0.6-0.4,1.4-0.7,1.8-1.3c1.8-1.6,2.6-4,5.3-4c1.2,0,2.9,2.1,2.9,4c0,0.6-0.1,1.3-0.1,1.9
			c0.1,0.1,0.3,0.1,0.3,0.1C336.9,67.4,336.3,70.9,335.7,74.5"/>
		<path class="st3" d="M346,85.7c-8.6,0-9.3-8.1-9.5-10.8l0-0.4l0-0.2c0.2-8.6,4-22.2,13.5-22.2c4.6,0,8.1,3.4,8.1,7.8
			c0,3-1.9,6-3.3,8.4c-0.2,0.4-0.4,0.7-0.6,1c-0.6,1-1.4,1.8-2,2.5c2.6,0.3,4.5,2.4,4.5,5.1C356.5,82.2,350.3,85.7,346,85.7"/>
		<path class="st4" d="M350,56.2c2.1,0,3.8,1.3,3.8,3.6c0,2.2-2.2,5.3-3.4,7.3c-1.5,2.4-4.7,3.3-4.7,6.5c0,1.2-0.2,3,1.9,3
			c1.3,0,2.4-0.7,3.6-0.7c0.7,0,1.1,0.3,1.1,0.9c0,2.6-3.9,4.6-6.3,4.6c-4.8,0-5.1-4.3-5.3-7.2C340.8,67.7,343.8,56.2,350,56.2
			 M350.2,59.8c-1.4,0-2.3,3.6-2.8,5c0,0.1-0.1,0.1-0.1,0.1c0,0.3,0.4,0.8,0.8,0.8c0.9,0,2.3-3.1,3.3-4.5
			C351,60.6,350.6,59.8,350.2,59.8"/>
		<path class="st3" d="M182.6,151.9c-6.3,0-10-5.2-10-13.9c0-7.7,2.9-13.7,8.9-18.2c1.9-1.6,4.6-2.6,7.1-2.6c1.4,0,6,0.5,6,6.9v0.9
			c0,2-0.5,3.3-1,4.4c-0.1,0.3-0.3,0.7-0.4,1.1l-1.9,5.5l-3.3-4.8c-0.2-0.3-0.4-0.5-0.5-0.8c-1.6,2.7-2.4,6-2.4,10.2
			c0.1,0,0.2,0,0.3,0c0.3,0,1.3-0.6,1.9-0.9c1.3-0.7,2.8-1.5,4.4-1.5c3.1,0,4.3,2.2,4.3,4.2C195.8,147.9,187.1,151.9,182.6,151.9"/>
		<path class="st5" d="M190.3,129.4c-1.4-1.9-2-3.2-2.9-3.2c-0.5,0-1.1,0.4-1.7,1.1c-2.9,4-3.8,8.6-3.8,13.3c0,1.9,1.6,3,3.3,3
			c1.9,0,4.5-2.3,6.2-2.3c0.6,0,1.3,0,1.3,1.2c0,3.1-6.6,6.4-10.2,6.4c-6.4,0-7-7.7-7-10.9c0-6.1,2-11.6,7.8-15.8
			c1.7-1.5,3.8-1.9,5.2-1.9c2.1,0,3,1.3,3,3.9v0.9C191.6,126.8,190.9,127.8,190.3,129.4"/>
		<path class="st3" d="M195.8,154.4c-0.1-0.2-0.3-0.4-0.5-0.7c-0.7-0.9-1.5-2-2-3.3H192l0.8-3.6c0.8-3.6,1.4-7,2.1-10.6l0.5-2.9
			c0.2-0.9,0.3-2.1,0.4-3.4c0.4-5.2,1-13.9,8.9-13.9c3.8,0,6.9,3.1,6.9,7v0.8l-0.1,0.3c-2.1,9.3-4.4,18.7-6.2,25.7
			c-0.8,3.2-3.9,4.7-5.6,5.5l-2.3,1.2L195.8,154.4z M207.7,111.1c-1.6,0-2.9-1.2-4.4-2.7c-0.2-0.2-0.4-0.4-0.6-0.5l-1.1-0.9l0-1.5
			c0.1-4.9,2.8-7.8,7.1-7.8c3.7,0,6.2,2.2,6.2,5.2h-6h3l0,3c1.3,0,2.3-0.8,2.6-1.6l-0.1,0.3C213.6,106.5,211.6,111.1,207.7,111.1"/>
		<path class="st5" d="M198.3,133.8c0.9-4.9-0.2-14.9,6.3-14.9c2.2,0,3.9,1.8,3.9,4v0.5c-1.9,8.6-4.1,17.2-6.2,25.7
			c-0.5,1.8-2.6,2.9-4,3.6c-0.9-1.3-2.3-2.9-2.3-4.4v-0.7c0,0-0.1-0.2-0.3-0.2C196.7,142.9,197.4,138.5,198.3,133.8 M208.8,100.7
			c1.8,0,3.2,0.8,3.2,2.2c0-0.4-1.8,5.1-4.3,5.1c-0.6,0-2.4-2-3-2.5C204.8,102,206.4,100.7,208.8,100.7"/>
		<path class="st3" d="M222,156.9c-4.5,0-6.2-5.4-6.3-8.3h-1.1l0.7-3.6c0.7-3.7,1.4-10.2,2.1-16.5c0.7-6.4,1.4-13,2.2-17
			c0.1-0.4,0.2-0.9,0.3-1.4c0.1-0.5,0.2-0.9,0.3-1.3c-0.3,0-0.6,0.1-1,0.2c-0.9,0.2-1.8,0.4-2.9,0.4c-2.5,0-4.9-2-5.3-4.6l0-0.2
			v-0.2c0-4.1,4.4-5,6.5-5.4c0.3-0.1,0.6-0.1,0.9-0.2l0.2,0c3.8-0.7,4.3-1.6,4.3-4.7c0-0.4,0-0.8,0-1.2c0-0.6-0.1-1.1-0.1-1.7
			c0-6.9,3.6-11.6,9-11.6c1.5,0,5.1,0.6,5.1,6.2c0,1.2-0.1,2.6-0.3,4c-0.1,0.8-0.1,1.6-0.2,2.3c0.4-0.2,0.7-0.3,1.1-0.5
			c1.9-0.9,4.1-1.9,6.4-1.9c0.7,0,1.4,0.1,1.9,0.2c0.2,0,0.3,0.1,0.4,0.1l5.2,0.9l-3.4,4c0,0.1-0.1,0.2-0.1,0.3
			c-0.3,0.6-0.8,1.5-1.8,2.1c-1.1,0.7-2.3,1.5-3.5,2.3c-3.2,2-8,5-8.5,7.2c-0.7,3.2-1.4,9.1-2,14.8c-0.6,5.6-1.2,10.9-1.9,14.4
			c1.7,0.7,3.6,2.6,3.6,4.4v0.5l-0.2,0.5c-0.4,1-0.7,2.1-1,3.3c-0.9,3.4-1.9,7.3-5.5,10C226.1,155.6,224,156.9,222,156.9"/>
		<path class="st5" d="M222.5,112.3c0.2-1.2,0.7-2.3,0.7-3.7c0-1.7-0.9-2.6-2.6-2.6c-1.3,0-2.8,0.6-4.3,0.6c-1,0-2.1-0.9-2.3-2
			c0-1.9,3-2.2,5.1-2.7c5.1-0.9,6.8-2.9,6.8-7.7c0-0.9-0.1-1.9-0.1-2.9c0-3.8,1.5-8.6,6-8.6c1.9,0,2.1,1.7,2.1,3.2
			c0,2-0.5,5.3-0.5,7.4c0,1.7,0.5,2.3,1.8,2.3c2.1,0,5.7-2.9,8.7-2.9c0.6,0,1.3,0.2,1.8,0.3c-0.5,0.6-0.7,1.5-1.3,1.8
			c-4.7,3.2-12.3,6.9-13.3,11.3c-1.5,6.6-2.6,23.5-4.1,30.2c-0.1,0.5-0.2,0.9-0.2,1.3c0,0.8,0.3,1.3,1.4,1.3c0.2,0,0.5,0,0.8-0.1
			c0.4,0,1.7,1.3,1.7,1.7c-1.6,4.2-1.6,9.1-5.5,12.1c-0.9,0.8-2.3,1.6-3.2,1.6c-2.4,0-3.3-4.4-3.3-5.6c0-0.9,0.1-1.7,0.1-2.5
			c-0.2,0-0.4-0.1-0.6-0.1C219.7,138,221.1,119.9,222.5,112.3"/>
		<path class="st3" d="M245.1,154.9c-4.9,0-10.1-4.2-10.1-15.8v-0.1l0-0.1c0.4-4.2,3.7-21,12.6-21c1,0,2,0.3,2.9,0.7
			c0.3-0.5,0.8-0.9,1.2-1.2c0.1-0.1,0.3-0.3,0.5-0.5l2.1-2.1l2.1,2.1c3.4,3.4,3.9,9,3.9,13.5C260.3,140.3,254.4,154.9,245.1,154.9
			 M250.5,129.4c-2.1,3.7-3.5,8.7-3.6,13C249.1,137.3,250.3,133,250.5,129.4"/>
		<path class="st5" d="M247.6,120.8c1.3,0,2.9,0.9,2.9,2.5c0,0.6-0.2,1.3-0.5,1.6c-3.9,4.7-6.1,12.2-6.1,18.1c0,1.4,1.2,3,1.8,4.4
			c1.3-0.9,3.1-1.5,3.5-2.5c2.3-5.2,4.5-11.5,4.5-16.8c0-2-1-4.2-1-6.4c0-1.6,0.6-1.6,1.7-2.6c2.7,2.7,3,7.7,3,11.4
			c0,9.5-5.6,21.6-12.2,21.6c-4.3,0-7.1-4.8-7.1-12.8C238.3,134.5,241.7,120.8,247.6,120.8"/>
		<path class="st3" d="M257.4,201c-0.9,0-1.8-0.1-2.6-0.3c-0.7,0.1-1.3,0.1-1.8,0.1c-9.9,0-15.7-6.2-20.8-11.6l-0.1-0.1
			c-1-1.2-1.1-2.7-1.1-3.7c0-0.2,0-0.4,0-0.6l-0.4-3.7l3.7,0.4c0.2,0,0.4,0,0.6,0c0.7,0,1.6,0.1,2.6,0.4l1.7,0.7
			c5.1,2.1,10.9,4.4,14.6,4.4c3.2,0,6.8-1,9.6-8.6c2.2-5.8,3.8-11.9,5.3-17.8c0.7-2.8,1.5-5.6,2.3-8.4c0.1-0.5,0.3-1.1,0.5-1.6
			c0.4-1.4,0.9-2.9,1.2-4.4c-0.8,0.3-1.7,0.6-2.8,0.6c-8.2,0-9.3-10.9-9.7-15l-1.2-12.3v-1.4c0-2.7,1.8-4.6,2.8-5.7
			c0.2-0.2,0.4-0.4,0.5-0.6l2.2-2.7l2.3,2.6c0.2,0.2,0.4,0.4,0.6,0.7c1.1,1.1,2.6,2.5,2.8,4.6c0.2,2.8,0.4,5.6,0.6,8.4
			c0.1,2.1,0.3,4.3,0.4,6.5c1.5-3.7,2.9-7.3,4.2-10.9c1-3.2,3.6-5.1,7.1-5.1c4,0,6.7,3,6.7,7.6v0.2l0,0.2c-0.3,2.3-0.5,4.6-0.7,6.9
			c-0.4,4.3-0.8,8.7-1.6,13.1c-2.1,10.8-4.8,23.4-8.5,35.6C275.9,188.1,267.4,201,257.4,201"/>
		<path class="st5" d="M253,197.8c-8.5,0-13.5-5.2-18.6-10.7c-0.5-0.6-0.4-1.7-0.5-2.7c0.9,0.1,1.7,0,2.5,0.3
			c6,2.4,12.7,5.3,17.4,5.3c5.7,0,9.7-3.3,12.4-10.5c3.3-8.7,5.2-17.6,7.7-26.4c0.8-2.7,2-6.2,2-9.2c0-0.9-0.4-1.7-0.5-2.5
			c-2.9,1.3-3.6,2.5-5.6,2.5c-4.5,0-6-5.2-6.7-12.2l-1.2-12.1v-1.3c0-1.9,1.8-3.3,2.6-4.4c1,1.1,2.5,2.2,2.6,3.5
			c0.5,5.5,0.7,11.2,1.2,16.7c0.1,1.5,1.2,2.7,1.7,4c1.2-1.1,2.7-2,3.3-3.3c1.7-4.1,3.4-8.3,5-12.6c0.7-2.1,2.2-3.1,4.3-3.1
			c2.8,0,3.7,2.3,3.7,4.6c-0.8,6.6-1,13.2-2.2,19.7c-2.3,11.8-5,23.8-8.5,35.3c-2.5,8.5-10.3,19.4-18.3,19.4c-0.8,0-1.7-0.1-2.4-0.3
			C254.3,197.8,253.6,197.8,253,197.8"/>
		<path class="st3" d="M298.5,156.8c-10.1,0-10.8-9.1-11.2-13.5l0-0.5l0-0.2c0.2-9.7,4.8-30.8,17.4-30.8c5.2,0,8.9,3.6,8.9,8.5
			c0,3.7-2.6,7.8-4.6,11.1c-0.4,0.6-0.7,1.2-1,1.7c-1.1,1.8-2.6,3.1-3.9,4.3c-2,1.7-2.9,2.6-2.9,4.3l0,0.5c0,0.3,0,0.8,0,1.1
			c0.5,0,1.2-0.2,1.9-0.4c1.1-0.3,2.3-0.7,3.7-0.7c2.7,0,4.7,1.8,4.7,4.5C311.2,152.8,303.6,156.8,298.5,156.8"/>
		<path class="st5" d="M304.6,114.9c3.2,0,5.9,2,5.9,5.5c0,3.4-3.4,8.2-5.2,11.3c-2.3,3.8-7.3,5.1-7.3,10.1c0,1.8-0.3,4.6,2.9,4.6
			c1.9,0,3.7-1.1,5.6-1.1c1.1,0,1.7,0.5,1.7,1.5c0,4-6,7.1-9.7,7.1c-7.5,0-7.9-6.6-8.3-11.1C290.4,132.7,295.1,114.9,304.6,114.9
			 M305,120.3c-2.1,0-3.5,5.5-4.3,7.8c0,0.1-0.1,0.1-0.1,0.2c0,0.4,0.7,1.3,1.2,1.3c1.5,0,3.6-4.8,5.1-7
			C306.2,121.7,305.6,120.3,305,120.3"/>
		<path class="st3" d="M329.5,157.9c-0.1-0.2-0.2-0.4-0.2-0.6c-0.4-0.8-0.9-1.9-0.9-3.3l0-0.1c0.1-1.4,0.1-2.8,0.2-4.1
			c0.2-3.7,0.3-7.5,0.6-11.3c-3.1,6-6.6,12.1-11.7,12.1c-3.5,0-5.9-2.7-5.9-6.8c0-3.9,0.4-7.8,0.7-11.7c0.1-1.5,0.3-3.1,0.4-4.6
			l0.6-5c0.5-3.6,3.1-6,6.6-6c3.7,0,6.1,2.6,6.1,6.6c0,0.2,0,0.3,0,0.5l0.4-0.7l0.1-0.2c1.6-2,5.2-5,8.7-5c2.7,0,5.4,2,5.4,6.4
			c0,1-0.1,1.8-0.2,2.7c-1.1,8.9-2.3,18.3-3.6,27.9c-0.2,1.6-1.2,2.9-1.9,3.8l-3.5,4.7L329.5,157.9z"/>
		<path class="st5" d="M329.3,131.5c-3.1,5.5-7.2,16.1-12,16.1c-2.2,0-2.9-1.9-2.9-3.8c0-5.2,0.7-10.8,1.1-16l0.6-4.9
			c0.3-2.1,1.7-3.3,3.6-3.3c2.4,0,3.1,1.8,3.1,3.6c0,2.3-0.5,4.9-0.5,7.2c0,0.8,0.4,1.8,0.5,2.5c0.7-0.5,1.7-1.1,2.1-1.7l3.8-6.5
			c1.4-1.8,4.2-3.9,6.3-3.9c1.9,0,2.4,1.8,2.4,3.4c0,0.8-0.1,1.6-0.2,2.3c-1.2,9.3-2.3,18.6-3.6,27.9c-0.1,0.9-0.8,1.7-1.4,2.5
			c-0.3-0.9-1-1.8-1-2.9c0.4-8.7,0.6-18.2,1.9-26.9c-0.3,0-0.4-0.2-0.7-0.4C331.3,128.4,330.3,129.8,329.3,131.5"/>
		<path class="st3" d="M356.2,157c-5.1,0-10.1-6.7-10.1-13.5c0-5.8,4.8-9.9,11.6-9.9c6.9,0,8.5,5.1,9.5,8.1l0.3,0.8v0.5
			C367.4,148.2,361,157,356.2,157 M356.8,125.8c-0.5-1.3-1-2.4-1.6-3.5l-0.9-1.8l0.2-1.1c4.9-21.2,11-38.7,17.5-57.2
			c1.1-3.2,2.2-6.5,3.4-9.7c0.7-2,1.3-4.4,2-7c2.5-9.6,5.6-21.5,14.7-21.5c7.1,0,10.2,4.2,10.2,8.3c0,1.3-0.2,2.6-0.6,3.9
			c-2.4,6.4-4.7,12.9-6.9,19.2c-8.1,22.8-16.5,46.4-27.5,67.7l-0.1,0.1l-0.1,0.1c-1.1,1.7-3,2.7-4.7,3.5c-0.4,0.2-0.9,0.4-1.3,0.7
			L358,129L356.8,125.8z"/>
		<path class="st5" d="M356.2,154c-3.3,0-7.1-5.3-7.1-10.5c0-4.1,3.5-6.9,8.6-6.9c4.9,0,5.8,3.3,6.8,6.4
			C364.4,147,359,154,356.2,154 M378.3,53.4c3.1-9.1,5.1-26.5,13.8-26.5c4.8,0,7.2,2.3,7.2,5.3c0,1-0.2,2-0.5,3
			c-10.7,29.1-20.3,59.4-34.3,86.4c-0.8,1.3-3.1,2.1-4.9,3.1c-0.7-1.8-1.5-3.3-2.1-4.6C363.3,95.4,370.7,75.5,378.3,53.4"/>
		<path class="st3" d="M148,61.2c-11.4,0-20.8-9.3-20.8-20.7c0-11.4,9.3-20.8,20.8-20.8c11.4,0,20.8,9.3,20.8,20.8
			C168.8,51.9,159.5,61.2,148,61.2"/>
		<path class="st3" d="M97.7,208.2c-1.3,0-2.7-0.2-4-0.6c-3.7-1.1-6.9-3.8-9-7.4c-1.9-3.3-2.8-7.1-2.6-10.6c0.2-4,1.8-7.1,4.4-9.1
			c0.3-0.2,0.6-0.4,0.9-0.6l2.5-1.5c1.6-1.1,3.7-2.4,6-4.3c2.8-2.3,5.5-4.8,7.9-7.4c2.8-3,5.5-6.5,7.8-10c2.3-3.6,4.4-7.4,5.9-11.2
			c1.4-3.5,2.5-7.1,3.2-10.5c0.6-3.2,0.8-5.8,0.8-7.5c0-0.1,0-0.3,0-0.4l0-0.2c-0.1-1.3-0.3-3.6,0-6c-0.1,0-0.2,0-0.3,0
			c-6.4,0-14.1-3.6-18.4-8.5c-2.8-3.3-4.1-6.9-3.6-10.6c2.2-15.6,23.7-35.7,26.3-37.4l0.5-0.3l0.6-0.2c0.5-0.1,1-0.2,1.5-0.2
			c0.7-1.4,1.9-2.8,4-4.1c2.3-1.5,5.2-2.7,8.1-3.3c0.5-0.2,1-0.3,1.6-0.3c1.2-0.2,2.4-0.3,3.5-0.3c2.5,0,4.9,0.5,6.9,1.4
			c3.9,1.7,6.2,4.9,6.4,8.5c0,0.3,0,0.7,0,1.1l-0.2,2.9l-0.5,4.1l-0.2,1.2l-0.3,1.7c1.2,1.3,2.4,2.5,3.6,3.6
			c5.6,5,11.4,7.6,13.6,8.6l1.6,0.7c0.1,0.1,0.4,0.1,0.6,0.2c0.2,0.1,2.3,0.8,2.8,1c1,0.3,1.7,0.4,1.7,0.5c0.4,0.1,0.7,0.2,1,0.3
			c2.6,1.1,4.4,3.2,5.4,6.1c0.9,2.7,1,5.7,0.2,8.5c-0.8,3.2-2.7,5.9-5.3,7.5c-1.8,1.1-3.7,1.7-5.7,1.7c-1.3,0-2.6-0.3-3.8-0.8
			c-0.2-0.1-0.4-0.2-0.7-0.3c-0.5-0.2-1.3-0.6-2.6-1.4l-0.1-0.1c-0.8-0.5-3.2-2-3.2-2c-0.4-0.3-0.9-0.5-1.3-0.8l-1.8-1.3
			c-4.3-3-8.6-6.8-12.3-10.9c-0.1,0.2-0.2,0.4-0.3,0.6c-3.4,8.1-7.7,15.1-10,18.6c-0.3,0.5-0.6,1.6-0.7,2.4c2,1.2,4.1,2.6,6,4.1
			c3.6,2.8,7.3,6.3,10.7,10.1c3.5,4.1,6.9,8.7,9.7,13.6c2.8,4.7,5.3,10,7.2,15.1c1.7,4.6,3.1,9.3,4.2,14.2c0.9,4.1,1.4,7.6,1.7,10.5
			l0.4,4c0,0.5,0,0.9,0,1.4c-0.1,4.1-2.2,7.8-5.7,10.2c-2.5,1.7-5.5,2.6-8.8,2.6c-0.9,0-1.8-0.1-2.6-0.2c-3.7-0.6-7.3-2.2-10-4.6
			c-3-2.7-4.5-5.8-4.4-9.2c0-0.4,0.1-0.7,0.1-1.1l0.4-2.9c0.2-2,0.4-4.4,0.4-7.4c0-3.6-0.3-7.3-0.9-10.8c-0.6-4.1-1.7-8.3-3-12.3
			c-1.4-4-3.1-8.1-5.1-11.6c-0.7-1.3-1.5-2.6-2.4-3.9c-0.2,3.3-0.6,6.7-1.2,10.1c-1,5.3-2.6,10.8-4.6,16.1c-2,5.1-4.5,10.3-7.4,15.1
			c-2.5,4.2-5.4,8.3-8.5,12.1c-2.7,3.3-5.2,5.9-7.1,7.9l-2.9,2.8c-0.4,0.4-0.8,0.7-1.1,0.9C103.2,207.3,100.5,208.2,97.7,208.2"/>
		<path class="st3" d="M184.7,98.2c-0.7-2-1.9-3.4-3.6-4.2c-0.2-0.1-0.4-0.1-0.6-0.2c0,0-0.7-0.2-1.9-0.5c0,0-2.6-0.9-2.8-1
			c-0.3-0.1-0.6-0.2-0.8-0.3l-1.5-0.7c-2.3-1-8.4-3.8-14.4-9.1c-1.7-1.5-3.4-3.2-4.9-5c0.1-0.3,0.1-0.6,0.2-0.9l0.4-2.1l0.2-1.1
			l0.5-4l0.2-2.8c0-0.2,0-0.5,0-0.7c-0.1-2.3-1.8-4.5-4.5-5.7c-1.6-0.7-3.5-1.1-5.6-1.1c-1,0-2.1,0.1-3.2,0.3
			c-0.4,0-0.7,0.1-1.1,0.2c-2.7,0.6-5.2,1.6-7.2,2.9c-2.3,1.5-3.5,3.2-3.4,5.1c0,0.1,0,0.3,0.1,0.4c-0.7-0.7-1.5-0.9-2.1-0.9
			c-0.3,0-0.6,0-0.9,0.1l-0.2,0l-0.1,0.1c-2.4,1.5-22.9,20.8-24.9,35.1c-0.4,2.7,0.6,5.5,2.8,8.1c3.7,4.2,10.5,7.4,16,7.4
			c2,0,3.7-0.5,4.9-1.3c-0.4,1.1-0.6,1.6-0.7,1.7c-1.3,3.2-1,6.7-0.8,8.6c0,0.4,0.1,0.7,0.1,0.9c0,1.8-0.2,4.7-0.8,8.1
			c-0.7,3.5-1.8,7.4-3.3,11.1c-1.6,4-3.8,8-6.2,11.8c-2.4,3.6-5.2,7.2-8.1,10.4c-2.5,2.7-5.3,5.3-8.3,7.7c-2.5,2-4.6,3.4-6.4,4.6
			l-2.5,1.6c-0.2,0.1-0.4,0.3-0.6,0.4c-1.9,1.4-3,3.7-3.2,6.8c-0.2,3,0.6,6.1,2.2,8.9c1.7,3,4.3,5.1,7.2,6c1,0.3,2,0.5,3,0.5
			c2.1,0,4.1-0.6,5.7-1.9c0.3-0.2,0.5-0.4,0.8-0.6l2.9-2.7c1.9-1.9,4.3-4.4,6.9-7.6c3.1-3.8,5.8-7.7,8.2-11.8
			c2.7-4.6,5.2-9.6,7.1-14.6c1.9-5.1,3.5-10.4,4.4-15.5c0.9-4.8,1.3-9.6,1.2-14c0-1.6-0.1-3.3-0.3-4.9c0.7,0.7,1.3,1.4,1.9,2.1
			c2.3,2.7,4.6,6,6.6,9.5c2.1,3.7,3.9,7.9,5.3,12.2c1.4,4.1,2.4,8.5,3.1,12.8c0.6,3.7,0.9,7.5,0.9,11.3c0,3.2-0.2,5.7-0.4,7.8
			l-0.4,3c0,0.2-0.1,0.5-0.1,0.7c-0.1,2.4,1.1,4.7,3.3,6.7c2.2,2,5.2,3.3,8.3,3.8c0.7,0.1,1.5,0.2,2.2,0.2c2.6,0,5-0.7,7-2.1
			c2.7-1.8,4.2-4.6,4.3-7.7c0-0.3,0-0.6,0-1l-0.3-3.9c-0.3-2.8-0.8-6.2-1.6-10.2c-1-4.7-2.4-9.4-4.1-13.8c-1.9-5-4.3-10.1-7-14.7
			c-2.8-4.7-6-9.2-9.4-13.1c-3.2-3.7-6.7-7-10.2-9.6c-2.2-1.7-4.4-3.2-6.8-4.5c-0.2-0.1-0.3-0.4-0.4-0.7c-0.4-1.5,0.3-4.3,1.2-5.5
			c2.2-3.4,6.4-10.2,9.7-18.1c0.8-1.8,1.5-3.6,2.2-5.5c4.1,5.4,9.6,10.7,15.1,14.5l1.8,1.2c0.4,0.3,0.8,0.5,1.2,0.7
			c0,0,2.4,1.5,3.2,1.9c1.5,0.8,2.5,1.3,2.5,1.3c0.2,0.1,0.4,0.2,0.6,0.3c0.8,0.3,1.6,0.5,2.5,0.5c1.4,0,2.8-0.4,4-1.2
			c1.9-1.2,3.3-3.2,3.9-5.6C185.4,102.6,185.4,100.3,184.7,98.2"/>
		<path class="st6" d="M183.7,98.5c-0.6-1.7-1.6-2.9-3-3.5c-0.1-0.1-0.3-0.1-0.4-0.1c0,0-0.7-0.2-2-0.5c-0.6-0.2-1.4-0.5-2.3-0.8
			c-0.4-0.2-0.9-0.3-1.4-0.5c-0.5-0.2-1-0.4-1.5-0.7c-4.3-1.8-9.9-5-14.7-9.3c-2-1.7-3.7-3.6-5.4-5.5c0.1-0.5,0.2-1,0.3-1.4
			c0.1-0.7,0.3-1.4,0.4-2.1c0.1-0.7,0.2-1.3,0.3-1.9c0.2-1.2,0.3-2.3,0.4-3.2c0.1-1.8,0.2-2.8,0.2-2.8c0-0.2,0-0.4,0-0.6
			c-0.1-2-1.7-3.8-3.9-4.8c-2.2-1-5.2-1.3-8.3-0.7c-0.3,0-0.6,0.1-0.9,0.2c-2.8,0.6-5.2,1.6-6.9,2.8c-1.9,1.3-3,2.7-3,4.1
			c0,0.1,0,0.3,0.1,0.4c0,0,0.2,0.7,0.5,2c0.1,0.6,0.2,1.4,0.4,2.3c0.1,0.5,0.2,0.9,0.3,1.5c0.1,0.5,0.1,1.1,0.2,1.6
			c0.5,4.6,0.6,11-0.1,17.5c-0.7,6.5-2.2,13.1-3.6,17.9c-1.4,4.8-2.8,7.9-2.8,7.9c-1.5,3.7-0.6,8.1-0.7,9.1c0,2-0.2,4.9-0.8,8.3
			c-0.6,3.4-1.8,7.3-3.4,11.3c-1.6,4-3.8,8.1-6.3,11.9c-2.5,3.8-5.3,7.4-8.2,10.5c-2.9,3.1-5.8,5.7-8.4,7.8
			c-2.6,2.1-4.9,3.6-6.5,4.6c-1.6,1-2.5,1.6-2.5,1.6c-0.2,0.1-0.4,0.2-0.5,0.3c-1.7,1.3-2.6,3.4-2.7,6c-0.1,2.5,0.5,5.5,2.1,8.3
			c1.6,2.8,3.9,4.7,6.6,5.5c2.6,0.8,5.5,0.4,7.8-1.3c0.2-0.2,0.5-0.3,0.7-0.5c0,0,1-1,2.8-2.7c1.7-1.8,4.2-4.3,6.9-7.5
			c2.6-3.3,5.5-7.2,8.2-11.6c2.6-4.4,5.1-9.4,7-14.4c2-5.1,3.4-10.3,4.4-15.3c0.9-5,1.2-9.7,1.2-13.8c0-3-0.3-5.6-0.7-7.7
			c1.3,1.1,2.7,2.6,4.2,4.3c2.3,2.6,4.6,5.9,6.7,9.7c2.1,3.8,4,8,5.4,12.3c1.4,4.3,2.5,8.8,3.1,13c0.6,4.2,0.9,8.1,0.9,11.4
			c0,3.3-0.2,6.1-0.4,8c-0.2,1.9-0.4,3-0.4,3c0,0.2-0.1,0.4-0.1,0.6c-0.1,2.1,1,4.2,3,5.9c1.9,1.7,4.6,3.1,7.8,3.5
			c3.1,0.5,6.1-0.2,8.4-1.7c2.3-1.5,3.8-4,3.9-6.9c0-0.3,0-0.6,0-0.8c0,0-0.1-1.4-0.3-3.9c-0.3-2.5-0.7-6-1.6-10.1
			c-0.9-4.1-2.2-8.8-4-13.6c-1.8-4.8-4.2-9.8-6.9-14.5c-2.8-4.7-5.9-9.1-9.3-12.9c-3.3-3.8-6.8-7-10.1-9.5c-2.4-1.9-4.7-3.3-6.6-4.4
			c-1.9-1.1-0.9-5.9,0.4-7.8c3-4.6,6.7-11,9.6-17.9c1-2.4,2-4.9,2.8-7.4c0.3,0.4,0.5,0.8,0.8,1.1c4.6,6.2,10.4,11.4,15.2,14.8
			c0.6,0.4,1.2,0.8,1.7,1.2c0.6,0.4,1.1,0.7,1.6,1c1,0.6,1.9,1.2,2.7,1.6c1.5,0.8,2.4,1.3,2.4,1.3c0.2,0.1,0.4,0.2,0.5,0.2
			c1.9,0.8,3.9,0.4,5.5-0.6c1.6-1,2.9-2.8,3.4-5C184.4,102.4,184.2,100.2,183.7,98.5"/>
		<path class="st3" d="M148,58c-9.7,0-17.6-7.9-17.6-17.6c0-9.7,7.9-17.6,17.6-17.6c9.7,0,17.6,7.9,17.6,17.6
			C165.6,50.2,157.7,58,148,58"/>
		<path class="st6" d="M164.5,40.5c0,9.1-7.4,16.5-16.5,16.5s-16.5-7.4-16.5-16.5c0-9.1,7.4-16.5,16.5-16.5S164.5,31.3,164.5,40.5"
			/>
		<path class="st6" d="M127.8,67.9c8.8-2.4,1.8,44.3-2.3,47.4c-5.5,4.2-23.5-3.4-22.1-13C105.4,88.2,125.8,69.1,127.8,67.9"/>
	</g>
</g>
</svg>
