<?xml version="1.0" encoding="utf-8"?>
<!-- Generator: Adobe Illustrator 22.1.0, SVG Export Plug-In . SVG Version: 6.00 Build 0)  -->
<svg version="1.1" id="Calque_1" xmlns="http://www.w3.org/2000/svg" xmlns:xlink="http://www.w3.org/1999/xlink" x="0px" y="0px"
	 viewBox="0 0 1240 149.5" style="enable-background:new 0 0 1240 149.5;" xml:space="preserve">
<style type="text/css">
	.st0{fill:#db2830;}
	.st1{clip-path:url(#SVGID_2_);fill:#db2830;}
	.st2{clip-path:url(#SVGID_4_);fill:#db2830;}
	.st3{clip-path:url(#SVGID_6_);fill:#db2830;}
	.st4{clip-path:url(#SVGID_8_);fill:#db2830;}
</style>
<rect y="135.1" class="st0" width="1240" height="14.4"/>
<polygon class="st0" points="337.9,120.8 330.5,128.6 345.4,128.6 "/>
<rect x="330.5" y="128.6" class="st0" width="14.9" height="10.2"/>
<g>
	<defs>
		<rect id="SVGID_1_" width="1240" height="149.5"/>
	</defs>
	<clipPath id="SVGID_2_">
		<use xlink:href="#SVGID_1_"  style="overflow:visible;"/>
	</clipPath>
	<path class="st1" d="M38.3,102.1c8.3,0,14.9-15.1,14.9-33.6S46.6,0,38.3,0S23.4,49.9,23.4,68.5S30.1,102.1,38.3,102.1"/>
</g>
<rect x="36.7" y="95.9" class="st0" width="3.3" height="48.1"/>
<g>
	<defs>
		<rect id="SVGID_3_" width="1240" height="149.5"/>
	</defs>
	<clipPath id="SVGID_4_">
		<use xlink:href="#SVGID_3_"  style="overflow:visible;"/>
	</clipPath>
	<path class="st2" d="M93.4,127c18.7,0,33.9-13.7,33.9-30.5c0-16.8-15.2-30.5-33.9-30.5S59.5,79.6,59.5,96.5
		C59.5,113.3,74.7,127,93.4,127"/>
</g>
<rect x="90.6" y="112.9" class="st0" width="5.6" height="31.1"/>
<g>
	<defs>
		<rect id="SVGID_5_" width="1240" height="149.5"/>
	</defs>
	<clipPath id="SVGID_6_">
		<use xlink:href="#SVGID_5_"  style="overflow:visible;"/>
	</clipPath>
	<path class="st3" d="M437.8,132.2c13.8,0,24.9-9.5,24.9-21.3s-11.1-21.3-24.9-21.3c-13.8,0-24.9,9.5-24.9,21.3
		S424.1,132.2,437.8,132.2"/>
</g>
<rect x="435.8" y="122.3" class="st0" width="4.1" height="21.7"/>
<polygon class="st0" points="140.4,80 115.5,106.2 165.3,106.2 "/>
<rect x="115.5" y="106.2" class="st0" width="49.8" height="34.2"/>
<polygon class="st0" points="195.6,97.1 177.8,115.9 213.5,115.9 "/>
<rect x="177.8" y="115.9" class="st0" width="35.7" height="24.5"/>
<rect x="320.5" y="124" class="st0" width="2.2" height="11.7"/>
<rect x="234.7" y="124" class="st0" width="2.2" height="11.7"/>
<g>
	<defs>
		<rect id="SVGID_7_" width="1240" height="149.5"/>
	</defs>
	<clipPath id="SVGID_8_">
		<use xlink:href="#SVGID_7_"  style="overflow:visible;"/>
	</clipPath>
	<path class="st4" d="M278.7,126.7c30.3,0,41.8,9,41.8,9H334c-2.9-2.9-8.2-5.4-15.9-7.3c-10.6-2.7-24.6-4.1-39.4-4.1
		c-14.8,0-28.8,1.5-39.4,4.1c-7.7,2-13,4.4-15.9,7.3h13.5C236.9,135.7,248.4,126.7,278.7,126.7"/>
	<path class="st4" d="M236.7,125.4l-0.2-0.5l0.3-0.1c0.8-0.2,1.6-0.4,2.4-0.7c10.6-2.7,24.6-4.2,39.5-4.2s28.9,1.5,39.5,4.2
		c0.8,0.2,1.7,0.4,2.4,0.7l0.3,0.1l-0.2,0.5l-0.3-0.1c-0.8-0.2-1.6-0.4-2.4-0.7c-10.5-2.7-24.5-4.1-39.3-4.1s-28.8,1.5-39.3,4.1
		c-0.8,0.2-1.6,0.4-2.4,0.7L236.7,125.4z"/>
</g>
<polygon class="st0" points="366.1,98.3 392.2,98.7 406.2,117 380.3,117 "/>
<polygon class="st0" points="380.3,117 406.2,117 406.2,141.2 380.3,141.6 "/>
<polygon class="st0" points="366.1,98.3 380.3,117 380.3,141.6 352,141.3 352,117 "/>
<polygon class="st0" points="8.7,114.1 0,125.3 16,125.3 24.7,113.8 "/>
<polygon class="st0" points="0,125.3 0,140.2 16,140.5 16,125.3 "/>
<polygon class="st0" points="24.7,113.8 16,125.3 16,140.5 33.3,140.3 33.3,125.3 "/>
</svg>
