<?xml version="1.0" encoding="utf-8"?>
<!-- Generator: Adobe Illustrator 22.1.0, SVG Export Plug-In . SVG Version: 6.00 Build 0)  -->
<svg version="1.1" id="Calque_1" xmlns="http://www.w3.org/2000/svg" xmlns:xlink="http://www.w3.org/1999/xlink" x="0px" y="0px"
	 viewBox="0 0 1240 303.1" style="enable-background:new 0 0 1240 303.1;" xml:space="preserve">
<style type="text/css">
	.st0{fill:#003A60;}
	.st1{opacity:0.85;}
	.st2{clip-path:url(#SVGID_2_);}
	.st3{fill:#FFFFFF;}
	.st4{opacity:0.7;}
	.st5{clip-path:url(#SVGID_4_);}
	.st6{opacity:0.5;}
	.st7{clip-path:url(#SVGID_6_);}
	.st8{clip-path:url(#SVGID_8_);}
	.st9{opacity:0.75;}
	.st10{clip-path:url(#SVGID_10_);}
</style>
<g>
	<rect class="st0" width="1240" height="303.1"/>
	<g>
		<g class="st1">
			<g>
				<defs>
					<rect id="SVGID_1_" x="19.1" y="19.3" width="394.7" height="108.1"/>
				</defs>
				<clipPath id="SVGID_2_">
					<use xlink:href="#SVGID_1_"  style="overflow:visible;"/>
				</clipPath>
				<g class="st2">
					<path class="st3" d="M63.5,102.4h-6.7V49.3h6.7V102.4z"/>
					<path class="st3" d="M107.8,80.5v21.9h-6.3V80.5c0-6.3-4.2-10.5-9.3-10.5c-5.9,0-10.1,4.2-10.1,10.5v21.9h-6.3V64.5h4.6
						l1.7,4.2c0,0,3.8-4.6,11-4.6C101.1,64.1,107.8,70.8,107.8,80.5z"/>
					<path class="st3" d="M122.1,83.5c0,8,5.5,13.5,11.4,13.5c5.1,0,8.9-3.8,10.1-8h6.3c-1.7,7.6-8,13.9-16.4,13.9
						c-9.7,0-17.7-8-17.7-19.4c0-11.4,8-19.4,17.7-19.4c8.4,0,14.8,6.3,16.4,13.9h-6.3c-1.3-4.2-5.1-8-10.1-8
						C127.6,70,122.1,75.4,122.1,83.5z"/>
					<path class="st3" d="M173.2,102.9c-9.7,0-17.7-8-17.7-19.4c0-11.4,8-19.4,17.7-19.4c9.7,0,17.7,8,17.7,19.4
						C190.9,94.8,182.9,102.9,173.2,102.9z M173.2,97c5.9,0,11.4-5.5,11.4-13.5c0-8-5.5-13.5-11.4-13.5c-5.9,0-11.4,5.5-11.4,13.5
						C161.8,91.5,167.3,97,173.2,97z"/>
					<path class="st3" d="M199.3,86.4V64.5h6.3v21.9c0,6.3,4.2,10.5,9.3,10.5c5.9,0,10.1-4.2,10.1-10.5V64.5h6.3v37.9h-4.6l-1.7-4.2
						c0,0-3.8,4.6-11,4.6C206,102.9,199.3,96.1,199.3,86.4z"/>
					<path class="st3" d="M260.4,70.4h-1.7c-5.9,0-10.1,4.2-10.1,10.5v21.5h-6.3V64.5h4.6l1.7,4.2c0,0,3.8-4.6,11-4.6h0.8V70.4z"/>
					<path class="st3" d="M271.4,54.4h5.5v10.1h8.4v5.9h-8.4v19.8c0,4.2,2.5,6.7,6.3,6.7c1.3,0,2.1-0.4,2.1-0.4v5.5
						c0,0-1.3,0.8-3.8,0.8c-5.9,0-11-5.1-11-12.6V70.4h-6.7v-5.9h3c3,0,4.6-1.7,4.6-4.6V54.4z"/>
				</g>
			</g>
		</g>
		<g class="st4">
			<g>
				<defs>
					<rect id="SVGID_3_" x="351.3" y="37.8" width="300.2" height="82.8"/>
				</defs>
				<clipPath id="SVGID_4_">
					<use xlink:href="#SVGID_3_"  style="overflow:visible;"/>
				</clipPath>
				<g class="st5">
					<path class="st3" d="M417.9,66h3.8v36.5H417V77.8l-11.3,24.6h-2.9l-11.3-24.6v24.6h-4.6V66h3.8l13.6,29.2L417.9,66z"/>
					<path class="st3" d="M449.7,85.1v17.4h-3.2l-1.2-2.9c0,0-2.6,3.2-7.8,3.2c-5.2,0-8.7-3.5-8.7-7.8c0-4.9,3.5-8.4,16.5-8.4v-1.4
						c0-2.6-2.3-4.9-5.5-4.9c-3.2,0-4.6,1.4-5.2,3.8H430c0.6-4.3,4.1-7.8,9.8-7.8S449.7,80.2,449.7,85.1z M445.3,92.6v-2
						c-10.4,0-12.2,1.7-12.2,4.6c0,1.7,1.7,3.5,4.3,3.5C442.2,98.7,445.3,95.5,445.3,92.6z"/>
					<path class="st3" d="M478.9,87.4v15h-4.3v-15c0-4.3-2.9-7.2-6.4-7.2c-4.1,0-6.9,2.9-6.9,7.2v15h-4.3v-26h3.2l1.2,2.9
						c0,0,2.6-3.2,7.5-3.2C474.3,76.1,478.9,80.7,478.9,87.4z"/>
					<path class="st3" d="M508.4,87.4v15h-4.3v-15c0-4.3-2.9-7.2-6.4-7.2c-4,0-6.9,2.9-6.9,7.2v15h-4.3V66h4.3v13.6
						c0,0,2.6-3.5,7.5-3.5C503.8,76.1,508.4,80.7,508.4,87.4z"/>
					<path class="st3" d="M535.3,85.1v17.4h-3.2l-1.2-2.9c0,0-2.6,3.2-7.8,3.2c-5.2,0-8.7-3.5-8.7-7.8c0-4.9,3.5-8.4,16.5-8.4v-1.4
						c0-2.6-2.3-4.9-5.5-4.9c-3.2,0-4.6,1.4-5.2,3.8h-4.6c0.6-4.3,4.1-7.8,9.8-7.8S535.3,80.2,535.3,85.1z M531,92.6v-2
						c-10.4,0-12.2,1.7-12.2,4.6c0,1.7,1.7,3.5,4.3,3.5C527.8,98.7,531,95.5,531,92.6z"/>
					<path class="st3" d="M539.4,76.4h4.6l7.8,20l7.8-20h4.6L553,104.7c-2.1,5.2-4.1,7.2-7.5,7.2c-0.9,0-1.7-0.3-1.7-0.3v-3.5
						c2.6,0,3.7-1.2,4.6-3.5l1.2-2.9L539.4,76.4z"/>
				</g>
			</g>
		</g>
		<g class="st6">
			<g>
				<defs>
					<rect id="SVGID_5_" x="540.8" y="11.4" width="225.9" height="63.1"/>
				</defs>
				<clipPath id="SVGID_6_">
					<use xlink:href="#SVGID_5_"  style="overflow:visible;"/>
				</clipPath>
				<g class="st7">
					<path class="st3" d="M591.1,54.8c0,3.5-3.2,6.7-7.4,6.7h-8.9V38.1h8.7c3.9,0,6.7,2.8,6.7,6.3c0,3.3-2.6,4.7-2.6,4.7
						S591.1,50.6,591.1,54.8z M577.7,47.9h5.8c2.2,0,3.9-1.7,3.9-3.5c0-2-1.7-3.7-3.9-3.7h-5.8V47.9z M583.7,58.9
						c2.6,0,4.5-1.9,4.5-4.3c0-2.2-1.9-4.1-4.5-4.1h-6v8.4H583.7z"/>
					<path class="st3" d="M607.7,50.4v11.2h-2l-0.7-1.9c0,0-1.7,2-5,2c-3.3,0-5.6-2.2-5.6-5c0-3.2,2.2-5.4,10.6-5.4v-0.9
						c0-1.7-1.5-3.2-3.5-3.2s-3,0.9-3.3,2.4h-3c0.4-2.8,2.6-5,6.3-5C605.1,44.6,607.7,47.2,607.7,50.4z M604.9,55.2v-1.3
						c-6.7,0-7.8,1.1-7.8,3c0,1.1,1.1,2.2,2.8,2.2C602.9,59.1,604.9,57.1,604.9,55.2z"/>
					<path class="st3" d="M617.6,61.7c-3.7,0-6-2.2-6.1-5.2h2.8c0.2,1.5,1.3,2.6,3.3,2.6c1.9,0,3-1.1,3-2.4c0-3.7-8.7-0.9-8.7-7.3
						c0-2.6,2.2-4.8,5.6-4.8c3.5,0,5.6,2,5.8,5h-2.8c-0.2-1.5-1.1-2.4-3-2.4c-1.7,0-2.8,1.1-2.8,2.2c0,3.7,8.7,0.9,8.7,7.3
						C623.3,59.5,621.1,61.7,617.6,61.7z"/>
					<path class="st3" d="M628.7,40.3h2.4v4.5h3.7v2.6h-3.7v8.7c0,1.9,1.1,3,2.8,3c0.6,0,0.9-0.2,0.9-0.2v2.4c0,0-0.6,0.4-1.7,0.4
						c-2.6,0-4.8-2.2-4.8-5.6v-8.7h-3v-2.6h1.3c1.3,0,2-0.7,2-2V40.3z"/>
					<path class="st3" d="M645.3,61.7c-4.3,0-7.8-3.5-7.8-8.6c0-5,3.5-8.6,7.8-8.6c4.3,0,7.8,3.5,7.8,8.6
						C653.1,58.2,649.6,61.7,645.3,61.7z M645.3,59.1c2.6,0,5-2.4,5-6s-2.4-6-5-6c-2.6,0-5,2.4-5,6S642.7,59.1,645.3,59.1z"/>
					<path class="st3" d="M668.2,58.7c0,0-1.5,2.2-4.8,2.2c-4.3,0-7.6-3.3-7.6-8.2c0-4.8,3.3-8.2,7.6-8.2c3.3,0,4.8,2,4.8,2l0.7-1.9
						h2V61c0,3.9-3,6.9-7.4,6.9c-3.9,0-6.1-2.2-6.9-5h2.8c0.6,1.3,1.7,2.4,4.1,2.4c2.8,0,4.7-1.9,4.7-4.3V58.7z M663.6,58.4
						c2.8,0,5-2.2,5-5.6c0-3.3-2.2-5.6-5-5.6s-5,2.2-5,5.6C658.5,56.1,660.8,58.4,663.6,58.4z"/>
					<path class="st3" d="M689.8,51.9v9.7H687v-9.7c0-2.8-1.9-4.7-4.1-4.7c-2.6,0-4.5,1.9-4.5,4.7v9.7h-2.8V44.8h2l0.7,1.9
						c0,0,1.7-2,4.8-2C686.8,44.6,689.8,47.6,689.8,51.9z"/>
					<path class="st3" d="M708,57.1c-1.1,2.4-3.3,4.7-6.9,4.7c-4.3,0-7.8-3.5-7.8-8.6c0-5,3.5-8.6,7.6-8.6s7.4,3.3,7.4,8.4
						c0,0.9-0.2,1.5-0.2,1.5h-11.9c0.2,2.4,2.4,4.7,4.8,4.7c2,0,3.3-1.3,3.9-2H708z M696.3,52h9.1c-0.4-3-2.2-4.8-4.5-4.8
						C698.7,47.2,696.7,49.3,696.3,52z"/>
				</g>
			</g>
		</g>
		<g class="st6">
			<g>
				<defs>
					<rect id="SVGID_7_" x="502.9" y="206" width="371.2" height="63.1"/>
				</defs>
				<clipPath id="SVGID_8_">
					<use xlink:href="#SVGID_7_"  style="overflow:visible;"/>
				</clipPath>
				<g class="st8">
					<path class="st3" d="M551.6,235.4h-7.1v20.8h-3v-20.8h-7.1v-2.6h17.1V235.4z"/>
					<path class="st3" d="M568.9,246.5v9.7h-2.8v-9.7c0-2.8-1.9-4.7-4.1-4.7c-2.6,0-4.5,1.9-4.5,4.7v9.7h-2.8v-23.4h2.8v8.7
						c0,0,1.7-2.2,4.8-2.2C565.9,239.3,568.9,242.3,568.9,246.5z"/>
					<path class="st3" d="M574.9,233c1,0,1.8,0.7,1.8,1.8c0,1-0.7,1.7-1.8,1.7c-1,0-1.7-0.7-1.7-1.7
						C573.2,233.7,573.9,233,574.9,233z M576.3,256.2h-2.8v-16.7h2.8V256.2z"/>
					<path class="st3" d="M603.3,246.2v10h-2.8v-10c0-2.8-1.5-4.3-3.3-4.3s-3.5,1.7-3.5,4.3v10h-2.8v-10c0-2.8-1.5-4.3-3.3-4.3
						c-1.8,0-3.5,1.8-3.5,4.3v10h-2.8v-16.7h2l0.7,1.9c0,0,1.3-2,4.1-2c3.3,0,4.7,3,4.7,3s1.5-3,5-3
						C600.7,239.3,603.3,241.9,603.3,246.2z"/>
					<path class="st3" d="M609.3,233c1,0,1.8,0.7,1.8,1.8c0,1-0.7,1.7-1.8,1.7c-1,0-1.7-0.7-1.7-1.7
						C607.6,233.7,608.3,233,609.3,233z M610.7,256.2H608v-16.7h2.8V256.2z"/>
					<path class="st3" d="M620.8,256.4c-3.7,0-6-2.2-6.1-5.2h2.8c0.2,1.5,1.3,2.6,3.3,2.6c1.9,0,3-1.1,3-2.4c0-3.7-8.7-0.9-8.7-7.3
						c0-2.6,2.2-4.8,5.6-4.8c3.5,0,5.6,2,5.8,5h-2.8c-0.2-1.5-1.1-2.4-3-2.4c-1.7,0-2.8,1.1-2.8,2.2c0,3.7,8.7,0.9,8.7,7.3
						C626.6,254.2,624.3,256.4,620.8,256.4z"/>
					<path class="st3" d="M632,235h2.4v4.5h3.7v2.6h-3.7v8.7c0,1.9,1.1,3,2.8,3c0.6,0,0.9-0.2,0.9-0.2v2.4c0,0-0.6,0.4-1.7,0.4
						c-2.6,0-4.8-2.2-4.8-5.6v-8.7h-3v-2.6h1.3c1.3,0,2-0.7,2-2V235z"/>
					<path class="st3" d="M655.4,251.7c-1.1,2.4-3.3,4.7-6.9,4.7c-4.3,0-7.8-3.5-7.8-8.6c0-5,3.5-8.6,7.6-8.6s7.4,3.3,7.4,8.4
						c0,0.9-0.2,1.5-0.2,1.5h-11.9c0.2,2.4,2.4,4.7,4.8,4.7c2,0,3.3-1.3,3.9-2H655.4z M643.7,246.7h9.1c-0.4-3-2.2-4.8-4.5-4.8
						C646.1,241.9,644.1,243.9,643.7,246.7z"/>
					<path class="st3" d="M667.5,242.1h-0.7c-2.6,0-4.5,1.9-4.5,4.7v9.5h-2.8v-16.7h2l0.7,1.9c0,0,1.7-2,4.8-2h0.4V242.1z"/>
					<path class="st3" d="M679.8,247.8h-10.2v-2.4h10.2V247.8z"/>
					<path class="st3" d="M685.4,244.5c0,5.4,3.9,9.3,8,9.3c3.7,0,6.1-2.4,6.9-5.4h3.2c-1.3,4.5-4.8,8-10,8c-5.8,0-11-5.2-11-11.9
						s5.2-11.9,11-11.9c5,0,8.6,3.5,9.9,8h-3.2c-0.7-3-3.2-5.4-6.7-5.4C689.3,235.2,685.4,239.1,685.4,244.5z"/>
					<path class="st3" d="M710,256.2h-2.8v-23.4h2.8V256.2z"/>
					<path class="st3" d="M728.6,251.7c-1.1,2.4-3.3,4.7-6.9,4.7c-4.3,0-7.8-3.5-7.8-8.6c0-5,3.5-8.6,7.6-8.6s7.4,3.3,7.4,8.4
						c0,0.9-0.2,1.5-0.2,1.5h-11.9c0.2,2.4,2.4,4.7,4.8,4.7c2,0,3.3-1.3,3.9-2H728.6z M716.9,246.7h9.1c-0.4-3-2.2-4.8-4.5-4.8
						C719.3,241.9,717.2,243.9,716.9,246.7z"/>
					<path class="st3" d="M740.7,242.1h-0.7c-2.6,0-4.5,1.9-4.5,4.7v9.5h-2.8v-16.7h2l0.7,1.9c0,0,1.7-2,4.8-2h0.4V242.1z"/>
					<path class="st3" d="M766,246.2v10h-2.8v-10c0-2.8-1.5-4.3-3.3-4.3c-1.9,0-3.5,1.7-3.5,4.3v10h-2.8v-10c0-2.8-1.5-4.3-3.3-4.3
						c-1.8,0-3.5,1.8-3.5,4.3v10h-2.8v-16.7h2l0.7,1.9c0,0,1.3-2,4.1-2c3.3,0,4.7,3,4.7,3s1.5-3,5-3
						C763.4,239.3,766,241.9,766,246.2z"/>
					<path class="st3" d="M777.3,256.4c-4.3,0-7.8-3.5-7.8-8.6c0-5,3.5-8.6,7.8-8.6c4.3,0,7.8,3.5,7.8,8.6
						C785.2,252.9,781.6,256.4,777.3,256.4z M777.3,253.8c2.6,0,5-2.4,5-6s-2.4-6-5-6c-2.6,0-5,2.4-5,6S774.7,253.8,777.3,253.8z"/>
					<path class="st3" d="M803,246.5v9.7h-2.8v-9.7c0-2.8-1.9-4.7-4.1-4.7c-2.6,0-4.5,1.9-4.5,4.7v9.7h-2.8v-16.7h2l0.7,1.9
						c0,0,1.7-2,4.8-2C800,239.3,803,242.3,803,246.5z"/>
					<path class="st3" d="M809.3,235h2.4v4.5h3.7v2.6h-3.7v8.7c0,1.9,1.1,3,2.8,3c0.6,0,0.9-0.2,0.9-0.2v2.4c0,0-0.6,0.4-1.7,0.4
						c-2.6,0-4.8-2.2-4.8-5.6v-8.7h-3v-2.6h1.3c1.3,0,2-0.7,2-2V235z"/>
				</g>
			</g>
		</g>
		<g class="st1">
			<g>
				<g>
					<path class="st3" d="M805.3,59.4c8.8,0,15.6,6.8,15.6,15.2h-6.4c0-5.6-4-9.6-9.2-9.6c-6,0-10,4-10,8c0,12.4,26.8,6,26.8,24
						c0,7.2-6.4,13.6-16.8,13.6s-16.8-6.4-16.8-15.2h6.4c0,6,3.6,9.6,10.4,9.6s10.4-3.6,10.4-8c0-12.4-26.8-6-26.8-24
						C788.9,66.2,795.7,59.4,805.3,59.4z"/>
					<path class="st3" d="M857.2,86.2v24h-4.4l-1.6-4c0,0-3.6,4.4-10.8,4.4c-7.2,0-12-4.8-12-10.8c0-6.8,4.8-11.6,22.8-11.6v-2
						c0-3.6-3.2-6.8-7.6-6.8s-6.4,2-7.2,5.2h-6.4c0.8-6,5.6-10.8,13.6-10.8S857.2,79.4,857.2,86.2z M851.2,96.6v-2.8
						c-14.4,0-16.8,2.4-16.8,6.4c0,2.4,2.4,4.8,6,4.8C846.9,104.9,851.2,100.6,851.2,96.6z"/>
					<path class="st3" d="M870.2,60.2c2.2,0,3.8,1.6,3.8,3.8c0,2.2-1.6,3.8-3.8,3.8c-2.2,0-3.8-1.6-3.8-3.8
						C866.4,61.8,868,60.2,870.2,60.2z M873.2,110.1h-6v-36h6V110.1z"/>
					<path class="st3" d="M914,89.4v20.8h-6V89.4c0-6-4-10-8.8-10c-5.6,0-9.6,4-9.6,10v20.8h-6v-36h4.4l1.6,4c0,0,3.6-4.4,10.4-4.4
						C907.6,73.8,914,80.2,914,89.4z"/>
					<path class="st3" d="M927.5,64.6h5.2v9.6h8v5.6h-8v18.8c0,4,2.4,6.4,6,6.4c1.2,0,2-0.4,2-0.4v5.2c0,0-1.2,0.8-3.6,0.8
						c-5.6,0-10.4-4.8-10.4-12V79.8h-6.4v-5.6h2.8c2.8,0,4.4-1.6,4.4-4.4V64.6z"/>
					<path class="st3" d="M969.1,92.2h-22V87h22V92.2z"/>
					<path class="st3" d="M981.5,85c0,11.6,8.4,20,17.2,20c8,0,15.2-7.2,15.2-14.4H999V85h21.2v25.2h-4.8l-1.6-6
						c0,0-5.6,6.4-15.2,6.4c-12.4,0-23.6-11.2-23.6-25.6c0-14.4,11.2-25.6,23.6-25.6c11.2,0,18,6.8,21.2,16.4h-6.8
						c-2-6.4-6.4-10.8-14.4-10.8C989.9,65,981.5,73.4,981.5,85z"/>
					<path class="st3" d="M1061.8,89.4v20.8h-6V89.4c0-6-4-10-8.8-10c-5.6,0-9.6,4-9.6,10v20.8h-6V59.8h6v18.8c0,0,3.6-4.8,10.4-4.8
						C1055.4,73.8,1061.8,80.2,1061.8,89.4z"/>
					<path class="st3" d="M1074.7,60.2c2.2,0,3.8,1.6,3.8,3.8c0,2.2-1.6,3.8-3.8,3.8c-2.2,0-3.8-1.6-3.8-3.8
						C1070.9,61.8,1072.5,60.2,1074.7,60.2z M1077.7,110.1h-6v-36h6V110.1z"/>
					<path class="st3" d="M1099.3,110.5c-8,0-12.8-4.8-13.2-11.2h6c0.4,3.2,2.8,5.6,7.2,5.6c4,0,6.4-2.4,6.4-5.2
						c0-8-18.8-2-18.8-15.6c0-5.6,4.8-10.4,12-10.4c7.6,0,12,4.4,12.4,10.8h-6c-0.4-3.2-2.4-5.2-6.4-5.2c-3.6,0-6,2.4-6,4.8
						c0,8,18.8,2,18.8,15.6C1111.7,105.7,1106.9,110.5,1099.3,110.5z"/>
					<path class="st3" d="M1126.1,110.1h-6V59.8h6V110.1z"/>
					<path class="st3" d="M1164,86.2v24h-4.4l-1.6-4c0,0-3.6,4.4-10.8,4.4c-7.2,0-12-4.8-12-10.8c0-6.8,4.8-11.6,22.8-11.6v-2
						c0-3.6-3.2-6.8-7.6-6.8s-6.4,2-7.2,5.2h-6.4c0.8-6,5.6-10.8,13.6-10.8S1164,79.4,1164,86.2z M1158,96.6v-2.8
						c-14.4,0-16.8,2.4-16.8,6.4c0,2.4,2.4,4.8,6,4.8C1153.6,104.9,1158,100.6,1158,96.6z"/>
					<path class="st3" d="M1177,60.2c2.2,0,3.8,1.6,3.8,3.8c0,2.2-1.6,3.8-3.8,3.8c-2.2,0-3.8-1.6-3.8-3.8
						C1173.2,61.8,1174.8,60.2,1177,60.2z M1180,110.1h-6v-36h6V110.1z"/>
					<path class="st3" d="M1220.7,89.4v20.8h-6V89.4c0-6-4-10-8.8-10c-5.6,0-9.6,4-9.6,10v20.8h-6v-36h4.4l1.6,4
						c0,0,3.6-4.4,10.4-4.4C1214.4,73.8,1220.7,80.2,1220.7,89.4z"/>
				</g>
			</g>
		</g>
		<g class="st9">
			<g>
				<g>
					<path class="st3" d="M37.8,220.3v13.5h16v4.5h-16v17.9h-5.1v-40.4h24.7v4.5H37.8z"/>
					<path class="st3" d="M83.9,237v19.2h-3.5l-1.3-3.2c0,0-2.9,3.5-8.6,3.5c-5.8,0-9.6-3.8-9.6-8.6c0-5.4,3.8-9.3,18.3-9.3V237
						c0-2.9-2.6-5.4-6.1-5.4s-5.1,1.6-5.8,4.2h-5.1c0.6-4.8,4.5-8.6,10.9-8.6C79.5,227.1,83.9,231.5,83.9,237z M79.1,245.3v-2.2
						c-11.5,0-13.5,1.9-13.5,5.1c0,1.9,1.9,3.8,4.8,3.8C75.6,252,79.1,248.5,79.1,245.3z"/>
					<path class="st3" d="M105.7,231.9h-1.3c-4.5,0-7.7,3.2-7.7,8v16.3h-4.8v-28.8h3.5l1.3,3.2c0,0,2.9-3.5,8.3-3.5h0.6V231.9z"/>
					<path class="st3" d="M113.8,241.8c0,6.1,4.2,10.3,8.6,10.3c3.8,0,6.7-2.9,7.7-6.1h4.8c-1.3,5.8-6.1,10.6-12.5,10.6
						c-7.4,0-13.5-6.1-13.5-14.7c0-8.6,6.1-14.7,13.5-14.7c6.4,0,11.2,4.8,12.5,10.6h-4.8c-1-3.2-3.8-6.1-7.7-6.1
						C118,231.5,113.8,235.7,113.8,241.8z"/>
					<path class="st3" d="M143.4,216.2c1.8,0,3.1,1.3,3.1,3.1c0,1.7-1.3,3-3.1,3c-1.7,0-3-1.3-3-3
						C140.4,217.4,141.7,216.2,143.4,216.2z M145.8,256.2H141v-28.8h4.8V256.2z"/>
					<path class="st3" d="M177.5,248.5c-1.9,4.2-5.8,8-11.9,8c-7.4,0-13.5-6.1-13.5-14.7c0-8.6,6.1-14.7,13.1-14.7
						c7,0,12.8,5.8,12.8,14.4c0,1.6-0.3,2.6-0.3,2.6h-20.5c0.3,4.2,4.2,8,8.3,8c3.5,0,5.8-2.2,6.7-3.5H177.5z M157.4,239.9h15.7
						c-0.6-5.1-3.8-8.3-7.7-8.3C161.5,231.5,158,235.1,157.4,239.9z"/>
					<path class="st3" d="M208.9,239.6v16.7h-4.8v-16.7c0-4.8-3.2-8-7-8c-4.5,0-7.7,3.2-7.7,8v16.7h-4.8v-28.8h3.5l1.3,3.2
						c0,0,2.9-3.5,8.3-3.5C203.8,227.1,208.9,232.2,208.9,239.6z"/>
					<path class="st3" d="M241.3,239.6v16.7h-4.8v-16.7c0-4.8-3.2-8-7-8c-4.5,0-7.7,3.2-7.7,8v16.7h-4.8v-28.8h3.5l1.3,3.2
						c0,0,2.9-3.5,8.3-3.5C236.2,227.1,241.3,232.2,241.3,239.6z"/>
					<path class="st3" d="M272.7,248.5c-1.9,4.2-5.8,8-11.9,8c-7.4,0-13.5-6.1-13.5-14.7c0-8.6,6.1-14.7,13.1-14.7
						c7,0,12.8,5.8,12.8,14.4c0,1.6-0.3,2.6-0.3,2.6h-20.5c0.3,4.2,4.2,8,8.3,8c3.5,0,5.8-2.2,6.7-3.5H272.7z M252.5,239.9h15.7
						c-0.6-5.1-3.8-8.3-7.7-8.3C256.7,231.5,253.1,235.1,252.5,239.9z"/>
					<path class="st3" d="M288.7,256.5c-6.4,0-10.3-3.8-10.6-9h4.8c0.3,2.6,2.2,4.5,5.8,4.5c3.2,0,5.1-1.9,5.1-4.2
						c0-6.4-15.1-1.6-15.1-12.5c0-4.5,3.8-8.3,9.6-8.3c6.1,0,9.6,3.5,9.9,8.6h-4.8c-0.3-2.6-1.9-4.2-5.1-4.2c-2.9,0-4.8,1.9-4.8,3.8
						c0,6.4,15.1,1.6,15.1,12.5C298.6,252.7,294.8,256.5,288.7,256.5z"/>
				</g>
			</g>
		</g>
		<g class="st4">
			<g>
				<defs>
					<rect id="SVGID_9_" x="926.6" y="191.6" width="272.5" height="76.9"/>
				</defs>
				<clipPath id="SVGID_10_">
					<use xlink:href="#SVGID_9_"  style="overflow:visible;"/>
				</clipPath>
				<g class="st10">
					<path class="st3" d="M974.1,251.9H970l-11.9-32.5h4.4l9.6,26.6l9.6-26.6h4.4L974.1,251.9z"/>
					<path class="st3" d="M1007.2,245.7c-1.5,3.4-4.7,6.5-9.6,6.5c-5.9,0-10.8-4.9-10.8-11.9s4.9-11.9,10.6-11.9
						c5.7,0,10.3,4.6,10.3,11.6c0,1.3-0.3,2.1-0.3,2.1h-16.5c0.3,3.4,3.4,6.5,6.7,6.5c2.8,0,4.7-1.8,5.4-2.8H1007.2z M990.9,238.7
						h12.7c-0.5-4.1-3.1-6.7-6.2-6.7C994.2,232,991.4,234.8,990.9,238.7z"/>
					<path class="st3" d="M1023.9,232.2h-1c-3.6,0-6.2,2.6-6.2,6.5v13.2h-3.9v-23.3h2.8l1,2.6c0,0,2.3-2.8,6.7-2.8h0.5V232.2z"/>
					<path class="st3" d="M1032.5,251.9h-3.9v-32.5h3.9V251.9z"/>
					<path class="st3" d="M1057,236.4v15.5h-2.8l-1-2.6c0,0-2.3,2.8-7,2.8c-4.7,0-7.8-3.1-7.8-7c0-4.4,3.1-7.5,14.7-7.5v-1.3
						c0-2.3-2.1-4.4-4.9-4.4s-4.1,1.3-4.7,3.4h-4.1c0.5-3.9,3.6-7,8.8-7S1057,232,1057,236.4z M1053.1,243.1v-1.8
						c-9.3,0-10.8,1.6-10.8,4.1c0,1.6,1.5,3.1,3.9,3.1C1050.3,248.5,1053.1,245.7,1053.1,243.1z"/>
					<path class="st3" d="M1065.4,219.6c1.4,0,2.5,1,2.5,2.5c0,1.4-1,2.4-2.5,2.4c-1.4,0-2.4-1-2.4-2.4
						C1063,220.6,1064,219.6,1065.4,219.6z M1067.3,251.9h-3.9v-23.3h3.9V251.9z"/>
					<path class="st3" d="M1093.7,238.4v13.4h-3.9v-13.4c0-3.9-2.6-6.5-5.7-6.5c-3.6,0-6.2,2.6-6.2,6.5v13.4h-3.9v-23.3h2.8l1,2.6
						c0,0,2.3-2.8,6.7-2.8C1089.6,228.4,1093.7,232.5,1093.7,238.4z"/>
					<path class="st3" d="M1119,245.7c-1.6,3.4-4.7,6.5-9.6,6.5c-5.9,0-10.8-4.9-10.8-11.9s4.9-11.9,10.6-11.9
						c5.7,0,10.3,4.6,10.3,11.6c0,1.3-0.3,2.1-0.3,2.1h-16.5c0.3,3.4,3.4,6.5,6.7,6.5c2.8,0,4.7-1.8,5.4-2.8H1119z M1102.7,238.7
						h12.7c-0.5-4.1-3.1-6.7-6.2-6.7C1106.1,232,1103.3,234.8,1102.7,238.7z"/>
				</g>
			</g>
		</g>
	</g>
	<g>
		<path class="st3" d="M299.2,180.5c0,9.7-8.8,18.6-20.7,18.6h-24.8V134H278c10.8,0,18.6,7.8,18.6,17.6c0,9.3-7.2,12.9-7.2,12.9
			S299.2,168.6,299.2,180.5z M262,161.4h16c6.2,0,10.8-4.6,10.8-9.8c0-5.7-4.6-10.3-10.8-10.3h-16V161.4z M278.5,191.9
			c7.2,0,12.4-5.2,12.4-11.9c0-6.2-5.2-11.4-12.4-11.4H262v23.2H278.5z"/>
		<path class="st3" d="M332.2,159.8h-2.1c-7.2,0-12.4,5.2-12.4,12.9v26.3H310v-46.5h5.7l2.1,5.2c0,0,4.6-5.7,13.4-5.7h1V159.8z"/>
		<path class="st3" d="M375.7,168.1v31H370l-2.1-5.2c0,0-4.6,5.7-13.9,5.7s-15.5-6.2-15.5-13.9c0-8.8,6.2-15,29.4-15v-2.6
			c0-4.6-4.1-8.8-9.8-8.8s-8.3,2.6-9.3,6.7h-8.3c1-7.8,7.2-13.9,17.6-13.9C368.5,152.1,375.7,159.3,375.7,168.1z M368,181.5v-3.6
			c-18.6,0-21.7,3.1-21.7,8.3c0,3.1,3.1,6.2,7.8,6.2C362.3,192.4,368,186.7,368,181.5z"/>
		<path class="st3" d="M392.5,134.5c2.9,0,5,2.1,5,5c0,2.8-2.1,4.9-5,4.9c-2.8,0-4.9-2.1-4.9-4.9
			C387.6,136.6,389.7,134.5,392.5,134.5z M396.4,199.1h-7.7v-46.5h7.7V199.1z"/>
		<path class="st3" d="M449.1,172.2v26.9h-7.8v-26.9c0-7.8-5.2-12.9-11.4-12.9c-7.2,0-12.4,5.2-12.4,12.9v26.9h-7.8v-46.5h5.7
			l2.1,5.2c0,0,4.6-5.7,13.4-5.7C440.8,152.1,449.1,160.3,449.1,172.2z"/>
		<path class="st3" d="M499.7,186.7c-3.1,6.7-9.3,12.9-19.1,12.9c-11.9,0-21.7-9.8-21.7-23.8c0-13.9,9.8-23.8,21.2-23.8
			s20.7,9.3,20.7,23.2c0,2.6-0.5,4.1-0.5,4.1h-33.1c0.5,6.7,6.7,12.9,13.4,12.9c5.7,0,9.3-3.6,10.9-5.7H499.7z M467.2,172.7h25.3
			c-1-8.3-6.2-13.4-12.4-13.4S468.2,165,467.2,172.7z"/>
		<path class="st3" d="M536.9,175.8h-28.4v-6.7h28.4V175.8z"/>
		<path class="st3" d="M555.5,199.1h-7.8V134h7.8V199.1z"/>
		<path class="st3" d="M607.2,186.7c-3.1,6.7-9.3,12.9-19.1,12.9c-11.9,0-21.7-9.8-21.7-23.8c0-13.9,9.8-23.8,21.2-23.8
			s20.7,9.3,20.7,23.2c0,2.6-0.5,4.1-0.5,4.1h-33.1c0.5,6.7,6.7,12.9,13.4,12.9c5.7,0,9.3-3.6,10.9-5.7H607.2z M574.6,172.7H600
			c-1-8.3-6.2-13.4-12.4-13.4S575.7,165,574.6,172.7z"/>
		<path class="st3" d="M644.3,175.8h-28.4v-6.7h28.4V175.8z"/>
		<path class="st3" d="M659.8,166.5c0,15,10.9,25.8,22.2,25.8c10.3,0,17-6.7,19.1-15h8.8c-3.6,12.4-13.4,22.2-27.9,22.2
			c-16,0-30.5-14.5-30.5-33.1c0-18.6,14.5-33.1,30.5-33.1c14,0,23.8,9.8,27.4,22.2h-8.8c-2.1-8.3-8.8-15-18.6-15
			C670.6,140.7,659.8,151.6,659.8,166.5z"/>
		<path class="st3" d="M759.5,172.2v26.9h-7.8v-26.9c0-7.8-5.2-12.9-11.4-12.9c-7.2,0-12.4,5.2-12.4,12.9v26.9h-7.8V134h7.8v24.3
			c0,0,4.6-6.2,13.4-6.2C751.2,152.1,759.5,160.3,759.5,172.2z"/>
		<path class="st3" d="M807.5,168.1v31h-5.7l-2.1-5.2c0,0-4.6,5.7-14,5.7c-9.3,0-15.5-6.2-15.5-13.9c0-8.8,6.2-15,29.4-15v-2.6
			c0-4.6-4.1-8.8-9.8-8.8s-8.3,2.6-9.3,6.7h-8.3c1-7.8,7.2-13.9,17.6-13.9S807.5,159.3,807.5,168.1z M803.4,145.4h-7.8l-5.2-7.2
			l-5.2,7.2h-7.8l9.3-12.4h7.2L803.4,145.4z M799.8,181.5v-3.6c-18.6,0-21.7,3.1-21.7,8.3c0,3.1,3.1,6.2,7.7,6.2
			C794.1,192.4,799.8,186.7,799.8,181.5z"/>
		<path class="st3" d="M824.1,140.2h6.7v12.4h10.3v7.2h-10.3v24.3c0,5.2,3.1,8.3,7.8,8.3c1.5,0,2.6-0.5,2.6-0.5v6.7c0,0-1.5,1-4.6,1
			c-7.2,0-13.4-6.2-13.4-15.5v-24.3h-8.3v-7.2h3.6c3.6,0,5.7-2.1,5.7-5.7V140.2z"/>
		<path class="st3" d="M889.3,186.7c-3.1,6.7-9.3,12.9-19.1,12.9c-11.9,0-21.7-9.8-21.7-23.8c0-13.9,9.8-23.8,21.2-23.8
			s20.7,9.3,20.7,23.2c0,2.6-0.5,4.1-0.5,4.1h-33.1c0.5,6.7,6.7,12.9,13.4,12.9c5.7,0,9.3-3.6,10.8-5.7H889.3z M856.7,172.7H882
			c-1-8.3-6.2-13.4-12.4-13.4S857.8,165,856.7,172.7z"/>
		<path class="st3" d="M935.8,168.1v31h-5.7l-2.1-5.2c0,0-4.6,5.7-14,5.7c-9.3,0-15.5-6.2-15.5-13.9c0-8.8,6.2-15,29.4-15v-2.6
			c0-4.6-4.1-8.8-9.8-8.8s-8.3,2.6-9.3,6.7h-8.3c1-7.8,7.2-13.9,17.6-13.9S935.8,159.3,935.8,168.1z M928,181.5v-3.6
			c-18.6,0-21.7,3.1-21.7,8.3c0,3.1,3.1,6.2,7.7,6.2C922.3,192.4,928,186.7,928,181.5z"/>
		<path class="st3" d="M948.7,179.5v-26.9h7.8v26.9c0,7.8,5.2,12.9,11.4,12.9c7.2,0,12.4-5.2,12.4-12.9v-26.9h7.8v46.5h-5.7
			l-2.1-5.2c0,0-4.7,5.7-13.4,5.7C957,199.6,948.7,191.3,948.7,179.5z"/>
	</g>
</g>
</svg>
