<svg xmlns="http://www.w3.org/2000/svg" width="320" height="308.334">
  <path fill="#FFF" d="M54.14 2l54.559 94.501L163.257 2z"/>
  <path fill="#698BAB" d="M315 145.319l-142.563-15.66 16.184 11.491-11.276.059-13.308.067-15.04.077-16.48.083c-5.39.027-10.968.057-16.702.084-5.693.03-11.54.059-17.507.088l-18.095.093-18.475.094-2.327.012c-.775.003-1.551.006-2.328.011l-2.332.011c-.776.005-1.553.008-2.331.011l-.584.004-.583.003c-.195.001-.39.001-.583.003l-.583.003-1.166.005-.995.002-.993.002-.973-.004-.976-.005-.954-.013c-1.269-.018-2.51-.046-3.716-.085a166.662 166.662 0 0 1-3.491-.148 128.103 128.103 0 0 1-3.218-.209 96.702 96.702 0 0 1-2.896-.273 59.634 59.634 0 0 1-2.525-.334 33.46 33.46 0 0 1-2.113-.394 17.08 17.08 0 0 1-1.662-.448 6.795 6.795 0 0 1-1.177-.501c-.314-.173-.538-.357-.673-.547a.743.743 0 0 1-.142-.59c.04-.202.165-.411.375-.625a4.293 4.293 0 0 1 1.028-.735l.147-.083.149-.083c.052-.027.105-.055.162-.083l.182-.085.176-.084c.06-.029.119-.058.179-.084.061-.029.123-.057.187-.085l.823-.339.214-.078.211-.078c.069-.025.139-.051.208-.078l.205-.077c.014-.007.032-.013.052-.02l.069-.024.077-.025c.026-.007.051-.017.077-.025l.305-.1.607-.201.15-.051.075-.026.003-.001h.003l.24-.072.546-.166.048-.016c.017-.004.033-.01.049-.015a.9.9 0 0 0 .099-.03c.076-.022.153-.045.232-.066l.239-.067c.08-.021.161-.043.24-.066l.238-.065.146-.041.143-.041.145-.041.151-.039.616-.155a70.598 70.598 0 0 1 2.577-.596 86.845 86.845 0 0 1 2.809-.549 115.059 115.059 0 0 1 6.298-.94c1.118-.14 2.269-.271 3.443-.393a239.687 239.687 0 0 1 7.219-.633c1.222-.088 2.451-.169 3.675-.242a359.204 359.204 0 0 1 7.312-.365 458.124 458.124 0 0 1 7.155-.232c.594-.015 1.178-.029 1.758-.041l1.73-.034c.576-.01 1.15-.02 1.728-.028.578-.008 1.16-.017 1.75-.023l1.786-.023 1.786-.022 1.785-.023 1.783-.025 3.56-.055a1943.697 1943.697 0 0 0 10.572-.202c1.165-.025 2.323-.053 3.477-.081a1643.812 1643.812 0 0 0 10.231-.285 1046.503 1046.503 0 0 0 6.608-.231c1.083-.043 2.159-.087 3.224-.132a619.92 619.92 0 0 0 6.256-.301 401.35 401.35 0 0 0 5.94-.361c.957-.066 1.895-.138 2.815-.21.459-.038.912-.076 1.359-.115a134.102 134.102 0 0 0 2.593-.252c.416-.045.823-.091 1.22-.139.197-.023.393-.048.585-.072.193-.025.382-.049.569-.076.187-.025.37-.052.548-.077.178-.027.353-.054.522-.082.172-.027.339-.056.501-.083a20.997 20.997 0 0 0 1.314-.265c.131-.029.254-.061.371-.091.116-.03.225-.062.326-.094a6.404 6.404 0 0 0 .573-.21l.051-.024c.017-.008.034-.017.051-.023l.049-.024a.282.282 0 0 1 .036-.024l.039-.025.038-.024.039-.024.031-.021.022-.017.018-.019a.13.13 0 0 0 .015-.017l.003-.004.004-.003.003-.005.003-.004.038-.041.016-.02.017-.017.005-.011.039-.08.04-.079.039-.079.037-.077a.809.809 0 0 0 .031-.076l.024-.076.021-.074.022-.073a1.31 1.31 0 0 0 .013-.541 1.11 1.11 0 0 0-.232-.475 1.577 1.577 0 0 0-.207-.211 2.495 2.495 0 0 0-.266-.191 3.231 3.231 0 0 0-.322-.177 5.458 5.458 0 0 0-.371-.156l-.105-.036-.102-.035-.102-.035-.107-.033-.115-.031-.113-.032-.111-.03-.106-.028a3.083 3.083 0 0 0-.124-.027l-.122-.026-.117-.024-.116-.025a2.703 2.703 0 0 0-.117-.023l-.124-.021-.124-.021-.118-.022-.111-.019-.117-.018-.119-.018a5.01 5.01 0 0 1-.121-.016l-.114-.016-.108-.016a4.365 4.365 0 0 0-.106-.013l-.107-.013c-.074-.01-.145-.015-.211-.023l-.193-.021c-.062-.006-.12-.015-.176-.02l-.165-.016-.287-.023-.204-.017c-.054-.005-.096-.009-.123-.01l-.042-.004.039.004.116.011.192.019c.076.008.164.018.265.027.051.006.102.011.155.019.052.005.106.013.163.02l.175.022.192.026.096.013.096.016.097.016.102.017c.035.005.07.01.106.017l.105.017c.035.006.069.013.103.021.033.006.067.013.098.021.292.053.569.119.821.195.255.078.484.166.682.265.199.1.365.21.489.333a.799.799 0 0 1 .237.403.766.766 0 0 1 .018.226.905.905 0 0 1-.049.242 1.441 1.441 0 0 1-.118.26 2.262 2.262 0 0 1-.271.384c-.016.017-.03.035-.044.053l-.046.054-.018.02-.018.02a.388.388 0 0 1-.019.02c-.007.008-.012.014-.02.02l-.079.077-.079.078-.081.078c-.027.025-.055.054-.083.079-.015.009-.03.022-.047.035l-.054.041-.063.041a.495.495 0 0 1-.069.035l-.146.07-.199.073a6.403 6.403 0 0 1-.48.143c-.091.024-.188.048-.291.072s-.211.046-.327.07c-.112.023-.229.045-.351.068-.123.022-.25.045-.382.067-.132.022-.27.044-.411.064a74.678 74.678 0 0 1-1.381.188l-.504.059-.523.057a122.562 122.562 0 0 1-3.459.307 234.312 234.312 0 0 1-3.867.256c-.892.052-1.805.1-2.734.146a424.56 424.56 0 0 1-5.75.246c-.984.036-1.979.071-2.984.102-1.005.034-2.021.063-3.045.093l-3.097.081c-1.04.025-2.087.049-3.143.072-1.053.022-2.114.043-3.181.063-1.065.018-2.137.038-3.214.055a1694.247 1694.247 0 0 1-9.795.122c-1.097.01-2.198.02-3.302.027-1.102.009-2.207.015-3.313.021l-3.323.015-1.664.005-1.665.005-1.667.003-1.671.002-1.718.004c-.583.001-1.175.005-1.773.008-.597.004-1.201.01-1.807.018-.606.005-1.212.012-1.819.021a497.599 497.599 0 0 0-7.556.164 422.211 422.211 0 0 0-10.234.434c-.718.039-1.445.081-2.178.127a358.73 358.73 0 0 0-4.505.309c-.768.059-1.544.121-2.327.186-.784.065-1.576.135-2.372.209a241.531 241.531 0 0 0-4.851.49c-.819.091-1.639.187-2.458.286a205.41 205.41 0 0 0-7.264 1.014 153.52 153.52 0 0 0-4.547.785c-.732.136-1.446.275-2.139.417-.698.141-1.377.283-2.034.427l-.989.218a32.11 32.11 0 0 0-.244.054l-.233.055-.23.055-.235.056-.466.11-.467.111-.458.111-.438.113-.877.225-.443.113-.481.132-.726.199-.365.102-.046.011-.046.015-.045.01-.047.014-.047.012-.048.014a1.49 1.49 0 0 0-.052.016c-.017.005-.034.009-.054.016l-1.672.501-1.474.482-.35.122-.342.123-.339.124-.341.124-.323.125c-.105.042-.208.083-.31.126a64.14 64.14 0 0 1-.618.252c-.395.168-.766.337-1.109.506-.346.17-.665.34-.956.51a9.514 9.514 0 0 0-.789.51c-.234.17-.437.339-.607.507a2.73 2.73 0 0 0-.416.501c-.106.167-.177.33-.215.491a1.158 1.158 0 0 0-.013.479c.029.158.091.313.186.466.193.305.518.599.961.875.45.282 1.022.548 1.705.8.691.252 1.494.492 2.395.713.912.224 1.923.432 3.02.623 1.11.194 2.307.371 3.581.533 1.285.163 2.65.309 4.085.44 1.447.131 2.963.245 4.544.345 1.59.099 3.243.184 4.95.251l1.292.05 1.326.039 1.33.039 1.366.026 1.373.026 1.209.019c.202.002.403.006.604.009l.604.01c.201.002.403.006.604.01.202.003.404.005.605.009l2.423.038c.809.013 1.617.025 2.425.039l2.428.038 2.429.039 19.452.307c6.517.104 12.97.205 19.328.307l18.966.301c6.27.098 12.396.196 18.342.29l18.309.29c5.925.095 11.583.184 16.928.268a69403.995 69403.995 0 0 1 28.132.447l-26.137 29.002L315 145.319z"/>
  <path fill="#E20613" d="M157.858 5.117l-49.159 85.149L59.541 5.117z"/>
  <path fill="#FFF" d="M156.339 46.285l-.053-.126c-.239-.521-.596-1.302-.596-2.331l.057-1.438c-1.007.92-2.183 1.505-3.608 1.505-1.792 0-3.249-.973-3.989-2.504-3.86 2.603-8.155 5.187-13.101 6.764-1.614.539-3.802 1.167-6.145 1.167-6.49 0-9.992-4.336-9.992-8.417 0-1.347.336-2.736 1-4.128 2.007-4.285 4.719-8.343 8.525-12.755.596-.688 1.274-1.271 1.877-1.785-.911-1.403-1.385-3.098-1.385-4.985 0-4.869 3.801-11.662 9.994-11.662 4.285 0 7.164 3.944 7.164 7.627 0 2.472-1.241 3.615-1.907 4.229-.079.074-.156.141-.231.222l-.754.809 2.957.589-1.833 3.667a3.104 3.104 0 0 1-.049.173c-.2.637-.568 1.815-1.755 2.607-.679.481-1.448.854-2.127 1.184-.256.125-.505.245-.75.374-2.921 1.503-4.933 4.172-6.36 6.331-2.084 3.184-3.102 5.065-3.6 6.138h.556c1.99-.735 3.993-1.485 5.888-2.328 2.901-1.295 5.823-2.716 8.65-4.091a717.438 717.438 0 0 1 3.334-1.617l.043-.536.281-2.354c.355-2.607 2.291-4.334 4.823-4.334 1.602 0 2.92.693 3.73 1.848 1.008-.715 2.257-1.291 3.598-1.291 2.522 0 4.288 1.954 4.288 4.751 0 .568-.064 1.086-.119 1.502a1289.61 1289.61 0 0 1-1.717 13.341c-.132 1.179-.811 2.08-1.214 2.62l-3.473 4.629-2.007-5.395zm-18.552-28.946c.354.064.83.12 1.08.148l.31.036-.267-.489a9.568 9.568 0 0 1-.694-1.542c-.226.56-.404 1.228-.429 1.847"/>
  <path fill="#FFF" d="M128.903 46.975c-4.966 0-7.646-3.126-7.646-6.069 0-.994.26-2.043.772-3.118 1.92-4.099 4.521-7.987 8.184-12.233.491-.567 1.088-1.076 1.668-1.569.544-.463 1.453-1.238 1.48-1.541 0-.086-.089-.318-.328-.558-1.151-1.15-1.758-2.752-1.758-4.635 0-3.798 2.979-9.314 7.647-9.314 2.838 0 4.817 2.782 4.817 5.28 0 1.443-.611 2.007-1.151 2.504-.116.107-.237.218-.359.35l-.74.792-.518-.953c-.364-.665-.698-1.385-.698-2.138 0-.119.013-.253.027-.387.009-.074.019-.148.019-.215 0-.912-.956-1.305-1.26-1.305-2.379 0-3.623 3.658-3.623 5.619 0 1.885 1.025 2.087 3.16 2.333.534.062 1.084.126 1.609.243.293.08.553.18.806.281.246.098.477.189.66.226l1.004.2-.458.917a3.687 3.687 0 0 0-.192.525c-.149.479-.319 1.02-.816 1.353-.577.407-1.228.723-1.857 1.028a24.43 24.43 0 0 0-.81.404c-3.386 1.741-5.641 4.715-7.227 7.114-2.959 4.522-4.461 7.437-4.461 8.658 0 1.015 1.516 1.167 2.418 1.167.092-.023.196-.045.324-.045h.484l.089.176.388-.144c2.154-.795 4.38-1.615 6.513-2.564 2.925-1.304 5.873-2.737 8.724-4.124a724.999 724.999 0 0 1 3.918-1.896c.211-.093.417-.157.607-.203.056-.634.109-1.264.156-1.885l.282-2.354c.191-1.402 1.146-2.266 2.492-2.266 1.419 0 2.267.934 2.267 2.498 0 .597-.061 1.206-.12 1.795a24.57 24.57 0 0 0-.104 1.245l1.62-2.781.031-.042c.65-.834 2.208-2.157 3.634-2.157 1.196 0 1.941.921 1.941 2.404 0 .419-.05.821-.1 1.209a1290.15 1290.15 0 0 1-1.715 13.319c-.067.596-.454 1.111-.764 1.524l-.895 1.193-.508-1.367c-.037-.109-.091-.22-.143-.337-.161-.35-.361-.786-.361-1.302.03-.69.057-1.353.084-2.022.116-2.834.233-5.745.543-8.581l-.146.241a46.143 46.143 0 0 0-.954 1.84c-1.473 2.926-3.141 6.243-5.425 6.243-1.32 0-2.173-1.017-2.173-2.591 0-.573.018-1.153.046-1.704-4.806 3.356-9.787 6.787-15.676 8.665-1.464.488-3.42 1.054-5.428 1.054"/>
  <path fill="#678BAA" d="M160.581 27.967c-1.02 0-2.365 1.019-3.015 1.855l-1.81 3.106c-.184.325-.695.604-1.02.834-.047-.37-.232-.834-.232-1.206 0-1.112.232-2.318.232-3.433 0-.88-.325-1.715-1.484-1.715-.927 0-1.577.558-1.716 1.577l-.277 2.319c-.062.822-.137 1.661-.211 2.503a3.1 3.1 0 0 0-.996.232c-4.174 1.995-8.395 4.128-12.661 6.03-2.504 1.113-5.102 2.04-7.605 2.969l-.187-.371c-.093 0-.185.046-.325.046-2.133 0-3.2-.741-3.2-1.949 0-1.948 2.921-6.539 4.592-9.09 1.994-3.015 4.267-5.704 7.513-7.374.881-.464 1.81-.835 2.599-1.392.417-.278.462-1.02.741-1.577-.463-.093-.974-.371-1.484-.511-2.273-.509-5.38.048-5.38-3.338 0-2.319 1.438-6.4 4.406-6.4.697 0 2.042.696 2.042 2.087 0 .186-.046.417-.046.602 0 .603.324 1.253.602 1.764.649-.696 1.299-.928 1.299-2.32 0-2.041-1.623-4.499-4.034-4.499-3.99 0-6.866 4.916-6.866 8.533 0 1.578.465 3.015 1.53 4.082.372.371.557.788.557 1.113 0 1.021-2.133 2.227-3.338 3.619-3.2 3.71-5.983 7.605-8.07 12.058-.463.973-.696 1.901-.696 2.782 0 2.784 2.597 5.287 6.863 5.287 1.763 0 3.525-.462 5.194-1.019 6.313-2.012 11.541-5.828 16.798-9.492a43.988 43.988 0 0 0-.148 3.276c0 .881.325 1.809 1.391 1.809 2.272 0 4.222-5.056 5.705-7.699.463-.787.974-1.484 1.577-2.272.14.093.186.186.326.186-.65 4.173-.743 8.672-.928 12.847 0 .51.324.974.463 1.393.279-.373.603-.789.649-1.208.604-4.451 1.159-8.857 1.715-13.309.046-.372.093-.744.093-1.114-.001-.741-.232-1.621-1.158-1.621"/>
  <path fill="#FFF" d="M183.167 55.198c-.027-.051-.059-.1-.088-.149-.284-.476-.758-1.272-.758-2.356v-.309l.06-.303c.055-.274.112-.547.171-.819-.134.05-.254.093-.36.13-.065.023-.128.043-.187.066l-2.791 1.118s-1.235-2.789-1.246-2.809c-.209.472-.387.956-.532 1.447-.736 2.367-2.658 4.874-5.168 4.874-2.451 0-4.371-2.327-4.371-5.297v-.579l.042-.251c.661-4.021 1.411-7.91 2.059-11.183.477-2.478 2.552-4.09 5.284-4.09 1.617 0 3.325.913 4.074 2.873.753-.465 1.609-.786 2.604-.786.685 0 1.438.175 2.119.721.982-.999 2.37-1.929 4.421-1.929 1.566 0 3.006 1.109 3.791 2.692h1.787l-.981 3.881c-.297 1.184-.552 2.421-.819 3.732-.567 2.771-1.154 5.634-2.239 8.177-.415 1.21-1.352 1.872-1.825 2.207-.05.035-.102.069-.146.105l-3.312 2.899-1.589-4.062z"/>
  <path fill="#678BAA" d="M187.107 52.97c-.093.417-.694.696-1.065 1.02-.186-.463-.603-.926-.603-1.298.417-2.087.974-4.129 1.438-6.122l1.021-4.545c0-.278-.094-.603-.141-.881-.278.093-.697.093-.88.279-1.717 1.901-3.016 4.267-4.64 6.399-.277.418-.928.557-1.392.742-.184-.417-.463-.834-.463-1.252 0-1.438.649-2.921.649-4.359 0-.418-.187-.789-.279-1.16-2.968 1.901-5.287 5.102-6.306 8.533-.418 1.345-1.439 2.644-2.18 2.644-.557 0-1.254-.835-1.254-2.18v-.324c.603-3.664 1.298-7.329 2.043-11.085.23-1.205 1.204-1.576 2.225-1.576 1.067 0 1.346 1.066 1.346 2.041 0 .742-.278 1.484-.278 2.318 0 .417.138.881.185 1.345.51-.232 1.065-.232 1.391-.556 1.346-1.021 2.738-3.061 4.036-3.061.604 0 1.021 2.18 1.113 3.339.51-.649 1.113-.927 1.577-1.484 1.206-1.438 1.901-3.062 3.852-3.062.415 0 1.296.975 1.296 2.228v.417c.046 0 .14.047.278.047-.973 3.847-1.484 8.207-2.969 11.593"/>
  <path fill="#FFF" d="M199.629 57.154c-2.021 0-3.21-1.48-3.649-2.061a7.094 7.094 0 0 1-.451-.613 6.476 6.476 0 0 1-1.788.263c-3.074 0-5.391-2.458-5.391-5.716 0-4.195 2.256-8.597 5.746-11.214.922-.689 1.935-1.079 2.829-1.422.406-.156.79-.303 1.08-.448l.832-.416.922.107c4.221.491 5.726 3.359 5.726 5.879 0 .375-.044.806-.14 1.357a250.75 250.75 0 0 0-1.091 7.968c-.207 1.871-.701 6.316-4.625 6.316"/>
  <path fill="#678BAA" d="M202.367 41.515c0 .232-.048.557-.094.834a248.254 248.254 0 0 0-1.113 8.118c-.187 1.668-.418 3.57-1.531 3.57-.416 0-.787-.323-1.204-.88-1.3-1.531-.464-2.922-1.254-2.922-.277 0-1.855 1.391-3.432 1.391-1.391 0-2.272-1.159-2.272-2.598 0-3.338 1.902-6.771 4.5-8.719.927-.695 2.318-1.019 3.432-1.576 1.994.231 2.968 1.159 2.968 2.782m-4.176.092c-.415 0-.835.093-1.066.325-1.205 1.67-3.293 4.453-3.293 5.75 0 .233.232 1.067.788 1.067 1.484 0 3.433-3.804 4.778-5.982-.556-.882-.603-1.16-1.207-1.16"/>
  <path fill="#FFF" d="M202.404 56.537c-.058-.106-.132-.217-.204-.332-.437-.678-1.097-1.705-1.097-3.049v-.113l.008-.113c.143-1.949.409-3.847.666-5.685.095-.684.191-1.368.28-2.051.038-.311.068-.739.103-1.231.269-3.615.765-10.344 6.143-10.344 1.076 0 2.001.339 2.771 1.011 1.295-1.767 3.038-3.654 5.715-3.654 1.805 0 3.135.967 3.947 2.875.035.081.067.168.114.251l.815 1.158-.362 1.333c-.074.302-.14.615-.207.921-.417 1.934-1.115 5.17-4.308 5.17a3.62 3.62 0 0 1-1.165-.189 55.65 55.65 0 0 0-2.354 4.171c-.603 1.229-1.086 2.585-1.598 4.022-.366 1.026-.742 2.088-1.187 3.154-.928 2.226-2.171 3.041-3.364 3.686a9.338 9.338 0 0 0-.387.213l-2.791 1.65-1.538-2.854z"/>
  <path fill="#678BAA" d="M216.789 39.566c-.695 0-1.065-1.391-1.622-1.391-.789 0-3.619 4.962-4.685 7.095-1.159 2.366-1.854 4.917-2.877 7.375-.694 1.669-1.436 1.809-2.457 2.412-.326-.603-.927-1.299-.927-1.901.186-2.551.601-5.056.927-7.561.279-2.226.188-8.858 3.154-8.858 1.253 0 1.809 2.088 2.087 3.571.556-.51 1.113-1.019 1.576-1.577 1.347-1.669 2.783-4.638 4.823-4.638.975 0 .929.975 1.484 1.763-.414 1.716-.646 3.71-1.483 3.71"/>
  <path fill="#FFF" d="M220.221 55.624c-3.122 0-6.456-2.183-6.456-8.312 0-4.178 1.64-7.538 4.871-9.99 1.722-1.455 3.686-1.614 4.462-1.614 2.101 0 4.554 1.303 4.554 4.973v.417c0 1.265-.354 2.124-.612 2.75-.056.13-.112.266-.168.42l-.66 1.872c1.316.629 1.997 1.974 1.997 3.306-.001 3.832-5.173 6.178-7.988 6.178"/>
  <path fill="#678BAA" d="M223.931 43.23c-.647-.927-.975-1.531-1.39-1.531-.233 0-.513.185-.789.511-1.392 1.901-1.811 4.082-1.811 6.353 0 .928.742 1.439 1.578 1.439.928 0 2.133-1.113 2.969-1.113.278 0 .603 0 .603.557 0 1.484-3.153 3.06-4.87 3.06-3.06 0-3.338-3.664-3.338-5.194 0-2.921.973-5.519 3.709-7.559.789-.696 1.809-.927 2.506-.927 1.02 0 1.437.602 1.437 1.855v.417c-.001.881-.325 1.343-.604 2.132"/>
  <path fill="#FFF" d="M236.501 59.751c-2.222 0-4.463-1.623-4.463-5.25 0-.738.062-1.507.179-2.221.059-.386.121-.776.183-1.17l-.547.864c-.616.914-1.904 1.98-3.516 1.98a3.766 3.766 0 0 1-2.725-1.145c-1.387-1.424-1.332-3.469-1.287-5.112.006-.233.014-.458.014-.665 0-1.05.03-2.443.276-3.901.666-3.983 1.466-7.993 2.238-11.872a525.763 525.763 0 0 0 1.709-8.853l.022-.124.031-.122c.047-.169.099-.621.137-.951.152-1.358.625-5.494 4.407-5.494 2.417 0 4.786 2.51 4.786 5.067 0 .479-.063.947-.117 1.258-.392 4.33-1.179 8.443-1.979 12.425.36-.068.746-.105 1.16-.105 2.389 0 4.345 2.12 5.008 4.408h.918l-.577 3.609c-.106.667-.211 1.336-.314 2.005-.251 1.61-.51 3.266-.815 4.944 1.526.973 1.729 2.464 1.729 3.177v1.024l-.51.777c-.158.24-.33.528-.516.835-1.238 2.057-2.781 4.612-5.431 4.612"/>
  <path fill="#678BAA" d="M237.984 49.724c-.093.556-.14.927-.14 1.206 0 1.066 1.996.417 1.996 1.576v.094c-.883 1.345-2.228 4.035-3.34 4.035-.929 0-1.346-.835-1.346-2.134 0-.556.047-1.159.138-1.716.511-3.339 1.115-6.632 1.486-9.972 0-.139.046-.278.046-.464 0-.742-.278-1.484-.371-2.318-.65.65-1.53 1.206-1.948 1.902-1.765 2.735-3.479 5.518-5.241 8.301-.187.278-.603.603-.928.603-1.159 0-.881-2.318-.881-3.804 0-1.159.046-2.271.231-3.386 1.16-6.911 2.69-13.774 3.942-20.685.37-1.392.139-4.127 1.53-4.127.65 0 1.669 1.112 1.669 1.949 0 .278-.046.602-.092.834-.556 6.307-1.996 12.151-3.107 18.134v.231c0 .511.092.975.139 1.346.465-.278 1.022-.511 1.347-.928 1.298-1.206 1.899-2.922 3.896-2.922.881 0 2.132 1.531 2.132 2.922 0 .463-.093.975-.093 1.438.093.046.188.046.232.046-.416 2.598-.787 5.195-1.297 7.839"/>
  <path fill="#FFF" d="M245.636 57.99c-6.348 0-6.864-6.011-7.034-7.987l-.026-.313.002-.165c.121-6.33 2.937-16.37 9.98-16.37 3.392 0 5.946 2.477 5.946 5.762 0 2.235-1.366 4.433-2.466 6.2-.17.274-.331.533-.474.771a8.848 8.848 0 0 1-1.513 1.821c1.939.252 3.34 1.792 3.34 3.778.001 3.97-4.591 6.503-7.755 6.503"/>
  <path fill="#678BAA" d="M248.558 36.273c1.531 0 2.829.975 2.829 2.644 0 1.624-1.622 3.895-2.503 5.381-1.114 1.807-3.48 2.457-3.48 4.822 0 .882-.139 2.18 1.394 2.18.927 0 1.761-.51 2.689-.51.511 0 .788.231.788.696 0 1.9-2.876 3.385-4.639 3.385-3.57 0-3.757-3.154-3.941-5.288.091-4.821 2.32-13.31 6.863-13.31m.185 2.598c-1.02 0-1.669 2.644-2.04 3.71 0 .048-.046.048-.046.093 0 .187.324.603.556.603.696 0 1.717-2.272 2.412-3.339-.325-.418-.604-1.067-.882-1.067"/>
  <path fill="#FFF" d="M124.996 106.868c-4.623 0-7.382-3.833-7.382-10.25 0-5.706 2.146-10.096 6.563-13.417 1.406-1.208 3.366-1.925 5.266-1.925 1.041 0 4.44.366 4.44 5.086v.646c0 1.441-.4 2.407-.753 3.258-.099.241-.206.494-.306.778l-1.437 4.064-2.47-3.532c-.142-.201-.274-.395-.397-.575-1.179 2.019-1.735 4.445-1.737 7.528.046.015.122.03.221.03.234-.028.945-.406 1.369-.634.955-.509 2.04-1.087 3.222-1.087 2.324 0 3.15 1.659 3.15 3.077-.001 4.018-6.412 6.953-9.749 6.953"/>
  <path fill="#E20613" d="M130.733 90.305c-1.003-1.434-1.507-2.366-2.152-2.366-.358 0-.788.288-1.219.789-2.152 2.941-2.798 6.312-2.798 9.826 0 1.435 1.148 2.224 2.439 2.224 1.436 0 3.3-1.721 4.591-1.721.43 0 .933 0 .933.86 0 2.295-4.878 4.734-7.531 4.734-4.734 0-5.164-5.667-5.164-8.033 0-4.518 1.506-8.535 5.738-11.69 1.219-1.075 2.796-1.434 3.873-1.434 1.579 0 2.224.931 2.224 2.869v.646c-.001 1.361-.503 2.078-.934 3.296"/>
  <path fill="#FFF" d="M134.789 108.708c-.108-.156-.23-.321-.356-.493-.51-.695-1.103-1.502-1.455-2.422h-1.04l.571-2.679c.561-2.641 1.032-5.175 1.528-7.859l.396-2.129c.118-.656.186-1.569.261-2.538.288-3.832.77-10.245 6.583-10.245 2.804 0 5.085 2.313 5.085 5.157v.608l-.056.242c-1.567 6.893-3.282 13.768-4.602 18.987-.621 2.355-2.884 3.485-4.099 4.094l-1.721.859-1.095-1.582zm8.781-31.963c-1.217 0-2.107-.877-3.237-1.986-.168-.167-.312-.313-.41-.397l-.8-.687.007-1.074c.1-3.595 2.054-5.742 5.229-5.742 2.699 0 4.584 1.59 4.584 3.866h-4.436 2.218l-.004 2.204c.944 0 1.667-.6 1.939-1.158l-.087.193c-.646 1.43-2.158 4.781-5.003 4.781"/>
  <path fill="#E20613" d="M136.612 93.534c.646-3.587-.143-10.973 4.664-10.973 1.649 0 2.868 1.362 2.868 2.94v.358c-1.436 6.312-3.013 12.694-4.591 18.936-.359 1.362-1.936 2.151-2.941 2.653-.644-.932-1.721-2.151-1.721-3.228v-.503s-.072-.141-.215-.141c.718-3.372 1.292-6.6 1.936-10.042m7.747-24.457c1.363 0 2.366.572 2.366 1.648 0-.286-1.363 3.802-3.155 3.802-.43 0-1.792-1.506-2.224-1.865.071-2.582 1.219-3.585 3.013-3.585"/>
  <path fill="#FFF" d="M154.113 110.598c-3.329 0-4.547-3.998-4.649-6.096h-.827l.499-2.631c.522-2.747 1.046-7.531 1.552-12.159.515-4.716 1.05-9.594 1.603-12.515.052-.314.143-.68.238-1.052.089-.349.169-.664.206-.952-.214.03-.475.082-.729.133-.632.126-1.348.271-2.126.271-1.879 0-3.595-1.477-3.908-3.361l-.029-.18v-.184c0-3.021 3.23-3.698 4.783-4.022.225-.047.444-.094.648-.142l.136-.028c2.785-.481 3.18-1.175 3.18-3.48 0-.282-.015-.593-.031-.914-.02-.411-.04-.836-.04-1.238 0-5.103 2.678-8.53 6.663-8.53 1.143 0 3.797.447 3.797 4.585 0 .853-.099 1.908-.189 2.926a70.188 70.188 0 0 0-.138 1.67c.271-.121.553-.255.784-.366 1.41-.668 3.006-1.428 4.711-1.428.526 0 1.013.101 1.4.181.113.023.223.047.329.065l3.812.636-2.475 2.97c-.024.042-.062.124-.104.203-.228.438-.574 1.101-1.302 1.585-.782.538-1.666 1.088-2.604 1.671-2.361 1.467-5.933 3.685-6.287 5.286-.512 2.329-1 6.706-1.472 10.939-.46 4.123-.896 8.038-1.393 10.648 1.269.504 2.631 1.937 2.631 3.249v.399l-.14.374c-.28.752-.49 1.58-.713 2.456-.643 2.522-1.368 5.379-4.063 7.396-.749.64-2.296 1.635-3.753 1.635"/>
  <path fill="#E20613" d="M154.471 77.611c.144-.861.502-1.721.502-2.726 0-1.292-.646-1.937-1.936-1.937-.932 0-2.081.431-3.156.431-.717 0-1.578-.647-1.721-1.508 0-1.433 2.222-1.648 3.729-2.008 3.73-.645 5.021-2.15 5.021-5.665 0-.646-.072-1.435-.072-2.152 0-2.797 1.077-6.313 4.445-6.313 1.436 0 1.578 1.219 1.578 2.367 0 1.507-.357 3.946-.357 5.452 0 1.219.357 1.721 1.29 1.721 1.578 0 4.231-2.152 6.454-2.152.431 0 .934.145 1.363.216-.358.43-.501 1.076-.933 1.363-3.441 2.366-9.108 5.092-9.824 8.32-1.076 4.876-1.938 17.355-3.013 22.305-.072.359-.144.646-.144.933 0 .573.217.931 1.005.931.144 0 .358 0 .574-.072.287 0 1.291.933 1.291 1.219-1.148 3.084-1.148 6.743-4.088 8.894-.646.575-1.723 1.147-2.366 1.147-1.795 0-2.438-3.228-2.438-4.16 0-.645.07-1.29.07-1.866-.143 0-.287-.07-.429-.07 1.075-5.663 2.079-19.004 3.155-24.67"/>
  <path fill="#FFF" d="M171.107 109.092c-3.603 0-7.452-3.07-7.452-11.686v-.094l.009-.094c.261-3.078 2.739-15.514 9.309-15.514.727 0 1.474.187 2.141.535.251-.362.556-.646.863-.907.11-.094.237-.201.379-.342l1.567-1.566 1.567 1.566c2.546 2.545 2.871 6.66 2.871 9.96 0 7.398-4.382 18.142-11.254 18.142m4.055-18.826c-1.554 2.727-2.611 6.401-2.692 9.611 1.598-3.752 2.501-6.977 2.692-9.611"/>
  <path fill="#E20613" d="M172.973 83.923c.935 0 2.151.645 2.151 1.865 0 .43-.143.932-.357 1.148-2.869 3.441-4.52 9.037-4.52 13.34 0 1.004.86 2.223 1.291 3.227.932-.644 2.296-1.075 2.584-1.864 1.72-3.874 3.298-8.463 3.298-12.408 0-1.506-.718-3.083-.718-4.734 0-1.147.431-1.147 1.22-1.936 2.008 2.007 2.223 5.666 2.223 8.391 0 7.028-4.159 15.923-9.037 15.923-3.154 0-5.234-3.514-5.234-9.468.286-3.371 2.725-13.484 7.099-13.484"/>
  <path fill="#FFF" d="M180.216 143.088c-.632 0-1.294-.066-1.911-.188-.489.044-.94.044-1.317.044-7.338 0-11.58-4.569-15.323-8.598l-.08-.089c-.743-.895-.793-1.976-.832-2.766-.007-.15-.014-.299-.027-.442l-.273-2.727 2.724.303c.16.018.319.022.476.028.535.02 1.203.045 1.923.317l1.284.518c3.786 1.54 8.081 3.283 10.775 3.283 2.333 0 5.003-.75 7.107-6.313 1.631-4.267 2.8-8.763 3.934-13.11a259.432 259.432 0 0 1 1.674-6.222c.108-.38.229-.777.354-1.189.313-1.042.656-2.171.867-3.235a5.14 5.14 0 0 1-2.101.436c-6.083 0-6.863-8.021-7.156-11.04l-.871-9.075v-1.039c0-2.009 1.293-3.392 2.063-4.218.137-.146.268-.284.373-.412l1.626-1.992 1.73 1.903c.145.158.309.318.478.484.808.793 1.912 1.88 2.031 3.42.178 2.05.308 4.162.431 6.204.097 1.578.195 3.2.32 4.8a155.447 155.447 0 0 0 3.125-8.063c.754-2.371 2.673-3.77 5.242-3.77 2.959 0 4.945 2.245 4.945 5.587v.13l-.016.129a162.011 162.011 0 0 0-.49 5.066c-.273 3.159-.558 6.424-1.186 9.656-1.577 7.957-3.559 17.29-6.297 26.261-1.913 6.415-8.2 15.919-15.602 15.919"/>
  <path fill="#E20613" d="M176.987 140.727c-6.31 0-9.969-3.873-13.698-7.89-.357-.429-.286-1.291-.357-2.007.646.071 1.29 0 1.863.215 4.447 1.792 9.396 3.945 12.839 3.945 4.231 0 7.174-2.439 9.182-7.746 2.438-6.384 3.801-12.981 5.664-19.508.574-2.008 1.508-4.59 1.508-6.814 0-.646-.288-1.219-.359-1.864-2.152.932-2.652 1.864-4.159 1.864-3.3 0-4.447-3.873-4.949-9.037l-.861-8.965v-.933c0-1.434 1.292-2.438 1.938-3.227.718.789 1.863 1.65 1.938 2.582.356 4.088.501 8.249.857 12.337.073 1.075.863 2.008 1.222 2.94.86-.789 2.009-1.505 2.438-2.438a158.05 158.05 0 0 0 3.657-9.325c.503-1.578 1.648-2.294 3.153-2.294 2.082 0 2.726 1.72 2.726 3.37-.572 4.877-.715 9.755-1.647 14.559-1.722 8.68-3.657 17.573-6.24 26.036-1.863 6.239-7.602 14.345-13.483 14.345a7.744 7.744 0 0 1-1.794-.215c-.506.07-1.006.07-1.438.07"/>
  <path fill="#FFF" d="M210.552 110.525c-7.428 0-8.006-6.732-8.285-9.967l-.03-.351.003-.118c.137-7.129 3.559-22.759 12.83-22.759 3.821 0 6.593 2.652 6.593 6.307 0 2.714-1.899 5.766-3.426 8.219a69.17 69.17 0 0 0-.756 1.232c-.84 1.363-1.934 2.316-2.9 3.155-1.465 1.277-2.17 1.944-2.17 3.17l-.004.342c-.002.229-.004.561.014.812.389-.016.854-.15 1.391-.305.778-.226 1.665-.482 2.694-.482 2.024 0 3.437 1.354 3.437 3.293-.002 4.48-5.652 7.452-9.391 7.452"/>
  <path fill="#E20613" d="M215.069 79.547c2.369 0 4.376 1.506 4.376 4.089 0 2.51-2.51 6.024-3.873 8.319-1.722 2.797-5.378 3.802-5.378 7.458 0 1.364-.216 3.373 2.15 3.373 1.435 0 2.725-.79 4.16-.79.789 0 1.22.357 1.22 1.076 0 2.939-4.448 5.236-7.173 5.236-5.521 0-5.808-4.877-6.097-8.177.147-7.459 3.59-20.584 10.615-20.584m.288 4.017c-1.578 0-2.582 4.087-3.155 5.737 0 .073-.072.073-.072.144 0 .287.502.932.862.932 1.074 0 2.652-3.513 3.729-5.163-.502-.646-.933-1.65-1.364-1.65"/>
  <path fill="#FFF" d="M233.404 111.303c-.043-.135-.113-.274-.181-.418-.273-.597-.648-1.413-.648-2.434l.001-.097c.047-1.01.087-2.033.129-3.063.112-2.741.226-5.528.411-8.306-2.257 4.429-4.858 8.95-8.651 8.95-2.613 0-4.368-2.015-4.368-5.014 0-2.851.259-5.787.511-8.626.102-1.134.2-2.262.283-3.371l.439-3.688c.366-2.681 2.27-4.392 4.854-4.392 2.744 0 4.515 1.913 4.515 4.872 0 .128-.003.255-.006.384l.321-.552.091-.118c1.165-1.497 3.832-3.726 6.412-3.726 1.997 0 4.012 1.462 4.012 4.728 0 .711-.081 1.362-.161 1.992-.819 6.553-1.699 13.538-2.657 20.611-.13 1.17-.853 2.132-1.379 2.834l-2.59 3.445-1.338-4.011z"/>
  <path fill="#E20613" d="M233.286 91.812c-2.295 4.088-5.306 11.905-8.821 11.905-1.65 0-2.152-1.432-2.152-2.796 0-3.873.502-7.959.79-11.833l.43-3.587c.214-1.578 1.22-2.438 2.652-2.438 1.796 0 2.298 1.291 2.298 2.654 0 1.722-.358 3.585-.358 5.307 0 .575.287 1.292.358 1.865.5-.359 1.29-.789 1.578-1.291l2.796-4.806c1.005-1.292 3.084-2.869 4.661-2.869 1.436 0 1.793 1.363 1.793 2.51 0 .575-.071 1.147-.144 1.721-.86 6.885-1.721 13.7-2.653 20.584-.072.646-.573 1.292-1.005 1.865-.214-.645-.717-1.363-.717-2.152.288-6.454.431-13.412 1.436-19.867-.216 0-.287-.143-.503-.287-.933 1.22-1.721 2.296-2.439 3.515"/>
  <path fill="#FFF" d="M253.141 110.67c-3.756 0-7.442-4.952-7.442-9.997 0-4.311 3.511-7.321 8.537-7.321 5.129 0 6.309 3.766 7.013 6.015l.188.601v.342c-.001 3.843-4.715 10.36-8.296 10.36m.469-23.093c-.349-.957-.774-1.787-1.185-2.589l-.652-1.295.182-.781c3.646-15.624 8.134-28.556 12.887-42.245.824-2.374 1.656-4.766 2.489-7.194.499-1.449.972-3.253 1.47-5.163 1.851-7.085 4.153-15.904 10.837-15.904 5.226 0 7.563 3.068 7.563 6.107a9.12 9.12 0 0 1-.477 2.888c-1.738 4.737-3.446 9.539-5.098 14.181-5.982 16.824-12.167 34.22-20.317 49.947l-.041.079-.048.076c-.792 1.267-2.233 1.972-3.504 2.594-.328.161-.654.319-.961.487L254.492 90l-.882-2.423z"/>
  <path fill="#E20613" d="M253.141 108.451c-2.429 0-5.226-3.89-5.226-7.778 0-3.039 2.554-5.104 6.32-5.104 3.646 0 4.254 2.432 4.984 4.741.001 2.916-4.012 8.141-6.078 8.141m16.287-74.258c2.31-6.685 3.767-19.569 10.21-19.569 3.524 0 5.347 1.702 5.347 3.89 0 .729-.121 1.459-.363 2.188-7.901 21.512-14.95 43.876-25.28 63.807-.609.973-2.31 1.581-3.646 2.31-.487-1.337-1.093-2.431-1.581-3.403 4.252-18.232 9.721-32.937 15.313-49.223"/>
  <path fill="#FFF" d="M99.503 39.939c-8.445 0-15.317-6.869-15.317-15.315S91.058 9.308 99.503 9.308s15.316 6.871 15.316 15.316-6.871 15.315-15.316 15.315"/>
  <path fill="#FFF" d="M62.373 148.436c-.989 0-1.972-.15-2.923-.445-2.724-.845-5.085-2.796-6.649-5.495-1.403-2.422-2.093-5.211-1.944-7.858.163-2.934 1.297-5.262 3.282-6.735.236-.172.449-.305.666-.433l1.84-1.128c1.209-.797 2.712-1.807 4.443-3.2a54.706 54.706 0 0 0 5.845-5.455 57.088 57.088 0 0 0 5.729-7.36 51.838 51.838 0 0 0 4.364-8.285c1.051-2.59 1.858-5.268 2.329-7.732.457-2.35.556-4.314.56-5.55-.002-.089-.014-.192-.025-.316l-.012-.122c-.092-.969-.247-2.623-.013-4.459l-.196.001c-4.716 0-10.426-2.625-13.576-6.241-2.09-2.398-2.996-5.1-2.622-7.812 1.59-11.524 17.456-26.379 19.438-27.613l.391-.243.439-.122c.36-.097.719-.153 1.071-.169.526-.997 1.435-2.052 2.95-3.049 1.683-1.096 3.807-1.959 6.006-2.444a4.938 4.938 0 0 1 1.172-.225c.885-.139 1.767-.21 2.619-.21 1.875 0 3.645.35 5.118 1.011 2.849 1.266 4.611 3.604 4.709 6.253a6.09 6.09 0 0 1-.009.794l-.154 2.126-.4 3.036-.125.901-.235 1.228a33.884 33.884 0 0 0 2.658 2.639c4.166 3.658 8.386 5.64 10.007 6.322l1.162.503c.109.045.263.095.413.146.144.048 1.701.589 2.046.71.755.21 1.223.325 1.271.335.319.085.546.161.774.254 1.914.833 3.275 2.384 3.983 4.504.647 1.957.706 4.171.167 6.242-.615 2.361-1.994 4.319-3.88 5.515-1.292.82-2.752 1.255-4.218 1.255a7.058 7.058 0 0 1-2.771-.56 7.211 7.211 0 0 1-.514-.23c-.382-.168-.947-.467-1.939-.997l-.097-.055c-.588-.352-2.394-1.441-2.394-1.441a22.03 22.03 0 0 1-.976-.61l-1.338-.944c-3.143-2.188-6.312-5.026-9.048-8.073l-.19.45c-2.519 6.009-5.706 11.175-7.382 13.717-.229.346-.457 1.163-.524 1.748a43.166 43.166 0 0 1 4.428 2.992c2.683 2.054 5.406 4.625 7.871 7.434 2.603 2.99 5.085 6.456 7.187 10.028a76.336 76.336 0 0 1 5.329 11.181 75.324 75.324 0 0 1 3.1 10.498c.661 3.035 1.005 5.612 1.254 7.733l.263 2.961c.025.366.028.68.011 1.04-.1 3.014-1.642 5.771-4.226 7.534-1.851 1.26-4.093 1.924-6.488 1.924-.646 0-1.305-.05-1.956-.146-2.761-.409-5.374-1.605-7.354-3.369-2.197-1.959-3.312-4.298-3.227-6.767.015-.295.042-.541.076-.786l.263-2.146c.13-1.443.275-3.249.266-5.471a55.148 55.148 0 0 0-.63-7.967 57.416 57.416 0 0 0-2.188-9.069 51.75 51.75 0 0 0-3.764-8.571 44.543 44.543 0 0 0-1.742-2.843 58.28 58.28 0 0 1-.858 7.435c-.72 3.905-1.886 8.005-3.371 11.871a75.728 75.728 0 0 1-5.428 11.132 75.168 75.168 0 0 1-6.281 8.963c-1.993 2.447-3.864 4.384-5.272 5.799l-2.15 2.047a9.407 9.407 0 0 1-.787.644 9.396 9.396 0 0 1-5.624 1.84"/>
  <path fill="#FFF" d="M126.55 67.243c-.493-1.473-1.402-2.535-2.648-3.079a3.755 3.755 0 0 0-.431-.142c-.009-.002-.544-.13-1.426-.378l-2.07-.718c-.205-.07-.418-.141-.62-.223l-1.138-.494c-1.726-.727-6.221-2.836-10.651-6.728a36.465 36.465 0 0 1-3.627-3.719c.049-.239.097-.475.139-.7l.305-1.587.112-.827.393-2.967.149-2.064c.014-.181.014-.362.004-.531-.063-1.733-1.307-3.302-3.324-4.198-1.174-.527-2.612-.806-4.158-.806-.768 0-1.565.068-2.368.201a2.609 2.609 0 0 0-.8.154c-1.971.42-3.865 1.178-5.341 2.139-1.721 1.133-2.577 2.38-2.543 3.747.007.107.028.213.049.321-.523-.488-1.075-.637-1.533-.637a2.58 2.58 0 0 0-.663.091l-.111.03-.099.061c-1.799 1.122-16.895 15.368-18.354 25.944-.28 2.02.436 4.077 2.067 5.949 2.699 3.098 7.775 5.435 11.806 5.435 1.511 0 2.724-.335 3.617-.986-.293.777-.479 1.216-.484 1.229-.964 2.354-.719 4.947-.588 6.341.026.291.052.514.048.666a32.178 32.178 0 0 1-.602 5.981c-.498 2.613-1.351 5.446-2.465 8.187a54.126 54.126 0 0 1-4.567 8.674 59.927 59.927 0 0 1-5.971 7.669 57.375 57.375 0 0 1-6.098 5.69c-1.812 1.459-3.381 2.514-4.689 3.374l-1.868 1.144a6.41 6.41 0 0 0-.466.3c-1.406 1.042-2.213 2.766-2.336 4.982-.124 2.196.457 4.521 1.631 6.547 1.268 2.188 3.154 3.763 5.312 4.432.728.225 1.478.34 2.23.34 1.547 0 3.01-.48 4.231-1.386.19-.141.376-.286.561-.456l2.104-2c1.371-1.377 3.191-3.263 5.115-5.624a72.965 72.965 0 0 0 6.084-8.683 73.31 73.31 0 0 0 5.255-10.774c1.433-3.732 2.557-7.688 3.251-11.446.636-3.521.938-7.095.875-10.332a41.923 41.923 0 0 0-.213-3.582 33.7 33.7 0 0 1 1.428 1.569c1.73 2.013 3.416 4.444 4.869 7.028 1.532 2.749 2.895 5.853 3.943 8.976a59.577 59.577 0 0 1 2.279 9.45c.416 2.703.638 5.5.657 8.313.012 2.331-.141 4.213-.282 5.77l-.269 2.177c-.023.178-.046.356-.055.548-.061 1.75.785 3.455 2.442 4.933 1.642 1.464 3.822 2.458 6.139 2.8.538.081 1.08.121 1.61.121 1.922 0 3.708-.523 5.167-1.514 1.961-1.338 3.127-3.42 3.204-5.702a6.33 6.33 0 0 0-.004-.728l-.256-2.894c-.242-2.065-.576-4.57-1.216-7.504a72.831 72.831 0 0 0-3.002-10.167 73.605 73.605 0 0 0-5.158-10.823c-2.03-3.451-4.425-6.794-6.928-9.67-2.365-2.696-4.972-5.159-7.538-7.122a40.688 40.688 0 0 0-4.984-3.287c-.162-.09-.25-.332-.296-.519-.277-1.132.237-3.16.849-4.086 1.63-2.475 4.731-7.5 7.185-13.352a73.502 73.502 0 0 0 1.608-4.087c3.061 4.019 7.101 7.907 11.143 10.72l1.293.914c.297.2.592.377.877.549 0 0 1.799 1.085 2.385 1.435a51.77 51.77 0 0 0 1.815.934c.149.078.306.146.451.205a4.71 4.71 0 0 0 1.852.372c1.02 0 2.045-.309 2.964-.892 1.382-.875 2.399-2.338 2.863-4.122.428-1.637.385-3.38-.121-4.906"/>
  <path fill="#003A60" d="M125.809 67.491c-.427-1.273-1.178-2.154-2.204-2.602a2.585 2.585 0 0 0-.315-.105s-.547-.129-1.503-.4c-.469-.164-1.039-.36-1.692-.587-.327-.12-.687-.225-1.048-.374a193.17 193.17 0 0 1-1.133-.49c-3.177-1.337-7.279-3.712-10.868-6.864a37.654 37.654 0 0 1-3.952-4.092c.075-.357.151-.716.213-1.059.103-.539.203-1.056.299-1.547l.194-1.421c.118-.898.223-1.68.306-2.325.096-1.312.149-2.063.149-2.063.01-.149.01-.296.001-.447-.055-1.501-1.224-2.785-2.861-3.513-1.648-.738-3.818-.929-6.133-.538a1.849 1.849 0 0 0-.655.126c-2.042.43-3.833 1.197-5.13 2.039-1.438.947-2.219 1.965-2.192 3.04.008.107.022.212.047.316l.351 1.461.29 1.727.184 1.074.128 1.209c.403 3.374.472 8.093-.055 12.907-.482 4.818-1.609 9.655-2.665 13.229-1.064 3.575-2.041 5.865-2.041 5.865-1.119 2.734-.462 5.965-.482 6.713a32.738 32.738 0 0 1-.615 6.126c-.479 2.508-1.311 5.385-2.509 8.338a54.692 54.692 0 0 1-4.637 8.802 59.865 59.865 0 0 1-6.051 7.773 58.275 58.275 0 0 1-6.182 5.77c-1.912 1.539-3.598 2.66-4.771 3.431l-1.879 1.151a5.223 5.223 0 0 0-.397.254c-1.271.943-1.917 2.513-2.022 4.398-.104 1.866.35 4.082 1.527 6.112 1.177 2.031 2.907 3.468 4.866 4.075 1.937.6 4.076.327 5.767-.927.167-.124.333-.251.485-.392l2.088-1.985c1.291-1.298 3.107-3.167 5.063-5.569a72.62 72.62 0 0 0 6.02-8.588 72.112 72.112 0 0 0 5.196-10.654c1.442-3.753 2.532-7.62 3.212-11.304.666-3.69.921-7.188.863-10.18a39.6 39.6 0 0 0-.503-5.711 33.462 33.462 0 0 1 3.092 3.177c1.665 1.936 3.396 4.378 4.961 7.156a54.843 54.843 0 0 1 4 9.11 60.154 60.154 0 0 1 2.31 9.576 58.53 58.53 0 0 1 .666 8.43c.012 2.454-.161 4.469-.289 5.868l-.268 2.188a5.646 5.646 0 0 0-.05.469c-.053 1.583.772 3.065 2.182 4.322 1.395 1.243 3.411 2.267 5.734 2.61 2.323.344 4.524-.115 6.221-1.268 1.675-1.143 2.793-2.984 2.863-5.087a6.511 6.511 0 0 0-.001-.625l-.253-2.873c-.214-1.817-.544-4.402-1.204-7.428a72.852 72.852 0 0 0-2.97-10.057 72.334 72.334 0 0 0-5.101-10.704c-2.038-3.465-4.383-6.727-6.841-9.552-2.473-2.817-5.049-5.197-7.428-7.016a39.604 39.604 0 0 0-4.886-3.223c-1.402-.78-.645-4.321.279-5.72 2.23-3.385 4.973-8.109 7.119-13.231a74.364 74.364 0 0 0 2.083-5.451c.195.273.382.554.582.825 3.385 4.542 7.674 8.437 11.254 10.929.447.314.873.618 1.28.905.415.279.827.511 1.206.745.767.463 1.435.866 1.987 1.197 1.135.606 1.804.928 1.804.928.129.067.263.125.399.179 1.366.581 2.891.302 4.09-.459 1.208-.765 2.107-2.057 2.526-3.658.421-1.599.316-3.199-.101-4.461"/>
  <path fill="#FFF" d="M99.503 37.593c-7.151 0-12.969-5.817-12.969-12.968 0-7.153 5.818-12.971 12.969-12.971s12.968 5.818 12.968 12.971c0 7.15-5.817 12.968-12.968 12.968"/>
  <path fill="#003A60" d="M111.689 24.625c0 6.73-5.455 12.186-12.187 12.186-6.731 0-12.187-5.456-12.187-12.186 0-6.732 5.456-12.188 12.187-12.188 6.732-.001 12.187 5.455 12.187 12.188M84.563 44.854c6.462-1.746 1.333 32.71-1.667 35.005-4.059 3.104-17.311-2.489-16.327-9.618 1.437-10.392 16.542-24.482 17.994-25.387m-23.7 143.926c.05-.051 0-.178.076-.254l1.013-1.14c.026.355.076.684.076 1.013 0 .126-.025.254-.025.381-.633 4.129-1.495 8.285-1.495 12.465 0 1.672.026 4.61 1.267 4.61.304.026.558-.126.76-.43 1.089-1.622 2.128-3.293 2.938-5.117 1.267-2.838 2.332-5.752 3.497-8.59.329-.811 1.089-.963 1.57-.963.608 0 .887.33.887 1.065 0 .126 0 .278-.025.43-.279 2.483-.786 4.965-1.115 7.449-.152 1.14-.38 2.205-.38 3.293 0 .862.836 1.546.836 2.331 0 .559-.836 2.408-1.926 2.408-.938 0-1.571-1.419-1.571-2.433 0-1.394.43-2.837.43-4.333 0-.228-.202-.481-.278-.734-.202.228-.379.405-.532.659-1.116 1.824-2.103 3.674-3.244 5.447a2.054 2.054 0 0 1-1.748.963c-2.635 0-2.584-3.421-2.788-4.89.333-4.814.435-9.324 1.777-13.63zm15.705 12.92c-.811 1.445-1.874 4.206-3.116 4.206-.583 0-.76-.506-.76-.989 0-1.367.178-2.812.279-4.18l.152-1.267c.076-.558.43-.861.938-.861.634 0 .81.456.81.937 0 .608-.127 1.268-.127 1.875 0 .203.102.456.127.658.177-.127.456-.278.558-.456l.988-1.698c.354-.456 1.089-1.014 1.646-1.014.507 0 .632.482.632.888 0 .203-.024.405-.049.608a694.783 694.783 0 0 1-.938 7.271c-.026.229-.203.457-.354.658-.077-.227-.253-.481-.253-.759.101-2.281.152-4.738.506-7.019-.076 0-.101-.05-.177-.101-.329.433-.608.813-.862 1.243zm6.891-4.332c.836 0 1.546.532 1.546 1.444 0 .887-.887 2.128-1.369 2.939-.608.988-1.9 1.343-1.9 2.635 0 .482-.076 1.191.761 1.191.506 0 .962-.279 1.469-.279.278 0 .431.127.431.38 0 1.039-1.572 1.85-2.534 1.85-1.952 0-2.053-1.723-2.154-2.889.051-2.635 1.268-7.271 3.75-7.271zm.101 1.419c-.557 0-.912 1.444-1.114 2.027 0 .025-.026.025-.026.05 0 .101.178.33.304.33.38 0 .938-1.242 1.317-1.824-.177-.229-.329-.583-.481-.583zm11.146 7.372c-.304.457-1.013.634-1.521.837-.077-.482-.304-.938-.33-1.419-.025-.507 1.267-.507 1.495-.938.836-1.494 1.597-3.167 1.597-4.965 0-.253-.179-.507-.304-.811-.253.127-.583.229-.786.456-1.368 1.875-2.381 3.953-2.863 6.259-.102.532-.786 1.545-1.241 1.545-.329 0-.685-.354-.685-.887 0-1.038.304-2.204.507-3.268.253-1.85.583-3.699.887-5.523.228-1.368.506-1.368.734-2.711.025-.152.051-.304.051-.457 0-.405-.177-.759-.177-1.266 0-1.369.709-2.813 2.001-2.813.405 0 .836.482.836 1.065-.202 3.242-1.064 4.408-1.495 6.714-.024.05-.024.126-.024.177 0 .253.101.557.177.837.253-.203.558-.356.811-.533.456-.304.76-.684 1.344-.684.683 0 1.089.557 1.089 1.444 0 .253-.026.507-.026.761-.025 2.304-.785 4.331-2.077 6.18zm9.068-5.928c0 .126-.025.304-.05.457a129.552 129.552 0 0 0-.608 4.433c-.102.912-.229 1.951-.837 1.951-.229 0-.431-.177-.658-.48-.71-.836-.253-1.597-.685-1.597-.151 0-1.013.761-1.874.761-.761 0-1.242-.634-1.242-1.419 0-1.824 1.039-3.699 2.458-4.762.507-.38 1.266-.558 1.875-.862 1.089.124 1.621.631 1.621 1.518zm-2.279.051c-.229 0-.457.05-.583.177-.659.912-1.798 2.432-1.798 3.141 0 .127.126.583.431.583.811 0 1.875-2.078 2.609-3.268-.305-.481-.331-.633-.659-.633zm5.901-7.931c.203-.988.379-2.989 1.317-2.989.659.076.812.709.812 1.418-.761 3.978-1.572 7.854-2.205 11.832-.025.152-.077.33-.077.481 0 .202.052.329.279.329.102 0 .228-.025.381-.075.05-.025.43.278.43.455 0 1.115-1.115 3.319-2.305 3.319-.684 0-.861-.861-.988-1.722.456-4.382 1.468-8.74 2.356-13.048zm8.334 7.88c0 .126-.025.304-.05.457a132.092 132.092 0 0 0-.608 4.433c-.101.912-.228 1.951-.836 1.951-.228 0-.431-.177-.659-.48-.709-.836-.253-1.597-.684-1.597-.151 0-1.013.761-1.874.761-.761 0-1.242-.634-1.242-1.419 0-1.824 1.039-3.699 2.458-4.762.507-.38 1.266-.558 1.875-.862 1.088.124 1.62.631 1.62 1.518zm-2.28.051c-.228 0-.457.05-.583.177-.658.912-1.799 2.432-1.799 3.141 0 .127.127.583.431.583.812 0 1.875-2.078 2.61-3.268-.305-.481-.33-.633-.659-.633zm3.596 2.787c0-2.281.886-5.498 2.508-5.498.532 0 .963.608 1.418 1.139.153-.177.331-.354.406-.557.786-2.204 1.546-4.129 2.585-6.993.177-.455.455-.633.835-.633.709 0 .912.304.912.633 0 .177-.051.38-.076.558-.481 2.104-.557 2.889-1.039 4.966-.456 2.002-1.09 3.953-1.597 5.929-.532 2.128-.912 5.953-2.38 5.953-.432 0-.685-.455-.685-1.266 0-.532.077-1.089.126-1.622 0-.304-.05-.558-.101-.862-.252.127-.583.177-.812.38-.278.279-.607.558-.961.558-.709 0-1.191-1.216-1.191-1.749 0-.253.05-.455.05-.583v-.353zm1.242 1.216c.203 0 .507-.152.71-.304.252-.152 1.57-3.142 1.57-3.673 0-.507-.886-1.242-1.241-1.242-.481 0-1.09 3.142-1.418 4.408.151.355.227.76.379.811zm11.171-6.917c.835 0 1.545.532 1.545 1.444 0 .887-.887 2.128-1.368 2.939-.608.988-1.901 1.343-1.901 2.635 0 .482-.076 1.191.76 1.191.507 0 .963-.279 1.469-.279.28 0 .431.127.431.38 0 1.039-1.57 1.85-2.534 1.85-1.95 0-2.052-1.723-2.153-2.889.053-2.635 1.269-7.271 3.751-7.271zm.102 1.419c-.557 0-.912 1.444-1.115 2.027 0 .025-.025.025-.025.05 0 .101.177.33.304.33.379 0 .936-1.242 1.317-1.824-.177-.229-.329-.583-.481-.583z"/>
  <g fill="#E20613">
    <path d="M135.946 206.692c.278-1.977.632-3.902.86-5.853.127-1.013-.126-2.914.836-2.914.887.051 1.393 1.14 1.622 1.14.279 0 .988-1.242 1.723-1.242.862 0 1.317.912 1.317 1.572 0 .102 0 .227-.024.329-.354 2.052-1.292 6.308-3.598 6.308-.152 0-.709.228-.735.532-.507 2.584-.684 5.168-1.546 7.651-.126.253-.531.405-.784.608-.204-.38-.481-.735-.481-1.14 0-.203.025-.405.025-.583-.025 0-.051-.051-.101-.051l.886-6.357zm5.421-7.195c0-.28-.329-.533-.481-.533-.66 0-1.368 2.001-1.799 2.913 0 .026-.026.076-.026.102 0 .457.507.988 1.04 1.596.633-1.292 1.114-2.635 1.266-4.078zm5.699-2.129c.836 0 1.546.532 1.546 1.444 0 .887-.887 2.128-1.369 2.939-.608.988-1.9 1.343-1.9 2.635 0 .482-.076 1.191.76 1.191.507 0 .963-.279 1.47-.279.278 0 .431.127.431.38 0 1.039-1.572 1.85-2.534 1.85-1.952 0-2.053-1.723-2.155-2.889.052-2.635 1.268-7.271 3.751-7.271zm-1.469-3.826c0-.354.379-.506.709-.633 1.951-.786 3.826-1.572 5.776-2.306.051-.025.127-.025.203-.025.329 0 .608.127.608.481 0 .177-.051.405-.126.457-1.471 1.394-4.004 2.153-6.157 3.016-.482-.357-1.013-.483-1.013-.99zm1.57 5.245c-.557 0-.912 1.444-1.115 2.027 0 .025-.026.025-.026.05 0 .101.178.33.304.33.38 0 .938-1.242 1.317-1.824-.176-.229-.328-.583-.48-.583zm2.482 4.282c0-2.281.887-5.498 2.508-5.498.532 0 .962.608 1.419 1.139.151-.177.33-.354.406-.557.785-2.204 1.545-4.129 2.583-6.993.178-.455.456-.633.836-.633.709 0 .912.304.912.633 0 .177-.05.38-.076.558-.481 2.104-.558 2.889-1.04 4.966-.455 2.002-1.088 3.953-1.595 5.929-.532 2.128-.913 5.953-2.382 5.953-.431 0-.684-.455-.684-1.266 0-.532.076-1.089.127-1.622 0-.304-.052-.558-.102-.862-.254.127-.583.177-.811.38-.279.279-.608.558-.963.558-.71 0-1.191-1.216-1.191-1.749 0-.253.051-.455.051-.583v-.353zm1.241 1.216c.203 0 .507-.152.709-.304.255-.152 1.572-3.142 1.572-3.673 0-.507-.887-1.242-1.242-1.242-.48 0-1.089 3.142-1.418 4.408.152.355.228.76.379.811zm11.172-6.917c.836 0 1.546.532 1.546 1.444 0 .887-.887 2.128-1.368 2.939-.608.988-1.9 1.343-1.9 2.635 0 .482-.076 1.191.759 1.191.507 0 .963-.279 1.469-.279.28 0 .432.127.432.38 0 1.039-1.571 1.85-2.532 1.85-1.952 0-2.053-1.723-2.154-2.889.049-2.635 1.266-7.271 3.748-7.271zm.101 1.419c-.558 0-.913 1.444-1.115 2.027 0 .025-.025.025-.025.05 0 .101.178.33.304.33.38 0 .938-1.242 1.317-1.824-.177-.229-.331-.583-.481-.583z"/>
    <path d="M164.645 200.762c0-.126.025-.252.126-.405a42.83 42.83 0 0 1 2.509-3.775c.126-.177.43-.279.761-.279.405 0 .685.153.685.963 0 .734-.279 1.926-.735 1.926-.254 0-.584-.66-.837-.66-.38 0-.582 1.166-.708 1.723.481.102.912.228 1.393.228h.254c1.443 0 2.331.786 2.331 1.977 0 2.153-2.155 4.13-3.699 5.396-.963.786-1.952 1.47-3.193 1.47-.734 0-1.19-.481-1.19-1.065 0-1.241 1.697-2.736 2.787-3.419.052-.051.151-.051.228-.051h.279c0 .152 0 .381-.102.531-.203.355-.887 1.167-.887 1.52 0 .304.076.304.329.304.354 0 1.445-.937 1.749-1.292.785-.912 2.053-2.331 2.053-3.317 0-.609-.608-.938-1.419-.938-.127 0-.28.075-.406.075-.813-.025-2.308-.025-2.308-.912zm9.019-4.078c.049-.304.177-.607.177-.962 0-.456-.229-.684-.686-.684-.328 0-.733.152-1.114.152-.253 0-.557-.228-.608-.532 0-.507.786-.583 1.318-.709 1.316-.228 1.773-.76 1.773-2.002 0-.228-.026-.506-.026-.759 0-.989.38-2.23 1.572-2.23.506 0 .557.43.557.836 0 .532-.127 1.394-.127 1.925 0 .431.127.608.456.608.558 0 1.496-.76 2.281-.76.151 0 .329.051.481.076-.127.153-.178.38-.33.482-1.217.835-3.218 1.799-3.471 2.938-.381 1.724-.685 6.132-1.064 7.88-.025.126-.051.228-.051.329 0 .203.075.329.354.329.051 0 .127 0 .203-.025.102 0 .456.329.456.431-.405 1.09-.405 2.382-1.445 3.141-.226.203-.608.405-.834.405-.635 0-.864-1.139-.864-1.469 0-.229.027-.457.027-.659-.052 0-.102-.025-.152-.025.382-2.002.734-6.714 1.117-8.716zm10.639 2.483c-.381 0-.583-.76-.887-.76-.431 0-1.976 2.711-2.561 3.876-.632 1.292-1.012 2.686-1.568 4.029-.381.912-.786.988-1.344 1.317-.177-.329-.507-.709-.507-1.038.102-1.394.33-2.762.507-4.13.151-1.216.101-4.84 1.722-4.84.685 0 .989 1.141 1.142 1.952.304-.279.608-.558.859-.862.737-.912 1.521-2.533 2.637-2.533.532 0 .507.532.81.962-.227.938-.354 2.027-.81 2.027zm3.799-1.799c.836 0 1.546.532 1.546 1.444 0 .887-.889 2.128-1.37 2.939-.606.988-1.899 1.343-1.899 2.635 0 .482-.076 1.191.761 1.191.507 0 .963-.279 1.47-.279.277 0 .431.127.431.38 0 1.039-1.572 1.85-2.534 1.85-1.95 0-2.052-1.723-2.153-2.889.048-2.635 1.265-7.271 3.748-7.271zm.099 1.419c-.556 0-.91 1.444-1.113 2.027 0 .025-.025.025-.025.05 0 .101.178.33.305.33.379 0 .937-1.242 1.316-1.824-.178-.229-.33-.583-.483-.583z"/>
  </g>
  <path fill="#003A60" d="M191.697 206.312c.153-.228.735-.279 1.09-.381.025.28.178.608.178.887 0 .051 0 .127-.025.178-.406 1.165-1.064 3.191-1.951 3.191-.152-.05-.33-.38-.582-.633.455-1.114.835-2.229 1.29-3.242zM59.014 232.708c.227-1.268-.052-3.877 1.646-3.877.583 0 1.014.482 1.014 1.039v.127a285.982 285.982 0 0 1-1.622 6.689c-.126.48-.684.759-1.038.937-.229-.329-.608-.76-.608-1.14v-.178s-.026-.05-.076-.05c.253-1.191.456-2.332.684-3.547zm2.736-8.641c.48 0 .835.203.835.583 0-.101-.482 1.342-1.115 1.342-.152 0-.632-.532-.786-.657.027-.912.433-1.268 1.066-1.268zm5.218 8.033c-.81 1.444-1.875 4.205-3.116 4.205-.583 0-.761-.506-.761-.988 0-1.368.177-2.812.279-4.18l.153-1.267c.076-.557.43-.861.937-.861.633 0 .811.457.811.937 0 .608-.126 1.268-.126 1.876 0 .203.102.456.126.658.178-.126.456-.278.557-.456l.988-1.698c.355-.456 1.089-1.013 1.646-1.013.508 0 .634.481.634.887 0 .203-.026.405-.051.608a698.247 698.247 0 0 1-.938 7.271c-.024.229-.203.457-.354.659-.076-.228-.254-.482-.254-.76.102-2.28.152-4.738.507-7.019-.076 0-.102-.05-.178-.101-.328.43-.607.81-.86 1.242zm5.37-5.017c.051-.304.178-.608.178-.963 0-.457-.228-.684-.685-.684-.329 0-.734.152-1.115.152-.253 0-.558-.229-.607-.533 0-.506.785-.583 1.317-.708 1.317-.228 1.773-.761 1.773-2.002 0-.228-.025-.506-.025-.759 0-.988.38-2.229 1.571-2.229.507 0 .557.431.557.836 0 .532-.126 1.394-.126 1.925 0 .431.126.608.456.608.558 0 1.494-.76 2.28-.76.152 0 .329.051.481.076-.126.153-.177.38-.33.482-1.216.835-3.217 1.799-3.472 2.938-.379 1.723-.683 6.131-1.063 7.88-.025.127-.051.228-.051.329 0 .203.076.329.354.329.05 0 .127 0 .203-.025.101 0 .455.329.455.43-.405 1.09-.405 2.383-1.444 3.143-.227.202-.607.405-.835.405-.633 0-.862-1.141-.862-1.469 0-.229.025-.458.025-.659-.051 0-.101-.025-.152-.025.383-2.004.737-6.716 1.117-8.717zm7.777.685c.836 0 1.545.532 1.545 1.443 0 .887-.887 2.128-1.369 2.938-.608.989-1.9 1.343-1.9 2.635 0 .481-.075 1.191.761 1.191.507 0 .963-.279 1.469-.279.279 0 .431.127.431.381 0 1.038-1.571 1.849-2.533 1.849-1.951 0-2.053-1.723-2.154-2.888.051-2.635 1.267-7.27 3.75-7.27zm.101 1.418c-.557 0-.912 1.444-1.114 2.027 0 .025-.026.025-.026.05 0 .102.178.33.304.33.38 0 .937-1.241 1.317-1.824-.177-.229-.329-.583-.481-.583zm9.069.38c-.38 0-.583-.761-.886-.761-.432 0-1.977 2.711-2.56 3.876-.633 1.292-1.013 2.687-1.569 4.029-.381.912-.786.989-1.343 1.317-.177-.329-.507-.709-.507-1.038.101-1.395.331-2.763.507-4.13.152-1.216.101-4.84 1.722-4.84.684 0 .988 1.141 1.141 1.951.304-.278.608-.557.86-.861.734-.912 1.52-2.534 2.635-2.534.533 0 .506.532.811.963-.228.938-.355 2.028-.811 2.028zm5.75 1.064c0 .126-.025.304-.051.456-.228 1.47-.43 2.965-.608 4.434-.102.912-.228 1.951-.835 1.951-.228 0-.431-.176-.659-.48-.709-.837-.253-1.597-.684-1.597-.152 0-1.014.76-1.876.76-.759 0-1.24-.633-1.24-1.418 0-1.825 1.039-3.699 2.457-4.764.507-.38 1.267-.557 1.875-.861 1.089.125 1.621.632 1.621 1.519zm-2.281.05c-.228 0-.456.051-.583.177-.659.912-1.798 2.432-1.798 3.142 0 .127.126.583.43.583.811 0 1.875-2.078 2.61-3.268-.304-.482-.329-.634-.659-.634zm7.398.887c-.355-.507-.533-.836-.761-.836-.126 0-.278.101-.43.279-.761 1.038-.989 2.229-.989 3.47 0 .507.406.786.861.786.507 0 1.166-.607 1.623-.607.151 0 .329 0 .329.304 0 .811-1.723 1.671-2.661 1.671-1.672 0-1.823-2.001-1.823-2.837 0-1.596.532-3.015 2.026-4.13a2.144 2.144 0 0 1 1.368-.506c.557 0 .786.329.786 1.013v.229c0 .48-.177.733-.329 1.164zm4.128-4.484c.051-.304.176-.608.176-.963 0-.457-.227-.684-.683-.684-.331 0-.736.152-1.116.152-.253 0-.557-.229-.608-.533 0-.506.786-.583 1.317-.708 1.318-.228 1.774-.761 1.774-2.002 0-.228-.025-.506-.025-.759 0-.988.379-2.229 1.57-2.229.507 0 .558.431.558.836 0 .532-.126 1.394-.126 1.925 0 .431.126.608.456.608.557 0 1.495-.76 2.281-.76.151 0 .329.051.48.076-.126.153-.177.38-.329.482-1.216.835-3.218 1.799-3.471 2.938-.38 1.723-.684 6.131-1.064 7.88-.025.127-.05.228-.05.329 0 .203.076.329.354.329.052 0 .127 0 .203-.025.101 0 .457.329.457.43-.405 1.09-.405 2.383-1.444 3.143-.229.202-.608.405-.837.405-.633 0-.861-1.141-.861-1.469 0-.229.025-.458.025-.659-.051 0-.101-.025-.152-.025.38-2.004.735-6.716 1.115-8.717zm4.204 5.625c.228-1.268-.05-3.877 1.647-3.877.583 0 1.013.482 1.013 1.039v.127a285.982 285.982 0 0 1-1.622 6.689c-.127.48-.683.759-1.039.937-.228-.329-.608-.76-.608-1.14v-.178s-.025-.05-.076-.05c.255-1.191.457-2.332.685-3.547zm2.737-8.641c.481 0 .836.203.836.583 0-.101-.481 1.342-1.115 1.342-.152 0-.633-.532-.785-.657.025-.912.43-1.268 1.064-1.268zm2.227 4.688c.913 0 1.014.431 1.014 1.115a17.396 17.396 0 0 0-.076 1.596c0 .558.127.634.406 1.014.938-.785 1.596-2.255 2.381-3.395.102-.33.506-.481.912-.66-.025.051-.025.102-.025.153 0 .101.025.177.025.252a.71.71 0 0 1-.051.228c-.76 1.647-1.571 3.319-2.331 4.992-.253.557-.33 1.19-.582 1.723-.279.583-.964 1.646-1.495 1.646-1.039 0-1.065-2.61-1.065-3.623v-4.002c.052-.583.205-1.039.887-1.039zm8.893-.987c.836 0 1.546.532 1.546 1.443 0 .887-.887 2.128-1.369 2.938-.608.989-1.899 1.343-1.899 2.635 0 .481-.076 1.191.76 1.191.507 0 .963-.279 1.469-.279.278 0 .432.127.432.381 0 1.038-1.572 1.849-2.534 1.849-1.951 0-2.052-1.723-2.154-2.888.05-2.635 1.266-7.27 3.749-7.27zm.101 1.418c-.557 0-.912 1.444-1.114 2.027 0 .025-.026.025-.026.05 0 .102.178.33.304.33.38 0 .938-1.241 1.317-1.824-.177-.229-.329-.583-.481-.583zm10.259-1.418c.835 0 1.545.532 1.545 1.443 0 .887-.886 2.128-1.367 2.938-.608.989-1.901 1.343-1.901 2.635 0 .481-.077 1.191.76 1.191.507 0 .963-.279 1.47-.279.279 0 .43.127.43.381 0 1.038-1.57 1.849-2.533 1.849-1.951 0-2.052-1.723-2.153-2.888.05-2.635 1.267-7.27 3.749-7.27zm.102 1.418c-.558 0-.912 1.444-1.115 2.027 0 .025-.025.025-.025.05 0 .102.177.33.304.33.379 0 .937-1.241 1.317-1.824-.177-.229-.329-.583-.481-.583zm4.685-2.103c.051-.304.178-.608.178-.963 0-.457-.228-.684-.684-.684-.33 0-.736.152-1.115.152-.253 0-.557-.229-.608-.533 0-.506.785-.583 1.317-.708 1.317-.228 1.773-.761 1.773-2.002 0-.228-.024-.506-.024-.759 0-.988.379-2.229 1.569-2.229.507 0 .559.431.559.836 0 .532-.126 1.394-.126 1.925 0 .431.126.608.455.608.558 0 1.495-.76 2.281-.76.152 0 .33.051.481.076-.126.153-.177.38-.329.482-1.216.835-3.218 1.799-3.47 2.938-.381 1.723-.685 6.131-1.065 7.88-.025.127-.05.228-.05.329 0 .203.075.329.354.329.051 0 .126 0 .202-.025.102 0 .457.329.457.43-.405 1.09-.405 2.383-1.444 3.143-.228.202-.608.405-.836.405-.633 0-.861-1.141-.861-1.469 0-.229.024-.458.024-.659-.05 0-.101-.025-.152-.025.38-2.004.735-6.716 1.114-8.717z"/>
  <path d="M147.928 222.75c.203-.987.38-2.989 1.317-2.989.659.076.811.71.811 1.419-.76 3.978-1.57 7.853-2.204 11.832-.026.152-.076.33-.076.481 0 .203.05.33.278.33.102 0 .229-.025.38-.075.052-.025.432.278.432.455 0 1.115-1.116 3.319-2.306 3.319-.684 0-.862-.861-.988-1.723.456-4.384 1.469-8.741 2.356-13.049zm3.546 6.511c.076-.405.278-.709.684-.709.482 0 .608.253.608.431 0 .177-.076.379-.076.557a153.689 153.689 0 0 0-.709 4.763c0 .279.203.583.304.912.229-.203.533-.329.658-.583 1.014-1.723 2.003-3.522 2.964-5.244.179-.356.356-.66.684-.66.585 0 .938.482.938.912 0 .102-.024.203-.05.33a200.839 200.839 0 0 0-1.241 5.397c-.051.177-.051.329-.051.506 0 .608.279 1.115.279 1.444 0 .405-.659.862-1.089.862-.786 0-1.064-1.851-1.343-2.635-1.14.507-1.52 1.494-2.281 1.494-.431 0-.811-.304-.988-.912-.101-.38-.076-.835-.202-1.267.277-1.848.581-3.748.911-5.598zm7.118 4.207c0-2.281.887-5.498 2.507-5.498.532 0 .964.608 1.42 1.139.152-.177.329-.354.403-.557.786-2.204 1.546-4.129 2.586-6.993.177-.456.455-.634.836-.634.71 0 .911.304.911.634 0 .177-.05.38-.075.557-.481 2.103-.558 2.889-1.039 4.966-.456 2.001-1.09 3.952-1.596 5.928-.532 2.128-.912 5.953-2.381 5.953-.432 0-.686-.455-.686-1.265 0-.533.077-1.09.127-1.622 0-.304-.05-.558-.102-.862-.253.126-.582.177-.81.38-.278.279-.607.558-.962.558-.709 0-1.191-1.216-1.191-1.749 0-.252.051-.455.051-.582v-.353zm1.241 1.216c.204 0 .507-.152.709-.304.252-.152 1.57-3.141 1.57-3.673 0-.507-.887-1.241-1.241-1.241-.481 0-1.09 3.141-1.419 4.408.153.353.229.759.381.81zm7.6-1.976c.229-1.268-.052-3.877 1.646-3.877.583 0 1.014.482 1.014 1.039v.127a285.97 285.97 0 0 1-1.621 6.689c-.127.48-.685.759-1.038.937-.229-.329-.608-.76-.608-1.14v-.178s-.025-.05-.076-.05c.252-1.191.453-2.332.683-3.547zm2.735-8.641c.481 0 .836.203.836.583 0-.101-.482 1.342-1.114 1.342-.152 0-.633-.532-.786-.657.025-.912.43-1.268 1.064-1.268zm3.748 10.236v-.126c0-.203-.074-.456-.101-.659-.277.102-.481.253-.759.405-.153 0-.685.887-1.191.887-.658 0-.861-.583-.861-.962 0-1.47.658-3.395 1.849-4.561.734-.735 2.482-1.268 3.547-1.268.406 0 .634.254.634.66 0 .101 0 .177-.025.278-.506 1.977-1.038 3.926-1.493 5.903-.534 2.205-1.04 3.446-1.521 5.65-.024.05-.024.101-.024.177 0 .228.101.482.177.708 1.089-.202 2.305-.633 3.395-.962.102-.026.178-.026.279-.026.633 0 .784.38 1.14.71-.228.127-.455.379-.659.379-1.723.127-3.015 1.014-4.154 2.205-.48.507-.963 1.418-1.697 1.418-.203 0-.659-.759-.659-1.115 0-.05.025-.15.025-.176-.051-.051-.102-.051-.152-.051.629-3.089 1.517-6.154 2.25-9.474zm1.014-4.155a.494.494 0 0 0 .051-.229c0-.253 0-.607-.403-.607-.838 0-2.484 2.204-2.484 3.471 0 .253.178.279.279.456.961-.634 1.822-2.103 2.557-3.091zm4.179-.887c.075-.405.278-.709.684-.709.482 0 .608.253.608.431 0 .177-.075.379-.075.557a150.74 150.74 0 0 0-.71 4.763c0 .279.202.583.304.912.229-.203.532-.329.659-.583 1.013-1.723 2.001-3.522 2.963-5.244.179-.356.357-.66.686-.66a.93.93 0 0 1 .937.912c0 .102-.025.203-.05.33a204.759 204.759 0 0 0-1.241 5.397c-.051.177-.051.329-.051.506 0 .608.278 1.115.278 1.444 0 .405-.659.862-1.09.862-.785 0-1.063-1.851-1.342-2.635-1.141.507-1.521 1.494-2.281 1.494-.43 0-.812-.304-.987-.912-.102-.38-.075-.835-.203-1.267.278-1.848.582-3.748.911-5.598zm10.817-1.493c.836 0 1.546.532 1.546 1.443 0 .887-.887 2.128-1.368 2.938-.608.989-1.901 1.343-1.901 2.635 0 .481-.075 1.191.761 1.191.508 0 .963-.279 1.471-.279.278 0 .431.127.431.381 0 1.038-1.571 1.849-2.535 1.849-1.95 0-2.051-1.723-2.153-2.888.05-2.635 1.265-7.27 3.748-7.27zm.101 1.418c-.557 0-.912 1.444-1.114 2.027 0 .025-.024.025-.024.05 0 .102.176.33.303.33.38 0 .938-1.241 1.318-1.824-.179-.229-.33-.583-.483-.583z" fill="#E20613"/>
  <path d="M64.536 261.027c0 .127-.025.305-.05.457a129.495 129.495 0 0 0-.608 4.432c-.102.912-.229 1.951-.836 1.951-.229 0-.431-.176-.659-.48-.709-.838-.253-1.598-.685-1.598-.152 0-1.014.76-1.874.76-.761 0-1.242-.633-1.242-1.416 0-1.826 1.039-3.701 2.458-4.764.506-.381 1.267-.559 1.875-.861 1.089.127 1.621.633 1.621 1.519zm-2.28.049c-.228 0-.457.051-.583.178-.659.912-1.799 2.434-1.799 3.143 0 .127.126.582.431.582.812 0 1.875-2.076 2.61-3.268-.304-.481-.329-.635-.659-.635zm4.458-1.418c.077-.404.279-.709.685-.709.481 0 .608.254.608.432s-.076.379-.076.557a154.547 154.547 0 0 0-.71 4.762c0 .279.203.584.304.914.228-.203.532-.33.659-.582 1.013-1.725 2.001-3.521 2.964-5.246.177-.355.354-.66.684-.66a.93.93 0 0 1 .938.912c0 .104-.025.205-.052.332-.43 1.797-.86 3.598-1.241 5.396-.051.176-.051.328-.051.506 0 .609.279 1.115.279 1.443 0 .406-.658.861-1.09.861-.784 0-1.063-1.848-1.343-2.635-1.14.508-1.52 1.494-2.28 1.494-.43 0-.811-.303-.988-.912-.102-.379-.077-.834-.203-1.266.281-1.849.584-3.747.913-5.599zm12.792-2.709c.482 0 .734-.279.862-.838.532-2.305 1.216-6.46 3.876-6.46.76 0 1.317.911 1.317 1.976 0 .785-.355 1.395-.964 1.52-.48 0-.582-.938-.886-.938-.379 0-1.217 2.713-1.217 3.727 0 .277.229.379.457.379.177 0 .355-.051.507-.127 1.014-.758 2.128-1.52 3.016-2.279-.127.455-.203.938-.431 1.266a6.438 6.438 0 0 1-3.092 2.332c-.583.201-.785.531-.912 1.063-.355 2.129-.685 4.232-1.09 6.311-.456 2.33-.203 2.33-.759 4.635-.102.406-1.039 1.572-1.445 1.572-.709 0-.912-.508-.912-.965 0-.074 0-.15.026-.227.658-3.42 1.14-5.979 2.027-10.844.076-.254.102-.457.102-.607 0-.684-1.039-.457-1.774-1.191.153-.076.481-.381.66-.381.101 0 .228.051.354.051.101.025.202.025.278.025zm5.369 6.156c.229-1.268-.049-3.879 1.647-3.879.583 0 1.014.482 1.014 1.041v.127a279.781 279.781 0 0 1-1.622 6.688c-.126.482-.684.76-1.04.938-.227-.328-.607-.76-.607-1.139v-.18s-.024-.049-.076-.049c.254-1.191.457-2.332.684-3.547zm2.737-8.64c.481 0 .836.203.836.582 0-.1-.481 1.344-1.115 1.344-.152 0-.634-.531-.785-.658.026-.913.431-1.268 1.064-1.268zm3.699-1.319c.202-.986.38-2.988 1.317-2.988.659.076.81.709.81 1.42-.759 3.977-1.57 7.852-2.204 11.83-.026.152-.075.33-.075.48 0 .203.049.33.278.33.101 0 .228-.025.379-.074.051-.027.431.277.431.455 0 1.115-1.114 3.318-2.305 3.318-.685 0-.862-.861-.988-1.723.456-4.381 1.47-8.739 2.357-13.048zm6.737 10.719c0-2.281.886-5.498 2.507-5.498.533 0 .964.609 1.419 1.141.152-.178.33-.355.405-.559.786-2.205 1.546-4.129 2.585-6.994.177-.455.455-.633.835-.633.709 0 .912.305.912.633 0 .18-.051.381-.076.559-.481 2.104-.557 2.889-1.038 4.967-.457 2.002-1.09 3.951-1.597 5.928-.532 2.129-.912 5.955-2.381 5.955-.431 0-.685-.457-.685-1.268 0-.531.077-1.09.127-1.621 0-.303-.05-.559-.102-.861-.252.127-.583.176-.811.379-.278.279-.607.557-.962.557-.709 0-1.191-1.215-1.191-1.748 0-.252.051-.455.051-.582v-.355zm1.242 1.217c.202 0 .506-.154.709-.305.252-.154 1.57-3.143 1.57-3.674 0-.506-.886-1.242-1.241-1.242-.481 0-1.089 3.143-1.418 4.41.152.352.227.76.38.811zm11.17-6.918c.837 0 1.546.531 1.546 1.445 0 .885-.887 2.127-1.369 2.938-.608.988-1.9 1.342-1.9 2.635 0 .482-.076 1.191.76 1.191.507 0 .962-.279 1.469-.279.278 0 .431.127.431.381 0 1.039-1.571 1.85-2.533 1.85-1.952 0-2.053-1.723-2.153-2.889.051-2.635 1.267-7.272 3.749-7.272zm.102 1.42c-.557 0-.913 1.443-1.115 2.025 0 .025-.026.025-.026.051 0 .102.178.33.304.33.381 0 .938-1.242 1.318-1.824-.177-.228-.329-.582-.481-.582zm8.866-6.438c.203-.986.379-2.988 1.317-2.988.658.076.811.709.811 1.42-.761 3.977-1.571 7.852-2.205 11.83-.025.152-.076.33-.076.48 0 .203.051.33.279.33.102 0 .228-.025.38-.074.051-.027.431.277.431.455 0 1.115-1.115 3.318-2.306 3.318-.685 0-.861-.861-.989-1.723.457-4.381 1.471-8.739 2.358-13.048zm8.334 7.881c0 .127-.025.305-.05.457a132.034 132.034 0 0 0-.608 4.432c-.102.912-.228 1.951-.836 1.951-.229 0-.432-.176-.659-.48-.71-.838-.253-1.598-.685-1.598-.151 0-1.013.76-1.874.76-.761 0-1.242-.633-1.242-1.416 0-1.826 1.04-3.701 2.458-4.764.506-.381 1.266-.559 1.874-.861 1.09.127 1.622.633 1.622 1.519zm-2.281.049c-.228 0-.456.051-.583.178-.659.912-1.799 2.434-1.799 3.143 0 .127.127.582.432.582.811 0 1.875-2.076 2.609-3.268-.304-.481-.329-.635-.659-.635z" fill="#003A60"/>
  <path d="M133.135 263.865c0-2.281.886-5.498 2.508-5.498.532 0 .963.609 1.418 1.141.153-.178.33-.355.406-.559.786-2.205 1.546-4.129 2.584-6.994.177-.455.456-.633.836-.633.71 0 .912.305.912.633 0 .18-.051.381-.076.559-.481 2.104-.558 2.889-1.039 4.967-.456 2.002-1.09 3.951-1.597 5.928-.532 2.129-.912 5.955-2.38 5.955-.431 0-.685-.457-.685-1.268 0-.531.076-1.09.126-1.621 0-.303-.05-.559-.102-.861-.252.127-.582.176-.81.379-.279.279-.608.557-.962.557-.709 0-1.191-1.215-1.191-1.748 0-.252.051-.455.051-.582v-.355zm1.241 1.217c.203 0 .507-.154.71-.305.252-.154 1.57-3.143 1.57-3.674 0-.506-.886-1.242-1.242-1.242-.481 0-1.089 3.143-1.418 4.41.152.352.228.76.38.811zm11.172-6.918c.836 0 1.545.531 1.545 1.445 0 .885-.886 2.127-1.368 2.938-.608.988-1.9 1.342-1.9 2.635 0 .482-.076 1.191.759 1.191.507 0 .963-.279 1.47-.279.279 0 .431.127.431.381 0 1.039-1.57 1.85-2.534 1.85-1.95 0-2.051-1.723-2.153-2.889.051-2.635 1.267-7.272 3.75-7.272zm-1.469-3.826c0-.355.379-.506.709-.633 1.951-.785 3.826-1.57 5.776-2.307.051-.023.127-.023.203-.023.329 0 .608.125.608.48 0 .178-.051.404-.127.457-1.469 1.393-4.002 2.152-6.156 3.014-.481-.355-1.013-.48-1.013-.988zm1.571 5.246c-.558 0-.913 1.443-1.115 2.025 0 .025-.025.025-.025.051 0 .102.178.33.304.33.38 0 .937-1.242 1.318-1.824-.179-.228-.331-.582-.482-.582zm11.222 7.701c-.051.229-.38.379-.583.557-.102-.252-.329-.506-.329-.709.228-1.141.532-2.254.785-3.344l.557-2.482c0-.152-.051-.33-.077-.482-.151.051-.379.051-.48.152-.938 1.039-1.647 2.33-2.534 3.496-.152.227-.506.305-.759.406-.102-.229-.254-.457-.254-.686 0-.785.355-1.596.355-2.381 0-.229-.101-.432-.152-.633-1.622 1.037-2.888 2.787-3.445 4.66-.229.736-.786 1.445-1.191 1.445-.304 0-.685-.457-.685-1.191v-.178c.329-2 .709-4.002 1.115-6.055.126-.658.658-.861 1.216-.861.583 0 .733.584.733 1.115 0 .404-.15.811-.15 1.266 0 .229.075.482.101.736.279-.127.583-.127.76-.305.735-.559 1.495-1.672 2.205-1.672.329 0 .558 1.191.608 1.824.279-.355.607-.506.861-.811.659-.785 1.04-1.672 2.103-1.672.228 0 .709.531.709 1.215v.229c.025 0 .077.023.152.023-.532 2.108-.81 4.489-1.621 6.338zm5.14-7.576c.329 0 .76.229.76.66 0 .15-.05.328-.126.404-1.014 1.217-1.597 3.193-1.597 4.713 0 .354.304.785.456 1.139.329-.229.811-.379.912-.658.608-1.367 1.164-2.99 1.164-4.383 0-.533-.251-1.09-.251-1.672 0-.404.151-.404.431-.686.708.711.786 2.004.786 2.965 0 2.482-1.472 5.627-3.194 5.627-1.114 0-1.848-1.242-1.848-3.346.1-1.191.962-4.763 2.507-4.763zm7.65 2.256c-.354-.506-.532-.838-.759-.838-.127 0-.28.104-.432.281-.762 1.037-.987 2.229-.987 3.471 0 .506.403.785.86.785.508 0 1.165-.607 1.622-.607.151 0 .329 0 .329.303 0 .813-1.722 1.672-2.66 1.672-1.673 0-1.824-2-1.824-2.838 0-1.596.532-3.014 2.025-4.129a2.154 2.154 0 0 1 1.369-.506c.558 0 .786.328.786 1.012v.229c.001.481-.177.735-.329 1.165zm8.512-2.002c-.38 0-.582-.76-.886-.76-.432 0-1.977 2.711-2.56 3.875-.634 1.293-1.012 2.688-1.572 4.029-.379.912-.783.988-1.34 1.318-.179-.33-.509-.711-.509-1.039.102-1.395.33-2.764.509-4.131.15-1.215.099-4.838 1.722-4.838.685 0 .988 1.141 1.139 1.951.304-.279.608-.559.862-.861.733-.914 1.521-2.535 2.635-2.535.532 0 .508.533.812.965-.23.936-.356 2.026-.812 2.026zm5.749 1.064c0 .127-.023.305-.049.457a124.7 124.7 0 0 0-.608 4.432c-.102.912-.229 1.951-.837 1.951-.229 0-.431-.176-.659-.48-.709-.838-.254-1.598-.684-1.598-.151 0-1.014.76-1.876.76-.758 0-1.241-.633-1.241-1.416 0-1.826 1.04-3.701 2.458-4.764.508-.381 1.267-.559 1.875-.861 1.09.127 1.621.633 1.621 1.519zm-2.279.049c-.228 0-.456.051-.583.178-.659.912-1.799 2.434-1.799 3.143 0 .127.127.582.431.582.811 0 1.875-2.076 2.609-3.268-.304-.481-.328-.635-.658-.635zm5.776-3.596c.05-.305.176-.609.176-.963 0-.455-.227-.684-.685-.684-.328 0-.733.15-1.114.15-.253 0-.558-.227-.607-.531 0-.506.786-.582 1.317-.709 1.317-.229 1.773-.762 1.773-2.002 0-.229-.025-.508-.025-.76 0-.988.38-2.229 1.572-2.229.506 0 .556.43.556.836 0 .531-.126 1.393-.126 1.924 0 .432.126.607.456.607.557 0 1.494-.76 2.279-.76.152 0 .329.051.481.078-.126.15-.177.379-.329.48-1.217.836-3.219 1.799-3.471 2.939-.38 1.723-.685 6.131-1.063 7.879-.025.127-.051.229-.051.328 0 .205.075.33.354.33.05 0 .127 0 .202-.025.103 0 .456.328.456.43-.405 1.09-.405 2.383-1.444 3.143-.228.203-.608.404-.836.404-.634 0-.862-1.139-.862-1.467 0-.229.026-.457.026-.66-.051 0-.103-.025-.151-.025.382-2 .734-6.711 1.116-8.713zm4.202 5.625c.229-1.268-.05-3.879 1.647-3.879.583 0 1.015.482 1.015 1.041v.127a295.034 295.034 0 0 1-1.623 6.688c-.127.482-.683.76-1.039.938-.228-.328-.606-.76-.606-1.139v-.18s-.026-.049-.076-.049c.252-1.191.455-2.332.682-3.547zm2.736-8.64c.482 0 .837.203.837.582 0-.1-.48 1.344-1.115 1.344-.151 0-.633-.531-.784-.658.024-.913.431-1.268 1.062-1.268zm5.093 3.699c.835 0 1.545.531 1.545 1.445 0 .885-.887 2.127-1.368 2.938-.607.988-1.9 1.342-1.9 2.635 0 .482-.075 1.191.76 1.191.507 0 .964-.279 1.47-.279.279 0 .431.127.431.381 0 1.039-1.569 1.85-2.533 1.85-1.951 0-2.053-1.723-2.152-2.889.049-2.635 1.263-7.272 3.747-7.272zm.102 1.42c-.559 0-.912 1.443-1.115 2.025 0 .025-.025.025-.025.051 0 .102.177.33.305.33.379 0 .936-1.242 1.318-1.824-.18-.228-.332-.582-.483-.582z" fill="#E20613"/>
</svg>
