<svg xmlns="http://www.w3.org/2000/svg" xmlns:xlink="http://www.w3.org/1999/xlink" width="1382.981" height="1040.556">
  <symbol id="f" viewBox="-27.848 -8.527 55.693 22.585">
    <path d="M9.922-2.857a5.67 5.67 0 1 1 11.336 0 5.67 5.67 0 0 1-11.336 0z"/>
    <path fill="none" stroke="#000" stroke-width="2" stroke-linecap="round" stroke-miterlimit="10" d="M26.846 8.394c-2.88 2.882-6.859 4.664-11.253 4.664s-8.372-1.78-11.253-4.66"/>
    <path d="M21.26-2.857h2.734M20.918-.919l2.57.936m-3.554.769l2.093 1.759m-3.603-.493l1.367 2.368" fill="none" stroke="#000" stroke-width="1.5" stroke-linecap="round" stroke-miterlimit="10"/>
    <path d="M-9.924-2.857a5.67 5.67 0 1 0-11.336 0 5.67 5.67 0 0 0 11.336 0z"/>
    <path fill="none" stroke="#000" stroke-width="2" stroke-linecap="round" stroke-miterlimit="10" d="M-26.848 8.394c2.88 2.882 6.859 4.664 11.253 4.664s8.372-1.78 11.253-4.66"/>
    <path d="M-21.262-2.857h-2.734m3.076 1.938l-2.57.936m3.554.769l-2.093 1.759m3.603-.493l-1.367 2.368" fill="none" stroke="#000" stroke-width="1.5" stroke-linecap="round" stroke-miterlimit="10"/>
  </symbol>
  <symbol id="n" viewBox="-37.665 -115.13 75.33 230.26">
    <use xlink:href="#a" width="37.665" height="217.175" x="-18.833" y="-108.588" transform="translate(18.832 -6.542)" overflow="visible"/>
    <use xlink:href="#b" width="37.665" height="217.175" x="-18.833" y="-108.588" transform="translate(-18.832 -6.542)" overflow="visible"/>
    <path fill="#AF9A71" d="M0 79.025c19.939 0 36.105 16.166 36.105 36.104h-72.209c0-19.938 16.165-36.104 36.104-36.104z"/>
  </symbol>
  <symbol id="p" viewBox="-65.532 -90.067 131.065 161.18">
    <path fill="#332015" d="M-21.646 38.444c.267-.009.533-.039.797-.088 2.667-.677 4.514-3.333 4.768-7.066.32-3.694-.834-8.188-2.927-12.813s-4.526-8.623-6.274-11.514c-1.775-2.814-2.915-4.745-3.51-4.521a.326.326 0 0 0-.178.077l-.561.49-.31.279-.39.253c-.283.166-.61.468-.996.643-1.513.89-3.986 1.688-6.829 1.66-.737.058-1.396-.109-2.146-.15-.709-.11-1.404-.284-2.117-.44-.644-.243-1.359-.418-1.971-.692-.589-.294-1.227-.532-1.75-.835l-1.445-.873c-.423-.284-.753-.575-1.057-.798l-.702-.536c-.169-.123-.226-.211-.232-.207-.403-.399-1.589-.334-3.256.013a31.263 31.263 0 0 0-6.008 1.977c-2.206.981-4.063 2.173-5.266 3.434-1.207 1.251-1.753 2.572-1.44 3.578-.001 0 .042.195.182.533l.596 1.481c.271.635.571 1.433.995 2.311.448.861.97 1.838 1.563 2.909.606 1.059 1.383 2.129 2.186 3.311.823 1.16 1.826 2.275 2.848 3.489 1.087 1.125 2.25 2.299 3.517 3.406 1.307 1.038 2.62 2.203 4.095 3.111l2.207 1.422c.755.439 1.534.832 2.309 1.239 1.539.848 3.148 1.473 4.73 2.094.787.328 1.582.583 2.371.808l2.331.669c1.529.412 3.019.629 4.403.887 1.385.251 2.674.295 3.827.406l1.622.113 1.377-.003 2.641-.057z"/>
    <use xlink:href="#c" width="110.592" height="140.424" x="-55.296" y="-79.689" transform="translate(-3.443 -10.378)" overflow="visible"/>
    <path fill="#332015" d="M64.689 32.502l-.1.161a3.776 3.776 0 0 1-.313.454l-1.271 1.67c-.561.71-1.198 1.619-2.024 2.58l-2.925 3.119c-1.101 1.122-2.435 2.186-3.792 3.394-.666.626-1.459 1.113-2.226 1.684l-2.391 1.696c-.833.544-1.727 1.02-2.613 1.542-.901.491-1.78 1.079-2.742 1.5l-2.901 1.316c-.41.178-.816.369-1.231.54l1.15-.331c.162-.041.28-.089.358-.123l.12-.049c1.716-.702 3.937.145 5.038 1.981 1.102 1.837.384 4.19-1.636 5.405l-.136.083c-.09.056-.224.137-.408.22l-1.591.765c-.691.317-1.517.754-2.503 1.158l-3.383 1.217c-1.254.419-2.659.706-4.138 1.091-1.485.346-3.09.504-4.75.766-.831.088-1.683.104-2.547.155-.862.022-1.745.127-2.627.074l-2.676-.124c-.449-.028-.904-.034-1.353-.083l-1.343-.188-2.696-.395c-.325-.064-.646-.141-.969-.217.335.161.664.315.988.438l1.903.68c.576.178 1.095.276 1.517.39.426.105.76.189.987.246.229.063.354.064.354.064 1.299.178 2.359 1.482 2.383 2.997s-1.249 2.701-2.915 2.729c0 0-.154.019-.44-.007l-1.244-.095c-.536-.05-1.195-.076-1.942-.178l-2.502-.453c-.915-.187-1.877-.509-2.919-.797-1.032-.314-2.069-.786-3.179-1.213-1.059-.519-2.167-1.061-3.248-1.692-1.037-.692-2.173-1.313-3.148-2.144-2.48-1.874-4.65-4.159-6.383-6.455.067.263.135.526.188.792.199.688.448 1.353.68 2.005.302.616.544 1.25.858 1.804.333.541.609 1.089.932 1.548l.905 1.246c.287.36.571.644.788.897l.516.579c.116.137.195.192.195.192.741.67.848 1.946.212 2.91s-1.946 1.163-3.007.466c0 0-.105-.055-.274-.194a1344.9 1344.9 0 0 0-.742-.594c-.315-.262-.72-.561-1.146-.946l-1.38-1.359c-.495-.511-.963-1.127-1.494-1.756-.513-.643-.964-1.386-1.478-2.131-.443-.781-.908-1.599-1.318-2.46-.354-.881-.803-1.76-1.061-2.702-.579-1.719-.935-3.512-1.12-5.241-1.576.735-3.295 1.357-5.066 1.75-.938.266-1.923.336-2.86.488-.949.095-1.89.119-2.788.143-.903-.055-1.771-.057-2.587-.167-.813-.13-1.581-.212-2.275-.373l-1.877-.479c-.55-.166-1.016-.358-1.402-.493-.385-.141-.687-.252-.893-.329a1.783 1.783 0 0 1-.308-.134c-1.146-.547-1.651-1.773-1.155-2.815s1.645-1.61 2.601-1.322c0 0 .088.039.266.068l.762.143c.328.055.719.151 1.175.21l.138.012c-.676-.198-1.342-.423-2.003-.613-1.131-.401-2.215-.876-3.249-1.33-.999-.547-1.987-1.014-2.855-1.575-.855-.584-1.688-1.088-2.391-1.643a3655.01 3655.01 0 0 0-1.881-1.55c-.537-.483-.964-.951-1.332-1.311l-.84-.852a2.215 2.215 0 0 1-.278-.318c-1.011-1.237-.931-2.903.192-3.823a3.156 3.156 0 0 1 1.824-.707c-.49-.574-.96-1.123-1.356-1.676l-1.525-2.23c-.423-.68-.733-1.31-1.015-1.807l-.632-1.166a2.485 2.485 0 0 1-.198-.424c-.695-1.629-.097-3.378 1.383-4.012.295-.126.601-.198.905-.24-.053-.096-.105-.192-.16-.287l-1.435-2.583c-.483-.846-.813-1.769-1.214-2.632-.372-.879-.774-1.728-1.095-2.593l-.844-2.584c-.255-.848-.577-1.649-.728-2.483-.345-1.65-.75-3.179-.95-4.623l-.456-3.939c-.084-1.172-.058-2.202-.083-3.041l-.023-1.946a3.427 3.427 0 0 1 .018-.511l.015-.175c.21-2.59 2.184-4.453 4.538-4.265s4.279 1.967 4.427 4.007l.011.143c.004.094.014.234.054.415l.284 1.561c.134.668.235 1.485.455 2.4l.869 3.031c.336 1.098.871 2.235 1.325 3.452.205.618.577 1.193.876 1.806l.953 1.851c.35.613.773 1.201 1.157 1.812.413.596.744 1.244 1.222 1.811l1.381 1.731c.234.286.445.587.694.86l.778.796c3.021 3.24 6.577 5.78 9.83 7.492a26.782 26.782 0 0 1-.598-2.052c-.336-1.098-.442-2.253-.643-3.353-.135-1.113-.187-2.219-.235-3.274.043-1.064.024-2.085.133-3.046.135-.959.212-1.865.384-2.685l.518-2.219c.182-.651.396-1.203.545-1.661l.365-1.057c.08-.245.15-.365.15-.365.616-1.36 2.045-1.985 3.282-1.426s1.933 1.895 1.617 3.026c0 0-.044.104-.073.313l-.149.899c-.057.388-.161.849-.22 1.386l-.118 1.808c-.031.659.038 1.378.047 2.125.035.749.193 1.532.28 2.333.179.794.349 1.612.584 2.421.301.794.49 1.625.886 2.386 1.346 3.13 3.452 5.769 5.293 7.356.431.429.915.725 1.288 1.04l.537.423.496.307.929.583c.093.059.183.123.27.192.609.37 1.033.949 1.356 1.606.051-.255.105-.507.182-.743.412-1.122 1.022-2.165 2.029-2.678.092-.063.186-.121.282-.173l.969-.514.517-.271.567-.383c.395-.286.899-.547 1.359-.943 1.951-1.45 4.244-3.929 5.813-6.953.45-.731.698-1.545 1.057-2.315.293-.79.521-1.593.758-2.372.145-.793.359-1.563.448-2.307.063-.744.185-1.456.201-2.115l.014-1.812c-.02-.541-.09-1.008-.118-1.399-.038-.389-.066-.696-.086-.906-.015-.211-.05-.318-.05-.318-.233-1.152.558-2.434 1.832-2.901s2.654.259 3.17 1.661c0 0 .062.125.124.375l.287 1.081c.115.468.289 1.034.423 1.696l.355 2.25c.112.83.123 1.739.188 2.706.039.966-.054 1.983-.088 3.048-.126 1.049-.258 2.147-.473 3.249-.279 1.082-.47 2.226-.884 3.297a28.233 28.233 0 0 1-1.565 3.812l.262-.09c.581-.213 1.22-.363 1.802-.671l1.855-.847.972-.435c.319-.16.62-.357.938-.536 1.255-.738 2.616-1.442 3.83-2.402.624-.458 1.285-.891 1.906-1.376l1.788-1.564.908-.784c.293-.271.548-.575.825-.861l1.643-1.733c.564-.564.98-1.23 1.479-1.833.469-.621.978-1.214 1.409-1.84l1.194-1.901c.376-.631.83-1.215 1.106-1.859.6-1.267 1.278-2.439 1.74-3.587l1.211-3.177c.32-.963.504-1.831.709-2.536l.449-1.651a2.64 2.64 0 0 0 .096-.44l.023-.152c.347-2.178 2.577-3.913 5.124-3.899 1.549.008 2.868.826 3.669 2.089a5.926 5.926 0 0 1 4.234-1.283c2.74.244 4.643 2.768 4.378 5.784l-.018.204a4.05 4.05 0 0 1-.079.591l-.407 2.23c-.192.958-.363 2.146-.689 3.476l-1.292 4.434c-.468 1.477-1.144 3.007-1.804 4.651.538-.745.967-1.444 1.362-2.008l1.033-1.532c.127-.174.202-.318.251-.417l.078-.147c1.111-2.106 3.997-3.104 6.597-2.203s3.833 3.811 2.846 6.672l-.066.194a4.006 4.006 0 0 1-.221.553l-.936 2.065c-.419.883-.872 1.994-1.512 3.205-.693 1.188-1.476 2.527-2.328 3.989-.337.548-.72 1.099-1.116 1.655l.276-.259c.15-.131.249-.245.313-.324l.101-.117c1.438-1.672 4.248-1.977 6.408-.627s2.674 4.225 1.192 6.603z"/>
  </symbol>
  <symbol id="o" viewBox="-55.296 -79.689 110.592 140.424">
    <use xlink:href="#c" width="110.592" height="140.424" x="-55.296" y="-79.689" overflow="visible"/>
    <path fill="#2C241F" d="M-37.746 12.536c-.096 12.76 12.021 38.302 24.833 25.49s12.932-12.692 25.552-.073S37.92 25.071 37.92 12.536c0 0-.078-12.536 10.548-12.536 0 33.543-21.7 60.735-48.468 60.735S-48.468 33.543-48.468 0c10.626 0 10.722 12.536 10.722 12.536z"/>
  </symbol>
  <symbol id="l" viewBox="-66.002 -76.15 132.005 141.461">
    <use xlink:href="#d" width="110.592" height="37.518" x="-55.296" y="-18.759" transform="translate(-3.019 -3.872)" overflow="visible"/>
    <path d="M52.183-52.509a6.405 6.405 0 0 1-3.039 5.448c.149.291.241.617.241.967a2.13 2.13 0 0 1-1.071 1.843c.551.438.91 1.105.91 1.863a2.39 2.39 0 0 1-3.724 1.983 9.622 9.622 0 0 1-.778.675c.176.557.292 1.14.348 1.74.511.278.861.814.861 1.438 0 .726-.474 1.335-1.127 1.554a8.357 8.357 0 0 1-1.928 3.473c1.154.966 1.904 2.398 1.904 4.021a5.265 5.265 0 0 1-10.53 0c0-.567.113-1.104.279-1.616-3.569-.964-6.199-4.216-6.199-8.09 0-.901.146-1.768.409-2.581a7.39 7.39 0 0 1-3.502-5.668 8.873 8.873 0 0 1-8.114-6.573c-2.547-.1-4.585-2.181-4.585-4.752 0-2.179 1.47-3.997 3.466-4.567a3.447 3.447 0 0 1 3.442-3.329c1.406 0 2.611.844 3.15 2.049a8.86 8.86 0 0 1 3.101-.567c1.372 0 2.667.32 3.827.876a3.117 3.117 0 0 1 2.917-2.028c.451 0 .878.1 1.266.272a4.16 4.16 0 0 1 2.024-.54 4.213 4.213 0 0 1 3.905 2.641c.229-.036.461-.07.701-.07 1.54 0 2.896.784 3.692 1.975.027-.001.053-.008.08-.008a2 2 0 0 1 1.815 1.166 6.366 6.366 0 0 1 2.673.658c.211-.22.504-.359.832-.359.639 0 1.156.518 1.156 1.156 0 .204-.067.387-.16.553a6.364 6.364 0 0 1 1.758 4.397zm-74.608-.866c-.769 0-1.48-.226-2.095-.595a5.518 5.518 0 0 1-2.092.412c-.32 0-.632-.033-.938-.085-.07.363-.176.714-.309 1.051a2.08 2.08 0 0 1-1.298 3.177c.251.45.406.961.406 1.513a3.125 3.125 0 0 1-3.126 3.126c-.152 0-.299-.023-.445-.045a10.937 10.937 0 0 1-1.401 3.022c.968.06 1.736.855 1.736 1.838 0 .319-.088.614-.23.877a6.697 6.697 0 0 1 .999 3.519 6.743 6.743 0 0 1-4.271 6.271 6.416 6.416 0 1 1-11.356 4.093c0-1.712.675-3.264 1.768-4.414a3.414 3.414 0 0 1-.45-1.673c0-.98.413-1.86 1.069-2.489a6.826 6.826 0 0 1-.124-.517 2.792 2.792 0 0 1-.452.046 2.797 2.797 0 0 1-2.797-2.797c0-.106.02-.207.031-.311a3.897 3.897 0 0 1-1.841.476 3.948 3.948 0 0 1-3.948-3.948c0-.868.288-1.663.763-2.314a10.982 10.982 0 0 1-.726-1.984l-.021.002a1.542 1.542 0 0 1-.332-3.046c.031-1.298.287-2.538.73-3.688a3.072 3.072 0 0 1-.689-3.423 3.114 3.114 0 0 1-.558.057 3.16 3.16 0 1 1 0-6.322c.789 0 1.501.299 2.056.777.926-1.033 2.256-1.695 3.753-1.695 1.493 0 2.821.659 3.747 1.688a4.109 4.109 0 0 1 4.107-4.067c1.476 0 2.76.784 3.485 1.951a2.453 2.453 0 0 1 1.943-.964 2.467 2.467 0 0 1 2.467 2.467c0 .181-.021.355-.059.524.348.034.685.103 1.012.192a5.533 5.533 0 0 1 5.298-3.945c1.769 0 3.34.833 4.352 2.125A2.081 2.081 0 0 1-19.1-59.82c.476.667.761 1.479.761 2.36a4.085 4.085 0 0 1-4.086 4.085z" fill="#C2C2C2"/>
    <path fill="#E1A183" d="M-3.019-76.15c-7.83 0-14.178 6.347-14.178 14.177v27.348c0 7.83 6.348 14.177 14.178 14.177s14.178-6.347 14.178-14.177v-27.348c0-7.83-6.348-14.177-14.178-14.177z"/>
    <path fill="#FBD3AD" d="M-3.02-64.601c-26.653 0-48.258 21.606-48.258 48.258V8.599c0 26.652 21.604 48.26 48.258 48.26 26.654 0 48.259-21.607 48.259-48.26v-24.941c0-26.652-21.604-48.259-48.259-48.259z"/>
    <use xlink:href="#e" width="21.466" height="31.263" x="-10.733" y="-15.631" transform="translate(-3.019 -19.492)" overflow="visible"/>
    <use xlink:href="#f" width="55.693" height="22.585" x="-27.848" y="-8.527" transform="translate(-3.019 -3.872)" overflow="visible"/>
    <use xlink:href="#g" width="34.486" height="17.596" x="-17.243" y="-8.798" transform="translate(-3.019 -50.912)" overflow="visible"/>
    <path fill="#F6F5F5" d="M64.067-55.895a5.508 5.508 0 0 1 1.54 3.823 5.53 5.53 0 0 1-3.262 5.042c.063.286.1.582.1.887a4.13 4.13 0 0 1-1.667 3.307c.052.341.087.687.087 1.041a6.883 6.883 0 0 1-.866 3.349c.537.723.865 1.609.865 2.579a4.323 4.323 0 0 1-1.386 3.167 5.611 5.611 0 0 1-.293 4.771 5.722 5.722 0 0 1 1.262 8.219c.006.147.022.293.022.442 0 1.43-.273 2.793-.752 4.055.477.986.751 2.088.751 3.257a7.475 7.475 0 0 1-1.955 5.041c.301.636.481 1.34.481 2.09 0 1.596-.771 3-1.949 3.899.037.205.063.413.063.629 0 .138-.025.268-.04.401a4.704 4.704 0 0 1 1.226 3.155c0 1.02-.328 1.958-.875 2.731a5.997 5.997 0 0 1 1.271 3.692 6.026 6.026 0 0 1-4.925 5.921 8.86 8.86 0 0 1 2.554 6.231 8.893 8.893 0 0 1-8.893 8.893c-.076 0-.15-.01-.227-.012a7.307 7.307 0 0 1-7.282 6.73c-.348 0-.686-.032-1.021-.079a2.935 2.935 0 0 1-1.089 1.988c.336.744.528 1.568.528 2.438a5.929 5.929 0 0 1-8.142 5.498c.15.646.237 1.318.237 2.011a8.893 8.893 0 0 1-8.893 8.893 8.848 8.848 0 0 1-5.696-2.067 3.733 3.733 0 0 1-2.802 1.277c-.271 0-.534-.032-.788-.086a3.944 3.944 0 0 1-3.559 2.26 3.915 3.915 0 0 1-2.332-.776 8.105 8.105 0 0 1-7.944 6.508 8.092 8.092 0 0 1-6.849-3.786 5.916 5.916 0 0 1-7.264-1.603 7.904 7.904 0 0 1-12.792-7.697 2.364 2.364 0 0 1-1.94-2.253 5.092 5.092 0 0 1-2.575.716c-2.644 0-4.796-2.004-5.081-4.571-.086.006-.168.025-.255.025a3.755 3.755 0 0 1-3.755-3.755c0-.154.027-.301.045-.451a3.735 3.735 0 0 1-3.017-2.574 8.565 8.565 0 0 1-.98.061 8.498 8.498 0 0 1-8.497-8.497 8.485 8.485 0 0 1 3.797-7.076 3.153 3.153 0 0 1-2.217-3.002c0-.564.16-1.086.419-1.545-2.054-.521-3.579-2.365-3.579-4.581 0-.106.024-.206.031-.312a5.929 5.929 0 0 1-4.775-5.814 5.918 5.918 0 0 1 2.68-4.956 4.108 4.108 0 0 1-.9-2.553c0-.744.212-1.432.555-2.035a4.135 4.135 0 0 1-1.938-3.5c0-.831.25-1.602.671-2.25a4.22 4.22 0 0 1-1.461-3.183c0-.985.349-1.88.911-2.601a6.703 6.703 0 0 1 2.206-7.288 5.02 5.02 0 0 1-.461-1.407 7.113 7.113 0 0 1-4.436-6.588 7.102 7.102 0 0 1 3.478-6.106 3.734 3.734 0 0 1-1.5-2.984c0-.309.048-.604.118-.891a7.9 7.9 0 0 1-4.269-7.014c0-1.823.624-3.498 1.661-4.835a4.306 4.306 0 0 1-.278-1.488c0-.896.272-1.729.737-2.421-.697-.852-1.133-1.926-1.133-3.112 0-.415.066-.812.163-1.196-1.147-.591-1.94-1.772-1.94-3.151a3.558 3.558 0 0 1 3.557-3.557 3.54 3.54 0 0 1 2.55 1.085 2.63 2.63 0 0 1 2.391-1.544c.71 0 1.352.284 1.825.741a4.555 4.555 0 0 1 2.126-.543 4.58 4.58 0 0 1 3.093 1.213 3.338 3.338 0 0 1 5.008 1.701 7.7 7.7 0 0 1 5.815-.538 3.844 3.844 0 0 1 3.476-2.215 3.855 3.855 0 0 1 3.854 3.854 3.846 3.846 0 0 1-2.214 3.475 7.694 7.694 0 0 1-3.271 8.776 6.518 6.518 0 0 1-1.532 12.054 8.459 8.459 0 0 1-.423 6.199 6.5 6.5 0 0 1 .425 2.3 6.503 6.503 0 0 1-2.64 5.231 5.7 5.7 0 0 1 .472 2.275c0 1.201-.37 2.314-1.001 3.235a3.92 3.92 0 0 1 .402 1.708 3.946 3.946 0 0 1-2.318 3.59c.579.763.936 1.702.936 2.733 0 .896-.268 1.725-.715 2.428a3.941 3.941 0 0 1 1.135 2.768c0 1.534-.883 2.849-2.16 3.504a5.839 5.839 0 0 1 2.361 3.367 7.115 7.115 0 0 1 4.728 6.7 7.096 7.096 0 0 1-2.19 5.13 7.134 7.134 0 0 1 3.168 5.051 3.866 3.866 0 0 1 2.397 3.575c0 .417-.083.812-.205 1.188.359.144.689.337.994.566a7.067 7.067 0 0 1 4.32-1.472 7.109 7.109 0 0 1 7.107 7.005 5.73 5.73 0 0 1 4.75 5.641l-.001.021c.066-.003.13-.02.197-.02 1.019 0 1.938.396 2.639 1.029.795-1.321 2.229-2.215 3.883-2.215a4.54 4.54 0 0 1 4.226 2.898 8.399 8.399 0 0 1 7.051-.28 3.35 3.35 0 0 1 3.148-2.224c1.31 0 2.432.757 2.986 1.851a3.941 3.941 0 0 1 3.337-1.852c1.165 0 2.202.514 2.926 1.315a2.56 2.56 0 0 1 4.54-.576 3.714 3.714 0 0 1 1.502-.666 6.317 6.317 0 0 1 6.249-5.407c.157 0 .312.013.466.023a6.933 6.933 0 0 1 3.254-3.284 4.116 4.116 0 0 1-.361-1.68c0-1.616.934-3.001 2.281-3.687a6.125 6.125 0 0 1 5.434-4.979 3.521 3.521 0 0 1-.402-1.61 3.552 3.552 0 0 1 3.445-3.546 3.548 3.548 0 0 1 2.029-4.715 6.719 6.719 0 0 1 .067-13.137c-.001-.047-.007-.094-.007-.142 0-1.284.396-2.475 1.072-3.46-2.805-2.089-4.63-5.421-4.63-9.188 0-3.553 1.617-6.728 4.155-8.83a2.56 2.56 0 0 1-1.784-2.434 2.56 2.56 0 0 1 1.763-2.428 6.092 6.092 0 0 1-.942-3.898l-.03.002a7.51 7.51 0 0 1-7.51-7.51 7.497 7.497 0 0 1 3.562-6.379 6.123 6.123 0 0 1 .786-12.196c1.165 0 2.25.331 3.177.896a5.625 5.625 0 0 1 7.939-1.568 4.211 4.211 0 0 1 2.718-1.008c.668 0 1.293.168 1.855.443a5.203 5.203 0 0 1 4.185-.005 5.284 5.284 0 0 1 3.248-1.13 5.336 5.336 0 0 1 5.336 5.336c-.003 1.652-.766 3.106-1.939 4.085z"/>
  </symbol>
  <symbol id="g" viewBox="-17.243 -8.798 34.486 17.596">
    <path fill="#E1A183" d="M-17.183 8.798c-.027-.377-.061-.753-.061-1.137 0-9.09 7.72-16.459 17.243-16.459S17.243-1.429 17.243 7.661c0 .384-.033.76-.061 1.137h-34.365z"/>
    <path fill="#6D222C" d="M-12.441-3.093C-9.424.396-4.975 2.612 0 2.612S9.424.395 12.441-3.093a16.44 16.44 0 0 1 3.548 6.917H-15.99a16.448 16.448 0 0 1 3.549-6.917z"/>
    <path fill="#AD192B" d="M0 2.612c-4.975 0-9.424-2.217-12.441-5.705C-9.424-6.581-4.975-8.798 0-8.798s9.424 2.217 12.441 5.705C9.424.396 4.975 2.612 0 2.612z"/>
    <path fill="#FFF" d="M-16.459 7.661c0-1.324.173-2.605.47-3.837H15.99c.297 1.232.47 2.513.47 3.837h-32.919z"/>
  </symbol>
  <symbol id="m" viewBox="-9.583 -88.358 19.166 176.717">
    <path fill="#436EB3" d="M0 11.737c-5.293 0-9.583 4.291-9.583 9.583v57.455c0 5.293 4.29 9.583 9.583 9.583s9.583-4.29 9.583-9.583V21.32c0-5.292-4.29-9.583-9.583-9.583z"/>
    <path fill="#436EB3" d="M0-45.718c-5.293 0-9.583 4.291-9.583 9.583V21.32c0 5.293 4.29 9.583 9.583 9.583s9.583-4.29 9.583-9.583v-57.455c0-5.292-4.29-9.583-9.583-9.583z"/>
    <path fill="#F8D5AC" d="M0-88.358c-5.293 0-9.583 4.291-9.583 9.583V-55.3c0 5.292 4.29 9.583 9.583 9.583s9.583-4.291 9.583-9.583v-23.476c0-5.291-4.29-9.582-9.583-9.582z"/>
  </symbol>
  <symbol id="k" viewBox="-9.583 -88.358 19.166 176.717">
    <path fill="#95BFFC" d="M0 11.737c-5.293 0-9.583 4.291-9.583 9.583v57.455c0 5.293 4.29 9.583 9.583 9.583s9.583-4.29 9.583-9.583V21.32c0-5.292-4.29-9.583-9.583-9.583z"/>
    <path fill="#95BFFC" d="M0-45.718c-5.293 0-9.583 4.291-9.583 9.583V21.32c0 5.293 4.29 9.583 9.583 9.583s9.583-4.29 9.583-9.583v-57.455c0-5.292-4.29-9.583-9.583-9.583z"/>
    <path fill="#F8D5AC" d="M0-88.358c-5.293 0-9.583 4.291-9.583 9.583V-55.3c0 5.292 4.29 9.583 9.583 9.583s9.583-4.291 9.583-9.583v-23.476c0-5.291-4.29-9.582-9.583-9.582z"/>
  </symbol>
  <symbol id="h" viewBox="-18.833 -11.871 37.665 23.741">
    <path d="M0 11.87c-10.401 0-18.833-8.431-18.833-18.832h37.665C18.833 3.439 10.401 11.87 0 11.87z"/>
    <path fill="#464646" d="M18.833-11.871h-37.666v4.909h37.666z"/>
    <path fill="#959595" d="M9.25 2.454a3.335 3.335 0 1 0-6.672 0 3.336 3.336 0 1 0 6.672 0z"/>
  </symbol>
  <symbol id="b" viewBox="-18.833 -108.588 37.665 217.175">
    <path fill="#AF9A71" d="M3.121-108.588c-8.238 0-14.915 6.678-14.915 14.914V93.672c0 8.237 6.677 14.915 14.915 14.915s14.916-6.678 14.916-14.915V-93.674c0-8.236-6.678-14.914-14.916-14.914z"/>
    <use xlink:href="#h" width="37.665" height="23.741" x="-18.833" y="-11.871" transform="translate(0 -96.717)" overflow="visible"/>
  </symbol>
  <symbol id="a" viewBox="-18.833 -108.588 37.665 217.175">
    <path fill="#AF9A71" d="M-3.123-108.588c-8.238 0-14.915 6.678-14.915 14.914V93.672c0 8.237 6.677 14.915 14.915 14.915 8.24 0 14.918-6.678 14.918-14.915V-93.674c0-8.236-6.678-14.914-14.918-14.914z"/>
    <use xlink:href="#h" width="37.665" height="23.741" x="-18.833" y="-11.871" transform="translate(0 -96.717)" overflow="visible"/>
  </symbol>
  <symbol id="i" viewBox="-11.898 -16.328 23.797 32.655">
    <path fill="#E2A183" d="M11.898-1.417c0-8.234-5.327-14.91-11.898-14.91s-11.898 6.676-11.898 14.91c0 8.235 5.327 14.91 11.898 14.91s11.898-6.676 11.898-14.91z"/>
    <path fill="#FBD3AD" d="M11.898 1.417c0-8.235-5.327-14.91-11.898-14.91s-11.898 6.675-11.898 14.91c0 8.234 5.327 14.91 11.898 14.91s11.898-6.675 11.898-14.91z"/>
  </symbol>
  <symbol id="e" viewBox="-10.733 -15.631 21.466 31.263">
    <path fill="#E2A183" d="M-.001-15.631c-5.928 0-10.732 4.806-10.732 10.733V.649c0 5.927 4.805 10.733 10.732 10.733 5.929 0 10.733-4.806 10.733-10.733v-5.547c0-5.928-4.804-10.733-10.733-10.733z"/>
    <path fill="#FBD3AD" d="M-.001-11.381c-5.928 0-10.732 4.806-10.732 10.733v5.547c0 5.927 4.805 10.733 10.732 10.733 5.929 0 10.733-4.806 10.733-10.733V-.648c0-5.928-4.804-10.733-10.733-10.733z"/>
  </symbol>
  <symbol id="d" viewBox="-55.296 -18.759 110.592 37.518">
    <path fill="#FBD3AD" d="M40.326 18.759v-37.518c8.267 0 14.97 8.399 14.97 18.759s-6.703 18.759-14.97 18.759z"/>
    <path fill="#E1A183" d="M42.665 16.137C48.516 14.707 52.957 8.015 52.957 0s-4.441-14.707-10.292-16.137v32.274z"/>
    <path fill="#FBD3AD" d="M-40.326 18.759v-37.518c-8.267 0-14.97 8.399-14.97 18.759s6.703 18.759 14.97 18.759z"/>
    <path fill="#E1A183" d="M-42.665 16.137C-48.516 14.707-52.957 8.015-52.957 0s4.441-14.707 10.292-16.137v32.274z"/>
  </symbol>
  <symbol id="c" viewBox="-55.296 -79.689 110.592 140.424">
    <use xlink:href="#d" width="110.592" height="37.518" x="-55.296" y="-18.759" overflow="visible"/>
    <path fill="#E1A183" d="M0-79.689c-7.83 0-14.178 6.347-14.178 14.177v27.348c0 7.83 6.348 14.177 14.178 14.177s14.178-6.347 14.178-14.177v-27.348c0-7.83-6.348-14.177-14.178-14.177z"/>
    <path fill="#FBD3AD" d="M48.468 0c0-33.543-21.7-60.735-48.468-60.735S-48.468-33.543-48.468 0-26.768 60.735 0 60.735 48.468 33.543 48.468 0z"/>
    <use xlink:href="#i" width="23.797" height="32.655" x="-11.898" y="-16.328" transform="translate(0 -16.34)" overflow="visible"/>
    <use xlink:href="#j" width="54.07" height="21.443" x="-27.035" y="-8.527" overflow="visible"/>
    <use xlink:href="#g" width="34.486" height="17.596" x="-17.243" y="-8.798" transform="translate(0 -47.046)" overflow="visible"/>
  </symbol>
  <symbol id="j" viewBox="-27.035 -8.527 54.07 21.443">
    <path d="M-9.922-2.857a5.67 5.67 0 1 0-11.336 0 5.67 5.67 0 0 0 11.336 0zm19.844 0a5.67 5.67 0 1 1 11.336 0 5.67 5.67 0 0 1-11.336 0z"/>
    <path fill="none" stroke="#000" stroke-width="2" stroke-linecap="round" stroke-miterlimit="10" d="M5.145 7.59a14.73 14.73 0 0 0 10.446 4.326c4.078 0 7.771-1.653 10.444-4.325m-31.18-.001a14.73 14.73 0 0 1-10.446 4.326 14.728 14.728 0 0 1-10.444-4.325"/>
  </symbol>
  <g fill="#003A62">
    <path d="M833.77 287.416c0-12.15 7.65-21.826 17.326-21.826 8.324 0 2.925 13.275 9.9 13.275.898 0 2.25-.225 3.6-.675 30.15-6.525 61.201-10.575 92.027-11.25 11.926 0 23.4.45 35.326 1.125 2.475 0 4.949 2.925 7.2 4.5-2.251 1.575-4.726 4.95-7.2 5.4-20.476 2.475-40.502 4.95-60.527 6.75-6.975.675-9.225 3.375-10.35 10.125-8.551 51.527-19.576 102.604-29.701 153.455-1.125 5.626-4.275 15.3-9 15.3s-8.326-3.601-8.326-8.55c0-8.1.9-16.426 2.025-25.426l10.35-52.877c4.951-24.976 9.676-50.176 14.852-75.601.449-1.802.676-3.602.676-4.951 0-5.176-2.476-7.426-7.65-7.426-1.576 0-3.602.227-5.625.676-14.627 2.925-29.026 5.399-42.527 8.1-9.001.001-12.376-2.473-12.376-10.124z"/>
    <path d="M1001.619 356.718c-3.375 0-5.176-6.75-7.875-6.75-3.824 0-17.55 24.075-22.727 34.426-5.624 11.476-9 23.851-13.949 35.776-3.375 8.1-6.975 8.774-11.926 11.701-1.574-2.926-4.5-6.301-4.5-9.226.9-12.375 2.926-24.526 4.5-36.676 1.35-10.801.9-42.977 15.301-42.977 6.074 0 8.775 10.126 10.126 17.325 2.699-2.475 5.399-4.949 7.649-7.649 6.525-8.101 13.501-22.501 23.4-22.501 4.726 0 4.5 4.726 7.201 8.551-2.024 8.325-3.149 18-7.2 18zm51.072 9.45c0 1.125-.227 2.7-.45 4.05-2.025 13.051-3.825 26.326-5.4 39.376-.9 8.101-2.026 17.326-7.425 17.326-2.025 0-3.826-1.575-5.851-4.275-6.3-7.425-2.251-14.176-6.075-14.176-1.35 0-9 6.751-16.65 6.751-6.75 0-11.025-5.626-11.025-12.601 0-16.2 9.226-32.85 21.825-42.302 4.501-3.374 11.251-4.949 16.651-7.649 9.674 1.125 14.4 5.625 14.4 13.5zm-20.252.45c-2.023 0-4.049.45-5.174 1.575-5.85 8.1-15.976 21.601-15.976 27.9 0 1.125 1.126 5.175 3.825 5.175 7.199 0 16.65-18.45 23.176-29.025-2.7-4.275-2.925-5.625-5.851-5.625zm39.374-17.1c8.101 0 9.001 3.825 9.001 9.9-.451 4.725-.676 9.45-.676 14.175 0 4.95 1.125 5.626 3.601 9.001 8.325-6.976 14.175-20.025 21.15-30.15.9-2.926 4.5-4.275 8.101-5.851-.226.45-.226.899-.226 1.351 0 .899.226 1.574.226 2.249 0 .676-.226 1.351-.45 2.025-6.75 14.625-13.95 29.476-20.701 44.326-2.251 4.951-2.925 10.575-5.175 15.301-2.475 5.175-8.55 14.625-13.275 14.625-9.225 0-9.451-23.176-9.451-32.176v-35.551c.451-5.176 1.8-9.225 7.875-9.225zm96.3 16.65c0 1.125-.226 2.7-.45 4.05-2.026 13.051-3.825 26.326-5.401 39.376-.899 8.101-2.024 17.326-7.424 17.326-2.025 0-3.825-1.575-5.852-4.275-6.299-7.425-2.249-14.176-6.074-14.176-1.35 0-9 6.751-16.65 6.751-6.75 0-11.025-5.626-11.025-12.601 0-16.2 9.225-32.85 21.825-42.302 4.501-3.374 11.251-4.949 16.651-7.649 9.675 1.125 14.4 5.625 14.4 13.5zm-20.251.45c-2.026 0-4.05.45-5.175 1.575-5.852 8.1-15.976 21.601-15.976 27.9 0 1.125 1.124 5.175 3.825 5.175 7.2 0 16.65-18.45 23.176-29.025-2.699-4.275-2.925-5.625-5.85-5.625zm33.074 18c2.025-11.25-.45-34.426 14.625-34.426 5.176 0 9.001 4.275 9.001 9.226v1.125c-4.5 19.801-9.45 39.826-14.401 59.401-1.125 4.275-6.074 6.75-9.225 8.325-2.025-2.925-5.4-6.75-5.4-10.125v-1.575s-.225-.451-.674-.451c2.248-10.574 4.048-20.699 6.074-31.5zm24.3-76.726c4.275 0 7.424 1.8 7.424 5.176 0-.9-4.273 11.925-9.899 11.925-1.35 0-5.625-4.726-6.975-5.85.224-8.101 3.825-11.251 9.45-11.251zm32.85-11.701c1.799-8.775 3.375-26.551 11.7-26.551 5.851.675 7.2 6.3 7.2 12.601-6.75 35.326-13.951 69.751-19.575 105.077-.226 1.351-.677 2.926-.677 4.275 0 1.8.451 2.925 2.477 2.925.9 0 2.025-.225 3.375-.675.449-.225 3.825 2.476 3.825 4.05 0 9.9-9.901 29.477-20.476 29.477-6.074 0-7.65-7.651-8.775-15.301 4.05-38.925 13.051-77.626 20.926-115.878zM737.472 661.369c0-20.251 7.874-48.827 22.275-48.827 4.726 0 8.55 5.401 12.601 10.126 1.35-1.575 2.925-3.15 3.6-4.95 6.976-19.575 13.726-36.676 22.951-62.102 1.574-4.05 4.049-5.625 7.425-5.625 6.3 0 8.101 2.7 8.101 5.625 0 1.574-.45 3.375-.676 4.951-4.274 18.674-4.949 25.65-9.225 44.1-4.051 17.776-9.676 35.102-14.176 52.651-4.725 18.9-8.1 52.877-21.15 52.877-3.824 0-6.075-4.051-6.075-11.251 0-4.725.675-9.675 1.126-14.4 0-2.699-.451-4.95-.9-7.649-2.25 1.125-5.176 1.574-7.201 3.375-2.475 2.475-5.399 4.95-8.55 4.95-6.3 0-10.575-10.801-10.575-15.525 0-2.25.45-4.051.45-5.176v-3.15zm11.024 10.8c1.801 0 4.5-1.35 6.301-2.7 2.25-1.35 13.951-27.9 13.951-32.626 0-4.5-7.876-11.025-11.025-11.025-4.275 0-9.676 27.901-12.601 39.151 1.35 3.15 2.024 6.75 3.374 7.2zm99.225-61.427c7.426 0 13.726 4.726 13.726 12.825 0 7.876-7.876 18.9-12.15 26.101-5.399 8.775-16.876 11.926-16.876 23.402 0 4.273-.674 10.574 6.751 10.574 4.5 0 8.55-2.476 13.05-2.476 2.475 0 3.826 1.125 3.826 3.375 0 9.226-13.951 16.426-22.502 16.426-17.324 0-18.225-15.301-19.125-25.65.449-23.4 11.249-64.577 33.3-64.577zm.9 12.601c-4.95 0-8.101 12.825-9.9 18 0 .226-.225.226-.225.45 0 .9 1.574 2.925 2.699 2.925 3.375 0 8.326-11.024 11.701-16.2-1.575-2.025-2.925-5.175-4.275-5.175zm135.897 13.95c.676-3.6 1.35-7.875 1.575-11.7 0-1.35-.899-2.925-1.575-4.5-1.35 1.125-2.925 1.575-3.6 3.15-7.65 17.1-13.5 35.551-21.15 53.551-1.125 2.476-3.825 4.276-5.85 6.525-1.801-2.7-4.727-4.95-5.176-7.875-3.375-19.801-5.625-40.276-8.775-60.302-.674-4.274-2.475-8.325-3.375-13.051-1.35 3.825-3.375 7.876-3.826 12.15l-7.199 61.202c-.449 6.075-2.699 14.4-7.65 14.4-6.074 0-9.225-16.2-9.225-24.301 0-.9 0-2.025.225-2.925 3.15-33.526 9.676-66.152 13.5-99.003.676-6.3 2.701-11.25 9.451-11.25 17.1 0 13.949 25.875 15.301 41.626 1.574 17.55 2.924 35.101 4.949 52.651.225 2.475 2.25 4.725 3.6 7.425 1.576-2.024 4.051-3.6 5.4-6.3 15.75-33.526 32.176-68.177 46.802-102.378 1.8-4.05 4.724-5.175 7.65-5.175 6.975 0 10.125 2.925 10.125 6.975 0 5.851-3.825 13.275-5.175 19.801-8.325 36.676-16.65 73.577-24.301 110.478-2.701 10.351-2.701 32.402-13.727 32.402-3.15 0-6.074-7.201-6.074-11.701 0-2.476.225-5.176.225-7.65-.675 0-1.125-.225-1.574-.225 2.925-17.774 6.298-35.999 9.449-54zm74.473-26.551c7.427 0 13.726 4.726 13.726 12.825 0 7.876-7.875 18.9-12.15 26.101-5.4 8.775-16.875 11.926-16.875 23.402 0 4.273-.676 10.574 6.75 10.574 4.5 0 8.55-2.476 13.05-2.476 2.476 0 3.825 1.125 3.825 3.375 0 9.226-13.95 16.426-22.5 16.426-17.326 0-18.227-15.301-19.126-25.65.45-23.4 11.249-64.577 33.3-64.577zm-13.05-33.975c0-3.15 3.375-4.5 6.3-5.624 17.325-6.977 33.976-13.952 51.302-20.477.451-.226 1.125-.226 1.799-.226 2.926 0 5.401 1.125 5.401 4.275 0 1.575-.45 3.6-1.125 4.05-13.052 12.377-35.552 19.126-54.677 26.776-4.275-3.149-9-4.274-9-8.774zm13.95 46.576c-4.949 0-8.1 12.825-9.899 18 0 .226-.226.226-.226.45 0 .9 1.575 2.925 2.699 2.925 3.377 0 8.328-11.024 11.703-16.2-1.576-2.025-2.927-5.175-4.277-5.175zm99.673 68.401c-.45 2.025-3.375 3.376-5.175 4.95-.9-2.25-2.926-4.5-2.926-6.3 2.025-10.125 4.726-20.025 6.976-29.701l4.95-22.05c0-1.351-.45-2.926-.675-4.275-1.352.45-3.375.45-4.275 1.35-8.325 9.226-14.625 20.701-22.502 31.051-1.35 2.025-4.5 2.7-6.749 3.601-.899-2.025-2.251-4.05-2.251-6.075 0-6.976 3.15-14.176 3.15-21.15 0-2.025-.899-3.825-1.35-5.625-14.4 9.225-25.65 24.75-30.602 41.4-2.023 6.525-6.974 12.825-10.574 12.825-2.7 0-6.076-4.05-6.076-10.575v-1.575c2.926-17.775 6.301-35.551 9.901-53.776 1.125-5.85 5.851-7.649 10.801-7.649 5.175 0 6.524 5.175 6.524 9.899 0 3.601-1.35 7.2-1.35 11.251 0 2.024.675 4.274.898 6.525 2.477-1.126 5.176-1.126 6.752-2.7 6.524-4.95 13.275-14.851 19.574-14.851 2.926 0 4.951 10.575 5.401 16.2 2.475-3.15 5.4-4.5 7.65-7.2 5.85-6.976 9.224-14.85 18.675-14.85 2.025 0 6.301 4.725 6.301 10.8v2.024c.225 0 .675.226 1.35.226-4.722 18.675-7.197 39.825-14.398 56.25zm45.67-67.276c2.926 0 6.752 2.025 6.752 5.85 0 1.351-.451 2.926-1.125 3.601-9 10.8-14.176 28.351-14.176 41.852 0 3.149 2.699 6.975 4.049 10.125 2.926-2.025 7.201-3.375 8.102-5.851 5.4-12.15 10.35-26.551 10.35-38.926 0-4.726-2.25-9.675-2.25-14.851 0-3.6 1.351-3.6 3.825-6.075 6.301 6.301 6.976 17.775 6.976 26.326 0 22.052-13.051 49.951-28.352 49.951-9.899 0-16.425-11.025-16.425-29.701.901-10.576 8.55-42.301 22.274-42.301zm35.325 30.15c2.025-11.25-.45-34.426 14.625-34.426 5.176 0 9.001 4.275 9.001 9.226v1.125c-4.5 19.801-9.45 39.826-14.401 59.401-1.124 4.275-6.074 6.75-9.225 8.325-2.025-2.925-5.4-6.75-5.4-10.125v-1.574s-.225-.451-.676-.451c2.25-10.575 4.05-20.7 6.076-31.501zm24.3-76.726c4.275 0 7.424 1.8 7.424 5.175 0-.899-4.273 11.926-9.899 11.926-1.35 0-5.626-4.726-6.975-5.85.224-8.101 3.825-11.251 9.45-11.251zm70.651 48.826c-3.375 0-5.174-6.75-7.875-6.75-3.825 0-17.551 24.075-22.727 34.426-5.625 11.476-9 23.851-13.949 35.776-3.375 8.1-6.977 8.774-11.926 11.701-1.574-2.927-4.5-6.301-4.5-9.227.9-12.375 2.926-24.525 4.5-36.676 1.351-10.801.9-42.977 15.301-42.977 6.075 0 8.775 10.126 10.125 17.325 2.7-2.475 5.4-4.949 7.65-7.649 6.525-8.101 13.5-22.501 23.4-22.501 4.725 0 4.5 4.726 7.2 8.551-2.024 8.326-3.149 18.001-7.199 18.001zm33.746-15.976c7.426 0 13.726 4.726 13.726 12.825 0 7.876-7.875 18.9-12.15 26.101-5.401 8.775-16.875 11.926-16.875 23.402 0 4.273-.677 10.574 6.75 10.574 4.5 0 8.55-2.476 13.05-2.476 2.475 0 3.824 1.125 3.824 3.375 0 9.226-13.949 16.426-22.5 16.426-17.325 0-18.225-15.301-19.125-25.65.449-23.4 11.249-64.577 33.3-64.577zm.9 12.601c-4.95 0-8.101 12.825-9.9 18 0 .226-.225.226-.225.45 0 .9 1.574 2.925 2.699 2.925 3.376 0 8.325-11.024 11.701-16.2-1.576-2.025-2.925-5.175-4.275-5.175z"/>
  </g>
  <path fill="#95BFFC" d="M22.23 456.896c12.278 0 22.229-9.953 22.229-22.229V301.388c0-12.278-9.951-22.229-22.229-22.229-12.279 0-22.229 9.952-22.229 22.229v133.279c.001 12.276 9.95 22.229 22.229 22.229z"/>
  <path fill="#FBD3AD" d="M138.795 1040.551c-11.531 0-20.877-9.347-20.877-20.877V557.648c0-11.53 9.346-20.877 20.877-20.877 11.53 0 20.877 9.347 20.877 20.877v462.025c0 11.531-9.347 20.878-20.877 20.878z"/>
  <path fill="#AF9A71" d="M146.039 985.479c-24.127 0-43.686 19.557-43.686 43.685h87.371c.001-24.129-19.558-43.685-43.685-43.685z"/>
  <path fill="#464646" d="M102.354 1029.163h87.371v11.389h-87.371z"/>
  <circle fill="#959595" cx="159.756" cy="1007.321" r="7.739"/>
  <path fill="#FBD3AD" d="M65.907 1040.551c-11.53 0-20.878-9.347-20.878-20.877V557.648c0-11.53 9.348-20.877 20.878-20.877s20.876 9.347 20.876 20.877v462.025c0 11.531-9.345 20.878-20.876 20.878z"/>
  <path fill="#AF9A71" d="M58.668 985.479c-24.128 0-43.687 19.557-43.687 43.685h87.37c.001-24.129-19.557-43.685-43.683-43.685z"/>
  <path fill="#464646" d="M14.981 1029.163h87.37v11.389h-87.37z"/>
  <circle fill="#FFF" cx="72.385" cy="1007.321" r="7.738"/>
  <path fill="#E33533" d="M186.107 815.417V552.813c0-12.758-10.439-23.196-23.197-23.196H41.801c-12.758 0-23.197 10.438-23.197 23.196v262.604h167.503zM44.459 506.419h115.793v23.197H44.459z"/>
  <path fill="#95BFFC" d="M41.801 506.419c-12.758 0-23.197-10.439-23.197-23.197.003 0 .003-147.087.003-147.087 0-46.254 37.495-83.752 83.749-83.752 46.253 0 83.754 37.498 83.754 83.752V506.42H41.798l.003-.001z"/>
  <use xlink:href="#k" width="19.166" height="176.717" x="-9.583" y="-88.358" transform="matrix(2.3197 0 0 -2.3197 182.482 484.124)" overflow="visible"/>
  <use xlink:href="#l" width="132.005" height="141.461" x="-66.002" y="-76.15" transform="matrix(1.5876 0 0 -1.5876 102.356 156.738)" overflow="visible"/>
  <use xlink:href="#m" width="19.166" height="176.717" x="-9.583" y="-88.358" transform="rotate(180 59.76 224.473) scale(2.4664)" overflow="visible"/>
  <path fill="#436EB3" d="M204.712 202.551c-49.179 0-89.046 39.87-89.046 89.048v181.054h178.096V291.6c0-49.179-39.872-89.049-89.05-89.049z"/>
  <path fill="#436EB3" d="M345.894 410.23c-12.284 4.421-25.823-1.955-30.243-14.235l-47.984-133.337c-4.42-12.283 1.953-25.822 14.236-30.242 12.283-4.421 25.823 1.952 30.244 14.235l47.982 133.336c4.42 12.283-1.951 25.823-14.235 30.243z"/>
  <path fill="#436EB3" d="M409.896 239.157c11.751 5.685 16.668 19.821 10.983 31.57l-61.711 127.564c-5.688 11.751-19.819 16.668-31.571 10.983-11.752-5.684-16.669-19.817-10.983-31.568l61.712-127.564c5.684-11.75 19.819-16.669 31.57-10.985z"/>
  <use xlink:href="#n" width="75.33" height="230.26" x="-37.665" y="-115.13" transform="matrix(2.4664 0 0 -2.4664 204.682 756.639)" overflow="visible"/>
  <use xlink:href="#o" width="110.592" height="140.424" x="-55.296" y="-79.689" transform="matrix(1.7026 0 0 -1.7026 204.713 103.408)" overflow="visible"/>
  <path fill="#003A62" d="M258.942 456.896c12.278 0 22.229-9.953 22.229-22.229V301.388c0-12.278-9.951-22.229-22.229-22.229s-22.229 9.952-22.229 22.229v133.279c0 12.276 9.951 22.229 22.229 22.229z"/>
  <path fill="#003A62" d="M258.942 590.176c12.278 0 22.229-9.955 22.229-22.23V434.667c0-12.278-9.951-22.23-22.229-22.23s-22.229 9.952-22.229 22.23v133.278c0 12.276 9.951 22.231 22.229 22.231z"/>
  <path fill="#F8D5AC" d="M258.942 689.088c12.278 0 22.229-9.953 22.229-22.229v-54.457c0-12.276-9.951-22.229-22.229-22.229s-22.229 9.953-22.229 22.229v54.457c0 12.276 9.951 22.229 22.229 22.229z"/>
  <path fill="#003A62" d="M419.194 456.896c-12.278 0-22.229-9.953-22.229-22.229V301.388c0-12.278 9.951-22.229 22.229-22.229s22.229 9.952 22.229 22.229v133.279c.001 12.276-9.95 22.229-22.229 22.229z"/>
  <path fill="#003A62" d="M419.194 590.176c-12.278 0-22.229-9.955-22.229-22.23V434.667c0-12.278 9.951-22.23 22.229-22.23s22.229 9.952 22.229 22.23v133.278c.001 12.276-9.95 22.231-22.229 22.231z"/>
  <path fill="#F8D5AC" d="M419.194 689.088c-12.278 0-22.229-9.953-22.229-22.229v-54.457c0-12.276 9.951-22.229 22.229-22.229s22.229 9.953 22.229 22.229v54.457c.001 12.276-9.95 22.229-22.229 22.229z"/>
  <path fill="#F5F5F5" d="M339.066 252.383c-46.253 0-83.748 37.498-83.748 83.752V506.42H422.82V336.135c0-46.254-37.5-83.752-83.754-83.752z"/>
  <path fill="#436EB3" d="M375.509 1040.553c-19.11 0-34.599-15.49-34.599-34.596V571.372c0-19.108 15.488-34.599 34.599-34.599 19.114 0 34.604 15.491 34.604 34.599v434.585c0 19.106-15.49 34.596-34.604 34.596z"/>
  <path fill="#E33533" d="M414.875 1015.062c-6.877 0-12.45-5.573-12.45-12.449 0-3.935 1.829-7.437 4.681-9.718a43.483 43.483 0 0 0-24.354-7.414 43.482 43.482 0 0 0-24.352 7.414 12.411 12.411 0 0 1 4.681 9.718c0 6.876-5.573 12.449-12.449 12.449a12.4 12.4 0 0 1-8.089-2.996 43.547 43.547 0 0 0-3.477 17.1h87.372a43.532 43.532 0 0 0-3.476-17.1 12.394 12.394 0 0 1-8.087 2.996z"/>
  <path fill="#56A9DE" d="M402.425 1002.612c0 6.876 5.573 12.449 12.45 12.449 3.09 0 5.91-1.133 8.088-2.996a43.847 43.847 0 0 0-15.857-19.171c-2.852 2.282-4.681 5.784-4.681 9.718zm-39.344 0c0-3.935-1.829-7.437-4.681-9.718a43.84 43.84 0 0 0-15.857 19.171 12.4 12.4 0 0 0 8.089 2.996c6.876.001 12.449-5.573 12.449-12.449z"/>
  <path fill="#EBEBEB" d="M339.066 1029.165h87.372v11.389h-87.372z"/>
  <path fill="#436EB3" d="M302.622 1040.553c-19.11 0-34.599-15.49-34.599-34.596V571.372c0-19.108 15.488-34.599 34.599-34.599s34.601 15.491 34.601 34.599v434.585c0 19.106-15.491 34.596-34.601 34.596z"/>
  <path fill="#E33533" d="M327.502 1015.061c-6.875 0-12.449-5.573-12.449-12.448 0-3.936 1.831-7.438 4.682-9.719a43.482 43.482 0 0 0-24.354-7.413 43.48 43.48 0 0 0-24.352 7.413c2.851 2.281 4.681 5.783 4.681 9.719 0 6.875-5.573 12.448-12.449 12.448a12.394 12.394 0 0 1-8.089-2.996 43.551 43.551 0 0 0-3.476 17.101h87.37a43.536 43.536 0 0 0-3.475-17.101 12.386 12.386 0 0 1-8.089 2.996z"/>
  <path fill="#56A9DE" d="M315.053 1002.612c0 6.875 5.574 12.448 12.449 12.448a12.39 12.39 0 0 0 8.09-2.996 43.853 43.853 0 0 0-15.857-19.171c-2.851 2.282-4.682 5.784-4.682 9.719zm-39.343 0c0-3.936-1.83-7.438-4.681-9.719a43.846 43.846 0 0 0-15.857 19.171 12.394 12.394 0 0 0 8.089 2.996c6.876.001 12.449-5.573 12.449-12.448z"/>
  <path fill="#EBEBEB" d="M251.696 1029.165h87.37v11.388h-87.37z"/>
  <path fill="#436EB3" d="M339.066 590.172c46.254 0 83.754-37.498 83.754-83.752H255.318c0 46.254 37.495 83.752 83.748 83.752z"/>
  <use xlink:href="#p" width="131.065" height="161.18" x="-65.532" y="-90.067" transform="matrix(1.5389 0 0 -1.5389 344.178 148.3)" overflow="visible"/>
  <path fill="#DF0024" d="M81.938 340.691l-8.697 15.064-8.696-15.064zm95.708-33.515l-8.697 15.063-8.697-15.063zm127.676 33.515l-8.695 15.063-8.698-15.063z"/>
  <path fill="#F8D5AC" d="M471.461 320.261c-10.204 8.143-25.076 6.471-33.217-3.731l-36.115-45.257c-8.143-10.201-6.472-25.073 3.731-33.216 10.204-8.143 25.075-6.471 33.217 3.731l36.115 45.257c8.142 10.202 6.474 25.073-3.731 33.216z"/>
  <path fill="#95BFFC" d="M164.214 371.234c-5.008-11.21-18.155-16.236-29.364-11.229L13.163 414.371c-11.21 5.008-16.236 18.153-11.229 29.363 5.01 11.21 18.154 16.237 29.364 11.229l121.688-54.366c11.207-5.006 16.237-18.153 11.228-29.363z"/>
  <path fill="#F8D5AC" d="M254.524 330.887c-5.009-11.21-18.155-16.235-29.364-11.228l-49.72 22.213c-11.208 5.008-16.237 18.153-11.229 29.364 5.007 11.21 18.155 16.235 29.363 11.228l49.721-22.212c11.209-5.009 16.236-18.154 11.229-29.365z"/>
</svg>
