<svg xmlns="http://www.w3.org/2000/svg" xmlns:xlink="http://www.w3.org/1999/xlink" width="1688.336" height="1011.683">
  <symbol id="d" viewBox="-27.848 -8.527 55.693 22.585">
    <path d="M9.922-2.857a5.67 5.67 0 1 1 11.336 0 5.67 5.67 0 0 1-11.336 0z"/>
    <path fill="none" stroke="#000" stroke-width="2" stroke-linecap="round" stroke-miterlimit="10" d="M26.846 8.394c-2.88 2.882-6.859 4.664-11.253 4.664s-8.372-1.78-11.253-4.66"/>
    <path d="M21.26-2.857h2.734M20.918-.919l2.57.936m-3.554.769l2.093 1.759m-3.603-.493l1.367 2.368" fill="none" stroke="#000" stroke-width="1.5" stroke-linecap="round" stroke-miterlimit="10"/>
    <path d="M-9.924-2.857a5.67 5.67 0 1 0-11.336 0 5.67 5.67 0 0 0 11.336 0z"/>
    <path fill="none" stroke="#000" stroke-width="2" stroke-linecap="round" stroke-miterlimit="10" d="M-26.848 8.394c2.88 2.882 6.859 4.664 11.253 4.664s8.372-1.78 11.253-4.66"/>
    <path d="M-21.262-2.857h-2.734m3.076 1.938l-2.57.936m3.554.769l-2.093 1.759m3.603-.493l-1.367 2.368" fill="none" stroke="#000" stroke-width="1.5" stroke-linecap="round" stroke-miterlimit="10"/>
  </symbol>
  <symbol id="m" viewBox="-47.006 -81.735 94.013 149.16">
    <path fill="#F2BA35" d="M5.239 33.45a5.085 5.085 0 0 0-.504.137c-1.751.334-3.138 1.643-4.258 3.16-1.086 1.595-1.847 3.728-1.739 5.977s1.164 4.195 3.016 5.489c1.841 1.377 4.432 1.737 7.092 1.164.255-.078.506-.163.751-.257l2.429-.941 1.269-.506 1.44-.722 1.625-.828c.571-.291 1.174-.589 1.758-.985 1.175-.773 2.495-1.521 3.766-2.49l1.93-1.514.989-.785c.322-.276.626-.583.942-.877 1.253-1.195 2.566-2.39 3.702-3.798.583-.686 1.189-1.356 1.749-2.068.525-.739 1.053-1.48 1.579-2.222l.778-1.11c.248-.377.461-.779.69-1.166l1.328-2.327c.448-.761.757-1.595 1.13-2.373.348-.793.722-1.558 1.021-2.338.522-1.597 1.112-3.097 1.48-4.577.33-1.492.715-2.874.912-4.181l.457-3.566c.09-1.062.077-1.996.109-2.756l.042-1.764a3.176 3.176 0 0 0-.01-.464l-.012-.159C40.538 2.252 38.769.542 36.633.686s-3.901 1.736-4.058 3.584l-.011.129a2.167 2.167 0 0 1-.054.375l-.274 1.412c-.129.604-.229 1.344-.439 2.171l-.82 2.738c-.317.991-.815 2.016-1.24 3.115-.464 1.088-1.129 2.158-1.699 3.295-.323.552-.714 1.08-1.068 1.63-.381.535-.688 1.12-1.128 1.628l-1.271 1.554c-.215.256-.41.527-.639.772l-.714.713c-3.713 3.886-8.281 6.627-11.878 7.96-.431.211-.878.333-1.297.46l-1.181.368-1.027.329c-.328.066-.63.126-.902.182l-1.694.349z"/>
    <use xlink:href="#a" width="91.488" height="135.78" x="-45.744" y="-75.045" transform="translate(-1.262 -6.69)" overflow="visible"/>
    <path fill="#F2BA35" d="M46.974 12.931l-.018.159a3.42 3.42 0 0 1-.075.458l-.365 1.726c-.171.742-.329 1.662-.611 2.689a3602.44 3602.44 0 0 1-1.103 3.422c-.433 1.249-1.064 2.536-1.662 3.943-.592 1.295-1.374 2.575-2.131 3.938a3.827 3.827 0 0 1 2.796.305c1.571.829 2.074 2.807 1.164 4.537 0 0-.068.17-.257.449l-.799 1.227c-.354.522-.751 1.187-1.277 1.897l-1.877 2.318c-.709.836-1.582 1.644-2.466 2.553-.905.884-1.975 1.686-3.04 2.585-.168.118-.346.239-.516.359.488-.17.962-.341 1.396-.538l2.142-1.019c.625-.332 1.136-.681 1.579-.938l1.021-.616c.241-.138.347-.241.346-.241 1.224-.932 3.185-.732 4.463.502s1.21 3.274-.146 4.682c0 0-.113.144-.372.36l-1.108.955c-.485.403-1.053.931-1.756 1.466l-2.448 1.704c-.914.605-1.978 1.138-3.08 1.765-1.115.597-2.366 1.069-3.64 1.636-1.307.451-2.676.922-4.095 1.298l-2.171.477c-.365.074-.73.167-1.101.225l-.736.091c.271.023.543.05.8.052l1.949-.017c.581-.03 1.083-.114 1.503-.151l.975-.105c.228-.02.342-.06.342-.06 1.234-.27 2.627.559 3.151 1.921s-.233 2.859-1.732 3.438c0 0-.134.068-.401.139l-1.157.328c-.502.132-1.107.329-1.817.484l-2.415.42c-.892.135-1.869.163-2.907.248-1.038.058-2.135-.024-3.28-.043-1.13-.118-2.314-.24-3.502-.453-1.168-.282-2.402-.467-3.562-.895-2.653-.808-5.176-2.025-7.386-3.392.238.231.484.458.742.675 1.848 1.628 4.179 2.695 6.021 3.185l1.273.297c.383.072.724.098 1.003.139l.652.086c.151.023.232.015.232.015.848.019 1.625.78 1.751 1.751s-.604 1.827-1.674 1.968c0 0-.098.023-.283.027l-.807.03c-.349.007-.774.039-1.262.028l-1.642-.107c-2.398-.231-5.624-1.09-8.459-2.842-2.862-1.691-5.275-4.164-6.693-6.305-.383-.518-.646-1.047-.923-1.494-.154-.25-.284-.483-.398-.705-.295.208-.603.428-.967.627-1.923 1.184-4.763 2.266-7.672 2.556-2.91.351-5.802-.156-7.802-.859l-1.35-.521c-.393-.171-.721-.354-.996-.489l-.633-.322c-.146-.072-.216-.127-.216-.127-.802-.507-1.068-1.46-.608-2.189s1.361-1.048 2.045-.75c0 0 .062.037.19.074l.553.173c.238.07.52.176.853.26l.1.021c-1.997-.717-4.013-1.639-5.889-2.797-1.097-.592-2.06-1.403-3.053-2.099-.952-.758-1.835-1.572-2.678-2.349-.778-.854-1.57-1.629-2.219-2.454-.628-.843-1.259-1.602-1.751-2.365l-1.292-2.109c-.355-.641-.611-1.23-.846-1.698l-.523-1.095a2.109 2.109 0 0 1-.162-.397c-.53-1.436.009-2.906 1.232-3.497-.026-.042-.057-.083-.083-.125-.626-1.064-1.267-2.029-1.744-2.984l-1.24-2.625c-.334-.793-.558-1.514-.771-2.09l-.473-1.344c-.114-.308-.14-.484-.14-.484-.462-1.846.47-3.602 2.147-4.023a3.717 3.717 0 0 1 2.738.369c-.14-.391-.274-.78-.391-1.172-.396-1.633-.867-3.174-1.119-4.679-.213-1.513-.488-2.921-.583-4.239l-.176-3.591c-.007-1.066.079-1.996.106-2.756l.095-1.762a3.18 3.18 0 0 1 .047-.461 7.54 7.54 0 0 0 .023-.158c.346-2.331 2.242-3.898 4.361-3.587s3.753 2.036 3.766 3.89v.13a2.24 2.24 0 0 0 .024.378l.164 1.429c.081.612.123 1.357.268 2.198l.604 2.794c.238 1.013.655 2.074.993 3.203.377 1.121.957 2.24 1.436 3.418.279.575.628 1.132.938 1.708.338.564.599 1.17.997 1.711l1.146 1.649c.194.272.368.558.577.82l.656.767c3.397 4.165 7.738 7.254 11.219 8.865.412.244.849.401 1.257.56l1.147.458.999.408.886.251 1.662.481c.165.049.329.108.492.175 1.719.47 2.999 1.883 3.997 3.483a10.134 10.134 0 0 1 1.327 4.858 8.396 8.396 0 0 1 1.418-3.671c.936-1.24 2.087-2.307 3.531-2.568.139-.044.277-.08.416-.108l1.398-.275.744-.143.849-.263c.599-.208 1.325-.342 2.046-.662 2.973-1.07 6.756-3.291 9.844-6.462l.594-.582c.19-.2.354-.421.532-.631.354-.426.708-.849 1.06-1.27.66-.872 1.247-1.785 1.834-2.666.478-.932 1.035-1.808 1.425-2.7.358-.902.776-1.742 1.046-2.556l.697-2.249c.179-.679.268-1.287.378-1.784l.237-1.161c.062-.268.058-.415.058-.415.144-1.52 1.608-2.817 3.369-2.919s3.204 1.32 3.318 3.257c.001 0 .029.18.013.513l-.049 1.453c-.032.625-.028 1.395-.111 2.269l-.403 2.933c-.173 1.075-.501 2.209-.784 3.436a19.79 19.79 0 0 1-.425 1.382c.11-.116.226-.23.329-.35.768-1.014 1.619-1.944 2.273-2.928.619-1.002 1.296-1.919 1.789-2.835l1.309-2.542c.357-.775.592-1.483.829-2.053l.529-1.338c.067-.153.101-.276.121-.359l.034-.125c.492-1.788 2.519-3.03 4.646-2.78s3.558 2.259 3.287 4.599z"/>
  </symbol>
  <symbol id="n" viewBox="-64.588 -80.335 129.176 145.5">
    <path d="M-17.353-54.353a5 5 0 0 1-4.901 4.02 4.965 4.965 0 0 1-1.776-.34c.281.728.442 1.517.442 2.344a6.5 6.5 0 0 1-6.5 6.5c-.413 0-.814-.043-1.206-.116-.198 2.116-1.959 3.778-4.127 3.778-.126 0-.245-.026-.368-.037a6.968 6.968 0 0 1-.8 4.02c1.68.897 2.835 2.647 2.835 4.685a5.333 5.333 0 0 1-5.333 5.333c-.411 0-.807-.057-1.19-.145a2.993 2.993 0 0 1-1.07 1.414 5.835 5.835 0 0 1-3.916 7.321 7.49 7.49 0 0 1-.113 12.551 1.834 1.834 0 0 1-.71 3.523c-.19 0-.37-.037-.543-.091.022.139.043.279.043.425 0 .173-.02.341-.051.505.018 0 .033-.005.051-.005a2 2 0 0 1 0 4c-.236 0-.461-.049-.671-.124a2.323 2.323 0 0 1-.566 1.47c1.579.474 2.736 1.921 2.736 3.654a3.833 3.833 0 1 1-7.666 0c0-.354.063-.691.154-1.018a2.493 2.493 0 0 1-2.321-2.482c0-.403.104-.778.273-1.115a2.99 2.99 0 0 1-.549-4.683 2.485 2.485 0 0 1 1.111-4.501 7.478 7.478 0 0 1-2.836-5.867c0-.465.048-.917.129-1.358-.1.009-.194.03-.296.03a3.5 3.5 0 0 1-3.5-3.5c0-.939.375-1.787.977-2.416-2.983-1.852-4.977-5.148-4.977-8.918 0-2.941 1.213-5.597 3.161-7.503a7.482 7.482 0 0 1 1.573-9.788 3.326 3.326 0 0 1-1.343-2.12 4 4 0 0 1-3.226-3.922c0-1.409.732-2.642 1.833-3.354a4.278 4.278 0 0 1-.499-1.979 4.333 4.333 0 0 1 4.333-4.333c.151 0 .295.029.442.045a4.803 4.803 0 0 1-.275-1.546 4.833 4.833 0 0 1 4.833-4.833c1.793 0 3.339.987 4.174 2.437a3.828 3.828 0 0 1 3.493-2.27c.813 0 1.563.256 2.183.688a1.546 1.546 0 0 1 3.011.009c.061.004.115.023.174.035a.96.96 0 0 1 .933-.779.96.96 0 0 1 .606.229 1.575 1.575 0 0 1 2.56.45 3.47 3.47 0 0 1 2.2-.799 3.5 3.5 0 0 1 3.5 3.5c0 .204-.026.402-.061.597a4.456 4.456 0 0 1 1.895-.431c1.54 0 2.897.776 3.708 1.956a4.958 4.958 0 0 1 3.126-1.126c.982 0 1.893.294 2.665.783a2.979 2.979 0 0 1 2.001-.779 3 3 0 0 1 3 3 2.99 2.99 0 0 1-2.765 2.976zm81.941 13.874c0 3.161-2.187 5.806-5.128 6.521.022.15.046.3.046.456a3.01 3.01 0 0 1-1.314 2.487 2.658 2.658 0 0 1 1.401 2.336 2.66 2.66 0 0 1-1.372 2.32c.481.686.769 1.516.769 2.417a4.214 4.214 0 0 1-2.457 3.823 4.614 4.614 0 0 1 1.251 3.153 4.605 4.605 0 0 1-.975 2.819c.124.33.2.684.2 1.057 0 .865-.369 1.639-.952 2.188a4.825 4.825 0 0 1 2.035 7.097c.399.365.654.887.654 1.471A1.99 1.99 0 0 1 57.74-.608a4.302 4.302 0 0 1-1.084 2.787A3.155 3.155 0 0 1 58.413 5a3.157 3.157 0 0 1-2.179 2.994c.108.319.179.652.179 1.006a3.167 3.167 0 0 1-3.167 3.167l-.017-.002a2.492 2.492 0 0 1-2.483 2.335 2.497 2.497 0 0 1-2.495-2.456 4.495 4.495 0 0 1-1.005.122 4.496 4.496 0 1 1-1.674-8.671A3.646 3.646 0 0 1 44.579 1c0-1.193.579-2.244 1.462-2.913A4.317 4.317 0 0 1 44.745-5a4.32 4.32 0 0 1 1.787-3.492c-1.546-.76-2.62-2.336-2.62-4.175a4.662 4.662 0 0 1 2.986-4.343 3.646 3.646 0 0 1-1.152-2.657c0-.075.018-.146.022-.22-.17.032-.344.053-.522.053a2.834 2.834 0 0 1-2.833-2.833c0-.517.148-.993.39-1.41a5.437 5.437 0 0 1-.924-.58A1.997 1.997 0 0 1 39.913-23a1.994 1.994 0 0 1-1.988-1.889 6.64 6.64 0 0 1-1.679.222 6.665 6.665 0 0 1-6.666-6.666c0-1.813.726-3.453 1.899-4.655-2.073-.731-3.567-2.688-3.567-5.011 0-1.602.72-3.021 1.837-3.999a3.327 3.327 0 0 1-.497-1.228 6.627 6.627 0 0 1-.839.059 6.665 6.665 0 0 1-6.666-6.666 6.63 6.63 0 0 1 1.026-3.542 2.667 2.667 0 0 1-.476.048 2.584 2.584 0 1 1 1.006-4.965 2.613 2.613 0 0 1 2.316-1.415c.899 0 1.691.453 2.164 1.143a1.986 1.986 0 0 1 1.461-.643c.604 0 1.14.273 1.507.697a3.496 3.496 0 0 1 6.669.587 1.975 1.975 0 0 1 1.199-.409c.247 0 .481.051.699.133a3.235 3.235 0 0 1 2.551-1.258c1.014 0 1.908.475 2.505 1.202.205-.22.492-.36.816-.36.466 0 .865.283 1.036.687a.543.543 0 0 1 .396-.175c.054 0 .103.016.151.03a.976.976 0 0 1 .94-.746.98.98 0 0 1 .883.563.813.813 0 0 1 .551-.221c.452 0 .818.366.818.818a.784.784 0 0 1-.06.294c.455.059.898.148 1.333.264-.008-.062-.019-.121-.019-.185 0-.76.615-1.375 1.375-1.375.641 0 1.173.438 1.326 1.031a3.106 3.106 0 0 1 2.446-1.202 3.125 3.125 0 0 1 3.125 3.125c0 .608-.182 1.172-.482 1.652a2.865 2.865 0 0 1 2.607 2.848c0 .907-.429 1.707-1.086 2.234a1.359 1.359 0 0 1-.052 1.845 2.499 2.499 0 0 1 1.513 2.296c0 .626-.238 1.191-.619 1.631a6.7 6.7 0 0 1 3.216 5.722z" fill="#2A2523"/>
    <path d="M49.251-41.645a2.985 2.985 0 0 1-1.275 2.445 1.885 1.885 0 0 1-.497 3.081c.4.604.637 1.327.637 2.106 0 .592-.146 1.146-.387 1.646a1.645 1.645 0 0 1 1.108 1.552c0 .511-.237.963-.603 1.266.415.199.707.616.707 1.107 0 .684-.555 1.238-1.238 1.238-.536 0-.982-.346-1.154-.823a1.74 1.74 0 0 1-1.115.41 1.754 1.754 0 0 1-1.754-1.754c0-.315.09-.608.236-.864-1.925-.194-3.434-1.801-3.434-3.777 0-.307.046-.6.113-.886-2.558-.304-4.55-2.456-4.55-5.097 0-.89.246-1.713.642-2.443-2.114-.338-3.735-2.155-3.735-4.365 0-.358.054-.702.135-1.036a5.005 5.005 0 0 1-2.197.521 5.055 5.055 0 0 1-5.055-5.055c0-.388.053-.762.136-1.124a4.127 4.127 0 1 1-.857-8.16c1.21 0 2.287.53 3.042 1.359a2.57 2.57 0 0 1 4.356 1.551 2.873 2.873 0 0 1 2.298-1.156c1.011 0 1.896.521 2.413 1.307a2.16 2.16 0 0 1 2.022-1.41c.953 0 1.753.619 2.043 1.475.335-.213.729-.34 1.155-.34.969 0 1.78.641 2.057 1.519.33-.3.764-.487 1.244-.487 1.025 0 1.857.832 1.857 1.857 0 .449-.166.856-.432 1.178a3.381 3.381 0 0 1 1.152 2.535c0 1.146-.57 2.154-1.438 2.771.514.735.82 1.627.82 2.593 0 .875-.259 1.684-.688 2.377a2.985 2.985 0 0 1 2.236 2.883zm-8.852-14.369l-.035.02.004.013.011-.001c.011 0 .021.003.031.003l-.011-.035zm-59.331.753c-.136 0-.27-.015-.397-.041a1.44 1.44 0 0 1-1.583.349c.006.069.021.137.021.208a2.27 2.27 0 0 1-3.136 2.097 1.545 1.545 0 0 1-1.154 1.16 2.682 2.682 0 0 1-2.621 3.242c-.023 0-.046-.007-.069-.007.105.294.173.605.173.936a2.783 2.783 0 0 1-2.263 2.732c.117.413.2.84.2 1.291a4.744 4.744 0 0 1-4.745 4.745c-.451 0-.878-.083-1.291-.2.54.603.878 1.39.878 2.263a3.402 3.402 0 0 1-3.369 3.4c.104.293.172.604.172.932 0 1.36-.977 2.488-2.265 2.732.126.268.202.563.202.878a2.063 2.063 0 1 1-4.126 0c0-.231.047-.45.117-.658-.531-.094-.942-.537-.942-1.096a1.135 1.135 0 0 1 1.579-1.044 2.77 2.77 0 0 1-.135-.813c0-.377.077-.735.212-1.063-.105.009-.207.032-.315.032a3.817 3.817 0 0 1-3.816-3.816c0-1.104.476-2.09 1.225-2.786-.022-.095-.032-.193-.046-.291a1.003 1.003 0 0 1-.56.188c-.502 0-.9-.366-.993-.841-.375.39-.899.634-1.482.634a2.063 2.063 0 0 1-2.063-2.063c0-.412.124-.795.333-1.117-.096-.095-.184-.198-.274-.298-.119.035-.237.074-.368.074-.74 0-1.341-.601-1.341-1.341 0-.313.125-.59.306-.818a8.413 8.413 0 0 1-.821-3.617 8.45 8.45 0 0 1 4.677-7.558 1.652 1.652 0 0 1 1.615-1.313c.452 0 .861.183 1.159.478a8.586 8.586 0 0 1 1.007-.065c.808 0 1.586.12 2.326.332a2.267 2.267 0 0 1 2.212-1.776c.613 0 1.167.245 1.575.641.294-.268.68-.435 1.107-.435.911 0 1.65.739 1.65 1.65 0 .084-.013.165-.024.246.434.053.838.189 1.2.399a2.568 2.568 0 0 1 4.127.711c.473.049.874.321 1.101.714a2.57 2.57 0 0 1 2.466-1.864c.042 0 .082.011.124.013a1.543 1.543 0 0 1 2.957.469 2.26 2.26 0 0 1 1.251-.378c.516 0 .985.179 1.366.468.093-.521.464-.939.955-1.106a1.959 1.959 0 1 1 1.906 2.391zm-20.423 12.069c.039 0 .076.01.115.012-.001-.039-.012-.075-.012-.114l.001-.006c-.039.039-.081.072-.12.11l.016-.002z" fill="#181817"/>
    <path fill="#E1A183" d="M1.745-80.335c-7.83 0-14.178 6.347-14.178 14.177v27.348c0 7.83 6.348 14.177 14.178 14.177S15.923-30.98 15.923-38.81v-27.348c0-7.83-6.348-14.177-14.178-14.177z"/>
    <use xlink:href="#b" width="110.592" height="37.518" x="-55.296" y="-18.759" transform="translate(1.745 -2.346)" overflow="visible"/>
    <path fill="#FBD3AD" d="M50.213-2.346c0-33.543-21.7-60.735-48.468-60.735S-46.723-35.889-46.723-2.346s21.7 60.735 48.468 60.735S50.213 31.197 50.213-2.346z"/>
    <use xlink:href="#c" width="23.797" height="32.655" x="-11.898" y="-16.328" transform="translate(1.745 -18.686)" overflow="visible"/>
    <use xlink:href="#d" width="55.693" height="22.585" x="-27.848" y="-8.527" transform="translate(1.745 -2.346)" overflow="visible"/>
    <path fill="#2A2523" d="M57.364-5.162a1.685 1.685 0 1 1 .268 3.351 3.37 3.37 0 0 1-.898 4.672 3.37 3.37 0 0 1 1.473 2.787 3.368 3.368 0 0 1-2.957 3.336c.154.438.255.902.255 1.394 0 2.216-1.713 4.014-3.885 4.188.073.244.125.497.125.765a2.66 2.66 0 0 1-1.238 2.245 4.333 4.333 0 0 1-2.408 7.921c.088.264.146.541.146.834a2.66 2.66 0 0 1-1.279 2.268c.384.597.613 1.304.613 2.066a3.835 3.835 0 0 1-3.044 3.751c.014.139.042.272.042.415 0 2.205-1.718 3.991-3.886 4.138.027.174.054.348.054.529 0 1.78-1.335 3.234-3.055 3.455.032.178.055.358.055.545a3 3 0 0 1-3 3c-.018 0-.033-.005-.051-.005.021.167.051.332.051.505a4 4 0 0 1-4 4c-.414 0-.806-.081-1.181-.197a2.826 2.826 0 0 1-2.819 2.697c-.227 0-.443-.033-.655-.084.312.803.488 1.672.488 2.584a7.167 7.167 0 0 1-7.167 7.167 7.158 7.158 0 0 1-5.89-3.089 5.496 5.496 0 0 1-5.443 4.755 5.5 5.5 0 0 1-5.1-3.447 6.76 6.76 0 0 1-2.153.137 4.499 4.499 0 0 1-4.414 3.645 4.493 4.493 0 0 1-4.488-4.383c-.829 1.439-2.365 2.42-4.146 2.42a4.801 4.801 0 0 1-4.802-4.802c0-.08.02-.154.023-.233a4.968 4.968 0 0 1-2.753.831 5 5 0 0 1-5-5c0-1.141.396-2.18 1.04-3.021-.069.008-.137.021-.207.021a1.827 1.827 0 0 1-1.522-.813c-.978 1.104-2.388 1.813-3.978 1.813a5.333 5.333 0 0 1-5.333-5.333c0-.827.204-1.6.54-2.299-1.208-.645-2.04-1.902-2.04-3.368 0-.576.136-1.117.363-1.607a2.16 2.16 0 0 1-1.226-.97 4.476 4.476 0 0 1-2.472.744 4.5 4.5 0 0 1-4.5-4.5c0-1.256.517-2.39 1.347-3.206a4.164 4.164 0 0 1-1.847-3.461c0-.376.065-.733.159-1.08a3.99 3.99 0 0 1-2.659-3.753c0-1.057.418-2.011 1.087-2.726-1.932-.283-3.42-1.932-3.42-3.941a3.97 3.97 0 0 1 1.058-2.69 4.27 4.27 0 0 1-.224-1.31c0-.133.027-.258.039-.387a5.35 5.35 0 0 1-1.681.293A5.405 5.405 0 0 1-55.636 7c0-1.624.731-3.064 1.865-4.055a3.881 3.881 0 0 1-.013-6.404c-1.119-.864-1.852-2.205-1.852-3.729 0-.558.114-1.086.291-1.583a6.584 6.584 0 0 1-4.344-6.187c0-2.077.964-3.927 2.466-5.135a3.523 3.523 0 0 1-.467-5.577 4.035 4.035 0 0 1-2-3.477c0-1.417.729-2.66 1.831-3.385a3.85 3.85 0 0 1-.817-2.358 3.885 3.885 0 0 1 3.885-3.885c.036 0 .07.01.106.011-.013-.103-.031-.203-.031-.309 0-.438.123-.844.321-1.201a2.396 2.396 0 0 1-1.657-2.274c0-.966.572-1.792 1.394-2.175a3.299 3.299 0 0 1-.236-1.212c0-.556.15-1.07.393-1.529a2.407 2.407 0 0 1-1.462-2.213c0-.606.232-1.154.603-1.577a2.745 2.745 0 0 1-.959-2.077c0-.713.277-1.355.721-1.846a2.223 2.223 0 0 1 .794-4.303c.096 0 .187.017.279.028-.002-.04-.012-.077-.012-.117a1.961 1.961 0 0 1 3.922 0c0 .234-.048.457-.124.665a2.218 2.218 0 0 1 1.404.902 2.47 2.47 0 0 1 1.481-.498 2.493 2.493 0 1 1 .468 4.943c.433.62.69 1.372.69 2.186a3.826 3.826 0 0 1-2.256 3.485c.404.547.651 1.217.651 1.95 0 .831-.317 1.581-.824 2.16a2.047 2.047 0 0 1 1.182 1.851c0 .537-.212 1.022-.55 1.389a2.671 2.671 0 0 1 2.152 2.602A3.024 3.024 0 0 1-45-35.419a3 3 0 0 1-.439 1.55c.482.538.784 1.241.784 2.021a3.026 3.026 0 0 1-1.535 2.626 5.743 5.743 0 0 1 3.563 5.313c0 .957-.237 1.857-.651 2.65 1.587.856 2.678 2.514 2.678 4.443a5.05 5.05 0 0 1-1.446 3.538 5.056 5.056 0 0 1 2.29 4.231 5.066 5.066 0 0 1-5.066 5.066c-.017 0-.031-.005-.048-.005.026.062.044.126.066.19.051-.003.099-.016.15-.016a2.87 2.87 0 0 1 2.871 2.871 2.864 2.864 0 0 1-2.011 2.726 1.82 1.82 0 0 1-.434 1.598 2.988 2.988 0 0 1 2.429 2.505 2.834 2.834 0 0 1 3.378 2.778 2.8 2.8 0 0 1-.1.707 2.99 2.99 0 0 1 2.6 2.96c0 .889-.394 1.679-1.007 2.228a3.979 3.979 0 0 1 1.507 3.105c0 .456-.093.888-.233 1.296.231-.077.476-.129.733-.129a2.33 2.33 0 0 1 2.172 1.494c.317-.095.646-.161.995-.161a3.5 3.5 0 0 1 3.5 3.5 3.48 3.48 0 0 1-.355 1.51 4.485 4.485 0 0 1 1.188-.179 4.496 4.496 0 0 1 4.124 2.707 2.805 2.805 0 0 1 1.043-.204 2.834 2.834 0 0 1 2.833 2.833c0 .311-.063.604-.155.885a9.333 9.333 0 0 1 4.091 1.536 3.976 3.976 0 0 1 2.897-1.255 3.994 3.994 0 0 1 3.877 3.061c.207-.024.41-.063.623-.063 2.401 0 4.401 1.646 4.981 3.865a3.204 3.204 0 0 1 1.391-.491 2.494 2.494 0 0 1 4.767-.593c.093-.01.183-.028.278-.028a2.81 2.81 0 0 1 1.85.703 4.91 4.91 0 0 1 4.567-3.12c1.495 0 2.818.682 3.721 1.735a3.793 3.793 0 0 1 2.445-.904c1.248 0 2.347.605 3.046 1.529a1.734 1.734 0 0 1 2.528-.398 2.592 2.592 0 0 1 2.237-1.291c.067 0 .13.015.196.02a3.63 3.63 0 0 1-.341-1.523 3.667 3.667 0 0 1 3.667-3.667c.172 0 .336.027.502.051a2.49 2.49 0 0 1-.169-.884 2.5 2.5 0 0 1 2.5-2.5c.57 0 1.09.198 1.51.52a5.763 5.763 0 0 1 2.845-3.34 2.167 2.167 0 0 1 1.813-3.35c.058 0 .112.013.169.017a4.956 4.956 0 0 1 1.726-3.343 2.734 2.734 0 0 1-.979-2.088 2.75 2.75 0 0 1 2.75-2.75c.063 0 .121.015.183.019a2.155 2.155 0 0 1 1.532-1.92 2.986 2.986 0 0 1-.215-1.101 3 3 0 0 1 3-3c.069 0 .134.016.202.021a1.936 1.936 0 0 1-.035-.352c0-.478.174-.909.453-1.253a2.525 2.525 0 0 1-1.181-2.136c0-.758.339-1.43.866-1.895a5.06 5.06 0 0 1 2.111-7.439 2.693 2.693 0 0 1-.385-2.027 2.697 2.697 0 0 1-2.254-2.658 2.703 2.703 0 0 1 2.703-2.703c.008 0 .016.002.023.003a2.859 2.859 0 0 1-.193-1.016c0-.707.266-1.346.689-1.847a3.712 3.712 0 0 1-2.208-3.39c0-1.373.754-2.559 1.861-3.202a1.663 1.663 0 0 1-1.24-1.604c0-.201.041-.392.106-.57a2.327 2.327 0 0 1-1.523-2.18 2.334 2.334 0 0 1 2.333-2.333c.061 0 .117.014.176.018-.001-.034-.01-.066-.01-.101 0-.861.392-1.622.997-2.143a2.163 2.163 0 0 1-1.414-2.024c0-.521.191-.993.499-1.367a2.398 2.398 0 0 1-1.759-3.716 2.847 2.847 0 0 1-2.187-2.766c0-1.208.753-2.234 1.813-2.65a1.763 1.763 0 0 1-.211-.824c0-.553.258-1.041.653-1.368a1.588 1.588 0 0 1-.206-.771c0-.886.718-1.604 1.604-1.604.037 0 .071.009.108.011-.006-.063-.02-.125-.02-.189 0-.999.688-1.83 1.612-2.065-.001-.024-.008-.048-.008-.073 0-.263.052-.511.127-.748a.883.883 0 0 1-.463-.767c0-.333.19-.612.461-.765a2.482 2.482 0 0 1-.481-1.463 2.495 2.495 0 1 1 4.99 0c0 .667-.266 1.269-.691 1.717a2.485 2.485 0 0 1 1.048 2.025c0 .627-.239 1.193-.621 1.631a1.865 1.865 0 0 1 1.244 1.756c0 .241-.05.471-.133.683.29.21.491.535.491.922 0 .248-.095.466-.228.654a2.84 2.84 0 0 1 1.708 4.836 3.371 3.371 0 0 1 1.637 2.886 3.374 3.374 0 0 1-3.071 3.354c.557.489.915 1.197.915 1.996 0 .838-.395 1.576-.999 2.065a2.749 2.749 0 0 1 2.167 2.685c0 1.12-.672 2.079-1.633 2.508.235.266.383.61.383.992 0 .419-.172.796-.449 1.068a2.573 2.573 0 0 1 1.366 2.266c0 .628-.233 1.195-.605 1.644a3.355 3.355 0 0 1 .208 5.404c1.55.822 2.617 2.434 2.617 4.31 0 1.476-.666 2.783-1.698 3.681.194.321.312.689.334 1.086.115-.026.232-.04.353-.04z"/>
    <use xlink:href="#e" width="34.486" height="17.596" x="-17.243" y="-8.798" transform="translate(1.745 -49.392)" overflow="visible"/>
  </symbol>
  <symbol id="j" viewBox="-16.459 -8.229 32.918 16.459">
    <path fill="#6D222C" d="M0 3.181c4.975 0 9.424-2.217 12.441-5.705A16.378 16.378 0 0 1 16.459 8.23h-32.918c0-4.115 1.521-7.868 4.018-10.754C-9.424.964-4.975 3.181 0 3.181z"/>
    <path fill="#AD192B" d="M0-8.229c4.975 0 9.424 2.217 12.441 5.705C9.424.964 4.975 3.181 0 3.181S-9.424.964-12.441-2.524C-9.424-6.013-4.975-8.229 0-8.229z"/>
    <path fill="#FFF" d="M14.287 4.392h-28.574v3.837h28.574z"/>
  </symbol>
  <symbol id="e" viewBox="-17.243 -8.798 34.486 17.596">
    <path fill="#E1A183" d="M-17.183 8.798c-.027-.377-.061-.753-.061-1.137 0-9.09 7.72-16.459 17.243-16.459S17.243-1.429 17.243 7.661c0 .384-.033.76-.061 1.137h-34.365z"/>
    <path fill="#6D222C" d="M-12.441-3.093C-9.424.396-4.975 2.612 0 2.612S9.424.395 12.441-3.093a16.44 16.44 0 0 1 3.548 6.917H-15.99a16.448 16.448 0 0 1 3.549-6.917z"/>
    <path fill="#AD192B" d="M0 2.612c-4.975 0-9.424-2.217-12.441-5.705C-9.424-6.581-4.975-8.798 0-8.798s9.424 2.217 12.441 5.705C9.424.396 4.975 2.612 0 2.612z"/>
    <path fill="#FFF" d="M-16.459 7.661c0-1.324.173-2.605.47-3.837H15.99c.297 1.232.47 2.513.47 3.837h-32.919z"/>
  </symbol>
  <symbol id="f" viewBox="-18.833 -11.871 37.665 23.741">
    <path d="M0 11.87c-10.401 0-18.833-8.431-18.833-18.832h37.665C18.833 3.439 10.401 11.87 0 11.87z"/>
    <path fill="#464646" d="M18.833-11.871h-37.666v4.909h37.666z"/>
    <path fill="#959595" d="M9.25 2.454a3.335 3.335 0 1 0-6.672 0 3.336 3.336 0 1 0 6.672 0z"/>
  </symbol>
  <symbol id="l" viewBox="-18.833 -108.588 37.665 217.175">
    <path fill="#636363" d="M3.121-108.588c-8.238 0-14.915 6.678-14.915 14.914V93.672c0 8.237 6.677 14.915 14.915 14.915s14.916-6.678 14.916-14.915V-93.674c0-8.236-6.678-14.914-14.916-14.914z"/>
    <use xlink:href="#f" width="37.665" height="23.741" x="-18.833" y="-11.871" transform="translate(0 -96.717)" overflow="visible"/>
  </symbol>
  <symbol id="k" viewBox="-18.833 -108.588 37.665 217.175">
    <path fill="#636363" d="M-3.123-108.588c-8.238 0-14.915 6.678-14.915 14.914V93.672c0 8.237 6.677 14.915 14.915 14.915 8.24 0 14.918-6.678 14.918-14.915V-93.674c0-8.236-6.678-14.914-14.918-14.914z"/>
    <use xlink:href="#f" width="37.665" height="23.741" x="-18.833" y="-11.871" transform="translate(0 -96.717)" overflow="visible"/>
  </symbol>
  <symbol id="c" viewBox="-11.898 -16.328 23.797 32.655">
    <path fill="#E2A183" d="M11.898-1.417c0-8.234-5.327-14.91-11.898-14.91s-11.898 6.676-11.898 14.91c0 8.235 5.327 14.91 11.898 14.91s11.898-6.676 11.898-14.91z"/>
    <path fill="#FBD3AD" d="M11.898 1.417c0-8.235-5.327-14.91-11.898-14.91s-11.898 6.675-11.898 14.91c0 8.234 5.327 14.91 11.898 14.91s11.898-6.675 11.898-14.91z"/>
  </symbol>
  <symbol id="h" viewBox="-10.215 -18.12 20.43 36.24">
    <path fill="#E2A183" d="M10.215-1.162C10.215-10.528 5.642-18.12 0-18.12s-10.215 7.592-10.215 16.958c0 9.365 4.573 16.958 10.215 16.958S10.215 8.203 10.215-1.162z"/>
    <path fill="#FBD3AD" d="M10.215 1.162c0-9.365-4.573-16.958-10.215-16.958S-10.215-8.203-10.215 1.162c0 9.366 4.573 16.958 10.215 16.958s10.215-7.592 10.215-16.958z"/>
  </symbol>
  <symbol id="b" viewBox="-55.296 -18.759 110.592 37.518">
    <path fill="#FBD3AD" d="M40.326 18.759v-37.518c8.267 0 14.97 8.399 14.97 18.759s-6.703 18.759-14.97 18.759z"/>
    <path fill="#E1A183" d="M42.665 16.137C48.516 14.707 52.957 8.015 52.957 0s-4.441-14.707-10.292-16.137v32.274z"/>
    <path fill="#FBD3AD" d="M-40.326 18.759v-37.518c-8.267 0-14.97 8.399-14.97 18.759s6.703 18.759 14.97 18.759z"/>
    <path fill="#E1A183" d="M-42.665 16.137C-48.516 14.707-52.957 8.015-52.957 0s4.441-14.707 10.292-16.137v32.274z"/>
  </symbol>
  <symbol id="g" viewBox="-45.744 -18.759 91.488 37.518">
    <path fill="#FBD3AD" d="M30.774 18.759v-37.518c8.267 0 14.97 8.399 14.97 18.759s-6.703 18.759-14.97 18.759z"/>
    <path fill="#E1A183" d="M33.113 16.137C38.964 14.707 43.405 8.015 43.405 0s-4.441-14.707-10.292-16.137v32.274z"/>
    <path fill="#FBD3AD" d="M-30.774 18.759v-37.518c-8.267 0-14.97 8.399-14.97 18.759s6.703 18.759 14.97 18.759z"/>
    <path fill="#E1A183" d="M-33.113 16.137C-38.964 14.707-43.405 8.015-43.405 0s4.441-14.707 10.292-16.137v32.274z"/>
  </symbol>
  <symbol id="a" viewBox="-45.744 -75.045 91.488 135.78">
    <use xlink:href="#g" width="91.488" height="37.518" x="-45.744" y="-18.759" overflow="visible"/>
    <path fill="#E1A183" d="M0-75.045c-7.83 0-14.178 6.347-14.178 14.177v27.349c0 7.83 6.348 14.177 14.178 14.177s14.178-6.347 14.178-14.177v-27.349c0-7.83-6.348-14.177-14.178-14.177z"/>
    <path fill="#FBD3AD" d="M36.585 0c0-33.543-16.381-60.735-36.585-60.735S-36.585-33.543-36.585 0-20.204 60.735 0 60.735 36.585 33.543 36.585 0z"/>
    <use xlink:href="#h" width="20.43" height="36.24" x="-10.215" y="-18.12" transform="translate(0 -14.547)" overflow="visible"/>
    <use xlink:href="#i" width="54.07" height="21.443" x="-27.035" y="-8.527" overflow="visible"/>
    <use xlink:href="#j" width="32.918" height="16.459" x="-16.459" y="-8.229" transform="translate(0 -47.046)" overflow="visible"/>
  </symbol>
  <symbol id="i" viewBox="-27.035 -8.527 54.07 21.443">
    <path d="M-9.922-2.857a5.67 5.67 0 1 0-11.336 0 5.67 5.67 0 0 0 11.336 0zm19.844 0a5.67 5.67 0 1 1 11.336 0 5.67 5.67 0 0 1-11.336 0z"/>
    <path fill="none" stroke="#000" stroke-width="2" stroke-linecap="round" stroke-miterlimit="10" d="M5.145 7.59a14.73 14.73 0 0 0 10.446 4.326c4.078 0 7.771-1.653 10.444-4.325m-31.18-.001a14.73 14.73 0 0 1-10.446 4.326 14.728 14.728 0 0 1-10.444-4.325"/>
  </symbol>
  <g fill="#003A62">
    <path d="M1200.998 551.517c.9 1.125 2.25 2.25 2.475 3.601 1.801 12.601 3.601 24.976 3.601 38.025 0 4.501-.45 9.001-.899 13.275-.9 6.075-7.875 14.177-12.826 14.177-4.275 0-10.125-2.926-12.15-6.076-9.9-13.95-19.574-27.9-27-43.201-9.226-18.676-16.426-38.251-24.977-57.602-.674-1.8-2.699-2.925-4.5-4.726-1.125 1.801-3.375 3.825-3.824 5.626-1.575 10.575-2.926 21.375-4.275 31.95-.676 5.851-2.25 12.15-8.551 13.275-1.125 0-5.85-7.2-6.525-12.375a128.145 128.145 0 0 1-.674-13.275c0-6.075 1.125-12.601 1.125-18.676 0-7.425-4.051-7.65-11.251-15.976 2.025-.225 4.05-1.574 6.3-1.574h2.476c3.601 0 5.851-1.351 6.525-5.4 2.925-17.101 6.075-34.201 9.226-51.302v-2.25c1.574-9.226 5.625-14.625 11.925-14.625 5.625 0 8.775 3.375 8.775 10.35 0 2.025-.226 4.275-.675 6.976-2.476 13.726-5.4 27.451-8.101 41.401-.226.45-.226.675-.226 1.125 0 1.8.676 4.05 1.125 5.625 2.475-.675 5.4-.9 6.976-2.025 18.45-14.851 41.626-40.051 41.626-62.552 0-16.425-7.875-25.2-21.824-25.2-13.727 0-26.102 3.825-37.352 11.25-2.25 1.351-5.4.675-8.102 1.125 1.352-2.7 1.576-6.525 3.602-7.65 12.15-9 25.426-13.725 39.375-13.725 4.5 0 9 .449 13.5 1.35 12.376 2.25 21.826 18.45 21.826 33.526 0 16.425-11.25 33.301-21.15 45.676-7.426 9.226-24.525 22.726-24.525 29.701 0 2.925 1.574 6.075 4.275 10.575 4.273 7.2 7.199 15.525 10.801 23.4 8.773 19.801 16.649 38.251 27 56.026.9 2.025 4.275 3.15 6.525 4.5 1.125-2.475 2.925-6.75 2.925-9.675 0-1.125-.45-2.25-.675-3.375h-1.125c2.023-9.449 3.598-26.775 9.223-31.275z"/>
    <path d="M1229.123 468.939c7.424 0 13.725 4.726 13.725 12.825 0 7.876-7.875 18.9-12.15 26.101-5.4 8.775-16.875 11.926-16.875 23.401 0 4.274-.676 10.575 6.75 10.575 4.5 0 8.551-2.476 13.051-2.476 2.475 0 3.824 1.125 3.824 3.375 0 9.226-13.949 16.426-22.5 16.426-17.326 0-18.227-15.301-19.126-25.65.449-23.4 11.25-64.577 33.301-64.577zm-13.051-33.975c0-3.15 3.375-4.5 6.301-5.625 17.324-6.976 33.975-13.951 51.301-20.476.449-.226 1.125-.226 1.799-.226 2.926 0 5.401 1.125 5.401 4.275 0 1.575-.45 3.6-1.124 4.05-13.053 12.376-35.553 19.126-54.678 26.776-4.275-3.149-9-4.274-9-8.774zm13.949 46.576c-4.949 0-8.1 12.825-9.898 18 0 .226-.227.226-.227.45 0 .9 1.576 2.925 2.701 2.925 3.375 0 8.324-11.024 11.699-16.2-1.573-2.025-2.923-5.175-4.275-5.175z"/>
    <path d="M1251.844 499.091c0-1.125.225-2.25 1.125-3.601 6.75-11.476 14.4-22.95 22.275-33.525 1.125-1.575 3.824-2.476 6.75-2.476 3.6 0 6.074 1.351 6.074 8.551 0 6.524-2.475 17.1-6.525 17.1-2.249 0-5.174-5.85-7.424-5.85-3.375 0-5.176 10.351-6.301 15.3 4.275.9 8.1 2.025 12.375 2.025h2.251c12.825 0 20.7 6.976 20.7 17.551 0 19.125-19.125 36.676-32.851 47.926-8.55 6.976-17.325 13.051-28.351 13.051-6.525 0-10.576-4.275-10.576-9.45 0-11.025 15.076-24.301 24.75-30.376.451-.45 1.352-.45 2.026-.45h2.476c0 1.351 0 3.375-.9 4.726-1.801 3.149-7.875 10.35-7.875 13.5 0 2.7.675 2.7 2.924 2.7 3.15 0 12.826-8.325 15.526-11.476 6.974-8.1 18.226-20.7 18.226-29.476 0-5.4-5.4-8.325-12.602-8.325-1.124 0-2.475.675-3.6.675-7.198-.225-20.473-.225-20.473-8.1zm61.874 13.724c2.024-11.25-.45-34.426 14.625-34.426 5.176 0 9.001 4.275 9.001 9.226v1.125c-4.501 19.801-9.451 39.826-14.4 59.401-1.125 4.275-6.075 6.75-9.226 8.325-2.025-2.925-5.401-6.75-5.401-10.125v-1.575s-.225-.45-.674-.45c2.25-10.575 4.049-20.7 6.075-31.501zm24.301-76.726c4.275 0 7.425 1.8 7.425 5.175 0-.899-4.274 11.926-9.9 11.926-1.35 0-5.625-4.726-6.975-5.851.224-8.1 3.824-11.25 9.45-11.25zm12.149 63.002c0-1.125.225-2.25 1.125-3.601 6.75-11.476 14.4-22.95 22.275-33.525 1.125-1.575 3.824-2.476 6.75-2.476 3.6 0 6.074 1.351 6.074 8.551 0 6.524-2.475 17.1-6.524 17.1-2.251 0-5.175-5.85-7.425-5.85-3.375 0-5.176 10.351-6.301 15.3 4.275.9 8.1 2.025 12.376 2.025h2.249c12.826 0 20.701 6.976 20.701 17.551 0 19.125-19.125 36.676-32.852 47.926-8.55 6.976-17.324 13.051-28.35 13.051-6.525 0-10.575-4.275-10.575-9.45 0-11.025 15.075-24.301 24.749-30.376.451-.45 1.352-.45 2.025-.45h2.475c0 1.351 0 3.375-.898 4.726-1.801 3.149-7.875 10.35-7.875 13.5 0 2.7.675 2.7 2.924 2.7 3.15 0 12.826-8.325 15.525-11.476 6.975-8.1 18.227-20.7 18.227-29.476 0-5.4-5.4-8.325-12.602-8.325-1.125 0-2.475.675-3.599.675-7.201-.225-20.474-.225-20.474-8.1zm80.1-36.227c.45-2.7 1.575-5.4 1.575-8.55 0-4.051-2.026-6.075-6.075-6.075-2.926 0-6.525 1.35-9.9 1.35-2.25 0-4.95-2.024-5.4-4.725 0-4.5 6.975-5.176 11.699-6.301 11.701-2.024 15.752-6.75 15.752-17.775 0-2.024-.226-4.5-.226-6.75 0-8.775 3.375-19.801 13.95-19.801 4.501 0 4.949 3.825 4.949 7.426 0 4.725-1.125 12.375-1.125 17.101 0 3.824 1.125 5.399 4.052 5.399 4.95 0 13.275-6.75 20.249-6.75 1.352 0 2.926.45 4.275.675-1.125 1.351-1.574 3.375-2.924 4.275-10.801 7.425-28.576 15.976-30.826 26.101-3.375 15.301-6.075 54.451-9.45 69.978-.226 1.125-.45 2.024-.45 2.925 0 1.8.675 2.925 3.15 2.925.45 0 1.125 0 1.8-.225.899 0 4.05 2.925 4.05 3.825-3.6 9.675-3.6 21.15-12.825 27.9-2.024 1.8-5.401 3.6-7.425 3.6-5.625 0-7.65-10.125-7.65-13.05 0-2.025.225-4.05.225-5.851-.449 0-.9-.225-1.35-.225 3.374-17.775 6.525-59.626 9.9-77.402zm86.398 31.501c0 1.125-.225 2.7-.449 4.05-2.025 13.051-3.825 26.326-5.4 39.376-.9 8.101-2.025 17.326-7.425 17.326-2.026 0-3.825-1.575-5.851-4.275-6.3-7.425-2.25-14.176-6.075-14.176-1.35 0-9 6.751-16.65 6.751-6.751 0-11.024-5.626-11.024-12.601 0-16.2 9.225-32.851 21.824-42.302 4.501-3.375 11.25-4.949 16.651-7.649 9.674 1.125 14.399 5.625 14.399 13.5zm-20.25.45c-2.025 0-4.051.45-5.175 1.575-5.851 8.1-15.976 21.601-15.976 27.9 0 1.125 1.125 5.175 3.825 5.175 7.2 0 16.65-18.45 23.176-29.025-2.7-4.275-2.926-5.625-5.85-5.625zm65.924 12.601c-7.2 12.825-16.65 37.351-27.676 37.351-5.175 0-6.75-4.5-6.75-8.775 0-12.15 1.575-24.976 2.476-37.126l1.349-11.25c.676-4.95 3.826-7.65 8.326-7.65 5.625 0 7.199 4.05 7.199 8.325 0 5.4-1.124 11.25-1.124 16.65 0 1.8.901 4.05 1.124 5.851 1.576-1.125 4.051-2.476 4.951-4.051l8.775-15.075c3.15-4.05 9.676-9 14.625-9 4.5 0 5.625 4.275 5.625 7.875 0 1.8-.225 3.601-.449 5.4-2.7 21.601-5.4 42.977-8.325 64.576-.226 2.025-1.8 4.051-3.15 5.851-.675-2.025-2.251-4.275-2.251-6.75.9-20.251 1.352-42.076 4.5-62.327-.674 0-.898-.449-1.574-.899-2.927 3.824-5.401 7.199-7.651 11.024zm62.098-4.726c-3.148-4.5-4.725-7.425-6.749-7.425-1.125 0-2.476.899-3.825 2.475-6.75 9.226-8.775 19.801-8.775 30.826 0 4.5 3.6 6.975 7.65 6.975 4.5 0 10.35-5.399 14.4-5.399 1.35 0 2.925 0 2.925 2.7 0 7.2-15.301 14.85-23.626 14.85-14.85 0-16.2-17.775-16.2-25.2 0-14.176 4.726-26.775 18.001-36.676 3.825-3.375 8.773-4.5 12.15-4.5 4.95 0 6.975 2.925 6.975 9v2.024c-.001 4.275-1.575 6.525-2.926 10.35zm50.171-33.751c7.427 0 13.727 4.726 13.727 12.825 0 7.876-7.875 18.9-12.15 26.101-5.4 8.775-16.875 11.926-16.875 23.401 0 4.274-.676 10.575 6.75 10.575 4.5 0 8.549-2.476 13.049-2.476 2.477 0 3.826 1.125 3.826 3.375 0 9.226-13.951 16.426-22.5 16.426-17.326 0-18.226-15.301-19.127-25.65.451-23.4 11.251-64.577 33.3-64.577zm.902 12.601c-4.95 0-8.101 12.825-9.901 18 0 .226-.224.226-.224.45 0 .9 1.573 2.925 2.699 2.925 3.376 0 8.325-11.024 11.7-16.2-1.574-2.025-2.925-5.175-4.274-5.175z"/>
  </g>
  <use xlink:href="#k" width="37.665" height="217.175" x="-18.833" y="-108.588" transform="matrix(1.5605 0 0 -1.5605 627.021 842.229)" overflow="visible"/>
  <use xlink:href="#l" width="37.665" height="217.175" x="-18.833" y="-108.588" transform="matrix(1.5605 0 0 -1.5605 568.25 842.229)" overflow="visible"/>
  <path fill="#B7062B" d="M675.182 616.336c-8.049 1.867-16.082-3.143-17.947-11.188l-20.262-87.341c-1.867-8.043 3.143-16.079 11.188-17.945 8.048-1.866 16.08 3.143 17.947 11.188l20.262 87.341c1.864 8.043-3.145 16.08-11.188 17.945z"/>
  <path fill="#B7062B" d="M705.734 502.811c7.813 2.683 11.974 11.186 9.294 18.998l-29.083 84.813c-2.68 7.813-11.182 11.973-18.996 9.293-7.813-2.682-11.975-11.182-9.293-18.998l29.082-84.81c2.676-7.81 11.183-11.974 18.996-9.296z"/>
  <path fill="#F8D5AC" d="M770.753 496.238c.002 8.26-6.694 14.955-14.95 14.955l-36.637.002c-8.254.002-14.955-6.693-14.955-14.952-.002-8.261 6.697-14.956 14.955-14.956l36.631-.003c8.26 0 14.956 6.695 14.956 14.954z"/>
  <path fill="#636363" d="M597.637 708.699c31.115 0 56.342-25.225 56.342-56.342H541.295c0 31.118 25.225 56.342 56.342 56.342z"/>
  <path fill="#B7062B" d="M597.637 481.464c-31.117 0-56.342 25.226-56.342 56.341v114.553h112.684V537.805c0-31.116-25.227-56.341-56.342-56.341z"/>
  <ellipse fill="#436EB3" cx="597.637" cy="557.18" rx="20.508" ry="20.518"/>
  <path fill="#B7062B" d="M543.734 409.815c-8.259 0-14.955 6.696-14.955 14.954v89.659c0 8.26 6.696 14.954 14.955 14.954 8.26 0 14.955-6.694 14.955-14.954V424.77c0-8.258-6.695-14.955-14.955-14.955z"/>
  <path fill="#B7062B" d="M543.734 320.157c-8.259 0-14.955 6.696-14.955 14.954v89.658c0 8.259 6.696 14.953 14.955 14.953 8.26 0 14.955-6.692 14.955-14.954v-89.657c0-8.257-6.695-14.954-14.955-14.954z"/>
  <path fill="#F8D5AC" d="M543.734 253.617c-8.259 0-14.955 6.695-14.955 14.953v36.635c0 8.258 6.696 14.952 14.955 14.954 8.26-.002 14.955-6.698 14.955-14.954v-36.636c0-8.256-6.695-14.952-14.955-14.952z"/>
  <use xlink:href="#m" width="94.013" height="149.16" x="-47.006" y="-81.735" transform="matrix(1.5491 0 0 -1.5491 597.637 383.408)" overflow="visible"/>
  <g fill="#003A62">
    <path d="M789.365 469.318c0 4.26-3.485 7.746-7.745 7.746h-96.045c-4.26 0-7.745-3.485-7.745-7.746v-68.159c0-4.26 3.485-7.746 7.745-7.746h96.045c4.26 0 7.745 3.485 7.745 7.746v68.159zm83.651 35.627h-4.921s-19.478-55.766-78.729-55.766v-27.884c59.252 0 78.729-55.768 78.729-55.768h4.921v139.418z"/>
    <path d="M726.626 477.063h13.942v55.767h-13.942z"/>
  </g>
  <path fill="#F8D5AC" d="M753.34 486.415a5.077 5.077 0 0 1-5.062 5.096l-27.272.001a5.078 5.078 0 0 1-5.095-5.063 5.081 5.081 0 0 1 5.063-5.097h27.271a5.08 5.08 0 0 1 5.095 5.063z"/>
  <path fill="#00A55B" d="M192.099 618.9c7.962 1.961 16.007-2.902 17.966-10.861l21.303-86.417c1.96-7.96-2.9-16.004-10.861-17.967-7.961-1.961-16.004 2.902-17.967 10.861l-21.3 86.417c-1.961 7.96 2.903 16.005 10.859 17.967z"/>
  <path fill="#00A55B" d="M152.982 509.812c-7.475 3.369-10.803 12.157-7.432 19.633l36.57 81.144c3.367 7.473 12.156 10.801 19.633 7.43 7.473-3.367 10.803-12.156 7.434-19.63l-36.57-81.145c-3.367-7.472-12.16-10.804-19.635-7.432z"/>
  <path fill="#F8D5AC" d="M87.84 498.88c-1.355 8.09 4.1 15.74 12.186 17.1l35.861 6.015c8.086 1.357 15.74-4.096 17.098-12.184 1.359-8.087-4.1-15.738-12.184-17.097l-35.865-6.015c-8.082-1.355-15.739 4.099-17.096 12.181z"/>
  <use xlink:href="#k" width="37.665" height="217.175" x="-18.833" y="-108.588" transform="matrix(1.5491 0 0 -1.5491 299.635 843.469)" overflow="visible"/>
  <use xlink:href="#l" width="37.665" height="217.175" x="-18.833" y="-108.588" transform="matrix(1.5491 0 0 -1.5491 241.29 843.469)" overflow="visible"/>
  <path fill="#00A55B" d="M332.07 414.539c8.174.639 14.279 7.784 13.641 15.956l-6.941 88.732c-.64 8.173-7.783 14.28-15.957 13.641-8.174-.639-14.283-7.782-13.643-15.957l6.941-88.73c.639-8.173 7.784-14.283 15.959-13.642z"/>
  <path fill="#00A55B" d="M339.011 325.808c8.175.64 14.282 7.784 13.642 15.957l-6.941 88.73c-.639 8.175-7.781 14.281-15.956 13.643-8.175-.641-14.282-7.784-13.644-15.957l6.943-88.731c.638-8.174 7.782-14.283 15.956-13.642z"/>
  <path fill="#F8D5AC" d="M373.156 271.837c6.271 5.282 7.074 14.647 1.793 20.917l-23.423 27.818c-5.28 6.271-14.645 7.075-20.915 1.793-6.273-5.28-7.074-14.646-1.796-20.917l23.425-27.817c5.28-6.272 14.645-7.074 20.916-1.794z"/>
  <path fill="#636363" d="M270.461 710.918c30.887 0 55.929-25.041 55.929-55.93H214.535c0 30.889 25.038 55.93 55.926 55.93z"/>
  <path fill="#00A55B" d="M270.461 485.346c-30.888 0-55.926 25.04-55.926 55.928v113.715H326.39V541.273c0-30.887-25.042-55.927-55.929-55.927z"/>
  <path fill="#DF0024" d="M250.104 540.16h40.714v40.714h-40.714z"/>
  <use xlink:href="#n" width="129.176" height="145.5" x="-64.588" y="-80.335" transform="matrix(1.4776 0 0 -1.4776 270.463 396.154)" overflow="visible"/>
  <g fill="#003A62">
    <path d="M90.918 446.873c-1.631 3.935.253 8.49 4.188 10.122l88.717 36.787c3.935 1.632 8.49-.253 10.122-4.188l26.107-62.961c1.632-3.935-.253-8.49-4.188-10.122l-88.72-36.787c-3.935-1.632-8.49.253-10.121 4.188l-26.105 62.961z"/>
    <path d="M0 447.743l4.543 1.884s39.357-44.051 94.09-21.356l10.68-25.757c-54.735-22.695-51.367-81.671-51.367-81.671l-4.543-1.885L0 447.743zm124.536 81.83l-12.877-5.34 21.364-51.513 12.878 5.34z"/>
  </g>
  <path fill="#F8D5AC" d="M143.738 498.328a5.078 5.078 0 0 1-5.836 4.188l-26.896-4.51a5.08 5.08 0 1 1 1.648-10.025l26.896 4.511a5.08 5.08 0 0 1 4.188 5.836z"/>
  <path fill="#252525" d="M273.22 29.996l12.933-3.251L380.7 402.833l-12.933 3.251z"/>
  <path fill="#EBEBEB" d="M133.572 74.627L430.293.003l47.091 187.243-296.72 74.624z"/>
  <path d="M182.828 79.394l58.785-9.317 3.217 26.861-39.141 42.662 49.255-7.562 1.255 31.858-66.136 1.833-4.815-33.214 42.777-38.428-46.675 10.13zm78.19-16.671s10.22 56.102 11.988 63.141c4.107 16.329 13.696 24.693 30.588 20.445 16.893-4.248 24.746-16.438 22.871-28.37-1.875-11.935-9.419-69.308-9.419-69.308l-17.01 4.277s7.304 53.543 8.653 62.483c1.352 8.939-.017 15.406-6.648 16.408-11.299 1.707-11.854-4.212-13.762-16.064-2.164-13.436-1.182-7.448-8.117-57.828l-19.144 4.816zm142.46-35.829l-78.55 19.754 5.64 22.421 30.219-8.9 15.942 71.039 21.646-2.471-22.116-73.126 30.796-9.071zm44.682 102.188l13.893 55.247-13.037 3.779-25.25-34.379 9.505 40.07-15.232-1.197-10.612-57.225 15.464-1.565 25.504 41.002-12.397-48.638zm-235.992 65.402l-17.577 3.988-.237 48.024 10.467-2.199-1.238-13.517 17.375-3.073 5.961 11.68 17.729-5.971-32.48-38.932zm-9.568 25.525l-1.24-14.38 8.078-2.247 8.148 13.506-14.986 3.121zm104.941-55.044l-17.576 3.989-.238 48.023 10.464-2.199-1.237-13.517 17.375-3.072 5.963 11.679 17.727-5.971-32.478-38.932zm-9.568 25.524l-1.242-14.381 8.08-2.246 8.149 13.506-14.987 3.121zm-85.535.06l-24.303-5.201 1.89-8.837zm53.303 27.871l-7.94-41.546-14.477 3.81 14.891 48.794 29.58-7.44-2.547-10.134zm122.501-64.598l-3.443-13.693-39.155 12.491 13.085 56.383 10.503-2.642-8.382-25.18 24.754-4.272-3.444-13.694-22.365 5.626-1.977-7.553zm18.778-.771l-3.42-17.652-15.162 5.123 4.068 16.179zm-13.899 6.095l9.381 37.297 12.323-3.099-7.325-37.815z" fill="#DF0024"/>
  <path fill="#F8D5AC" d="M357.066 275.924a5.08 5.08 0 0 1 .613 7.157l-17.633 20.806a5.077 5.077 0 0 1-7.156.613 5.08 5.08 0 0 1-.615-7.157l17.633-20.805a5.08 5.08 0 0 1 7.158-.614z"/>
  <path fill="#E1E1E1" d="M481.244 102.695h119.399v176.552H481.244z"/>
  <path fill="#F5F5F5" d="M490.433 98.53l119.245 6.125-9.057 176.322-119.245-6.125z"/>
  <path fill="#F8D5AC" d="M553.605 256.969a5.078 5.078 0 0 1 5.084 5.075l-.066 27.271a5.08 5.08 0 0 1-10.16.008l.066-27.271a5.082 5.082 0 0 1 5.076-5.083z"/>
</svg>
