<svg xmlns="http://www.w3.org/2000/svg" xmlns:xlink="http://www.w3.org/1999/xlink" width="320" height="59.314">
  <path fill="#E20613" d="M0 49.895h320v9.419H0zm130.436-5.269l-2.745 2.89h5.489z"/>
  <path fill="#E20613" d="M127.691 47.516h5.489v3.774h-5.489z"/>
  <defs>
    <path id="a" d="M0 0h320v59.314H0z"/>
  </defs>
  <clipPath id="b">
    <use xlink:href="#a" overflow="visible"/>
  </clipPath>
  <path clip-path="url(#b)" fill="#E20613" d="M19.731 37.723c3.049 0 5.521-5.561 5.521-12.42C25.251 18.442 22.78 0 19.731 0S14.21 18.442 14.21 25.302c0 6.86 2.472 12.421 5.521 12.421"/>
  <path fill="#E20613" d="M19.118 35.423h1.227v17.788h-1.227z"/>
  <defs>
    <path id="c" d="M0 0h320v59.314H0z"/>
  </defs>
  <clipPath id="d">
    <use xlink:href="#c" overflow="visible"/>
  </clipPath>
  <path clip-path="url(#d)" fill="#E20613" d="M40.087 46.924c6.924 0 12.537-5.046 12.537-11.271s-5.613-11.271-12.537-11.271c-6.923 0-12.536 5.046-12.536 11.271s5.613 11.271 12.536 11.271"/>
  <path fill="#E20613" d="M39.053 41.71h2.07v11.501h-2.07z"/>
  <defs>
    <path id="e" d="M0 0h320v59.314H0z"/>
  </defs>
  <clipPath id="f">
    <use xlink:href="#e" overflow="visible"/>
  </clipPath>
  <path clip-path="url(#f)" fill="#E20613" d="M167.345 48.83c5.082 0 9.201-3.516 9.201-7.854 0-4.337-4.119-7.854-9.201-7.854-5.081 0-9.2 3.516-9.2 7.854s4.119 7.854 9.2 7.854"/>
  <path fill="#E20613" d="M166.585 45.197h1.521v8.014h-1.521zM57.454 29.557l-9.201 9.689h18.402zm-9.201 9.69h18.402v12.651H48.253zm29.598-3.364l-6.596 6.946h13.191zm-6.596 6.946h13.191v9.069H71.255zm52.744 2.978h.811v4.337h-.811zm-31.714 0h.811v4.337h-.811z"/>
  <defs>
    <path id="g" d="M0 0h320v59.314H0z"/>
  </defs>
  <clipPath id="h">
    <use xlink:href="#g" overflow="visible"/>
  </clipPath>
  <path clip-path="url(#h)" fill="#E20613" d="M108.547 46.802c11.187 0 15.452 3.342 15.452 3.342h4.973c-1.059-1.075-3.02-1.978-5.868-2.7-3.903-.988-9.072-1.533-14.556-1.533s-10.653.545-14.556 1.533c-2.848.722-4.81 1.625-5.868 2.7h4.973c-.001 0 4.264-3.342 15.45-3.342"/>
  <path clip-path="url(#h)" fill="#E20613" d="M93.027 46.318l-.056-.195.098-.028c.288-.083.59-.164.898-.242 3.91-.99 9.088-1.535 14.581-1.535s10.67.545 14.581 1.535c.308.079.61.16.898.242l.098.028-.056.195-.097-.028a30.467 30.467 0 0 0-.892-.241c-3.895-.986-9.055-1.529-14.531-1.529-5.476 0-10.637.543-14.531 1.529-.306.078-.606.159-.892.241l-.099.028z"/>
  <path fill="#E20613" d="M140.833 36.306l9.637.169 5.207 6.773-9.588-.023zm5.256 6.919l9.588.023v8.91l-9.588.172z"/>
  <path fill="#E20613" d="M140.833 36.306l5.256 6.919v9.105l-10.442-.107v-8.984zM14.702 42.044l-5.926.104-3.201 4.165 5.895-.014zm-3.232 4.255l-5.895.014v5.479l5.895.105zm3.232-4.255l-3.232 4.255v5.598l6.421-.065v-5.524z"/>
</svg>
