<svg xmlns="http://www.w3.org/2000/svg" xmlns:xlink="http://www.w3.org/1999/xlink" width="1588.676" height="1024.677">
  <symbol id="d" viewBox="-27.848 -8.527 55.693 22.585">
    <path d="M9.922-2.857a5.67 5.67 0 1 1 11.336 0 5.67 5.67 0 0 1-11.336 0z"/>
    <path fill="none" stroke="#000" stroke-width="2" stroke-linecap="round" stroke-miterlimit="10" d="M26.846 8.394c-2.88 2.882-6.859 4.664-11.253 4.664s-8.372-1.78-11.253-4.66"/>
    <path d="M21.26-2.857h2.734M20.918-.919l2.57.936m-3.554.769l2.093 1.759m-3.603-.493l1.367 2.368" fill="none" stroke="#000" stroke-width="1.5" stroke-linecap="round" stroke-miterlimit="10"/>
    <path d="M-9.924-2.857a5.67 5.67 0 1 0-11.336 0 5.67 5.67 0 0 0 11.336 0z"/>
    <path fill="none" stroke="#000" stroke-width="2" stroke-linecap="round" stroke-miterlimit="10" d="M-26.848 8.394c2.88 2.882 6.859 4.664 11.253 4.664s8.372-1.78 11.253-4.66"/>
    <path d="M-21.262-2.857h-2.734m3.076 1.938l-2.57.936m3.554.769l-2.093 1.759m3.603-.493l-1.367 2.368" fill="none" stroke="#000" stroke-width="1.5" stroke-linecap="round" stroke-miterlimit="10"/>
  </symbol>
  <symbol id="n" viewBox="-45.744 -77.459 91.488 140.188">
    <path fill="#ABABAC" d="M-6.172 46.122c.238.039.479.07.724.093 2.503.026 4.771-.776 6.175-2.356 1.429-1.507 2.021-3.456 1.703-5.501s-1.396-3.827-2.669-5.063c-1.29-1.16-2.78-2.083-4.419-2.061a4.562 4.562 0 0 0-.479-.03l-1.591-.002-.847.003-.986-.107-1.131-.113c-.401-.037-.827-.065-1.253-.176-3.485-.538-8.106-2.164-12.169-4.98l-.774-.511c-.251-.179-.477-.387-.718-.578l-1.433-1.165c-.91-.815-1.748-1.69-2.579-2.53-.723-.919-1.521-1.761-2.138-2.655-.586-.911-1.224-1.743-1.692-2.578l-1.244-2.315c-.341-.707-.568-1.354-.796-1.875l-.508-1.221a1.889 1.889 0 0 1-.117-.328 8.04 8.04 0 0 0-.034-.115c-.481-1.635-2.364-2.744-4.316-2.48-1.951.264-3.229 2.131-2.941 4.279l.019.146c.012.096.03.239.076.419l.364 1.581c.169.679.33 1.522.606 2.463l1.069 3.128c.419 1.141 1.021 2.314 1.593 3.598.604 1.266 1.413 2.508 2.178 3.85.873 1.261 1.786 2.581 2.808 3.848l1.626 1.851c.277.307.543.629.836.923l.906.856 1.832 1.71c.636.538 1.307 1.03 1.958 1.541 1.282 1.059 2.687 1.893 4.035 2.738.34.207.67.427 1.011.616l1.036.525 2.019 1.008c1.322.64 2.65 1.069 3.852 1.549.599.249 1.196.407 1.765.563l1.617.446 1.431.385 1.236.222 2.359.399zM9.075 24.146a4.104 4.104 0 0 0-.432-.045c-1.46-.265-2.928.336-4.252 1.178-1.321.914-2.55 2.341-3.141 4.12s-.354 3.605.696 5.165c1.017 1.62 2.921 2.676 5.158 3.027.221.017.441.025.659.026l2.168-.003 1.137-.013 1.334-.129c.948-.12 2.023-.152 3.17-.394 1.144-.249 2.393-.433 3.669-.806l1.952-.598 1.003-.313c.333-.118.66-.265.994-.398 1.331-.552 2.708-1.087 4.012-1.84.658-.358 1.33-.697 1.978-1.082l1.892-1.251.937-.628c.306-.219.591-.467.885-.699l1.729-1.408c1.101-.978 2.113-2.019 3.081-3.014.884-1.083 1.791-2.071 2.52-3.11.703-1.06 1.416-2.017 1.961-2.973l1.422-2.632c.388-.798.657-1.526.91-2.107l.562-1.357c.134-.31.17-.49.17-.49.577-1.874-.283-3.731-1.985-4.259s-3.549.18-4.224 1.567c0 0-.048.14-.201.372l-.636 1.014c-.281.43-.581.974-.991 1.554l-1.457 1.88c-.543.675-1.236 1.321-1.896 2.047-.686.706-1.523 1.337-2.306 2.05-.867.625-1.747 1.28-2.681 1.871l-1.453.826c-.243.135-.477.287-.728.409l-.768.34c-4.046 1.905-8.414 2.665-11.605 2.623-.796.047-1.53-.084-2.171-.1l-.896-.052-.755-.129-1.421-.239z"/>
    <use xlink:href="#a" width="91.488" height="136.201" x="-45.744" y="-75.466" transform="translate(0 -1.994)" overflow="visible"/>
    <path fill="#ABABAC" d="M45.247 16.185s-.036.18-.17.49l-.562 1.357c-.109.252-.227.542-.352.843.015.417-.035.851-.169 1.286 0 0-.036.18-.17.49l-.562 1.357c-.047.107-.102.243-.15.36.938.833 1.315 2.23.882 3.638 0 0-.036.18-.17.49l-.562 1.356c-.253.581-.522 1.31-.91 2.107l-1.422 2.632c-.328.576-.721 1.155-1.132 1.754.597.835.79 1.98.435 3.135 0 0-.036.18-.17.49l-.562 1.357c-.253.581-.522 1.309-.91 2.107l-1.422 2.632c-.545.956-1.258 1.913-1.961 2.973-.729 1.039-1.636 2.027-2.52 3.11-.968.995-1.98 2.036-3.081 3.014-.572.466-1.149.937-1.729 1.408-.294.232-.579.48-.885.699l-.933.63-1.892 1.251c-.647.385-1.319.724-1.978 1.082-1.304.753-2.681 1.288-4.012 1.84-.334.133-.661.281-.994.398l-1.003.313-1.952.598c-1.276.373-2.525.557-3.669.806-1.146.242-2.222.274-3.17.394l-1.334.129-1.137.013-2.168.003a9.14 9.14 0 0 1-.659-.026c-1.848-.291-3.46-1.068-4.541-2.24-1.339.988-3.166 1.416-5.119 1.271-.22-.035-.436-.077-.648-.125l-2.11-.497-1.103-.271-1.271-.43c-.896-.333-1.936-.609-2.996-1.106-1.058-.502-2.231-.966-3.39-1.62l-1.765-1.026-.905-.534c-.298-.19-.583-.408-.878-.614-1.17-.841-2.389-1.675-3.486-2.705-.56-.499-1.137-.981-1.68-1.504l-1.557-1.649-.769-.826c-.248-.282-.469-.589-.702-.882l-1.362-1.765c-.85-1.203-1.599-2.447-2.313-3.636-.188-.384-.379-.758-.568-1.129a80.333 80.333 0 0 1-1.061-1.712c-1.087.279-2.393-.15-3.203-1.166-.966-1.21-.679-2.965.651-4.03 0 0 .032-.029.073-.063-.284-.727-.555-1.425-.756-2.103l-.628-2.308-.016-.036c-.443-1.192-.92-2.287-1.232-3.341l-.785-2.887c-.196-.865-.293-1.636-.406-2.259l-.237-1.449a2.636 2.636 0 0 1-.054-.516c-.137-1.956 1.125-3.568 2.902-3.695.499-.036.982.035 1.434.176.505-.897 1.377-1.513 2.442-1.589 1.777-.126 3.414.983 3.756 2.488 0 0 .015.147.11.408l.343.999a3.32 3.32 0 0 1 1.313-.61s.151-.049.443-.081a4.92 4.92 0 0 0 .104-.013c-.026-.124-.056-.245-.068-.373-.15-1.541 1.048-2.856 2.742-3.024 0 0 .156-.031.45-.029l1.217-.007a3.403 3.403 0 0 1-.177-1.239c.078-1.546 1.456-2.671 3.157-2.588 0 0 .159-.008.449.038l1.263.18c.543.088 1.214.158 1.969.313l2.521.63c.922.252 1.881.646 2.925 1.01 1.031.39 2.058.94 3.16 1.451 1.045.6 2.14 1.229 3.2 1.944 1.011.776 2.128 1.486 3.067 2.398 3.689 3.19 6.569 7.312 8.247 10.87.049-.035.096-.074.145-.108 1.324-.842 2.792-1.443 4.252-1.178.146.008.29.023.432.045l1.421.236.755.129.896.052c.641.016 1.375.146 2.171.1 3.191.042 7.56-.718 11.605-2.623l.768-.34c.251-.122.484-.274.728-.409l1.453-.826c.934-.591 1.813-1.246 2.681-1.871.782-.712 1.62-1.344 2.306-2.05.659-.726 1.353-1.373 1.896-2.047l1.457-1.88c.41-.58.71-1.124.991-1.554l.636-1.014c.153-.232.201-.372.201-.372.675-1.388 2.521-2.095 4.224-1.567s2.562 2.389 1.985 4.262z"/>
  </symbol>
  <symbol id="p" viewBox="-46.81 -79.646 93.62 145.516">
    <use xlink:href="#b" width="91.488" height="37.518" x="-45.744" y="-18.759" transform="translate(-.002 -5.123)" overflow="visible"/>
    <path d="M40.848-65.85h-81.696v94.143h81.696z"/>
    <path fill="#E1A183" d="M0-79.646c-7.83 0-14.178 6.347-14.178 14.177v27.348c0 7.83 6.348 14.177 14.178 14.177s14.178-6.347 14.178-14.177v-27.348C14.177-73.299 7.83-79.646 0-79.646z"/>
    <path fill="#FBD3AD" d="M0-65.85c-22.114 0-40.041 17.928-40.041 40.041v41.371c0 22.113 17.927 40.041 40.041 40.041 22.113 0 40.04-17.928 40.04-40.041v-41.371C40.04-47.922 22.113-65.85 0-65.85z"/>
    <use xlink:href="#c" width="15.497" height="27.162" x="-7.748" y="-13.581" transform="translate(-.002 -22.79)" overflow="visible"/>
    <use xlink:href="#d" width="55.693" height="22.585" x="-27.848" y="-8.527" transform="translate(-.002 -5.123)" overflow="visible"/>
    <use xlink:href="#e" width="34.486" height="17.596" x="-17.243" y="-8.798" transform="translate(-.002 -52.16)" overflow="visible"/>
    <path fill="#040404" d="M0 65.87c-25.854 0-46.811-20.958-46.811-46.811v-84.931h9.5V6.974c0 9.497 27.524 15.81 37.31 23.885C7.952 21.97 37.311 20.31 37.311 8.64v-74.511h9.499V19.06c0 25.852-20.958 46.81-46.81 46.81z"/>
  </symbol>
  <symbol id="e" viewBox="-17.243 -8.798 34.486 17.596">
    <path fill="#E1A183" d="M-17.183 8.798c-.027-.377-.061-.753-.061-1.137 0-9.09 7.72-16.459 17.243-16.459S17.243-1.429 17.243 7.661c0 .384-.033.76-.061 1.137h-34.365z"/>
    <path fill="#6D222C" d="M-12.441-3.093C-9.424.396-4.975 2.612 0 2.612S9.424.395 12.441-3.093a16.44 16.44 0 0 1 3.548 6.917H-15.99a16.448 16.448 0 0 1 3.549-6.917z"/>
    <path fill="#AD192B" d="M0 2.612c-4.975 0-9.424-2.217-12.441-5.705C-9.424-6.581-4.975-8.798 0-8.798s9.424 2.217 12.441 5.705C9.424.396 4.975 2.612 0 2.612z"/>
    <path fill="#FFF" d="M-16.459 7.661c0-1.324.173-2.605.47-3.837H15.99c.297 1.232.47 2.513.47 3.837h-32.919z"/>
  </symbol>
  <symbol id="o" viewBox="-9.583 -88.358 19.167 176.717">
    <path fill="#B7062B" d="M0 11.737c-5.293 0-9.583 4.291-9.583 9.583v57.455c0 5.293 4.29 9.583 9.583 9.583s9.583-4.29 9.583-9.583V21.32c0-5.292-4.29-9.583-9.583-9.583z"/>
    <path fill="#B7062B" d="M0-45.718c-5.293 0-9.583 4.291-9.583 9.583V21.32c0 5.292 4.29 9.582 9.583 9.582s9.583-4.289 9.583-9.583l.001-57.454c0-5.292-4.291-9.583-9.584-9.583z"/>
    <path fill="#F8D5AC" d="M0-88.358c-5.293 0-9.583 4.291-9.583 9.583V-55.3c0 5.292 4.29 9.582 9.583 9.583 5.293-.001 9.583-4.292 9.584-9.583l-.001-23.476c.001-5.291-4.29-9.582-9.583-9.582z"/>
  </symbol>
  <symbol id="m" viewBox="-9.583 -88.358 19.166 176.717">
    <path fill="#00A55B" d="M0 11.737c-5.293 0-9.583 4.291-9.583 9.583v57.455c0 5.293 4.29 9.583 9.583 9.583s9.583-4.29 9.583-9.583V21.32c0-5.292-4.29-9.583-9.583-9.583z"/>
    <path fill="#00A55B" d="M0-45.718c-5.293 0-9.583 4.291-9.583 9.583V21.32c0 5.293 4.29 9.583 9.583 9.583s9.583-4.29 9.583-9.583v-57.455c0-5.292-4.29-9.583-9.583-9.583z"/>
    <path fill="#F8D5AC" d="M0-88.358c-5.293 0-9.583 4.291-9.583 9.583V-55.3c0 5.292 4.29 9.583 9.583 9.583s9.583-4.291 9.583-9.583v-23.476c0-5.291-4.29-9.582-9.583-9.582z"/>
  </symbol>
  <symbol id="f" viewBox="-18.833 -11.871 37.665 23.741">
    <path d="M0 11.87c-10.401 0-18.833-8.431-18.833-18.832h37.665C18.833 3.439 10.401 11.87 0 11.87z"/>
    <path fill="#464646" d="M18.833-11.871h-37.666v4.909h37.666z"/>
    <path fill="#959595" d="M9.25 2.454a3.335 3.335 0 1 0-6.672 0 3.336 3.336 0 1 0 6.672 0z"/>
  </symbol>
  <symbol id="l" viewBox="-18.833 -108.588 37.665 217.175">
    <path fill="#636363" d="M3.121-108.588c-8.238 0-14.915 6.678-14.915 14.914V93.672c0 8.237 6.677 14.915 14.915 14.915s14.916-6.678 14.916-14.915V-93.674c0-8.236-6.678-14.914-14.916-14.914z"/>
    <use xlink:href="#f" width="37.665" height="23.741" x="-18.833" y="-11.871" transform="translate(0 -96.717)" overflow="visible"/>
  </symbol>
  <symbol id="k" viewBox="-18.833 -108.588 37.665 217.175">
    <path fill="#636363" d="M-3.123-108.588c-8.238 0-14.915 6.678-14.915 14.914V93.672c0 8.237 6.677 14.915 14.915 14.915 8.24 0 14.918-6.678 14.918-14.915V-93.674c0-8.236-6.678-14.914-14.918-14.914z"/>
    <use xlink:href="#f" width="37.665" height="23.741" x="-18.833" y="-11.871" transform="translate(0 -96.717)" overflow="visible"/>
  </symbol>
  <symbol id="g" viewBox="-9.446 -16.954 18.892 33.908">
    <path fill="#E2A183" d="M9.445-1.835c0-8.35-6.485-15.119-9.445-15.119-2.961 0-9.446 6.769-9.446 15.119 0 10.539 4.229 15.119 9.446 15.119S9.445 8.703 9.445-1.835z"/>
    <path fill="#FBD3AD" d="M9.445 1.835c0-8.35-6.485-15.119-9.445-15.119-2.961 0-9.446 6.769-9.446 15.119 0 10.539 4.229 15.119 9.446 15.119s9.445-4.581 9.445-15.119z"/>
  </symbol>
  <symbol id="c" viewBox="-7.748 -13.581 15.497 27.162">
    <path fill="#E2A183" d="M.001-13.581a7.75 7.75 0 0 0-7.749 7.749v8.005a7.75 7.75 0 0 0 15.497 0v-8.005c0-4.28-3.47-7.749-7.748-7.749z"/>
    <path fill="#FBD3AD" d="M.001-9.922a7.75 7.75 0 0 0-7.749 7.749v8.005a7.75 7.75 0 0 0 15.497 0v-8.005c0-4.28-3.47-7.749-7.748-7.749z"/>
  </symbol>
  <symbol id="b" viewBox="-45.744 -18.759 91.488 37.518">
    <path fill="#FBD3AD" d="M30.774 18.759v-37.518c8.267 0 14.97 8.399 14.97 18.759s-6.703 18.759-14.97 18.759z"/>
    <path fill="#E1A183" d="M33.113 16.137C38.964 14.707 43.405 8.015 43.405 0s-4.441-14.707-10.292-16.137v32.274z"/>
    <path fill="#FBD3AD" d="M-30.774 18.759v-37.518c-8.267 0-14.97 8.399-14.97 18.759s6.703 18.759 14.97 18.759z"/>
    <path fill="#E1A183" d="M-33.113 16.137C-38.964 14.707-43.405 8.015-43.405 0s4.441-14.707 10.292-16.137v32.274z"/>
  </symbol>
  <symbol id="a" viewBox="-45.744 -75.466 91.488 136.201">
    <use xlink:href="#b" width="91.488" height="37.518" x="-45.744" y="-18.759" overflow="visible"/>
    <path fill="#E1A183" d="M0-75.466c-7.83 0-14.178 6.347-14.178 14.177v27.348c0 7.83 6.348 14.177 14.178 14.177S14.177-26.11 14.177-33.94v-27.348c0-7.831-6.347-14.178-14.177-14.178z"/>
    <path fill="#FBD3AD" d="M37.944 0c0-33.543-26.053-60.735-37.944-60.735S-37.945-33.543-37.945 0c0 42.334 16.989 60.735 37.945 60.735S37.944 42.331 37.944 0z"/>
    <use xlink:href="#g" width="18.892" height="33.908" x="-9.446" y="-16.954" transform="translate(0 -14.304)" overflow="visible"/>
    <use xlink:href="#h" width="54.07" height="21.443" x="-27.035" y="-8.527" overflow="visible"/>
    <use xlink:href="#e" width="34.486" height="17.596" x="-17.243" y="-8.798" transform="translate(0 -47.046)" overflow="visible"/>
  </symbol>
  <symbol id="h" viewBox="-27.035 -8.527 54.07 21.443">
    <path d="M-9.922-2.857a5.67 5.67 0 1 0-11.336 0 5.67 5.67 0 0 0 11.336 0zm19.844 0a5.67 5.67 0 1 1 11.336 0 5.67 5.67 0 0 1-11.336 0z"/>
    <path fill="none" stroke="#000" stroke-width="2" stroke-linecap="round" stroke-miterlimit="10" d="M5.145 7.59a14.73 14.73 0 0 0 10.446 4.326c4.078 0 7.771-1.653 10.444-4.325m-31.18-.001a14.73 14.73 0 0 1-10.446 4.326 14.728 14.728 0 0 1-10.444-4.325"/>
  </symbol>
  <g fill="#003A62">
    <path d="M1041.827 385.438c-1.35 7.65-2.025 14.85-3.824 22.051-.45 1.574-.45 3.15-.45 4.275 0 3.824 1.8 5.4 6.3 5.4 11.926 0 23.626-2.701 35.551-2.701 11.926 0 20.477 3.602 31.502 7.426 1.799.9 2.924 4.725 4.275 6.75-2.025.449-3.826.676-5.627.676-.898 0-1.574 0-2.475-.227-10.8-3.148-21.6-4.5-32.4-4.5-16.2 0-32.626 3.15-48.826 7.426-1.125.451-2.025 1.125-2.699 1.125-2.926 0-5.625-2.025-7.652-3.15 1.801-4.725 8.102-11.475 8.102-15.975-.225-3.375-.449-6.975-.449-10.35.225-24.977 6.299-49.277 9.899-74.254 2.7-19.35 5.851-39.15 7.874-58.727.676-7.199 2.701-10.799 7.651-10.799 4.274 0 10.125 2.025 10.125 9.9 0 2.023-.225 4.275-.225 6.299.225.451.675.451 1.124.451-5.85 35.777-11.25 72.453-17.776 108.904z"/>
    <path d="M1114.501 383.637c2.024-11.25-.451-34.426 14.625-34.426 5.175 0 9 4.275 9 9.227v1.125c-4.5 19.801-9.45 39.826-14.4 59.4-1.125 4.275-6.075 6.75-9.225 8.326-2.025-2.926-5.4-6.75-5.4-10.125v-1.576s-.225-.449-.676-.449c2.25-10.576 4.051-20.701 6.076-31.502zm24.3-76.726c4.275 0 7.426 1.801 7.426 5.176 0-.9-4.275 11.926-9.901 11.926-1.35 0-5.625-4.727-6.975-5.852.224-8.1 3.824-11.25 9.45-11.25zm53.1 110.927c-2.699 4.051-9 5.625-13.5 7.426-.675-4.275-2.701-8.326-2.926-12.6-.225-4.5 11.251-4.5 13.276-8.326 7.425-13.275 14.175-28.125 14.175-44.102 0-2.25-1.574-4.5-2.7-7.199-2.25 1.125-5.175 2.025-6.975 4.049-12.15 16.65-21.15 35.102-25.426 55.578-.9 4.725-6.976 13.725-11.025 13.725-2.925 0-6.075-3.15-6.075-7.875 0-9.225 2.7-19.576 4.5-29.025 2.25-16.426 5.176-32.852 7.875-49.053 2.025-12.15 4.501-12.15 6.525-24.074.225-1.352.45-2.701.45-4.051 0-3.6-1.575-6.75-1.575-11.25 0-12.15 6.301-24.977 17.775-24.977 3.601 0 7.426 4.275 7.426 9.451-1.801 28.801-9.45 39.15-13.275 59.627-.227.449-.227 1.125-.227 1.574 0 2.25.901 4.951 1.576 7.426 2.25-1.801 4.95-3.15 7.2-4.725 4.052-2.701 6.75-6.076 11.927-6.076 6.074 0 9.674 4.951 9.674 12.826 0 2.25-.225 4.5-.225 6.75-.224 20.476-6.974 38.476-18.45 54.901zm63.223-78.076c7.426 0 13.727 4.725 13.727 12.824 0 7.877-7.875 18.9-12.15 26.102-5.4 8.775-16.875 11.926-16.875 23.4 0 4.275-.676 10.576 6.75 10.576 4.5 0 8.549-2.477 13.049-2.477 2.477 0 3.826 1.125 3.826 3.375 0 9.227-13.95 16.426-22.5 16.426-17.326 0-18.226-15.301-19.127-25.65.45-23.4 11.25-64.576 33.3-64.576zm.901 12.6c-4.95 0-8.101 12.826-9.901 18 0 .227-.225.227-.225.451 0 .9 1.574 2.924 2.699 2.924 3.377 0 8.327-11.023 11.702-16.199-1.574-2.026-2.925-5.176-4.275-5.176zm80.549 3.375c-3.375 0-5.175-6.75-7.875-6.75-3.825 0-17.552 24.076-22.726 34.426-5.625 11.477-9 23.852-13.951 35.777-3.375 8.1-6.975 8.773-11.925 11.699-1.575-2.926-4.5-6.301-4.5-9.225.899-12.375 2.925-24.525 4.5-36.676 1.351-10.801.899-42.977 15.301-42.977 6.075 0 8.774 10.125 10.124 17.324 2.701-2.475 5.401-4.949 7.65-7.648 6.526-8.102 13.5-22.502 23.401-22.502 4.726 0 4.5 4.727 7.2 8.551-2.024 8.327-3.149 18.001-7.199 18.001z"/>
    <path d="M1356.821 333.686c.449-2.699 1.574-5.4 1.574-8.549 0-4.051-2.025-6.076-6.074-6.076-2.927 0-6.527 1.35-9.901 1.35-2.251 0-4.95-2.023-5.401-4.725 0-4.5 6.977-5.176 11.701-6.301 11.7-2.023 15.75-6.75 15.75-17.775 0-2.023-.225-4.5-.225-6.75 0-8.775 3.375-19.801 13.951-19.801 4.5 0 4.949 3.826 4.949 7.426 0 4.725-1.125 12.375-1.125 17.102 0 3.824 1.125 5.398 4.051 5.398 4.95 0 13.275-6.75 20.25-6.75 1.351 0 2.926.451 4.275.676-1.125 1.35-1.575 3.375-2.925 4.275-10.801 7.424-28.577 15.975-30.826 26.1-3.376 15.301-6.075 54.451-9.45 69.979-.225 1.125-.449 2.023-.449 2.924 0 1.801.674 2.926 3.148 2.926.451 0 1.126 0 1.801-.225.9 0 4.051 2.924 4.051 3.824-3.601 9.676-3.601 21.15-12.826 27.9-2.025 1.801-5.399 3.6-7.424 3.6-5.625 0-7.651-10.125-7.651-13.049 0-2.025.225-4.051.225-5.852-.448 0-.899-.225-1.35-.225 3.375-17.775 6.526-59.627 9.901-77.402zm69.073 6.076c7.426 0 13.726 4.725 13.726 12.824 0 7.877-7.875 18.9-12.15 26.102-5.399 8.775-16.875 11.926-16.875 23.4 0 4.275-.677 10.576 6.749 10.576 4.501 0 8.551-2.477 13.051-2.477 2.475 0 3.824 1.125 3.824 3.375 0 9.227-13.949 16.426-22.5 16.426-17.325 0-18.225-15.301-19.125-25.65.448-23.4 11.249-64.576 33.3-64.576zm-13.05-33.976c0-3.15 3.374-4.5 6.3-5.625 17.325-6.975 33.976-13.951 51.303-20.475.448-.227 1.125-.227 1.799-.227 2.924 0 5.4 1.125 5.4 4.275 0 1.576-.449 3.6-1.125 4.051-13.051 12.375-35.552 19.125-54.677 26.775-4.275-3.149-9-4.274-9-8.774zm13.95 46.576c-4.95 0-8.1 12.826-9.9 18 0 .227-.225.227-.225.451 0 .9 1.574 2.924 2.699 2.924 3.376 0 8.326-11.023 11.701-16.199-1.576-2.026-2.925-5.176-4.275-5.176zM900.416 660.389c0-20.252 7.875-48.828 22.275-48.828 4.726 0 8.55 5.4 12.601 10.127 1.35-1.576 2.925-3.15 3.6-4.951 6.976-19.576 13.725-36.675 22.951-62.101 1.574-4.051 4.049-5.625 7.424-5.625 6.301 0 8.102 2.699 8.102 5.625 0 1.574-.451 3.375-.676 4.951-4.275 18.674-4.949 25.65-9.225 44.1-4.051 17.775-9.676 35.101-14.176 52.652-4.725 18.9-8.1 52.877-21.15 52.877-3.824 0-6.075-4.051-6.075-11.252 0-4.725.675-9.674 1.126-14.4 0-2.699-.451-4.949-.9-7.648-2.25 1.125-5.176 1.574-7.201 3.375-2.475 2.475-5.399 4.949-8.551 4.949-6.299 0-10.574-10.801-10.574-15.525 0-2.25.45-4.051.45-5.176v-3.15zm11.025 10.799c1.8 0 4.5-1.35 6.3-2.699 2.25-1.35 13.951-27.9 13.951-32.627 0-4.5-7.877-11.025-11.025-11.025-4.275 0-9.676 27.902-12.601 39.152 1.35 3.15 2.025 6.749 3.375 7.199zm88.648-127.578c1.352-2.025 6.526-2.475 9.676-3.375.226 2.475 1.576 5.4 1.576 7.875 0 .451 0 1.125-.226 1.576-3.601 10.35-9.45 28.35-17.325 28.35-1.35-.449-2.926-3.375-5.176-5.625 4.051-9.901 7.426-19.801 11.475-28.801zm37.799 66.152c7.426 0 13.725 4.725 13.725 12.824 0 7.877-7.875 18.9-12.15 26.102-5.399 8.775-16.875 11.926-16.875 23.4 0 4.275-.675 10.576 6.75 10.576 4.5 0 8.551-2.477 13.051-2.477 2.475 0 3.825 1.125 3.825 3.375 0 9.227-13.95 16.426-22.501 16.426-17.326 0-18.225-15.301-19.125-25.65.448-23.4 11.249-64.576 33.3-64.576zm.9 12.599c-4.951 0-8.102 12.826-9.9 18 0 .227-.227.227-.227.451 0 .9 1.576 2.924 2.701 2.924 3.375 0 8.324-11.023 11.7-16.199-1.575-2.025-2.924-5.176-4.274-5.176zm52.649-5.625c3.375 9.676 5.399 13.951 8.1 13.951 2.701 0 6.076-3.375 12.15-10.125 4.725-5.176 9.45-13.05 16.875-13.05 2.475 0 5.176.674 7.876 1.125-.901 2.923-1.124 6.298-2.7 8.55-9.676 13.5-26.775 29.025-26.775 37.574 0 7.201 10.8 26.551 14.175 40.727.226.676.226 1.125.226 1.801 0 3.6-2.701 7.875-3.601 11.475-3.376-2.25-8.325-3.824-10.351-6.975-6.975-10.576-15.525-31.727-20.025-31.727-5.4 0-21.602 22.275-30.602 31.502-2.475 2.699-6.524 3.6-9.449 5.174 0-1.799-.226-3.6-.226-5.625 0-1.799.226-3.375 1.126-4.725 8.774-13.275 17.775-26.102 27.45-38.025 3.149-3.826 4.95-6.977 4.95-11.025 0-5.852-10.125-23.627-10.125-30.826 0-4.5 3.6-8.099 9-8.099 5.849.224 9.675 2.023 11.926 8.323zm48.372 75.828c2.476-17.551 5.625-34.652 7.649-51.977 1.126-9-1.125-25.877 7.426-25.877 7.875.451 12.376 10.125 14.4 10.125 2.475 0 8.775-11.025 15.301-11.025 7.65 0 11.699 8.102 11.699 13.951 0 .9 0 2.025-.225 2.926-3.15 18.225-11.475 56.025-31.95 56.025-1.351 0-6.3 2.025-6.525 4.727-4.5 22.949-6.075 45.9-13.726 67.951-1.125 2.25-4.725 3.6-6.975 5.4-1.8-3.375-4.275-6.525-4.275-10.125 0-1.801.225-3.602.225-5.176-.225 0-.449-.449-.899-.449l7.875-56.476zm48.151-63.902c0-2.475-2.925-4.725-4.275-4.725-5.85 0-12.15 17.775-15.976 25.875 0 .225-.224.676-.224.9 0 4.049 4.5 8.775 9.225 14.176 5.625-11.476 9.9-23.402 11.25-36.226zm76.049-2.926c-3.375 0-5.176-6.75-7.875-6.75-3.825 0-17.551 24.076-22.727 34.426-5.624 11.477-9 23.852-13.949 35.777-3.375 8.1-6.976 8.773-11.926 11.699-1.576-2.926-4.5-6.301-4.5-9.225.9-12.375 2.924-24.525 4.5-36.676 1.35-10.801.9-42.977 15.301-42.977 6.074 0 8.775 10.125 10.125 17.324 2.7-2.475 5.4-4.949 7.65-7.648 6.525-8.102 13.5-22.501 23.4-22.501 4.727 0 4.5 4.727 7.2 8.551-2.025 8.327-3.149 18-7.199 18zm33.746-15.974c7.426 0 13.725 4.725 13.725 12.824 0 7.877-7.874 18.9-12.15 26.102-5.399 8.775-16.874 11.926-16.874 23.4 0 4.275-.676 10.576 6.749 10.576 4.5 0 8.551-2.477 13.051-2.477 2.476 0 3.825 1.125 3.825 3.375 0 9.227-13.95 16.426-22.5 16.426-17.327 0-18.226-15.301-19.126-25.65.45-23.4 11.249-64.576 33.3-64.576zm.9 12.599c-4.951 0-8.102 12.826-9.9 18 0 .227-.225.227-.225.451 0 .9 1.574 2.924 2.699 2.924 3.376 0 8.324-11.023 11.701-16.199-1.576-2.025-2.925-5.176-4.275-5.176z"/>
    <path d="M1320.703 639.912c0-1.125.224-2.25 1.125-3.6 6.75-11.477 14.399-22.951 22.274-33.525 1.125-1.576 3.826-2.477 6.751-2.477 3.599 0 6.075 1.352 6.075 8.551 0 6.525-2.477 17.099-6.525 17.099-2.25 0-5.176-5.85-7.425-5.85-3.376 0-5.177 10.352-6.301 15.301 4.274.9 8.101 2.025 12.376 2.025h2.25c12.825 0 20.7 6.975 20.7 17.551 0 19.125-19.124 36.676-32.851 47.926-8.551 6.975-17.325 13.051-28.352 13.051-6.523 0-10.574-4.275-10.574-9.451 0-11.025 15.074-24.301 24.75-30.375.45-.451 1.351-.451 2.025-.451h2.475c0 1.352 0 3.375-.899 4.727-1.8 3.148-7.875 10.35-7.875 13.5 0 2.699.675 2.699 2.925 2.699 3.15 0 12.824-8.324 15.525-11.475 6.975-8.1 18.225-20.701 18.225-29.477 0-5.4-5.399-8.324-12.6-8.324-1.125 0-2.475.674-3.601.674-7.197-.224-20.473-.224-20.473-8.099zm60.525 0c0-1.125.225-2.25 1.125-3.6 6.75-11.477 14.4-22.951 22.275-33.525 1.125-1.576 3.824-2.477 6.75-2.477 3.6 0 6.074 1.352 6.074 8.551 0 6.525-2.475 17.099-6.525 17.099-2.249 0-5.174-5.85-7.424-5.85-3.375 0-5.176 10.352-6.301 15.301 4.275.9 8.1 2.025 12.376 2.025h2.25c12.825 0 20.7 6.975 20.7 17.551 0 19.125-19.125 36.676-32.851 47.926-8.551 6.975-17.325 13.051-28.351 13.051-6.525 0-10.575-4.275-10.575-9.451 0-11.025 15.075-24.301 24.749-30.375.451-.451 1.352-.451 2.027-.451H1390c0 1.352 0 3.375-.898 4.727-1.801 3.148-7.875 10.35-7.875 13.5 0 2.699.676 2.699 2.926 2.699 3.148 0 12.824-8.324 15.524-11.475 6.976-8.1 18.226-20.701 18.226-29.477 0-5.4-5.4-8.324-12.602-8.324-1.124 0-2.474.674-3.599.674-7.201-.224-20.474-.224-20.474-8.099zm61.874 13.725c2.025-11.25-.45-34.426 14.625-34.426 5.177 0 9.001 4.275 9.001 9.227v1.125c-4.501 19.801-9.449 39.826-14.4 59.4-1.125 4.275-6.075 6.75-9.226 8.326-2.025-2.926-5.401-6.75-5.401-10.125v-1.576s-.225-.449-.674-.449c2.249-10.576 4.049-20.701 6.075-31.502zm24.301-76.726c4.274 0 7.424 1.801 7.424 5.176 0-.9-4.274 11.926-9.9 11.926-1.35 0-5.625-4.727-6.975-5.852.225-8.1 3.826-11.25 9.451-11.25zm34.199 46.575c2.927 0 6.751 2.025 6.751 5.85 0 1.352-.449 2.926-1.126 3.602-9 10.799-14.175 28.35-14.175 41.852 0 3.148 2.7 6.975 4.05 10.125 2.927-2.025 7.2-3.375 8.101-5.852 5.4-12.15 10.351-26.551 10.351-38.926 0-4.725-2.251-9.674-2.251-14.85 0-3.6 1.352-3.6 3.825-6.076 6.301 6.301 6.976 17.775 6.976 26.326 0 22.051-13.051 49.951-28.351 49.951-9.901 0-16.427-11.025-16.427-29.701.901-10.574 8.551-42.301 22.276-42.301zm68.172 24.752c-7.199 12.824-16.65 37.35-27.676 37.35-5.174 0-6.749-4.5-6.749-8.775 0-12.15 1.575-24.975 2.476-37.125l1.35-11.25c.675-4.951 3.825-7.65 8.325-7.65 5.624 0 7.2 4.049 7.2 8.324 0 5.4-1.125 11.25-1.125 16.65 0 1.801.9 4.051 1.125 5.852 1.575-1.125 4.049-2.477 4.95-4.051l8.775-15.076c3.15-4.049 9.675-9 14.624-9 4.5 0 5.626 4.275 5.626 7.875 0 1.801-.225 3.602-.449 5.4-2.7 21.602-5.4 42.977-8.325 64.576-.226 2.025-1.801 4.051-3.15 5.852-.675-2.025-2.25-4.275-2.25-6.75.898-20.252 1.35-42.076 4.5-62.328-.676 0-.9-.449-1.575-.898-2.925 3.823-5.401 7.198-7.652 11.024z"/>
  </g>
  <path fill="#F5AFF9" d="M264.485 394.948c131.447 0 238.004-88.025 238.004-196.611S395.933 1.726 264.485 1.726c-131.445 0-238.004 88.025-238.004 196.611 0 82.644 61.731 153.367 149.175 182.447 14.283 51.684 73.509 113.062 149.782 126.21-57.005-17.464-72.551-68.438-64.729-112.085 1.258.016 2.514.039 3.776.039z"/>
  <g fill="#003A62">
    <path d="M346.417 238.969c-.697 11.661-15.096 18.699-24.205 9.871-9.109-8.829-58.566-154.226-64.289-180.947-5.721-26.721 44.875-41.015 63.301-16.951 18.426 24.064 25.89 176.368 25.193 188.027z"/>
    <ellipse transform="rotate(-14.992 350.968 288.88)" cx="351.031" cy="288.922" rx="26.213" ry="25.393"/>
  </g>
  <path fill="#C8FAFF" d="M223.553 454.911c.149-.085.299-.165.448-.25 78.31-44.858 111.752-133.665 74.695-198.356-37.057-64.69-130.58-80.768-208.891-35.909S-21.946 354.061 15.112 418.751c28.235 49.292 89.252 70.351 151.344 57.745 31.602 33.053 107.583 67.424 158.854 48.74-41.702 9.452-85.565-33.625-101.757-70.325z"/>
  <g fill="#003A62">
    <ellipse transform="rotate(23.808 149.6 412.338)" cx="149.61" cy="412.355" rx="17.998" ry="17.435"/>
    <path d="M153.694 313.68c-7.014 14.646-38.012.503-44.207-9.8-6.192-10.301-11.129-29.995.359-50.161 11.485-20.167 47.834-22.397 76.366-7.868 28.528 14.528 43.371 56.084 22.247 81.635-14.011 16.947-52.025-9.799-41.734 49.106 2.971 16.991-29.291 16.72-30.223 3.915-.773-10.609 3.873-35.174 17.845-47.774s25.282-8.905 32.513-23.829c7.236-14.928-6.154-38.219-23.899-43.463-13.269-3.919-22.257 3.699-21.489 10.578 1.927 17.289 18.232 25.113 12.222 37.661z"/>
  </g>
  <path fill="#C8FAFF" d="M653.356 0C521.91 0 415.351 88.025 415.351 196.612c0 108.585 106.56 196.61 238.006 196.61 4.022 0 8.021-.085 11.995-.248 18.182 35.445 24.275 70.351-30.88 87.247 75.63-13.038 108.02-57.727 111.99-102.617 85.176-29.938 144.9-99.702 144.9-180.993C891.362 88.025 784.804 0 653.356 0z"/>
  <g fill="#003A62">
    <ellipse transform="rotate(27.773 585.368 295.123)" cx="585.397" cy="295.124" rx="26.214" ry="25.394"/>
    <path d="M613.245 155.281L550 136.59s-4.329-32.488 14.392-60.636c18.722-28.146 62.939-39.941 102.932-15.955 39.991 23.985 69.898 68.971 39.766 126.189-19.292 36.628-69.639 10.102-90.38 79.089l-35.176-14.628s9.171-50.718 30.739-67.619c21.57-16.901 37.633-10.391 49.646-31.351 12.012-20.96.131-42.81-25.127-52.213-40.026-14.903-37.275 30.07-23.547 55.815z"/>
  </g>
  <path fill="#F5AFF9" d="M803.933 169.981c-72.109-25.387-147.564 2.322-168.535 61.889-19.456 55.261 14.819 118.52 77.447 147.647-10.167 29.433-40.383 62.39-74.848 60.968 41.27 6.992 94.139-19.854 119.999-47.246 61.96 9.547 120.46-18.12 138.528-69.436 20.969-59.566-20.484-128.435-92.591-153.822z"/>
  <path d="M749.915 308.55l-15.916-12.635 62.246-92.723 29.85 23.693zm-12.712 24.195c-5.071 6.388-14.53 7.322-21.124 2.087-6.594-5.233-7.83-14.657-2.758-21.044 5.07-6.39 14.527-7.324 21.123-2.09 6.592 5.235 7.83 14.657 2.759 21.047z" fill="#003A62"/>
  <path fill="#00A55B" d="M310.489 658.667c7.42 1.828 14.916-2.703 16.743-10.118l19.85-80.526c1.826-7.418-2.702-14.913-10.122-16.741-7.419-1.828-14.912 2.704-16.74 10.12l-19.85 80.526c-1.826 7.416 2.705 14.912 10.119 16.739z"/>
  <path fill="#00A55B" d="M274.042 557.018c-6.968 3.14-10.066 11.329-6.926 18.294l34.076 75.61c3.137 6.966 11.328 10.065 18.295 6.925 6.963-3.139 10.065-11.327 6.928-18.293l-34.078-75.61c-3.139-6.964-11.33-10.068-18.295-6.926z"/>
  <path fill="#F8D5AC" d="M213.337 546.831c-1.262 7.538 3.821 14.668 11.357 15.934l33.416 5.604c7.533 1.266 14.666-3.814 15.932-11.353 1.266-7.534-3.818-14.664-11.354-15.931l-33.42-5.604c-7.531-1.263-14.666 3.819-15.931 11.35z"/>
  <path d="M244.665 580.725h-44.234v-77.449h44.234v77.449zm-15.676-80.302a.27.27 0 0 1-.27.27.27.27 0 1 1 .27-.27m-.472-.665a.273.273 0 0 1-.271.272.271.271 0 1 1 .271-.272m-.272 1.057c.148 0 .271.121.271.271a.271.271 0 1 1-.271-.271m-.203-.392a.271.271 0 1 1-.543 0 .272.272 0 0 1 .543 0m-.477-.665a.27.27 0 1 1-.54 0 .27.27 0 1 1 .54 0m-.269 1.057c.15 0 .27.121.27.271a.27.27 0 1 1-.27-.271m-.202-.392c0 .15-.122.27-.272.27s-.271-.119-.271-.27.121-.271.271-.271.272.12.272.271m-.476-.665a.272.272 0 0 1-.272.272c-.147 0-.271-.123-.271-.272s.123-.272.271-.272a.271.271 0 0 1 .272.272m-.272 1.057a.27.27 0 1 1 0 .542.274.274 0 0 1-.271-.271c0-.149.123-.271.271-.271m-.202-.392a.27.27 0 1 1-.542-.002.27.27 0 0 1 .542.002m-.475-.665a.272.272 0 0 1-.271.272.272.272 0 0 1 0-.544c.15 0 .271.122.271.272m-.271 1.057a.271.271 0 1 1 0 .542.271.271 0 0 1 0-.542m-.202-.392c0 .15-.123.27-.273.27s-.27-.119-.27-.27.119-.271.27-.271.273.12.273.271m-.474-.665a.27.27 0 1 1-.542 0 .27.27 0 1 1 .542 0m-.272 1.057c.148 0 .271.121.271.271a.27.27 0 1 1-.271-.271m-.204-.392c0 .15-.12.27-.272.27a.27.27 0 1 1 0-.541.269.269 0 0 1 .272.271m-.475-.665a.271.271 0 1 1-.271-.272.27.27 0 0 1 .271.272m-.271 1.057a.27.27 0 1 1 0 .541.27.27 0 0 1 0-.541m-.203-.392a.27.27 0 0 1-.272.27.27.27 0 0 1 0-.541.27.27 0 0 1 .272.271m-.474-.665a.272.272 0 0 1-.273.272c-.146 0-.271-.123-.271-.272s.125-.272.271-.272a.271.271 0 0 1 .273.272m-.273 1.057a.271.271 0 1 1 0 .542.274.274 0 0 1-.271-.271.273.273 0 0 1 .271-.271m-.201-.392c0 .15-.121.27-.271.27s-.271-.119-.271-.27.121-.271.271-.271.271.12.271.271m-.477-.665a.27.27 0 1 1-.541 0 .27.27 0 0 1 .541 0m-.269 1.057c.15 0 .27.121.27.271a.27.27 0 1 1-.27-.271m-.204-.392a.27.27 0 0 1-.271.27c-.15 0-.271-.119-.271-.27s.12-.271.271-.271a.27.27 0 0 1 .271.271m-.474-.665a.271.271 0 1 1-.542 0c0-.149.122-.272.272-.272a.27.27 0 0 1 .27.272m-.27 1.057a.27.27 0 1 1 0 .54.27.27 0 0 1 0-.54m-.205-.392a.27.27 0 0 1-.271.27c-.148 0-.27-.119-.27-.27s.121-.271.27-.271a.27.27 0 0 1 .271.271m-.746.392a.271.271 0 1 1 .001.543.271.271 0 0 1-.001-.543m-.201-.392a.271.271 0 0 1-.543 0c0-.151.121-.271.271-.271s.272.12.272.271m-.475-.665a.273.273 0 0 1-.271.272.272.272 0 0 1 0-.544.272.272 0 0 1 .271.272m-.271 1.057c.148 0 .271.121.271.271a.273.273 0 0 1-.271.271.272.272 0 0 1-.271-.271.27.27 0 0 1 .271-.271m-.203-.392a.271.271 0 0 1-.543 0c0-.151.121-.271.271-.271s.272.12.272.271m-.476-.665a.271.271 0 1 1-.543.001.271.271 0 0 1 .543-.001m-.27 1.057a.27.27 0 1 1 0 .542.27.27 0 1 1 0-.542m-.204-.392c0 .15-.121.27-.271.27s-.271-.119-.271-.27.121-.271.271-.271.271.12.271.271m-.484-.665a.271.271 0 1 1-.271-.272.27.27 0 0 1 .271.272m-.271 1.057a.271.271 0 1 1 0 .542.271.271 0 0 1 0-.542m-.203-.392c0 .15-.121.27-.271.27s-.27-.119-.27-.27.119-.271.27-.271.271.12.271.271m29.808-1.221s0-2.006-2.006-2.006h-3.352v-.247s0-.354-.354-.354h-8.13s-.354 0-.354.354v.247h-31.612s-2.006 0-2.006 2.006v11.743h-.128s-.502 0-.474.501l.531 9.105.07-.006v.012l-.07-.006-.531 9.105c-.028.5.474.5.474.5h.128v54.664s0 2.006 2.006 2.006h43.803s2.006 0 2.006-2.006v-85.618z"/>
  <defs>
    <path id="i" d="M200.431 503.275h44.234v77.449h-44.234z"/>
  </defs>
  <use xlink:href="#i" overflow="visible" fill="#C8FAFF"/>
  <clipPath id="j">
    <use xlink:href="#i" overflow="visible"/>
  </clipPath>
  <path clip-path="url(#j)" fill="#FFF" d="M214.323 592.857h-12.594l29.042-100.613h12.591z"/>
  <path fill="#F8D5AC" d="M264.703 546.669a5.023 5.023 0 0 1-5.769 4.141l-26.588-4.459a5.022 5.022 0 0 1 1.629-9.911l26.588 4.458a5.025 5.025 0 0 1 4.14 5.771z"/>
  <use xlink:href="#k" width="37.665" height="217.175" x="-18.833" y="-108.588" transform="matrix(1.4435 0 0 -1.4435 410.696 867.93)" overflow="visible"/>
  <use xlink:href="#l" width="37.665" height="217.175" x="-18.833" y="-108.588" transform="matrix(1.4435 0 0 -1.4435 356.326 867.93)" overflow="visible"/>
  <use xlink:href="#m" width="19.166" height="176.717" x="-9.583" y="-88.358" transform="matrix(1.4435 0 0 -1.4435 433.371 678.423)" overflow="visible"/>
  <path fill="#636363" d="M383.51 744.414c28.782 0 52.119-23.334 52.119-52.116H331.396c0 28.782 23.332 52.116 52.114 52.116z"/>
  <path fill="#00A55B" d="M383.51 534.219c-28.782 0-52.114 23.334-52.114 52.116v105.963h104.233V586.335c0-28.782-23.337-52.116-52.119-52.116z"/>
  <path fill="#DF0024" d="M364.542 585.297h37.939v37.939h-37.939z"/>
  <use xlink:href="#n" width="91.488" height="140.188" x="-45.744" y="-77.459" transform="matrix(1.4435 0 0 -1.4435 383.51 455.445)" overflow="visible"/>
  <use xlink:href="#k" width="37.665" height="217.175" x="-18.833" y="-108.588" transform="matrix(1.4435 0 0 -1.4435 583.267 867.93)" overflow="visible"/>
  <use xlink:href="#l" width="37.665" height="217.175" x="-18.833" y="-108.588" transform="matrix(1.4435 0 0 -1.4435 528.9 867.93)" overflow="visible"/>
  <path fill="#B7062B" d="M627.813 658.978c-7.443 1.727-14.875-2.908-16.6-10.349l-18.742-80.792c-1.727-7.439 2.906-14.872 10.348-16.6 7.445-1.726 14.875 2.906 16.6 10.35l18.744 80.79c1.727 7.44-2.908 14.874-10.35 16.601z"/>
  <path fill="#B7062B" d="M656.075 553.966c7.227 2.48 11.076 10.346 8.6 17.572l-26.904 78.452c-2.479 7.226-10.342 11.073-17.57 8.597-7.229-2.48-11.076-10.344-8.596-17.573l26.9-78.45c2.474-7.224 10.345-11.076 17.57-8.598z"/>
  <path fill="#F8D5AC" d="M716.218 547.885c.002 7.642-6.191 13.833-13.83 13.833l-33.887.004c-7.637 0-13.832-6.191-13.834-13.832-.002-7.643 6.195-13.834 13.832-13.834l33.887-.003c7.638 0 13.832 6.192 13.832 13.832z"/>
  <path fill="#ACACAC" d="M769.616 627.158h-80.088c-4.742 0-8.623-3.881-8.623-8.622V446.258c0-4.743 3.881-8.624 8.623-8.624h80.088v189.524z"/>
  <path fill="#F5F5F5" d="M769.616 609.913h-80.088c-4.742 0-8.623 3.881-8.623 8.623V446.258c0-4.743 3.881-8.624 8.623-8.624h80.088v172.279z"/>
  <path fill="#003A62" d="M769.616 482.563h-80.088c-4.742 0-8.623 3.881-8.623 8.623v-32.082c0-4.743 3.881-8.624 8.623-8.624h80.088v32.083z"/>
  <text transform="translate(692.05 471.783)" fill="#FFF" font-family="'ProjectSans-Heavy'" font-size="15.52">
    opignons
  </text>
  <path fill="#003A62" d="M692.05 491.187h69.599v6.656H692.05z"/>
  <path fill="#636363" d="M692.05 501.881h69.599v1.665H692.05zm0 2.792h69.599v1.664H692.05zm0 2.791h69.599v1.664H692.05zm0 2.791h69.599v1.664H692.05zm0 2.792h69.599v1.664H692.05zm0 2.792h69.599v1.663H692.05zm0 2.791h69.599v1.663H692.05zm0 2.791h69.599v1.664H692.05zm0 2.792h69.599v1.663H692.05zm46.238 5.287h23.36v1.664h-23.36zm-46.272 10.283h69.633v54.035h-69.633z"/>
  <path fill="#F5F5F5" d="M769.616 607.375h-44.355v2.587h38.75c1.664 0 3.018 1.354 3.018 3.018s-1.354 3.019-3.018 3.019H692.05v2.587h71.961a5.612 5.612 0 0 0 5.605-5.605v-5.606z"/>
  <path fill="#F8D5AC" d="M705.492 539.058a5.02 5.02 0 0 1-5.005 5.037l-26.959.004a5.024 5.024 0 0 1-5.039-5.006 5.025 5.025 0 0 1 5.008-5.038l26.957-.002a5.022 5.022 0 0 1 5.038 5.005z"/>
  <use xlink:href="#o" width="19.167" height="176.717" x="-9.583" y="-88.358" transform="rotate(180 253.112 339.211) scale(1.4435)" overflow="visible"/>
  <path fill="#636363" d="M556.083 744.414c28.783 0 52.117-23.334 52.117-52.116H503.97c0 28.782 23.332 52.116 52.113 52.116z"/>
  <path fill="#B7062B" d="M556.083 534.219c-28.781 0-52.113 23.334-52.113 52.116v105.963H608.2V586.335c0-28.782-23.334-52.116-52.117-52.116z"/>
  <ellipse fill="#436EB3" cx="556.085" cy="604.257" rx="18.969" ry="18.979"/>
  <use xlink:href="#p" width="93.62" height="145.516" x="-46.81" y="-79.646" transform="matrix(1.4435 0 0 -1.4435 556.085 444.403)" overflow="visible"/>
</svg>
