<svg xmlns="http://www.w3.org/2000/svg" xmlns:xlink="http://www.w3.org/1999/xlink" width="1413.592" height="1004.105"><symbol id="e" viewBox="-27.848 -8.527 55.693 22.585"><path d="M9.922-2.857a5.67 5.67 0 1 1 11.336 0 5.67 5.67 0 0 1-11.336 0z"/><path fill="none" stroke="#000" stroke-width="2" stroke-linecap="round" stroke-miterlimit="10" d="M26.846 8.394c-2.88 2.882-6.859 4.664-11.253 4.664s-8.372-1.78-11.253-4.66"/><g fill="none" stroke="#000" stroke-width="1.5" stroke-linecap="round" stroke-miterlimit="10"><path d="M21.26-2.857h2.734M20.918-.919l2.57.936M19.934.786l2.093 1.759M18.424 2.052l1.367 2.368"/></g><g><path d="M-9.924-2.857a5.67 5.67 0 1 0-11.336 0 5.67 5.67 0 0 0 11.336 0z"/><path fill="none" stroke="#000" stroke-width="2" stroke-linecap="round" stroke-miterlimit="10" d="M-26.848 8.394c2.88 2.882 6.859 4.664 11.253 4.664s8.372-1.78 11.253-4.66"/><g fill="none" stroke="#000" stroke-width="1.5" stroke-linecap="round" stroke-miterlimit="10"><path d="M-21.262-2.857h-2.734M-20.92-.919l-2.57.936M-19.936.786l-2.093 1.759M-18.426 2.052l-1.367 2.368"/></g></g></symbol><symbol id="C" viewBox="-57.112 -79.037 114.226 143.911"><path fill="#D15623" d="M57.113 9.247c0-29.422-23.852-53.272-53.273-53.272-29.419 0-53.271 23.85-53.271 53.272S-25.579 62.519 3.84 62.519c29.422 0 53.273-23.851 53.273-53.272z"/><path fill="#D15623" d="M33.961 9.888c0-25.149-20.389-45.537-45.537-45.537-25.147 0-45.536 20.387-45.536 45.537s20.389 45.537 45.536 45.537c25.148-.001 45.537-20.388 45.537-45.537z"/><use xlink:href="#a" width="110.592" height="135.633" x="-55.296" y="-74.897" transform="translate(-.353 -4.14)" overflow="visible"/><path fill="#D15623" d="M55.223 20.119c0-9.524-7.721-17.245-17.245-17.245-9.523 0-17.245 7.721-17.245 17.245s7.722 17.245 17.245 17.245c9.524 0 17.245-7.721 17.245-17.245z"/><path fill="#D15623" d="M40.822 37.364c0-10.174-8.247-18.422-18.422-18.422-10.173 0-18.423 8.248-18.423 18.422 0 10.174 8.25 18.422 18.423 18.422 10.175 0 18.422-8.248 18.422-18.422z"/><path fill="#D15623" d="M22.399 42.121c0-12.566-10.187-22.753-22.753-22.753-12.565 0-22.754 10.187-22.754 22.753S-12.92 64.874-.354 64.874c12.567.001 22.753-10.186 22.753-22.753zM-32.617 12.326c0-6.36-5.156-11.516-11.516-11.516S-55.65 5.966-55.65 12.326c0 6.361 5.156 11.517 11.517 11.517 6.36 0 11.516-5.156 11.516-11.517z"/><path fill="#D15623" d="M-15.367 27.567c0-8.417-6.823-15.241-15.24-15.241s-15.241 6.823-15.241 15.241 6.824 15.241 15.241 15.241 15.24-6.824 15.24-15.241z"/><path fill="#D15623" d="M-2.355 37.364c0-8.417-6.823-15.241-15.24-15.241s-15.241 6.823-15.241 15.241 6.824 15.241 15.241 15.241 15.24-6.824 15.24-15.241z"/></symbol><symbol id="w" viewBox="-55.296 -80.124 110.592 145.518"><path fill="#F6F5F5" d="M54.272 10.393c0-29.869-24.212-54.082-54.081-54.082S-53.89-19.476-53.89 10.393c0 26.442 18.976 48.452 44.053 53.153 3.25.609 10.028-.821 10.028-.821s7.82 1.323 11.538.515c24.325-5.285 42.543-26.939 42.543-52.847z"/><use xlink:href="#b" width="110.592" height="136.189" x="-55.296" y="-75.46" transform="translate(0 -4.664)" overflow="visible"/><path fill="#F6F5F5" d="M-8.696 39.883c-.127.313-.244.632-.351.958-.81 3.402-.418 6.739 1.301 9.142 1.611 2.414 4.082 3.824 6.968 4.023s5.646-.719 7.725-2.07c1.979-1.398 3.698-3.143 4.176-5.382.074-.213.138-.428.188-.644l.496-2.167.258-1.154.45-1.311.504-1.506c.174-.535.345-1.106.627-1.652l.795-1.757c.287-.603.515-1.274.905-1.869l1.1-1.91c.188-.33.376-.664.566-1 .205-.327.448-.631.673-.954.921-1.274 1.816-2.666 2.973-3.875.556-.624 1.089-1.291 1.674-1.91l1.864-1.763.936-.897c.321-.287.675-.531 1.01-.8l2.031-1.59c.664-.55 1.423-.929 2.121-1.403.717-.441 1.405-.928 2.123-1.329l2.166-1.091c.717-.341 1.392-.769 2.113-1.001 1.423-.516 2.753-1.127 4.035-1.507l3.539-.979c1.068-.246 2.021-.355 2.801-.504l1.82-.315c.211-.044.373-.054.483-.058l.166-.01c2.377-.151 4.471-2.373 4.715-5.114.244-2.74-1.904-5.059-4.919-5.332l-.204-.019a4.07 4.07 0 0 0-.596-.026l-2.267.006c-.978.021-2.177-.021-3.543.064l-4.594.489c-1.684.218-3.469.674-5.395 1.058-.974.166-1.909.532-2.9.82l-3.02.956c-1.012.364-2.003.823-3.031 1.248-1.01.458-2.089.832-3.079 1.386l-3.024 1.643c-.504.284-1.025.545-1.518.854l-1.446.97-2.896 1.967c-.93.7-1.807 1.46-2.704 2.191-1.84 1.42-3.411 3.074-4.979 4.65-.387.398-.789.78-1.152 1.187l-1.036 1.248-1.997 2.438c-.681.776-1.187 1.637-1.741 2.431l-1.561 2.337c-.524.739-.924 1.504-1.313 2.23l-1.108 2.066-.967 1.83-.685 1.615-1.276 3.092z"/><path fill="#F6F5F5" d="M-10.207 50.1c.065.142.138.28.219.417.637 1.475 2.059 2.438 3.612 3.128 1.615.643 3.64.895 5.598.361 1.958-.534 3.463-1.844 4.239-3.726.852-1.889.661-4.238-.363-6.466a10.32 10.32 0 0 0-.372-.61l-1.303-1.952-.693-1.017-.917-1.126c-.677-.784-1.352-1.733-2.256-2.622-.91-.882-1.825-1.898-2.927-2.825l-1.71-1.402-.884-.716c-.306-.23-.635-.437-.956-.658-1.295-.869-2.604-1.791-4.063-2.514-.718-.378-1.426-.781-2.161-1.135l-2.263-.955-1.129-.468c-.38-.145-.775-.253-1.161-.379l-2.306-.714c-1.542-.407-3.089-.696-4.565-.972-1.507-.147-2.941-.373-4.315-.407-1.378.001-2.668-.067-3.856.015l-3.227.295c-.951.129-1.771.323-2.445.443l-1.561.308c-.18.03-.314.071-.405.1l-.138.041c-2.036.602-3.195 2.492-2.65 4.344.545 1.851 2.29 3.092 3.946 2.869l.115-.016c.076-.012.189-.028.341-.026l1.296-.034c.557-.005 1.227-.061 1.995-.038l2.569.187c.934.085 1.933.323 2.982.482 1.047.195 2.119.571 3.23.85 1.083.407 2.202.807 3.295 1.295l1.615.814c.268.139.544.258.805.411l.767.488c4.145 2.507 7.449 5.99 9.325 8.893.519.689.842 1.431 1.212 2.017l.49.839.336.758.639 1.423z"/><path fill="#F6F5F5" d="M-25.812 40.091c.027.151.063.301.105.451.242 1.559 1.356 2.827 2.664 3.865 1.377 1.01 3.241 1.75 5.233 1.725 1.993-.025 3.749-.899 4.952-2.498 1.274-1.585 1.673-3.866 1.248-6.238a9.855 9.855 0 0 0-.203-.672l-.757-2.179a18.19 18.19 0 0 0-1.004-2.434c-.448-.913-.855-1.981-1.497-3.05-2.329-4.388-6.515-9.604-11.712-13.397-1.236-1.019-2.671-1.772-3.984-2.618-1.367-.768-2.766-1.424-4.103-2.05-1.396-.513-2.704-1.081-4.001-1.452-1.312-.339-2.523-.723-3.672-.938l-3.144-.516c-.936-.112-1.762-.129-2.433-.181l-1.56-.094c-.359-.026-.552 0-.552 0-2.086.07-3.653 1.582-3.593 3.477.063 1.896 1.415 3.505 3.045 3.701 0 0 .156 0 .446.073l1.239.287c.529.133 1.183.245 1.906.457.715.242 1.52.513 2.396.811 3.458 1.288 7.749 3.779 11.001 7.261 3.324 3.407 5.604 7.534 6.673 10.758.324.784.448 1.568.656 2.217.203.652.334 1.232.391 1.724.169.961.26 1.51.26 1.51z"/><path fill="#F6F5F5" d="M-49.666 11.062c-.179 2.194.989 5.077 1.316 7.339.34 2.355.639 4.823.747 7.218.2 4.425 1.361 8.788 4.987 11.625 3.847 3.009 7.563 9.354 11.568 12.33 4.113 3.055 31.068 9.03 34.417 9.11 2.434.058 14.946-1.681 22.963-6.101 1.954-1.078 3.784-4.015 5.513-5.389 4.057-3.223 8.022-5 10.524-9.646 1.738-3.226 1.164-7.027 2.824-10.238 1.494-2.892 2.991-5.325 3.599-8.504.607-3.175 1.415-9.931 1.234-13.213-1.866-.909-14.682-.643-17.594.16-1.107.305-18.97 9.733-20.867 12.5C9.663 21.028-2.611 36.457-5.159 36.479c-2.801.025-4.111-1.572-6.399-3.227-1.782-1.29-12.114-4.624-13.79-5.852-1.771-1.299-5.19-4.119-7.722-7.095-1.141-1.342-9.554-8.898-10.803-9.618-1.436-.828-3.753-.834-5.392-.728.002.901-.329.222-.401 1.103z"/><path fill="#F6F5F5" d="M-12.944 39.905a3.027 3.027 0 0 0 0 .33c-.083 1.124.489 2.184 1.23 3.117.796.924 1.974 1.736 3.364 2.04 1.391.303 2.75-.023 3.843-.941 1.144-.898 1.786-2.421 1.872-4.138a9.119 9.119 0 0 0-.034-.5l-.177-1.637a12.654 12.654 0 0 0-.307-1.855c-.166-.706-.276-1.515-.553-2.361-.915-3.426-2.988-7.725-5.992-11.197-.699-.908-1.576-1.662-2.354-2.46-.827-.753-1.693-1.434-2.522-2.084-.889-.58-1.708-1.186-2.551-1.653-.856-.446-1.637-.907-2.403-1.242l-2.102-.862c-.633-.229-1.204-.374-1.662-.517l-1.071-.315c-.243-.076-.383-.089-.383-.089-1.462-.285-2.796.514-3.058 1.842-.261 1.328.422 2.666 1.524 3.063 0 0 .109.026.297.122.188.092.466.227.816.4.348.177.783.359 1.254.623l1.536.949c2.197 1.45 4.781 3.872 6.485 6.815 1.764 2.902 2.688 6.139 2.913 8.552.1.598.061 1.163.1 1.647.037.486.035.911-.005 1.261-.037.694-.06 1.09-.06 1.09zM-4.606 58.517a2.5 2.5 0 0 1 .122-.109c.386-.402.965-.541 1.554-.578a3.117 3.117 0 0 1 1.862.563c.57.41.901 1.018.924 1.723.05.718-.299 1.457-.902 2.057a2.707 2.707 0 0 1-.194.153l-.661.476a6.35 6.35 0 0 1-.782.501c-.315.172-.65.399-1.051.579-1.563.796-3.829 1.456-6.102 1.499-.563.043-1.131-.03-1.682-.051a21.25 21.25 0 0 1-1.6-.238c-.508-.135-1.002-.236-1.451-.392-.448-.167-.876-.302-1.252-.472-.371-.18-.711-.342-1.013-.488-.295-.158-.535-.319-.741-.44l-.469-.289c-.108-.065-.159-.111-.159-.111-.588-.443-.734-1.198-.334-1.733.401-.535 1.119-.727 1.63-.454 0 0 .047.033.145.071l.415.167c.181.07.392.169.646.255l.856.251c1.258.328 3.004.478 4.651.13 1.649-.311 3.145-1.042 4.106-1.757.253-.161.449-.362.64-.507.19-.147.345-.288.463-.418l.379-.388z"/></symbol><symbol id="A" viewBox="-55.861 -81.316 111.723 146.69"><use xlink:href="#c" width="110.592" height="37.518" x="-55.296" y="-18.759" transform="translate(0 -4.625)" overflow="visible"/><path fill="#843022" d="M42.665-65.361h-85.33v79.495h85.33z"/><path fill="#E1A183" d="M0-81.316c-7.83 0-14.178 6.348-14.178 14.178v27.348c0 7.83 6.348 14.178 14.178 14.178S14.178-31.96 14.178-39.79v-27.348c0-7.831-6.348-14.178-14.178-14.178z"/><path fill="#FBD3AD" d="M48.468-4.626c0-33.543-27.021-60.735-48.468-60.735S-48.468-38.169-48.468-4.626-26.768 56.109 0 56.109 48.468 28.917 48.468-4.626z"/><use xlink:href="#d" width="18.697" height="27.003" x="-9.349" y="-13.502" transform="translate(0 -22.383)" overflow="visible"/><use xlink:href="#e" width="55.693" height="22.585" x="-27.848" y="-8.527" transform="translate(0 -4.625)" overflow="visible"/><use xlink:href="#f" width="34.486" height="17.596" x="-17.243" y="-8.798" transform="translate(0 -51.672)" overflow="visible"/><path fill="#D0522C" d="M0 65.374c-30.851 0-55.861-31.34-55.861-70v-60.748h15.535V.497c0 14.191 30.978 17.318 40.326 27.885C10.153 18.23 40.326 11.902 40.326.497v-65.871h15.535v60.748c0 38.66-25.01 70-55.861 70z"/></symbol><symbol id="s" viewBox="-16.459 -8.229 32.918 16.459"><path fill="#6D222C" d="M0 3.181c4.975 0 9.424-2.217 12.441-5.705A16.378 16.378 0 0 1 16.459 8.23h-32.918c0-4.115 1.521-7.868 4.018-10.754C-9.424.964-4.975 3.181 0 3.181z"/><path fill="#AD192B" d="M0-8.229c4.975 0 9.424 2.217 12.441 5.705C9.424.964 4.975 3.181 0 3.181S-9.424.964-12.441-2.524C-9.424-6.013-4.975-8.229 0-8.229z"/><path fill="#FFF" d="M14.287 4.392h-28.574v3.837h28.574z"/></symbol><symbol id="f" viewBox="-17.243 -8.798 34.486 17.596"><path fill="#E1A183" d="M-17.183 8.798c-.027-.377-.061-.753-.061-1.137 0-9.09 7.72-16.459 17.243-16.459S17.243-1.429 17.243 7.661c0 .384-.033.76-.061 1.137h-34.365z"/><path fill="#6D222C" d="M-12.441-3.093C-9.424.396-4.975 2.612 0 2.612S9.424.395 12.441-3.093a16.44 16.44 0 0 1 3.548 6.917H-15.99a16.448 16.448 0 0 1 3.549-6.917z"/><path fill="#AD192B" d="M0 2.612c-4.975 0-9.424-2.217-12.441-5.705C-9.424-6.581-4.975-8.798 0-8.798s9.424 2.217 12.441 5.705C9.424.396 4.975 2.612 0 2.612z"/><path fill="#FFF" d="M-16.459 7.661c0-1.324.173-2.605.47-3.837H15.99c.297 1.232.47 2.513.47 3.837h-32.919z"/></symbol><symbol id="i" viewBox="-9.583 -88.358 19.167 176.717"><path fill="#B7062B" d="M0 11.737c-5.293 0-9.583 4.291-9.583 9.583v57.455c0 5.293 4.29 9.583 9.583 9.583s9.583-4.29 9.583-9.583V21.32c0-5.292-4.29-9.583-9.583-9.583z"/><path fill="#B7062B" d="M0-45.718c-5.293 0-9.583 4.291-9.583 9.583V21.32c0 5.292 4.29 9.582 9.583 9.582s9.583-4.289 9.583-9.583l.001-57.454c0-5.292-4.291-9.583-9.584-9.583z"/><path fill="#F8D5AC" d="M0-88.358c-5.293 0-9.583 4.291-9.583 9.583V-55.3c0 5.292 4.29 9.582 9.583 9.583 5.293-.001 9.583-4.292 9.584-9.583l-.001-23.476c.001-5.291-4.29-9.582-9.583-9.582z"/></symbol><symbol id="x" viewBox="-9.583 -88.358 19.166 176.717"><path fill="#00A55B" d="M0 11.737c-5.293 0-9.583 4.291-9.583 9.583v57.455c0 5.293 4.29 9.583 9.583 9.583s9.583-4.29 9.583-9.583V21.32c0-5.292-4.29-9.583-9.583-9.583z"/><path fill="#00A55B" d="M0-45.718c-5.293 0-9.583 4.291-9.583 9.583V21.32c0 5.293 4.29 9.583 9.583 9.583s9.583-4.29 9.583-9.583v-57.455c0-5.292-4.29-9.583-9.583-9.583z"/><path fill="#F8D5AC" d="M0-88.358c-5.293 0-9.583 4.291-9.583 9.583V-55.3c0 5.292 4.29 9.583 9.583 9.583s9.583-4.291 9.583-9.583v-23.476c0-5.291-4.29-9.582-9.583-9.582z"/></symbol><symbol id="l" viewBox="-22.765 -85.833 45.53 171.666"><path fill="#436EB3" d="M-14.201 15.057c-4.832 2.161-6.995 7.83-4.834 12.661L4.433 80.162c2.162 4.831 7.831 6.995 12.661 4.832 4.832-2.16 6.995-7.829 4.834-12.66L-1.54 19.89c-2.161-4.83-7.83-6.994-12.661-4.833z"/><path fill="#436EB3" d="M-12.225-43.206c-5.291.153-9.455 4.566-9.303 9.855l1.661 57.432c.153 5.29 4.566 9.455 9.857 9.302 5.29-.152 9.453-4.565 9.301-9.856L-2.37-33.904c-.152-5.289-4.564-9.454-9.855-9.302z"/><path fill="#F8D5AC" d="M-13.457-85.829a9.584 9.584 0 0 0-9.304 9.856l.68 23.467c.153 5.288 4.565 9.453 9.855 9.301 5.291-.152 9.455-4.566 9.303-9.855l-.679-23.466c-.153-5.291-4.566-9.455-9.855-9.303z"/></symbol><symbol id="m" viewBox="-9.583 -88.358 19.166 176.717"><path fill="#436EB3" d="M0 11.737c-5.293 0-9.583 4.291-9.583 9.583v57.455c0 5.293 4.29 9.583 9.583 9.583s9.583-4.29 9.583-9.583V21.32c0-5.292-4.29-9.583-9.583-9.583z"/><path fill="#436EB3" d="M0-45.718c-5.293 0-9.583 4.291-9.583 9.583V21.32c0 5.293 4.29 9.583 9.583 9.583s9.583-4.29 9.583-9.583v-57.455c0-5.292-4.29-9.583-9.583-9.583z"/><path fill="#F8D5AC" d="M0-88.358c-5.293 0-9.583 4.291-9.583 9.583V-55.3c0 5.292 4.29 9.583 9.583 9.583s9.583-4.291 9.583-9.583v-23.476c0-5.291-4.29-9.582-9.583-9.582z"/></symbol><symbol id="n" viewBox="-18.833 -11.871 37.665 23.741"><path d="M0 11.87c-10.401 0-18.833-8.431-18.833-18.832h37.665C18.833 3.439 10.401 11.87 0 11.87z"/><path fill="#464646" d="M18.833-11.871h-37.666v4.909h37.666z"/><path fill="#959595" d="M9.25 2.454a3.335 3.335 0 1 0-6.672 0 3.336 3.336 0 1 0 6.672 0z"/></symbol><symbol id="B" viewBox="-44.141 -169.465 88.252 339.773"><use xlink:href="#g" width="37.665" height="217.175" x="-18.833" y="-108.588" transform="translate(18.816 -60.877)" overflow="visible"/><use xlink:href="#h" width="37.665" height="217.175" x="-18.833" y="-108.588" transform="translate(-18.848 -60.877)" overflow="visible"/><use xlink:href="#i" width="19.167" height="176.717" x="-9.583" y="-88.358" transform="translate(34.527 70.408)" overflow="visible"/><use xlink:href="#i" width="19.167" height="176.717" x="-9.583" y="-88.358" transform="matrix(-1 0 0 1 -34.557 70.408)" overflow="visible"/><path fill="#436EB3" d="M-.016 24.691c19.939 0 36.105 16.165 36.105 36.104H-36.12c.001-19.939 16.165-36.104 36.104-36.104z"/><path fill="#B7062B" d="M-.016 170.309c-19.939 0-36.104-16.165-36.104-36.104V60.796h72.21v73.408c0 19.94-16.166 36.105-36.106 36.105z"/></symbol><symbol id="v" viewBox="-66.967 -169.465 111.076 339.773"><use xlink:href="#j" width="37.665" height="217.175" x="-18.833" y="-108.588" transform="translate(18.817 -60.877)" overflow="visible"/><use xlink:href="#k" width="37.665" height="217.175" x="-18.833" y="-108.588" transform="translate(-18.848 -60.877)" overflow="visible"/><use xlink:href="#l" width="45.53" height="171.666" x="-22.765" y="-85.833" transform="translate(-44.202 70.408)" overflow="visible"/><path fill="#AF9A71" d="M-.016 24.691c19.939 0 36.105 16.165 36.105 36.104H-36.12c.001-19.939 16.165-36.104 36.104-36.104z"/><path fill="#436EB3" d="M-.016 170.309c-19.939 0-36.104-16.165-36.104-36.104V60.796h72.21v73.408c0 19.94-16.166 36.105-36.106 36.105z"/><use xlink:href="#m" width="19.166" height="176.717" x="-9.583" y="-88.358" transform="translate(34.526 67.883)" overflow="visible"/></symbol><symbol id="z" viewBox="-18.833 -108.588 37.665 217.175"><path fill="#FBD3AD" d="M3.121-108.588a9 9 0 0 0-9 9V99.587c0 4.971 4.029 9 9 9s9-4.029 9-9V-99.588a9 9 0 0 0-9-9z"/><use xlink:href="#n" width="37.665" height="23.741" x="-18.833" y="-11.871" transform="translate(0 -96.717)" overflow="visible"/></symbol><symbol id="h" viewBox="-18.833 -108.588 37.665 217.175"><path fill="#436EB3" d="M3.121-108.588c-8.238 0-14.915 6.678-14.915 14.914V93.672c0 8.237 6.677 14.915 14.915 14.915s14.916-6.678 14.916-14.915V-93.674c0-8.236-6.678-14.914-14.916-14.914z"/><use xlink:href="#n" width="37.665" height="23.741" x="-18.833" y="-11.871" transform="translate(0 -96.717)" overflow="visible"/></symbol><symbol id="k" viewBox="-18.833 -108.588 37.665 217.175"><path fill="#AF9A71" d="M3.121-108.588c-8.238 0-14.915 6.678-14.915 14.914V93.672c0 8.237 6.677 14.915 14.915 14.915s14.916-6.678 14.916-14.915V-93.674c0-8.236-6.678-14.914-14.916-14.914z"/><use xlink:href="#n" width="37.665" height="23.741" x="-18.833" y="-11.871" transform="translate(0 -96.717)" overflow="visible"/></symbol><symbol id="y" viewBox="-18.833 -108.588 37.665 217.175"><path fill="#FBD3AD" d="M-3.123-108.588a9 9 0 0 0-9 9V99.587c0 4.971 4.029 9 9 9s9-4.029 9-9V-99.588a9 9 0 0 0-9-9z"/><use xlink:href="#n" width="37.665" height="23.741" x="-18.833" y="-11.871" transform="translate(0 -96.717)" overflow="visible"/></symbol><symbol id="g" viewBox="-18.833 -108.588 37.665 217.175"><path fill="#436EB3" d="M-3.123-108.588c-8.238 0-14.915 6.678-14.915 14.914V93.672c0 8.237 6.677 14.915 14.915 14.915 8.24 0 14.918-6.678 14.918-14.915V-93.674c0-8.236-6.678-14.914-14.918-14.914z"/><use xlink:href="#n" width="37.665" height="23.741" x="-18.833" y="-11.871" transform="translate(0 -96.717)" overflow="visible"/></symbol><symbol id="j" viewBox="-18.833 -108.588 37.665 217.175"><path fill="#AF9A71" d="M-3.123-108.588c-8.238 0-14.915 6.678-14.915 14.914V93.672c0 8.237 6.677 14.915 14.915 14.915 8.24 0 14.918-6.678 14.918-14.915V-93.674c0-8.236-6.678-14.914-14.918-14.914z"/><use xlink:href="#n" width="37.665" height="23.741" x="-18.833" y="-11.871" transform="translate(0 -96.717)" overflow="visible"/></symbol><symbol id="o" viewBox="-11.898 -16.328 23.797 32.655"><path fill="#E2A183" d="M11.898-1.417c0-8.234-5.327-14.91-11.898-14.91s-11.898 6.676-11.898 14.91c0 8.235 5.327 14.91 11.898 14.91s11.898-6.676 11.898-14.91z"/><path fill="#FBD3AD" d="M11.898 1.417c0-8.235-5.327-14.91-11.898-14.91s-11.898 6.675-11.898 14.91c0 8.234 5.327 14.91 11.898 14.91s11.898-6.675 11.898-14.91z"/></symbol><symbol id="r" viewBox="-10.215 -18.12 20.43 36.24"><path fill="#E2A183" d="M10.215-1.162C10.215-10.528 5.642-18.12 0-18.12s-10.215 7.592-10.215 16.958c0 9.365 4.573 16.958 10.215 16.958S10.215 8.203 10.215-1.162z"/><path fill="#FBD3AD" d="M10.215 1.162c0-9.365-4.573-16.958-10.215-16.958S-10.215-8.203-10.215 1.162c0 9.366 4.573 16.958 10.215 16.958s10.215-7.592 10.215-16.958z"/></symbol><symbol id="d" viewBox="-9.349 -13.502 18.697 27.003"><path fill="#E2A183" d="M9.349-1.787c0-6.47-5.212-11.715-9.349-11.715S-9.349-8.256-9.349-1.787-5.163 9.928 0 9.928 9.349 4.683 9.349-1.787z"/><path fill="#FBD3AD" d="M9.349 1.787C9.349-4.683 4.137-9.928 0-9.928S-9.349-4.683-9.349 1.787-5.163 13.501 0 13.501 9.349 8.256 9.349 1.787z"/></symbol><symbol id="t" viewBox="-9.446 -16.954 18.892 33.908"><path fill="#E2A183" d="M9.445-1.835c0-8.35-6.485-15.119-9.445-15.119-2.961 0-9.446 6.769-9.446 15.119 0 10.539 4.229 15.119 9.446 15.119S9.445 8.703 9.445-1.835z"/><path fill="#FBD3AD" d="M9.445 1.835c0-8.35-6.485-15.119-9.445-15.119-2.961 0-9.446 6.769-9.446 15.119 0 10.539 4.229 15.119 9.446 15.119s9.445-4.581 9.445-15.119z"/></symbol><symbol id="u" viewBox="-10.733 -15.631 21.466 31.263"><path fill="#E2A183" d="M-.001-15.631c-5.928 0-10.732 4.806-10.732 10.733V.649c0 5.927 4.805 10.733 10.732 10.733 5.929 0 10.733-4.806 10.733-10.733v-5.547c0-5.928-4.804-10.733-10.733-10.733z"/><path fill="#FBD3AD" d="M-.001-11.381c-5.928 0-10.732 4.806-10.732 10.733v5.547c0 5.927 4.805 10.733 10.732 10.733 5.929 0 10.733-4.806 10.733-10.733V-.648c0-5.928-4.804-10.733-10.733-10.733z"/></symbol><symbol id="c" viewBox="-55.296 -18.759 110.592 37.518"><path fill="#FBD3AD" d="M40.326 18.759v-37.518c8.267 0 14.97 8.399 14.97 18.759s-6.703 18.759-14.97 18.759z"/><path fill="#E1A183" d="M42.665 16.137C48.516 14.707 52.957 8.015 52.957 0s-4.441-14.707-10.292-16.137v32.274z"/><g><path fill="#FBD3AD" d="M-40.326 18.759v-37.518c-8.267 0-14.97 8.399-14.97 18.759s6.703 18.759 14.97 18.759z"/><path fill="#E1A183" d="M-42.665 16.137C-48.516 14.707-52.957 8.015-52.957 0s4.441-14.707 10.292-16.137v32.274z"/></g></symbol><symbol id="q" viewBox="-45.744 -18.759 91.488 37.518"><path fill="#FBD3AD" d="M30.774 18.759v-37.518c8.267 0 14.97 8.399 14.97 18.759s-6.703 18.759-14.97 18.759z"/><path fill="#E1A183" d="M33.113 16.137C38.964 14.707 43.405 8.015 43.405 0s-4.441-14.707-10.292-16.137v32.274z"/><g><path fill="#FBD3AD" d="M-30.774 18.759v-37.518c-8.267 0-14.97 8.399-14.97 18.759s6.703 18.759 14.97 18.759z"/><path fill="#E1A183" d="M-33.113 16.137C-38.964 14.707-43.405 8.015-43.405 0s4.441-14.707 10.292-16.137v32.274z"/></g></symbol><symbol id="a" viewBox="-55.296 -74.897 110.592 135.633"><use xlink:href="#c" width="110.592" height="37.518" x="-55.296" y="-18.759" overflow="visible"/><path fill="#E1A183" d="M0-74.897c-7.83 0-14.178 6.347-14.178 14.177v27.348c0 7.83 6.348 14.177 14.178 14.177s14.178-6.347 14.178-14.177V-60.72c0-7.83-6.348-14.177-14.178-14.177z"/><path fill="#FBD3AD" d="M48.468 0c0-33.543-27.021-60.735-48.468-60.735S-48.468-33.543-48.468 0-26.768 60.735 0 60.735 48.468 33.543 48.468 0z"/><use xlink:href="#d" width="18.697" height="27.003" x="-9.349" y="-13.502" transform="translate(0 -17.757)" overflow="visible"/><use xlink:href="#p" width="54.07" height="21.443" x="-27.035" y="-8.527" overflow="visible"/><use xlink:href="#f" width="34.486" height="17.596" x="-17.243" y="-8.798" transform="translate(0 -47.046)" overflow="visible"/></symbol><symbol id="b" viewBox="-55.296 -75.46 110.592 136.189"><use xlink:href="#c" width="110.592" height="37.518" x="-55.296" y="-18.759" overflow="visible"/><path fill="#E1A183" d="M0-75.46c-7.83 0-14.178 6.347-14.178 14.177v27.348c0 7.83 6.348 14.177 14.178 14.177s14.178-6.347 14.178-14.177v-27.348C14.177-69.113 7.83-75.46 0-75.46z"/><path fill="#FBD3AD" d="M-.001-60.729c-26.653 0-48.258 21.606-48.258 48.258V12.47c0 26.652 21.604 48.259 48.258 48.259 26.654 0 48.259-21.606 48.259-48.259v-24.941c0-26.652-21.605-48.258-48.259-48.258z"/><use xlink:href="#u" width="21.466" height="31.263" x="-10.733" y="-15.631" transform="translate(0 -15.621)" overflow="visible"/><use xlink:href="#p" width="54.07" height="21.443" x="-27.035" y="-8.527" overflow="visible"/><use xlink:href="#f" width="34.486" height="17.596" x="-17.243" y="-8.798" transform="translate(0 -47.04)" overflow="visible"/></symbol><symbol id="p" viewBox="-27.035 -8.527 54.07 21.443"><path d="M-9.922-2.857a5.67 5.67 0 1 0-11.336 0 5.67 5.67 0 0 0 11.336 0zM9.922-2.857a5.67 5.67 0 1 1 11.336 0 5.67 5.67 0 0 1-11.336 0z"/><path fill="none" stroke="#000" stroke-width="2" stroke-linecap="round" stroke-miterlimit="10" d="M5.145 7.59a14.73 14.73 0 0 0 10.446 4.326c4.078 0 7.771-1.653 10.444-4.325M-5.145 7.59a14.73 14.73 0 0 1-10.446 4.326 14.728 14.728 0 0 1-10.444-4.325"/></symbol><g fill="#003A62"><path d="M884.859 542.862c20.699-9.225 41.176-19.574 61.426-29.25 4.051-1.801 8.551-.9 12.375-1.801-2.025 2.926-4.051 6.75-7.199 9-25.875 18.002-51.527 36.902-82.578 46.803-8.1 2.699-16.65 4.949-25.2 4.949-20.7 0-33.301-12.15-33.301-25.65 0-4.275 1.125-8.775 3.375-13.5 10.125-21.602 23.626-40.502 39.151-58.502 5.85-6.75 16.2-12.6 16.2-17.551 0-1.574-.9-3.6-2.7-5.4-5.176-5.176-7.426-12.15-7.426-19.801 0-17.551 13.951-41.4 33.301-41.4 11.701 0 19.576 11.926 19.576 21.826 0 6.75-3.15 7.875-6.301 11.25-1.35-2.475-2.924-5.625-2.924-8.551 0-.9.225-2.025.225-2.926 0-6.75-6.525-10.125-9.9-10.125-14.4 0-21.375 19.801-21.375 31.051 0 16.426 15.074 13.727 26.1 16.201 2.475.676 4.951 2.025 7.201 2.475-1.352 2.701-1.576 6.301-3.601 7.65-3.825 2.701-8.325 4.5-12.601 6.75-15.75 8.1-26.775 21.15-36.451 35.775-8.1 12.377-22.275 34.652-22.275 44.102 0 5.852 5.176 9.451 15.525 9.451.676 0 1.125-.225 1.575-.225l.899 1.799c12.151-4.499 24.753-8.999 36.903-14.4zm-6.076-182.929c0-3.15 3.375-4.5 6.301-5.625 17.325-6.975 33.976-13.951 51.301-20.475.451-.227 1.125-.227 1.801-.227 2.925 0 5.4 1.125 5.4 4.275 0 1.576-.451 3.6-1.125 4.051-13.051 12.375-35.552 19.125-54.678 26.775-4.274-3.149-9-4.274-9-8.774z"/><path d="M950.104 521.038c0-20.252 7.875-48.828 22.275-48.828 4.725 0 8.551 5.4 12.601 10.127 1.351-1.576 2.925-3.15 3.601-4.951 6.975-19.576 13.725-36.676 22.949-62.102 1.576-4.051 4.051-5.625 7.426-5.625 6.301 0 8.1 2.699 8.1 5.625 0 1.574-.449 3.375-.674 4.951-4.275 18.674-4.95 25.65-9.226 44.1-4.05 17.775-9.675 35.102-14.175 52.652-4.727 18.9-8.102 52.877-21.151 52.877-3.825 0-6.075-4.051-6.075-11.252 0-4.725.676-9.674 1.125-14.4 0-2.699-.449-4.949-.9-7.648-2.25 1.125-5.174 1.574-7.199 3.375-2.477 2.475-5.4 4.949-8.551 4.949-6.301 0-10.576-10.801-10.576-15.525 0-2.25.451-4.051.451-5.176v-3.149zm11.025 10.799c1.799 0 4.5-1.35 6.299-2.699 2.252-1.35 13.951-27.9 13.951-32.627 0-4.5-7.875-11.025-11.025-11.025-4.275 0-9.675 27.902-12.6 39.152 1.35 3.15 2.025 6.75 3.375 7.199zM1035.152 483.687c.675-3.6 2.475-6.301 6.075-6.301 4.274 0 5.399 2.25 5.399 3.826 0 1.574-.675 3.375-.675 4.949-2.251 13.951-4.5 28.352-6.3 42.301 0 2.475 1.8 5.176 2.699 8.102 2.025-1.801 4.726-2.926 5.85-5.176 9.002-15.301 17.777-31.275 26.327-46.576 1.575-3.15 3.15-5.85 6.075-5.85 5.174 0 8.324 4.273 8.324 8.1 0 .9-.225 1.799-.449 2.924-3.826 15.977-7.65 31.951-11.025 47.928-.449 1.574-.449 2.924-.449 4.5 0 5.4 2.475 9.9 2.475 12.824 0 3.602-5.851 7.65-9.676 7.65-6.975 0-9.451-16.426-11.925-23.4-10.124 4.5-13.501 13.275-20.251 13.275-3.825 0-7.2-2.699-8.775-8.1-.899-3.375-.676-7.426-1.801-11.25 2.477-16.426 5.177-33.301 8.102-49.726zM1132.125 504.161c-3.15-4.5-4.726-7.424-6.75-7.424-1.125 0-2.476.898-3.825 2.475-6.751 9.225-8.775 19.801-8.775 30.826 0 4.5 3.6 6.975 7.649 6.975 4.501 0 10.351-5.4 14.401-5.4 1.35 0 2.925 0 2.925 2.701 0 7.199-15.301 14.85-23.626 14.85-14.851 0-16.2-17.775-16.2-25.201 0-14.176 4.725-26.775 18.001-36.676 3.825-3.375 8.774-4.5 12.15-4.5 4.949 0 6.975 2.926 6.975 9v2.025c0 4.275-1.575 6.525-2.925 10.349zM1199.623 495.837c0 1.125-.227 2.699-.45 4.049-2.025 13.051-3.825 26.326-5.401 39.377-.899 8.1-2.025 17.326-7.424 17.326-2.025 0-3.825-1.576-5.851-4.275-6.3-7.426-2.251-14.176-6.075-14.176-1.35 0-9 6.75-16.65 6.75-6.75 0-11.025-5.625-11.025-12.6 0-16.201 9.225-32.852 21.825-42.303 4.501-3.375 11.251-4.949 16.651-7.648 9.673 1.125 14.4 5.625 14.4 13.5zm-20.251.449c-2.025 0-4.05.451-5.175 1.576-5.851 8.1-15.976 21.6-15.976 27.9 0 1.125 1.125 5.174 3.825 5.174 7.199 0 16.65-18.449 23.176-29.025-2.7-4.275-2.925-5.625-5.85-5.625zM1230.67 464.335c.451-2.699 1.576-5.4 1.576-8.549 0-4.051-2.025-6.076-6.076-6.076-2.925 0-6.525 1.35-9.899 1.35-2.251 0-4.95-2.023-5.401-4.725 0-4.5 6.977-5.176 11.701-6.301 11.7-2.023 15.75-6.75 15.75-17.775 0-2.023-.225-4.5-.225-6.75 0-8.775 3.375-19.801 13.95-19.801 4.501 0 4.95 3.826 4.95 7.426 0 4.725-1.125 12.375-1.125 17.102 0 3.824 1.125 5.398 4.051 5.398 4.95 0 13.275-6.75 20.25-6.75 1.351 0 2.926.451 4.275.676-1.125 1.35-1.575 3.375-2.925 4.275-10.801 7.424-28.577 15.975-30.826 26.1-3.376 15.301-6.075 54.451-9.45 69.979-.225 1.125-.451 2.023-.451 2.924 0 1.801.676 2.926 3.15 2.926.451 0 1.126 0 1.801-.225.9 0 4.049 2.924 4.049 3.824-3.599 9.676-3.599 21.15-12.824 27.9-2.025 1.801-5.399 3.6-7.425 3.6-5.625 0-7.65-10.125-7.65-13.049 0-2.025.225-4.051.225-5.852-.45 0-.899-.225-1.35-.225 3.374-17.775 6.524-59.627 9.899-77.402zM1268.019 514.286c2.026-11.25-.45-34.426 14.625-34.426 5.176 0 9.001 4.275 9.001 9.227v1.125c-4.501 19.801-9.451 39.826-14.4 59.4-1.125 4.275-6.074 6.75-9.226 8.326-2.025-2.926-5.401-6.75-5.401-10.125v-1.576s-.224-.449-.674-.449c2.249-10.576 4.049-20.701 6.075-31.502zm24.3-76.726c4.275 0 7.425 1.801 7.425 5.176 0-.9-4.274 11.926-9.9 11.926-1.35 0-5.625-4.727-6.975-5.852.225-8.1 3.826-11.25 9.45-11.25zM1326.519 484.136c2.926 0 6.751 2.025 6.751 5.85 0 1.352-.45 2.926-1.126 3.602-9 10.799-14.175 28.35-14.175 41.852 0 3.148 2.701 6.975 4.05 10.125 2.926-2.025 7.2-3.375 8.101-5.852 5.4-12.15 10.351-26.551 10.351-38.926 0-4.725-2.251-9.674-2.251-14.85 0-3.6 1.35-3.6 3.826-6.076 6.299 6.301 6.975 17.775 6.975 26.326 0 22.051-13.051 49.951-28.35 49.951-9.902 0-16.427-11.025-16.427-29.701.9-10.575 8.551-42.301 22.275-42.301zM1394.692 508.888c-7.2 12.824-16.649 37.35-27.677 37.35-5.174 0-6.749-4.5-6.749-8.775 0-12.15 1.575-24.975 2.476-37.125l1.35-11.25c.675-4.951 3.826-7.65 8.326-7.65 5.625 0 7.199 4.049 7.199 8.324 0 5.4-1.125 11.25-1.125 16.65 0 1.801.9 4.051 1.125 5.852 1.575-1.125 4.051-2.477 4.95-4.051l8.775-15.076c3.15-4.049 9.675-9 14.624-9 4.5 0 5.625 4.275 5.625 7.875 0 1.801-.224 3.602-.448 5.4-2.7 21.602-5.401 42.977-8.325 64.576-.227 2.025-1.801 4.051-3.15 5.852-.675-2.025-2.25-4.275-2.25-6.75.898-20.252 1.35-42.076 4.5-62.328-.675 0-.9-.449-1.575-.898-2.925 3.823-5.401 7.198-7.651 11.024z"/></g><path fill="#22546E" stroke="#BF7C00" stroke-width="7.871" stroke-miterlimit="10" d="M0 0h648.549v328.55H0z"/><path fill="none" d="M117.357 15.376h425.438v54.315H117.357z"/><text transform="translate(117.357 56.027)" fill="#FFF" font-family="'Chalkduster'" font-size="47.226">La Citoyenneté</text><use xlink:href="#v" width="111.076" height="339.773" x="-66.967" y="-169.465" transform="matrix(2.1775 0 0 -2.1775 180.635 635.095)" overflow="visible"/><use xlink:href="#w" width="110.592" height="145.518" x="-55.296" y="-80.124" transform="matrix(1.9158 0 0 -1.9158 180.736 146.554)" overflow="visible"/><path fill="#00A55B" d="M586.948 454.938c10.813-3.6 16.657-15.283 13.058-26.096l-39.082-117.379c-3.602-10.814-15.283-16.66-26.098-13.06-10.813 3.601-16.658 15.283-13.059 26.097l39.083 117.379c3.601 10.811 15.285 16.661 26.098 13.059z"/><path fill="#00A55B" d="M580.355 579.71c11.398.006 20.639-9.229 20.646-20.625l.062-123.713c.005-11.397-9.228-20.639-20.624-20.645-11.398-.006-20.639 9.226-20.645 20.623l-.063 123.715c-.005 11.396 9.228 20.639 20.624 20.645z"/><path fill="#F8D5AC" d="M580.31 671.524c11.396.008 20.639-9.228 20.644-20.623l.027-50.549c.006-11.395-9.227-20.639-20.623-20.645-11.398-.006-20.642 9.229-20.646 20.623l-.028 50.549c-.004 11.396 9.23 20.642 20.626 20.645z"/><use xlink:href="#x" width="19.166" height="176.717" x="-9.583" y="-88.358" transform="rotate(180 196.296 243.802) scale(2.1532)" overflow="visible"/><path fill="#00A55B" d="M523.177 508.298c11.843 0 21.532-9.688 21.532-21.531V350.235c0-42.936-34.809-77.74-77.744-77.74-42.932 0-77.738 34.805-77.738 77.74v158.066c0 .001 133.955.001 133.95-.003z"/><g><use xlink:href="#y" width="37.665" height="217.175" x="-18.833" y="-108.588" transform="matrix(2.1532 0 0 -2.1532 507.516 770.286)" overflow="visible"/><use xlink:href="#z" width="37.665" height="217.175" x="-18.833" y="-108.588" transform="matrix(2.1532 0 0 -2.1532 426.416 770.286)" overflow="visible"/><path fill="#636363" d="M544.709 795.122V551.364c0-11.844-9.689-21.533-21.532-21.533H410.759c-11.843 0-21.532 9.689-21.532 21.533v243.758h155.482zM413.225 508.298h107.487v21.533H413.225z"/></g><use xlink:href="#A" width="111.723" height="146.69" x="-55.861" y="-81.316" transform="matrix(1.8041 0 0 -1.8041 466.967 153.706)" overflow="visible"/><g><path fill="#19A59E" d="M360.577 687.1h-90.712v-80.8c0-14.875-3.416-56.564 44.742-56.564 48.159 0 45.97 41.689 45.97 56.564v80.8z"/><use xlink:href="#B" width="88.252" height="339.773" x="-44.141" y="-169.465" transform="matrix(1.3154 0 0 -1.3154 315.16 781.191)" overflow="visible"/><use xlink:href="#C" width="114.226" height="143.911" x="-57.112" y="-79.037" transform="matrix(1.5227 0 0 -1.5227 315.142 467.804)" overflow="visible"/><path fill="none" stroke="#19A59F" stroke-width="11.02" stroke-miterlimit="10" d="M286.125 562.721c0 67.821-7.871 121.913-19.543 121.913M343.09 562.721c0 67.821 7.871 121.913 19.544 121.913"/></g><g><path fill="#5B3715" d="M67.708 633.279s-1.571 5.78-3.055 15.896c-1.509 10.115-2.924 24.565-3.234 41.906l-1.023 59.247c-.216 10.838-.312 22.037-.442 33.417l-.383 34.501c-.138 11.56-.139 23.12-.214 34.5-.038 11.38-.16 22.579-.125 33.417l.027 31.249c.002 9.935.111 19.327.154 27.998l.083 12.44.138 11.222.249 18.244.309 15.896a3.938 3.938 0 0 1-7.872.153v-.152l.309-15.896.249-18.244.138-11.222.083-12.44c.043-8.671.152-18.063.154-27.998l.027-31.249c.035-10.838-.087-22.037-.125-33.417-.075-11.38-.077-22.94-.214-34.5l-.383-34.501c-.13-11.38-.226-22.579-.442-33.417l-1.023-59.247c-.31-17.341-1.725-31.791-3.234-41.906-1.484-10.115-3.055-15.896-3.055-15.896-1.719-6.324 2.015-12.845 8.34-14.563 6.324-1.719 12.845 2.015 14.563 8.34.57 2.096.526 4.263.001 6.222z"/></g><g><path fill="none" stroke="#B7062B" stroke-width="2.618" stroke-miterlimit="10" d="M521.047 416.278c0-1.635 8.539-2.959 19.07-2.959 10.534 0 19.072 1.324 19.072 2.959"/><path fill="#F4B937" d="M521.047 416.278h38.143v129.426h-38.143z"/><path fill="none" stroke="#B7062B" stroke-width="2.618" stroke-miterlimit="10" d="M521.047 416.278v133.355M559.189 416.278v133.355"/><path fill="none" stroke="#E55725" stroke-width=".518" stroke-miterlimit="10" d="M556.572 416.278v129.426M554.947 416.278v129.426M553.323 416.278v129.426M551.697 416.278v129.426M550.074 416.278v129.426M548.449 416.278v129.426M546.824 416.278v129.426M545.2 416.278v129.426M543.576 416.278v129.426M541.951 416.278v129.426M540.327 416.278v129.426M538.701 416.278v129.426M537.076 416.278v129.426M535.451 416.278v129.426M533.828 416.278v129.426M532.201 416.278v129.426M530.578 416.278v129.426M528.955 416.278v129.426M527.329 416.278v129.426M525.705 416.278v129.426M524.08 416.278v129.426"/></g></svg>